<svg width="46" height="46" viewBox="0 0 46 46" fill="none" xmlns="http://www.w3.org/2000/svg">
  <g clip-path="url(#clip0_946_22345)">
    <path d="M45.4779 0.499951C45.4779 0.543891 45.4391 0.55905 45.4147 0.583437C42.3617 3.6377 39.3083 6.69153 36.2545 9.74492L34.0287 11.9707L31.8889 14.1099C31.8605 14.1383 31.83 14.1644 31.801 14.1916C31.7548 14.173 31.7267 14.133 31.6933 14.0996C28.0675 10.4745 24.4417 6.8495 20.8158 3.22445C20.7499 3.15854 20.7024 3.09263 20.7156 2.99662C21.0262 2.66399 21.3349 2.32939 21.6478 1.99874C22.0213 1.60328 22.3989 1.21354 22.7737 0.820273C22.8741 0.715037 22.9715 0.606506 23.0692 0.499512L45.4779 0.499951Z" fill="#F78809"/>
    <path d="M0.505371 24.2495V2.65301C0.573258 2.6407 0.602259 2.69563 0.639608 2.73276L10.9576 13.0485C10.9881 13.0791 11.0125 13.1175 11.0558 13.1338C11.0335 13.1705 11.0085 13.2055 10.9811 13.2386C10.6832 13.5521 10.3831 13.8634 10.0854 14.1769C9.97311 14.2953 9.86568 14.4186 9.75583 14.5392C9.68706 14.6093 9.6172 14.6781 9.54953 14.7492C9.03163 15.2932 8.51416 15.8374 7.99713 16.3818C7.79413 16.5963 7.59113 16.8107 7.38813 17.0251C7.04232 17.3913 6.69673 17.7574 6.35136 18.1236C6.34205 18.1291 6.33323 18.1355 6.325 18.1425C5.63924 18.8618 4.95371 19.5812 4.26839 20.3008C4.18315 20.3902 4.10295 20.4847 4.02057 20.5768C3.99684 20.5987 3.97201 20.6207 3.9496 20.6447C3.30808 21.3205 2.6667 21.9965 2.02547 22.6729C1.73986 22.9748 1.44239 23.2661 1.17128 23.5814C1.08736 23.6666 1.00453 23.7528 0.919285 23.8365C0.779776 23.9738 0.663335 24.1324 0.505371 24.2495Z" fill="#0094D4"/>
    <path d="M42.2923 45.4944H38.2498C38.245 45.4213 38.1907 45.3804 38.1448 45.3345C31.9333 39.123 25.7219 32.9113 19.5105 26.6993C19.4773 26.6662 19.4356 26.6398 19.4185 26.5926C19.5982 26.4106 19.7778 26.2287 19.9574 26.0466C20.173 25.8282 20.3883 25.6098 20.6033 25.3912C20.6356 25.362 20.6692 25.3339 20.7002 25.3034C20.9468 25.0596 21.1933 24.8157 21.4397 24.5715C21.463 24.6236 21.5091 24.6557 21.5476 24.6941C28.3785 31.5259 35.2097 38.3574 42.0414 45.1886C42.1086 45.2561 42.1754 45.3239 42.2435 45.3903C42.2734 45.4193 42.2984 45.4492 42.2923 45.4944Z" fill="#7771E1"/>
    <path d="M42.2925 45.4944C42.2986 45.4492 42.2736 45.4193 42.2437 45.3901C42.1756 45.3242 42.1088 45.2558 42.0416 45.1884C35.2102 38.357 28.3788 31.5255 21.5473 24.6939C21.5089 24.6555 21.4627 24.6234 21.4395 24.5713C21.4742 24.5342 21.5084 24.4964 21.5438 24.4599L22.3661 23.615L23.0811 22.9266C24.0107 23.8612 24.9402 24.7958 25.8697 25.7302C26.9744 26.8416 28.0788 27.9534 29.183 29.0655L32.4185 32.3228L35.7476 35.6738L39.0297 38.9779L42.3197 42.2899C43.3493 43.3261 44.379 44.3624 45.4089 45.3986C45.4362 45.4263 45.456 45.4645 45.5001 45.4727C45.4803 45.5182 45.4408 45.4933 45.4122 45.4933C44.3725 45.4941 43.3326 45.4944 42.2925 45.4944Z" fill="#7F6EE2"/>
    <path d="M27.4405 45.4945H23.0245C23.0228 45.4345 22.9714 45.4092 22.9366 45.3745C19.2543 41.6907 15.5716 38.0071 11.8884 34.3236C11.8552 34.2902 11.8144 34.2632 11.7959 34.2166L11.8383 34.1566C11.868 34.1301 11.8992 34.1046 11.9262 34.0765C12.4688 33.5345 13.0113 32.9926 13.5537 32.4507C13.706 32.2986 13.8602 32.1486 14.0138 31.9974C14.0311 32.0447 14.0733 32.0708 14.1063 32.104C18.5189 36.5176 22.9317 40.9308 27.3449 45.3435C27.3669 45.3642 27.3851 45.3875 27.4075 45.4053C27.4207 45.4157 27.4307 45.4295 27.4365 45.4453C27.4423 45.461 27.4437 45.478 27.4405 45.4945Z" fill="#4D7DDC"/>
    <path d="M34.4928 45.4945H31.1534C31.1534 45.4334 31.1002 45.4097 31.0655 45.375C26.0282 40.3365 20.9904 35.2981 15.9521 30.2596C15.9192 30.2266 15.8772 30.2003 15.8599 30.1533C16.0985 29.9123 16.3369 29.6714 16.5752 29.4305C16.7542 29.249 16.9329 29.0671 17.1113 28.8849L17.525 28.4871C17.5724 28.504 17.5986 28.5462 17.6317 28.5793C23.2209 34.1676 28.8098 39.7562 34.3983 45.3451C34.419 45.3657 34.4383 45.389 34.4607 45.4068C34.4735 45.4172 34.4832 45.4308 34.4889 45.4462C34.4945 45.4617 34.4959 45.4783 34.4928 45.4945Z" fill="#6376DF"/>
    <path d="M15.8599 30.1531C15.8773 30.2001 15.9192 30.2265 15.9522 30.2594C20.9906 35.2979 26.0284 40.3363 31.0655 45.3748C31.1003 45.4095 31.1534 45.4332 31.1534 45.4943H27.4405C27.4436 45.4781 27.4422 45.4614 27.4366 45.4459C27.4309 45.4305 27.4212 45.4168 27.4084 45.4064C27.3864 45.3877 27.3667 45.3653 27.3458 45.3447C22.9329 40.9315 18.52 36.5183 14.1071 32.1051C14.0742 32.0719 14.032 32.0458 14.0146 31.9986C14.0621 31.9487 14.1096 31.8984 14.1572 31.8485C14.3407 31.6567 14.5415 31.4818 14.7137 31.279L15.8599 30.1531Z" fill="#577ADE"/>
    <path d="M34.4928 45.4945C34.4959 45.4783 34.4945 45.4616 34.4889 45.4461C34.4832 45.4306 34.4735 45.4169 34.4607 45.4066C34.4387 45.3881 34.4189 45.3655 34.3983 45.3448C28.8096 39.7561 23.2207 34.1675 17.6317 28.5791C17.5985 28.5459 17.5724 28.5037 17.5249 28.4868L18.6937 27.3182C18.7111 27.3655 18.7528 27.3918 18.786 27.425C24.7687 33.4086 30.7513 39.3918 36.7339 45.3745C36.7684 45.409 36.8218 45.4329 36.8218 45.4938L34.4928 45.4945Z" fill="#6B74E0"/>
    <path d="M0.505371 29.5003V25.6995C0.571281 25.6903 0.602698 25.7435 0.640486 25.7802C2.26832 27.4073 3.89593 29.0347 5.52331 30.6626C7.12258 32.2615 8.72163 33.8605 10.3205 35.4595C10.3578 35.4968 10.3877 35.5502 10.4543 35.5419L10.3883 35.6249C10.2299 35.7807 10.0707 35.9353 9.9138 36.0927C9.58718 36.42 9.26121 36.7481 8.93591 37.0769L8.52244 37.4754C8.49014 37.446 8.45653 37.4181 8.42533 37.3876C5.8254 34.7881 3.22562 32.1883 0.625986 29.5882C0.590615 29.5537 0.56447 29.5039 0.505371 29.5003Z" fill="#D3648B"/>
    <path d="M8.52239 37.4754L8.9363 37.0769C8.96157 37.0989 8.98881 37.1169 9.01188 37.1397L17.2287 45.3565C17.268 45.3959 17.3053 45.4354 17.311 45.4943H13.2905C13.2872 45.4352 13.2374 45.409 13.2027 45.3739C11.1744 43.3437 9.14524 41.314 7.11521 39.2849C7.05062 39.2205 6.98339 39.1588 6.91748 39.0959C7.36874 38.6419 7.82001 38.1879 8.27127 37.7338C8.35651 37.6494 8.4389 37.5616 8.52239 37.4754Z" fill="#2888D9"/>
    <path d="M8.52244 37.4755C8.43895 37.562 8.35656 37.6499 8.27176 37.7351C7.82093 38.1892 7.36967 38.6432 6.91797 39.0973L6.39069 39.6079C6.33225 39.6026 6.3061 39.5532 6.27095 39.518C4.39677 37.6437 2.52243 35.7691 0.647956 33.8944C0.608191 33.8546 0.576774 33.797 0.505371 33.8065V29.5004C0.56447 29.5039 0.590615 29.5538 0.625767 29.5882C3.22584 32.1873 5.82562 34.7871 8.42511 37.3876C8.45631 37.4177 8.49014 37.4456 8.52244 37.4755Z" fill="#CF609A"/>
    <path d="M10.3892 35.6248L10.4551 35.5418C10.4874 35.5126 10.521 35.4844 10.5517 35.4539C10.9668 35.0422 11.3815 34.6301 11.7959 34.2177C11.8144 34.2642 11.8552 34.2913 11.8884 34.3246C15.5713 38.008 19.254 41.6916 22.9367 45.3756C22.9716 45.4103 23.023 45.4355 23.0245 45.4955H20.2343C20.2311 45.4364 20.181 45.4101 20.1465 45.3751C16.9575 42.1846 13.7682 38.9948 10.5788 35.8056C10.5181 35.7443 10.4522 35.6852 10.3892 35.6248Z" fill="#3D82DB"/>
    <path d="M11.7957 34.2175C11.3811 34.6297 10.9664 35.0418 10.5516 35.4538C10.5208 35.4845 10.4872 35.5127 10.4549 35.5417C10.389 35.55 10.3585 35.4977 10.3211 35.4593C8.72156 33.8607 7.12229 32.2618 5.52331 30.6626C3.89578 29.035 2.26817 27.4075 0.640486 25.7802C0.602698 25.7435 0.57194 25.6903 0.505371 25.6995V24.2495C0.663335 24.1324 0.779776 23.9738 0.918407 23.8373C1.00365 23.7536 1.08648 23.6675 1.1704 23.5823C1.2016 23.6012 1.23939 23.6139 1.26224 23.6398C1.48391 23.8921 1.7313 24.1194 1.96813 24.3563C2.07513 24.4633 2.18124 24.5718 2.28933 24.6779C2.54243 24.9266 2.79201 25.1791 3.04268 25.4302C3.28553 25.6733 3.52815 25.9168 3.77055 26.1607C4.01617 26.4067 4.26224 26.6524 4.50874 26.8976C4.70911 27.0953 4.91892 27.2862 5.11138 27.4923C5.35612 27.7546 5.61866 27.9976 5.86824 28.2557C6.09981 28.495 6.35158 28.7158 6.57875 28.9588C6.82921 29.2255 7.09549 29.4757 7.35144 29.737C7.5819 29.9723 7.82774 30.1931 8.0525 30.4336C8.29746 30.6957 8.56022 30.9389 8.80892 31.1973C9.04005 31.437 9.29226 31.6563 9.51987 31.9003C9.76154 32.1605 10.0197 32.4057 10.2688 32.6581C10.4694 32.862 10.672 33.065 10.8807 33.2614C11.1283 33.4947 11.3537 33.7515 11.5993 33.9864C11.6679 34.0523 11.714 34.1644 11.8381 34.1584L11.7957 34.2175Z" fill="#D6677F"/>
    <path d="M36.8219 45.4945C36.8219 45.4336 36.7688 45.4097 36.734 45.3752C30.7519 39.3914 24.7693 33.4083 18.7861 27.4257C18.7529 27.3925 18.7112 27.3662 18.6938 27.3191L18.8019 27.1935L19.4184 26.5933C19.4356 26.6405 19.4773 26.6669 19.5105 26.7C25.7217 32.9121 31.9331 39.1238 38.1447 45.3352C38.1907 45.3811 38.2449 45.4231 38.2498 45.4951L36.8219 45.4945Z" fill="#7172E1"/>
    <path d="M10.3895 35.6249C10.4528 35.6853 10.5174 35.7444 10.5791 35.8061C13.7684 38.9952 16.9575 42.1845 20.1464 45.3741C20.1813 45.409 20.2314 45.4354 20.2342 45.4945H17.3122C17.3065 45.4356 17.2683 45.396 17.2298 45.3567L9.01308 37.1399C8.99111 37.118 8.96277 37.098 8.9375 37.0771C9.26339 36.7489 9.58935 36.4208 9.91538 36.0928C10.0718 35.9353 10.2311 35.7806 10.3895 35.6249Z" fill="#3185DA"/>
    <path d="M23.0684 0.5C22.9702 0.606994 22.8733 0.715525 22.7729 0.820762C22.3981 1.21402 22.0206 1.60465 21.6469 1.99923C21.3341 2.32988 21.0254 2.66448 20.7147 2.99711C20.633 3.08015 20.55 3.1621 20.4696 3.24647C19.8677 3.87774 19.2663 4.50937 18.6654 5.14138C18.6384 5.12318 18.6126 5.10322 18.5883 5.08162C17.0977 3.59176 15.6074 2.10183 14.1174 0.611827C14.086 0.58041 14.053 0.550751 14.0607 0.5H23.0684Z" fill="#7F6EE2"/>
    <path d="M1.36219 0.5H3.29555C3.2861 0.571622 3.3441 0.6026 3.38343 0.642365C6.67893 3.93903 9.97501 7.23534 13.2717 10.5313C13.3209 10.5805 13.3747 10.6262 13.3815 10.702L13.3363 10.76C13.1223 10.9821 12.9142 11.2095 12.689 11.4206C12.6075 11.4969 12.5607 11.6063 12.4581 11.6623C12.4296 11.6296 12.4028 11.5948 12.372 11.5641C9.79419 8.98627 7.21697 6.4089 4.64033 3.83197C3.57435 2.76657 2.50837 1.70073 1.44238 0.634456C1.40503 0.596888 1.35165 0.567008 1.36219 0.5Z" fill="#2888D9"/>
    <path d="M0.505371 33.8065C0.576774 33.7975 0.608191 33.855 0.647956 33.8944C2.52273 35.7681 4.3975 37.6421 6.27227 39.5163C6.30742 39.5514 6.33357 39.6008 6.39201 39.6061C6.36542 39.6358 6.34016 39.6665 6.31204 39.694C6.03741 39.9726 5.76242 40.2501 5.48706 40.5267C5.40863 40.6027 5.32932 40.6782 5.25154 40.7551C4.94265 41.0604 4.6339 41.3659 4.32529 41.6717C4.2708 41.668 4.24598 41.6221 4.21346 41.5896C3.02225 40.3994 1.83119 39.2086 0.640267 38.0172C0.602698 37.9808 0.57194 37.9276 0.505371 37.9368V33.8065Z" fill="#CB5CA9"/>
    <path d="M1.3622 0.5C1.35165 0.567008 1.40614 0.596888 1.44239 0.634456C2.50808 1.70088 3.57406 2.76708 4.64034 3.83306C7.21815 6.41088 9.79538 8.98825 12.372 11.5652C12.4028 11.5959 12.4296 11.6311 12.4581 11.6634C12.1963 11.9433 11.9539 12.2419 11.6672 12.4982C11.6466 12.4732 11.6275 12.4464 11.6046 12.4235C7.93738 8.75558 4.26978 5.08806 0.601819 1.42098C0.574577 1.39374 0.554144 1.35331 0.505371 1.35683V0.5H1.3622Z" fill="#188DD7"/>
    <path d="M4.28437 0.5H6.21773C6.21904 0.555584 6.26584 0.579971 6.29836 0.612486C9.1193 3.4346 11.9407 6.25621 14.7625 9.0773C14.7908 9.10542 14.8225 9.13002 14.8526 9.15639C14.7805 9.21966 14.703 9.2781 14.6619 9.36928C14.5632 9.46485 14.4514 9.55053 14.3686 9.6584C14.2295 9.83943 14.0454 9.97609 13.905 10.1545C13.8543 10.1365 13.8235 10.0934 13.7875 10.0576C12.4936 8.7643 11.1999 7.47071 9.90648 6.17682C8.05881 4.32959 6.21158 2.4822 4.36478 0.634676C4.32721 0.597107 4.2747 0.56591 4.28437 0.5Z" fill="#3D82DB"/>
    <path d="M5.4873 40.5266C5.76237 40.2501 6.03714 39.9727 6.31162 39.6944C6.33974 39.6661 6.36501 39.6353 6.39159 39.6065L6.91887 39.0959C6.98478 39.1588 7.05069 39.2205 7.1166 39.2849C9.14633 41.3143 11.1758 43.3441 13.2049 45.3741C13.2401 45.4093 13.2899 45.4354 13.2928 45.4945H10.3928C10.3989 45.4492 10.3732 45.42 10.344 45.3901C10.1039 45.1443 9.86483 44.8971 9.62316 44.6533C8.28269 43.3017 6.9374 41.9548 5.58727 40.6125C5.55585 40.5818 5.52092 40.5552 5.4873 40.5266Z" fill="#188DD7"/>
    <path d="M14.8526 9.15617C14.8225 9.12981 14.7909 9.1052 14.7625 9.07708C11.941 6.25584 9.11964 3.43431 6.2984 0.612486C6.26589 0.579971 6.21909 0.555584 6.21777 0.5H8.08522C8.0872 0.555145 8.13333 0.579971 8.16585 0.612706C10.6652 3.11289 13.1648 5.61263 15.6649 8.11194C15.693 8.14006 15.7251 8.16423 15.7554 8.19037C15.6763 8.30901 15.5684 8.40194 15.4713 8.50454C15.2955 8.68975 15.124 8.87803 14.9478 9.06214C14.9172 9.09422 14.915 9.15617 14.8526 9.15617Z" fill="#4D7DDC"/>
    <path d="M0.505418 37.9368C0.571328 37.9276 0.602745 37.9808 0.640313 38.0173C1.83182 39.208 3.0231 40.3988 4.21417 41.5896C4.24669 41.6221 4.27151 41.668 4.326 41.6717L4.01512 41.9987C3.99865 42.0129 3.98107 42.0261 3.96569 42.0415C2.83673 43.1693 1.70805 44.2978 0.579676 45.4271C0.559464 45.4473 0.532221 45.4627 0.526509 45.4945C0.480591 45.4701 0.506077 45.4286 0.506077 45.3957C0.505198 43.7223 0.504978 42.0489 0.505418 40.3755V37.9368Z" fill="#C758B9"/>
    <path d="M0.505371 1.35678C0.554144 1.35327 0.574577 1.39369 0.601819 1.42093C4.26978 5.08816 7.93738 8.75568 11.6046 12.4235C11.6266 12.4455 11.6466 12.4731 11.6672 12.4982C11.6292 12.5874 11.5385 12.6324 11.4886 12.7117C11.3348 12.8425 11.223 13.0173 11.0549 13.1338C11.011 13.1175 10.9872 13.0791 10.9567 13.0485L0.639608 2.73276C0.602259 2.69563 0.573698 2.64071 0.505371 2.65301V1.35678Z" fill="#0E90D6"/>
    <path d="M9.38135 0.5H11.4246C11.4267 0.555145 11.4727 0.58019 11.5052 0.612706C13.4333 2.54167 15.3617 4.47019 17.2905 6.39828C17.3186 6.4264 17.3507 6.45057 17.381 6.47671C17.3459 6.52065 17.3151 6.57008 17.2749 6.61139C17.0724 6.82384 16.8676 7.03409 16.6644 7.2461C16.6487 7.26544 16.6348 7.2861 16.6226 7.30784L16.3684 7.5539C16.3654 7.4948 16.3157 7.46822 16.2806 7.43306C14.0103 5.1621 11.7401 2.89114 9.46989 0.620176C9.43495 0.585243 9.38486 0.559099 9.38135 0.5Z" fill="#6376DF"/>
    <path d="M4.01514 41.9986L4.32601 41.6717C4.63462 41.366 4.94337 41.0605 5.25227 40.7551C5.33004 40.6782 5.40935 40.6026 5.48778 40.5266C5.52074 40.5552 5.55567 40.5818 5.58643 40.6125C6.9329 41.9584 8.27819 43.3053 9.62232 44.6532C9.86399 44.8971 10.103 45.1443 10.3432 45.3901C10.3724 45.42 10.3981 45.4492 10.3919 45.4945H7.46992C7.46333 45.422 7.41038 45.38 7.36424 45.3339C6.28039 44.25 5.19712 43.1669 4.11444 42.0845C4.08368 42.0538 4.04897 42.0272 4.01514 41.9986Z" fill="#0E90D6"/>
    <path d="M4.01508 41.9985C4.04803 42.0271 4.08274 42.0537 4.1135 42.0844C5.19735 43.1673 6.28062 44.2504 7.3633 45.3338C7.40944 45.38 7.46238 45.4217 7.46898 45.4944H0.527344C0.533056 45.4626 0.560299 45.4472 0.580511 45.427C1.7083 44.2981 2.83697 43.1696 3.96652 42.0414C3.9819 42.026 3.99948 42.0128 4.01508 41.9985Z" fill="#0094D4"/>
    <path d="M4.28413 0.499927C4.27446 0.565837 4.32697 0.597034 4.36454 0.634603C6.21133 2.48228 8.05857 4.32966 9.90624 6.17675C11.1998 7.47034 12.4935 8.76371 13.7872 10.0569C13.8233 10.0927 13.8532 10.1357 13.9048 10.1538C13.7404 10.3455 13.5385 10.5013 13.383 10.7012C13.3751 10.6254 13.3213 10.5798 13.2731 10.5305C9.97765 7.23504 6.68156 3.93874 3.38489 0.641633C3.34513 0.601867 3.28713 0.57089 3.29701 0.499268L4.28413 0.499927Z" fill="#3185DA"/>
    <path d="M9.38119 0.5C9.3847 0.559099 9.4348 0.585243 9.46907 0.620176C11.7393 2.89143 14.0095 5.16239 16.2798 7.43306C16.3149 7.46822 16.3646 7.4948 16.3676 7.5539C16.3143 7.61322 16.2622 7.67385 16.2075 7.73186C16.0603 7.8885 15.9162 8.04822 15.7545 8.19037C15.7241 8.16422 15.6921 8.14006 15.6639 8.11194C13.1645 5.61234 10.665 3.1126 8.16559 0.612706C8.13308 0.579971 8.08694 0.555145 8.08496 0.5H9.38119Z" fill="#577ADE"/>
    <path d="M14.0609 0.5C14.0532 0.550751 14.0862 0.58041 14.1176 0.611827C15.6077 2.10183 17.098 3.59176 18.5885 5.08162C18.6128 5.10322 18.6386 5.12318 18.6656 5.14138C18.5263 5.27759 18.385 5.41227 18.2701 5.57155L17.8619 5.97294C17.8399 5.91186 17.794 5.87012 17.7499 5.82618C16.0151 4.09158 14.2803 2.35624 12.5454 0.620176C12.5105 0.585243 12.4606 0.559099 12.4575 0.5H14.0609Z" fill="#7172E1"/>
    <path d="M12.4569 0.5C12.4604 0.559099 12.5103 0.585243 12.5448 0.620176C14.2798 2.35624 16.015 4.09158 17.7504 5.82618C17.7943 5.87012 17.8411 5.91186 17.8624 5.97294C17.7242 6.161 17.5484 6.31611 17.3808 6.47583C17.3505 6.44969 17.3184 6.42552 17.2903 6.3974C15.3616 4.4699 13.4332 2.54167 11.5049 0.612706C11.4724 0.58019 11.4265 0.555145 11.4243 0.5H12.4569Z" fill="#6B74E0"/>
    <path d="M18.271 5.57149C18.3852 5.4122 18.5265 5.27753 18.6665 5.14131C19.2674 4.50946 19.8689 3.87775 20.4709 3.24619C20.5513 3.16182 20.6343 3.07987 20.716 2.99683C20.7029 3.09349 20.7499 3.15852 20.8162 3.22465C24.4429 6.84882 28.0687 10.4739 31.6938 14.0998C31.7272 14.1332 31.7553 14.1732 31.8014 14.1918C31.777 14.2189 31.7535 14.2468 31.7278 14.2725C30.9574 15.0432 30.1868 15.8137 29.4159 16.5841C29.3902 16.6099 29.3623 16.6334 29.3353 16.658C29.3151 16.6083 29.2718 16.5782 29.2358 16.5424C25.6964 13.0023 22.1569 9.46244 18.6172 5.92279C18.5004 5.80656 18.3861 5.68859 18.271 5.57149Z" fill="#F58610"/>
    <path d="M15.7551 8.18942C15.9168 8.04727 16.0609 7.88755 16.2081 7.73091C16.2628 7.6729 16.3149 7.61227 16.3683 7.55295L16.6224 7.30688C16.6815 7.30864 16.7103 7.35632 16.7455 7.39169C20.3576 11.0036 23.9693 14.6155 27.5806 18.2275C27.6114 18.2583 27.6487 18.2842 27.6641 18.3279C27.4664 18.5274 27.2706 18.728 27.0709 18.9261C26.5952 19.4008 26.1192 19.875 25.6429 20.3487C25.6264 20.3048 25.5895 20.2793 25.5587 20.2483C21.963 16.6518 18.3669 13.0556 14.7704 9.45972C14.737 9.42633 14.7086 9.38634 14.6616 9.36921C14.7027 9.27803 14.7803 9.21959 14.8523 9.15632C14.9147 9.15632 14.9169 9.09414 14.9475 9.06207C15.1232 8.87774 15.2959 8.68858 15.471 8.50447C15.5681 8.40187 15.676 8.30894 15.7551 8.18942Z" fill="#F08123"/>
    <path d="M11.4888 12.7117C11.5386 12.6324 11.6294 12.5874 11.6674 12.4982C11.9541 12.2418 12.1964 11.9432 12.4583 11.6633C12.5609 11.6071 12.6077 11.4976 12.6892 11.4216C12.9144 11.2105 13.1225 10.9822 13.3364 10.761C13.3318 10.8502 13.3971 10.8976 13.4509 10.9515C17.0131 14.5147 20.5754 18.0773 24.1378 21.6392C24.1738 21.675 24.2173 21.7051 24.2371 21.7548C23.8813 22.1129 23.5255 22.4711 23.1698 22.8293C23.139 22.8605 23.1109 22.8941 23.0819 22.9266C22.8433 23.156 22.6049 23.3854 22.3668 23.615C22.3626 23.5517 22.3092 23.5236 22.2716 23.486C18.7359 19.9493 15.1998 16.413 11.6632 12.8771C11.6065 12.8205 11.547 12.7668 11.4888 12.7117Z" fill="#ED7D30"/>
    <path d="M27.6642 18.328C27.6489 18.284 27.6115 18.2583 27.5807 18.2276C23.9693 14.6157 20.3576 11.004 16.7456 7.39262C16.7102 7.35725 16.6817 7.30958 16.6226 7.30782C16.6347 7.28608 16.6486 7.26543 16.6643 7.24608C16.8675 7.03407 17.0723 6.82382 17.2748 6.61137C17.314 6.57007 17.3458 6.52173 17.381 6.4767C17.5493 6.3161 17.7233 6.16099 17.8625 5.97292L18.2707 5.57153C18.3859 5.68863 18.5001 5.80661 18.6161 5.92305C22.1558 9.46285 25.6953 13.0027 29.2346 16.5427C29.2707 16.5785 29.314 16.6086 29.3342 16.6582C29.1777 16.8311 29.0046 16.9878 28.839 17.1517C28.4457 17.5416 28.0555 17.9356 27.6642 18.328Z" fill="#F38418"/>
    <path d="M24.2368 21.7548C24.217 21.705 24.1735 21.6751 24.1375 21.6393C20.5754 18.0765 17.0131 14.5138 13.4506 10.9513C13.3968 10.8975 13.3316 10.85 13.3362 10.7608L13.383 10.702C13.5385 10.502 13.7404 10.3463 13.9048 10.1545C14.0451 9.97607 14.2292 9.83942 14.3683 9.65839C14.4511 9.55051 14.563 9.46483 14.6616 9.36926C14.7086 9.3864 14.737 9.42638 14.7704 9.45978C18.3668 13.0557 21.9631 16.6519 25.5592 20.2484C25.5899 20.2793 25.6268 20.3055 25.6433 20.3488L24.2368 21.7548Z" fill="#EE7F29"/>
    <path d="M11.8382 34.1579C11.714 34.1639 11.6679 34.0514 11.5993 33.9859C11.3537 33.7506 11.1283 33.4938 10.8807 33.2609C10.672 33.0645 10.4694 32.8615 10.2688 32.6576C10.0197 32.4045 9.76221 32.16 9.51988 31.8998C9.29293 31.6566 9.04005 31.4385 8.80893 31.1968C8.56023 30.9389 8.29747 30.6952 8.0525 30.4331C7.82775 30.1915 7.58191 29.9718 7.35144 29.7365C7.09549 29.4752 6.82922 29.225 6.57876 28.9583C6.35071 28.7166 6.09981 28.4949 5.86825 28.2552C5.61889 27.9984 5.35525 27.7545 5.11138 27.4922C4.91893 27.2861 4.70911 27.0968 4.50875 26.8975C4.2618 26.6528 4.01574 26.4071 3.77056 26.1606C3.52757 25.9175 3.28495 25.674 3.04269 25.4301C2.79201 25.179 2.54243 24.9266 2.28934 24.6779C2.18125 24.5718 2.07513 24.4632 1.96814 24.3562C1.7313 24.1194 1.4848 23.892 1.26224 23.6398C1.24027 23.6139 1.20161 23.6011 1.17041 23.5822C1.44152 23.2665 1.73877 22.9756 2.0246 22.6738C2.66525 21.9971 3.30677 21.3213 3.94917 20.6464C3.97114 20.6227 3.99641 20.6011 4.02013 20.5785C4.02013 20.6292 4.06144 20.6541 4.09176 20.6846C7.59978 24.1934 11.1087 27.702 14.6184 31.2106C14.6461 31.2383 14.6677 31.2766 14.7138 31.2792C14.5416 31.482 14.3403 31.6569 14.1573 31.8487C14.1096 31.8985 14.0622 31.9488 14.0147 31.9987C13.8609 32.1499 13.7071 32.2999 13.5547 32.4519C13.0117 32.9939 12.4692 33.5358 11.9271 34.0777C11.899 34.1054 11.8678 34.1309 11.8382 34.1579Z" fill="#DA6B72"/>
    <path d="M14.7143 31.2799C14.6682 31.277 14.6466 31.239 14.6189 31.2113C11.1087 27.7023 7.59946 24.1931 4.09115 20.6838C4.06083 20.6533 4.02041 20.6284 4.01953 20.5777C4.10192 20.4856 4.18211 20.3912 4.26735 20.3017C4.95238 19.5819 5.63791 18.8624 6.32396 18.1434C6.3322 18.1364 6.34102 18.1301 6.35032 18.1245C6.35164 18.1713 6.38987 18.1931 6.41755 18.2205C9.94959 21.7533 13.4821 25.2858 17.015 28.8179C17.0427 28.8456 17.0646 28.8839 17.1112 28.8839C16.9325 29.0658 16.7538 29.2476 16.5751 29.4294C16.337 29.6706 16.0985 29.9115 15.8598 30.1522L14.7143 31.2799Z" fill="#DE6F63"/>
    <path d="M19.4183 26.5925L18.8018 27.1934C18.7398 27.1763 18.6933 27.1356 18.6493 27.0917C15.1341 23.5765 11.6184 20.0608 8.10199 16.5446C8.05541 16.498 8.01213 16.449 7.99609 16.3824C8.51341 15.8383 9.03088 15.2941 9.54849 14.7498C9.61616 14.6786 9.68602 14.6099 9.75479 14.5398C9.75721 14.5949 9.80312 14.62 9.83586 14.6525C13.3874 18.205 16.9392 21.7569 20.4913 25.3079C20.5238 25.3405 20.5482 25.3866 20.6025 25.3912C20.3872 25.6096 20.1719 25.828 19.9565 26.0466C19.7776 26.2286 19.5981 26.4106 19.4183 26.5925Z" fill="#E67747"/>
    <path d="M20.6026 25.3919C20.5483 25.3873 20.5239 25.3411 20.4914 25.3086C16.9388 21.7571 13.387 18.2053 9.83595 14.6532C9.80322 14.6207 9.7573 14.5956 9.75488 14.5405C9.86473 14.4196 9.97217 14.2966 10.0844 14.1782C10.3821 13.8647 10.6822 13.5534 10.9801 13.2399C11.0076 13.2068 11.0325 13.1718 11.0548 13.1351C11.2229 13.0186 11.3343 12.8437 11.4885 12.713C11.5468 12.7682 11.6063 12.8218 11.663 12.8784C15.1994 16.4137 18.7358 19.9496 22.2723 23.486C22.3098 23.5236 22.3632 23.5519 22.3674 23.615L21.5451 24.4599C21.5097 24.4964 21.4754 24.5342 21.4407 24.5713C21.1942 24.8153 20.9477 25.0593 20.7012 25.3031C20.6685 25.3339 20.6357 25.362 20.6026 25.3919Z" fill="#E97A3E"/>
    <path d="M7.99636 16.3818C8.01239 16.4477 8.05568 16.4974 8.10225 16.544C11.6174 20.0592 15.1332 23.5749 18.6496 27.0911C18.6935 27.1351 18.7401 27.1757 18.8021 27.1928L18.694 27.3185C18.3042 27.7078 17.9146 28.0973 17.5252 28.4869L17.1115 28.8852C17.0649 28.8839 17.0429 28.8461 17.0153 28.8193C13.4825 25.2872 9.95 21.7547 6.41781 18.2218C6.39013 18.1944 6.3519 18.1726 6.35059 18.1258C6.6961 17.7596 7.04169 17.3935 7.38735 17.0273C7.59021 16.8113 7.79321 16.5961 7.99636 16.3818Z" fill="#E37453"/>
  </g>
  <defs>
    <clipPath id="clip0_946_22345">
      <rect width="45" height="45" fill="white" transform="translate(0.5 0.5)"/>
    </clipPath>
  </defs>
</svg>
