<svg width="74" height="46" viewBox="0 0 74 46" fill="none" xmlns="http://www.w3.org/2000/svg">
  <g clip-path="url(#clip0_946_22407)">
    <path d="M36.5792 45.5C36.335 45.5004 36.095 45.4362 35.8835 45.314L33.6686 44.0019C33.3366 43.8175 33.5026 43.7527 33.6088 43.7145C33.9582 43.6034 34.2928 43.45 34.6051 43.2578C34.6314 43.2452 34.6607 43.2397 34.6899 43.2421C34.719 43.2444 34.747 43.2544 34.7711 43.2711L36.4713 44.2809C36.5026 44.2981 36.5377 44.3071 36.5734 44.3071C36.6091 44.3071 36.6442 44.2981 36.6755 44.2809L43.3085 40.4508C43.3397 40.4324 43.3654 40.4061 43.3832 40.3747C43.401 40.3432 43.4102 40.3076 43.4098 40.2714V32.6144C43.4101 32.5776 43.4007 32.5414 43.3827 32.5094C43.3646 32.4773 43.3385 32.4506 43.3069 32.4317L36.6772 28.6115C36.6461 28.5936 36.6109 28.5842 36.575 28.5842C36.5392 28.5842 36.504 28.5936 36.4729 28.6115L29.8449 32.4317C29.8129 32.45 29.7863 32.4763 29.7676 32.5081C29.749 32.5398 29.739 32.5759 29.7386 32.6128V40.2697C29.7389 40.3059 29.7487 40.3414 29.7671 40.3726C29.7854 40.4038 29.8117 40.4296 29.8432 40.4474L31.6613 41.4972C32.6475 41.9955 33.2502 41.4108 33.2502 40.8328V33.2672C33.2502 33.242 33.2552 33.217 33.2649 33.1937C33.2746 33.1704 33.2888 33.1493 33.3067 33.1315C33.3246 33.1138 33.3459 33.0997 33.3692 33.0902C33.3926 33.0807 33.4176 33.076 33.4428 33.0762H34.2846C34.3354 33.0762 34.3841 33.0962 34.4202 33.132C34.4563 33.1678 34.4768 33.2164 34.4772 33.2672V40.8278C34.4772 42.1449 33.7599 42.899 32.513 42.899C32.1295 42.899 31.8273 42.899 30.9839 42.4838L29.2455 41.4872C29.0336 41.3641 28.8578 41.1874 28.7357 40.9749C28.6136 40.7624 28.5495 40.5215 28.5498 40.2764V32.6194C28.5496 32.3745 28.6138 32.1339 28.7359 31.9217C28.858 31.7095 29.0338 31.5331 29.2455 31.4102L35.8868 27.5751C36.1004 27.4582 36.3399 27.397 36.5833 27.397C36.8268 27.397 37.0663 27.4582 37.2799 27.5751L43.9212 31.4102C44.1331 31.533 44.3091 31.7094 44.4315 31.9216C44.5539 32.1338 44.6184 32.3744 44.6185 32.6194V40.2764C44.6183 40.5216 44.5538 40.7624 44.4314 40.9749C44.3091 41.1874 44.1331 41.364 43.9212 41.4872L37.2799 45.319C37.0665 45.4405 36.8247 45.503 36.5792 45.5Z" fill="#679E63"/>
    <path d="M38.6298 40.2232C35.7275 40.2232 35.1182 38.8944 35.1182 37.7733C35.1182 37.7481 35.1232 37.7231 35.1329 37.6998C35.1426 37.6765 35.1568 37.6554 35.1747 37.6376C35.1926 37.6199 35.2138 37.6059 35.2372 37.5964C35.2605 37.5869 35.2855 37.5821 35.3108 37.5823H36.1675C36.2141 37.5819 36.2592 37.5986 36.2944 37.6292C36.3296 37.6598 36.3524 37.7022 36.3584 37.7484C36.4879 38.6204 36.8748 39.0622 38.6298 39.0622C40.0261 39.0622 40.6222 38.745 40.6222 38.0042C40.6222 37.5773 40.4561 37.2584 38.2811 37.0458C36.4664 36.8664 35.344 36.4661 35.344 35.0128C35.344 33.6741 36.4713 32.8768 38.3641 32.8768C40.4877 32.8768 41.5403 33.6143 41.6732 35.2022C41.6752 35.2286 41.6718 35.2552 41.6632 35.2803C41.6545 35.3055 41.6409 35.3285 41.623 35.3481C41.6051 35.3677 41.5834 35.3835 41.5592 35.3944C41.5349 35.4053 41.5088 35.4111 41.4822 35.4114H40.6222C40.5787 35.411 40.5366 35.3958 40.5028 35.3683C40.4691 35.3409 40.4456 35.3028 40.4362 35.2603C40.2303 34.3418 39.7273 34.0478 38.3658 34.0478C36.8399 34.0478 36.6623 34.5793 36.6623 34.9779C36.6623 35.4613 36.8715 35.6008 38.932 35.8748C40.9924 36.1489 41.9372 36.5259 41.9372 37.9577C41.9372 39.3894 40.7301 40.2232 38.6298 40.2232Z" fill="#679E63"/>
    <path d="M48.1917 32.1925C48.1917 32.4454 48.1167 32.6927 47.9762 32.903C47.8358 33.1134 47.6361 33.2773 47.4025 33.3741C47.1689 33.4709 46.9118 33.4962 46.6638 33.4469C46.4158 33.3975 46.188 33.2757 46.0092 33.0968C45.8304 32.918 45.7087 32.6901 45.6593 32.442C45.61 32.1939 45.6353 31.9368 45.7321 31.7031C45.8288 31.4694 45.9927 31.2696 46.203 31.1291C46.4132 30.9886 46.6604 30.9136 46.9132 30.9136C47.252 30.9145 47.5767 31.0495 47.8163 31.2891C48.0558 31.5288 48.1908 31.8536 48.1917 32.1925ZM45.8423 32.1925C45.8413 32.4051 45.9035 32.6133 46.021 32.7905C46.1385 32.9677 46.3059 33.106 46.5021 33.1878C46.6983 33.2696 46.9144 33.2913 47.1229 33.2501C47.3314 33.2088 47.523 33.1065 47.6733 32.9562C47.8236 32.8058 47.9259 32.6142 47.9671 32.4056C48.0083 32.197 47.9867 31.9808 47.9049 31.7846C47.8231 31.5883 47.6848 31.4208 47.5077 31.3033C47.3305 31.1857 47.1225 31.1235 46.9099 31.1245C46.6277 31.1258 46.3574 31.2383 46.1576 31.4376C45.9578 31.6369 45.8445 31.9069 45.8423 32.1892V32.1925ZM46.4334 31.4783H46.9315C47.0975 31.4783 47.4296 31.4783 47.4296 31.8587C47.4355 31.9401 47.4111 32.0209 47.3612 32.0856C47.3112 32.1502 47.2393 32.1942 47.159 32.2091C47.3549 32.2241 47.3682 32.352 47.3964 32.5413C47.4034 32.6703 47.428 32.7977 47.4694 32.92H47.1639C47.1639 32.8519 47.1091 32.4865 47.1091 32.4666C47.0909 32.3852 47.0627 32.3453 46.9614 32.3453H46.7107V32.92H46.4334V31.4783ZM46.704 32.1078H46.9315C46.9595 32.1113 46.988 32.1085 47.0148 32.0997C47.0417 32.091 47.0663 32.0764 47.0869 32.0571C47.1075 32.0377 47.1236 32.0141 47.134 31.9878C47.1445 31.9616 47.149 31.9334 47.1473 31.9052C47.1473 31.7092 47.0112 31.7092 46.9381 31.7092H46.7073L46.704 32.1078Z" fill="#679E63"/>
    <path fill-rule="evenodd" clip-rule="evenodd" d="M16.0391 15.5399C16.0394 15.3902 16.0003 15.243 15.9257 15.1133C15.851 14.9835 15.7436 14.8757 15.6141 14.8007L8.57756 10.753C8.45993 10.6841 8.32692 10.6459 8.1907 10.6417H8.11764C7.98152 10.6465 7.84866 10.6847 7.73079 10.753L0.700925 14.8007C0.571645 14.876 0.464358 14.9838 0.389774 15.1135C0.315189 15.2432 0.275918 15.3902 0.275879 15.5399L0.290822 26.4423C0.290291 26.5167 0.309734 26.5898 0.347118 26.6541C0.384503 26.7184 0.438457 26.7714 0.503345 26.8077C0.566735 26.8468 0.639739 26.8675 0.714208 26.8675C0.788676 26.8675 0.86168 26.8468 0.92507 26.8077L5.10414 24.4176C5.23317 24.3425 5.3403 24.2349 5.41487 24.1055C5.48944 23.9761 5.52885 23.8295 5.52918 23.6801V18.5844C5.52879 18.4351 5.56791 18.2884 5.64257 18.1592C5.71723 18.0299 5.82475 17.9228 5.95423 17.8486L7.73411 16.8238C7.8629 16.748 8.00974 16.7084 8.15915 16.7092C8.30755 16.7082 8.45338 16.7478 8.58088 16.8238L10.3608 17.8486C10.4899 17.9231 10.5971 18.0304 10.6717 18.1595C10.7464 18.2887 10.7857 18.4352 10.7858 18.5844V23.6768C10.7857 23.8267 10.8249 23.974 10.8995 24.104C10.9741 24.2339 11.0814 24.3421 11.2109 24.4176L15.3849 26.8077C15.4486 26.8468 15.5219 26.8674 15.5966 26.8674C15.6713 26.8674 15.7446 26.8468 15.8083 26.8077C15.8726 26.7708 15.9259 26.7176 15.9629 26.6534C15.9999 26.5892 16.0194 26.5164 16.0192 26.4423L16.0391 15.5399Z" fill="white"/>
    <path fill-rule="evenodd" clip-rule="evenodd" d="M49.875 0.55321C49.8103 0.517367 49.7374 0.49904 49.6634 0.500039C49.5894 0.501037 49.517 0.521328 49.4533 0.558904C49.3896 0.596481 49.3368 0.650042 49.3001 0.714294C49.2634 0.778547 49.2441 0.851265 49.2441 0.925261V11.7214C49.2442 11.7737 49.2305 11.8251 49.2043 11.8704C49.1782 11.9157 49.1406 11.9533 49.0953 11.9795C49.05 12.0056 48.9986 12.0193 48.9463 12.0192C48.894 12.0191 48.8427 12.0052 48.7975 11.9789L47.0375 10.964C46.9083 10.8894 46.7617 10.8501 46.6125 10.8501C46.4632 10.8501 46.3167 10.8894 46.1874 10.964L39.1526 15.025C39.0236 15.0997 38.9164 15.207 38.8418 15.3361C38.7672 15.4653 38.7278 15.6117 38.7275 15.7608V23.8862C38.7278 24.0353 38.7672 24.1817 38.8418 24.3109C38.9164 24.44 39.0236 24.5473 39.1526 24.622L46.1874 28.6863C46.3165 28.7614 46.4631 28.801 46.6125 28.801C46.7618 28.801 46.9085 28.7614 47.0375 28.6863L54.0707 24.622C54.1995 24.5472 54.3064 24.4398 54.3807 24.3107C54.455 24.1816 54.4941 24.0352 54.4941 23.8862V3.6326C54.4951 3.48251 54.4565 3.3348 54.3822 3.20443C54.3078 3.07406 54.2004 2.96564 54.0707 2.89016L49.875 0.55321ZM49.2225 21.217C49.2226 21.2542 49.2128 21.2907 49.1941 21.3228C49.1755 21.3549 49.1486 21.3815 49.1163 21.3997L46.7021 22.7933C46.6699 22.8121 46.6332 22.822 46.5959 22.822C46.5585 22.822 46.5219 22.8121 46.4896 22.7933L44.0738 21.3997C44.0415 21.3815 44.0146 21.3549 43.9959 21.3228C43.9773 21.2907 43.9675 21.2542 43.9676 21.217V18.4266C43.9673 18.3893 43.9771 18.3525 43.9957 18.3201C44.0144 18.2877 44.0414 18.2608 44.0738 18.2423L46.4896 16.8471C46.5219 16.8283 46.5585 16.8183 46.5959 16.8183C46.6332 16.8183 46.6699 16.8283 46.7021 16.8471L49.1163 18.2423C49.1487 18.2608 49.1757 18.2877 49.1943 18.3201C49.213 18.3525 49.2227 18.3893 49.2225 18.4266V21.217Z" fill="white"/>
    <path fill-rule="evenodd" clip-rule="evenodd" d="M73.3024 18.3535C73.4308 18.2783 73.5373 18.1709 73.6113 18.0418C73.6853 17.9127 73.7242 17.7665 73.7242 17.6177V15.6494C73.7243 15.5007 73.6852 15.3545 73.6109 15.2256C73.5365 15.0967 73.4296 14.9897 73.3008 14.9153L66.3108 10.8543C66.1815 10.7797 66.0349 10.7404 65.8857 10.7404C65.7365 10.7404 65.5899 10.7797 65.4607 10.8543L58.4275 14.9153C58.2984 14.9899 58.1911 15.0971 58.1165 15.2263C58.0419 15.3554 58.0026 15.5019 58.0024 15.6511V23.7731C58.0025 23.9233 58.0423 24.0709 58.1178 24.2007C58.1934 24.3305 58.3019 24.438 58.4325 24.5122L65.4208 28.4985C65.5476 28.5698 65.6905 28.6073 65.8359 28.6073C65.9813 28.6073 66.1243 28.5698 66.251 28.4985L70.4782 26.1483C70.5434 26.1109 70.5976 26.057 70.6353 25.9919C70.673 25.9269 70.6928 25.8531 70.6928 25.7779C70.6928 25.7027 70.673 25.6289 70.6353 25.5638C70.5976 25.4988 70.5434 25.4449 70.4782 25.4075L63.4002 21.3448C63.3356 21.3073 63.282 21.2535 63.2447 21.1888C63.2074 21.1241 63.1878 21.0508 63.1877 20.9761V18.4382C63.1877 18.3637 63.2074 18.2905 63.2447 18.2261C63.282 18.1617 63.3356 18.1082 63.4002 18.0711L65.6101 16.7938C65.6747 16.7563 65.748 16.7366 65.8226 16.7366C65.8973 16.7366 65.9706 16.7563 66.0351 16.7938L68.2384 18.0645C68.303 18.1015 68.3566 18.155 68.3939 18.2195C68.4312 18.2839 68.4509 18.357 68.4509 18.4315V20.4313C68.4506 20.506 68.4701 20.5795 68.5074 20.6443C68.5446 20.7091 68.5984 20.7628 68.6631 20.8001C68.7279 20.8374 68.8013 20.8569 68.8761 20.8566C68.9508 20.8563 69.0241 20.8362 69.0885 20.7984L73.3024 18.3535Z" fill="white"/>
    <path fill-rule="evenodd" clip-rule="evenodd" d="M65.7828 17.9732C65.808 17.9586 65.8366 17.9509 65.8658 17.9509C65.8949 17.9509 65.9236 17.9586 65.9488 17.9732L67.2987 18.7522C67.3232 18.7667 67.3436 18.7874 67.3578 18.8121C67.3721 18.8368 67.3797 18.8648 67.38 18.8933V20.453C67.3797 20.4815 67.3721 20.5095 67.3578 20.5342C67.3436 20.559 67.3232 20.5796 67.2987 20.5942L65.9488 21.3731C65.9236 21.3877 65.8949 21.3954 65.8658 21.3954C65.8366 21.3954 65.808 21.3877 65.7828 21.3731L64.4329 20.5975C64.4084 20.5829 64.388 20.5623 64.3737 20.5375C64.3595 20.5128 64.3519 20.4848 64.3516 20.4563V18.8967C64.3519 18.8681 64.3595 18.8401 64.3737 18.8154C64.388 18.7907 64.4084 18.77 64.4329 18.7555L65.7828 17.9732Z" fill="#679E63"/>
    <path fill-rule="evenodd" clip-rule="evenodd" d="M27.8058 10.8959C27.6776 10.8217 27.5321 10.7826 27.384 10.7826C27.236 10.7826 27.0905 10.8217 26.9623 10.8959L19.9657 14.9337C19.8374 15.0081 19.731 15.115 19.657 15.2435C19.5829 15.3721 19.544 15.5178 19.5439 15.6661V23.7533C19.544 23.9016 19.5829 24.0473 19.657 24.1759C19.731 24.3044 19.8374 24.4113 19.9657 24.4857L26.9607 28.5268C27.0894 28.6012 27.2354 28.6403 27.384 28.6403C27.5327 28.6403 27.6787 28.6012 27.8074 28.5268L34.8008 24.4857C34.929 24.4113 35.0355 24.3044 35.1095 24.1759C35.1835 24.0473 35.2225 23.9016 35.2225 23.7533V15.6661C35.2225 15.5178 35.1835 15.3721 35.1095 15.2435C35.0355 15.115 34.929 15.0081 34.8008 14.9337L27.8058 10.8959Z" fill="url(#paint0_linear_946_22407)"/>
    <path d="M34.8107 14.9336L27.7991 10.8959C27.7303 10.857 27.6566 10.8274 27.58 10.8079L19.7017 24.2881C19.7696 24.3648 19.8492 24.4304 19.9374 24.4824L26.964 28.5235C27.062 28.5795 27.1701 28.6155 27.2821 28.6295C27.3941 28.6434 27.5077 28.6351 27.6165 28.6049L35 15.0798C34.9441 15.0224 34.8804 14.9732 34.8107 14.9336Z" fill="url(#paint1_linear_946_22407)"/>
    <path d="M26.7286 9.41101L26.6323 9.46582H26.7602L26.7286 9.41101Z" fill="url(#paint2_linear_946_22407)"/>
    <path d="M34.8192 24.4824C35.0224 24.3644 35.1709 24.171 35.2326 23.9443L27.5419 10.7979C27.3389 10.7563 27.1276 10.79 26.9475 10.8925L19.9741 14.9071L27.5054 28.6281C27.614 28.6129 27.7188 28.5774 27.8142 28.5235L34.8192 24.4824Z" fill="url(#paint3_linear_946_22407)"/>
    <path d="M35.4703 24.3513L35.4238 24.2732V24.3778L35.4703 24.3513Z" fill="url(#paint4_linear_946_22407)"/>
    <path d="M34.8194 24.4824L27.8161 28.5235C27.7207 28.5774 27.6159 28.6129 27.5073 28.6281L27.6468 28.8822L35.4238 24.3777V24.2731L35.2329 23.9409C35.172 24.1689 35.0233 24.3636 34.8194 24.4824Z" fill="url(#paint5_linear_946_22407)"/>
    <path d="M34.8194 24.4824L27.8161 28.5235C27.7207 28.5774 27.6159 28.6129 27.5073 28.6281L27.6468 28.8822L35.4238 24.3777V24.2731L35.2329 23.9409C35.172 24.1689 35.0233 24.3636 34.8194 24.4824Z" fill="url(#paint6_linear_946_22407)"/>
  </g>
  <defs>
    <linearGradient id="paint0_linear_946_22407" x1="30.2282" y1="13.9039" x2="23.9036" y2="26.7993" gradientUnits="userSpaceOnUse">
      <stop stop-color="#3F873F"/>
      <stop offset="0.33" stop-color="#3F8B3D"/>
      <stop offset="0.64" stop-color="#3E9637"/>
      <stop offset="0.93" stop-color="#3DA92E"/>
      <stop offset="1" stop-color="#3DAE2B"/>
    </linearGradient>
    <linearGradient id="paint1_linear_946_22407" x1="26.3181" y1="20.6539" x2="44.0567" y2="7.55199" gradientUnits="userSpaceOnUse">
      <stop offset="0.14" stop-color="#3F873F"/>
      <stop offset="0.4" stop-color="#529F44"/>
      <stop offset="0.71" stop-color="#63B649"/>
      <stop offset="0.91" stop-color="#6ABF4B"/>
    </linearGradient>
    <linearGradient id="paint2_linear_946_22407" x1="19.2971" y1="9.43925" x2="35.4702" y2="9.43925" gradientUnits="userSpaceOnUse">
      <stop offset="0.09" stop-color="#6ABF4B"/>
      <stop offset="0.29" stop-color="#63B649"/>
      <stop offset="0.6" stop-color="#529F44"/>
      <stop offset="0.86" stop-color="#3F873F"/>
    </linearGradient>
    <linearGradient id="paint3_linear_946_22407" x1="19.2967" y1="19.7055" x2="35.47" y2="19.7055" gradientUnits="userSpaceOnUse">
      <stop offset="0.09" stop-color="#6ABF4B"/>
      <stop offset="0.29" stop-color="#63B649"/>
      <stop offset="0.6" stop-color="#529F44"/>
      <stop offset="0.86" stop-color="#3F873F"/>
    </linearGradient>
    <linearGradient id="paint4_linear_946_22407" x1="19.2969" y1="24.3263" x2="35.4703" y2="24.3263" gradientUnits="userSpaceOnUse">
      <stop offset="0.09" stop-color="#6ABF4B"/>
      <stop offset="0.29" stop-color="#63B649"/>
      <stop offset="0.6" stop-color="#529F44"/>
      <stop offset="0.86" stop-color="#3F873F"/>
    </linearGradient>
    <linearGradient id="paint5_linear_946_22407" x1="19.297" y1="26.4124" x2="35.4703" y2="26.4124" gradientUnits="userSpaceOnUse">
      <stop offset="0.09" stop-color="#6ABF4B"/>
      <stop offset="0.29" stop-color="#63B649"/>
      <stop offset="0.6" stop-color="#529F44"/>
      <stop offset="0.86" stop-color="#3F873F"/>
    </linearGradient>
    <linearGradient id="paint6_linear_946_22407" x1="37.828" y1="13.5218" x2="27.8468" y2="33.8755" gradientUnits="userSpaceOnUse">
      <stop stop-color="#3F873F"/>
      <stop offset="0.33" stop-color="#3F8B3D"/>
      <stop offset="0.64" stop-color="#3E9637"/>
      <stop offset="0.93" stop-color="#3DA92E"/>
      <stop offset="1" stop-color="#3DAE2B"/>
    </linearGradient>
    <clipPath id="clip0_946_22407">
      <rect width="73.4483" height="45" fill="white" transform="translate(0.275879 0.5)"/>
    </clipPath>
  </defs>
</svg>
