<svg width="74" height="45" viewBox="0 0 74 45" fill="none" xmlns="http://www.w3.org/2000/svg">
  <g clip-path="url(#clip0_1347_23777)">
    <path d="M36.3167 45C36.0742 45 35.8334 44.9369 35.6208 44.814L33.4051 43.5035C33.0745 43.3191 33.2357 43.2527 33.3453 43.2145C33.7871 43.0617 33.8751 43.0268 34.3468 42.7594C34.3967 42.7311 34.4614 42.7428 34.5113 42.7727L36.2137 43.7825C36.2752 43.8174 36.3632 43.8174 36.4197 43.7825L43.0552 39.9524C43.1166 39.9175 43.1565 39.8461 43.1565 39.773V32.116C43.1565 32.0413 43.1166 31.9715 43.0535 31.9333L36.4213 28.1065C36.3599 28.07 36.2785 28.07 36.217 28.1065L29.5866 31.935C29.5218 31.9715 29.4819 32.0446 29.4819 32.116V39.773C29.4819 39.8461 29.5234 39.9158 29.5866 39.9507L31.4036 41.0004C32.3902 41.4937 32.9932 40.9124 32.9932 40.3294V32.7688C32.9932 32.6625 33.0795 32.5778 33.1858 32.5778H34.0279C34.1326 32.5778 34.2206 32.6625 34.2206 32.7688V40.3294C34.2206 41.6449 33.5031 42.4006 32.2557 42.4006C31.872 42.4006 31.5697 42.4006 30.7276 41.9854L28.987 40.9838C28.5568 40.7347 28.291 40.2713 28.291 39.773V32.116C28.291 31.6177 28.5568 31.1543 28.987 30.9069L35.6224 27.0734C36.0426 26.8359 36.6007 26.8359 37.0176 27.0734L43.6531 30.9069C44.0833 31.156 44.3507 31.6194 44.3507 32.116V39.773C44.3507 40.2713 44.0833 40.733 43.6531 40.9838L37.0176 44.814C36.805 44.9369 36.5642 45 36.3184 45H36.3167Z" fill="#679E63"/>
    <path d="M38.3662 39.7231C35.4629 39.7231 34.855 38.391 34.855 37.2716C34.855 37.1653 34.9397 37.0806 35.046 37.0806H35.903C35.9994 37.0806 36.0791 37.1487 36.094 37.2433C36.2236 38.117 36.6089 38.5571 38.3662 38.5571C39.7647 38.5571 40.3593 38.2416 40.3593 37.4991C40.3593 37.0723 40.1899 36.755 38.0174 36.5408C36.202 36.3614 35.0792 35.9594 35.0792 34.5078C35.0792 33.169 36.207 32.3701 38.1005 32.3701C40.2265 32.3701 41.2778 33.1076 41.4107 34.6905C41.4157 34.7453 41.3958 34.7968 41.3592 34.8383C41.3227 34.8765 41.2729 34.8997 41.218 34.8997H40.3577C40.268 34.8997 40.1899 34.8366 40.1717 34.7503C39.9657 33.8317 39.4624 33.5378 38.0988 33.5378C36.5724 33.5378 36.3947 34.0693 36.3947 34.4679C36.3947 34.9512 36.604 35.0907 38.6652 35.3631C40.7048 35.6322 41.6731 36.0142 41.6731 37.4476C41.6731 38.881 40.4673 39.7215 38.3645 39.7215L38.3662 39.7231Z" fill="#679E63"/>
    <path d="M47.9333 31.6925C47.9333 32.3967 47.3587 32.9714 46.6544 32.9714C45.9502 32.9714 45.3755 32.4034 45.3755 31.6925C45.3755 30.9816 45.9718 30.4136 46.6544 30.4136C47.3371 30.4136 47.9333 30.9683 47.9333 31.6925ZM45.5831 31.6892C45.5831 32.2855 46.0631 32.7655 46.6528 32.7655C47.2424 32.7655 47.729 32.2755 47.729 31.6892C47.729 31.1029 47.2424 30.6195 46.6528 30.6195C46.0631 30.6195 45.5831 31.0863 45.5831 31.6892ZM46.1744 30.975H46.6694C46.8388 30.975 47.171 30.975 47.171 31.3537C47.171 31.6178 47.0016 31.6709 46.9002 31.7058C47.0962 31.7191 47.1095 31.8486 47.1377 32.0313C47.151 32.1459 47.1726 32.3419 47.2125 32.41H46.9085C46.9019 32.3419 46.8537 31.9765 46.8537 31.9566C46.8338 31.8752 46.8056 31.8353 46.7042 31.8353H46.4534V32.41H46.1761V30.975H46.1744ZM46.4451 31.6045H46.6677C46.8504 31.6045 46.8836 31.4766 46.8836 31.4018C46.8836 31.2058 46.7474 31.2058 46.6743 31.2058H46.4451V31.6045Z" fill="#679E63"/>
    <path fill-rule="evenodd" clip-rule="evenodd" d="M15.769 15.0398C15.769 14.7342 15.6079 14.4535 15.3438 14.3007L8.30971 10.2513C8.19012 10.1815 8.05725 10.145 7.92271 10.14H7.84963C7.71509 10.145 7.58222 10.1815 7.46097 10.2513L0.425202 14.3007C0.162773 14.4518 0 14.7325 0 15.0398L0.0149485 25.9423C0.0149485 26.0934 0.093013 26.2346 0.22755 26.3093C0.358764 26.3874 0.519876 26.3874 0.64943 26.3093L4.83003 23.9159C5.09412 23.7581 5.25523 23.4824 5.25523 23.1784V18.086C5.25523 17.782 5.41634 17.5013 5.67877 17.3502L7.45931 16.3254C7.59218 16.249 7.73668 16.2108 7.88451 16.2108C8.03233 16.2108 8.1785 16.249 8.30639 16.3254L10.0853 17.3502C10.3494 17.5013 10.5105 17.782 10.5105 18.086V23.1784C10.5105 23.4807 10.6732 23.7598 10.9357 23.9159L15.1146 26.3093C15.2458 26.3874 15.4086 26.3874 15.5398 26.3093C15.6694 26.2346 15.7507 26.0934 15.7507 25.9423L15.764 15.0398H15.769Z" fill="#333333"/>
    <path fill-rule="evenodd" clip-rule="evenodd" d="M49.6172 0.0531049C49.486 -0.0199767 49.3249 -0.0183158 49.1953 0.0580877C49.0658 0.134491 48.986 0.274011 48.986 0.425157V11.2213C48.986 11.3276 48.9296 11.4256 48.8382 11.4788C48.7469 11.5319 48.6323 11.5319 48.5409 11.4788L46.7787 10.4639C46.5162 10.3128 46.1923 10.3128 45.9299 10.4639L38.8925 14.5249C38.6301 14.6761 38.4673 14.9568 38.4673 15.2607V23.3861C38.4673 23.69 38.6301 23.9707 38.8925 24.1219L45.9299 28.1862C46.1923 28.3374 46.5162 28.3374 46.7803 28.1862L53.8194 24.1219C54.0818 23.9691 54.2446 23.69 54.2446 23.3861V3.1325C54.2446 2.82522 54.0785 2.5412 53.8094 2.39006L49.6172 0.0531049ZM48.9645 20.7153C48.9645 20.7917 48.9246 20.8614 48.8582 20.8996L46.4415 22.2932C46.3767 22.3314 46.2953 22.3314 46.2289 22.2932L43.8122 20.8996C43.7458 20.8614 43.7059 20.7917 43.7059 20.7153V17.9249C43.7059 17.8485 43.7458 17.7787 43.8122 17.7405L46.2289 16.3453C46.2953 16.3071 46.375 16.3071 46.4415 16.3453L48.8582 17.7405C48.9229 17.7787 48.9645 17.8485 48.9645 17.9249V20.7153Z" fill="#333333"/>
    <path fill-rule="evenodd" clip-rule="evenodd" d="M73.0532 17.8534C73.3156 17.7006 73.4767 17.4216 73.4767 17.1193V15.1511C73.4767 14.8488 73.3156 14.5681 73.0532 14.4153L66.0606 10.3559C65.7982 10.2031 65.4726 10.2031 65.2085 10.3559L58.1728 14.417C57.9103 14.5681 57.7476 14.8488 57.7476 15.1528V23.2748C57.7476 23.5804 57.912 23.8628 58.1761 24.0139L65.167 27.9985C65.4245 28.1463 65.74 28.148 66.0008 28.0035L70.2296 25.6533C70.3641 25.5785 70.4471 25.4373 70.4488 25.2845C70.4488 25.1317 70.3691 24.9889 70.2362 24.9125L63.1556 20.8498C63.0227 20.7734 62.9413 20.6339 62.9413 20.4811V17.9348C62.9413 17.7837 63.0227 17.6425 63.1539 17.5661L65.358 16.2955C65.4892 16.2191 65.6503 16.2191 65.7816 16.2955L67.9856 17.5661C68.1168 17.6425 68.1982 17.782 68.1982 17.9348V19.9379C68.1982 20.0907 68.2796 20.2303 68.4108 20.3067C68.542 20.3831 68.7048 20.3814 68.836 20.3067L73.0499 17.8568L73.0532 17.8534Z" fill="#333333"/>
    <path fill-rule="evenodd" clip-rule="evenodd" d="M65.5307 17.4731C65.5805 17.4432 65.6436 17.4432 65.6934 17.4731L67.0438 18.2521C67.0936 18.282 67.1252 18.3351 67.1252 18.3933V19.9529C67.1252 20.011 67.0936 20.0642 67.0438 20.0941L65.6934 20.8731C65.6436 20.903 65.5805 20.903 65.5307 20.8731L64.182 20.0941C64.1321 20.0642 64.1006 20.011 64.1006 19.9529V18.3933C64.1006 18.3351 64.1321 18.282 64.182 18.2521L65.5307 17.4731Z" fill="#679E63"/>
    <path fill-rule="evenodd" clip-rule="evenodd" d="M27.5405 10.3958C27.2797 10.2447 26.9575 10.2447 26.695 10.3958L19.6975 14.4336C19.435 14.5847 19.2739 14.8638 19.2739 15.1661V23.2499C19.2739 23.5522 19.435 23.8312 19.6958 23.9824L26.6934 28.0234C26.9558 28.1746 27.278 28.1746 27.5388 28.0234L34.5347 23.9824C34.7955 23.8312 34.9566 23.5522 34.9566 23.2499V15.1661C34.9566 14.8638 34.7955 14.5847 34.533 14.4336L27.5371 10.3958H27.5405Z" fill="url(#paint0_linear_1347_23777)"/>
    <path d="M34.5513 14.4335L27.5338 10.3958C27.4641 10.3559 27.391 10.3277 27.3146 10.3077L19.4351 23.7863C19.5032 23.8627 19.5829 23.9292 19.6709 23.9806L26.7 28.0217C26.8993 28.1363 27.1352 28.1629 27.3528 28.1031L34.739 14.5764C34.6825 14.5199 34.6194 14.4717 34.5513 14.4319V14.4335Z" fill="url(#paint1_linear_1347_23777)"/>
    <path d="M26.4625 8.91089L26.3662 8.9657H26.4941L26.4625 8.91089Z" fill="url(#paint2_linear_1347_23777)"/>
    <path d="M34.556 23.9824C34.7603 23.8644 34.9114 23.6684 34.9696 23.4442L27.2761 10.3011C27.0751 10.2613 26.8625 10.2912 26.6814 10.3958L19.7104 14.4103L27.2412 28.1281C27.3491 28.1131 27.4538 28.0783 27.5501 28.0234L34.556 23.9824Z" fill="url(#paint3_linear_1347_23777)"/>
    <path d="M35.2072 23.8511L35.1606 23.7731V23.8777L35.2072 23.8511Z" fill="url(#paint4_linear_1347_23777)"/>
    <path d="M34.556 23.9823L27.5501 28.0234C27.4538 28.0782 27.3492 28.1131 27.2412 28.128L27.3807 28.3822L35.1623 23.8777V23.7714L34.9696 23.4425C34.9115 23.6667 34.7603 23.8627 34.556 23.9807V23.9823Z" fill="url(#paint5_linear_1347_23777)"/>
    <path d="M34.556 23.9823L27.5501 28.0234C27.4538 28.0782 27.3492 28.1131 27.2412 28.128L27.3807 28.3822L35.1623 23.8777V23.7714L34.9696 23.4425C34.9115 23.6667 34.7603 23.8627 34.556 23.9807V23.9823Z" fill="url(#paint6_linear_1347_23777)"/>
  </g>
  <defs>
    <linearGradient id="paint0_linear_1347_23777" x1="29.9638" y1="13.4038" x2="23.6406" y2="26.301" gradientUnits="userSpaceOnUse">
      <stop stop-color="#3F873F"/>
      <stop offset="0.33" stop-color="#3E8A3D"/>
      <stop offset="0.64" stop-color="#3E9537"/>
      <stop offset="0.93" stop-color="#3DA82D"/>
      <stop offset="1" stop-color="#3DAE2B"/>
    </linearGradient>
    <linearGradient id="paint1_linear_1347_23777" x1="26.0523" y1="20.1538" x2="43.7928" y2="7.04565" gradientUnits="userSpaceOnUse">
      <stop offset="0.14" stop-color="#3F873F"/>
      <stop offset="0.4" stop-color="#519F44"/>
      <stop offset="0.71" stop-color="#63B649"/>
      <stop offset="0.91" stop-color="#6ABF4B"/>
    </linearGradient>
    <linearGradient id="paint2_linear_1347_23777" x1="19.0282" y1="8.93912" x2="35.2073" y2="8.93912" gradientUnits="userSpaceOnUse">
      <stop offset="0.09" stop-color="#6ABF4B"/>
      <stop offset="0.29" stop-color="#63B649"/>
      <stop offset="0.6" stop-color="#519F44"/>
      <stop offset="0.86" stop-color="#3F873F"/>
    </linearGradient>
    <linearGradient id="paint3_linear_1347_23777" x1="19.0278" y1="19.2055" x2="35.2071" y2="19.2055" gradientUnits="userSpaceOnUse">
      <stop offset="0.09" stop-color="#6ABF4B"/>
      <stop offset="0.29" stop-color="#63B649"/>
      <stop offset="0.6" stop-color="#519F44"/>
      <stop offset="0.86" stop-color="#3F873F"/>
    </linearGradient>
    <linearGradient id="paint4_linear_1347_23777" x1="19.0271" y1="23.8262" x2="35.2072" y2="23.8262" gradientUnits="userSpaceOnUse">
      <stop offset="0.09" stop-color="#6ABF4B"/>
      <stop offset="0.29" stop-color="#63B649"/>
      <stop offset="0.6" stop-color="#519F44"/>
      <stop offset="0.86" stop-color="#3F873F"/>
    </linearGradient>
    <linearGradient id="paint5_linear_1347_23777" x1="19.0278" y1="25.9123" x2="35.2071" y2="25.9123" gradientUnits="userSpaceOnUse">
      <stop offset="0.09" stop-color="#6ABF4B"/>
      <stop offset="0.29" stop-color="#63B649"/>
      <stop offset="0.6" stop-color="#519F44"/>
      <stop offset="0.86" stop-color="#3F873F"/>
    </linearGradient>
    <linearGradient id="paint6_linear_1347_23777" x1="37.5656" y1="13.0217" x2="27.5867" y2="33.3783" gradientUnits="userSpaceOnUse">
      <stop stop-color="#3F873F"/>
      <stop offset="0.33" stop-color="#3E8A3D"/>
      <stop offset="0.64" stop-color="#3E9537"/>
      <stop offset="0.93" stop-color="#3DA82D"/>
      <stop offset="1" stop-color="#3DAE2B"/>
    </linearGradient>
    <clipPath id="clip0_1347_23777">
      <rect width="73.4753" height="45" fill="white"/>
    </clipPath>
  </defs>
</svg>
