<svg width="432" height="100" viewBox="0 0 432 100" fill="none" xmlns="http://www.w3.org/2000/svg">
  <mask id="mask0_1843_103827" style="mask-type:alpha" maskUnits="userSpaceOnUse" x="184" y="0" width="64" height="64">
    <rect x="184" width="64" height="64" fill="#D9D9D9"/>
  </mask>
  <g mask="url(#mask0_1843_103827)">
    <path d="M202.667 54.9744C199.696 54.9744 197.175 53.9394 195.105 51.8693C193.035 49.7992 192 47.2786 192 44.3077C192 41.3367 193.035 38.8162 195.105 36.7461C197.175 34.676 199.696 33.641 202.667 33.641C205.638 33.641 208.158 34.676 210.228 36.7461C212.298 38.8162 213.333 41.3367 213.333 44.3077C213.333 47.2786 212.298 49.7992 210.228 51.8693C208.158 53.9394 205.638 54.9744 202.667 54.9744ZM238.523 53.7436L221.764 36.9846C221.285 37.3949 220.713 37.788 220.046 38.1641C219.38 38.5402 218.756 38.8308 218.174 39.0359C217.983 38.6632 217.775 38.2966 217.551 37.9359C217.327 37.5752 217.097 37.2479 216.862 36.9539C219.097 36.0239 220.949 34.5418 222.415 32.5077C223.882 30.4735 224.615 28.082 224.615 25.3333C224.615 21.8291 223.389 18.8504 220.936 16.3975C218.483 13.9444 215.504 12.7179 212 12.7179C208.496 12.7179 205.517 13.9444 203.064 16.3975C200.611 18.8504 199.385 21.8291 199.385 25.3333C199.385 25.8735 199.43 26.4197 199.521 26.9718C199.611 27.5239 199.713 28.053 199.826 28.5589C199.436 28.5795 199.003 28.6632 198.526 28.8103C198.049 28.9572 197.621 29.106 197.241 29.2564C197.084 28.6992 196.957 28.0821 196.862 27.4051C196.766 26.7282 196.718 26.0376 196.718 25.3333C196.718 21.0701 198.199 17.4573 201.162 14.4949C204.124 11.5325 207.737 10.0513 212 10.0513C216.263 10.0513 219.876 11.5325 222.838 14.4949C225.801 17.4573 227.282 21.0701 227.282 25.3333C227.282 27.2444 226.948 29.047 226.28 30.741C225.611 32.435 224.761 33.9077 223.728 35.159L240.41 51.8564L238.523 53.7436ZM197.985 50.4461L202.667 45.7641L207.333 50.4461L208.805 48.9897L204.123 44.3077L208.805 39.6257L207.349 38.1693L202.667 42.8513L197.985 38.1693L196.528 39.6257L201.21 44.3077L196.528 48.9897L197.985 50.4461Z" fill="#3D3D4D"/>
  </g>
  <path d="M124.407 84.969V95H123.728C123.621 95 123.53 94.9813 123.455 94.944C123.385 94.9067 123.315 94.8437 123.245 94.755L117.442 87.195C117.451 87.3117 117.458 87.426 117.463 87.538C117.468 87.65 117.47 87.755 117.47 87.853V95H116.28V84.969H116.98C117.041 84.969 117.092 84.9737 117.134 84.983C117.176 84.9877 117.213 84.9993 117.246 85.018C117.279 85.032 117.311 85.0553 117.344 85.088C117.377 85.116 117.412 85.1533 117.449 85.2L123.252 92.753C123.243 92.6317 123.233 92.515 123.224 92.403C123.219 92.2863 123.217 92.1767 123.217 92.074V84.969H124.407ZM129.448 87.797C129.966 87.797 130.432 87.8833 130.848 88.056C131.263 88.2287 131.618 88.4737 131.912 88.791C132.206 89.1083 132.43 89.4933 132.584 89.946C132.742 90.394 132.822 90.8957 132.822 91.451C132.822 92.011 132.742 92.515 132.584 92.963C132.43 93.411 132.206 93.7937 131.912 94.111C131.618 94.4283 131.263 94.6733 130.848 94.846C130.432 95.014 129.966 95.098 129.448 95.098C128.925 95.098 128.454 95.014 128.034 94.846C127.618 94.6733 127.264 94.4283 126.97 94.111C126.676 93.7937 126.449 93.411 126.291 92.963C126.137 92.515 126.06 92.011 126.06 91.451C126.06 90.8957 126.137 90.394 126.291 89.946C126.449 89.4933 126.676 89.1083 126.97 88.791C127.264 88.4737 127.618 88.2287 128.034 88.056C128.454 87.8833 128.925 87.797 129.448 87.797ZM129.448 94.125C130.148 94.125 130.67 93.8917 131.016 93.425C131.361 92.9537 131.534 92.298 131.534 91.458C131.534 90.6133 131.361 89.9553 131.016 89.484C130.67 89.0127 130.148 88.777 129.448 88.777C129.093 88.777 128.783 88.8377 128.517 88.959C128.255 89.0803 128.036 89.2553 127.859 89.484C127.686 89.7127 127.555 89.995 127.467 90.331C127.383 90.6623 127.341 91.038 127.341 91.458C127.341 92.298 127.513 92.9537 127.859 93.425C128.209 93.8917 128.738 94.125 129.448 94.125ZM139.237 93.292C139.466 93.6 139.715 93.817 139.986 93.943C140.257 94.069 140.56 94.132 140.896 94.132C141.559 94.132 142.067 93.8963 142.422 93.425C142.777 92.9537 142.954 92.2817 142.954 91.409C142.954 90.947 142.912 90.5503 142.828 90.219C142.749 89.8877 142.632 89.617 142.478 89.407C142.324 89.1923 142.135 89.036 141.911 88.938C141.687 88.84 141.433 88.791 141.148 88.791C140.742 88.791 140.385 88.8843 140.077 89.071C139.774 89.2577 139.494 89.5213 139.237 89.862V93.292ZM139.174 89.008C139.473 88.6393 139.818 88.343 140.21 88.119C140.602 87.895 141.05 87.783 141.554 87.783C141.965 87.783 142.336 87.8623 142.667 88.021C142.998 88.175 143.281 88.406 143.514 88.714C143.747 89.0173 143.927 89.3953 144.053 89.848C144.179 90.3007 144.242 90.821 144.242 91.409C144.242 91.9317 144.172 92.4193 144.032 92.872C143.892 93.32 143.689 93.7097 143.423 94.041C143.162 94.3677 142.84 94.6267 142.457 94.818C142.079 95.0047 141.652 95.098 141.176 95.098C140.742 95.098 140.369 95.0257 140.056 94.881C139.748 94.7317 139.475 94.5263 139.237 94.265V97.401H137.984V87.909H138.733C138.91 87.909 139.02 87.9953 139.062 88.168L139.174 89.008ZM147.015 89.33C147.239 88.8447 147.514 88.4667 147.841 88.196C148.167 87.9207 148.566 87.783 149.038 87.783C149.187 87.783 149.329 87.7993 149.465 87.832C149.605 87.8647 149.728 87.916 149.836 87.986L149.745 88.917C149.717 89.0337 149.647 89.092 149.535 89.092C149.469 89.092 149.374 89.078 149.248 89.05C149.122 89.022 148.979 89.008 148.821 89.008C148.597 89.008 148.396 89.0407 148.219 89.106C148.046 89.1713 147.89 89.2693 147.75 89.4C147.614 89.526 147.491 89.6847 147.379 89.876C147.271 90.0627 147.173 90.2773 147.085 90.52V95H145.832V87.909H146.546C146.681 87.909 146.774 87.9347 146.826 87.986C146.877 88.0373 146.912 88.126 146.931 88.252L147.015 89.33ZM153.633 87.797C154.151 87.797 154.618 87.8833 155.033 88.056C155.449 88.2287 155.803 88.4737 156.097 88.791C156.391 89.1083 156.615 89.4933 156.769 89.946C156.928 90.394 157.007 90.8957 157.007 91.451C157.007 92.011 156.928 92.515 156.769 92.963C156.615 93.411 156.391 93.7937 156.097 94.111C155.803 94.4283 155.449 94.6733 155.033 94.846C154.618 95.014 154.151 95.098 153.633 95.098C153.111 95.098 152.639 95.014 152.219 94.846C151.804 94.6733 151.449 94.4283 151.155 94.111C150.861 93.7937 150.635 93.411 150.476 92.963C150.322 92.515 150.245 92.011 150.245 91.451C150.245 90.8957 150.322 90.394 150.476 89.946C150.635 89.4933 150.861 89.1083 151.155 88.791C151.449 88.4737 151.804 88.2287 152.219 88.056C152.639 87.8833 153.111 87.797 153.633 87.797ZM153.633 94.125C154.333 94.125 154.856 93.8917 155.201 93.425C155.547 92.9537 155.719 92.298 155.719 91.458C155.719 90.6133 155.547 89.9553 155.201 89.484C154.856 89.0127 154.333 88.777 153.633 88.777C153.279 88.777 152.968 88.8377 152.702 88.959C152.441 89.0803 152.222 89.2553 152.044 89.484C151.872 89.7127 151.741 89.995 151.652 90.331C151.568 90.6623 151.526 91.038 151.526 91.458C151.526 92.298 151.699 92.9537 152.044 93.425C152.394 93.8917 152.924 94.125 153.633 94.125ZM164.472 87.909L161.581 95H160.461L157.57 87.909H158.585C158.688 87.909 158.772 87.9347 158.837 87.986C158.903 88.0373 158.947 88.098 158.97 88.168L160.769 92.732C160.825 92.9047 160.874 93.0727 160.916 93.236C160.958 93.3993 160.998 93.5627 161.035 93.726C161.073 93.5627 161.112 93.3993 161.154 93.236C161.196 93.0727 161.248 92.9047 161.308 92.732L163.128 88.168C163.156 88.0933 163.203 88.0327 163.268 87.986C163.334 87.9347 163.411 87.909 163.499 87.909H164.472ZM166.931 87.909V95H165.685V87.909H166.931ZM167.197 85.683C167.197 85.8043 167.171 85.9187 167.12 86.026C167.073 86.1287 167.008 86.222 166.924 86.306C166.845 86.3853 166.749 86.4483 166.637 86.495C166.53 86.5417 166.415 86.565 166.294 86.565C166.173 86.565 166.058 86.5417 165.951 86.495C165.848 86.4483 165.757 86.3853 165.678 86.306C165.599 86.222 165.536 86.1287 165.489 86.026C165.442 85.9187 165.419 85.8043 165.419 85.683C165.419 85.5617 165.442 85.4473 165.489 85.34C165.536 85.228 165.599 85.1323 165.678 85.053C165.757 84.969 165.848 84.9037 165.951 84.857C166.058 84.8103 166.173 84.787 166.294 84.787C166.415 84.787 166.53 84.8103 166.637 84.857C166.749 84.9037 166.845 84.969 166.924 85.053C167.008 85.1323 167.073 85.228 167.12 85.34C167.171 85.4473 167.197 85.5617 167.197 85.683ZM173.598 89.596C173.365 89.2833 173.113 89.0663 172.842 88.945C172.572 88.819 172.268 88.756 171.932 88.756C171.274 88.756 170.768 88.9917 170.413 89.463C170.059 89.9343 169.881 90.6063 169.881 91.479C169.881 91.941 169.921 92.3377 170 92.669C170.08 92.9957 170.196 93.2663 170.35 93.481C170.504 93.691 170.693 93.845 170.917 93.943C171.141 94.041 171.396 94.09 171.68 94.09C172.091 94.09 172.448 93.9967 172.751 93.81C173.059 93.6233 173.342 93.3597 173.598 93.019V89.596ZM174.844 84.689V95H174.102C173.925 95 173.813 94.9137 173.766 94.741L173.654 93.88C173.351 94.244 173.006 94.538 172.618 94.762C172.231 94.986 171.783 95.098 171.274 95.098C170.868 95.098 170.5 95.021 170.168 94.867C169.837 94.7083 169.555 94.4773 169.321 94.174C169.088 93.8707 168.908 93.4927 168.782 93.04C168.656 92.5873 168.593 92.067 168.593 91.479C168.593 90.9563 168.663 90.471 168.803 90.023C168.943 89.5703 169.144 89.1783 169.405 88.847C169.667 88.5157 169.986 88.2567 170.364 88.07C170.747 87.8787 171.176 87.783 171.652 87.783C172.086 87.783 172.457 87.8577 172.765 88.007C173.078 88.1517 173.356 88.3547 173.598 88.616V84.689H174.844ZM181.558 90.681C181.558 90.3917 181.516 90.128 181.432 89.89C181.353 89.6473 181.234 89.4397 181.075 89.267C180.921 89.0897 180.732 88.9543 180.508 88.861C180.284 88.763 180.03 88.714 179.745 88.714C179.148 88.714 178.674 88.889 178.324 89.239C177.979 89.5843 177.764 90.065 177.68 90.681H181.558ZM182.566 94.006C182.412 94.1927 182.228 94.356 182.013 94.496C181.799 94.6313 181.568 94.7433 181.32 94.832C181.078 94.9207 180.826 94.986 180.564 95.028C180.303 95.0747 180.044 95.098 179.787 95.098C179.297 95.098 178.845 95.0163 178.429 94.853C178.019 94.685 177.662 94.4423 177.358 94.125C177.06 93.803 176.826 93.4063 176.658 92.935C176.49 92.4637 176.406 91.9223 176.406 91.311C176.406 90.8163 176.481 90.3543 176.63 89.925C176.784 89.4957 177.004 89.1247 177.288 88.812C177.573 88.4947 177.921 88.2473 178.331 88.07C178.742 87.888 179.204 87.797 179.717 87.797C180.142 87.797 180.534 87.8693 180.893 88.014C181.257 88.154 181.57 88.3593 181.831 88.63C182.097 88.896 182.305 89.2273 182.454 89.624C182.604 90.016 182.678 90.464 182.678 90.968C182.678 91.164 182.657 91.2947 182.615 91.36C182.573 91.4253 182.494 91.458 182.377 91.458H177.638C177.652 91.906 177.713 92.2957 177.82 92.627C177.932 92.9583 178.086 93.236 178.282 93.46C178.478 93.6793 178.712 93.845 178.982 93.957C179.253 94.0643 179.556 94.118 179.892 94.118C180.205 94.118 180.473 94.083 180.697 94.013C180.926 93.9383 181.122 93.859 181.285 93.775C181.449 93.691 181.584 93.614 181.691 93.544C181.803 93.4693 181.899 93.432 181.978 93.432C182.081 93.432 182.16 93.4717 182.216 93.551L182.566 94.006ZM185.392 89.33C185.616 88.8447 185.891 88.4667 186.218 88.196C186.544 87.9207 186.943 87.783 187.415 87.783C187.564 87.783 187.706 87.7993 187.842 87.832C187.982 87.8647 188.105 87.916 188.213 87.986L188.122 88.917C188.094 89.0337 188.024 89.092 187.912 89.092C187.846 89.092 187.751 89.078 187.625 89.05C187.499 89.022 187.356 89.008 187.198 89.008C186.974 89.008 186.773 89.0407 186.596 89.106C186.423 89.1713 186.267 89.2693 186.127 89.4C185.991 89.526 185.868 89.6847 185.756 89.876C185.648 90.0627 185.55 90.2773 185.462 90.52V95H184.209V87.909H184.923C185.058 87.909 185.151 87.9347 185.203 87.986C185.254 88.0373 185.289 88.126 185.308 88.252L185.392 89.33ZM192.59 95V87.909H193.339C193.516 87.909 193.626 87.9953 193.668 88.168L193.759 88.896C194.02 88.574 194.314 88.3103 194.641 88.105C194.967 87.8997 195.345 87.797 195.775 87.797C196.251 87.797 196.636 87.93 196.93 88.196C197.228 88.462 197.443 88.8213 197.574 89.274C197.676 89.0173 197.807 88.7957 197.966 88.609C198.129 88.4223 198.311 88.2683 198.512 88.147C198.712 88.0257 198.925 87.937 199.149 87.881C199.377 87.825 199.608 87.797 199.842 87.797C200.215 87.797 200.546 87.8577 200.836 87.979C201.13 88.0957 201.377 88.2683 201.578 88.497C201.783 88.7257 201.939 89.008 202.047 89.344C202.154 89.6753 202.208 90.0557 202.208 90.485V95H200.955V90.485C200.955 89.9297 200.833 89.5097 200.591 89.225C200.348 88.9357 199.998 88.791 199.541 88.791C199.335 88.791 199.139 88.8283 198.953 88.903C198.771 88.973 198.61 89.078 198.47 89.218C198.33 89.358 198.218 89.5353 198.134 89.75C198.054 89.96 198.015 90.205 198.015 90.485V95H196.762V90.485C196.762 89.9157 196.647 89.491 196.419 89.211C196.19 88.931 195.856 88.791 195.418 88.791C195.11 88.791 194.825 88.875 194.564 89.043C194.302 89.2063 194.062 89.4303 193.843 89.715V95H192.59ZM207.944 91.808C207.37 91.8267 206.88 91.8733 206.474 91.948C206.073 92.018 205.744 92.1113 205.487 92.228C205.235 92.3447 205.051 92.4823 204.934 92.641C204.822 92.7997 204.766 92.977 204.766 93.173C204.766 93.3597 204.797 93.5207 204.857 93.656C204.918 93.7913 205 93.9033 205.102 93.992C205.21 94.076 205.333 94.139 205.473 94.181C205.618 94.2183 205.772 94.237 205.935 94.237C206.155 94.237 206.355 94.216 206.537 94.174C206.719 94.1273 206.89 94.062 207.048 93.978C207.212 93.894 207.366 93.7937 207.51 93.677C207.66 93.5603 207.804 93.4273 207.944 93.278V91.808ZM203.919 88.91C204.311 88.532 204.734 88.2497 205.186 88.063C205.639 87.8763 206.141 87.783 206.691 87.783C207.088 87.783 207.44 87.8483 207.748 87.979C208.056 88.1097 208.315 88.2917 208.525 88.525C208.735 88.7583 208.894 89.0407 209.001 89.372C209.109 89.7033 209.162 90.0673 209.162 90.464V95H208.609C208.488 95 208.395 94.9813 208.329 94.944C208.264 94.902 208.213 94.8227 208.175 94.706L208.035 94.034C207.849 94.2067 207.667 94.3607 207.489 94.496C207.312 94.6267 207.125 94.7387 206.929 94.832C206.733 94.9207 206.523 94.9883 206.299 95.035C206.08 95.0863 205.835 95.112 205.564 95.112C205.289 95.112 205.03 95.0747 204.787 95C204.545 94.9207 204.332 94.804 204.15 94.65C203.973 94.496 203.831 94.3023 203.723 94.069C203.621 93.831 203.569 93.551 203.569 93.229C203.569 92.949 203.646 92.6807 203.8 92.424C203.954 92.1627 204.204 91.9317 204.549 91.731C204.895 91.5303 205.345 91.367 205.9 91.241C206.456 91.1103 207.137 91.0357 207.944 91.017V90.464C207.944 89.9133 207.825 89.498 207.587 89.218C207.349 88.9333 207.002 88.791 206.544 88.791C206.236 88.791 205.977 88.8307 205.767 88.91C205.562 88.9847 205.382 89.071 205.228 89.169C205.079 89.2623 204.948 89.3487 204.836 89.428C204.729 89.5027 204.622 89.54 204.514 89.54C204.43 89.54 204.358 89.519 204.297 89.477C204.237 89.4303 204.185 89.3743 204.143 89.309L203.919 88.91ZM213.142 95.112C212.582 95.112 212.15 94.9557 211.847 94.643C211.548 94.3303 211.399 93.88 211.399 93.292V88.952H210.545C210.47 88.952 210.407 88.931 210.356 88.889C210.304 88.8423 210.279 88.7723 210.279 88.679V88.182L211.441 88.035L211.728 85.844C211.742 85.774 211.772 85.718 211.819 85.676C211.87 85.6293 211.935 85.606 212.015 85.606H212.645V88.049H214.696V88.952H212.645V93.208C212.645 93.5067 212.717 93.7283 212.862 93.873C213.006 94.0177 213.193 94.09 213.422 94.09C213.552 94.09 213.664 94.0737 213.758 94.041C213.856 94.0037 213.94 93.964 214.01 93.922C214.08 93.88 214.138 93.8427 214.185 93.81C214.236 93.7727 214.28 93.754 214.318 93.754C214.383 93.754 214.441 93.7937 214.493 93.873L214.857 94.468C214.642 94.6687 214.383 94.8273 214.08 94.944C213.776 95.056 213.464 95.112 213.142 95.112ZM220.876 89.169C220.839 89.2203 220.801 89.26 220.764 89.288C220.727 89.316 220.675 89.33 220.61 89.33C220.54 89.33 220.463 89.302 220.379 89.246C220.295 89.1853 220.19 89.12 220.064 89.05C219.943 88.98 219.791 88.917 219.609 88.861C219.432 88.8003 219.212 88.77 218.951 88.77C218.601 88.77 218.293 88.833 218.027 88.959C217.761 89.0803 217.537 89.2577 217.355 89.491C217.178 89.7243 217.042 90.0067 216.949 90.338C216.86 90.6693 216.816 91.0403 216.816 91.451C216.816 91.8803 216.865 92.263 216.963 92.599C217.061 92.9303 217.199 93.2103 217.376 93.439C217.558 93.663 217.775 93.8357 218.027 93.957C218.284 94.0737 218.571 94.132 218.888 94.132C219.191 94.132 219.441 94.097 219.637 94.027C219.833 93.9523 219.994 93.8707 220.12 93.782C220.251 93.6933 220.358 93.614 220.442 93.544C220.531 93.4693 220.617 93.432 220.701 93.432C220.804 93.432 220.883 93.4717 220.939 93.551L221.289 94.006C221.135 94.1973 220.96 94.3607 220.764 94.496C220.568 94.6313 220.356 94.7457 220.127 94.839C219.903 94.9277 219.667 94.993 219.42 95.035C219.173 95.077 218.921 95.098 218.664 95.098C218.221 95.098 217.808 95.0163 217.425 94.853C217.047 94.6897 216.718 94.454 216.438 94.146C216.158 93.8333 215.939 93.4507 215.78 92.998C215.621 92.5453 215.542 92.0297 215.542 91.451C215.542 90.9237 215.614 90.436 215.759 89.988C215.908 89.54 216.123 89.155 216.403 88.833C216.688 88.5063 217.035 88.252 217.446 88.07C217.861 87.888 218.337 87.797 218.874 87.797C219.373 87.797 219.812 87.8787 220.19 88.042C220.573 88.2007 220.911 88.427 221.205 88.721L220.876 89.169ZM223.88 88.854C224.183 88.532 224.519 88.2753 224.888 88.084C225.256 87.8927 225.681 87.797 226.162 87.797C226.549 87.797 226.89 87.8623 227.184 87.993C227.482 88.119 227.73 88.301 227.926 88.539C228.126 88.7723 228.278 89.0547 228.381 89.386C228.483 89.7173 228.535 90.0837 228.535 90.485V95H227.282V90.485C227.282 89.9483 227.158 89.533 226.911 89.239C226.668 88.9403 226.297 88.791 225.798 88.791C225.429 88.791 225.084 88.8797 224.762 89.057C224.444 89.2343 224.15 89.4747 223.88 89.778V95H222.627V84.689H223.88V88.854ZM235.179 90.681C235.179 90.3917 235.137 90.128 235.053 89.89C234.974 89.6473 234.855 89.4397 234.696 89.267C234.542 89.0897 234.353 88.9543 234.129 88.861C233.905 88.763 233.651 88.714 233.366 88.714C232.769 88.714 232.295 88.889 231.945 89.239C231.6 89.5843 231.385 90.065 231.301 90.681H235.179ZM236.187 94.006C236.033 94.1927 235.849 94.356 235.634 94.496C235.42 94.6313 235.189 94.7433 234.941 94.832C234.699 94.9207 234.447 94.986 234.185 95.028C233.924 95.0747 233.665 95.098 233.408 95.098C232.918 95.098 232.466 95.0163 232.05 94.853C231.64 94.685 231.283 94.4423 230.979 94.125C230.681 93.803 230.447 93.4063 230.279 92.935C230.111 92.4637 230.027 91.9223 230.027 91.311C230.027 90.8163 230.102 90.3543 230.251 89.925C230.405 89.4957 230.625 89.1247 230.909 88.812C231.194 88.4947 231.542 88.2473 231.952 88.07C232.363 87.888 232.825 87.797 233.338 87.797C233.763 87.797 234.155 87.8693 234.514 88.014C234.878 88.154 235.191 88.3593 235.452 88.63C235.718 88.896 235.926 89.2273 236.075 89.624C236.225 90.016 236.299 90.464 236.299 90.968C236.299 91.164 236.278 91.2947 236.236 91.36C236.194 91.4253 236.115 91.458 235.998 91.458H231.259C231.273 91.906 231.334 92.2957 231.441 92.627C231.553 92.9583 231.707 93.236 231.903 93.46C232.099 93.6793 232.333 93.845 232.603 93.957C232.874 94.0643 233.177 94.118 233.513 94.118C233.826 94.118 234.094 94.083 234.318 94.013C234.547 93.9383 234.743 93.859 234.906 93.775C235.07 93.691 235.205 93.614 235.312 93.544C235.424 93.4693 235.52 93.432 235.599 93.432C235.702 93.432 235.781 93.4717 235.837 93.551L236.187 94.006ZM241.96 89.078C241.904 89.1807 241.817 89.232 241.701 89.232C241.631 89.232 241.551 89.2063 241.463 89.155C241.374 89.1037 241.264 89.0477 241.134 88.987C241.008 88.9217 240.856 88.8633 240.679 88.812C240.501 88.756 240.291 88.728 240.049 88.728C239.839 88.728 239.65 88.756 239.482 88.812C239.314 88.8633 239.169 88.9357 239.048 89.029C238.931 89.1223 238.84 89.232 238.775 89.358C238.714 89.4793 238.684 89.6123 238.684 89.757C238.684 89.939 238.735 90.0907 238.838 90.212C238.945 90.3333 239.085 90.4383 239.258 90.527C239.43 90.6157 239.626 90.695 239.846 90.765C240.065 90.8303 240.289 90.9027 240.518 90.982C240.751 91.0567 240.977 91.1407 241.197 91.234C241.416 91.3273 241.612 91.444 241.785 91.584C241.957 91.724 242.095 91.8967 242.198 92.102C242.305 92.3027 242.359 92.5453 242.359 92.83C242.359 93.1567 242.3 93.46 242.184 93.74C242.067 94.0153 241.894 94.2557 241.666 94.461C241.437 94.6617 241.157 94.8203 240.826 94.937C240.494 95.0537 240.112 95.112 239.678 95.112C239.183 95.112 238.735 95.0327 238.334 94.874C237.932 94.7107 237.592 94.503 237.312 94.251L237.606 93.775C237.643 93.7143 237.687 93.6677 237.739 93.635C237.79 93.6023 237.855 93.586 237.935 93.586C238.019 93.586 238.107 93.6187 238.201 93.684C238.294 93.7493 238.406 93.8217 238.537 93.901C238.672 93.9803 238.835 94.0527 239.027 94.118C239.218 94.1833 239.456 94.216 239.741 94.216C239.983 94.216 240.196 94.1857 240.378 94.125C240.56 94.0597 240.711 93.9733 240.833 93.866C240.954 93.7587 241.043 93.635 241.099 93.495C241.159 93.355 241.19 93.2057 241.19 93.047C241.19 92.851 241.136 92.69 241.029 92.564C240.926 92.4333 240.788 92.3237 240.616 92.235C240.443 92.1417 240.245 92.0623 240.021 91.997C239.801 91.927 239.575 91.8547 239.342 91.78C239.113 91.7053 238.887 91.6213 238.663 91.528C238.443 91.43 238.247 91.3087 238.075 91.164C237.902 91.0193 237.762 90.842 237.655 90.632C237.552 90.4173 237.501 90.1583 237.501 89.855C237.501 89.5843 237.557 89.3253 237.669 89.078C237.781 88.826 237.944 88.6067 238.159 88.42C238.373 88.2287 238.637 88.077 238.95 87.965C239.262 87.853 239.619 87.797 240.021 87.797C240.487 87.797 240.905 87.8717 241.274 88.021C241.647 88.1657 241.969 88.3663 242.24 88.623L241.96 89.078ZM253.231 87.909L249.276 97.093C249.234 97.1863 249.18 97.261 249.115 97.317C249.054 97.373 248.959 97.401 248.828 97.401H247.904L249.199 94.587L246.273 87.909H247.351C247.458 87.909 247.542 87.937 247.603 87.993C247.668 88.0443 247.713 88.1027 247.736 88.168L249.633 92.634C249.708 92.83 249.771 93.0353 249.822 93.25C249.887 93.0307 249.957 92.823 250.032 92.627L251.873 88.168C251.901 88.0933 251.948 88.0327 252.013 87.986C252.083 87.9347 252.16 87.909 252.244 87.909H253.231ZM257.129 87.797C257.647 87.797 258.114 87.8833 258.529 88.056C258.945 88.2287 259.299 88.4737 259.593 88.791C259.887 89.1083 260.111 89.4933 260.265 89.946C260.424 90.394 260.503 90.8957 260.503 91.451C260.503 92.011 260.424 92.515 260.265 92.963C260.111 93.411 259.887 93.7937 259.593 94.111C259.299 94.4283 258.945 94.6733 258.529 94.846C258.114 95.014 257.647 95.098 257.129 95.098C256.607 95.098 256.135 95.014 255.715 94.846C255.3 94.6733 254.945 94.4283 254.651 94.111C254.357 93.7937 254.131 93.411 253.972 92.963C253.818 92.515 253.741 92.011 253.741 91.451C253.741 90.8957 253.818 90.394 253.972 89.946C254.131 89.4933 254.357 89.1083 254.651 88.791C254.945 88.4737 255.3 88.2287 255.715 88.056C256.135 87.8833 256.607 87.797 257.129 87.797ZM257.129 94.125C257.829 94.125 258.352 93.8917 258.697 93.425C259.043 92.9537 259.215 92.298 259.215 91.458C259.215 90.6133 259.043 89.9553 258.697 89.484C258.352 89.0127 257.829 88.777 257.129 88.777C256.775 88.777 256.464 88.8377 256.198 88.959C255.937 89.0803 255.718 89.2553 255.54 89.484C255.368 89.7127 255.237 89.995 255.148 90.331C255.064 90.6623 255.022 91.038 255.022 91.458C255.022 92.298 255.195 92.9537 255.54 93.425C255.89 93.8917 256.42 94.125 257.129 94.125ZM267.915 87.909V95H267.173C266.995 95 266.883 94.9137 266.837 94.741L266.739 93.978C266.431 94.3187 266.085 94.594 265.703 94.804C265.32 95.0093 264.881 95.112 264.387 95.112C263.999 95.112 263.656 95.049 263.358 94.923C263.064 94.7923 262.816 94.6103 262.616 94.377C262.415 94.1437 262.263 93.8613 262.161 93.53C262.063 93.1987 262.014 92.8323 262.014 92.431V87.909H263.26V92.431C263.26 92.9677 263.381 93.383 263.624 93.677C263.871 93.971 264.247 94.118 264.751 94.118C265.119 94.118 265.462 94.0317 265.78 93.859C266.102 93.6817 266.398 93.439 266.669 93.131V87.909H267.915ZM271.073 89.33C271.297 88.8447 271.573 88.4667 271.899 88.196C272.226 87.9207 272.625 87.783 273.096 87.783C273.246 87.783 273.388 87.7993 273.523 87.832C273.663 87.8647 273.787 87.916 273.894 87.986L273.803 88.917C273.775 89.0337 273.705 89.092 273.593 89.092C273.528 89.092 273.432 89.078 273.306 89.05C273.18 89.022 273.038 89.008 272.879 89.008C272.655 89.008 272.455 89.0407 272.277 89.106C272.105 89.1713 271.948 89.2693 271.808 89.4C271.673 89.526 271.549 89.6847 271.437 89.876C271.33 90.0627 271.232 90.2773 271.143 90.52V95H269.89V87.909H270.604C270.74 87.909 270.833 87.9347 270.884 87.986C270.936 88.0373 270.971 88.126 270.989 88.252L271.073 89.33ZM282.401 89.078C282.345 89.1807 282.259 89.232 282.142 89.232C282.072 89.232 281.993 89.2063 281.904 89.155C281.816 89.1037 281.706 89.0477 281.575 88.987C281.449 88.9217 281.298 88.8633 281.12 88.812C280.943 88.756 280.733 88.728 280.49 88.728C280.28 88.728 280.091 88.756 279.923 88.812C279.755 88.8633 279.611 88.9357 279.489 89.029C279.373 89.1223 279.282 89.232 279.216 89.358C279.156 89.4793 279.125 89.6123 279.125 89.757C279.125 89.939 279.177 90.0907 279.279 90.212C279.387 90.3333 279.527 90.4383 279.699 90.527C279.872 90.6157 280.068 90.695 280.287 90.765C280.507 90.8303 280.731 90.9027 280.959 90.982C281.193 91.0567 281.419 91.1407 281.638 91.234C281.858 91.3273 282.054 91.444 282.226 91.584C282.399 91.724 282.537 91.8967 282.639 92.102C282.747 92.3027 282.8 92.5453 282.8 92.83C282.8 93.1567 282.742 93.46 282.625 93.74C282.509 94.0153 282.336 94.2557 282.107 94.461C281.879 94.6617 281.599 94.8203 281.267 94.937C280.936 95.0537 280.553 95.112 280.119 95.112C279.625 95.112 279.177 95.0327 278.775 94.874C278.374 94.7107 278.033 94.503 277.753 94.251L278.047 93.775C278.085 93.7143 278.129 93.6677 278.18 93.635C278.232 93.6023 278.297 93.586 278.376 93.586C278.46 93.586 278.549 93.6187 278.642 93.684C278.736 93.7493 278.848 93.8217 278.978 93.901C279.114 93.9803 279.277 94.0527 279.468 94.118C279.66 94.1833 279.898 94.216 280.182 94.216C280.425 94.216 280.637 94.1857 280.819 94.125C281.001 94.0597 281.153 93.9733 281.274 93.866C281.396 93.7587 281.484 93.635 281.54 93.495C281.601 93.355 281.631 93.2057 281.631 93.047C281.631 92.851 281.578 92.69 281.47 92.564C281.368 92.4333 281.23 92.3237 281.057 92.235C280.885 92.1417 280.686 92.0623 280.462 91.997C280.243 91.927 280.017 91.8547 279.783 91.78C279.555 91.7053 279.328 91.6213 279.104 91.528C278.885 91.43 278.689 91.3087 278.516 91.164C278.344 91.0193 278.204 90.842 278.096 90.632C277.994 90.4173 277.942 90.1583 277.942 89.855C277.942 89.5843 277.998 89.3253 278.11 89.078C278.222 88.826 278.386 88.6067 278.6 88.42C278.815 88.2287 279.079 88.077 279.391 87.965C279.704 87.853 280.061 87.797 280.462 87.797C280.929 87.797 281.347 87.8717 281.715 88.021C282.089 88.1657 282.411 88.3663 282.681 88.623L282.401 89.078ZM289.074 90.681C289.074 90.3917 289.032 90.128 288.948 89.89C288.868 89.6473 288.749 89.4397 288.591 89.267C288.437 89.0897 288.248 88.9543 288.024 88.861C287.8 88.763 287.545 88.714 287.261 88.714C286.663 88.714 286.19 88.889 285.84 89.239C285.494 89.5843 285.28 90.065 285.196 90.681H289.074ZM290.082 94.006C289.928 94.1927 289.743 94.356 289.529 94.496C289.314 94.6313 289.083 94.7433 288.836 94.832C288.593 94.9207 288.341 94.986 288.08 95.028C287.818 95.0747 287.559 95.098 287.303 95.098C286.813 95.098 286.36 95.0163 285.945 94.853C285.534 94.685 285.177 94.4423 284.874 94.125C284.575 93.803 284.342 93.4063 284.174 92.935C284.006 92.4637 283.922 91.9223 283.922 91.311C283.922 90.8163 283.996 90.3543 284.146 89.925C284.3 89.4957 284.519 89.1247 284.804 88.812C285.088 88.4947 285.436 88.2473 285.847 88.07C286.257 87.888 286.719 87.797 287.233 87.797C287.657 87.797 288.049 87.8693 288.409 88.014C288.773 88.154 289.085 88.3593 289.347 88.63C289.613 88.896 289.82 89.2273 289.97 89.624C290.119 90.016 290.194 90.464 290.194 90.968C290.194 91.164 290.173 91.2947 290.131 91.36C290.089 91.4253 290.009 91.458 289.893 91.458H285.154C285.168 91.906 285.228 92.2957 285.336 92.627C285.448 92.9583 285.602 93.236 285.798 93.46C285.994 93.6793 286.227 93.845 286.498 93.957C286.768 94.0643 287.072 94.118 287.408 94.118C287.72 94.118 287.989 94.083 288.213 94.013C288.441 93.9383 288.637 93.859 288.801 93.775C288.964 93.691 289.099 93.614 289.207 93.544C289.319 93.4693 289.414 93.432 289.494 93.432C289.596 93.432 289.676 93.4717 289.732 93.551L290.082 94.006ZM295.567 91.808C294.993 91.8267 294.503 91.8733 294.097 91.948C293.696 92.018 293.367 92.1113 293.11 92.228C292.858 92.3447 292.674 92.4823 292.557 92.641C292.445 92.7997 292.389 92.977 292.389 93.173C292.389 93.3597 292.42 93.5207 292.48 93.656C292.541 93.7913 292.623 93.9033 292.725 93.992C292.833 94.076 292.956 94.139 293.096 94.181C293.241 94.2183 293.395 94.237 293.558 94.237C293.778 94.237 293.978 94.216 294.16 94.174C294.342 94.1273 294.513 94.062 294.671 93.978C294.835 93.894 294.989 93.7937 295.133 93.677C295.283 93.5603 295.427 93.4273 295.567 93.278V91.808ZM291.542 88.91C291.934 88.532 292.357 88.2497 292.809 88.063C293.262 87.8763 293.764 87.783 294.314 87.783C294.711 87.783 295.063 87.8483 295.371 87.979C295.679 88.1097 295.938 88.2917 296.148 88.525C296.358 88.7583 296.517 89.0407 296.624 89.372C296.732 89.7033 296.785 90.0673 296.785 90.464V95H296.232C296.111 95 296.018 94.9813 295.952 94.944C295.887 94.902 295.836 94.8227 295.798 94.706L295.658 94.034C295.472 94.2067 295.29 94.3607 295.112 94.496C294.935 94.6267 294.748 94.7387 294.552 94.832C294.356 94.9207 294.146 94.9883 293.922 95.035C293.703 95.0863 293.458 95.112 293.187 95.112C292.912 95.112 292.653 95.0747 292.41 95C292.168 94.9207 291.955 94.804 291.773 94.65C291.596 94.496 291.454 94.3023 291.346 94.069C291.244 93.831 291.192 93.551 291.192 93.229C291.192 92.949 291.269 92.6807 291.423 92.424C291.577 92.1627 291.827 91.9317 292.172 91.731C292.518 91.5303 292.968 91.367 293.523 91.241C294.079 91.1103 294.76 91.0357 295.567 91.017V90.464C295.567 89.9133 295.448 89.498 295.21 89.218C294.972 88.9333 294.625 88.791 294.167 88.791C293.859 88.791 293.6 88.8307 293.39 88.91C293.185 88.9847 293.005 89.071 292.851 89.169C292.702 89.2623 292.571 89.3487 292.459 89.428C292.352 89.5027 292.245 89.54 292.137 89.54C292.053 89.54 291.981 89.519 291.92 89.477C291.86 89.4303 291.808 89.3743 291.766 89.309L291.542 88.91ZM299.866 89.33C300.09 88.8447 300.366 88.4667 300.692 88.196C301.019 87.9207 301.418 87.783 301.889 87.783C302.039 87.783 302.181 87.7993 302.316 87.832C302.456 87.8647 302.58 87.916 302.687 87.986L302.596 88.917C302.568 89.0337 302.498 89.092 302.386 89.092C302.321 89.092 302.225 89.078 302.099 89.05C301.973 89.022 301.831 89.008 301.672 89.008C301.448 89.008 301.248 89.0407 301.07 89.106C300.898 89.1713 300.741 89.2693 300.601 89.4C300.466 89.526 300.342 89.6847 300.23 89.876C300.123 90.0627 300.025 90.2773 299.936 90.52V95H298.683V87.909H299.397C299.533 87.909 299.626 87.9347 299.677 87.986C299.729 88.0373 299.764 88.126 299.782 88.252L299.866 89.33ZM308.431 89.169C308.393 89.2203 308.356 89.26 308.319 89.288C308.281 89.316 308.23 89.33 308.165 89.33C308.095 89.33 308.018 89.302 307.934 89.246C307.85 89.1853 307.745 89.12 307.619 89.05C307.497 88.98 307.346 88.917 307.164 88.861C306.986 88.8003 306.767 88.77 306.506 88.77C306.156 88.77 305.848 88.833 305.582 88.959C305.316 89.0803 305.092 89.2577 304.91 89.491C304.732 89.7243 304.597 90.0067 304.504 90.338C304.415 90.6693 304.371 91.0403 304.371 91.451C304.371 91.8803 304.42 92.263 304.518 92.599C304.616 92.9303 304.753 93.2103 304.931 93.439C305.113 93.663 305.33 93.8357 305.582 93.957C305.838 94.0737 306.125 94.132 306.443 94.132C306.746 94.132 306.996 94.097 307.192 94.027C307.388 93.9523 307.549 93.8707 307.675 93.782C307.805 93.6933 307.913 93.614 307.997 93.544C308.085 93.4693 308.172 93.432 308.256 93.432C308.358 93.432 308.438 93.4717 308.494 93.551L308.844 94.006C308.69 94.1973 308.515 94.3607 308.319 94.496C308.123 94.6313 307.91 94.7457 307.682 94.839C307.458 94.9277 307.222 94.993 306.975 95.035C306.727 95.077 306.475 95.098 306.219 95.098C305.775 95.098 305.362 95.0163 304.98 94.853C304.602 94.6897 304.273 94.454 303.993 94.146C303.713 93.8333 303.493 93.4507 303.335 92.998C303.176 92.5453 303.097 92.0297 303.097 91.451C303.097 90.9237 303.169 90.436 303.314 89.988C303.463 89.54 303.678 89.155 303.958 88.833C304.242 88.5063 304.59 88.252 305.001 88.07C305.416 87.888 305.892 87.797 306.429 87.797C306.928 87.797 307.367 87.8787 307.745 88.042C308.127 88.2007 308.466 88.427 308.76 88.721L308.431 89.169ZM311.434 88.854C311.738 88.532 312.074 88.2753 312.442 88.084C312.811 87.8927 313.236 87.797 313.716 87.797C314.104 87.797 314.444 87.8623 314.738 87.993C315.037 88.119 315.284 88.301 315.48 88.539C315.681 88.7723 315.833 89.0547 315.935 89.386C316.038 89.7173 316.089 90.0837 316.089 90.485V95H314.836V90.485C314.836 89.9483 314.713 89.533 314.465 89.239C314.223 88.9403 313.852 88.791 313.352 88.791C312.984 88.791 312.638 88.8797 312.316 89.057C311.999 89.2343 311.705 89.4747 311.434 89.778V95H310.181V84.689H311.434V88.854Z" fill="#525266"/>
</svg>
