<svg xmlns="http://www.w3.org/2000/svg" width="20" height="20" viewBox="0 0 20 20" fill="none">
  <g id="LogoNovu" clip-path="url(#clip0_6848_9433)">
    <path id="Vector" d="M14.7286 8.08587L7.60458 0.804588C8.38558 0.60173 9.19035 0.499098 9.99944 0.500006H10C11.7936 0.500006 13.4695 0.996929 14.9 1.85952V8.01626C14.9 8.04583 14.8921 8.06238 14.8843 8.07334C14.8749 8.08662 14.8593 8.09996 14.8379 8.10866C14.8166 8.11737 14.796 8.11879 14.78 8.11588C14.7667 8.11347 14.7494 8.10712 14.7286 8.08587ZM5.27115 11.9338L5.27138 11.9341L12.3803 19.1991C11.62 19.3955 10.8225 19.5 10 19.5C8.20693 19.5 6.53051 19.0031 5.1 18.1405V12.0038C5.1 11.9743 5.10787 11.9578 5.11566 11.9468C5.1251 11.9335 5.14083 11.9201 5.16226 11.9114C5.1837 11.9026 5.20428 11.9012 5.22028 11.9041C5.23347 11.9065 5.25059 11.9128 5.27115 11.9338ZM18.7 8.01626V6.17818C19.2144 7.34737 19.5 8.63997 19.5 10C19.5 12.9963 18.1137 15.6684 15.9457 17.4099L7.98743 9.27662C7.98741 9.2766 7.9874 9.27659 7.98738 9.27657C5.54334 6.77813 1.3 8.50886 1.3 12.0038V13.8218C0.785574 12.6526 0.5 11.36 0.5 10C0.5 7.00929 1.88153 4.34096 4.04355 2.59871L12.0126 10.7434C12.0126 10.7434 12.0126 10.7434 12.0126 10.7434C14.4566 13.2419 18.7 11.5112 18.7 8.01626Z" fill="url(#paint0_radial_6848_9433)" stroke="#828299"/>
    <path id="Vector_2" fill-rule="evenodd" clip-rule="evenodd" d="M15.4 8.01626C15.4 8.55376 14.7475 8.82001 14.3712 8.43563L6.6725 0.566881C7.74145 0.190432 8.8667 -0.00126505 10 6.2822e-06C11.9894 6.2822e-06 13.8425 0.581256 15.4 1.58188V8.01626ZM18.2 4.27501V8.01626C18.2 11.0631 14.5006 12.5719 12.37 10.3938L4.09063 1.93188C1.61 3.75188 0 6.68813 0 10C0 12.1294 0.665625 14.1031 1.8 15.725V12.0038C1.8 8.95688 5.49938 7.44813 7.63 9.62626L15.8981 18.0763C18.385 16.2575 20 13.3175 20 10C20 7.87063 19.3344 5.89688 18.2 4.27501ZM5.62875 11.5844L13.3131 19.4375C12.2763 19.8019 11.1613 20 10 20C8.01125 20 6.1575 19.4188 4.6 18.4181V12.0038C4.6 11.4663 5.25312 11.2 5.62875 11.5844Z" fill="#828299"/>
    <path id="Vector_3" fill-rule="evenodd" clip-rule="evenodd" d="M15.4 8.01626C15.4 8.55376 14.7475 8.82001 14.3712 8.43563L6.6725 0.566881C7.74145 0.190432 8.8667 -0.00126505 10 6.2822e-06C11.9894 6.2822e-06 13.8425 0.581256 15.4 1.58188V8.01626ZM18.2 4.27501V8.01626C18.2 11.0631 14.5006 12.5719 12.37 10.3938L4.09063 1.93188C1.61 3.75188 0 6.68813 0 10C0 12.1294 0.665625 14.1031 1.8 15.725V12.0038C1.8 8.95688 5.49938 7.44813 7.63 9.62626L15.8981 18.0763C18.385 16.2575 20 13.3175 20 10C20 7.87063 19.3344 5.89688 18.2 4.27501ZM5.62875 11.5844L13.3131 19.4375C12.2763 19.8019 11.1613 20 10 20C8.01125 20 6.1575 19.4188 4.6 18.4181V12.0038C4.6 11.4663 5.25312 11.2 5.62875 11.5844Z" fill="url(#paint1_linear_6848_9433)"/>
  </g>
  <defs>
    <radialGradient id="paint0_radial_6848_9433" cx="0" cy="0" r="1" gradientUnits="userSpaceOnUse" gradientTransform="translate(9.99982 10.0004) rotate(135) scale(14.1421)">
      <stop offset="0.34" stop-color="#FF006A"/>
      <stop offset="0.613" stop-color="#E300BD"/>
      <stop offset="0.767" stop-color="#FF4CE1"/>
    </radialGradient>
    <linearGradient id="paint1_linear_6848_9433" x1="10" y1="6.2822e-06" x2="10" y2="20" gradientUnits="userSpaceOnUse">
      <stop offset="0.547" stop-opacity="0"/>
      <stop offset="1" stop-opacity="0.6"/>
    </linearGradient>
    <clipPath id="clip0_6848_9433">
      <rect width="20" height="20" fill="white"/>
    </clipPath>
  </defs>
</svg>
