<svg xmlns="http://www.w3.org/2000/svg" width="32" height="32" fill="none">
  <path fill="#189347" d="m11.208 22.044-.067.014a.605.605 0 0 1 .067-.01v-.005" />
  <path fill="#0B7440"
    d="m17.585 15.19-2.383-2.76-7.458-.007c-3.627.332-5.62 2.956-5.62 2.956C-.81 18.749.52 22.724.52 22.724c.554 2.871 2.795 4.529 2.795 4.529 1.965 1.602 4.43 1.767 4.43 1.767h1.965c.095-.012.182-.034.269-.054a.325.325 0 0 1-.02-.142.897.897 0 0 0-.1-.41c-.153-.358-.472-.639-.468-1.066.004-.279-.116-.525-.27-.746-.305-.425-.197-.83.027-1.238.041-.079.117-.147.106-.243-.066-.438-.127-.817-.442-1.234-.432-.49-1.386-1.061-1.74-1.306-.28-.193-1.005-.224-1.03-.217a.9.9 0 0 0-.161.036c-.208.073-.377.016-.551-.114-.352-.263-.67-.547-.88-.953-.122-.243-.43-.383-.37-.722.004-.018-.02-.719-.02-.719s.13-.509.23-.659c.286-.418.486-.919 1.029-1.121.163-.06.31-.174.329-.39a.533.533 0 0 1 .21-.37c.174-.134.63-.46.702-.43.148.057.319.145.465.067.49-.246 1.012-.217 1.532-.236.36-.011.435.061.343.393-.066.231.045.29.22.329.155.036.333.041.443.176.126.152.304.177.475.238.107.041.16 0 .194-.11.091-.286.228-.335.504-.223.189.075.392.116.584.176.336.111.643-.121.979-.02.254.077.883 1.233.883 1.233l.498-.025v-.974h2.45c2.52-.881 1.456-2.756 1.456-2.756" />
  <path fill="#139347"
    d="M8.88 23.547a.033.033 0 0 1-.005-.008v.008M8.875 23.525a.06.06 0 0 1 .01.015.035.035 0 0 1 0-.015h-.01Z" />
  <path fill="#E7242C"
    d="M25.203 8.288h.39s-.07.717.816.966l2.174.015s2.309.149 2.668 2.357c0 0 .443 1.878-1.522 2.983a5.901 5.901 0 0 1-1.58.359h-2.946v-6.68ZM25.203 22.35h.39s-.07.735.816.966l2.174.015s2.309.15 2.668 2.357c0 0 .443 1.879-1.522 2.984a5.906 5.906 0 0 1-1.579.36h-2.947V22.35Z" />
  <path fill="#139547"
    d="M15.357 12.424h-4.755c2.326.388 2.49 2.403 2.49 2.403l.021 4.013c.248.39.44.814.679 1.215.15.248.35.464.588.632.13.092.272.173.281.395.003.14.168.232.355.169.239-.083.483-.139.726-.212.191-.057.287.013.243.209-.097.47-.255.918-.584 1.275-.34.372-.719.704-1.063 1.073-.182.199-.377.42-.34.725.052.419.206.813.175 1.254-.026.364-.16.571-.495.702-.304.114-.445.265-.493.498.456 2.032 2.4 2.194 2.4 2.194 2.971.212 3.088-2.902 3.088-2.902V15.974c-.232-2.992-3.315-3.548-3.315-3.548" />
  <path fill="#F38F20"
    d="M20.283 5.268s.372-2.526 3.03-2.36c0 0 2.365.208 2.532 2.649v6.955s.077 2.22 2.395 2.457l-2.395-.006v11.803s.235 1.834 2.395 2.248l-5.343.03s-2.319-.307-2.665-2.81c-.374-2.11.051-20.967.051-20.967" />
</svg>
