<svg xmlns="http://www.w3.org/2000/svg" width="32" height="32" fill="none">
  <path fill="#079CEE"
    d="M24.144 8.064c-1.12-.24-1.248.344-.8 1.408 2.536 5.6.28 11.064-2.136 12.424a2.52 2.52 0 0 1-.064-.552c-.288-2.656-1.296-4.968-1.976-4.968-.544 0-.208 2.272-.352 4.28-.896-.528-1.44-.904-2.4-.736-1.368.24-3.2 3.144-3.256 2.728-.544-3.36.76-8.528 2.568-9.08.28-.112.8.32 1.872.728.856.328.752-.528.36-.848a4.152 4.152 0 0 0-4.36-.312c-2.72 1.328-3.952 7.376-2.488 9.848a3.832 3.832 0 0 0 2.728 1.888c1.824.208 2.4-.176 3.848-1.976.204.163.442.278.696.336-1.2 3.728-5.688 6.872-6.656 6.336-4.704-3.2-3.4-13.432-.08-22.4a50.593 50.593 0 0 0 1.6-4.984c.496-2.4-2.56-2.896-4.656-1.12C7.064 2.36 5.6 5.336 4.408 8.832.608 19.96 2.224 29.32 9.024 31.36c7.824 2.336 11.552-2.544 12.128-7.448.478.061.96.085 1.44.072 2.4-.048 5.864-1.296 6.888-6.592.776-4-1.792-8.632-5.336-9.328Z" />
</svg>
