<svg width="32" height="32" viewBox="0 0 32 32" fill="none" xmlns="http://www.w3.org/2000/svg">
<g clip-path="url(#clip0_48_107)">
<path d="M15.5508 0.406194C15.5446 0.412348 15.28 0.436963 14.96 0.455425C14.1231 0.510809 13.8462 0.547732 12.9846 0.713886C9.69232 1.35389 6.65848 3.07696 4.42463 5.56927C3.86463 6.19696 3.69232 6.41235 3.28002 7.00312C1.63078 9.36004 0.756938 11.7539 0.461553 14.7323C0.430784 15.0523 0.430784 16.7447 0.461553 17.2C0.492323 17.6431 0.498477 17.6739 0.6154 18.4923C0.880015 20.2647 1.58771 22.2339 2.56617 23.9077C2.81848 24.3323 3.67386 25.5877 3.82771 25.7477C3.87078 25.797 4.01848 25.9631 4.15386 26.1293C5.24925 27.4339 6.80002 28.7077 8.33232 29.5631C9.00309 29.9385 9.11386 29.9939 9.78463 30.2893C10.72 30.7077 12.1723 31.1631 12.9846 31.2923C13.1016 31.3108 13.2677 31.3354 13.3539 31.3539C13.7723 31.4339 13.9016 31.4523 14.2154 31.4831C14.4 31.5016 14.6523 31.5262 14.7692 31.5385C15.0092 31.5754 16.7508 31.5754 17.1385 31.5447C19.4092 31.3662 21.5385 30.7385 23.5139 29.6554C24.0739 29.3477 25.2492 28.5723 25.6308 28.2647C27.52 26.72 28.9169 25.0031 29.9323 22.9785C30.5539 21.7416 31.0585 20.2462 31.2923 18.9847C31.3539 18.677 31.4092 18.3754 31.4216 18.3077C31.6 17.3785 31.5816 14.4247 31.3846 13.5077C31.3539 13.3723 31.3169 13.1631 31.2985 13.0462C31.28 12.9293 31.2492 12.7631 31.2308 12.677C31.2123 12.5908 31.1816 12.4554 31.1631 12.3693C31.1508 12.2831 31.12 12.1723 31.1016 12.1231C31.0831 12.0739 31.0523 11.9754 31.04 11.9077C30.9785 11.5816 30.5292 10.3139 30.3016 9.79696C29.8339 8.75081 29.12 7.52004 28.5354 6.7385C26.4739 4.00004 23.7292 2.06773 20.5231 1.08312C19.9939 0.923117 19.3785 0.769271 18.9846 0.701579C18.8492 0.676963 18.6954 0.652348 18.6339 0.64004C18.5785 0.633886 18.4 0.603117 18.2339 0.578502C18.0739 0.56004 17.8831 0.529271 17.8154 0.516963C17.5816 0.473886 15.5877 0.375425 15.5508 0.406194ZM16.8923 2.7385C17.2677 2.75696 17.6246 2.78773 17.6923 2.80004C17.76 2.8185 17.92 2.84312 18.0492 2.86158C18.8677 2.97235 19.9877 3.28004 20.8308 3.61235C26.3016 5.7785 29.6985 11.1754 29.2616 17.0093C29.2369 17.3108 29.2123 17.6062 29.2 17.6616C29.1877 17.717 29.1631 17.9139 29.1385 18.0985C29.0708 18.6216 28.7139 19.9693 28.4616 20.6462C28.0246 21.8277 27.3539 23.0339 26.5539 24.0923C26.1108 24.6831 24.8739 25.9385 24.2708 26.4185C22.5846 27.7477 20.3077 28.7816 18.4062 29.0831C18.2954 29.1016 18.1539 29.1262 18.0985 29.1385C17.9569 29.1631 17.3846 29.2308 17.0154 29.2616C16.6154 29.2985 15.3785 29.2985 14.9846 29.2616C14.5108 29.2185 14.08 29.1693 13.8769 29.1323C11.0216 28.6277 8.6954 27.4462 6.70771 25.4893C6.0554 24.8554 5.66155 24.4062 5.83386 24.517C6.06771 24.6585 7.03386 24.7877 7.75386 24.7631C9.43386 24.72 11.0216 23.9939 12.3508 22.6647L12.9231 22.0985L13.0216 22.2954C13.6923 23.5939 15.1077 24.6523 16.4369 24.837C18.3139 25.0954 19.9446 24.3385 21.2677 22.5785C21.9385 21.6862 22.5354 20.2031 22.7385 18.9231C22.8062 18.4739 22.8246 16.8985 22.7631 16.5231C22.7323 16.32 22.6954 16.0677 22.6769 15.9631C22.6646 15.8585 22.5785 15.5385 22.4862 15.2554C21.9692 13.6123 20.9046 12.3693 19.6 11.877C19.0646 11.68 18.9416 11.6616 18.1231 11.6616C17.2677 11.6677 16.5785 11.8154 15.8954 12.1477C15.6677 12.2647 15.4708 12.3508 15.4646 12.3447C15.4585 12.3385 15.5754 11.6 15.6554 11.1508C15.6739 11.0462 15.7046 10.8616 15.7231 10.7508C15.7416 10.6462 15.7846 10.3877 15.8216 10.1847C15.8954 9.7785 15.9139 9.66158 15.9631 9.38465C16.0369 8.91081 16.08 8.67696 16.16 8.24619C16.2092 7.99389 16.2646 7.57542 16.2892 7.32312C16.32 6.92927 16.3016 6.8185 16.1846 6.57235C15.9877 6.14158 15.6308 5.80312 15.3477 5.76004C15.0646 5.71696 11.36 5.71696 11.1323 5.76004C11.0462 5.7785 10.9354 5.86466 10.88 5.95696C10.7262 6.21543 10.5416 7.32312 10.5785 7.76619C10.5969 7.98773 10.8123 8.0185 12.3692 8.02465C13.3354 8.03081 13.8708 8.05542 13.8708 8.09235C13.8646 8.12312 13.84 8.28927 13.8216 8.46158C13.7969 8.62773 13.7354 9.01542 13.6862 9.32312C13.5692 10.0308 13.5692 10.037 13.4154 10.9539C13.3477 11.3785 13.28 11.7908 13.2616 11.877C13.2492 11.9631 13.1077 12.8062 12.9539 13.7539C12.8 14.7016 12.6585 15.557 12.64 15.6616C12.6277 15.76 12.5969 15.8893 12.5846 15.9385C12.5723 15.9877 12.5416 16.1539 12.5231 16.3077C12.5046 16.4616 12.4739 16.6277 12.4616 16.677C12.4492 16.7262 12.4246 16.88 12.4 17.0154C12.3323 17.5016 12.3016 17.637 12.1785 18.1231C11.7292 19.8893 10.5169 21.4585 9.10155 22.117C8.03694 22.6093 6.72617 22.6954 5.71694 22.3447C4.44309 21.9077 3.68617 21.0523 3.16309 19.4647C3.00309 18.9785 2.99078 18.9108 2.83078 17.9693C2.49848 15.9693 2.7754 13.4031 3.54463 11.3416C3.8954 10.4 4.64002 8.9785 5.12002 8.3385C5.8154 7.41542 6.83078 6.32004 7.56925 5.71081C8.2154 5.17543 9.32925 4.46773 10.1846 4.05542C11.8462 3.24927 13.4523 2.83081 15.2616 2.72619C15.6185 2.70773 15.92 2.68312 15.9323 2.67081C15.9446 2.6585 16.0123 2.6585 16.0862 2.67696C16.16 2.68927 16.5231 2.72004 16.8923 2.7385ZM18.9416 14.0616C19.6246 14.3693 20.2216 15.1939 20.4185 16.0923C20.5723 16.7754 20.5846 16.917 20.5785 17.5077C20.5723 18.5293 20.4185 19.3231 20.0677 20.1785C19.6308 21.2308 18.8862 22.1047 18.1231 22.4616C17.1385 22.9231 15.9262 22.6462 15.2616 21.8093C14.7016 21.1077 14.4739 20.3508 14.4739 19.1693C14.4677 17.717 14.8246 16.4493 15.4954 15.4708C16.4616 14.0677 17.7662 13.5323 18.9416 14.0616Z" fill="black"/>
</g>
<defs>
<clipPath id="clip0_48_107">
<rect width="32" height="32" fill="white"/>
</clipPath>
</defs>
</svg>
