<svg width="32" height="32" viewBox="0 0 32 32" fill="none" xmlns="http://www.w3.org/2000/svg">
<path d="M30.5809 7.23131C29.6403 6.20912 28.2345 5.60559 26.6621 5.50128L9.8922 5.00845C8.12456 4.91549 6.49991 5.59743 5.09311 6.65829C3.78388 7.71348 2.69249 9.1476 2.30682 10.9323L0.131165 20.6532C0.0563006 21.0492 -0.0185755 21.4451 0.00413189 21.8354C-0.00828683 23.3047 0.467163 24.7455 1.40775 25.7677C2.34834 26.7899 3.75407 27.3934 5.32656 27.4978L22.0964 27.9906C23.8641 28.0835 25.4887 27.4016 26.8955 26.3407C28.2047 25.2855 29.2961 23.8514 29.6818 22.0668L31.8574 12.3458C31.9323 11.9499 32.0072 11.5539 31.9845 11.1636C32.0945 9.68869 31.619 8.24783 30.5809 7.23131Z" fill="white"/>
<path d="M26.6554 7.06802L9.88553 6.57519C7.14218 6.539 4.52373 8.64938 3.89643 11.3292L1.72078 21.0502C1.09348 23.73 2.79087 25.9809 5.5399 26.1146L22.3097 26.6075C25.0531 26.6437 27.6716 24.5333 28.2989 21.8534L30.4745 12.1325C31.0961 9.35509 29.3012 7.10989 26.6554 7.06802ZM26.2686 10.5171L16.1759 15.412L9.7972 10.1048L26.2686 10.5171ZM24.7693 21.7651C24.6195 22.557 23.8673 23.0903 23.0867 23.1357L6.31693 22.6429C5.53068 22.5907 5.10065 21.9304 5.25606 21.2361L7.20713 12.703L15.4386 19.5667L26.5933 14.4143L24.7693 21.7651Z" fill="#F68922"/>
</svg>
