<svg xmlns="http://www.w3.org/2000/svg" width="32" height="32" fill="none">
  <path fill="#29C3EC"
    d="M14.246 7.117C9.486 4.578 3.583 6.466 1.104 11.38c-2.478 4.882-.652 10.936 4.142 13.475a9.391 9.391 0 0 0 7.403.65s.489-.064 1.695-.78c0 0-1.01-.619-2.185-2.572v-.032c-1.695.683-3.685.683-5.413-.26-3.196-1.693-4.435-5.73-2.772-8.984 1.663-3.255 5.577-4.557 8.772-2.832 1.924 1.01 3.131 2.897 3.425 4.947l3.293 1.758c.294-3.873-1.63-7.714-5.217-9.634Z" />
  <path fill="#8DC63F"
    d="M17.767 24.856c4.794 2.539 10.664.586 13.142-4.33 2.478-4.914.587-10.935-4.207-13.442-2.38-1.269-5.022-1.4-7.402-.618 0 0-.49.065-1.696.781 0 0 1.01.619 2.185 2.539v.032a6.33 6.33 0 0 1 5.413.228c3.196 1.693 4.435 5.696 2.805 8.984-1.664 3.287-5.577 4.556-8.773 2.896-1.924-1.009-3.13-2.864-3.456-4.914l-3.294-1.725c-.26 3.84 1.696 7.681 5.283 9.569Z" />
</svg>
