<svg xmlns="http://www.w3.org/2000/svg" width="32" height="32" fill="none">
  <path fill="#11181C"
    d="M15.163 12.22c.263-.383.549-.431.781-.431.232 0 .62.048.882.432 3.408 4.642 10.48 16.896 11.134 17.561.968.99 2.298.373 3.069-.748.76-1.104.971-1.879.971-2.704 0-.563-11.013-20.88-12.122-22.57-1.067-1.627-1.414-2.038-3.24-2.038h-1.366c-1.82 0-2.083.41-3.15 2.038C11.012 5.45 0 25.767 0 26.33c0 .827.211 1.6.971 2.704.771 1.12 2.101 1.737 3.069.748.656-.667 7.715-12.92 11.123-17.563v.002Z" />
</svg>
