<svg xmlns="http://www.w3.org/2000/svg" width="32" height="32" fill="none">
  <rect width="32" height="32" fill="#231F20" rx="5" />
  <path fill="#fff"
    d="M19.04 14.79c.226 0 .45.038.678.076l.209.033c.68.067 1.23-.444 1.23-1.107a1.13 1.13 0 0 0-.907-1.1c-.413-.097-.867-.143-1.43-.143-1.126 0-2.064.345-2.713.996-.72.725-1.102 1.835-1.102 3.21v.616h-.547c-.599 0-1.105.509-1.105 1.11 0 .634.486 1.131 1.105 1.131h.547v8.8a1.24 1.24 0 0 0 1.237 1.242c.681 0 1.215-.545 1.215-1.241v-8.8h2.552a1.12 1.12 0 0 0 1.127-1.11c0-.622-.495-1.11-1.127-1.11h-2.574v-.549c0-1.44.48-2.053 1.605-2.053Z" />
  <path fill="#DF3B8D"
    d="M13.998 13.763c-.03.154-2.122-.208-3.002-1.092-.88-.883-1.036-1.767-2.227-2.13 0 0 1.215-.705 2.589.52 0 0-.155-1.56-2.123-2.288 0 0 .842-.68 2.292-.109 0 0-.317-2.065-2.77-2.7 0 0 .775-1.005 3.068.211-1.428-.825-2.012-1.324-2.25-2.389-.192-.861.192-1.616.508-2.132 0 0 .006 1.267.833 1.937.856.691 2.293.869 2.549 3.404 0 0 .52-1.19-.257-2.958 0 0 1.78.775 1.722 2.916 0 0 .96-.44.908-2.26 0 0 1.162.753 1.007 2.884 0 0 .516-1.336 1.968-1.144 0 0-.857 1.033-.681 2.112.178 1.092-.138 2.383-.138 2.383s-3.362-.477-3.996 2.835Z" />
</svg>
