<svg xmlns="http://www.w3.org/2000/svg" width="32" height="32" fill="none">
  <g clip-path="url(#a)">
    <path fill="#1D2165"
      d="M14.607 31.94c1.108-3.458 3.718-10.821 8.311-9.773a2.12 2.12 0 0 0 2.014 1.405c1.176 0 2.126-.926 2.126-2.072a2.109 2.109 0 0 0-.879-1.664 2.798 2.798 0 0 0-.736-.388l-5.06-1.894c.276.02.542.03.797.03 1.708 0 3.118-.408 4.222-1.235 2.392-1.784 2.331-4.812 2.331-4.931a.715.715 0 0 0-.746-.688c-.399.01-.726.339-.706.727 0 .02.052 2.421-1.758 3.766-.429.32-.93.558-1.492.718 1.615-1.505 1.696-3.736 1.696-3.846a.719.719 0 0 0-.705-.728.722.722 0 0 0-.746.688c0 .02-.071 2.062-1.584 3.128-.317.22-.675.389-1.074.498 1.166-1.205 1.227-2.869 1.227-2.949a.718.718 0 0 0-.705-.727.721.721 0 0 0-.747.688c0 .02-.07 1.524-1.155 2.291-.684.488-1.666.568-2.923.329-1.676-.319-2.74-.927-3.169-1.823-.644-1.335.286-3.009.307-3.04a.804.804 0 0 0-.317-1.105.838.838 0 0 0-1.135.31c-.051.089-1.094 1.912-.634 3.795a3.116 3.116 0 0 1-.705-.947c-.89-1.853.388-4.114.409-4.154a.803.803 0 0 0-.317-1.106.838.838 0 0 0-1.135.31c-.061.109-1.503 2.629-.695 5.09-.521-.449-.9-.947-1.144-1.505-.972-2.171.531-4.523.541-4.553a.808.808 0 0 0-.255-1.125.855.855 0 0 0-1.155.249c-.082.13-1.994 3.088-.675 6.057.992 2.232 3.486 3.776 7.41 4.603.318.08 1.545.359 1.677.389l-5.06.348s.511 2.8 4.324 1.126l-7.881 5.52c-1.438 1.076-2.353 1.934-2.883 2.627A15.937 15.937 0 0 1 0 16C0 7.163 7.163 0 16 0s16 7.163 16 16-7.163 16-16 16c-.47 0-.934-.02-1.393-.06Zm2.71-12.821c0-.419.347-.767.787-.767.43 0 .787.338.787.767a.784.784 0 0 1-.787.767.778.778 0 0 1-.788-.767Z" />
  </g>
  <defs>
    <clipPath id="a">
      <path fill="#fff" d="M0 0h32v32H0z" />
    </clipPath>
  </defs>
</svg>
