<?xml version="1.0" standalone="no"?>
<!DOCTYPE svg PUBLIC "-//W3C//DTD SVG 20010904//EN"
 "http://www.w3.org/TR/2001/REC-SVG-20010904/DTD/svg10.dtd">
<svg version="1.0" xmlns="http://www.w3.org/2000/svg"
 width="30.000000pt" height="30.000000pt" viewBox="0 0 30.000000 30.000000"
 preserveAspectRatio="xMidYMid meet">

<g transform="translate(0.000000,30.000000) scale(0.100000,-0.100000)"
fill="#000000" stroke="none">
<path d="M103 273 c-31 -6 -70 -48 -77 -84 -10 -51 -7 -141 4 -134 5 3 10 38
10 76 0 65 2 73 29 100 27 27 35 29 100 29 38 0 73 5 76 10 6 10 -95 12 -142
3z"/>
<path d="M248 233 c-26 -27 -28 -36 -28 -106 l0 -78 -30 16 c-48 25 -92 19
-126 -16 l-29 -31 92 4 c80 4 96 7 118 28 29 28 37 63 33 148 l-3 63 -27 -28z"/>
<path d="M100 150 c0 -5 5 -10 10 -10 6 0 10 5 10 10 0 6 -4 10 -10 10 -5 0
-10 -4 -10 -10z"/>
<path d="M140 150 c0 -5 5 -10 10 -10 6 0 10 5 10 10 0 6 -4 10 -10 10 -5 0
-10 -4 -10 -10z"/>
<path d="M180 150 c0 -5 5 -10 10 -10 6 0 10 5 10 10 0 6 -4 10 -10 10 -5 0
-10 -4 -10 -10z"/>
</g>
</svg>
