<svg width="240" height="240" viewBox="0 0 240 240" fill="none" xmlns="http://www.w3.org/2000/svg">
<g clip-path="url(#clip0_3499_36100)">
<rect width="240" height="240" fill="#F9F9F9"/>
<path d="M158.203 130.85C156.665 130.85 155.227 131.442 154.154 132.515L132.513 154.156C130.28 156.389 130.28 160.022 132.512 162.256L143.554 173.299C144.627 174.373 146.065 174.963 147.603 174.963C149.141 174.963 150.579 174.373 151.651 173.299L173.296 151.654C174.368 150.58 174.96 149.142 174.96 147.604C174.96 146.066 174.368 144.628 173.296 143.555L162.253 132.514C161.18 131.442 159.741 130.85 158.203 130.85ZM147.603 185C143.384 185 139.425 183.364 136.457 180.395L125.415 169.351C119.271 163.205 119.271 153.205 125.417 147.059L147.058 125.418C150.025 122.45 153.985 120.814 158.203 120.814C162.421 120.814 166.379 122.449 169.348 125.417L180.391 136.458C183.361 139.427 184.995 143.385 184.996 147.604C184.996 151.823 183.362 155.78 180.393 158.749L158.747 180.395C155.779 183.364 151.821 185 147.603 185Z" fill="black"/>
<path d="M81.7904 130.85C80.252 130.85 78.8138 131.442 77.7405 132.514L66.6997 143.555C65.626 144.628 65.0355 146.066 65.0355 147.604C65.0349 149.142 65.626 150.58 66.6997 151.654L88.3436 173.299C89.4172 174.373 90.855 174.963 92.3927 174.963C93.9306 174.963 95.3689 174.373 96.4421 173.299L107.488 162.255C108.56 161.182 109.152 159.743 109.152 158.206C109.152 156.668 108.56 155.23 107.487 154.157L85.841 132.514C84.7673 131.442 83.3292 130.85 81.7904 130.85ZM92.3927 185C88.1742 185 84.2156 183.364 81.2477 180.395L59.6029 158.749C56.6345 155.78 55 151.823 55 147.604C55 143.385 56.6355 139.427 59.6044 136.458L70.6442 125.417C73.6135 122.449 77.5717 120.814 81.7904 120.814C86.0087 120.814 89.967 122.449 92.9358 125.417L114.582 147.06C117.551 150.029 119.187 153.987 119.188 158.206C119.188 162.424 117.552 166.382 114.584 169.352L103.538 180.395C100.569 183.364 96.6111 185 92.3927 185Z" fill="black"/>
<path d="M92.3926 65.0364C90.855 65.0364 89.4172 65.6272 88.3442 66.7004L66.6988 88.3467C65.626 89.4199 65.0349 90.8574 65.0349 92.3959C65.0349 93.9343 65.626 95.3719 66.6997 96.4451L77.7411 107.487C78.8138 108.56 80.252 109.151 81.7904 109.151C83.3285 109.151 84.7663 108.56 85.839 107.487L107.483 85.84C109.716 83.608 109.715 79.9744 107.483 77.7415L96.4421 66.7004C95.3689 65.6272 93.9306 65.0364 92.3926 65.0364ZM81.7904 119.187C77.5717 119.187 73.6135 117.552 70.6452 114.584L59.6035 103.541C56.6345 100.573 55 96.6148 55 92.3959C54.999 88.1771 56.6345 84.2192 59.6029 81.2505L81.2477 59.6042C84.2156 56.6355 88.1742 55 92.3926 55C96.6111 55 100.569 56.6355 103.538 59.6042L114.579 70.6454C120.724 76.7914 120.725 86.7902 114.58 92.9361L92.9358 114.583C89.967 117.551 86.0087 119.187 81.7904 119.187Z" fill="black"/>
<path d="M147.604 65.0364C146.065 65.0364 144.627 65.6272 143.555 66.7004L132.513 77.744C131.439 78.8172 130.848 80.2555 130.848 81.7932C130.848 83.3309 131.439 84.7693 132.513 85.8417L154.156 107.485C155.23 108.558 156.668 109.15 158.206 109.15C159.744 109.15 161.183 108.558 162.255 107.486L173.3 96.4443C174.373 95.3704 174.964 93.9335 174.964 92.3959C174.964 90.8574 174.373 89.4207 173.3 88.3475L151.652 66.7004C150.579 65.6263 149.141 65.0364 147.604 65.0364ZM158.206 119.184C153.988 119.184 150.029 117.55 147.06 114.581L125.417 92.9386C122.448 89.97 120.813 86.012 120.813 81.7932C120.813 77.5745 122.448 73.6165 125.416 70.6478L136.458 59.6042C139.426 56.6355 143.384 55 147.604 55C151.821 55 155.78 56.6347 158.748 59.6034L180.396 81.2505C183.364 84.2192 185 88.1772 185 92.3959C184.999 96.6148 183.363 100.573 180.395 103.541L169.351 114.583C166.383 117.55 162.424 119.184 158.206 119.184Z" fill="black"/>
<path d="M93.202 86.8105C89.6764 86.8105 86.8088 89.6789 86.8088 93.205V146.794C86.8088 150.319 89.6764 153.188 93.202 153.188H146.792C150.317 153.188 153.185 150.319 153.185 146.794V93.205C153.185 89.6789 150.317 86.8105 146.792 86.8105H93.202ZM146.792 163.223H93.202C84.1429 163.223 76.7729 155.853 76.7729 146.794V93.205C76.7729 84.1457 84.1429 76.7749 93.202 76.7749H146.792C155.851 76.7749 163.221 84.1457 163.221 93.205V146.794C163.221 155.853 155.851 163.223 146.792 163.223Z" fill="black"/>
</g>
<defs>
<clipPath id="clip0_3499_36100">
<rect width="240" height="240" fill="white"/>
</clipPath>
</defs>
</svg>
