<svg xmlns="http://www.w3.org/2000/svg" width="32" height="32" fill="none">
  <g fill-rule="evenodd" clip-path="url(#a)" clip-rule="evenodd">
    <path fill="#4E48E0"
      d="M31.86 10.942a.655.655 0 0 0-.544-.276h-11.98l5.975-9.541a.771.771 0 0 0-.025-.85.663.663 0 0 0-.548-.275H14.422c-1.036 0-2.004.555-2.584 1.481L.114 20.207a.776.776 0 0 0 .025.85.655.655 0 0 0 .545.275h11.973l-5.974 9.543a.785.785 0 0 0-.092.595c.076.32.36.53.665.53h10.31c1.043 0 2.018-.56 2.603-1.493l5.743-9.175 5.973-9.541a.776.776 0 0 0-.024-.85Z" />
    <path fill="#4E48E0"
      d="m25.914 21.33-5.744 9.178C19.586 31.44 18.61 32 17.567 32H7.257a.685.685 0 0 1-.664-.53.785.785 0 0 1 .09-.595l5.976-9.545h13.255Z" />
    <path fill="#1C81C1"
      d="M19.325 10.666h11.988c.21 0 .419.094.544.276a.777.777 0 0 1 .025.85l-5.974 9.54h-13.26l6.677-10.666Z" />
    <path fill="#5CC4CD"
      d="M.684 21.332a.655.655 0 0 1-.544-.276.775.775 0 0 1-.025-.849L11.838 1.481C12.418.555 13.386 0 14.422 0h10.316c.21 0 .422.093.549.276a.773.773 0 0 1 .024.85L12.659 21.331H.684Z" />
  </g>
  <defs>
    <clipPath id="a">
      <path fill="#fff" d="M0 0h32v32H0z" />
    </clipPath>
  </defs>
</svg>
