<svg xmlns="http://www.w3.org/2000/svg" width="32" height="32" fill="none">
  <path fill="#9F1B44"
    d="M22.554 9.589c1.695-2.091 2.834-1.139 2.973-.409.314 1.654-.663 4.49-1.17 5.844-1.812 2.42-4.475 7.291-6.192 8.838-1.503 1.354-1.748.009-1.582-.914l3.28-9.97c.176-.257.997-1.298 2.691-3.39Z" />
  <path fill="#FF4242"
    d="M20.639 20.553c-2.515 4.118-3.558 3.836-4.031 3.431.334 1.383 2.413 1.907 3.43 1.864 3.084-.15 4.915-3.846 5.878-5.536 3.338-5.86 5.133-4.58 5.561-3.167-.642-3.236-2.276-4.053-4.082-4.053-2.42 0-4.869 4.37-6.756 7.46Z" />
  <path fill="#9F1B44"
    d="M31.492 17.137c-.671-1.848-2.099-1.165-2.83-.497 1.91.718 2.455 2.835 2.557 3.754.5-1.09.374-2.637.273-3.257Z" />
  <path fill="#FF4242"
    d="M32 23.484a2.368 2.368 0 1 1-4.735 0 2.368 2.368 0 0 1 4.735 0ZM10.516 17.343C5.973 22.735 2.598 24.53 0 25.113c7.175 2.416 11.129-1.563 13.141-3.618L22.418 9.78c1.654-1.964 2.41-1.385 2.975-.936-.538-1.985-2.98-2.804-3.95-2.704-1.994.205-3.697 1.899-4.29 2.572l-6.637 8.63Z" />
</svg>
