<svg version="1.1" id="Layer_1" xmlns="http://www.w3.org/2000/svg" xmlns:xlink="http://www.w3.org/1999/xlink" x="0px" y="0px"
	 width="100%" viewBox="0 0 172 172" enable-background="new 0 0 172 172" xml:space="preserve">
<path fill="#ffffff" opacity="1.000000" stroke="none" 
	d="
M1.000000,79.000000 
	C1.000000,52.666672 1.000000,26.833345 1.000000,1.000014 
	C58.333313,1.000009 115.666626,1.000009 172.999954,1.000005 
	C172.999969,58.333298 172.999969,115.666595 172.999985,172.999908 
	C115.666718,172.999939 58.333427,172.999939 1.000071,172.999969 
	C1.000000,141.833328 1.000000,110.666664 1.000000,79.000000 
M29.484024,43.062943 
	C29.373724,43.383507 29.263424,43.704067 28.818308,44.663883 
	C25.192595,52.395435 21.566881,60.126991 17.321766,68.158852 
	C16.417330,71.393974 15.978460,74.859314 14.515373,77.818199 
	C11.046247,84.834023 9.753678,92.272964 8.978997,100.769409 
	C8.608947,104.161461 8.238895,107.553505 7.980902,111.009155 
	C7.980902,111.009155 8.044577,110.897141 7.419228,110.997879 
	C7.002030,111.320244 6.584833,111.642601 6.251456,112.706764 
	C6.463116,114.126274 6.674777,115.545776 6.262183,117.309662 
	C6.778220,120.534790 7.294257,123.759918 7.935332,127.763023 
	C8.348344,129.507889 8.761356,131.252762 9.092416,133.732422 
	C10.354349,136.518707 11.616282,139.304977 13.181664,142.742676 
	C15.104674,145.848007 17.027685,148.953323 19.280333,152.624573 
	C20.835049,154.098053 22.389767,155.571533 24.311396,157.611832 
	C25.030249,158.297241 25.700148,159.044418 26.475296,159.658798 
	C38.221245,168.968582 52.243687,170.447266 66.429802,170.828613 
	C71.284615,170.959122 76.177444,169.675919 81.713097,169.269440 
	C86.472237,168.494858 91.231377,167.720276 96.606956,166.808411 
	C97.404350,166.546127 98.201752,166.283859 99.483604,166.468399 
	C101.320435,165.971481 103.157265,165.474548 105.612549,164.830750 
	C106.408691,164.548431 107.204842,164.266098 108.471191,164.256088 
	C112.371468,162.983261 116.361259,161.928650 120.146690,160.375839 
	C123.886063,158.841888 127.418861,156.804367 131.716766,154.673355 
	C134.952469,153.154327 138.396088,151.961685 141.385986,150.056839 
	C151.506302,143.609177 158.254547,134.014664 163.295807,123.545921 
	C166.592697,116.699539 169.053162,109.044930 167.042236,100.258720 
	C166.684219,97.504745 166.326187,94.750778 165.891403,91.301590 
	C165.199905,88.522514 164.508423,85.743439 163.880920,82.234604 
	C163.260040,80.487602 162.639145,78.740593 161.960587,76.257034 
	C160.668579,73.478531 159.376556,70.700020 157.770172,67.285706 
	C153.796768,61.211723 149.823380,55.137745 145.807892,48.326561 
	C143.212540,45.515415 140.617203,42.704273 138.033600,39.156193 
	C135.317932,36.087986 132.830048,32.768696 129.813553,30.032080 
	C127.457047,27.894203 126.293396,24.041058 121.538658,23.893581 
	C120.050392,22.924397 118.562119,21.955210 116.937134,20.263758 
	C114.316498,17.808903 111.695869,15.354050 108.728455,12.255732 
	C105.523773,11.148910 102.319084,10.042088 98.722740,8.279023 
	C96.815750,7.906348 94.908752,7.533674 92.215843,7.014686 
	C90.178139,6.648076 88.140442,6.281466 85.796974,5.321023 
	C84.529488,5.603106 83.262001,5.885190 81.560913,6.017125 
	C81.560913,6.017125 81.107208,5.948524 80.752426,5.239512 
	C77.832840,5.881792 74.913246,6.524072 71.360695,6.887733 
	C65.951553,9.064033 60.456902,11.056352 55.176788,13.510283 
	C53.161278,14.446992 51.637299,16.441317 49.182480,17.995857 
	C47.413231,19.985102 45.643978,21.974346 43.254089,24.203613 
	C41.788071,26.125889 40.322056,28.048164 38.226490,30.227041 
	C36.772713,32.475540 35.318935,34.724041 33.236542,37.227276 
	C32.115498,39.136749 30.994453,41.046227 29.982208,42.979702 
	C29.982208,42.979702 30.005671,42.870785 29.484024,43.062943 
z"/>
<path fill="#6C0011" opacity="1.000000" stroke="none" 
	d="
M98.999153,166.021606 
	C98.201752,166.283859 97.404350,166.546127 95.946472,166.667572 
	C90.503448,166.165680 85.536972,166.502548 80.976143,165.300400 
	C71.053368,162.684937 61.352592,159.235474 51.532909,156.218567 
	C40.920418,152.958099 30.391397,148.893906 18.950699,152.058640 
	C17.027685,148.953323 15.104674,145.848007 13.476454,142.404770 
	C23.394974,143.661270 33.093155,144.912857 42.614113,146.980499 
	C48.198196,148.193161 53.582855,150.504074 58.904190,152.692993 
	C63.644253,154.642792 67.997131,157.643677 72.833031,159.227768 
	C82.822563,162.500000 93.033134,164.725189 103.761505,160.234833 
	C107.718857,159.756180 111.293236,159.360397 114.646645,159.205811 
	C112.284119,160.959274 110.142548,162.471512 108.000984,163.983765 
	C107.204842,164.266098 106.408691,164.548431 105.036667,164.750122 
	C102.640244,165.120209 100.819702,165.570908 98.999153,166.021606 
z"/>
<path fill="#2C3704" opacity="1.000000" stroke="none" 
	d="
M166.999115,100.999603 
	C169.053162,109.044930 166.592697,116.699539 163.295807,123.545921 
	C158.254547,134.014664 151.506302,143.609177 141.385986,150.056839 
	C138.396088,151.961685 134.952469,153.154327 130.988617,154.815811 
	C129.478561,154.935822 128.696671,154.913376 128.077057,154.597473 
	C130.860077,151.330246 133.321945,148.196289 136.130264,145.411713 
	C145.861755,135.762543 153.997925,125.037415 159.821198,112.543182 
	C161.721527,108.465866 164.579239,104.834770 166.999115,100.999603 
z"/>
<path fill="#A4011B" opacity="1.000000" stroke="none" 
	d="
M103.378532,160.317703 
	C93.033134,164.725189 82.822563,162.500000 72.833031,159.227768 
	C67.997131,157.643677 63.644253,154.642792 58.904190,152.692993 
	C53.582855,150.504074 48.198196,148.193161 42.614113,146.980499 
	C33.093155,144.912857 23.394974,143.661270 13.324730,142.079071 
	C11.616282,139.304977 10.354349,136.518707 9.438821,133.532135 
	C15.195388,135.383240 20.511213,137.747131 26.037092,139.415176 
	C35.068253,142.141296 36.626736,140.952454 37.625160,131.807495 
	C37.657196,131.514114 37.963360,131.250671 38.442581,131.114197 
	C42.578785,135.381500 45.872990,140.257050 50.352009,143.492294 
	C63.248497,152.807556 77.701057,158.367325 94.056656,159.167633 
	C95.896667,159.680557 97.515739,159.845657 99.519325,160.095337 
	C100.959427,160.093796 102.015015,160.007706 103.128136,160.035767 
	C103.185661,160.149902 103.378532,160.317703 103.378532,160.317703 
z"/>
<path fill="#0386C4" opacity="1.000000" stroke="none" 
	d="
M109.075233,12.899196 
	C111.695869,15.354050 114.316498,17.808903 116.532104,20.613668 
	C111.324791,20.952745 106.516159,20.784748 101.722115,20.978210 
	C97.490402,21.148981 93.274963,21.722982 88.729912,22.120430 
	C87.978882,22.146671 87.550278,22.171417 86.764313,22.143127 
	C85.203087,22.613911 83.999237,23.137732 82.502243,23.693325 
	C81.815147,23.724998 81.421196,23.724895 80.777802,23.589451 
	C79.611435,23.866358 78.694504,24.278606 77.489738,24.750267 
	C75.851707,24.953764 74.501511,25.097849 72.850937,25.258890 
	C71.994621,25.782816 71.438675,26.289785 70.546600,26.905321 
	C68.855064,27.406630 67.499649,27.799370 65.772339,28.150864 
	C63.843819,29.204508 62.287209,30.299397 60.460468,31.528950 
	C59.828934,31.840679 59.467529,32.017738 58.756042,32.188919 
	C58.177746,32.230274 57.949535,32.277508 57.604637,32.290558 
	C57.487946,32.256374 57.244774,32.253582 56.906898,32.244675 
	C55.364925,33.060555 54.160835,33.885349 52.669113,34.858532 
	C51.515358,35.625431 50.649223,36.243935 49.474815,36.901764 
	C48.368088,37.550179 47.569645,38.159275 46.426010,38.827858 
	C35.392773,45.793953 28.763084,55.343388 27.016605,68.370712 
	C26.615244,69.219719 26.254961,69.797569 25.623018,70.358673 
	C25.172279,70.312714 24.993198,70.283493 24.634880,69.961349 
	C24.470404,67.711746 24.168510,65.690689 24.551022,63.808739 
	C27.147455,51.034321 35.422649,42.462994 45.745239,35.383373 
	C48.004036,33.834202 49.917061,31.780865 52.272964,29.783573 
	C53.983719,29.036461 55.410835,28.465488 57.231918,27.913866 
	C70.713707,24.318817 83.818573,20.764431 96.879372,17.054880 
	C101.005264,15.883037 105.013275,14.296139 109.075233,12.899196 
z"/>
<path fill="#C40523" opacity="1.000000" stroke="none" 
	d="
M24.814117,70.254265 
	C24.993198,70.283493 25.172279,70.312714 25.648209,70.767014 
	C25.640469,75.672798 24.888315,80.178299 25.134785,84.628487 
	C25.517286,91.534760 25.789711,98.615768 27.567434,105.230698 
	C29.508106,112.451958 33.109749,119.226837 36.100807,126.352448 
	C36.381962,126.706795 36.576065,126.874458 36.856575,127.326492 
	C36.958694,128.066711 37.000786,128.492020 37.129452,129.121490 
	C37.373100,129.579285 37.565239,129.802765 37.878273,130.240936 
	C38.023319,130.648254 38.082527,130.810760 38.141731,130.973267 
	C37.963360,131.250671 37.657196,131.514114 37.625160,131.807495 
	C36.626736,140.952454 35.068253,142.141296 26.037092,139.415176 
	C20.511213,137.747131 15.195388,135.383240 9.479797,133.164734 
	C8.761356,131.252762 8.348344,129.507889 8.230941,127.450027 
	C13.694303,129.742477 18.686535,132.822250 24.079874,134.818115 
	C29.324072,136.758759 31.805698,134.044113 30.284676,128.701187 
	C29.286205,125.193871 27.868816,121.807251 26.827026,118.310562 
	C22.392406,103.426041 22.632948,88.142662 23.158352,72.545105 
	C23.765024,71.579445 24.289572,70.916855 24.814117,70.254265 
z"/>
<path fill="#340008" opacity="1.000000" stroke="none" 
	d="
M81.052902,169.038635 
	C76.177444,169.675919 71.284615,170.959122 66.429802,170.828613 
	C52.243687,170.447266 38.221245,168.968582 26.475296,159.658798 
	C25.700148,159.044418 25.030249,158.297241 24.472538,157.170486 
	C30.012018,154.012589 35.400040,155.648407 40.587948,157.103088 
	C54.127316,160.899551 67.571037,165.037109 81.052902,169.038635 
z"/>
<path fill="#6D8A09" opacity="1.000000" stroke="none" 
	d="
M114.867599,158.964600 
	C111.293236,159.360397 107.718857,159.756180 103.761505,160.234833 
	C103.378532,160.317703 103.185661,160.149902 103.390121,159.830902 
	C106.063438,158.003067 108.532288,156.494232 110.998444,154.989975 
	C110.995758,154.994553 110.984894,154.996185 111.337540,154.953247 
	C114.466507,152.941803 117.242813,150.973297 120.007767,149.000732 
	C119.996414,148.996689 120.002701,149.020065 120.329330,148.977295 
	C121.767464,147.948395 122.878975,146.962280 123.991295,145.984863 
	C123.992104,145.993546 123.974258,145.990280 124.279556,145.849594 
	C126.032875,144.128189 127.480888,142.547455 129.108429,140.696457 
	C130.846756,138.934814 132.405548,137.443466 134.290588,135.852356 
	C148.327286,124.319801 155.320618,109.097977 159.511932,91.945206 
	C161.139847,88.826828 162.478394,85.895592 163.816940,82.964363 
	C164.508423,85.743439 165.199905,88.522514 165.584717,91.723145 
	C164.189865,93.909737 162.690933,95.543343 162.077591,97.460297 
	C156.478302,114.960297 146.618164,129.806396 133.699295,142.625961 
	C128.190887,148.092041 121.970024,152.840149 115.837540,158.046295 
	C115.357307,158.440247 115.112457,158.702423 114.867599,158.964600 
z"/>
<path fill="#D4324B" opacity="1.000000" stroke="none" 
	d="
M23.076225,72.848167 
	C22.632948,88.142662 22.392406,103.426041 26.827026,118.310562 
	C27.868816,121.807251 29.286205,125.193871 30.284676,128.701187 
	C31.805698,134.044113 29.324072,136.758759 24.079874,134.818115 
	C18.686535,132.822250 13.694303,129.742477 8.168421,127.061035 
	C7.294257,123.759918 6.778220,120.534790 6.824999,117.365173 
	C10.703684,120.424355 13.873165,123.619522 17.415354,126.327095 
	C18.644073,127.266304 21.011847,127.585175 22.447386,127.060410 
	C23.319952,126.741432 23.893049,124.225487 23.767906,122.767952 
	C22.506945,108.081718 21.073570,93.410271 19.773621,78.392761 
	C20.096558,77.391899 20.334534,76.732964 20.778677,75.869507 
	C21.681973,74.726051 22.379099,73.787109 23.076225,72.848167 
z"/>
<path fill="#405205" opacity="1.000000" stroke="none" 
	d="
M116.072914,157.914520 
	C121.970024,152.840149 128.190887,148.092041 133.699295,142.625961 
	C146.618164,129.806396 156.478302,114.960297 162.077591,97.460297 
	C162.690933,95.543343 164.189865,93.909737 165.623108,92.070755 
	C166.326187,94.750778 166.684219,97.504745 167.020676,100.629166 
	C164.579239,104.834770 161.721527,108.465866 159.821198,112.543182 
	C153.997925,125.037415 145.861755,135.762543 136.130264,145.411713 
	C133.321945,148.196289 130.860077,151.330246 127.749420,154.762024 
	C123.530624,156.118195 119.801773,157.016357 116.072914,157.914520 
z"/>
<path fill="#41000A" opacity="1.000000" stroke="none" 
	d="
M81.382996,169.154037 
	C67.571037,165.037109 54.127316,160.899551 40.587948,157.103088 
	C35.400040,155.648407 30.012018,154.012589 24.289082,156.887070 
	C22.389767,155.571533 20.835049,154.098053 19.115517,152.341614 
	C30.391397,148.893906 40.920418,152.958099 51.532909,156.218567 
	C61.352592,159.235474 71.053368,162.684937 80.976143,165.300400 
	C85.536972,166.502548 90.503448,166.165680 95.638245,166.736206 
	C91.231377,167.720276 86.472237,168.494858 81.382996,169.154037 
z"/>
<path fill="#DF6679" opacity="1.000000" stroke="none" 
	d="
M19.688660,78.734673 
	C21.073570,93.410271 22.506945,108.081718 23.767906,122.767952 
	C23.893049,124.225487 23.319952,126.741432 22.447386,127.060410 
	C21.011847,127.585175 18.644073,127.266304 17.415354,126.327095 
	C13.873165,123.619522 10.703684,120.424355 7.137126,117.192993 
	C6.674777,115.545776 6.463116,114.126274 6.475812,112.265701 
	C7.148305,111.515472 7.596442,111.206306 8.044579,110.897141 
	C8.044577,110.897141 7.980902,111.009155 8.290905,111.022415 
	C9.773113,111.593681 10.961751,112.120003 12.113455,112.717522 
	C13.630055,113.504356 15.117628,114.347137 16.617682,115.165871 
	C17.080643,113.323257 17.971375,111.471832 17.933607,109.639542 
	C17.756172,101.031792 17.323660,92.429298 17.067806,83.514313 
	C17.998489,81.714027 18.843575,80.224350 19.688660,78.734673 
z"/>
<path fill="#B2D92D" opacity="1.000000" stroke="none" 
	d="
M145.849976,49.063759 
	C149.823380,55.137745 153.796768,61.211723 157.718628,67.921692 
	C157.540482,69.363373 157.196686,70.203949 157.319702,70.969528 
	C159.332382,83.495918 157.019852,95.535492 152.588623,107.127350 
	C150.941803,111.435333 147.603500,115.096703 145.081085,118.689713 
	C148.264221,109.143906 152.404358,100.160248 154.278152,90.726448 
	C156.433472,79.875328 154.999893,68.877625 148.457352,59.327030 
	C145.433731,54.913242 142.651108,55.020874 138.639694,58.947563 
	C137.864319,56.900925 137.406906,55.017769 137.138306,52.833580 
	C140.168076,51.376282 143.009018,50.220020 145.849976,49.063759 
z"/>
<path fill="#35A6DC" opacity="1.000000" stroke="none" 
	d="
M23.158352,72.545105 
	C22.379099,73.787109 21.681973,74.726051 20.448345,75.646484 
	C19.254951,73.038170 18.598059,70.448357 17.941166,67.858543 
	C21.566881,60.126991 25.192595,52.395435 29.143501,44.163788 
	C29.647623,43.399345 29.826616,43.135044 30.005671,42.870785 
	C30.005671,42.870785 29.982208,42.979702 30.276276,42.909275 
	C33.067806,40.586853 35.565266,38.334858 38.291565,36.058071 
	C38.520397,36.033279 38.977497,35.978645 39.319115,35.912174 
	C41.802395,34.274055 43.944057,32.702404 46.427147,30.968269 
	C48.508823,30.523758 50.249077,30.241735 51.989326,29.959713 
	C49.917061,31.780865 48.004036,33.834202 45.745239,35.383373 
	C35.422649,42.462994 27.147455,51.034321 24.551022,63.808739 
	C24.168510,65.690689 24.470404,67.711746 24.634880,69.961349 
	C24.289572,70.916855 23.765024,71.579445 23.158352,72.545105 
z"/>
<path fill="#E78F9B" opacity="1.000000" stroke="none" 
	d="
M16.982208,83.824928 
	C17.323660,92.429298 17.756172,101.031792 17.933607,109.639542 
	C17.971375,111.471832 17.080643,113.323257 16.617682,115.165871 
	C15.117628,114.347137 13.630055,113.504356 12.113455,112.717522 
	C10.961751,112.120003 9.773113,111.593681 8.234877,110.990616 
	C8.238895,107.553505 8.608947,104.161461 9.348450,100.185120 
	C10.432916,98.181801 11.197742,96.785355 11.853297,95.339363 
	C13.588190,91.512665 15.275789,87.664536 16.982208,83.824928 
z"/>
<path fill="#9AC40C" opacity="1.000000" stroke="none" 
	d="
M145.036545,119.052940 
	C147.603500,115.096703 150.941803,111.435333 152.588623,107.127350 
	C157.019852,95.535492 159.332382,83.495918 157.319702,70.969528 
	C157.196686,70.203949 157.540482,69.363373 157.875824,68.239601 
	C159.376556,70.700020 160.668579,73.478531 161.777802,76.948517 
	C160.804199,82.470779 160.013382,87.301559 159.222565,92.132339 
	C155.320618,109.097977 148.327286,124.319801 134.298706,135.474365 
	C133.956573,134.439865 133.932602,133.683594 133.920441,132.937637 
	C133.932251,132.947968 133.935211,132.929474 134.276672,132.878296 
	C136.030075,131.161209 137.442032,129.495285 138.899353,127.636429 
	C138.944733,127.443481 139.053223,127.062202 139.382080,126.980515 
	C140.749496,125.534912 141.788055,124.170998 142.867676,122.612427 
	C142.908722,122.417770 143.016342,122.034729 143.309296,121.932564 
	C144.019867,121.164986 144.437485,120.499580 144.893936,119.637344 
	C144.932770,119.440521 145.036545,119.052940 145.036545,119.052940 
z"/>
<path fill="#29A2DB" opacity="1.000000" stroke="none" 
	d="
M108.901840,12.577464 
	C105.013275,14.296139 101.005264,15.883037 96.879372,17.054880 
	C83.818573,20.764431 70.713707,24.318817 57.337490,27.629910 
	C57.667858,26.835728 58.286621,26.344851 59.199966,25.808702 
	C60.055836,25.249819 60.617119,24.736206 61.422470,24.133158 
	C62.810772,23.408550 63.955006,22.773378 65.419052,22.128113 
	C66.164116,22.083864 66.589371,22.049706 67.374969,22.013798 
	C68.207596,21.922575 68.679886,21.833103 69.279007,21.692181 
	C69.405838,21.640730 69.679131,21.624924 70.076538,21.651230 
	C77.130714,19.671196 83.944305,18.058386 90.378716,15.494105 
	C93.643394,14.193046 96.224350,11.176349 99.114403,8.935266 
	C102.319084,10.042088 105.523773,11.148910 108.901840,12.577464 
z"/>
<path fill="#8FCEEC" opacity="1.000000" stroke="none" 
	d="
M69.679131,21.624922 
	C69.679131,21.624924 69.405838,21.640730 69.066864,21.570175 
	C68.156807,21.671597 67.585709,21.843571 67.014618,22.015545 
	C66.589371,22.049706 66.164116,22.083864 65.143204,21.943735 
	C61.717216,22.507286 58.839485,23.100956 56.066463,24.012987 
	C50.300266,25.909456 44.589558,27.974613 38.856041,29.970440 
	C40.322056,28.048164 41.788071,26.125889 43.999588,24.093325 
	C54.822811,20.986757 64.900528,17.990479 75.314301,14.914636 
	C77.765076,11.945806 79.879799,9.056541 81.994514,6.167275 
	C83.262001,5.885190 84.529488,5.603106 85.921494,5.998149 
	C85.683281,11.405932 82.134247,13.500980 78.647949,15.674914 
	C77.035347,16.680481 75.490776,17.795149 73.617554,18.999926 
	C72.106209,19.967972 70.892670,20.796446 69.679131,21.624922 
z"/>
<path fill="#A9DAF1" opacity="1.000000" stroke="none" 
	d="
M74.978249,14.994201 
	C64.900528,17.990479 54.822811,20.986757 44.309910,23.973312 
	C45.643978,21.974346 47.413231,19.985102 49.905678,18.127478 
	C55.934822,17.410398 61.342274,16.947269 66.513290,15.586007 
	C70.366051,14.571775 72.496758,11.493013 71.993660,7.166351 
	C74.913246,6.524072 77.832840,5.881792 80.572235,5.652348 
	C78.587440,9.041521 76.782845,12.017861 74.978249,14.994201 
z"/>
<path fill="#B8E0F3" opacity="1.000000" stroke="none" 
	d="
M71.677177,7.027042 
	C72.496758,11.493013 70.366051,14.571775 66.513290,15.586007 
	C61.342274,16.947269 55.934822,17.410398 50.259094,18.106377 
	C51.637299,16.441317 53.161278,14.446992 55.176788,13.510283 
	C60.456902,11.056352 65.951553,9.064033 71.677177,7.027042 
z"/>
<path fill="#76950F" opacity="1.000000" stroke="none" 
	d="
M122.195999,24.120131 
	C126.293396,24.041058 127.457047,27.894203 129.813553,30.032080 
	C132.830048,32.768696 135.317932,36.087986 137.968536,39.847237 
	C136.673187,42.751438 135.442917,44.964600 133.975647,47.131737 
	C133.738647,47.085705 133.276520,46.945728 133.244629,46.541061 
	C132.962448,42.002216 131.868179,38.285007 128.099762,35.513977 
	C126.078369,32.451580 124.097206,29.744339 122.049286,26.674728 
	C122.053680,25.581617 122.124840,24.850874 122.195999,24.120131 
z"/>
<path fill="#8CCBEA" opacity="1.000000" stroke="none" 
	d="
M17.067806,83.514313 
	C15.275789,87.664536 13.588190,91.512665 11.853297,95.339363 
	C11.197742,96.785355 10.432916,98.181801 9.415276,99.761620 
	C9.753678,92.272964 11.046247,84.834023 14.515373,77.818199 
	C15.978460,74.859314 16.417330,71.393974 17.631466,68.008698 
	C18.598059,70.448357 19.254951,73.038170 20.242176,75.850998 
	C20.334534,76.732964 20.096558,77.391899 19.773621,78.392761 
	C18.843575,80.224350 17.998489,81.714027 17.067806,83.514313 
z"/>
<path fill="#75C3E8" opacity="1.000000" stroke="none" 
	d="
M38.541267,30.098740 
	C44.589558,27.974613 50.300266,25.909456 56.066463,24.012987 
	C58.839485,23.100956 61.717216,22.507286 64.823380,21.953827 
	C63.955006,22.773378 62.810772,23.408550 61.119354,24.161358 
	C60.016571,24.803986 59.460979,25.328979 58.905384,25.853973 
	C58.286621,26.344851 57.667858,26.835728 56.943520,27.610561 
	C55.410835,28.465488 53.983719,29.036461 52.272964,29.783573 
	C50.249077,30.241735 48.508823,30.523758 46.068825,31.002422 
	C43.238552,32.792259 41.108025,34.385452 38.977497,35.978645 
	C38.977497,35.978645 38.520397,36.033279 37.934563,36.097839 
	C36.187542,36.432446 35.026352,36.702496 33.865158,36.972542 
	C35.318935,34.724041 36.772713,32.475540 38.541267,30.098740 
z"/>
<path fill="#016797" opacity="1.000000" stroke="none" 
	d="
M121.867325,24.006855 
	C122.124840,24.850874 122.053680,25.581617 121.669113,26.595428 
	C112.698372,25.583363 104.041718,24.283688 95.383240,22.996353 
	C93.276039,22.683054 91.162804,22.410322 89.052338,22.118937 
	C93.274963,21.722982 97.490402,21.148981 101.722115,20.978210 
	C106.516159,20.784748 111.324791,20.952745 116.600464,20.974802 
	C118.562119,21.955210 120.050392,22.924397 121.867325,24.006855 
z"/>
<path fill="#52B4E2" opacity="1.000000" stroke="none" 
	d="
M70.076538,21.651230 
	C70.892670,20.796446 72.106209,19.967972 73.994888,18.964821 
	C79.097656,16.984032 83.732132,15.545937 87.868187,13.221102 
	C90.031364,12.005196 91.318802,9.231270 93.001762,7.160999 
	C94.908752,7.533674 96.815750,7.906348 98.918571,8.607145 
	C96.224350,11.176349 93.643394,14.193046 90.378716,15.494105 
	C83.944305,18.058386 77.130714,19.671196 70.076538,21.651230 
z"/>
<path fill="#9BC612" opacity="1.000000" stroke="none" 
	d="
M134.212646,47.177765 
	C135.442917,44.964600 136.673187,42.751438 137.962662,40.215702 
	C140.617203,42.704273 143.212540,45.515415 145.828934,48.695160 
	C143.009018,50.220020 140.168076,51.376282 136.818939,52.655418 
	C135.611389,50.911453 134.912018,49.044609 134.212646,47.177765 
z"/>
<path fill="#73C2E7" opacity="1.000000" stroke="none" 
	d="
M92.608803,7.087843 
	C91.318802,9.231270 90.031364,12.005196 87.868187,13.221102 
	C83.732132,15.545937 79.097656,16.984032 74.292702,18.825249 
	C75.490776,17.795149 77.035347,16.680481 78.647949,15.674914 
	C82.134247,13.500980 85.683281,11.405932 86.074371,6.295066 
	C88.140442,6.281466 90.178139,6.648076 92.608803,7.087843 
z"/>
<path fill="#40040C" opacity="1.000000" stroke="none" 
	d="
M115.837540,158.046295 
	C119.801773,157.016357 123.530624,156.118195 127.587128,155.055481 
	C128.696671,154.913376 129.478561,154.935822 130.651367,154.973007 
	C127.418861,156.804367 123.886063,158.841888 120.146690,160.375839 
	C116.361259,161.928650 112.371468,162.983261 108.236084,164.119934 
	C110.142548,162.471512 112.284119,160.959274 114.646637,159.205811 
	C115.112457,158.702423 115.357307,158.440247 115.837540,158.046295 
z"/>
<path fill="#84A70A" opacity="1.000000" stroke="none" 
	d="
M159.511932,91.945206 
	C160.013382,87.301559 160.804199,82.470779 161.806641,77.316795 
	C162.639145,78.740593 163.260040,80.487602 163.848938,82.599487 
	C162.478394,85.895592 161.139847,88.826828 159.511932,91.945206 
z"/>
<path fill="#9BD4EF" opacity="1.000000" stroke="none" 
	d="
M75.314301,14.914636 
	C76.782845,12.017861 78.587440,9.041521 80.749619,6.006853 
	C81.107208,5.948524 81.560913,6.017125 81.777710,6.092201 
	C79.879799,9.056541 77.765076,11.945806 75.314301,14.914636 
z"/>
<path fill="#52B4E2" opacity="1.000000" stroke="none" 
	d="
M33.550850,37.099907 
	C35.026352,36.702496 36.187542,36.432446 37.705730,36.122631 
	C35.565266,38.334858 33.067806,40.586853 30.221876,42.897274 
	C30.994453,41.046227 32.115498,39.136749 33.550850,37.099907 
z"/>
<path fill="#40040C" opacity="1.000000" stroke="none" 
	d="
M99.241379,166.244995 
	C100.819702,165.570908 102.640244,165.120209 104.727440,164.823563 
	C103.157265,165.474548 101.320435,165.971481 99.241379,166.244995 
z"/>
<path fill="#E78F9B" opacity="1.000000" stroke="none" 
	d="
M7.731904,110.947510 
	C7.596442,111.206306 7.148305,111.515472 6.433902,111.894798 
	C6.584833,111.642601 7.002030,111.320244 7.731904,110.947510 
z"/>
<path fill="#52B4E2" opacity="1.000000" stroke="none" 
	d="
M29.744846,42.966866 
	C29.826616,43.135044 29.647623,43.399345 29.310909,43.844162 
	C29.263424,43.704067 29.373724,43.383507 29.744846,42.966866 
z"/>
<path fill="#FFFFFF" opacity="1.000000" stroke="none" 
	d="
M133.975647,47.131737 
	C134.912018,49.044609 135.611389,50.911453 136.630127,52.956455 
	C137.406906,55.017769 137.864319,56.900925 138.667328,59.329460 
	C139.964844,63.260723 140.916779,66.646606 141.932297,70.425499 
	C142.185425,73.234268 142.622559,75.660622 142.519745,78.063873 
	C142.157730,86.525665 142.753372,95.252121 140.819489,103.361572 
	C138.788834,111.876869 134.267273,119.798149 130.520325,128.108490 
	C128.295654,130.544083 126.419258,132.879730 124.466072,135.149292 
	C121.634453,138.439575 118.747314,141.682053 115.919220,144.948975 
	C115.954590,144.953033 115.950264,144.881958 115.596313,144.934265 
	C113.054482,146.674088 110.866592,148.361572 108.494400,150.081665 
	C108.075668,150.265442 107.970444,150.479980 107.617622,150.862030 
	C103.788551,152.965576 100.336288,154.964981 96.594437,157.072327 
	C95.481804,157.726761 94.658768,158.273270 93.835732,158.819778 
	C77.701057,158.367325 63.248497,152.807556 50.352009,143.492294 
	C45.872990,140.257050 42.578785,135.381500 38.442581,131.114197 
	C38.082527,130.810760 38.023319,130.648254 37.874294,129.998276 
	C37.622227,129.206833 37.375027,129.009018 37.042877,128.917328 
	C37.000786,128.492020 36.958694,128.066711 36.857269,127.088928 
	C36.620930,126.201088 36.350746,126.087700 35.987385,126.196297 
	C33.109749,119.226837 29.508106,112.451958 27.567434,105.230698 
	C25.789711,98.615768 25.517286,91.534760 25.134785,84.628487 
	C24.888315,80.178299 25.640469,75.672798 25.919867,70.783752 
	C26.254961,69.797569 26.615244,69.219719 27.356838,68.316193 
	C28.510672,66.692062 29.283197,65.393616 30.355106,63.936890 
	C31.754305,62.125977 32.854122,60.473339 34.281433,58.814659 
	C35.742939,57.808529 36.876945,56.808437 38.204681,55.749702 
	C38.646095,55.534084 38.779236,55.309254 38.856476,54.773994 
	C38.915123,54.531422 39.036526,54.047283 39.337936,53.968449 
	C40.094547,53.261047 40.549751,52.632484 41.205727,51.870773 
	C41.657093,51.527580 41.851868,51.274567 42.318050,50.903954 
	C44.771748,49.238029 46.898216,47.646736 49.369835,45.983025 
	C59.423313,39.738441 69.649094,34.554581 81.287796,33.819115 
	C94.401001,32.990467 107.370033,34.003368 119.144157,40.930454 
	C119.863365,41.353588 121.019386,41.034248 122.146744,41.322735 
	C123.561531,42.336727 124.801735,43.088348 126.320450,43.999435 
	C127.374306,44.482990 128.149643,44.807079 129.123505,45.433125 
	C130.640182,46.138630 131.958344,46.542179 133.276520,46.945724 
	C133.276520,46.945728 133.738647,47.085705 133.975647,47.131737 
z"/>
<path fill="#AFD828" opacity="1.000000" stroke="none" 
	d="
M107.994431,150.757889 
	C107.970444,150.479980 108.075668,150.265442 108.908325,150.107361 
	C112.759125,149.724976 115.727272,148.998306 115.950264,144.881958 
	C115.950264,144.881958 115.954590,144.953033 116.323608,145.000916 
	C118.992790,144.571564 121.292953,144.094330 123.665840,144.011108 
	C123.817131,144.933502 123.895699,145.461884 123.974258,145.990280 
	C123.974258,145.990280 123.992104,145.993546 123.639450,146.003235 
	C122.192093,147.015305 121.097397,148.017685 120.002701,149.020065 
	C120.002701,149.020065 119.996414,148.996689 119.642464,149.014709 
	C116.520645,151.020538 113.752769,153.008362 110.984894,154.996185 
	C110.984894,154.996185 110.995758,154.994553 110.608704,154.987518 
	C106.526039,156.657242 102.830429,158.334000 99.134819,160.010757 
	C97.515739,159.845657 95.896667,159.680557 94.056656,159.167633 
	C94.658768,158.273270 95.481804,157.726761 96.983612,157.055359 
	C100.016708,156.177658 102.529022,155.718506 104.668930,154.567184 
	C106.058388,153.819611 106.904747,152.062622 107.994431,150.757889 
z"/>
<path fill="#9BC90B" opacity="1.000000" stroke="none" 
	d="
M99.519325,160.095337 
	C102.830429,158.334000 106.526039,156.657242 110.611397,154.982941 
	C108.532288,156.494232 106.063438,158.003067 103.332596,159.716766 
	C102.015015,160.007706 100.959427,160.093796 99.519325,160.095337 
z"/>
<path fill="#015379" opacity="1.000000" stroke="none" 
	d="
M88.729912,22.120430 
	C91.162804,22.410322 93.276039,22.683054 95.383240,22.996353 
	C104.041718,24.283688 112.698372,25.583363 121.735870,26.957798 
	C124.097206,29.744339 126.078369,32.451580 128.053894,35.555771 
	C128.048264,35.952713 127.956161,36.035873 127.648239,35.911526 
	C118.946167,27.299711 108.495926,24.649426 96.520676,25.079128 
	C93.748154,25.091764 91.413506,25.110779 88.801262,25.037613 
	C88.025467,24.659824 87.527267,24.374218 87.038780,23.771936 
	C87.072884,23.035563 87.097275,22.615864 87.121674,22.196165 
	C87.550278,22.171417 87.978882,22.146671 88.729912,22.120430 
z"/>
<path fill="#016797" opacity="1.000000" stroke="none" 
	d="
M30.055725,64.095161 
	C29.283197,65.393616 28.510672,66.692062 27.397915,68.045029 
	C28.763084,55.343388 35.392773,45.793953 46.493362,38.899162 
	C46.905914,38.910988 47.035496,39.051609 46.900742,39.312714 
	C46.553177,40.126614 46.340366,40.679401 45.861496,41.412758 
	C43.923485,43.413296 42.251534,45.233265 40.289158,47.205334 
	C39.638309,47.881302 39.277889,48.405174 38.595711,49.032112 
	C37.495464,50.404980 36.716972,51.674778 35.940361,52.954453 
	C35.942242,52.964333 35.925396,52.936737 35.610641,53.064365 
	C33.549168,56.826382 31.802446,60.460773 30.055725,64.095161 
z"/>
<path fill="#00415F" opacity="1.000000" stroke="none" 
	d="
M66.144241,28.192112 
	C67.499649,27.799370 68.855064,27.406630 70.894806,26.988403 
	C72.052460,27.004833 72.525764,27.046747 72.998306,27.362938 
	C73.000969,27.820038 73.004395,28.002857 73.006744,28.525356 
	C72.978477,29.550591 72.951279,30.236149 72.519592,30.941187 
	C69.674515,31.229282 67.233925,31.497898 64.876053,31.539738 
	C65.353935,30.272678 65.749084,29.232395 66.144241,28.192112 
z"/>
<path fill="#00344C" opacity="1.000000" stroke="none" 
	d="
M59.106129,32.194801 
	C59.467529,32.017738 59.828934,31.840679 60.855297,31.686327 
	C62.349953,31.818062 63.179649,31.927088 63.981125,32.372833 
	C62.970085,37.363411 59.257423,35.880222 56.242554,35.873680 
	C56.178146,35.636784 56.087498,35.154232 56.231953,34.959961 
	C56.586971,34.520248 56.813461,34.290504 57.341785,33.993759 
	C58.120502,33.338974 58.613316,32.766888 59.106129,32.194801 
z"/>
<path fill="#016797" opacity="1.000000" stroke="none" 
	d="
M64.009346,32.036114 
	C63.179649,31.927088 62.349953,31.818062 61.125427,31.551659 
	C62.287209,30.299397 63.843819,29.204508 65.772339,28.150866 
	C65.749084,29.232395 65.353935,30.272678 64.677155,31.597490 
	C64.395538,31.882019 64.009346,32.036114 64.009346,32.036114 
z"/>
<path fill="#015379" opacity="1.000000" stroke="none" 
	d="
M73.007812,28.185678 
	C73.004395,28.002857 73.000969,27.820038 73.017761,27.052738 
	C73.075752,26.059484 73.113533,25.650709 73.151306,25.241936 
	C74.501511,25.097849 75.851707,24.953764 77.823265,24.887611 
	C78.671204,25.041777 78.897797,25.118010 79.096786,25.494364 
	C79.046204,26.199978 79.023224,26.605469 78.677986,27.024549 
	C77.926064,27.056677 77.496407,27.075216 76.778763,27.133049 
	C75.992615,27.453587 75.494446,27.734829 74.663963,28.032372 
	C73.890373,28.094337 73.449089,28.140007 73.007812,28.185678 
z"/>
<path fill="#016797" opacity="1.000000" stroke="none" 
	d="
M57.055878,34.076458 
	C56.813461,34.290504 56.586971,34.520248 55.850021,34.933090 
	C54.575474,35.230724 53.827309,35.360962 53.043385,35.296745 
	C53.007626,35.102287 52.956741,34.710140 52.956741,34.710140 
	C54.160835,33.885349 55.364925,33.060555 56.937046,32.323711 
	C57.305073,32.411659 57.389069,32.564224 57.299255,32.940849 
	C57.158253,33.570465 57.107067,33.823463 57.055878,34.076458 
z"/>
<path fill="#016797" opacity="1.000000" stroke="none" 
	d="
M86.764313,22.143127 
	C87.097275,22.615864 87.072884,23.035563 86.673813,23.767620 
	C85.575569,24.120352 84.852013,24.160727 83.791100,24.076294 
	C83.234291,23.854841 83.014839,23.758196 82.795380,23.661551 
	C83.999237,23.137732 85.203087,22.613911 86.764313,22.143127 
z"/>
<path fill="#015379" opacity="1.000000" stroke="none" 
	d="
M49.783092,36.862438 
	C50.649223,36.243935 51.515358,35.625431 52.669113,34.858532 
	C52.956741,34.710140 53.007626,35.102287 52.989731,35.578636 
	C52.272335,36.708660 51.572842,37.362331 50.678974,37.838032 
	C50.250767,37.394184 50.016930,37.128311 49.783092,36.862438 
z"/>
<path fill="#016797" opacity="1.000000" stroke="none" 
	d="
M49.474815,36.901764 
	C50.016930,37.128311 50.250767,37.394184 50.691917,38.057957 
	C50.899231,38.455856 50.949467,38.893967 50.645981,38.925877 
	C49.940430,39.015171 49.538361,39.072559 48.786537,39.103119 
	C47.969681,39.068062 47.502590,39.059834 47.035496,39.051609 
	C47.035496,39.051609 46.905914,38.910988 46.838558,38.839680 
	C47.569645,38.159275 48.368088,37.550179 49.474815,36.901764 
z"/>
<path fill="#016797" opacity="1.000000" stroke="none" 
	d="
M79.124390,25.194242 
	C78.897797,25.118010 78.671204,25.041777 78.111092,24.828201 
	C78.694504,24.278606 79.611435,23.866358 80.771118,23.926855 
	C81.009407,24.623077 81.004951,24.846554 80.686447,25.076439 
	C79.956390,25.119978 79.540390,25.157110 79.124390,25.194242 
z"/>
<path fill="#015379" opacity="1.000000" stroke="none" 
	d="
M81.000496,25.070030 
	C81.004951,24.846554 81.009407,24.623077 81.020546,24.062199 
	C81.421196,23.724895 81.815147,23.724998 82.502243,23.693325 
	C83.014839,23.758196 83.234291,23.854841 83.764671,24.379234 
	C84.054535,25.216400 84.033485,25.625820 83.636093,26.037649 
	C82.510117,26.094154 81.760490,26.148252 81.005219,25.919296 
	C80.999878,25.447508 81.000183,25.258768 81.000496,25.070030 
z"/>
<path fill="#016797" opacity="1.000000" stroke="none" 
	d="
M72.850937,25.258892 
	C73.113533,25.650709 73.075752,26.059484 73.018524,26.778460 
	C72.525764,27.046747 72.052460,27.004833 71.230942,26.879837 
	C71.438675,26.289785 71.994621,25.782816 72.850937,25.258892 
z"/>
<path fill="#015379" opacity="1.000000" stroke="none" 
	d="
M57.341785,33.993759 
	C57.107067,33.823463 57.158253,33.570465 57.351067,32.906677 
	C57.492691,32.495880 57.721329,32.324741 57.721329,32.324741 
	C57.949535,32.277508 58.177746,32.230274 58.756042,32.188919 
	C58.613316,32.766888 58.120502,33.338974 57.341785,33.993759 
z"/>
<path fill="#00415F" opacity="1.000000" stroke="none" 
	d="
M57.604637,32.290558 
	C57.721329,32.324741 57.492691,32.495880 57.440880,32.530052 
	C57.389069,32.564224 57.305073,32.411659 57.274925,32.332619 
	C57.244774,32.253582 57.487946,32.256374 57.604637,32.290558 
z"/>
<path fill="#A4011B" opacity="1.000000" stroke="none" 
	d="
M37.129452,129.121490 
	C37.375027,129.009018 37.622227,129.206833 37.788460,129.753448 
	C37.565239,129.802765 37.373100,129.579285 37.129452,129.121490 
z"/>
<path fill="#A4011B" opacity="1.000000" stroke="none" 
	d="
M36.100807,126.352448 
	C36.350746,126.087700 36.620930,126.201088 36.797241,126.774033 
	C36.576065,126.874458 36.381962,126.706795 36.100807,126.352448 
z"/>
<path fill="#B2D92D" opacity="1.000000" stroke="none" 
	d="
M133.908630,132.927307 
	C133.932602,133.683594 133.956573,134.439865 133.972443,135.574127 
	C132.405548,137.443466 130.846756,138.934814 128.769775,140.769867 
	C127.127083,141.370697 126.002586,141.627823 124.971817,141.561005 
	C128.013245,138.467148 130.960938,135.697235 133.908630,132.927307 
z"/>
<path fill="#9BC90B" opacity="1.000000" stroke="none" 
	d="
M111.337540,154.953247 
	C113.752769,153.008362 116.520645,151.020538 119.653816,149.018753 
	C117.242813,150.973297 114.466507,152.941803 111.337540,154.953247 
z"/>
<path fill="#9BC90B" opacity="1.000000" stroke="none" 
	d="
M124.878082,141.884949 
	C126.002586,141.627823 127.127083,141.370697 128.590240,141.040161 
	C127.480888,142.547455 126.032875,144.128189 124.279556,145.849594 
	C123.895699,145.461884 123.817131,144.933502 123.847069,143.810699 
	C124.263077,142.772507 124.570580,142.328735 124.878082,141.884949 
z"/>
<path fill="#9BC90B" opacity="1.000000" stroke="none" 
	d="
M120.329330,148.977295 
	C121.097397,148.017685 122.192093,147.015305 123.638641,145.994553 
	C122.878975,146.962280 121.767464,147.948395 120.329330,148.977295 
z"/>
<path fill="#C5E261" opacity="1.000000" stroke="none" 
	d="
M124.971817,141.561005 
	C124.570580,142.328735 124.263077,142.772507 123.774345,143.416687 
	C121.292953,144.094330 118.992790,144.571564 116.288239,144.996857 
	C118.747314,141.682053 121.634453,138.439575 124.466072,135.149292 
	C126.419258,132.879730 128.295654,130.544083 130.868530,128.043610 
	C132.507828,127.242455 133.698334,126.824585 134.428879,125.999481 
	C141.349365,118.183159 146.934326,109.522507 149.807556,99.409286 
	C152.308868,90.605278 152.588638,81.677162 149.694580,72.854698 
	C147.943588,67.516869 145.474731,66.681496 141.868698,70.032494 
	C140.916779,66.646606 139.964844,63.260723 138.985291,59.492943 
	C142.651108,55.020874 145.433731,54.913242 148.457352,59.327030 
	C154.999893,68.877625 156.433472,79.875328 154.278152,90.726448 
	C152.404358,100.160248 148.264221,109.143906 145.081085,118.689713 
	C145.036545,119.052940 144.932770,119.440521 144.617950,119.762253 
	C143.874191,120.734238 143.445267,121.384483 143.016342,122.034729 
	C143.016342,122.034729 142.908722,122.417770 142.554382,122.721458 
	C141.151093,124.370834 140.102158,125.716522 139.053223,127.062210 
	C139.053223,127.062202 138.944733,127.443481 138.580688,127.737305 
	C136.789490,129.663910 135.362350,131.296692 133.935211,132.929474 
	C133.935211,132.929474 133.932251,132.947968 133.920441,132.937637 
	C130.960938,135.697235 128.013245,138.467148 124.971817,141.561005 
z"/>
<path fill="#52B4E2" opacity="1.000000" stroke="none" 
	d="
M39.319115,35.912174 
	C41.108025,34.385452 43.238552,32.792259 45.727398,31.164911 
	C43.944057,32.702404 41.802395,34.274055 39.319115,35.912174 
z"/>
<path fill="#B2D92D" opacity="1.000000" stroke="none" 
	d="
M134.276672,132.878296 
	C135.362350,131.296692 136.789490,129.663910 138.535309,127.930252 
	C137.442032,129.495285 136.030075,131.161209 134.276672,132.878296 
z"/>
<path fill="#B2D92D" opacity="1.000000" stroke="none" 
	d="
M139.382080,126.980515 
	C140.102158,125.716522 141.151093,124.370834 142.513336,122.916115 
	C141.788055,124.170998 140.749496,125.534912 139.382080,126.980515 
z"/>
<path fill="#B2D92D" opacity="1.000000" stroke="none" 
	d="
M143.309296,121.932564 
	C143.445267,121.384483 143.874191,120.734238 144.579102,119.959084 
	C144.437485,120.499580 144.019867,121.164986 143.309296,121.932564 
z"/>
<path fill="#52B4E2" opacity="1.000000" stroke="none" 
	d="
M59.199966,25.808702 
	C59.460979,25.328979 60.016571,24.803986 60.875286,24.250792 
	C60.617119,24.736206 60.055836,25.249819 59.199966,25.808702 
z"/>
<path fill="#52B4E2" opacity="1.000000" stroke="none" 
	d="
M67.374969,22.013796 
	C67.585709,21.843571 68.156807,21.671597 68.940033,21.621628 
	C68.679886,21.833103 68.207596,21.922575 67.374969,22.013796 
z"/>
<path fill="#015379" opacity="1.000000" stroke="none" 
	d="
M133.244629,46.541061 
	C131.958344,46.542179 130.640182,46.138630 129.135559,45.004219 
	C128.618134,41.527531 128.287140,38.781704 127.956161,36.035873 
	C127.956161,36.035873 128.048264,35.952713 128.094147,35.910923 
	C131.868179,38.285007 132.962448,42.002216 133.244629,46.541061 
z"/>
<path fill="#D1E883" opacity="1.000000" stroke="none" 
	d="
M141.932297,70.425499 
	C145.474731,66.681496 147.943588,67.516869 149.694580,72.854698 
	C152.588638,81.677162 152.308868,90.605278 149.807556,99.409286 
	C146.934326,109.522507 141.349365,118.183159 134.428879,125.999481 
	C133.698334,126.824585 132.507828,127.242455 131.182495,127.914139 
	C134.267273,119.798149 138.788834,111.876869 140.819489,103.361572 
	C142.753372,95.252121 142.157730,86.525665 142.519745,78.063873 
	C142.622559,75.660622 142.185425,73.234268 141.932297,70.425499 
z"/>
<path fill="#00283C" opacity="1.000000" stroke="none" 
	d="
M63.981125,32.372833 
	C64.009346,32.036114 64.395538,31.882019 64.594437,31.824266 
	C67.233925,31.497898 69.674515,31.229282 72.808868,30.872887 
	C74.003395,30.224285 74.504166,29.663464 75.337013,29.077702 
	C76.112740,29.037342 76.556396,29.021923 77.194839,29.131699 
	C77.928955,28.879148 78.468285,28.501404 79.341537,28.099648 
	C80.121628,28.062733 80.567802,28.049828 81.297989,28.220428 
	C83.065224,27.955637 84.548431,27.507339 86.402618,27.054054 
	C87.515541,27.047871 88.257477,27.046677 89.346184,27.245113 
	C96.561775,28.578852 103.565269,29.211639 110.255959,31.008902 
	C115.419952,32.396061 120.859360,34.480850 121.972168,41.060368 
	C121.019386,41.034248 119.863365,41.353588 119.144157,40.930454 
	C107.370033,34.003368 94.401001,32.990467 81.287796,33.819115 
	C69.649094,34.554581 59.423313,39.738441 49.363926,45.602222 
	C49.011875,44.533627 49.010876,43.773415 49.033527,42.777557 
	C49.057175,42.541920 49.119183,42.072666 49.467419,42.055977 
	C50.878086,41.360977 51.940514,40.682671 53.001472,40.002182 
	C53.000000,40.000000 53.002537,40.003304 53.330509,39.971642 
	C54.440495,39.295216 55.222511,38.650459 56.038551,37.687431 
	C56.150707,36.949631 56.228836,36.530102 56.306965,36.110577 
	C59.257423,35.880222 62.970085,37.363411 63.981125,32.372833 
z"/>
<path fill="#00344C" opacity="1.000000" stroke="none" 
	d="
M122.146744,41.322735 
	C120.859360,34.480850 115.419952,32.396061 110.255959,31.008902 
	C103.565269,29.211639 96.561775,28.578852 89.355186,26.924274 
	C89.037903,25.979130 89.058380,25.554462 89.078857,25.129793 
	C91.413506,25.110779 93.748154,25.091764 96.710403,25.396034 
	C100.981682,26.486427 104.666382,27.098606 108.261253,28.050140 
	C118.432152,30.742287 125.826454,35.014957 126.041939,43.839973 
	C124.801735,43.088348 123.561531,42.336727 122.146744,41.322735 
z"/>
<path fill="#00415F" opacity="1.000000" stroke="none" 
	d="
M126.320450,43.999439 
	C125.826454,35.014957 118.432152,30.742287 108.261253,28.050140 
	C104.666382,27.098606 100.981682,26.486427 97.148270,25.402412 
	C108.495926,24.649426 118.946167,27.299711 127.648239,35.911526 
	C128.287140,38.781704 128.618134,41.527531 128.937042,44.702263 
	C128.149643,44.807079 127.374306,44.482990 126.320450,43.999439 
z"/>
<path fill="#00344C" opacity="1.000000" stroke="none" 
	d="
M49.009880,43.013199 
	C49.010876,43.773415 49.011875,44.533627 49.018776,45.674644 
	C46.898216,47.646736 44.771748,49.238029 42.307449,50.570488 
	C41.506275,49.225513 41.042931,48.139378 40.579586,47.053238 
	C42.251534,45.233265 43.923485,43.413296 46.050716,41.443939 
	C46.505997,41.294552 46.891769,41.321415 47.028687,41.560062 
	C47.780365,42.203537 48.395123,42.608368 49.009880,43.013199 
z"/>
<path fill="#BFDF50" opacity="1.000000" stroke="none" 
	d="
M107.617630,150.862030 
	C106.904747,152.062622 106.058388,153.819611 104.668930,154.567184 
	C102.529022,155.718506 100.016708,156.177658 97.273209,156.947418 
	C100.336288,154.964981 103.788551,152.965576 107.617630,150.862030 
z"/>
<path fill="#015379" opacity="1.000000" stroke="none" 
	d="
M30.355106,63.936890 
	C31.802446,60.460773 33.549168,56.826382 35.564342,53.411827 
	C35.206509,55.361340 34.580223,57.091019 33.953938,58.820702 
	C32.854122,60.473339 31.754305,62.125977 30.355106,63.936890 
z"/>
<path fill="#C5E261" opacity="1.000000" stroke="none" 
	d="
M115.596313,144.934265 
	C115.727272,148.998306 112.759125,149.724976 109.092628,150.074768 
	C110.866592,148.361572 113.054482,146.674088 115.596313,144.934265 
z"/>
<path fill="#00415F" opacity="1.000000" stroke="none" 
	d="
M34.281433,58.814659 
	C34.580223,57.091019 35.206509,55.361340 35.879097,53.284195 
	C35.925396,52.936737 35.942242,52.964333 36.206394,52.850578 
	C36.989201,52.500683 37.507858,52.264534 38.153461,52.280258 
	C38.532448,53.037178 38.784485,53.542233 39.036526,54.047283 
	C39.036526,54.047283 38.915123,54.531422 38.714706,54.894554 
	C38.331059,55.427113 38.163280,55.610668 38.010956,55.808350 
	C36.876945,56.808437 35.742939,57.808529 34.281433,58.814659 
z"/>
<path fill="#00415F" opacity="1.000000" stroke="none" 
	d="
M40.289158,47.205334 
	C41.042931,48.139378 41.506275,49.225513 41.980217,50.645119 
	C41.851868,51.274567 41.657093,51.527580 40.955742,51.743820 
	C40.003166,51.499939 39.501354,51.249863 38.990494,50.654816 
	C38.960114,49.849579 38.938789,49.389313 38.917465,48.929043 
	C39.277889,48.405174 39.638309,47.881302 40.289158,47.205334 
z"/>
<path fill="#00344C" opacity="1.000000" stroke="none" 
	d="
M38.999542,50.999786 
	C39.501354,51.249863 40.003166,51.499939 40.754967,51.876968 
	C40.549751,52.632484 40.094547,53.261047 39.337936,53.968449 
	C38.784485,53.542233 38.532448,53.037178 38.297249,52.091946 
	C38.520306,51.411030 38.748791,51.193703 38.999542,50.999786 
z"/>
<path fill="#00344C" opacity="1.000000" stroke="none" 
	d="
M38.204681,55.749702 
	C38.163280,55.610668 38.331059,55.427113 38.656059,55.137123 
	C38.779236,55.309254 38.646095,55.534084 38.204681,55.749702 
z"/>
<path fill="#00415F" opacity="1.000000" stroke="none" 
	d="
M88.801262,25.037613 
	C89.058380,25.554462 89.037903,25.979130 89.008423,26.724640 
	C88.257477,27.046677 87.515541,27.047871 86.126465,26.972868 
	C84.990364,26.609528 84.501396,26.322386 84.012436,26.035242 
	C84.033485,25.625820 84.054535,25.216400 84.102020,24.504040 
	C84.852013,24.160727 85.575569,24.120352 86.664101,24.084295 
	C87.527267,24.374218 88.025467,24.659824 88.801262,25.037613 
z"/>
<path fill="#015379" opacity="1.000000" stroke="none" 
	d="
M38.990494,50.654816 
	C38.748791,51.193703 38.520306,51.411030 38.170296,51.840080 
	C37.507858,52.264534 36.989201,52.500683 36.204514,52.840702 
	C36.716972,51.674778 37.495464,50.404980 38.595711,49.032112 
	C38.938789,49.389313 38.960114,49.849579 38.990494,50.654816 
z"/>
<path fill="#015379" opacity="1.000000" stroke="none" 
	d="
M46.891769,41.321415 
	C46.891769,41.321415 46.505997,41.294552 46.316772,41.263374 
	C46.340366,40.679401 46.553177,40.126614 46.900742,39.312714 
	C47.502590,39.059834 47.969681,39.068062 48.769287,39.414337 
	C49.068802,40.169289 49.035801,40.586189 48.647289,41.026852 
	C47.825108,41.140881 47.358440,41.231148 46.891769,41.321415 
z"/>
<path fill="#00344C" opacity="1.000000" stroke="none" 
	d="
M75.004936,29.102646 
	C74.504166,29.663464 74.003395,30.224285 73.213356,30.853405 
	C72.951279,30.236149 72.978477,29.550591 73.006744,28.525356 
	C73.449089,28.140007 73.890373,28.094337 74.664703,28.303947 
	C75.000145,28.740370 75.002541,28.921509 75.004936,29.102646 
z"/>
<path fill="#00415F" opacity="1.000000" stroke="none" 
	d="
M56.242554,35.873680 
	C56.228836,36.530102 56.150707,36.949631 55.731857,37.750633 
	C54.594936,38.755840 53.798737,39.379574 53.002537,40.003304 
	C53.002537,40.003304 53.000000,40.000000 52.715248,39.924644 
	C51.936821,39.530846 51.443146,39.212406 50.949467,38.893967 
	C50.949467,38.893967 50.899231,38.455856 50.886288,38.235931 
	C51.572842,37.362331 52.272335,36.708660 53.025490,35.773094 
	C53.827309,35.360962 54.575474,35.230724 55.705566,35.127357 
	C56.087498,35.154232 56.178146,35.636784 56.242554,35.873680 
z"/>
<path fill="#00344C" opacity="1.000000" stroke="none" 
	d="
M79.007614,28.123661 
	C78.468285,28.501404 77.928955,28.879148 77.201859,28.812183 
	C77.031639,27.942902 77.049187,27.518328 77.066742,27.093754 
	C77.496407,27.075216 77.926064,27.056677 78.677887,27.302681 
	C79.002571,27.752707 79.005089,27.938187 79.007614,28.123661 
z"/>
<path fill="#00415F" opacity="1.000000" stroke="none" 
	d="
M79.341537,28.099651 
	C79.005089,27.938187 79.002571,27.752707 79.000145,27.289093 
	C79.023224,26.605469 79.046204,26.199978 79.096786,25.494364 
	C79.540390,25.157110 79.956390,25.119978 80.686447,25.076439 
	C81.000183,25.258768 80.999878,25.447508 81.008453,26.222530 
	C81.016220,27.218185 81.015091,27.627554 81.013969,28.036922 
	C80.567802,28.049828 80.121628,28.062733 79.341537,28.099651 
z"/>
<path fill="#00415F" opacity="1.000000" stroke="none" 
	d="
M76.778763,27.133049 
	C77.049187,27.518328 77.031639,27.942902 77.007065,28.686989 
	C76.556396,29.021923 76.112740,29.037342 75.337013,29.077703 
	C75.002541,28.921509 75.000145,28.740370 74.997009,28.287651 
	C75.494446,27.734829 75.992615,27.453587 76.778763,27.133049 
z"/>
<path fill="#00344C" opacity="1.000000" stroke="none" 
	d="
M50.645981,38.925877 
	C51.443146,39.212406 51.936821,39.530846 52.716721,39.926826 
	C51.940514,40.682671 50.878086,41.360977 49.434006,41.788612 
	C49.035835,41.359657 49.019318,41.181374 49.002800,41.003090 
	C49.035801,40.586189 49.068802,40.169289 49.119049,39.441170 
	C49.538361,39.072559 49.940430,39.015171 50.645981,38.925877 
z"/>
<path fill="#00344C" opacity="1.000000" stroke="none" 
	d="
M81.297989,28.220428 
	C81.015091,27.627554 81.016220,27.218185 81.014099,26.505583 
	C81.760490,26.148252 82.510117,26.094154 83.636093,26.037649 
	C84.501396,26.322386 84.990364,26.609528 85.755486,26.977856 
	C84.548431,27.507339 83.065224,27.955637 81.297989,28.220428 
z"/>
<path fill="#00344C" opacity="1.000000" stroke="none" 
	d="
M53.330509,39.971642 
	C53.798737,39.379574 54.594936,38.755840 55.697830,38.068909 
	C55.222511,38.650459 54.440495,39.295216 53.330509,39.971642 
z"/>
<path fill="#00415F" opacity="1.000000" stroke="none" 
	d="
M48.647289,41.026852 
	C49.019318,41.181374 49.035835,41.359657 49.085770,41.805305 
	C49.119183,42.072666 49.057175,42.541920 49.033527,42.777557 
	C48.395123,42.608368 47.780365,42.203537 47.028687,41.560062 
	C47.358440,41.231148 47.825108,41.140881 48.647289,41.026852 
z"/>
</svg>
