<?xml version="1.0" standalone="no"?>
<!DOCTYPE svg PUBLIC "-//W3C//DTD SVG 20010904//EN"
 "http://www.w3.org/TR/2001/REC-SVG-20010904/DTD/svg10.dtd">
<svg version="1.0" xmlns="http://www.w3.org/2000/svg"
 width="1531.000000pt" height="376.000000pt" viewBox="0 0 1531.000000 376.000000"
 preserveAspectRatio="xMidYMid meet">

<g transform="translate(0.000000,376.000000) scale(0.100000,-0.100000)"
fill="#000000" stroke="none">
<path d="M14000 3555 c0 -39 30 -55 101 -55 153 0 336 -43 473 -111 103 -51
158 -93 242 -182 148 -157 221 -344 230 -587 4 -124 10 -146 44 -150 36 -5 51
2 66 32 35 67 -2 344 -66 505 -86 214 -278 417 -477 504 -93 41 -156 60 -143
44 16 -20 0 -20 -110 1 -47 9 -147 17 -222 18 -136 3 -138 2 -138 -19z"/>
<path d="M4092 3306 l-37 -34 -3 -954 c-2 -524 0 -977 3 -1007 9 -73 45 -111
105 -111 34 0 48 6 76 34 30 30 34 40 34 86 l0 52 51 -45 c101 -88 205 -127
339 -127 151 1 256 46 371 160 157 156 229 345 229 599 0 256 -68 439 -224
599 -115 118 -223 167 -376 167 -141 0 -250 -44 -347 -138 l-43 -41 0 352 c0
294 -3 358 -15 382 -36 69 -104 80 -163 26z m633 -830 c73 -19 113 -42 170
-100 203 -204 202 -622 -1 -832 -131 -134 -332 -134 -467 1 -89 89 -157 267
-157 412 0 156 62 323 155 418 55 57 96 81 165 101 59 16 76 16 135 0z"/>
<path d="M14033 3303 c-38 -5 -41 -15 -13 -43 15 -15 33 -20 73 -20 82 0 233
-36 311 -73 181 -87 296 -225 343 -413 l17 -69 11 50 11 50 13 -45 c6 -25 13
-81 14 -125 2 -76 1 -80 -20 -83 -26 -4 -32 -39 -11 -60 17 -17 64 -15 84 5
25 25 15 251 -16 348 -38 120 -98 223 -176 303 -77 78 -109 94 -69 36 14 -20
25 -41 25 -45 0 -5 -37 15 -82 45 -95 61 -191 102 -287 121 -79 16 -183 24
-228 18z"/>
<path d="M6465 3240 c-205 -44 -378 -194 -436 -379 -44 -140 -20 -325 57 -428
101 -136 246 -219 489 -278 316 -77 459 -192 460 -370 0 -199 -195 -365 -430
-365 -142 0 -316 80 -462 212 -66 60 -108 65 -154 19 -25 -25 -29 -37 -29 -82
0 -49 3 -55 45 -95 115 -110 279 -211 410 -251 46 -14 92 -18 200 -18 127 1
147 4 215 28 133 48 267 157 334 272 88 150 98 349 26 500 -57 119 -187 233
-336 295 -41 17 -142 48 -224 70 -234 61 -347 125 -397 224 -102 199 95 436
363 436 112 0 211 -43 360 -156 90 -68 126 -72 173 -19 24 28 31 45 31 77 0
37 -6 47 -48 88 -70 68 -217 162 -302 194 -63 24 -93 29 -190 32 -63 2 -133
-1 -155 -6z"/>
<path d="M7488 3191 l-33 -29 0 -951 0 -950 29 -30 c24 -25 38 -31 74 -31 35
0 49 6 73 29 l29 29 0 416 c0 438 3 481 47 573 68 146 250 205 393 127 62 -33
94 -70 129 -144 l26 -55 5 -450 c4 -335 8 -456 18 -472 34 -60 114 -72 163
-24 l29 29 0 459 c0 433 -1 463 -21 533 -11 41 -32 97 -47 125 -40 73 -142
177 -212 214 -156 83 -345 74 -480 -23 l-50 -36 0 313 0 313 -33 32 c-44 43
-93 44 -139 3z"/>
<path d="M11614 3176 l-34 -34 0 -245 0 -245 -71 -4 c-65 -3 -74 -6 -100 -36
-24 -26 -29 -41 -29 -82 0 -40 5 -56 28 -81 25 -28 35 -32 100 -37 l71 -5 3
-511 c3 -502 3 -512 25 -551 26 -49 98 -120 136 -134 16 -6 51 -11 79 -11 44
0 54 4 84 34 49 49 48 101 -2 156 -21 23 -45 40 -58 40 -46 0 -46 -2 -46 501
l0 476 67 6 c61 5 70 8 100 41 46 50 46 102 -1 153 -31 34 -39 37 -99 41 l-66
4 -3 244 -3 243 -34 35 c-48 50 -99 50 -147 2z"/>
<path d="M5547 3170 c-36 -28 -50 -81 -44 -157 4 -56 9 -69 38 -99 45 -46 88
-47 134 -1 58 58 61 193 5 249 -35 35 -94 39 -133 8z"/>
<path d="M14020 3000 c-13 -9 -12 -12 4 -25 11 -8 32 -15 47 -15 107 0 223
-52 308 -138 57 -58 63 -62 57 -36 -19 76 -103 156 -203 195 -65 24 -190 36
-213 19z"/>
<path d="M14514 2808 c18 -89 36 -204 36 -229 0 -28 -6 -37 -45 -63 -16 -12
-17 -16 -6 -30 20 -24 67 -20 85 6 31 44 10 201 -38 297 -30 59 -41 65 -32 19z"/>
<path d="M434 2756 c-68 -30 -64 14 -64 -768 l0 -708 33 -35 c45 -49 95 -52
140 -6 l32 31 5 478 c5 463 6 479 28 537 47 125 115 196 222 231 128 42 272
-49 342 -216 22 -54 23 -63 28 -536 l5 -481 28 -36 c25 -34 32 -37 76 -37 43
0 52 4 80 35 l31 36 0 438 c0 256 4 461 10 492 14 73 60 168 106 219 143 158
361 111 460 -98 50 -105 54 -152 54 -623 l0 -437 29 -31 c24 -26 37 -31 73
-31 36 0 50 6 74 31 l29 30 3 451 c2 370 0 467 -13 540 -64 372 -393 596 -687
469 -63 -27 -161 -104 -204 -161 l-38 -49 -73 79 c-88 94 -177 144 -286 161
-115 18 -244 -15 -337 -85 l-35 -27 -6 24 c-11 41 -39 75 -71 86 -38 13 -36
13 -74 -3z"/>
<path d="M3325 2719 c-27 -9 -106 -31 -175 -47 -362 -86 -578 -249 -609 -463
-5 -30 -19 -76 -31 -104 -22 -46 -22 -57 -16 -200 3 -82 9 -176 12 -207 6 -55
5 -58 -15 -58 -12 0 -42 19 -67 42 l-46 42 6 -75 c6 -85 16 -118 57 -206 53
-110 112 -164 259 -233 65 -30 321 -46 430 -26 19 4 54 9 78 11 24 3 51 9 61
15 10 5 21 7 24 4 9 -9 268 77 309 103 21 12 43 23 49 23 20 0 102 66 156 124
105 115 158 241 157 376 0 42 -4 85 -9 96 -4 10 -9 26 -10 34 -1 8 -3 24 -4
35 -1 11 -19 -32 -40 -95 -63 -195 -142 -322 -288 -461 -43 -40 -111 -96 -152
-124 -73 -49 -74 -49 -160 -51 -92 -3 -220 15 -287 39 -102 37 -215 109 -281
178 -43 46 -123 170 -123 191 0 9 -4 19 -9 22 -4 3 -12 20 -16 38 -4 18 -9 38
-11 43 -21 68 -32 172 -28 279 l4 108 42 52 c23 28 58 68 77 89 42 45 168 137
188 137 7 0 13 4 13 8 0 18 136 67 216 78 127 17 250 1 369 -48 67 -27 71 -29
139 -68 57 -32 58 -32 51 -9 -4 13 -15 41 -25 62 -14 30 -15 35 -2 25 13 -11
14 -10 7 12 -11 36 -26 52 -43 45 -10 -3 -12 0 -8 10 3 9 0 15 -8 15 -7 0 -21
10 -33 23 -36 41 -118 113 -138 124 -14 7 -34 5 -70 -8z"/>
<path d="M5584 2723 c-12 -2 -34 -18 -50 -34 l-29 -30 0 -700 0 -701 33 -29
c61 -55 150 -30 172 49 13 49 14 1313 0 1363 -16 59 -68 93 -126 82z"/>
<path d="M9295 2718 c-166 -32 -343 -195 -428 -396 -92 -217 -86 -538 13 -751
69 -146 181 -265 309 -329 74 -37 76 -37 201 -37 126 0 126 0 202 38 42 20 99
58 127 83 l51 46 0 -29 c0 -87 44 -143 112 -143 53 0 94 40 103 101 3 24 5
340 3 702 l-3 659 -37 34 c-49 45 -86 45 -133 2 -29 -27 -37 -42 -42 -85 l-6
-52 -56 46 c-125 103 -265 140 -416 111z m229 -263 c106 -54 195 -185 232
-340 24 -105 16 -267 -19 -368 -49 -140 -119 -229 -222 -278 -234 -112 -478
107 -502 451 -15 218 93 456 238 531 66 33 88 39 155 36 43 -2 77 -11 118 -32z"/>
<path d="M10645 2656 c-71 -19 -100 -32 -151 -67 -186 -128 -223 -406 -75
-558 84 -86 134 -111 330 -162 186 -48 246 -84 276 -164 23 -59 13 -106 -32
-156 -120 -133 -296 -124 -491 24 -51 38 -75 50 -104 51 -71 2 -126 -86 -99
-156 15 -39 134 -133 226 -179 221 -110 442 -82 600 76 84 83 117 154 123 262
8 142 -50 272 -153 345 -54 38 -154 83 -220 99 -160 39 -206 53 -252 79 -119
68 -103 201 33 270 39 20 64 25 119 25 79 -1 110 -14 214 -90 83 -61 125 -65
173 -17 28 28 33 39 33 82 0 40 -5 54 -30 80 -41 44 -149 114 -215 141 -69 27
-229 35 -305 15z"/>
<path d="M13490 2639 c-156 -25 -328 -166 -414 -339 -190 -385 -51 -894 289
-1055 71 -33 126 -44 221 -45 127 0 222 35 327 122 l47 39 0 -31 c0 -17 6 -46
14 -64 39 -95 168 -87 196 12 13 49 14 1233 0 1283 -14 51 -50 81 -99 83 -59
1 -99 -41 -108 -112 l-6 -51 -47 42 c-59 53 -142 94 -228 113 -74 15 -111 16
-192 3z m226 -259 c148 -73 244 -253 244 -460 0 -202 -94 -381 -240 -456 -47
-24 -67 -28 -135 -29 -67 0 -89 4 -135 27 -147 72 -249 263 -250 464 0 133 65
298 151 386 108 108 235 132 365 68z"/>
<path d="M12280 2612 c-19 -19 -30 -44 -35 -73 -3 -24 -5 -322 -3 -662 l3
-619 33 -29 c61 -55 150 -30 172 49 6 22 10 164 10 342 l0 305 43 106 c55 135
98 208 167 279 60 62 139 100 210 100 75 0 128 89 96 163 -20 48 -51 67 -111
67 -119 -1 -217 -45 -327 -149 l-78 -73 0 53 c0 114 -37 169 -112 169 -30 0
-46 -7 -68 -28z"/>
<path d="M2290 1002 c-44 -22 -68 -64 -81 -141 -10 -55 -14 -61 -35 -61 -21 0
-24 -4 -24 -40 0 -36 3 -40 25 -40 l25 0 2 -197 3 -198 45 0 45 0 3 198 2 197
45 0 45 0 0 40 0 40 -46 0 -47 0 5 52 c7 65 35 93 85 83 33 -6 33 -6 33 33 0
27 -5 42 -16 46 -29 11 -79 6 -114 -12z"/>
<path d="M1570 878 l0 -131 -22 21 c-58 53 -136 51 -199 -5 -50 -45 -74 -114
-74 -213 1 -158 94 -260 209 -229 22 6 52 24 68 41 l28 30 0 -36 c0 -35 1 -36
40 -36 l40 0 0 345 0 345 -45 0 -45 0 0 -132z m-35 -184 c27 -30 41 -109 31
-182 -20 -152 -179 -146 -194 7 -11 123 27 201 99 201 30 0 46 -6 64 -26z"/>
<path d="M4860 665 l0 -345 45 0 45 0 0 163 c0 143 2 166 20 194 21 35 55 49
96 39 44 -11 54 -56 54 -236 l0 -160 45 0 45 0 0 183 c0 157 -3 188 -19 224
-33 71 -94 96 -166 68 -25 -9 -52 -26 -60 -38 -14 -20 -15 -9 -15 116 l0 137
-45 0 -45 0 0 -345z"/>
<path d="M8042 668 l3 -343 45 0 45 0 5 173 5 174 29 24 c38 33 81 29 110 -9
19 -26 21 -44 24 -198 l3 -169 45 0 44 0 -1 178 c-1 191 -7 224 -52 272 -48
50 -111 51 -174 3 l-33 -24 0 130 0 131 -50 0 -50 0 2 -342z"/>
<path d="M10562 668 l3 -343 45 0 45 0 3 343 2 342 -50 0 -50 0 2 -342z"/>
<path d="M11040 879 l0 -131 -30 25 c-87 74 -214 18 -251 -111 -17 -59 -17
-164 0 -216 18 -54 75 -114 120 -126 49 -13 107 4 142 41 l28 30 3 -33 c3 -30
6 -33 41 -36 l37 -3 0 345 0 346 -45 0 -45 0 0 -131z m-43 -174 c27 -19 43
-72 43 -147 0 -122 -64 -189 -142 -147 -69 37 -76 219 -11 291 20 22 80 24
110 3z"/>
<path d="M505 983 c-22 -2 -50 -6 -62 -8 l-23 -5 0 -325 0 -325 45 0 45 0 0
140 0 140 46 0 c63 0 98 -35 114 -116 6 -32 18 -83 26 -111 l15 -53 44 0 c25
0 45 4 45 9 0 25 -52 227 -65 251 -8 16 -25 36 -37 44 -12 9 -17 16 -11 16 7
0 28 16 47 36 87 90 53 259 -58 293 -40 12 -120 19 -171 14z m156 -112 c24
-24 29 -38 29 -76 0 -40 -5 -52 -34 -81 -31 -31 -40 -34 -90 -34 l-56 0 0 110
0 110 61 0 c54 0 64 -3 90 -29z"/>
<path d="M2464 965 c-28 -28 -30 -42 -8 -73 17 -24 62 -30 82 -10 16 16 15 73
0 85 -30 23 -49 23 -74 -2z"/>
<path d="M3150 977 c-18 -9 -26 -22 -28 -45 -4 -41 12 -62 48 -62 36 0 52 21
48 61 -4 43 -34 63 -68 46z"/>
<path d="M4382 938 l3 -43 77 -3 78 -3 2 -282 3 -282 45 0 45 0 3 283 2 282
80 0 80 0 0 45 0 45 -211 0 -210 0 3 -42z"/>
<path d="M5881 963 c0 -10 30 -157 67 -328 l67 -310 49 0 49 0 47 210 c70 313
67 305 69 271 1 -36 80 -432 92 -463 7 -19 16 -23 54 -23 25 0 45 2 45 5 0 2
34 149 75 325 41 176 75 323 75 326 0 3 -21 4 -47 2 l-48 -3 -28 -135 c-15
-74 -38 -191 -51 -260 -21 -118 -23 -122 -29 -80 -4 25 -26 143 -49 263 l-42
217 -47 0 c-40 0 -48 -3 -52 -22 -4 -13 -26 -117 -51 -233 -24 -115 -46 -219
-49 -230 -6 -32 -12 -10 -58 248 l-43 237 -48 0 c-39 0 -48 -3 -47 -17z"/>
<path d="M7570 935 l0 -45 80 0 80 0 2 -282 3 -283 45 0 45 0 3 282 2 282 78
3 77 3 3 43 3 42 -210 0 -211 0 0 -45z"/>
<path d="M9066 963 c2 -10 33 -154 69 -321 35 -166 67 -307 70 -312 3 -6 26
-10 50 -10 36 0 44 3 48 23 28 112 97 430 97 448 0 55 17 -7 57 -209 23 -119
45 -227 48 -239 5 -20 12 -23 50 -23 24 0 46 4 49 8 2 4 37 145 76 312 39 168
73 313 76 323 5 15 -2 17 -44 17 l-49 0 -41 -202 c-23 -112 -45 -225 -50 -253
-5 -27 -11 -43 -14 -35 -3 8 -25 116 -48 240 -24 124 -45 231 -48 238 -2 7
-22 12 -48 12 -51 0 -42 24 -104 -270 -57 -271 -52 -254 -62 -195 -20 119 -79
431 -84 448 -4 13 -16 17 -54 17 -41 0 -47 -3 -44 -17z"/>
<path d="M11422 653 l3 -328 45 0 45 0 3 328 2 327 -50 0 -50 0 2 -327z"/>
<path d="M12150 896 c-31 -11 -35 -17 -38 -54 -3 -36 -6 -41 -30 -44 -23 -3
-27 -8 -30 -40 -3 -36 -2 -38 26 -38 l30 0 3 -157 c4 -137 7 -163 25 -193 24
-41 79 -64 130 -54 32 6 34 9 34 45 0 38 -1 39 -35 39 -24 0 -37 6 -45 19 -5
11 -10 83 -10 160 l0 141 50 0 50 0 0 40 0 40 -50 0 -50 0 0 55 c0 60 -2 62
-60 41z"/>
<path d="M13930 896 c-31 -11 -35 -17 -38 -54 -3 -39 -5 -42 -33 -42 -27 0
-29 -2 -29 -40 0 -38 2 -40 30 -40 l30 0 0 -150 c0 -159 8 -198 49 -234 13
-12 37 -19 63 -20 64 -1 78 8 78 48 0 33 -2 35 -37 38 -55 4 -63 28 -63 186
l0 132 50 0 50 0 0 40 0 40 -50 0 -50 0 0 55 c0 30 -3 55 -7 54 -5 0 -24 -6
-43 -13z"/>
<path d="M974 791 c-52 -23 -87 -70 -108 -140 -20 -69 -20 -123 -1 -189 34
-114 125 -165 252 -142 68 13 79 24 69 65 -6 24 -9 25 -49 18 -102 -19 -155 1
-181 68 -28 70 -31 68 122 71 l137 3 -2 54 c-3 70 -18 113 -51 153 -49 58
-116 72 -188 39z m113 -76 c19 -13 43 -68 43 -97 0 -5 -43 -8 -96 -8 -106 0
-105 -1 -68 72 25 48 79 63 121 33z"/>
<path d="M1883 799 c-76 -22 -136 -127 -137 -239 -2 -194 124 -286 311 -229
30 9 32 13 26 42 -3 18 -7 33 -8 35 -2 2 -28 -1 -58 -7 -99 -18 -163 18 -174
98 l-6 41 138 0 138 0 -6 65 c-12 151 -103 229 -224 194z m106 -93 c12 -13 24
-40 28 -60 l6 -36 -92 0 c-98 0 -101 2 -81 54 25 66 96 88 139 42z"/>
<path d="M2815 796 c-16 -7 -39 -23 -50 -36 l-20 -22 -5 28 c-5 26 -10 29 -49
32 l-44 3 7 -62 c3 -34 6 -142 6 -240 l0 -179 45 0 45 0 0 163 c0 143 2 166
20 194 21 35 55 49 96 39 44 -11 54 -56 54 -236 l0 -160 45 0 45 0 0 180 c0
201 -9 244 -62 281 -37 27 -94 33 -133 15z"/>
<path d="M3484 796 c-17 -7 -40 -26 -52 -41 l-22 -28 0 37 c0 35 -1 36 -40 36
l-40 0 0 -240 0 -240 45 0 45 0 0 158 c0 129 3 163 18 192 19 39 55 56 95 46
45 -11 52 -38 57 -221 l5 -170 45 0 45 0 0 180 c0 163 -2 184 -21 219 -11 22
-32 48 -46 59 -33 24 -95 31 -134 13z"/>
<path d="M3900 799 c-35 -14 -78 -57 -103 -104 -18 -33 -22 -57 -22 -135 0
-83 3 -101 25 -140 33 -59 81 -90 137 -90 48 0 96 20 112 47 8 14 10 9 11 -25
0 -53 -21 -104 -51 -126 -28 -19 -116 -22 -154 -4 -30 14 -34 11 -42 -35 l-5
-36 57 -17 c130 -37 244 18 275 135 5 20 10 146 11 281 l1 245 -41 3 c-40 3
-41 3 -41 -30 l0 -32 -16 23 c-30 43 -101 61 -154 40z m134 -112 c22 -30 33
-129 21 -193 -9 -48 -45 -84 -85 -84 -70 0 -102 47 -102 149 0 112 34 164 104
159 31 -2 46 -10 62 -31z"/>
<path d="M5435 798 c-77 -27 -126 -108 -133 -219 -7 -122 32 -205 118 -250 32
-16 134 -16 183 0 36 12 38 15 31 44 -3 18 -7 33 -8 34 -2 2 -27 -2 -58 -7
-97 -18 -161 19 -175 103 l-6 37 137 0 136 0 0 46 c0 160 -101 255 -225 212z
m90 -74 c20 -8 45 -56 45 -89 0 -25 0 -25 -90 -25 -49 0 -90 4 -90 9 0 21 22
67 42 89 21 22 60 28 93 16z"/>
<path d="M6715 801 c-62 -16 -78 -30 -71 -64 8 -40 9 -41 45 -23 43 23 106 21
131 -4 27 -27 27 -80 0 -80 -59 0 -125 -24 -164 -60 -37 -35 -40 -42 -44 -101
-3 -55 0 -69 20 -99 43 -63 145 -74 193 -20 20 22 35 18 35 -11 0 -16 7 -19
41 -19 l41 0 -4 188 c-3 203 -10 230 -68 274 -28 21 -110 31 -155 19z m135
-286 c0 -75 -36 -125 -89 -125 -52 0 -80 79 -46 128 17 23 60 40 108 41 26 1
27 -1 27 -44z"/>
<path d="M8623 799 c-77 -22 -136 -126 -137 -239 -2 -194 124 -286 311 -228
29 8 32 13 27 36 -10 40 -16 43 -71 33 -94 -18 -160 20 -170 98 l-6 41 138 0
138 0 -6 65 c-12 151 -103 229 -224 194z m106 -93 c12 -13 24 -40 28 -60 l6
-36 -92 0 c-75 0 -91 3 -91 15 0 27 28 83 47 94 32 18 78 13 102 -13z"/>
<path d="M9935 796 c-53 -20 -111 -83 -126 -137 -7 -24 -12 -75 -11 -112 1
-138 81 -232 197 -231 122 2 196 96 197 251 1 171 -121 279 -257 229z m115
-94 c69 -69 62 -245 -12 -296 -69 -48 -148 34 -148 154 0 88 51 170 105 170
16 0 38 -11 55 -28z"/>
<path d="M10423 791 c-17 -11 -39 -33 -47 -48 l-15 -28 -1 43 0 42 -40 0 -40
0 0 -240 0 -240 44 0 44 0 4 153 c5 192 24 237 103 237 25 0 26 2 23 48 -4 56
-23 64 -75 33z"/>
<path d="M11796 800 c-16 -5 -42 -21 -57 -36 l-29 -28 0 32 c0 31 -2 32 -40
32 l-40 0 0 -240 0 -240 45 0 45 0 0 144 c0 170 4 198 38 231 30 30 71 32 103
6 23 -19 24 -25 29 -198 l5 -178 45 0 45 0 0 180 c0 160 -2 184 -20 219 -34
68 -100 98 -169 76z"/>
<path d="M12493 800 c-40 -13 -106 -87 -121 -138 -7 -22 -12 -73 -12 -114 0
-146 75 -232 204 -232 34 0 78 6 99 13 36 12 38 15 31 44 -3 18 -8 34 -9 35
-2 2 -28 -1 -57 -7 -42 -9 -63 -9 -93 1 -45 15 -85 66 -85 109 l0 29 136 0
137 0 -5 68 c-6 78 -34 141 -77 171 -34 25 -103 34 -148 21z m102 -87 c20 -19
35 -56 35 -84 0 -17 -8 -19 -90 -19 -74 0 -90 3 -90 15 0 23 37 92 52 98 28
11 77 6 93 -10z"/>
<path d="M12964 800 c-11 -4 -32 -22 -47 -39 l-26 -31 -7 35 c-6 33 -9 35 -45
35 l-39 0 2 -237 3 -238 45 0 45 0 5 163 5 164 33 29 c18 16 43 29 57 29 23 0
25 3 25 50 0 53 -9 59 -56 40z"/>
<path d="M13145 793 c-44 -16 -50 -21 -47 -43 5 -48 8 -51 46 -35 76 32 140
10 152 -51 6 -31 6 -31 -47 -37 -63 -8 -136 -43 -161 -77 -61 -84 -17 -217 77
-234 38 -7 115 19 131 45 6 10 10 7 14 -11 5 -21 12 -25 45 -25 l38 0 -2 180
c-2 154 -5 186 -21 220 -35 74 -129 102 -225 68z m155 -289 c0 -48 -4 -59 -29
-85 -47 -47 -102 -34 -118 29 -13 51 52 112 120 112 26 0 27 -2 27 -56z"/>
<path d="M13629 796 c-101 -36 -149 -114 -149 -241 0 -80 15 -128 52 -171 54
-62 120 -82 207 -63 l52 11 -3 36 -3 37 -56 -3 c-95 -6 -142 33 -155 130 -8
59 11 125 47 161 28 27 34 29 94 25 58 -3 64 -2 69 17 12 43 7 54 -31 64 -49
14 -80 13 -124 -3z"/>
<path d="M14223 791 c-50 -23 -74 -57 -80 -114 -6 -54 25 -102 89 -137 89 -49
110 -88 68 -130 -24 -24 -58 -25 -107 -5 -19 8 -37 15 -38 15 -4 0 -25 -61
-25 -71 0 -5 24 -15 53 -24 131 -39 238 33 224 153 -6 51 -40 93 -102 124 -55
28 -75 47 -75 73 0 47 59 69 115 43 30 -13 31 -13 39 29 6 26 3 34 -13 42 -40
22 -104 23 -148 2z"/>
<path d="M2450 560 l0 -240 45 0 45 0 0 240 0 240 -45 0 -45 0 0 -240z"/>
<path d="M3122 563 l3 -238 45 0 45 0 0 235 0 235 -48 3 -47 3 2 -238z"/>
<path d="M7002 788 c3 -7 38 -111 78 -231 65 -197 71 -221 60 -247 -12 -30
-92 -110 -109 -110 -5 0 -3 -19 4 -43 15 -49 31 -51 85 -8 72 57 116 153 210
456 29 94 55 176 58 183 3 8 -10 12 -46 12 l-49 0 -44 -170 c-24 -93 -46 -166
-50 -162 -3 4 -20 59 -39 122 -18 63 -39 136 -47 163 l-14 47 -50 0 c-37 0
-50 -4 -47 -12z"/>
</g>
</svg>
