<svg xmlns="http://www.w3.org/2000/svg" width="32" height="32" fill="none">
  <rect width="32" height="32" fill="#009FCC" rx="5" />
  <path fill="#FBFEFE"
    d="M7 15.75V5.772c0-.252 0-.253.252-.253h3.388c.16 0 .207.049.206.208-.006.864 0 1.727 0 2.59v.237c0 .033.007.068.041.08.034.012.07-.015.088-.047.056-.097.107-.195.162-.292.624-1.09 1.53-1.871 2.64-2.422 1.538-.763 3.167-.994 4.86-.814 1.413.15 2.708.614 3.827 1.525.891.736 1.568 1.7 1.96 2.793a9.713 9.713 0 0 1 .573 3.457c.004 4.317.004 8.634 0 12.951 0 .204-.009.212-.217.212h-3.414c-.207 0-.21 0-.21-.214V14.07c0-.872-.074-1.735-.37-2.565-.493-1.388-1.412-2.328-2.847-2.694a5.741 5.741 0 0 0-4.193.463c-.975.505-1.66 1.305-2.131 2.287-.471.982-.672 2.044-.738 3.132A21.87 21.87 0 0 0 10.848 16v9.757c0 .244 0 .244-.243.244H7.227C7.005 26 7 25.994 7 25.763V15.75Z" />
</svg>
