<svg xmlns="http://www.w3.org/2000/svg" width="32" height="32" fill="none">
  <path fill="#0059BE"
    d="M9.296 6.931h4.93a.832.832 0 0 1 .656.233c.142.191.212.426.2.663 0 .85-.66 2.035-1.732 2.035H8.61l.686-2.93Z" />
  <path fill="#0059BE" fill-rule="evenodd"
    d="M6.762 1.777h12.93c1.701 0 3.69 1.243 3.16 3.912-.613 2.62-1.347 5.81-1.692 7.31h-5.33c-2.878 0-5.295 2.127-5.917 4.748v.023H8.477a.422.422 0 0 0-.245.073L2.95 21.596a.442.442 0 0 1-.686-.456l.762-3.37c-2.11 0-3.424-1.743-2.916-3.884 0 0 1.27-5.58 1.903-8.225.633-2.645 2.632-3.884 4.75-3.884Zm1.699 9.56h4.887c1.889 0 3.204-1.851 3.204-3.51a2.429 2.429 0 0 0-.558-1.627 2.245 2.245 0 0 0-1.77-.742H8.776a.824.824 0 0 0-.802.637l-1.736 7.521a.822.822 0 0 0 .803 1.01.819.819 0 0 0 .802-.637l.618-2.653Z"
    clip-rule="evenodd" />
  <path fill="#00E6A0" fill-rule="evenodd"
    d="m28.985 14.114.768-3.426a.427.427 0 0 0-.416-.52.422.422 0 0 0-.245.08l-5.306 3.78a.43.43 0 0 1-.247.08h-7.725c-2.117 0-4.244 1.731-4.752 3.87L9.15 26.129c-.505 2.139 1.265 3.884 2.916 3.884h13.17c2.118 0 4.245-1.734 4.752-3.884l1.903-8.151c.515-2.139-.787-3.864-2.906-3.864Zm-2.516 5.712-2.852 6.146a.847.847 0 0 1-.745.48h-.037a.856.856 0 0 1-.743-.435l-1.823-3.22-3.888 3.449a.874.874 0 0 1-.967.117.855.855 0 0 1-.457-.864l.79-6.169a.857.857 0 0 1 1.539-.417.854.854 0 0 1 .157.646l-.485 3.888 2.973-2.639a.856.856 0 0 1 1.312.22l1.514 2.7 2.15-4.63a.854.854 0 0 1 .775-.496.856.856 0 0 1 .776 1.224h.01Z"
    clip-rule="evenodd" />
</svg>
