<svg xmlns="http://www.w3.org/2000/svg" width="32" height="32" viewBox="0 0 139 139"><circle cx="70" cy="70" r="69.6" fill="#d81e00"/><path d="M70 17c-3.198 0-5.79 2.637-5.79 5.89a5.98 5.98 0 0 0 .135 1.23c-12.62 2.755-21.825 14.23-22.3 27.8h-.049v1.02 21.8c-1.33 4.04-4.6 9.54-12.6 13.4-3.063.62-5.266 3.304-5.27 6.42 0 3.162 2.262 5.873 5.38 6.45v.035h.236a6.6 6.6 0 0 0 .955.078 6.6 6.6 0 0 0 .977-.078h76.2a6.6 6.6 0 0 0 .957.078 6.6 6.6 0 0 0 .975-.078h.371v-.068c3.044-.636 5.225-3.31 5.23-6.41 0-3.035-2.089-5.674-5.05-6.38-7.46-3.54-10.8-8.51-12.4-12.4v-22.8-1.02h-.035c-.475-13.57-9.68-25.045-22.3-27.8a5.99 5.99 0 0 0 .123-1.2c0-3.253-2.592-5.89-5.79-5.89zm-13 87c.484 6.55 6.076 11.617 12.8 11.6 6.724.017 12.316-5.05 12.8-11.6H57.1z" fill="#eee"/></svg>