<svg xmlns="http://www.w3.org/2000/svg" color="#2ae9aa" fill="none" viewBox="0 0 32 32" class="beams mr3" width="48"
  height="48" role="img" aria-labelledby="svg-7167090c">
  <circle cx="16" cy="16" r="16" fill="currentColor"></circle>
  <g fill="#fff">
    <path
      d="M10.87 22.774l1.389.795c.091.05.213-.01.213-.12V11.843c0-.11-.122-.18-.213-.12l-1.389.794a.3.3 0 00-.152.261v9.724c0 .11.06.211.152.271zM14.388 24.785l1.389.795c.091.05.213-.01.213-.12V9.822c0-.11-.122-.18-.213-.12l-1.39.794a.3.3 0 00-.151.261v13.756c0 .12.06.221.152.271zM17.967 24.574l1.328-.764c.091-.05.091-.19 0-.241l-1.328-.764c-.091-.05-.213.01-.213.12v1.529c0 .11.122.18.213.12zM17.754 20.492v-1.599c0-.11.122-.18.213-.12l4.856 2.775c.091.05.091.19 0 .241l-1.389.794a.326.326 0 01-.304 0l-3.214-1.84a.265.265 0 01-.162-.251zM17.754 16.46V14.87c0-.11.122-.181.213-.12l6.67 3.82a.3.3 0 01.153.262v1.599c0 .11-.122.18-.213.12l-6.671-3.82a.33.33 0 01-.152-.272zM17.754 12.438v-1.6c0-.11.122-.18.213-.12l6.67 3.821a.3.3 0 01.153.262v1.598c0 .111-.122.181-.213.121l-6.671-3.82a.326.326 0 01-.152-.262z"></path>
    <path
      d="M24.648 10.508L16.152 5.64a.325.325 0 00-.304 0l-8.496 4.867a.3.3 0 00-.152.261v1.6c0 .11.122.18.213.12l3.305-1.89 3.518-2.012 1.612-.925a.325.325 0 01.304 0l1.612.925 3.518 2.011 3.305 1.89c.091.051.213-.01.213-.12V10.77a.3.3 0 00-.152-.261zM7.352 14.54l1.389-.795c.091-.05.213.01.213.12v7.582c0 .11-.122.181-.213.12l-1.389-.794a.3.3 0 01-.152-.26V14.8a.3.3 0 01.152-.262z"></path>
  </g>
  <title id="svg-7167090c">Beams</title>
</svg>
