<svg width="32" height="32" viewBox="0 0 32 32" fill="none" xmlns="http://www.w3.org/2000/svg">
<g clip-path="url(#clip0_20_10)">
<path fill-rule="evenodd" clip-rule="evenodd" d="M11.8707 12.3399C12.1279 12.1527 15.3094 11.6896 15.6546 11.6101C16.5735 11.3991 18.6375 11.131 19.6145 10.9894C19.948 10.9413 19.7898 10.9288 20.0477 10.8725C21.4901 10.557 26.6502 9.93558 27.2838 9.6468C27.3327 6.75798 27.6219 5.61286 25.1949 6.11412L16.736 7.92663C15.4326 8.20756 9.1834 9.44894 8.25463 9.73629C7.23575 10.0514 6.85544 10.6304 6.8558 11.7887L6.86076 14.6301C7.35282 14.8965 8.07228 15.0669 8.62358 15.2683L12.1822 16.5086C12.8045 16.7061 13.3799 16.9706 13.9209 17.1514C14.7684 17.4348 20.7029 19.4142 21.0066 19.6413C20.8562 19.7778 20.6969 19.785 20.4748 19.8188C20.2619 19.8509 20.0519 19.8648 19.832 19.8901L16.3886 20.4003C13.978 20.7411 2.53407 22.3565 2.42409 22.4766C2.25168 22.7729 2.33363 24.0071 2.32299 24.4628C2.27155 26.6168 3.83747 26.0243 6.48791 25.5437C7.63379 25.3359 8.88965 25.1501 10.0174 24.9868C12.2205 24.6677 14.7826 24.0948 16.881 23.8061L22.1337 22.9437C24.0927 22.493 25.8388 22.9126 25.8431 20.6053L25.8335 17.3072C25.528 17.1097 24.5184 16.7913 24.1129 16.6412C23.5442 16.4309 22.9145 16.2091 22.3948 16.0348C21.1418 15.6138 20.0292 15.2052 18.8794 14.812C18.3161 14.6194 17.6771 14.366 17.1113 14.1777C16.5547 13.9927 15.9129 13.803 15.3673 13.5784C14.5435 13.239 12.5278 12.6654 11.8711 12.3399H11.8707Z" fill="#193F64"/>
<path fill-rule="evenodd" clip-rule="evenodd" d="M30.1762 16.8986C30.1134 16.5517 29.9328 16.3895 29.7991 16.0915C28.352 12.8693 28.0877 14.2626 30.3301 12.2233C30.7686 11.8244 31.906 10.9866 32 10.6475L24.7912 11.726C24.4797 11.6336 18.7805 12.4743 18.077 12.6843L18.5123 12.9046C20.7771 13.6501 29.6195 16.8893 30.1762 16.899V16.8986Z" fill="url(#paint0_linear_20_10)"/>
<path fill-rule="evenodd" clip-rule="evenodd" d="M1.88344 14.7759C1.9214 15.1196 3.43695 17.7917 3.42488 17.9878C3.40679 18.2815 0.178446 20.5949 0 21.0983L3.69131 20.581C4.28909 20.4866 4.9415 20.3782 5.5116 20.2994C8.38057 19.9029 11.1793 19.5685 14.0061 19.0213C13.7141 18.812 10.0143 17.5407 9.73328 17.5421L9.24371 17.3182C6.84232 16.5792 4.29583 15.5874 1.88344 14.7763V14.7759Z" fill="url(#paint1_linear_20_10)"/>
</g>
<defs>
<linearGradient id="paint0_linear_20_10" x1="18.077" y1="13.7731" x2="32" y2="13.7731" gradientUnits="userSpaceOnUse">
<stop stop-color="#193F64"/>
<stop offset="1" stop-color="#197DEA"/>
</linearGradient>
<linearGradient id="paint1_linear_20_10" x1="0" y1="17.9371" x2="14.0061" y2="17.9371" gradientUnits="userSpaceOnUse">
<stop stop-color="#197DEA"/>
<stop offset="1" stop-color="#193F64"/>
</linearGradient>
<clipPath id="clip0_20_10">
<rect width="32" height="20" fill="white" transform="translate(0 6)"/>
</clipPath>
</defs>
</svg>
