<svg xmlns="http://www.w3.org/2000/svg" width="32" height="32" fill="none">
  <path fill="#876929" d="m8.784 5.093-6.48 10.315 6.48 10.318.113-.08-.083-20.532-.03-.021Z" />
  <path fill="#D9A741" d="M16.018 23.872 8.78 25.726V5.093l7.237 1.854v16.925Z" />
  <path fill="#876929"
    d="m29.692 7.69-3.489.577L18.195 0l-3.98 1.743.524.98-2.817 1.126v26.047l4.096 2.05.068-.054-.063-26.775 8.682 13.157L29.692 7.69Z" />
  <path fill="#D9A741" d="m18.195 0 10.666 5.333-4.218 7.652L18.195 0Z" />
  <path fill="#D9A741" d="m29.69 7.69.003 17.412-13.676 6.843-.001-29.732 8.627 15.653L29.691 7.69Z" />
</svg>
