<svg xmlns="http://www.w3.org/2000/svg" width="32" height="32" fill="none">
  <path fill="#E01E5A" fill-rule="evenodd"
    d="M6.746 20.23a3.361 3.361 0 1 1-6.722 0 3.361 3.361 0 0 1 3.36-3.365h3.362v3.364Zm1.678 0a3.358 3.358 0 0 1 3.361-3.365 3.358 3.358 0 0 1 3.361 3.364v8.407A3.358 3.358 0 0 1 11.787 32a3.358 3.358 0 0 1-3.362-3.364V20.23Z"
    clip-rule="evenodd" />
  <path fill="#36C5F0" fill-rule="evenodd"
    d="M11.787 6.728a3.358 3.358 0 0 1-3.361-3.364A3.358 3.358 0 0 1 11.787 0a3.358 3.358 0 0 1 3.361 3.364v3.364h-3.36Zm0 1.704a3.358 3.358 0 0 1 3.361 3.364 3.358 3.358 0 0 1-3.36 3.364H3.36A3.361 3.361 0 0 1 0 11.796a3.361 3.361 0 0 1 3.361-3.364h8.426Z"
    clip-rule="evenodd" />
  <path fill="#2EB67D" fill-rule="evenodd"
    d="M25.252 11.796a3.358 3.358 0 0 1 3.361-3.364 3.358 3.358 0 0 1 3.362 3.364 3.358 3.358 0 0 1-3.362 3.364h-3.36v-3.364Zm-1.678 0a3.358 3.358 0 0 1-3.361 3.364 3.358 3.358 0 0 1-3.361-3.364V3.364A3.358 3.358 0 0 1 20.212 0a3.358 3.358 0 0 1 3.362 3.364v8.432Z"
    clip-rule="evenodd" />
  <path fill="#ECB22E" fill-rule="evenodd"
    d="M20.213 25.272a3.358 3.358 0 0 1 3.361 3.364A3.358 3.358 0 0 1 20.213 32a3.358 3.358 0 0 1-3.361-3.364v-3.364h3.36Zm0-1.679a3.358 3.358 0 0 1-3.361-3.364 3.358 3.358 0 0 1 3.36-3.364h8.427a3.358 3.358 0 0 1 3.36 3.364 3.358 3.358 0 0 1-3.36 3.364h-8.426Z"
    clip-rule="evenodd" />
</svg>
