<svg xmlns="http://www.w3.org/2000/svg" width="32" height="32" fill="none">
  <path fill="#53ACE9"
    d="M21.034 19.278V11.75c0-.17.134-.309.3-.309h9.769c.495 0 .897.415.897.927v9.418c0 .511-.402.926-.897.926H29.07c-.313 0-.636.058-.876.265-.975.84-.131 2.11.138 2.63.24.463-.075.463-.3.27l-3.534-3.026a.733.733 0 0 0-.477-.177h-6.806c-.495 0-.897-.415-.897-.927v-1.08c0-.086.067-.155.15-.155h3.37c.66 0 1.196-.553 1.196-1.235Z" />
  <path fill="#53ACE9"
    d="M0 18.583V7.08C0 6.484.469 6 1.047 6h18.08c.577 0 1.046.484 1.046 1.081v11.502c0 .597-.469 1.08-1.047 1.08H10.22a.73.73 0 0 0-.468.17c-1.534 1.27-4.353 3.57-4.81 3.807-.48.247-.4-.052-.3-.232 1.253-1.689.665-2.915.024-3.501-.197-.18-.462-.243-.725-.243H1.047C.469 19.664 0 19.18 0 18.583Z" />
</svg>
