<svg xmlns="http://www.w3.org/2000/svg" width="56" height="56" fill="none"> <style type="text/css"> .logo0{fill:#6BB17B;} .logo1{fill:#FFFFFF;} </style> <g id="Groupe_1"> <path id="Tracé_1" class="logo0" d="M36.1,4.8H19.6v0c-0.5-0.1-1.1-0.1-1.6-0.1c-2.2,0-4.4,0.4-6.5,1.3c-2,0.9-3.9,2.2-5.3,3.9 c-1.5,1.7-2.5,3.7-3,6C3.1,16.5,3,17.3,3,18c0,2,0.4,4,1.2,5.8c1,2.2,2,4.3,3.3,6.3l1.7,3.5l9.6,15.6l2.1,3.5l3-3.4 c2.9-3.7,5.2-7.8,6.8-12.2h5.2c8.9,0.1,16.1-7.1,16.2-16c0.1-8.9-7.1-16.1-16-16.2C36.2,4.8,36.2,4.8,36.1,4.8L36.1,4.8z M6.9,18.3c0-0.5,0-1,0.2-1.4c0.4-1.6,1.2-3.1,2.3-4.3c1.1-1.2,2.5-2.2,4.1-2.8c1.5-0.6,3-0.9,4.6-0.9c1.6-0.1,3.1,0.5,4.3,1.5 c1.1,1,1.8,2.4,1.7,3.9c0,0.5-0.1,1-0.2,1.5c-0.4,1.7-1.2,3.3-2.4,4.6c-1.3,1.5-2.8,2.8-4.4,3.9c-1.7,1.2-3.8,2.5-6.4,3.9 C8.2,24.1,6.9,20.8,6.9,18.3z M36.1,32.8h-7.9V33L28,33c-1.5,4.5-3.6,8.7-6.2,12.6L13,31.4c2.3-1.3,4.6-2.8,6.8-4.4 c1.8-1.3,3.5-2.9,4.9-4.6c2-2.4,3.1-5.5,3.1-8.6c0-1.7-0.4-3.3-1.2-4.7c0,0-0.1-0.1-0.1-0.1h9.7C42.7,9,48,14.3,48,20.9 S42.7,32.8,36.1,32.8L36.1,32.8z"></path> </g> </svg>