<svg xmlns="http://www.w3.org/2000/svg" width="32" height="32" fill="none">
  <mask id="a" width="32" height="29" x="0" y="2" maskUnits="userSpaceOnUse"
    style="mask-type:luminance">
    <path fill="#fff" d="M32 2H0v28.61h32V2Z" />
  </mask>
  <g fill="#000" mask="url(#a)">
    <path
      d="M31.446 28.375a4.382 4.382 0 0 0 .119-4.027 2.403 2.403 0 0 0-.14-.264l-4.252-7.948h-4.35l4.449 8.33a1.591 1.591 0 0 1 0 1.59 1.548 1.548 0 0 1-1.319.743H20.88a4.824 4.824 0 0 1-.71 2.19 4.886 4.886 0 0 1-1.648 1.621h9.324a4.304 4.304 0 0 0 1.775-.514 4.19 4.19 0 0 0 1.824-1.721ZM7.602 10.936h4.35l2.167-3.991a2.15 2.15 0 0 1 .795-.835 2.178 2.178 0 0 1 2.233 0c.337.202.612.49.795.835l2.105 3.991h4.35L21.31 5.16a5.977 5.977 0 0 0-2.213-2.309 6.06 6.06 0 0 0-6.197 0 5.976 5.976 0 0 0-2.212 2.31l-3.086 5.775ZM11.11 15.442a4.76 4.76 0 0 1 .682-2.186 4.82 4.82 0 0 1 1.626-1.625H5v3.811h6.11Z" />
    <path
      d="M11.805 15.72v10.413h1.978a1.9 1.9 0 0 0 1.138-.394 1.866 1.866 0 0 0 .728-1.46v-6.248a2.562 2.562 0 0 1 .757-1.809 2.616 2.616 0 0 1 1.825-.76h8.804v-3.831H15.93a4.154 4.154 0 0 0-2.918 1.2 4.068 4.068 0 0 0-1.207 2.889Z" />
    <path
      d="M.433 24.348c-.13.277-.234.565-.309.861a4.402 4.402 0 0 0 .428 3.173 4.19 4.19 0 0 0 1.824 1.714 4.303 4.303 0 0 0 1.775.514H16a4.231 4.231 0 0 0 2.976-1.22 4.143 4.143 0 0 0 1.233-2.945V16.129h-2.006a1.91 1.91 0 0 0-1.308.563 1.87 1.87 0 0 0-.544 1.304v6.248a2.548 2.548 0 0 1-.761 1.807 2.603 2.603 0 0 1-1.828.748H6.08a1.549 1.549 0 0 1-1.319-.743 1.605 1.605 0 0 1 0-1.597l4.448-8.33H4.824l-4.25 7.949c-.05.097-.099.18-.141.27Z" />
  </g>
</svg>
