<?xml version="1.0" encoding="UTF-8"?>
<svg xmlns="http://www.w3.org/2000/svg" xmlns:xlink="http://www.w3.org/1999/xlink" width="32px" height="32px" viewBox="0 0 32 32" version="1.1">
<defs>
<linearGradient id="linear0" gradientUnits="userSpaceOnUse" x1="0" y1="0" x2="0" y2="1" gradientTransform="matrix(28.710938,0,0,32,1.644531,0)">
<stop offset="0" style="stop-color:rgb(31.372549%,67.843137%,100%);stop-opacity:1;"/>
<stop offset="1" style="stop-color:rgb(47.058824%,46.666667%,98.823529%);stop-opacity:1;"/>
</linearGradient>
</defs>
<g id="surface1">
<path style=" stroke:none;fill-rule:nonzero;fill:url(#linear0);" d="M 30.355469 4.785156 C 30.355469 6.398438 29.628906 7.832031 28.527344 8.699219 L 17.816406 18.261719 C 17.617188 18.433594 17.359375 18.160156 17.503906 17.929688 L 21.433594 10.0625 C 21.542969 9.84375 21.398438 9.574219 21.171875 9.574219 L 5.9375 9.574219 C 3.578125 9.574219 1.644531 7.417969 1.644531 4.785156 C 1.644531 2.152344 3.578125 0 5.9375 0 L 26.0625 0 C 28.421875 0 30.355469 2.152344 30.355469 4.785156 Z M 5.9375 32 L 26.0625 32 C 28.421875 32 30.355469 29.847656 30.355469 27.214844 C 30.355469 24.582031 28.421875 22.425781 26.0625 22.425781 L 10.828125 22.425781 C 10.601562 22.425781 10.457031 22.15625 10.566406 21.9375 L 14.496094 14.070312 C 14.640625 13.839844 14.382812 13.566406 14.183594 13.738281 L 3.472656 23.300781 C 2.371094 24.167969 1.644531 25.601562 1.644531 27.214844 C 1.644531 29.847656 3.578125 32 5.9375 32 Z M 5.9375 32 "/>
</g>
</svg>
