<?xml version="1.0" encoding="utf-8"?>
<!-- Generator: Adobe Illustrator 19.2.1, SVG Export Plug-In . SVG Version: 6.00 Build 0)  -->
<svg version="1.1" id="Layer_1" xmlns="http://www.w3.org/2000/svg" xmlns:xlink="http://www.w3.org/1999/xlink" x="0px" y="0px"
	 viewBox="0 0 1011.8 466.8" style="enable-background:new 0 0 1011.8 466.8;" xml:space="preserve">
<style type="text/css">
	.st0{fill:#212123;}
</style>
<g>
	<path class="st0" d="M896.7,147.9c26.5-26.5,55.9-18.7,55.9,7c0,25.1-30.1,52.2-66.4,73.2c-3.5,2-7.7,4.3-11.9,6.4
		c-1.4-6.3-2.2-13.3-2.2-21.1C872.1,191.9,881.2,163.4,896.7,147.9 M755.3,418.5c-35.2,35.2-80.2-9.7-27.7-62.2
		c11.9-11.9,31.4-25,51.7-36.9C790.9,348.1,781.7,392,755.3,418.5 M531,277.5c-27,0-44.5-32.4-39.1-72.4c5.3-40,31.5-72.4,58.5-72.4
		c25,0,41.8,27.8,39.9,63.7c-0.7,5.2-1.3,10.2-1.8,15C581.4,248.4,556.5,277.5,531,277.5 M174.4,264.2c-8.8,8.8-19.6,13.5-30.5,13.5
		c-10.2,0-19-4.6-26.3-11.9c-25-25-22.8-86.3,9.3-118.5c9.1-9.1,20.1-14.4,31.4-14.4c10.1,0,19,4.5,26.3,11.8
		C208.1,168.2,209.5,229.1,174.4,264.2 M1010.4,277.3c0,0-10-14-13.1-18c-2.1-2.6-4.7-5.8-11.6-1.1c-15.2,10.2-32.3,19.5-53.4,19.5
		c-16.1,0-30.2-4.1-40.7-13c4.4-2,9-4.2,13.7-6.7c24.9-13.5,45.7-30.6,55.7-40.6c48.5-48.5,33.3-120.8-25.8-120.8
		c-55.8,0-99.9,54.4-99.9,114.8c0,9.1,1.1,22.1,5,35.9c-3.3,1.6-25.4,12.3-51.9,26.9c-24.9-18.7-63.8-10.3-63.8-10.3l0,0
		c36.1-51.2,90.4-131.2,95-137.8c3.3-4.7,2.8-9.4-0.4-16.8c-4.1-8.9-8.2-10.5-13.8-10.5H692.6c-3.7,0-6.6,1.7-7.7,5.9
		c-1,4.1-3.4,18.4-3.8,23.3c-0.5,4.9,4.1,7.9,8.9,7.9h81.7l-73.9,105.7c-0.5,0.4-1,0.9-1.4,1.6c-10.7,15.5-27.2,37.2-47,37.2
		c-12.3,0-27.5-8.8-27.5-37.6c0-28.2,11.4-87.8,19.7-134.2c0.9-5-0.8-9.9-8.8-9.9h-20c-4.6,0-7.2,2.8-7.9,6.7
		c-1.2,7.1-2.4,14.1-3.6,20.8c-9.9-18.9-25.7-29.6-48.6-29.6c-21.2,0-41.9,7.9-58.8,24.7c-42.2,42.2-34.2,111-70.6,147.4
		c-15.7,15.7-33.5,10.9-33.5-20c0-35.3,13.5-74.6,29-111.9c2.7-6.6-0.2-12.1-3.1-16.4c-4.1-6-5.7-9.2-13.1-9.2
		c-11.5,0-29.9,7.3-66.7,7.3c-7.8,0-15.3-0.3-22-0.8c0.4-5.5,0.5-9.2,0.6-10.6c0.2-5.2-1.6-8.5-7.1-8.5h-18.8
		c-6.8,0-8.5,3.2-9.3,8.5c-3.2,22.5-9.3,105.1-50.7,146.5c-4.8,4.8-7.7,6.3-7.7,6.3c10.3-20.2,15.9-46.7,15.9-67.7
		c0-59.1-35-95.7-78.9-95.7c-13.4,0-27.6,4.3-40.9,12.6c6.2-36,11.9-69.7,13.9-81.1c1.7-9.6-1.8-14.6-4.3-18.6
		c-4.2-6.5-7.9-9.4-13.5-9.4H48.3c-3.7,0-6.5,2.6-7.4,6.7c-1.1,4.8-3.4,17.4-3.7,23.2c-0.2,5.1,3.3,7,7.4,7H92
		c-7.6,46.5-22,136.6-26.4,159.2c-5.5,28.8-26,64.1-60.5,76.6c-4.3,1.6-6.1,5.5-4.5,10.1s7.5,16.6,9.3,19.7c1.8,3.2,5.8,5.3,9.6,4
		c17.9-6.3,34.3-16.5,47.3-29.4c3.2-3.2,6.3-6.8,9.3-10.7c15.5,34.8,47,47.5,79.3,47.5c36.5,0,75.9-12.7,103.5-40.4
		c32.3-32.2,45.8-85.6,51.5-123.4c8,1.1,17.1,2,25.8,2c22.2,0,40.8-4.7,40.8-4.7s-22.4,59.4-22.4,103.2c0,49.4,23.6,63.4,49.8,63.4
		c26.9,0,45.8-20.2,59.3-45.2c3.5,7.8,8.7,17.1,15.8,24.2c12.2,12.2,27.3,21,49.1,21c24.9,0,46.3-14.4,61.5-36.5
		c2.7,9.3,6.9,17.1,12.6,22.8c7.7,7.7,21.8,13.7,39.5,13.7c30.4,0,48-22.8,95.3-22.8c6,0,11.4,0.9,16.3,2.6
		c-21.7,13.2-42.3,27.4-54.9,40c-39,39-40.8,90.3-15.2,115.9c31,31,75.2,15.5,102.8-12.1c32.3-32.3,41.7-93.4,23-135.2
		c22.6-11.9,41.5-20.7,46-22.8c14.1,19.3,37.5,34.4,76.1,34.4c27.6,0,55.4-9.8,77.1-26.2C1012.1,285.5,1012.8,280.7,1010.4,277.3"/>
</g>
</svg>
