<svg xmlns="http://www.w3.org/2000/svg" viewBox="0 0 253.96 50.05"><defs><style>.cls-1{fill:#42dc77;}.cls-2{fill:#585858;}.cls-3{fill:#515151;}.cls-4{fill:#4e4e4e;}</style></defs><g id="Layer_2" data-name="Layer 2"><g id="Layer_1-2" data-name="Layer 1"><g id="_4nRMeh.tif" data-name="4nRMeh.tif"><path class="cls-1" d="M254,3.87c-1.32.43-1.4,1.77-1.9,2.74Q242.19,26,232.39,45.49c-.52,1-1.11,2-1.56,2.88a4,4,0,0,1-3.63.11c7.63-14.93,15.22-29.82,23-45.08H222.38A2.4,2.4,0,0,1,222.3,0H254Z"/><path class="cls-2" d="M10.87,50.05c-.71-1.86-.29-3.8-.35-5.71s0-3.83,0-5.84c-2-1.59-4.18-2.94-5.86-4.9C-2.52,25.22-1.28,13.11,7.52,6c9.53-7.68,25.11-8.08,35-.89,6.86,5,9.78,13,7.54,20.88-.27.95-.21,2.16-1.52,2.48-1.14-.68-.48-1.47-.26-2.25,2.28-8-.42-15.34-7.43-20.07C32.15.29,18.41.32,9.66,6.25a17.62,17.62,0,0,0-.75,28.91c1,.76,2.09,1.46,3.26,2.27v9.51c2.93-.84,5-2.66,7.23-4.18,2.69-1.85,5.37-3.41,8.79-2.95l0,0L28,41.31c-6.66.49-11,5.14-15.85,8.74Z"/><path class="cls-3" d="M73.73,50.05c-1.28-1.51-3.46-.77-5.07-2.18-.45-.72,0-1.49.56-2.43,3.64,1.36,7.26,2.15,11,1.39,2.87-.58,5.29-1.82,5.77-5.12s-1.08-5.52-4-6.91-5.64-2.53-8.35-4c-3.9-2.12-5.27-4.85-4.61-8.59.59-3.43,3.26-5.66,7.45-6.4,3.88-.68,7.35.63,10.76,1.9.84,1-.27,1.58-.17,2.42A4.81,4.81,0,0,1,86,20a19,19,0,0,0-8.75-1.46c-2.56.25-4.57,1.36-5.17,4a5,5,0,0,0,2.72,5.64c2.12,1.22,4.39,2.17,6.6,3.23,2.42,1.15,4.78,2.42,6.43,4.61A8.1,8.1,0,0,1,85,47.82a46.6,46.6,0,0,1-5.46,2.23Z"/><path class="cls-3" d="M159.67,50.05c-1.67-1.45-4.08-.81-5.94-2.26-.49-.71.29-1.39.28-2.34a6.4,6.4,0,0,1,1.41.21,17.06,17.06,0,0,0,11,.82c2.68-.72,4.59-2.29,4.85-5.26A5.94,5.94,0,0,0,167.65,35c-2.57-1.28-5.22-2.42-7.8-3.69-4.64-2.3-6.51-5.39-5.7-9.26s4.23-6.33,9.14-6.52c3.28-.12,6.28,1,9.13,2.14.6.92-.13,1.5,0,2.3a3.91,3.91,0,0,1-1.11,0,19.37,19.37,0,0,0-9.08-1.48c-2.42.27-4.35,1.31-5,3.81A5,5,0,0,0,159.76,28c1.91,1.15,4,2,6,3,1.52.78,3,1.58,4.47,2.48,3,1.85,4.53,4.46,4.09,8s-2.66,5.66-5.78,7.07c-1.42.64-3.15.31-4.39,1.47Z"/><path class="cls-4" d="M144.24,48.74a3.66,3.66,0,0,1-3.05-.24V31.75a25.65,25.65,0,0,0-.52-6.05c-1.61-6.67-8.1-9.4-13.86-5.69a48.51,48.51,0,0,0-4.35,3.5v25c-.79.72-1.65.59-2.73,0,0-5.6,0-11.25,0-16.89a36.71,36.71,0,0,0-.37-5.75,8.73,8.73,0,0,0-13-6.34,16.6,16.6,0,0,0-5.29,4.6V48.31c-1,.95-1.86.52-2.89.66V16.82a2.34,2.34,0,0,1,2.45-.05c.06,1.11.12,2.27.21,3.94,3.17-2.64,6.21-5,10.42-4.94s7.18,2.3,9.52,6.05a21.75,21.75,0,0,1,5.95-4.67c7.81-3.74,15-.31,17,8.12a13.18,13.18,0,0,1,.48,2.84C144.26,34.93,144.24,41.76,144.24,48.74Z"/><path class="cls-1" d="M182.56,3.45c-.89-1.24-1-2-.37-3.05h31.69a4.08,4.08,0,0,1-.39,3.78Q202.6,25.72,191.7,47.27a7.78,7.78,0,0,1-.86,1.19,4.9,4.9,0,0,1-3.51.15c7.7-15,15.3-29.92,23.08-45.16Z"/><path class="cls-2" d="M28.19,39.81c1.1-.84,0-1.46-.28-2.09-1.41-3.46-.75-6.66,1.86-8.65s5.14-1.74,8.31.92c4.1-2.87,7.15-2.89,9.58-.06s2.17,6.87-.9,10.11a66.16,66.16,0,0,1-8.63,7.45c-2.75-2.37-5.39-4.67-8.08-6.92-.51-.42-.8-1.66-1.89-.79Zm10-5.78c-.42-.78-.71-1.34-1-1.9-1-1.72-2.33-2.81-4.4-2.44a4.55,4.55,0,0,0-3.58,3.68,5.21,5.21,0,0,0,1.7,5.22c2.34,2.27,4.85,4.37,7.36,6.6,2.92-2.61,6.08-4.51,8.16-7.52A5.25,5.25,0,0,0,45,30.11c-2.26-1.26-4.21-.34-6.06,2.84C38.77,33.22,38.56,33.46,38.15,34Z"/></g></g></g></svg>