<svg xmlns="http://www.w3.org/2000/svg" viewBox="0 0 304.79 118.78"><defs><style>.cls-1{fill:#995b80;}.cls-2{fill:#7b3f65;}.cls-3{fill:#c17b9d;}</style></defs><g id="Layer_2" data-name="Layer 2"><g id="Layer_1-2" data-name="Layer 1"><g id="H7Fn78"><path d="M167.62,30.92c1.1-.93,4.8-1,6.27,0,0,.9.09,1.85.13,2.79a8.33,8.33,0,0,1,6.92-3.92c3.11-.05,5.06,1.77,6.34,4.22,1,0,1.06-.67,1.35-1.1a7.21,7.21,0,0,1,8.25-2.8,6.31,6.31,0,0,1,4.64,5.49,26.33,26.33,0,0,1,.34,4.42c0,5.57,0,11.13,0,16.7a2.4,2.4,0,0,1-.61,2.15,26.47,26.47,0,0,1-6.09-.12,3.93,3.93,0,0,1-.28-2.11c0-5.71,0-11.43-.14-17.15,0-2-1.21-3.19-2.78-3.25a3.61,3.61,0,0,0-3.56,3.16,48.13,48.13,0,0,0-.18,6.58c0,3.62,0,7.25,0,10.88a2.38,2.38,0,0,1-.64,2,34.36,34.36,0,0,1-5.91-.06,2.51,2.51,0,0,1-.47-2q0-7.74,0-15.48a8.64,8.64,0,0,0-.28-2.73,3.16,3.16,0,0,0-3.2-2.35,3.38,3.38,0,0,0-3,3,25,25,0,0,0-.18,3.67c0,4.85,0,9.7.05,14.56a10.92,10.92,0,0,1-.18,1.25c-2.19.51-4.37.23-6.72.2Zm-6.34,16.29a62,62,0,0,0,0-8.73c-.31-4.39-1.16-7-6.64-8.62a14.17,14.17,0,0,0-6.94.07c-4.2.85-6.78,3.4-7.69,7.93a10.27,10.27,0,0,0,6.09.72c1.39-3.24,3.2-4.29,5.68-3.45,2.1.71,3,2.8,2.25,5.42a1.52,1.52,0,0,1-1.24.49,20.85,20.85,0,0,0-6,.93c-3.51.81-6.07,2.7-7.21,6.28-1.26,4,.15,8.31,3.36,10a10.11,10.11,0,0,0,11-1.59c.41-.41.67-1.07,1.45-1,1,1.09,1.62,2.48,3.22,3.29,1.87-1.07,3.24-2.84,5.09-4.47C161.34,52.42,161.1,49.94,161.28,47.21Zm-7.93,4.28c-.83,2.09-3,3.21-4.75,2.5-1.92-.8-2.79-3.44-1.91-5.65a5.15,5.15,0,0,1,3.72-3.08,22.18,22.18,0,0,1,3.68-.36A12.47,12.47,0,0,1,153.35,51.49Zm71.55,6.9c.47.45,1,.73,1.49.32a22.42,22.42,0,0,0,4.19-4.06c-2.85-5.76-2.12-4.11-2.23-10.49,0-2.55,0-5.11-.11-7.66a6.2,6.2,0,0,0-3.12-5.28,13.09,13.09,0,0,0-10-1.36c-4.29.95-7,3.45-7.9,8,1.84,1,3.85.87,6,.87,1.23-2.86,3-4.81,6.45-3.38,1.55.65,2.1,2.41,1.73,5.07a1.61,1.61,0,0,1-1.47.65,21.15,21.15,0,0,0-7.47,1.44c-5.31,1.84-7,6.95-5.52,11.8,1.49,5,6.85,5.66,11.15,4.31,1.76-.55,3-1.83,4.44-3.15A17.42,17.42,0,0,0,224.9,58.39Zm-4.73-6.16a3.9,3.9,0,0,1-4,1.94,3.19,3.19,0,0,1-2.48-3.1c-.19-1.84,0-3.65,1.72-4.77a7.42,7.42,0,0,1,6-1.33A10.93,10.93,0,0,1,220.17,52.23Zm82.74,6.69c1.4.06,1.9-.57,1.88-1.93-.05-4.29,0-8.58,0-12.87a40.13,40.13,0,0,0-.5-8.54c-.6-2.73-2.4-5.16-4.61-5.54-3.11-.53-6-.36-7.93,2.74-.27.45-.47,1-1.3,1V31c-1.59-1.16-5.29-1.06-6.6.14v1q0,12.57,0,25.13a1.6,1.6,0,0,0,.84,1.54h5.52a2.67,2.67,0,0,0,.55-2.11c0-4.14,0-8.27,0-12.41a16.43,16.43,0,0,1,1-6,3.4,3.4,0,0,1,3.17-2.2,3.23,3.23,0,0,1,2.66,2.77,25.71,25.71,0,0,1,.34,4.11c0,4.6,0,9.2,0,13.79a2.79,2.79,0,0,0,.57,2.15C299.86,58.91,301.39,58.87,302.91,58.92Zm-44.55-6c1.63,3.57,4.34,6,8.25,6.5a10.42,10.42,0,0,0,10.63-5.15,17.09,17.09,0,0,0,2.35-7,18.73,18.73,0,0,0-2.45-12.63c-4.09-6.68-14.39-6.51-18.16.42a17.61,17.61,0,0,0-2.14,9.38A18.25,18.25,0,0,0,258.36,52.94Zm13-1a3.32,3.32,0,0,1-3.43,2.3A3.21,3.21,0,0,1,265,51.71a27.44,27.44,0,0,1-.21-13.91c.47-2,1.73-2.68,3.76-2.64,1.82,0,2.49.61,3.07,2.76a37.06,37.06,0,0,1,.9,6.78C272.35,47.07,272.39,49.6,271.37,51.93ZM234.89,33.77c-.17,1.37.45,2,1.85,1.93,1.94-.06,3.88,0,5.82,0,.54,0,1.15-.14,1.54.46a2.42,2.42,0,0,1-.66,1.49c-2.81,4.18-5.6,8.37-8.42,12.55-1.66,2.47-.92,5.12-.87,8.26a19.33,19.33,0,0,1,19.17-.25c1.46-1.25.71-2.73.88-4a2.35,2.35,0,0,0-1.32-2.4,17.73,17.73,0,0,0-3.2-1.43c-1.85-.58-3.81-.46-5.61-.87-.31-.73.19-1,.47-1.46q4-5.92,8.07-11.86c1.34-2,1.4-4.71.06-6h-17C234.36,31.19,235,32.57,234.89,33.77ZM198.6,70a12.17,12.17,0,0,0-7.22-.1,7.05,7.05,0,0,0-5.16,6.21c-.44,3.32.19,6.41,3.49,8.29a40,40,0,0,0,6.37,2.51c3,1.09,4.47,3.19,4.14,6.43A5.16,5.16,0,0,1,195,97.85c-2.5.1-5-1-5.52-3.78a9.44,9.44,0,0,0-.74-3.28c-1,.09-1.95-.21-3,.32a12.7,12.7,0,0,0,.94,5.47,5.84,5.84,0,0,0,3.38,3.35,11.83,11.83,0,0,0,6.46.66,8.08,8.08,0,0,0,5.76-3.08c2.9-4.07,2.68-11.2-3.87-13.35a25.63,25.63,0,0,1-6.24-2.42c-3.24-2.09-3.35-7.22-.07-8.77,2.9-1.38,7-.71,7.4,3.51a6.28,6.28,0,0,0,.23,1,3.21,3.21,0,0,0,3.33-.17C202.46,72.8,201.3,70.83,198.6,70ZM141.08,98.17c1.88,2.23,4.48,2.56,7.2,2.52,4.61-.06,8.35-2.34,9-7.48A7.88,7.88,0,0,0,153.59,85,28.14,28.14,0,0,0,148,82.91c-2.88-1-5-2.71-4.85-5.8.14-2.22,1.26-4.11,2.95-4.5,3.32-.77,5.15,0,6.43,2.53.41.82.1,1.73.64,2.58a8.88,8.88,0,0,0,2.91,0,6.71,6.71,0,0,0-4.46-7.76,13.46,13.46,0,0,0-5-.41c-3.86.3-6.29,2.55-7.09,6.43s.7,7.19,4,8.77a50,50,0,0,0,5.83,2.23c3,1,4.36,3,4.23,6.11-.11,2.42-2.07,4.33-4.94,4.79A5.56,5.56,0,0,1,143.09,95c-.7-1.31,0-2.76-.72-4a10,10,0,0,0-3.11-.09C139,93.62,139.34,96.11,141.08,98.17Zm35.32-4.94L167.18,70a13.76,13.76,0,0,0-5,0v30a5,5,0,0,0,4,0V77.43l.38-.06,8.9,22.48c1,.63,2.64.77,4.95.39.74-1.11.79-29,0-30.36A8.77,8.77,0,0,0,177,70V93.12Zm.87-22.59a6.45,6.45,0,0,1,2.95-.21V99.66a22.79,22.79,0,0,1-4.19.14L166.65,76c-.52-.26-.86-.1-1.24.37V99.46c-.81.54-1.54.3-2.41.25V70.58a6.89,6.89,0,0,1,3-.19c1.37.1,1.34,1.46,1.69,2.3q4.08,10,8,20a9.11,9.11,0,0,0,1.12,2.43l.53,0Zm-.53,24.48a9.11,9.11,0,0,1-1.12-2.43q-3.88-10-8-20c-.35-.84-.32-2.2-1.69-2.3a6.89,6.89,0,0,0-3,.19V99.71c.87.05,1.6.29,2.41-.25V76.34c.38-.47.72-.63,1.24-.37L176,99.8a22.79,22.79,0,0,0,4.19-.14V70.43a6.45,6.45,0,0,0-2.95.21V95.09Z"/><path class="cls-1" d="M45.79,107.45,33.55,104,22,90.82l14.48-.4,9.34,17m-28.31-8.7-6.89-1.93L4.08,89.39,12,88.09l5.49,10.66"/><path class="cls-2" d="M0,88.46l7,1.43,1-1.8v-61L7,25.91l-7,4V88.46"/><path class="cls-3" d="M34.24,32.28,7,25.91v64l4.08-.38,6.36,9.24,4.91-10.29,11.85-1.1V32.28"/><path class="cls-2" d="M15.73,91.75,27.8,94.19l.79-1.88v-75l-.79-1.7L15.73,21.76v70"/><path class="cls-3" d="M96.66,37.75,27.8,15.64V94.19l8-1,10,14.29,7.93-16.6,42.94-5.52V37.75"/><path class="cls-1" d="M84.21,118.78l-17.4-4.87L50.37,95.15l21.31-.22,12.53,23.85"/><path class="cls-2" d="M41.49,96.76l17.75,3.44L60.62,99V1.91L59.24,0,41.49,8.87V96.76"/><path class="cls-3" d="M118.55,29.65,59.24,0V100.2l10.47-2.1,14.5,20.68L96.66,92.7h0l21.89-4.38V29.65"/></g></g></g></svg>