<svg xmlns="http://www.w3.org/2000/svg" fill="none" viewBox="0 0 496 129" height="129" width="496">
<path fill="#55555A" d="M0 114.963L7.78686 105.654C13.1847 110.094 18.8324 112.917 25.6796 112.917C31.0775 112.917 34.3262 110.782 34.3262 107.281V107.111C34.3262 103.779 32.267 102.073 22.261 99.5086C10.1859 96.4258 2.39903 93.0935 2.39903 81.2211V81.0515C2.39903 70.1968 11.1255 63.0234 23.3706 63.0234C32.0971 63.0234 39.5441 65.7571 45.6216 70.6258L38.7744 80.5327C33.4665 76.8613 28.2486 74.6364 23.2006 74.6364C18.1527 74.6364 15.4938 76.9411 15.4938 79.8443V80.0139C15.4938 83.9448 18.0627 85.2218 28.4185 87.8756C40.5736 91.0383 47.4209 95.3981 47.4209 105.814V105.984C47.4209 117.856 38.3545 124.52 25.4297 124.52C16.3434 124.53 7.1871 121.378 0 114.963Z"></path>
<path fill="#55555A" d="M55.5076 63.8814H79.9878C94.282 63.8814 102.929 72.3418 102.929 84.5534V84.723C102.929 98.5608 92.1429 105.744 78.7083 105.744H68.6923V123.682H55.5076V63.8814ZM79.1281 94.0313C85.7155 94.0313 89.5639 90.1005 89.5639 84.9724V84.8028C89.5639 78.9065 85.4556 75.7439 78.8682 75.7439H68.6923V94.0313H79.1281Z"></path>
<path fill="#55555A" d="M121.581 63.4524H133.736L159.416 123.682H145.631L140.153 110.274H114.824L109.346 123.682H95.9013L121.581 63.4524ZM135.445 98.6506L127.479 79.2557L119.522 98.6506H135.445Z"></path>
<path fill="#55555A" d="M165.653 63.8814H193.042C200.659 63.8814 206.567 66.0165 210.505 69.9473C213.844 73.2796 215.643 77.9787 215.643 83.6155V83.7852C215.643 93.4427 210.425 99.5086 202.798 102.322L217.432 123.682H202.029L189.184 104.547H178.828V123.682H165.643V63.8814H165.653ZM192.183 92.9239C198.6 92.9239 202.278 89.5019 202.278 84.4636V84.294C202.278 78.6571 198.34 75.7538 191.923 75.7538H178.828V92.9239H192.183Z"></path>
<path fill="#55555A" d="M285.715 63.8814H307.456C320.641 63.8814 329.717 70.6258 329.717 82.1689V82.3385C329.717 94.8993 318.841 101.384 306.346 101.384H290.173V123.682H285.725V63.8814H285.715ZM306.606 97.2838C317.732 97.2838 325.269 91.4773 325.269 82.5879V82.4183C325.269 72.9304 317.912 67.9819 307.126 67.9819H290.183V97.2838H306.606Z"></path>
<path fill="#55555A" d="M400.998 114.963L403.907 111.63C410.494 117.696 416.572 120.52 425.388 120.52C434.375 120.52 440.542 115.481 440.542 108.647V108.478C440.542 102.152 437.204 98.481 423.589 95.7473C409.215 92.8441 403.387 87.9754 403.387 78.9165V78.7469C403.387 69.8575 411.524 63.0234 422.65 63.0234C431.386 63.0234 437.114 65.4179 443.191 70.2865L440.362 73.7884C434.715 68.9197 429.067 67.0441 422.47 67.0441C413.653 67.0441 407.836 72.0824 407.836 78.3179V78.4875C407.836 84.8128 411.084 88.6538 425.298 91.5571C439.163 94.3805 444.991 99.329 444.991 108.049V108.218C444.991 117.876 436.684 124.54 425.129 124.54C415.552 124.53 408.195 121.378 400.998 114.963Z"></path>
<path fill="#55555A" d="M470.67 67.9819H449.779V63.8814H496V67.9819H475.118V123.682H470.67V67.9819Z"></path>
<path fill="#55555A" d="M237.824 89.0329L258.566 63.8715H274.659L250.329 92.2854L276.419 123.682H259.465L237.834 96.9845V123.682H224.649V63.8814H237.834V89.0329H237.824Z"></path>
<path fill="#FA6423" d="M387.314 50.2531C380.637 55.2814 379.347 64.1508 379.147 70.1369C368.601 57.9652 398.679 22.1385 364.493 0C385.654 27.3364 334.385 54.2039 334.385 94.4703C334.385 110.254 344.271 124.161 365.972 128.99C387.264 124.471 397.77 110.254 397.77 94.4703C397.77 70.935 383.096 63.0633 387.314 50.2531ZM366.022 116.09C354.427 116.09 345.031 106.712 345.031 95.1387C345.031 83.5657 354.427 74.1875 366.022 74.1875C377.618 74.1875 387.014 83.5657 387.014 95.1387C387.014 106.712 377.608 116.09 366.022 116.09Z"></path>
</svg>
