<svg xmlns="http://www.w3.org/2000/svg" width="32" height="32" fill="none">
  <circle cx="16" cy="16" r="16" fill="#0B996E" />
  <path fill="#fff"
        d="M12.704 15.985V8.602h4.446c1.502 0 2.494.877 2.494 2.208 0 1.513-1.291 2.663-3.935 3.54-1.803.574-2.613 1.059-2.914 1.634l-.09.001Zm0 7.413v-3.085c0-1.362 1.142-2.693 2.734-3.208 1.413-.484 2.584-.969 3.576-1.482 1.321.787 2.132 2.147 2.132 3.57 0 2.42-2.284 4.205-5.378 4.205h-3.064ZM10 26h6.009C20.576 26 24 23.126 24 19.314c0-2.089-1.051-3.964-2.914-5.175.961-.968 1.412-2.088 1.412-3.45C22.498 7.877 20.485 6 17.451 6H10v20Z" />
</svg>
