<svg xmlns="http://www.w3.org/2000/svg" width="55" height="55" viewBox="0 0 55 55">
    <g>
        <circle fill="#007eff" cx="27.5" cy="27.5" r="27.5"></circle>
        <path fill="#FFFFFF" d="M33.7717476,10.6140347c6.4326973,0,11.5791283,3.8967619,11.5791283,9.0924435v3.4699192l0,0
            c-0.0078773,6.2628918-3.7092514,9.3943386-11.1041298,9.3943386H18.858181l0,0
            c-0.3499393,3.5470848,0.761631,5.3206253,3.3347092,5.3206253c1.5490685,0,6.567215,0.3138542,10.2923126,0
            c1.6416512-0.1383133,3.7858849-0.5712852,6.4327011-1.2989197l1.286541,6.4946022
            c-2.5730782,0.8659477-6.8615456,1.2989197-12.8653965,1.2989197c-9.0057755,0-16.7250137-1.2989197-16.7250137-10.3913612
            V20.8182983l0,0c0-5.1956816,3.8596191-10.2042637,11.5788555-10.2042637H33.7717476L33.7717476,10.6140347z
            M34.5436325,16.4035091H23.7367649c-3.6022873,0-5.4034309,1.8583488-5.4034309,5.5750484l0,0v6.968811l2.8229084-2.8356075l0,0
            h12.8331528c4.3777809,0,4.598156-1.6691895,4.6067848-4.7584152l0.0000229-0.7685509
            C38.5962029,18.1981144,37.2453423,16.8043518,34.5436325,16.4035091L34.5436325,16.4035091z"/>
    </g>
</svg>
