<?xml version="1.0" encoding="UTF-8"?>
<svg version="1.1" xmlns="http://www.w3.org/2000/svg" width="204" height="204">
<path d="M0 0 C67.32 0 134.64 0 204 0 C204 67.32 204 134.64 204 204 C136.68 204 69.36 204 0 204 C0 136.68 0 69.36 0 0 Z " fill="#2E7DEB" transform="translate(0,0)"/>
<path d="M0 0 C4.6676199 0.45038438 6.39062041 2.03403677 9.375 5.5625 C10.53515625 6.91408203 10.53515625 6.91408203 11.71875 8.29296875 C12.4715625 9.18628906 13.224375 10.07960938 14 11 C15.28932278 12.46040599 16.58074508 13.91896322 17.875 15.375 C19.58511704 17.31643722 20.95559448 18.91272018 22.1328125 21.2265625 C24.37531559 23.35647129 25.03073331 23.27731875 28.0390625 23.3125 C33.16763771 23.08060641 38.27127146 22.54034096 43.375 22 C50.86535586 21.26074028 58.28431808 20.80670798 65.8125 20.8125 C67.03042236 20.8115332 67.03042236 20.8115332 68.27294922 20.81054688 C73.86401501 20.86401501 73.86401501 20.86401501 75 22 C75.50405048 24.62301998 75.36446838 26.37054593 74.01611328 28.69921875 C72.58419804 30.67951583 71.09039306 32.59276797 69.5625 34.5 C68.44989012 35.93339767 67.33923235 37.36831258 66.23046875 38.8046875 C65.40361572 39.86961426 65.40361572 39.86961426 64.56005859 40.95605469 C62.40072738 43.78515029 60.38501138 46.68756865 58.375 49.625 C55.1757625 54.29273996 51.9567519 58.94361223 48.6875 63.5625 C48.27870605 64.14660645 47.86991211 64.73071289 47.44873047 65.33251953 C41.4845271 73.73049079 41.4845271 73.73049079 36.6832428 74.60214233 C35.35096048 74.66829765 34.0174874 74.71269617 32.68383789 74.73974609 C31.95311066 74.76924347 31.22238342 74.79874084 30.46951294 74.82913208 C28.05394807 74.91806935 25.63935004 74.9746101 23.22265625 75.0234375 C22.39304319 75.04223591 21.56343014 75.06103432 20.70867729 75.08040237 C16.31068007 75.1755208 11.91315762 75.24286924 7.5144043 75.29052734 C3.89249416 75.33481172 0.27816067 75.43189061 -3.34106445 75.57763672 C-32.39741405 76.72276825 -32.39741405 76.72276825 -39.84951782 72.31430054 C-44.2069834 68.27485416 -46.77581031 63.58783129 -49.05807495 58.15380859 C-50.28208072 55.3549934 -51.95001717 53.08610084 -53.83203125 50.69140625 C-55.36441125 48.56966815 -56.89545696 46.44703951 -58.42260742 44.3215332 C-60.77571096 41.05132997 -63.13815378 37.79575602 -65.59375 34.6015625 C-66.69203125 33.15910156 -66.69203125 33.15910156 -67.8125 31.6875 C-68.43769531 30.88699219 -69.06289062 30.08648437 -69.70703125 29.26171875 C-71.22277534 26.61031141 -71.34685299 25.00778487 -71 22 C-69.1210417 20.1210417 -66.00383315 20.82522273 -63.5 20.8125 C-62.78602051 20.80605469 -62.07204102 20.79960938 -61.33642578 20.79296875 C-55.78311708 20.81087904 -50.29979271 21.21501632 -44.7734375 21.73046875 C-42.55169268 21.92147159 -40.32971207 22.10950338 -38.10766602 22.29696655 C-36.62520755 22.43177787 -35.1440724 22.582081 -33.66479492 22.74819946 C-25.30716697 23.96906072 -25.30716697 23.96906072 -17.61889648 21.4284668 C-15.82381152 19.38172765 -14.41489559 17.32134643 -13 15 C-10.71298457 12.45689575 -8.41456397 9.92471598 -6.11328125 7.39453125 C-3.99127508 4.99011391 -1.98279012 2.51988903 0 0 Z " fill="#F4F7FD" transform="translate(100,65)"/>
<path d="M0 0 C-4.43235216 6.36967164 -8.91514348 12.70118336 -13.44677734 19.00048828 C-16.04211835 22.6190225 -18.54937131 26.28180475 -21 30 C-28.19386557 27.96150996 -35.15709165 25.51843632 -42.125 22.8125 C-43.08148438 22.44447266 -44.03796875 22.07644531 -45.0234375 21.69726562 C-47.35024289 20.80144555 -49.67571021 19.90232227 -52 19 C-49.18402195 16.71019925 -46.63959325 15.32636316 -43.21875 14.1328125 C-42.30013184 13.80700195 -41.38151367 13.48119141 -40.43505859 13.14550781 C-39.46648926 12.80874023 -38.49791992 12.47197266 -37.5 12.125 C-31.39845165 9.96079674 -25.32669666 7.80526177 -19.375 5.25 C-3.26684953 -1.63342476 -3.26684953 -1.63342476 0 0 Z " fill="#327FEB" transform="translate(160,99)"/>
<path d="M0 0 C7.2691429 1.82419556 14.09356649 4.10938597 21 7 C23.41472082 7.98437943 25.8307412 8.96442652 28.25 9.9375 C28.88091553 10.19217041 29.51183105 10.44684082 30.16186523 10.70922852 C35.80278615 12.96573974 41.51636139 14.97164793 47.26953125 16.921875 C50 18 50 18 52 20 C50.74509766 20.43699219 50.74509766 20.43699219 49.46484375 20.8828125 C42.16534903 23.45339868 34.95167838 26.15886835 27.80053711 29.11962891 C23.20825853 31 23.20825853 31 21 31 C19.42988307 29.03351304 17.98812439 27.06845039 16.5625 25 C15.914021 24.07441284 15.914021 24.07441284 15.25244141 23.13012695 C13.82788215 21.09158623 12.41389676 19.04594758 11 17 C9.96505843 15.51417336 8.92989996 14.02849777 7.89453125 12.54296875 C6.88732017 11.09163183 5.88079378 9.63981948 4.875 8.1875 C4.38974854 7.48818359 3.90449707 6.78886719 3.40454102 6.06835938 C0 1.11764319 0 1.11764319 0 0 Z " fill="#307EEB" transform="translate(44,98)"/>
<path d="M0 0 C4.04995752 4.04995752 8.01785749 8.13970512 11.9375 12.3125 C12.53240234 12.93833984 13.12730469 13.56417969 13.74023438 14.20898438 C17.83876987 18.5762763 21.50353849 23.13832227 25 28 C3.8647541 37 3.8647541 37 0 37 C0 24.79 0 12.58 0 0 Z " fill="#317EEB" transform="translate(104,77)"/>
<path d="M0 0 C0.66 0 1.32 0 2 0 C2 11.88 2 23.76 2 36 C-11.5 32.625 -11.5 32.625 -17.25 29.8125 C-18.89742188 29.01779297 -18.89742188 29.01779297 -20.578125 28.20703125 C-21.37734375 27.80871094 -22.1765625 27.41039063 -23 27 C-19.60690407 22.99788685 -16.15972704 19.06528547 -12.625 15.1875 C-8.73189003 10.89915044 -5.13723148 6.44282922 -1.62890625 1.8359375 C-1.09136719 1.23007813 -0.55382812 0.62421875 0 0 Z " fill="#317EEB" transform="translate(98,78)"/>
<path d="M0 0 C0 3.3 0 6.6 0 10 C-8.91 10 -17.82 10 -27 10 C-24.93434692 7.93434692 -23.68592507 7.3393997 -21.0078125 6.30859375 C-19.82638672 5.85129883 -19.82638672 5.85129883 -18.62109375 5.38476562 C-17.79738281 5.07216797 -16.97367188 4.75957031 -16.125 4.4375 C-15.30902344 4.12103516 -14.49304688 3.80457031 -13.65234375 3.47851562 C-4.59786359 0 -4.59786359 0 0 0 Z " fill="#2F7EEB" transform="translate(100,121)"/>
<path d="M0 0 C9.21342635 1.50765158 17.47442712 5.33919144 26 9 C26 9.33 26 9.66 26 10 C17.42 10 8.84 10 0 10 C0 6.7 0 3.4 0 0 Z " fill="#2D7DEA" transform="translate(104,121)"/>
<path d="M0 0 C-3.25602996 2.7133583 -6.56153128 4.21435853 -10.5 5.75 C-11.6240625 6.19859375 -12.748125 6.6471875 -13.90625 7.109375 C-16.94425993 7.98395362 -18.15985036 8.24736302 -21 7 C-23.25 5.0625 -23.25 5.0625 -25 3 C-25 2.34 -25 1.68 -25 1 C-21.95843125 0.83135856 -18.91676547 0.66502247 -15.875 0.5 C-15.0190625 0.45230469 -14.163125 0.40460938 -13.28125 0.35546875 C-8.84778214 0.11674356 -4.44201651 -0.05825595 0 0 Z " fill="#3F86EC" transform="translate(156,94)"/>
<path d="M0 0 C8.46204771 -0.30221599 16.63745983 0.85079203 25 2 C23.84826645 4.46800047 22.95216435 6.04783565 21 8 C16.36375579 7.59572639 11.99871175 5.59802928 7.6875 3.9375 C6.94693359 3.65583984 6.20636719 3.37417969 5.44335938 3.08398438 C3.62757345 2.39281425 1.81360101 1.69688311 0 1 C0 0.67 0 0.34 0 0 Z " fill="#3982EB" transform="translate(47,94)"/>
<path d="M0 0 C2.97 0 5.94 0 9 0 C9 0.66 9 1.32 9 2 C9.66 2.33 10.32 2.66 11 3 C8.83032311 3.95465783 7.43671207 4.14401212 5.17578125 3.3984375 C3.4315257 2.64129615 1.71372869 1.82390802 0 1 C0 0.67 0 0.34 0 0 Z " fill="#498CED" transform="translate(47,94)"/>
</svg>
