<svg xmlns="http://www.w3.org/2000/svg" width="32" height="32" fill="none">
  <path fill="#5E34F1" stroke="#5E34F1"
    d="M23.61 17.736a2.442 2.442 0 0 1-.75 1.482 2.61 2.61 0 0 1-1.528.766 91.804 91.804 0 0 1-7.363.389 3.689 3.689 0 0 0-2.567 1.08l-3.228 3.22v-2.544a1.997 1.997 0 0 0-.537-1.358 2.008 2.008 0 0 0-1.32-.632 90.078 90.078 0 0 1-1.899-.157 2.61 2.61 0 0 1-1.528-.766 2.431 2.431 0 0 1-.744-1.476 72.306 72.306 0 0 1 0-11.173 2.43 2.43 0 0 1 .747-1.481c.409-.42.947-.69 1.528-.767a90.697 90.697 0 0 1 16.912 0c.581.077 1.12.347 1.528.767.416.391.68.915.75 1.481a72.87 72.87 0 0 1-.001 11.17Z" />
  <path fill="#FF3964"
    d="M24.39 31a1.356 1.356 0 0 1-.959-.398l-4.203-4.19a1.758 1.758 0 0 0-1.227-.518c-1.463-.018-2.142-.036-3.273-.111a.966.966 0 0 1-.859-1.021.963.963 0 0 1 .987-.9c1.087.075 1.745.091 3.168.108.965.01 1.887.398 2.568 1.08l3.227 3.219V25.73c.001-.504.193-.989.537-1.358.344-.37.815-.595 1.32-.633a94.17 94.17 0 0 0 1.898-.156 2.619 2.619 0 0 0 1.532-.767c.415-.392.68-.916.748-1.482a72.327 72.327 0 0 0 0-11.173 2.703 2.703 0 0 0-1.88-2.165.965.965 0 0 1-.608-1.187.964.964 0 0 1 1.163-.656 4.63 4.63 0 0 1 2.198 1.448 4.612 4.612 0 0 1 1.05 2.408c.296 3.82.296 7.657 0 11.476a4.588 4.588 0 0 1-1.311 2.696 4.609 4.609 0 0 1-2.7 1.316h-.006c-.643.059-1.296.113-1.942.16a.074.074 0 0 0-.064.074v3.913a1.353 1.353 0 0 1-.843 1.253 1.362 1.362 0 0 1-.52.102Z" />
  <path fill="#5E34F1"
    d="M25.534 6.414a4.587 4.587 0 0 0-1.312-2.695 4.61 4.61 0 0 0-2.699-1.315h-.008a92.483 92.483 0 0 0-17.274 0h-.008a4.61 4.61 0 0 0-2.7 1.316 4.588 4.588 0 0 0-1.31 2.697 74.18 74.18 0 0 0 0 11.476 4.588 4.588 0 0 0 1.312 2.694A4.61 4.61 0 0 0 4.233 21.9h.008c.642.06 1.296.114 1.942.159a.074.074 0 0 1 .064.074v3.914a1.347 1.347 0 0 0 .839 1.248 1.355 1.355 0 0 0 1.477-.293l4.205-4.193a1.754 1.754 0 0 1 1.227-.518 93.38 93.38 0 0 0 7.52-.397h.009a4.61 4.61 0 0 0 2.699-1.314 4.589 4.589 0 0 0 1.311-2.695 74.333 74.333 0 0 0 0-11.472Zm-1.922 11.322a2.442 2.442 0 0 1-.75 1.481 2.61 2.61 0 0 1-1.528.766 91.804 91.804 0 0 1-7.364.39 3.689 3.689 0 0 0-2.566 1.08l-3.228 3.22v-2.544a1.997 1.997 0 0 0-.537-1.359 2.008 2.008 0 0 0-1.32-.632 90.072 90.072 0 0 1-1.899-.157 2.61 2.61 0 0 1-1.528-.766 2.431 2.431 0 0 1-.745-1.475 72.309 72.309 0 0 1 0-11.173 2.43 2.43 0 0 1 .748-1.482c.408-.42.947-.69 1.528-.767a90.697 90.697 0 0 1 16.911 0c.582.077 1.12.347 1.529.767.415.392.68.916.75 1.482a72.871 72.871 0 0 1-.002 11.169Z" />
  <path fill="#fff"
    d="M9.35 16.067a.847.847 0 0 1-.48-.148l-3.649-2.49a.849.849 0 0 1 0-1.399l3.65-2.49a.852.852 0 0 1 1.181.22.846.846 0 0 1-.222 1.179l-2.624 1.79 2.624 1.79a.848.848 0 0 1-.48 1.548Z" />
  <path fill="#FF3964"
    d="M29.107 22.817c.415-.392.68-.916.748-1.482a72.301 72.301 0 0 0 0-11.173 2.703 2.703 0 0 0-1.88-2.165c-.184-.055-.399-.29-.52-.44.319 4.304.365 8.752.035 13.054a2.887 2.887 0 0 1-.884 1.744 3.08 3.08 0 0 1-1.802.904c-2.896.27-5.817.423-8.679.458a4.39 4.39 0 0 0-1.094.158c.989.063 1.65.08 3 .096a3.68 3.68 0 0 1 2.567 1.08l3.227 3.219v-2.54c0-.502.192-.987.535-1.355a2.007 2.007 0 0 1 1.316-.635 94.11 94.11 0 0 0 1.899-.157 2.619 2.619 0 0 0 1.532-.766Z" />
  <path fill="#fff"
    d="M16.405 16.067a.852.852 0 0 1-.811-.597.846.846 0 0 1 .33-.95l2.625-1.79-2.624-1.791a.847.847 0 1 1 .96-1.4l3.649 2.491a.849.849 0 0 1 0 1.4l-3.65 2.49a.848.848 0 0 1-.479.147ZM11.632 18.555a.851.851 0 0 1-.832-.672.845.845 0 0 1 .007-.381l2.497-9.962a.848.848 0 0 1 1.03-.616.85.85 0 0 1 .619 1.028l-2.497 9.963a.848.848 0 0 1-.824.64Z" />
</svg>
