<svg width="32" height="32" viewBox="0 0 32 32" fill="none" xmlns="http://www.w3.org/2000/svg">
<path d="M7.06134 23.4755L4.34578 25.0862C3.9774 25.3284 4.14572 25.7448 4.34578 25.8287L14.8921 31.7379C15.515 32.0869 16.2826 32.0869 16.9055 31.7379L27.5915 25.7504C27.9153 25.5587 27.8622 25.1688 27.5915 25.0373L24.7202 23.486C24.4778 23.3261 23.9374 23.3792 23.746 23.5095L16.9055 27.3422C16.2826 27.6912 15.515 27.6912 14.8921 27.3422L7.99101 23.4755C7.73375 23.3172 7.32622 23.3262 7.06134 23.4755Z" fill="#202C45"/>
<path d="M14.8918 0.261785C15.5147 -0.0872618 16.2822 -0.0872618 16.9051 0.261785C16.9051 0.261785 24.9006 4.74169 25.3979 5.02036C25.737 5.19189 25.7677 5.6524 25.3979 5.86007C24.8381 6.17262 24.0871 6.59145 23.464 6.93893C22.7361 7.34488 21.8499 7.34368 21.1228 6.93625L16.9051 4.57308C16.2822 4.22404 15.5147 4.22404 14.8918 4.57308L10.6691 6.93906C9.94144 7.34676 9.05453 7.34751 8.32612 6.94124C7.67835 6.57993 6.89255 6.14189 6.32629 5.82703C6.0122 5.69215 5.94682 5.29172 6.32629 5.06107L14.8918 0.261785Z" fill="#202C45"/>
<path d="M29.1903 7.42451C29.8133 7.77356 30.197 8.41861 30.197 9.11669V22.8836C30.197 23.5649 29.7703 23.692 29.3152 23.4541L26.1702 21.7566V12.5012L16.9052 17.6924C16.2822 18.0414 15.5148 18.0414 14.8918 17.6924L5.62685 12.5012V21.7555L2.76905 23.4521C2.42845 23.6687 1.60001 23.7369 1.60001 22.8836V9.11669C1.60001 8.41861 1.98376 7.77356 2.60672 7.42451C3.60902 6.89964 4.64469 7.42451 4.64469 7.42451L15.8985 13.7439L27.1347 7.42451C27.1347 7.42451 28.1326 6.82271 29.1903 7.42451Z" fill="#22D172"/>
</svg>
