<svg width="32" height="32" viewBox="0 0 32 32" fill="none" xmlns="http://www.w3.org/2000/svg">
<path d="M20.5241 1.18523L18.3448 6.61229L20.469 10.9704L22.7862 5.35146H27.8345V24.5654C27.8345 25.3055 27.531 25.9907 27.0069 26.5115C26.4828 27.0323 25.7655 27.3338 25.0207 27.3338C24.4414 27.3338 23.4207 27.0049 23.0069 26.21L19.9172 19.4673L19.8897 19.4947L14.8138 8.44872L14.8414 8.42131L12.6897 3.81653C11.4759 1.40451 9.02069 0.5 7.0069 0.5C5.15862 0.5 3.36552 1.24005 2.06897 2.52829C0.744828 3.81653 0 5.59814 0 7.43457L0.0827587 30.7874H10.6759L13.4069 24.9217L11.2828 20.5637L8.41379 26.6211H4.1931V7.43457C4.1931 6.69452 4.49655 6.00928 5.02069 5.48851C5.54483 4.96773 6.26207 4.66622 7.0069 4.66622C7.36552 4.66622 8.63448 4.74845 9.10345 5.95446L11.4759 11.1074L12.2483 12.8342L17.3241 23.8802C18.2069 25.7714 19.2 27.8546 19.6138 28.7591C20.4966 30.5681 22.7862 31.5 25.0207 31.5C25.931 31.5 26.8414 31.3081 27.6966 30.9792C28.5517 30.6229 29.3241 30.1295 29.9586 29.4717C30.6207 28.8413 31.1172 28.0738 31.4759 27.2241C31.8345 26.3744 32 25.4699 32 24.5654V1.18523H20.5241Z" fill="#FC5E02"/>
</svg>
