<svg width="32" height="32" viewBox="0 0 32 32" fill="none" xmlns="http://www.w3.org/2000/svg">
<path d="M26.6578 5.5025C26.6578 9.66945 15.9733 14.2104 15.7062 20.2471C15.4391 25.4825 19.8731 29.3823 28.8481 32H29.1152C30.7179 32 32 30.7179 32 29.1152V2.88481C32 1.28214 30.7179 0 29.1152 0H17.2554C20.0334 0.534224 26.6578 2.13689 26.6578 5.5025Z" fill="#4FC3F7"/>
<path d="M3.89983 20.4073C5.87646 14.3172 12.6077 11.5392 17.0417 9.45576C21.3689 7.42571 29.222 4.22037 15.4391 0H2.88481C1.28214 0 0 1.28214 0 2.88481V29.1152C0 30.7179 1.28214 32 2.88481 32H6.94491C5.0217 30.1836 1.97663 26.2838 3.89983 20.4073Z" fill="#4FC3F7"/>
<path d="M15.7062 20.2471C15.9733 14.2104 26.6578 9.66945 26.6578 5.5025C26.6578 2.13689 20.0334 0.534224 17.2554 0H15.4391C29.222 4.22037 21.3689 7.42571 16.9883 9.45576C12.6077 11.5392 5.82304 14.3172 3.84641 20.4073C1.97663 26.2838 5.0217 30.2371 6.94491 32H28.8481C19.8197 29.3823 15.4391 25.4825 15.7062 20.2471Z" fill="#01579B"/>
</svg>
