<svg xmlns="http://www.w3.org/2000/svg" width="32" height="32" fill="none">
  <path fill="#F22F46"
    d="M16 0c8.853 0 16 7.147 16 16s-7.147 16-16 16S0 24.853 0 16 7.147 0 16 0Zm0 4.267A11.7 11.7 0 0 0 4.267 16 11.7 11.7 0 0 0 16 27.733 11.7 11.7 0 0 0 27.733 16 11.7 11.7 0 0 0 16 4.267ZM12.053 16.64a3.323 3.323 0 0 1 3.307 3.307 3.323 3.323 0 0 1-3.307 3.306 3.323 3.323 0 0 1-3.306-3.306 3.323 3.323 0 0 1 3.306-3.307Zm7.894 0a3.323 3.323 0 0 1 3.306 3.307 3.323 3.323 0 0 1-3.306 3.306 3.323 3.323 0 0 1-3.307-3.306 3.323 3.323 0 0 1 3.307-3.307Zm0-7.893a3.323 3.323 0 0 1 3.306 3.306 3.323 3.323 0 0 1-3.306 3.307 3.323 3.323 0 0 1-3.307-3.307 3.323 3.323 0 0 1 3.307-3.306Zm-7.894 0a3.323 3.323 0 0 1 3.307 3.306 3.323 3.323 0 0 1-3.307 3.307 3.323 3.323 0 0 1-3.306-3.307 3.323 3.323 0 0 1 3.306-3.306Z" />
</svg>
