<svg width="63" height="20" viewBox="119.801 996 63 20" fill="none" xmlns="http://www.w3.org/2000/svg">
<path d="M151.662 1010.11V1005.49C151.662 1004.69 151.473 1004.09 151.096 1003.67C150.718 1003.26 150.125 1003.05 149.315 1003.05C148.765 1003.05 148.328 1003.11 148.005 1003.21C147.681 1003.31 147.476 1003.38 147.39 1003.43V1010.11H145.723V1002.35C145.766 1002.32 145.884 1002.27 146.079 1002.2C146.273 1002.12 146.532 1002.04 146.855 1001.95C147.179 1001.87 147.557 1001.79 147.988 1001.72C148.42 1001.66 148.895 1001.62 149.412 1001.62C150.006 1001.62 150.545 1001.71 151.031 1001.87C151.516 1002.02 151.926 1002.25 152.261 1002.54C152.606 1002.84 152.87 1003.19 153.054 1003.61C153.237 1004.02 153.329 1004.49 153.329 1005.02V1010.11H151.662Z" fill="#8F887D"/>
<path d="M164.169 1006C164.169 1006.62 164.061 1007.2 163.845 1007.74C163.64 1008.27 163.349 1008.74 162.971 1009.13C162.594 1009.51 162.14 1009.82 161.612 1010.05C161.083 1010.27 160.501 1010.38 159.864 1010.38C159.227 1010.38 158.639 1010.27 158.1 1010.05C157.571 1009.82 157.118 1009.51 156.741 1009.13C156.363 1008.74 156.066 1008.27 155.85 1007.74C155.645 1007.2 155.543 1006.62 155.543 1006C155.543 1005.38 155.645 1004.8 155.85 1004.26C156.066 1003.73 156.363 1003.27 156.741 1002.89C157.118 1002.49 157.571 1002.19 158.1 1001.97C158.639 1001.74 159.227 1001.62 159.864 1001.62C160.501 1001.62 161.083 1001.74 161.612 1001.97C162.14 1002.19 162.594 1002.49 162.971 1002.89C163.349 1003.27 163.64 1003.73 163.845 1004.26C164.061 1004.8 164.169 1005.38 164.169 1006ZM162.437 1006C162.437 1005.56 162.378 1005.16 162.259 1004.8C162.14 1004.43 161.968 1004.12 161.741 1003.85C161.525 1003.58 161.256 1003.37 160.932 1003.23C160.619 1003.08 160.263 1003 159.864 1003C159.454 1003 159.087 1003.08 158.763 1003.23C158.451 1003.37 158.181 1003.58 157.954 1003.85C157.739 1004.12 157.571 1004.43 157.453 1004.8C157.334 1005.16 157.275 1005.56 157.275 1006C157.275 1006.44 157.334 1006.84 157.453 1007.21C157.571 1007.57 157.739 1007.89 157.954 1008.16C158.181 1008.43 158.451 1008.63 158.763 1008.79C159.087 1008.93 159.454 1009 159.864 1009C160.263 1009 160.619 1008.93 160.932 1008.79C161.256 1008.63 161.525 1008.43 161.741 1008.16C161.968 1007.89 162.14 1007.57 162.259 1007.21C162.378 1006.84 162.437 1006.44 162.437 1006Z" fill="#8F887D"/>
<path d="M173.854 1002.25C173.789 1002.49 173.676 1002.81 173.514 1003.21C173.363 1003.61 173.185 1004.05 172.98 1004.54C172.775 1005.03 172.549 1005.55 172.3 1006.1C172.063 1006.63 171.82 1007.16 171.572 1007.67C171.335 1008.17 171.103 1008.65 170.876 1009.1C170.66 1009.53 170.472 1009.9 170.31 1010.19H168.578C168.384 1009.85 168.179 1009.46 167.963 1009.05C167.758 1008.62 167.548 1008.2 167.332 1007.77C167.127 1007.33 166.927 1006.9 166.733 1006.48C166.539 1006.05 166.356 1005.66 166.183 1005.3C166.021 1004.92 165.876 1004.6 165.746 1004.31C165.627 1004.03 165.536 1003.81 165.471 1003.66C165.406 1003.5 165.341 1003.34 165.277 1003.17C165.212 1002.99 165.18 1002.83 165.18 1002.67C165.18 1002.48 165.244 1002.3 165.374 1002.13C165.503 1001.97 165.725 1001.89 166.037 1001.89C166.253 1001.89 166.42 1001.91 166.539 1001.95C166.658 1002 166.722 1002.02 166.733 1002.03C166.917 1002.55 167.127 1003.11 167.364 1003.72C167.613 1004.33 167.861 1004.94 168.109 1005.54C168.368 1006.13 168.616 1006.7 168.853 1007.25C169.091 1007.78 169.301 1008.23 169.484 1008.61C169.614 1008.35 169.781 1008 169.986 1007.54C170.202 1007.07 170.423 1006.56 170.65 1006C170.887 1005.44 171.124 1004.87 171.362 1004.28C171.599 1003.69 171.809 1003.15 171.993 1002.66C172.079 1002.42 172.187 1002.23 172.317 1002.1C172.446 1001.96 172.662 1001.89 172.964 1001.89C173.223 1001.89 173.428 1001.94 173.579 1002.03C173.741 1002.13 173.832 1002.2 173.854 1002.25Z" fill="#8F887D"/>
<path d="M181.083 1002.66C181.083 1002.4 181.158 1002.2 181.309 1002.08C181.46 1001.95 181.676 1001.89 181.957 1001.89C182.14 1001.89 182.302 1001.91 182.442 1001.95C182.593 1002 182.696 1002.03 182.75 1002.05V1010.11C182.674 1010.13 182.539 1010.16 182.345 1010.18C182.162 1010.2 181.935 1010.22 181.665 1010.24C181.396 1010.28 181.099 1010.3 180.775 1010.31C180.452 1010.33 180.123 1010.34 179.788 1010.34C178.806 1010.34 178.008 1010.22 177.393 1009.98C176.789 1009.74 176.309 1009.39 175.953 1008.93C175.51 1008.35 175.289 1007.58 175.289 1006.62V1002.66C175.289 1002.4 175.365 1002.2 175.516 1002.08C175.667 1001.95 175.882 1001.89 176.163 1001.89C176.346 1001.89 176.508 1001.91 176.648 1001.95C176.8 1002 176.902 1002.03 176.956 1002.05V1006.44C176.956 1007.27 177.161 1007.9 177.571 1008.31C177.992 1008.73 178.698 1008.93 179.691 1008.93C180.069 1008.93 180.371 1008.92 180.597 1008.9C180.835 1008.87 180.996 1008.84 181.083 1008.82V1002.66Z" fill="#8F887D"/>
<path d="M135.008 1004.02C135.008 1004.55 134.363 1004.82 133.992 1004.44L126.389 996.567C127.417 996.2 128.523 996 129.675 996C131.64 996 133.47 996.581 135.008 997.582V1004.02ZM137.773 1000.27V1004.02C137.773 1007.06 134.12 1008.57 132.015 1006.39L123.84 997.932C121.391 999.752 119.801 1002.69 119.801 1006C119.801 1008.13 120.458 1010.1 121.578 1011.73V1008C121.578 1004.96 125.231 1003.45 127.335 1005.63L135.5 1014.08C137.955 1012.26 139.55 1009.32 139.55 1006C139.55 1003.87 138.893 1001.9 137.773 1000.27ZM125.359 1007.58L132.947 1015.44C131.923 1015.8 130.822 1016 129.675 1016C127.711 1016 125.881 1015.42 124.343 1014.42V1008C124.343 1007.47 124.988 1007.2 125.359 1007.58Z" fill-rule="evenodd" clip-rule="evenodd" fill="url(#novu-a)"/>
<path d="M135.008 1004.02C135.008 1004.55 134.363 1004.82 133.992 1004.44L126.389 996.567C127.417 996.2 128.523 996 129.675 996C131.64 996 133.47 996.581 135.008 997.582V1004.02ZM137.773 1000.27V1004.02C137.773 1007.06 134.12 1008.57 132.015 1006.39L123.84 997.932C121.391 999.752 119.801 1002.69 119.801 1006C119.801 1008.13 120.458 1010.1 121.578 1011.73V1008C121.578 1004.96 125.231 1003.45 127.335 1005.63L135.5 1014.08C137.955 1012.26 139.55 1009.32 139.55 1006C139.55 1003.87 138.893 1001.9 137.773 1000.27ZM125.359 1007.58L132.947 1015.44C131.923 1015.8 130.822 1016 129.675 1016C127.711 1016 125.881 1015.42 124.343 1014.42V1008C124.343 1007.47 124.988 1007.2 125.359 1007.58Z" fill-rule="evenodd" clip-rule="evenodd" fill="url(#novu-b)"/>
<defs>
<radialGradient id="novu-a" cx="0" cy="0" r="1" gradientTransform="matrix(-9.87461 10 -9.87461 -10 129.675 1006)" gradientUnits="userSpaceOnUse">
<stop offset="0.34" stop-color="#FF006A"/>
<stop offset="0.613333" stop-color="#E300BD"/>
<stop offset="0.766667" stop-color="#FF4CE1"/>
</radialGradient>
<linearGradient id="novu-b" x1="131.979" y1="995.333" x2="129.617" y2="1015.99" gradientUnits="userSpaceOnUse">
<stop offset="0.0851785" stop-color="#FFBA33"/>
<stop offset="0.553333" stop-color="#FF006A" stop-opacity="0"/>
</linearGradient>
</defs>
</svg>
