<svg width="42" height="46" viewBox="0 0 42 46" fill="none" xmlns="http://www.w3.org/2000/svg">
  <g clip-path="url(#clip0_946_22394)">
    <path d="M20.5324 45.5H21.4343C21.4547 45.4646 21.4907 45.4706 21.5228 45.4666C22.0218 45.4079 22.4798 45.2385 22.915 44.987C27.9284 42.0928 32.9429 39.2006 37.9583 36.3102C38.4927 36.0016 39.0472 35.7248 39.5496 35.3655C39.9607 35.0769 40.2912 34.6882 40.5096 34.2363C40.4725 34.1669 40.3977 34.1479 40.3369 34.1129C38.0717 32.805 35.8056 31.4984 33.5387 30.193C33.2173 30.0082 32.904 29.8044 32.5666 29.6506C32.0505 30.5593 31.4386 31.4009 30.7034 32.1411C27.4004 35.4666 23.4238 36.8376 18.7784 36.1234C16.0366 35.7021 13.6713 34.4665 11.6912 32.5321C9.35294 30.2464 8.02226 27.4709 7.69914 24.2056C7.54849 22.6638 7.67977 21.1443 8.0619 19.6448C8.36253 18.4586 8.8382 17.3431 9.4418 16.28C9.38334 16.2767 9.33958 16.24 9.29181 16.2133C6.75316 14.7496 4.2145 13.286 1.67585 11.8227C1.61505 11.7894 1.55994 11.734 1.48044 11.74C1.3515 11.8678 1.30473 12.0402 1.23125 12.198C1.09162 12.4982 1.03417 12.8235 0.958008 13.1427V32.7906C0.969031 32.8386 0.98139 32.8867 0.991411 32.935C1.22056 34.0595 1.75969 34.9875 2.77181 35.573C8.23081 38.7295 13.6932 41.8809 19.1588 45.027C19.4707 45.2104 19.8106 45.3415 20.1649 45.4149C20.2882 45.44 20.4181 45.4373 20.5324 45.5Z" fill="#6599D1"/>
    <path d="M1.47998 11.7396C1.55948 11.7336 1.61359 11.7873 1.67539 11.8224C4.21405 13.285 6.7527 14.7485 9.29136 16.2129C9.33912 16.2403 9.38288 16.277 9.44134 16.2797C9.47474 16.228 9.50815 16.1773 9.53921 16.1252C10.9996 13.7338 12.9975 11.9418 15.5595 10.7976C18.2161 9.61072 20.9799 9.32451 23.8218 9.94397C26.8542 10.6055 29.3564 12.1549 31.3439 14.5344C31.8009 15.0811 32.1927 15.6739 32.5655 16.2793C32.5922 16.2716 32.6182 16.2617 32.6433 16.2496C33.5341 15.7366 34.4248 15.2229 35.3156 14.7085C36.1395 14.2335 36.9628 13.7587 37.7854 13.2841C38.6951 12.7591 39.6046 12.2337 40.5138 11.7079C40.2124 11.1409 39.7553 10.6714 39.1961 10.3546C33.7402 7.2105 28.2843 4.06529 22.8284 0.918955C22.5157 0.737836 22.1757 0.6084 21.8216 0.535667C21.7906 0.528996 21.7532 0.535669 21.7348 0.499976H20.2654C20.249 0.512839 20.2308 0.523082 20.2113 0.530333C19.8138 0.604721 19.45 0.759834 19.0999 0.96165C13.8963 3.96387 8.69188 6.9661 3.48652 9.96832C3.05462 10.2175 2.59498 10.427 2.22454 10.7719C1.92258 11.0515 1.65 11.3567 1.47998 11.7396Z" fill="#004482"/>
    <path d="M40.5125 11.7083C39.6028 12.2336 38.6933 12.759 37.7841 13.2845C36.9601 13.7595 36.1368 14.2343 35.3142 14.7089C34.4235 15.2226 33.5327 15.7363 32.642 16.25C32.6169 16.262 32.5908 16.272 32.5641 16.2797C32.5454 16.3417 32.485 16.3534 32.4385 16.3798C30.6007 17.4432 28.7624 18.5059 26.9236 19.5678C26.8779 19.5945 26.8364 19.6392 26.7743 19.6278C26.0058 20.0726 25.2375 20.5174 24.4695 20.9622C23.6387 21.4415 22.8037 21.9159 21.9733 22.3999C21.6576 22.584 21.3289 22.7465 21.0303 22.9596C21.0776 22.9974 21.1267 23.0329 21.1776 23.0657C22.6346 23.9063 24.0917 24.7469 25.5487 25.5873C25.9606 25.8258 26.3838 26.0456 26.7787 26.3131C26.8231 26.3348 26.8692 26.3535 26.9123 26.3782C27.9925 27.0009 29.0726 27.6242 30.1524 28.2482C30.9583 28.7152 31.7634 29.1822 32.5678 29.6493C32.9068 29.803 33.2185 30.0069 33.5398 30.1917C35.8073 31.496 38.0733 32.8026 40.3381 34.1116C40.3989 34.1466 40.4737 34.1656 40.5108 34.235C40.6417 34.0952 40.6962 33.9141 40.7747 33.746C40.9083 33.4624 40.9571 33.1535 41.0419 32.8556V13.076C41.0008 13.0606 41.0118 13.0226 41.0058 12.9923C40.9153 12.5356 40.7713 12.0999 40.5125 11.7083ZM31.3903 24.4671C31.3903 24.2616 31.3833 24.0555 31.393 23.8503C31.3987 23.7359 31.3563 23.7142 31.2517 23.7169C30.8569 23.7225 30.4617 23.7145 30.0666 23.7219C29.948 23.7239 29.9035 23.7015 29.9069 23.5701C29.9166 23.1758 29.9146 22.7808 29.9069 22.3865C29.9049 22.2721 29.9333 22.2341 30.0532 22.2364C30.4484 22.2441 30.8435 22.2334 31.2383 22.2428C31.369 22.2458 31.3947 22.2031 31.3927 22.0823C31.385 21.682 31.3927 21.2817 31.3877 20.8814C31.3877 20.7814 31.4117 20.748 31.5169 20.748C31.9231 20.754 32.3293 20.7553 32.7355 20.748C32.8597 20.7453 32.8815 20.7914 32.8798 20.9015C32.8741 21.2904 32.8841 21.6797 32.8741 22.069C32.8704 22.2128 32.9185 22.2444 33.0535 22.2414C33.443 22.2328 33.8328 22.2414 34.2226 22.2361C34.3285 22.2344 34.3659 22.2588 34.3639 22.3722C34.3568 22.7725 34.3568 23.1728 34.3639 23.5731C34.3659 23.6868 34.3408 23.7245 34.2199 23.7219C33.8304 23.7135 33.4406 23.7245 33.0508 23.7155C32.9172 23.7122 32.8698 23.7412 32.8738 23.8853C32.8848 24.2796 32.8738 24.6746 32.8795 25.0689C32.8795 25.1689 32.8547 25.2053 32.7495 25.2023C32.3378 25.197 31.9258 25.197 31.5136 25.2023C31.405 25.204 31.3836 25.1643 31.387 25.0665C31.3953 24.8674 31.3903 24.6672 31.3903 24.4671ZM38.4411 21.4822C38.4411 21.688 38.4475 21.8939 38.4384 22.099C38.4338 22.2108 38.4718 22.2414 38.5794 22.2401C38.9802 22.2348 39.3811 22.2401 39.7819 22.2358C39.8948 22.2341 39.9366 22.2621 39.9342 22.3825C39.9271 22.7828 39.9271 23.1831 39.9342 23.5834C39.9362 23.6969 39.8985 23.7219 39.7919 23.7205C39.3968 23.7145 39.0016 23.7229 38.6065 23.7152C38.4809 23.7129 38.4344 23.7389 38.4394 23.8763C38.4498 24.2766 38.4394 24.6769 38.4448 25.0772C38.4448 25.1679 38.4244 25.2043 38.3255 25.2033C37.9137 25.1983 37.5018 25.1976 37.0896 25.2033C36.9824 25.205 36.9603 25.1676 36.9617 25.0699C36.9667 24.6752 36.9567 24.2803 36.9674 23.886C36.971 23.7426 36.9253 23.7125 36.7903 23.7159C36.3955 23.7249 36 23.7159 35.6048 23.7212C35.5046 23.7212 35.4692 23.6999 35.4712 23.5931C35.4775 23.1875 35.4775 22.7817 35.4712 22.3759C35.4692 22.2618 35.509 22.2358 35.6152 22.2371C36.016 22.2424 36.4169 22.2351 36.8177 22.2418C36.9346 22.2438 36.969 22.2084 36.967 22.0923C36.96 21.6867 36.967 21.2807 36.9627 20.8751C36.9627 20.784 36.9831 20.749 37.0819 20.7503C37.499 20.7552 37.9165 20.7552 38.3342 20.7503C38.4254 20.7503 38.4468 20.7837 38.4448 20.8661C38.4381 21.0709 38.4411 21.2764 38.4411 21.4822Z" fill="#00599C"/>
    <path d="M15.2249 19.6475C14.9243 20.0718 14.7573 20.5592 14.5973 21.0436C14.4443 21.5161 14.3531 22.0064 14.3261 22.5023C14.2669 23.4874 14.3909 24.4537 14.768 25.3711C15.6732 27.5727 17.2873 28.9658 19.6115 29.4988C22.3559 30.1279 25.3325 28.8126 26.7494 26.3738C26.7605 26.3548 26.7685 26.3338 26.7778 26.3138C26.383 26.0469 25.9598 25.8264 25.5479 25.5879C24.0922 24.7451 22.6351 23.9046 21.1768 23.0664C21.1258 23.0335 21.0766 22.998 21.0294 22.96C20.966 22.954 20.9162 22.9163 20.8624 22.8863C19.5118 22.1079 18.1615 21.3295 16.8116 20.5512C16.2858 20.248 15.7557 19.9477 15.2249 19.6475Z" fill="#6599D1"/>
    <path d="M15.2251 19.6475C15.7549 19.9478 16.286 20.248 16.8141 20.5512C18.1649 21.3276 19.5158 22.1057 20.8666 22.8856C20.919 22.9157 20.9688 22.9523 21.0336 22.9594C21.3322 22.7465 21.6609 22.5841 21.9766 22.3999C22.804 21.9159 23.6391 21.4416 24.4698 20.9622C25.239 20.5185 26.0073 20.0738 26.7746 19.6279C25.7134 17.8679 24.1749 16.7724 22.1506 16.4155C19.4169 15.9331 16.7817 17.136 15.3096 19.4871C15.2785 19.5381 15.2548 19.5938 15.2251 19.6475Z" fill="#004482"/>
  </g>
  <defs>
    <clipPath id="clip0_946_22394">
      <rect width="40.084" height="45" fill="white" transform="matrix(1 0 0 -1 0.958008 45.5)"/>
    </clipPath>
  </defs>
</svg>
