<svg width="52" height="46" viewBox="0 0 52 46" fill="none" xmlns="http://www.w3.org/2000/svg">
  <path d="M15.6856 0.5H36.3874C36.4238 0.562753 36.489 0.542813 36.5436 0.553956C38.305 0.897633 39.7523 1.73747 40.6671 3.31041C43.8881 8.84502 47.0798 14.3949 50.2961 19.9342C50.7451 20.6894 51.0255 21.5327 51.1181 22.4062V23.5791C51.0265 24.3809 50.8175 25.1404 50.4071 25.8482C47.1555 31.4591 43.9345 37.0881 40.653 42.6802C39.5961 44.4795 37.9152 45.4543 35.8273 45.4683C29.3097 45.5106 22.7925 45.5106 16.2756 45.4683C14.196 45.4566 12.5115 44.4995 11.4611 42.7119C8.14612 37.0723 4.87107 31.4079 1.63594 25.7186C0.630761 23.9498 0.630174 22.0273 1.63594 20.2556C4.81764 14.6606 8.07449 9.10894 11.2808 3.52858C12.0065 2.26589 13.0528 1.42546 14.3686 0.871828C14.7972 0.695298 15.2481 0.627266 15.6856 0.5ZM39.74 22.1053C39.7455 21.3637 39.6852 20.623 39.5597 19.892C38.9291 16.2366 37.1335 13.288 34.1727 11.0461C33.3431 10.4185 32.2287 10.581 31.6205 11.3898C31.0122 12.1985 31.1954 13.2864 32.0133 13.9351C35.2525 16.5039 36.6129 19.8368 35.9711 23.9252C35.2519 28.5138 31.065 32.1576 26.4096 32.2919C23.3283 32.381 20.6686 31.3617 18.549 29.1085C16.2656 26.6799 15.3785 23.7715 15.8928 20.4831C16.3138 17.78 17.6771 15.6071 19.8572 13.945C20.6921 13.3081 20.8441 12.2097 20.2247 11.4021C20.0808 11.2094 19.8991 11.0479 19.6908 10.9275C19.4824 10.8071 19.2517 10.7303 19.0127 10.7017C18.7737 10.6731 18.5314 10.6934 18.3005 10.7613C18.0696 10.8291 17.8549 10.9432 17.6695 11.0965C13.2554 14.6342 11.4153 19.2204 12.4416 24.7715C13.8138 32.1904 21.0537 37.0377 28.4523 35.6536C31.6224 35.0693 34.4874 33.394 36.5496 30.919C38.6117 28.4439 39.7405 25.3254 39.74 22.1053ZM27.9914 16.0452V10.0719C27.9914 9.61507 27.9068 9.18107 27.6532 8.79048C27.4162 8.42209 27.066 8.14051 26.655 7.98807C26.2441 7.83563 25.7948 7.82058 25.3745 7.94518C24.9543 8.06977 24.5859 8.32729 24.3248 8.67898C24.0637 9.03068 23.924 9.45756 23.9266 9.8954C23.9231 12.4818 23.9231 15.0684 23.9266 17.6551C23.9266 19.1677 23.9202 20.6808 23.9266 22.1933C23.9348 23.6202 25.3651 24.5932 26.6779 24.0759C27.5134 23.7463 27.9884 23.0085 27.9896 22.0185C27.9931 20.028 27.9937 18.0369 27.9914 16.0452Z" fill="#68BC45"/>
</svg>
