<svg width="238" height="173" viewBox="0 0 238 173" fill="none" xmlns="http://www.w3.org/2000/svg">
<rect width="238" height="173" fill="url(#paint0_linear_3896_9007)"/>
<rect x="20" y="20" width="31" height="6" rx="3" fill="url(#paint1_linear_3896_9007)"/>
<rect x="59" y="20" width="159" height="6" rx="3" fill="#E6E6E6"/>
<rect x="94" y="34" width="85" height="6" rx="3" fill="#E6E6E6"/>
<rect x="40" y="34" width="46" height="6" rx="3" fill="#E6E6E6"/>
<rect x="60" y="94" width="81" height="6" rx="3" fill="#E6E6E6"/>
<rect x="150" y="94" width="63" height="6" rx="3" fill="#E6E6E6"/>
<rect x="20" y="108" width="46" height="6" rx="3" fill="#E6E6E6"/>
<rect x="74" y="108" width="100" height="6" rx="3" fill="#E6E6E6"/>
<rect x="47.5" y="52.5" width="86" height="29" rx="14.5" fill="white"/>
<path d="M59.91 66V71H60.84V68.54C60.84 67.52 61.54 66.74 62.52 66.74C63.35 66.74 63.47 67.36 63.47 68.05V71H64.4V67.86C64.4 66.61 63.92 65.88 62.69 65.88C61.63 65.88 60.97 66.63 60.78 67.08H60.76C60.77 67.06 60.8 66.91 60.8 66.7L60.78 66H59.91ZM68.2221 65.88C66.7421 65.88 65.6521 66.99 65.6521 68.5C65.6521 70.01 66.7421 71.12 68.2221 71.12C69.7121 71.12 70.8021 70.01 70.8021 68.5C70.8021 66.99 69.7121 65.88 68.2221 65.88ZM68.2221 70.31C67.2621 70.31 66.5521 69.56 66.5521 68.5C66.5521 67.44 67.2621 66.69 68.2221 66.69C69.1921 66.69 69.9021 67.44 69.9021 68.5C69.9021 69.56 69.1921 70.31 68.2221 70.31ZM75.2649 66C74.7549 67.22 74.2049 68.53 73.7649 69.65C73.3249 68.53 72.7749 67.22 72.2649 66H71.2749L73.5149 71.12H74.0149L76.2549 66H75.2649ZM81.4363 71V66H80.5063V68.46C80.5063 69.48 79.8263 70.26 78.8763 70.26C78.0463 70.26 77.9263 69.64 77.9263 68.95V66H76.9963V69.14C76.9963 70.39 77.4763 71.12 78.7063 71.12C79.7363 71.12 80.3763 70.37 80.5663 69.92H80.5863C80.5863 69.94 80.5463 70.09 80.5463 70.3L80.5663 71H81.4363ZM82.7996 70.56C82.7996 70.89 83.0296 71.12 83.3796 71.12C83.7196 71.12 83.9596 70.89 83.9596 70.56C83.9596 70.22 83.7196 69.99 83.3796 69.99C83.0296 69.99 82.7996 70.22 82.7996 70.56ZM84.5902 66V66.76H85.4102V69.63C85.4102 70.75 86.1702 71.12 86.8902 71.12C87.3802 71.12 87.7902 71.01 88.0102 70.89V70.08C87.7302 70.21 87.3802 70.3 87.0702 70.3C86.6502 70.3 86.3302 70.06 86.3302 69.35V66.76H87.8402V66H86.3302V64.5H85.4202V66H84.5902ZM88.9709 71H89.9009V68.82C89.9009 67.85 90.4609 66.78 91.4309 66.78C91.5609 66.78 91.6509 66.8 91.6909 66.81V65.91C91.6509 65.9 91.5309 65.88 91.3909 65.88C90.6709 65.88 90.1409 66.36 89.8509 67.07H89.8409C89.8309 67.04 89.8609 66.89 89.8509 66.7L89.8409 66H88.9709V71ZM92.8397 66V71H93.7697V66H92.8397ZM92.7197 64.55C92.7197 64.88 92.9497 65.11 93.2997 65.11C93.6397 65.11 93.8797 64.88 93.8797 64.55C93.8797 64.21 93.6397 63.98 93.2997 63.98C92.9497 63.98 92.7197 64.21 92.7197 64.55ZM96.6036 69.79C96.6036 69.6 96.9636 69.43 97.4136 69.39H97.4236C98.4736 69.33 99.2536 68.63 99.2536 67.65C99.2536 67.25 99.0836 66.9 98.8136 66.65L98.8736 66.66C98.8736 66.66 99.0236 66.7 99.1536 66.7H99.8436V66H98.0236C97.7936 65.92 97.5136 65.88 97.2336 65.88C96.0936 65.88 95.2036 66.6 95.2036 67.65C95.2036 68.41 95.6736 69.01 96.3836 69.27C95.9536 69.41 95.6936 69.68 95.6936 69.97C95.6936 70.31 95.9836 70.55 96.4636 70.61C95.6936 70.76 95.0836 71.25 95.0836 71.84C95.0836 72.73 96.0136 73.19 97.3736 73.19C98.7936 73.19 99.7736 72.61 99.7736 71.65C99.7736 70.74 99.0536 70.36 97.7836 70.22C96.9236 70.12 96.6036 70.04 96.6036 69.79ZM97.2336 68.74C96.5536 68.74 96.0736 68.29 96.0736 67.67C96.0736 67.05 96.5536 66.59 97.2336 66.59C97.9336 66.59 98.4036 67.05 98.4036 67.67C98.4036 68.29 97.9336 68.74 97.2336 68.74ZM97.3836 72.53C96.5636 72.53 95.9836 72.26 95.9836 71.73C95.9836 71.28 96.5336 70.89 97.3136 70.89C98.4436 70.89 98.8436 71.25 98.8436 71.71C98.8436 72.2 98.2836 72.53 97.3836 72.53ZM102.004 69.79C102.004 69.6 102.364 69.43 102.814 69.39H102.824C103.874 69.33 104.654 68.63 104.654 67.65C104.654 67.25 104.484 66.9 104.214 66.65L104.274 66.66C104.274 66.66 104.424 66.7 104.554 66.7H105.244V66H103.424C103.194 65.92 102.914 65.88 102.634 65.88C101.494 65.88 100.604 66.6 100.604 67.65C100.604 68.41 101.074 69.01 101.784 69.27C101.354 69.41 101.094 69.68 101.094 69.97C101.094 70.31 101.384 70.55 101.864 70.61C101.094 70.76 100.484 71.25 100.484 71.84C100.484 72.73 101.414 73.19 102.774 73.19C104.194 73.19 105.174 72.61 105.174 71.65C105.174 70.74 104.454 70.36 103.184 70.22C102.324 70.12 102.004 70.04 102.004 69.79ZM102.634 68.74C101.954 68.74 101.474 68.29 101.474 67.67C101.474 67.05 101.954 66.59 102.634 66.59C103.334 66.59 103.804 67.05 103.804 67.67C103.804 68.29 103.334 68.74 102.634 68.74ZM102.784 72.53C101.964 72.53 101.384 72.26 101.384 71.73C101.384 71.28 101.934 70.89 102.714 70.89C103.844 70.89 104.244 71.25 104.244 71.71C104.244 72.2 103.684 72.53 102.784 72.53ZM108.376 65.88C106.996 65.88 105.926 66.99 105.926 68.5C105.926 70.05 106.996 71.12 108.576 71.12C109.386 71.12 110.056 70.91 110.446 70.69V69.84C110.026 70.11 109.316 70.31 108.636 70.31C107.586 70.31 106.926 69.69 106.896 68.71V68.7H110.616C110.616 68.6 110.636 68.41 110.636 68.21C110.636 66.98 109.846 65.88 108.376 65.88ZM109.716 68.04H106.906C106.986 67.32 107.506 66.66 108.366 66.66C109.256 66.66 109.726 67.32 109.716 68.04ZM111.94 71H112.87V68.82C112.87 67.85 113.43 66.78 114.4 66.78C114.53 66.78 114.62 66.8 114.66 66.81V65.91C114.62 65.9 114.5 65.88 114.36 65.88C113.64 65.88 113.11 66.36 112.82 67.07H112.81C112.8 67.04 112.83 66.89 112.82 66.7L112.81 66H111.94V71ZM116.698 71.67H117.668C116.948 70.46 116.538 68.91 116.538 67.4C116.538 65.89 116.948 64.34 117.668 63.13H116.698C115.998 64.29 115.598 65.8 115.598 67.4C115.598 69 115.998 70.51 116.698 71.67ZM119.536 63.13H118.566C119.286 64.34 119.696 65.89 119.696 67.4C119.696 68.91 119.286 70.46 118.566 71.67H119.536C120.236 70.51 120.636 69 120.636 67.4C120.636 65.8 120.236 64.29 119.536 63.13Z" fill="#0055FF"/>
<rect x="47.5" y="52.5" width="86" height="29" rx="14.5" stroke="#666666" stroke-dasharray="3 3"/>
<rect x="128" y="52" width="64" height="30" rx="15" fill="#333333"/>
<path d="M149.642 62.3583C149.599 62.3153 149.535 62.3012 149.478 62.3219L140.416 65.6031C140.356 65.6245 140.316 65.6794 140.313 65.7422C140.31 65.805 140.344 65.8636 140.401 65.8909L143.665 67.4573L146.612 65.2784C146.685 65.2251 146.775 65.3156 146.722 65.3876L144.543 68.3354L146.109 71.5989C146.135 71.6531 146.19 71.6875 146.25 71.6875C146.253 71.6875 146.255 71.6875 146.258 71.6873C146.321 71.684 146.376 71.6436 146.397 71.5845L149.678 62.522C149.699 62.465 149.685 62.4011 149.642 62.3583Z" fill="white"/>
<path d="M158.55 71.13C160.16 71.13 161.12 70.37 161.12 69.11C161.12 67.97 160.4 67.41 159.08 66.92C157.98 66.52 157.6 66.18 157.6 65.67C157.6 65.12 158.15 64.78 158.97 64.78C159.62 64.78 160.31 64.98 160.72 65.21V64.03C160.29 63.85 159.6 63.67 158.88 63.67C157.42 63.67 156.37 64.43 156.37 65.69C156.37 66.86 157.07 67.42 158.39 67.89C159.49 68.28 159.9 68.59 159.9 69.16C159.9 69.55 159.59 69.81 159.08 69.93C158.87 69.99 158.62 70.01 158.36 70.01C157.64 69.99 156.95 69.75 156.44 69.49V70.72C156.94 70.93 157.72 71.13 158.55 71.13ZM164.33 65.87C162.92 65.87 161.83 66.99 161.83 68.5C161.83 70.04 162.9 71.13 164.56 71.13C165.4 71.13 166.07 70.93 166.42 70.74V69.67C166.08 69.88 165.35 70.09 164.65 70.09C163.73 70.09 163.13 69.59 163.1 68.75H166.59C166.59 68.66 166.62 68.44 166.62 68.21C166.62 66.97 165.83 65.87 164.33 65.87ZM165.44 68.04H163.1C163.16 67.41 163.59 66.85 164.31 66.85C165.06 66.85 165.45 67.41 165.44 68.04ZM167.796 66V71H169.016V68.52C169.016 67.64 169.606 66.98 170.436 66.98C171.116 66.98 171.256 67.5 171.256 68.08V71H172.476V67.87C172.476 66.58 171.926 65.87 170.746 65.87C169.796 65.87 169.136 66.54 168.936 67H168.916C168.916 66.96 168.956 66.83 168.956 66.64L168.926 66H167.796ZM178.708 63.8H177.488V66.28C177.488 66.55 177.518 66.69 177.518 66.69H177.498C177.228 66.26 176.618 65.87 175.848 65.87C174.568 65.87 173.548 66.89 173.548 68.5C173.548 70.09 174.568 71.13 175.878 71.13C176.648 71.13 177.328 70.66 177.568 70.13H177.588C177.588 70.13 177.558 70.27 177.568 70.48L177.588 71H178.708V63.8ZM176.078 66.91C176.748 66.91 177.458 67.42 177.458 68.5C177.458 69.58 176.748 70.09 176.078 70.09C175.268 70.09 174.708 69.43 174.708 68.5C174.708 67.56 175.268 66.91 176.078 66.91Z" fill="white"/>
<defs>
<linearGradient id="paint0_linear_3896_9007" x1="119" y1="0" x2="119" y2="173" gradientUnits="userSpaceOnUse">
<stop stop-color="#F2F2F2"/>
<stop offset="1" stop-color="#F2F2F2" stop-opacity="0.6"/>
</linearGradient>
<linearGradient id="paint1_linear_3896_9007" x1="51" y1="20" x2="19.7445" y2="21.9937" gradientUnits="userSpaceOnUse">
<stop offset="0.210937" stop-color="#FFBB33"/>
<stop offset="0.551829" stop-color="#E300BD"/>
<stop offset="0.926448" stop-color="#FF006A"/>
</linearGradient>
</defs>
</svg>
