<svg width="198" height="94" viewBox="0 0 198 94" fill="none" xmlns="http://www.w3.org/2000/svg">
<rect width="31" height="6" rx="3" fill="url(#paint0_linear_3896_9010)"/>
<rect x="39" width="159" height="6" rx="3" fill="#E6E6E6"/>
<rect x="74" y="14" width="85" height="6" rx="3" fill="#E6E6E6"/>
<rect x="20" y="14" width="46" height="6" rx="3" fill="#E6E6E6"/>
<rect x="40" y="74" width="81" height="6" rx="3" fill="#E6E6E6"/>
<rect x="130" y="74" width="63" height="6" rx="3" fill="#E6E6E6"/>
<rect y="88" width="46" height="6" rx="3" fill="#E6E6E6"/>
<rect x="54" y="88" width="100" height="6" rx="3" fill="#E6E6E6"/>
<rect x="27.5" y="32.5" width="86" height="29" rx="14.5" fill="white"/>
<path d="M39.91 46V51H40.84V48.54C40.84 47.52 41.54 46.74 42.52 46.74C43.35 46.74 43.47 47.36 43.47 48.05V51H44.4V47.86C44.4 46.61 43.92 45.88 42.69 45.88C41.63 45.88 40.97 46.63 40.78 47.08H40.76C40.77 47.06 40.8 46.91 40.8 46.7L40.78 46H39.91ZM48.2221 45.88C46.7421 45.88 45.6521 46.99 45.6521 48.5C45.6521 50.01 46.7421 51.12 48.2221 51.12C49.7121 51.12 50.8021 50.01 50.8021 48.5C50.8021 46.99 49.7121 45.88 48.2221 45.88ZM48.2221 50.31C47.2621 50.31 46.5521 49.56 46.5521 48.5C46.5521 47.44 47.2621 46.69 48.2221 46.69C49.1921 46.69 49.9021 47.44 49.9021 48.5C49.9021 49.56 49.1921 50.31 48.2221 50.31ZM55.2649 46C54.7549 47.22 54.2049 48.53 53.7649 49.65C53.3249 48.53 52.7749 47.22 52.2649 46H51.2749L53.5149 51.12H54.0149L56.2549 46H55.2649ZM61.4363 51V46H60.5063V48.46C60.5063 49.48 59.8263 50.26 58.8763 50.26C58.0463 50.26 57.9263 49.64 57.9263 48.95V46H56.9963V49.14C56.9963 50.39 57.4763 51.12 58.7063 51.12C59.7363 51.12 60.3763 50.37 60.5663 49.92H60.5863C60.5863 49.94 60.5463 50.09 60.5463 50.3L60.5663 51H61.4363ZM62.7996 50.56C62.7996 50.89 63.0296 51.12 63.3796 51.12C63.7196 51.12 63.9596 50.89 63.9596 50.56C63.9596 50.22 63.7196 49.99 63.3796 49.99C63.0296 49.99 62.7996 50.22 62.7996 50.56ZM64.5902 46V46.76H65.4102V49.63C65.4102 50.75 66.1702 51.12 66.8902 51.12C67.3802 51.12 67.7902 51.01 68.0102 50.89V50.08C67.7302 50.21 67.3802 50.3 67.0702 50.3C66.6502 50.3 66.3302 50.06 66.3302 49.35V46.76H67.8402V46H66.3302V44.5H65.4202V46H64.5902ZM68.9709 51H69.9009V48.82C69.9009 47.85 70.4609 46.78 71.4309 46.78C71.5609 46.78 71.6509 46.8 71.6909 46.81V45.91C71.6509 45.9 71.5309 45.88 71.3909 45.88C70.6709 45.88 70.1409 46.36 69.8509 47.07H69.8409C69.8309 47.04 69.8609 46.89 69.8509 46.7L69.8409 46H68.9709V51ZM72.8397 46V51H73.7697V46H72.8397ZM72.7197 44.55C72.7197 44.88 72.9497 45.11 73.2997 45.11C73.6397 45.11 73.8797 44.88 73.8797 44.55C73.8797 44.21 73.6397 43.98 73.2997 43.98C72.9497 43.98 72.7197 44.21 72.7197 44.55ZM76.6036 49.79C76.6036 49.6 76.9636 49.43 77.4136 49.39H77.4236C78.4736 49.33 79.2536 48.63 79.2536 47.65C79.2536 47.25 79.0836 46.9 78.8136 46.65L78.8736 46.66C78.8736 46.66 79.0236 46.7 79.1536 46.7H79.8436V46H78.0236C77.7936 45.92 77.5136 45.88 77.2336 45.88C76.0936 45.88 75.2036 46.6 75.2036 47.65C75.2036 48.41 75.6736 49.01 76.3836 49.27C75.9536 49.41 75.6936 49.68 75.6936 49.97C75.6936 50.31 75.9836 50.55 76.4636 50.61C75.6936 50.76 75.0836 51.25 75.0836 51.84C75.0836 52.73 76.0136 53.19 77.3736 53.19C78.7936 53.19 79.7736 52.61 79.7736 51.65C79.7736 50.74 79.0536 50.36 77.7836 50.22C76.9236 50.12 76.6036 50.04 76.6036 49.79ZM77.2336 48.74C76.5536 48.74 76.0736 48.29 76.0736 47.67C76.0736 47.05 76.5536 46.59 77.2336 46.59C77.9336 46.59 78.4036 47.05 78.4036 47.67C78.4036 48.29 77.9336 48.74 77.2336 48.74ZM77.3836 52.53C76.5636 52.53 75.9836 52.26 75.9836 51.73C75.9836 51.28 76.5336 50.89 77.3136 50.89C78.4436 50.89 78.8436 51.25 78.8436 51.71C78.8436 52.2 78.2836 52.53 77.3836 52.53ZM82.004 49.79C82.004 49.6 82.364 49.43 82.814 49.39H82.824C83.874 49.33 84.654 48.63 84.654 47.65C84.654 47.25 84.484 46.9 84.214 46.65L84.274 46.66C84.274 46.66 84.424 46.7 84.554 46.7H85.244V46H83.424C83.194 45.92 82.914 45.88 82.634 45.88C81.494 45.88 80.604 46.6 80.604 47.65C80.604 48.41 81.074 49.01 81.784 49.27C81.354 49.41 81.094 49.68 81.094 49.97C81.094 50.31 81.384 50.55 81.864 50.61C81.094 50.76 80.484 51.25 80.484 51.84C80.484 52.73 81.414 53.19 82.774 53.19C84.194 53.19 85.174 52.61 85.174 51.65C85.174 50.74 84.454 50.36 83.184 50.22C82.324 50.12 82.004 50.04 82.004 49.79ZM82.634 48.74C81.954 48.74 81.474 48.29 81.474 47.67C81.474 47.05 81.954 46.59 82.634 46.59C83.334 46.59 83.804 47.05 83.804 47.67C83.804 48.29 83.334 48.74 82.634 48.74ZM82.784 52.53C81.964 52.53 81.384 52.26 81.384 51.73C81.384 51.28 81.934 50.89 82.714 50.89C83.844 50.89 84.244 51.25 84.244 51.71C84.244 52.2 83.684 52.53 82.784 52.53ZM88.3755 45.88C86.9955 45.88 85.9255 46.99 85.9255 48.5C85.9255 50.05 86.9955 51.12 88.5755 51.12C89.3855 51.12 90.0555 50.91 90.4455 50.69V49.84C90.0255 50.11 89.3155 50.31 88.6355 50.31C87.5855 50.31 86.9255 49.69 86.8955 48.71V48.7H90.6155C90.6155 48.6 90.6355 48.41 90.6355 48.21C90.6355 46.98 89.8455 45.88 88.3755 45.88ZM89.7155 48.04H86.9055C86.9855 47.32 87.5055 46.66 88.3655 46.66C89.2555 46.66 89.7255 47.32 89.7155 48.04ZM91.9396 51H92.8696V48.82C92.8696 47.85 93.4296 46.78 94.3996 46.78C94.5296 46.78 94.6196 46.8 94.6596 46.81V45.91C94.6196 45.9 94.4996 45.88 94.3596 45.88C93.6396 45.88 93.1096 46.36 92.8196 47.07H92.8096C92.7996 47.04 92.8296 46.89 92.8196 46.7L92.8096 46H91.9396V51ZM96.6984 51.67H97.6684C96.9484 50.46 96.5384 48.91 96.5384 47.4C96.5384 45.89 96.9484 44.34 97.6684 43.13H96.6984C95.9984 44.29 95.5984 45.8 95.5984 47.4C95.5984 49 95.9984 50.51 96.6984 51.67ZM99.5364 43.13H98.5664C99.2864 44.34 99.6964 45.89 99.6964 47.4C99.6964 48.91 99.2864 50.46 98.5664 51.67H99.5364C100.236 50.51 100.636 49 100.636 47.4C100.636 45.8 100.236 44.29 99.5364 43.13Z" fill="#0055FF"/>
<rect x="27.5" y="32.5" width="86" height="29" rx="14.5" stroke="#666666" stroke-dasharray="3 3"/>
<rect x="108" y="32" width="64" height="30" rx="15" fill="#333333"/>
<path d="M129.642 42.3583C129.599 42.3153 129.535 42.3012 129.478 42.3219L120.416 45.6031C120.356 45.6245 120.316 45.6794 120.313 45.7422C120.31 45.805 120.344 45.8636 120.401 45.8909L123.665 47.4573L126.612 45.2784C126.685 45.2251 126.775 45.3156 126.722 45.3876L124.543 48.3354L126.109 51.5989C126.135 51.6531 126.19 51.6875 126.25 51.6875C126.253 51.6875 126.255 51.6875 126.258 51.6873C126.321 51.684 126.376 51.6436 126.397 51.5845L129.678 42.522C129.699 42.465 129.685 42.4011 129.642 42.3583Z" fill="white"/>
<path d="M138.55 51.13C140.16 51.13 141.12 50.37 141.12 49.11C141.12 47.97 140.4 47.41 139.08 46.92C137.98 46.52 137.6 46.18 137.6 45.67C137.6 45.12 138.15 44.78 138.97 44.78C139.62 44.78 140.31 44.98 140.72 45.21V44.03C140.29 43.85 139.6 43.67 138.88 43.67C137.42 43.67 136.37 44.43 136.37 45.69C136.37 46.86 137.07 47.42 138.39 47.89C139.49 48.28 139.9 48.59 139.9 49.16C139.9 49.55 139.59 49.81 139.08 49.93C138.87 49.99 138.62 50.01 138.36 50.01C137.64 49.99 136.95 49.75 136.44 49.49V50.72C136.94 50.93 137.72 51.13 138.55 51.13ZM144.33 45.87C142.92 45.87 141.83 46.99 141.83 48.5C141.83 50.04 142.9 51.13 144.56 51.13C145.4 51.13 146.07 50.93 146.42 50.74V49.67C146.08 49.88 145.35 50.09 144.65 50.09C143.73 50.09 143.13 49.59 143.1 48.75H146.59C146.59 48.66 146.62 48.44 146.62 48.21C146.62 46.97 145.83 45.87 144.33 45.87ZM145.44 48.04H143.1C143.16 47.41 143.59 46.85 144.31 46.85C145.06 46.85 145.45 47.41 145.44 48.04ZM147.796 46V51H149.016V48.52C149.016 47.64 149.606 46.98 150.436 46.98C151.116 46.98 151.256 47.5 151.256 48.08V51H152.476V47.87C152.476 46.58 151.926 45.87 150.746 45.87C149.796 45.87 149.136 46.54 148.936 47H148.916C148.916 46.96 148.956 46.83 148.956 46.64L148.926 46H147.796ZM158.708 43.8H157.488V46.28C157.488 46.55 157.518 46.69 157.518 46.69H157.498C157.228 46.26 156.618 45.87 155.848 45.87C154.568 45.87 153.548 46.89 153.548 48.5C153.548 50.09 154.568 51.13 155.878 51.13C156.648 51.13 157.328 50.66 157.568 50.13H157.588C157.588 50.13 157.558 50.27 157.568 50.48L157.588 51H158.708V43.8ZM156.078 46.91C156.748 46.91 157.458 47.42 157.458 48.5C157.458 49.58 156.748 50.09 156.078 50.09C155.268 50.09 154.708 49.43 154.708 48.5C154.708 47.56 155.268 46.91 156.078 46.91Z" fill="white"/>
<defs>
<linearGradient id="paint0_linear_3896_9010" x1="31" y1="4.7723e-06" x2="-0.255549" y2="1.99367" gradientUnits="userSpaceOnUse">
<stop offset="0.210937" stop-color="#FFBB33"/>
<stop offset="0.551829" stop-color="#E300BD"/>
<stop offset="0.926448" stop-color="#FF006A"/>
</linearGradient>
</defs>
</svg>
