<svg width="198" height="98" viewBox="0 0 198 98" fill="none" xmlns="http://www.w3.org/2000/svg">
<circle cx="21" cy="77" r="20.5" fill="white" stroke="#333333" stroke-dasharray="3 3"/>
<circle cx="21" cy="77" r="16" fill="#333333"/>
<path fill-rule="evenodd" clip-rule="evenodd" d="M12 77C12 81.9617 16.0383 86 20.9986 86C22.3049 86.001 23.5958 85.717 24.7811 85.1678C25.9664 84.6187 27.0176 83.8176 27.8616 82.8205L26.3616 81.5605C25.7012 82.3382 24.8794 82.9628 23.9532 83.391C23.0271 83.8191 22.0189 84.0405 20.9986 84.0397C17.1164 84.0397 13.9589 80.8817 13.9589 77C13.9589 73.1183 17.1169 69.9603 20.9986 69.9603C24.8803 69.9603 28.0383 73.1183 28.0383 77C28.0383 77.2506 27.9387 77.491 27.7615 77.6682C27.5843 77.8454 27.3439 77.945 27.0933 77.945C26.8426 77.945 26.6023 77.8454 26.4251 77.6682C26.2478 77.491 26.1483 77.2506 26.1483 77C26.1484 75.7473 25.6916 74.5375 24.8635 73.5976C24.0353 72.6576 22.8928 72.0519 21.6501 71.8942C20.4073 71.7364 19.1497 72.0373 18.113 72.7405C17.0763 73.4437 16.3316 74.5009 16.0187 75.7139C15.7057 76.9269 15.8459 78.2124 16.413 79.3294C16.9801 80.4464 17.9352 81.3182 19.0992 81.7813C20.2631 82.2445 21.556 82.2672 22.7355 81.8452C23.915 81.4232 24.9001 80.5855 25.5061 79.4891L25.53 79.4459L25.5717 79.4717C26.0116 79.7432 26.5159 79.8923 27.0327 79.9035C27.5494 79.9148 28.0598 79.7879 28.5111 79.536C28.9624 79.284 29.3382 78.9161 29.5997 78.4703C29.8612 78.0244 29.9989 77.5169 29.9986 77C29.9986 72.0369 25.9589 68 20.9986 68C16.0383 68 12 72.0383 12 77ZM19.2254 74.3502C19.7503 73.9995 20.3674 73.8124 20.9986 73.8125V73.8097C21.8444 73.8107 22.6553 74.1471 23.2534 74.7452C23.8515 75.3433 24.1879 76.1542 24.1889 77C24.1896 77.6312 24.003 78.2485 23.6527 78.7736C23.3025 79.2988 22.8044 79.7083 22.2213 79.9503C21.6383 80.1923 20.9967 80.2559 20.3775 80.1331C19.7583 80.0103 19.1894 79.7067 18.7429 79.2605C18.2963 78.8143 17.9922 78.2458 17.8688 77.6267C17.7455 77.0076 17.8086 76.3659 18.05 75.7827C18.2915 75.1994 18.7006 74.7009 19.2254 74.3502ZM20.1657 78.246C20.4123 78.4108 20.7023 78.4988 20.9989 78.4988C21.3966 78.4982 21.7778 78.3399 22.059 78.0586C22.3402 77.7774 22.4983 77.3961 22.4988 76.9983C22.4987 76.7017 22.4106 76.4118 22.2457 76.1652C22.0808 75.9186 21.8466 75.7265 21.5725 75.613C21.2984 75.4996 20.9969 75.47 20.7059 75.5279C20.415 75.5858 20.1478 75.7287 19.9381 75.9385C19.7284 76.1483 19.5856 76.4156 19.5278 76.7065C19.47 76.9974 19.4997 77.299 19.6132 77.573C19.7268 77.847 19.919 78.0812 20.1657 78.246Z" fill="white"/>
<circle cx="177" cy="21" r="20.5" fill="white" stroke="#333333" stroke-dasharray="3 3"/>
<circle cx="177" cy="21" r="16" fill="#333333"/>
<path d="M177 12C181.98 12 186 16.02 186 21C186 25.98 181.98 30 177 30C172.02 30 168 25.98 168 21C168 16.02 172.02 12 177 12ZM177 14.4C173.34 14.4 170.4 17.34 170.4 21C170.4 24.66 173.34 27.6 177 27.6C180.66 27.6 183.6 24.66 183.6 21C183.6 17.34 180.66 14.4 177 14.4ZM174.78 21.36C175.8 21.36 176.64 22.2 176.64 23.22C176.64 24.24 175.8 25.08 174.78 25.08C173.76 25.08 172.92 24.24 172.92 23.22C172.92 22.2 173.76 21.36 174.78 21.36ZM179.22 21.36C180.24 21.36 181.08 22.2 181.08 23.22C181.08 24.24 180.24 25.08 179.22 25.08C178.2 25.08 177.36 24.24 177.36 23.22C177.36 22.2 178.2 21.36 179.22 21.36ZM179.22 16.92C180.24 16.92 181.08 17.76 181.08 18.78C181.08 19.8 180.24 20.64 179.22 20.64C178.2 20.64 177.36 19.8 177.36 18.78C177.36 17.76 178.2 16.92 179.22 16.92ZM174.78 16.92C175.8 16.92 176.64 17.76 176.64 18.78C176.64 19.8 175.8 20.64 174.78 20.64C173.76 20.64 172.92 19.8 172.92 18.78C172.92 17.76 173.76 16.92 174.78 16.92Z" fill="white"/>
<circle cx="99" cy="49" r="48.5" fill="white" stroke="#333333" stroke-dasharray="3 3"/>
<circle cx="67" cy="85" r="3" fill="url(#paint0_linear_3896_8979)"/>
<circle cx="132" cy="12" r="3" fill="url(#paint1_linear_3896_8979)"/>
<rect x="19" y="18" width="74" height="6" rx="3" fill="#E6E6E6"/>
<rect x="99" y="18" width="14" height="6" rx="3" fill="#E6E6E6"/>
<rect x="87" y="74" width="14" height="6" rx="3" fill="#E6E6E6"/>
<rect x="107" y="74" width="74" height="6" rx="3" fill="#E6E6E6"/>
<rect x="69" y="34" width="61" height="30" rx="15" fill="#0055FF"/>
<path d="M80.97 53H82.29L82.93 51.57H85.87L86.51 53H87.83L84.42 45.69H84.38L80.97 53ZM83.34 50.63C83.73 49.75 84.1 48.83 84.41 48.08C84.71 48.9 85.05 49.71 85.46 50.63H83.34ZM91.347 50.37C92.947 50.37 93.957 49.55 93.957 48.09C93.957 46.62 92.947 45.8 91.347 45.8H89.067V53H90.327V50.37H91.347ZM91.357 46.86C92.167 46.86 92.687 47.29 92.687 48.09C92.687 48.88 92.187 49.31 91.407 49.31H90.327V46.86H91.357ZM96.743 53V45.8H95.483V53H96.743ZM102.319 45.8H101.059V53H102.319V50.88L103.489 49.59L105.549 53H106.979L104.339 48.75L106.939 45.8H105.429L102.319 49.42V45.8ZM109.759 47.87C108.349 47.87 107.259 48.99 107.259 50.5C107.259 52.04 108.329 53.13 109.989 53.13C110.829 53.13 111.499 52.93 111.849 52.74V51.67C111.509 51.88 110.779 52.09 110.079 52.09C109.159 52.09 108.559 51.59 108.529 50.75H112.019C112.019 50.66 112.049 50.44 112.049 50.21C112.049 48.97 111.259 47.87 109.759 47.87ZM110.869 50.04H108.529C108.589 49.41 109.019 48.85 109.739 48.85C110.489 48.85 110.879 49.41 110.869 50.04ZM112.486 55.23C112.586 55.27 112.806 55.31 113.046 55.31C113.246 55.32 113.446 55.31 113.656 55.28C114.636 55.09 115.256 54.29 115.826 52.87L117.776 48H116.446L115.816 49.77C115.626 50.27 115.276 51.37 115.096 51.79C114.876 51.12 114.626 50.44 114.376 49.77L113.736 48H112.406L114.476 52.97C114.146 53.71 113.776 54.26 113.056 54.26C112.786 54.26 112.586 54.21 112.486 54.18V55.23Z" fill="white"/>
<defs>
<linearGradient id="paint0_linear_3896_8979" x1="70" y1="82" x2="64" y2="88" gradientUnits="userSpaceOnUse">
<stop offset="0.210937" stop-color="#FFBB33"/>
<stop offset="0.539062" stop-color="#E300BD"/>
<stop offset="0.789062" stop-color="#FF006A"/>
</linearGradient>
<linearGradient id="paint1_linear_3896_8979" x1="135" y1="9" x2="129" y2="15" gradientUnits="userSpaceOnUse">
<stop offset="0.210937" stop-color="#FFBB33"/>
<stop offset="0.539062" stop-color="#E300BD"/>
<stop offset="0.789062" stop-color="#FF006A"/>
</linearGradient>
</defs>
</svg>
