<svg width="238" height="173" viewBox="0 0 238 173" fill="none" xmlns="http://www.w3.org/2000/svg">
<rect width="238" height="173" fill="url(#paint0_linear_3810_8590)"/>
<circle cx="41" cy="97" r="20.5" fill="#0D0D0D" stroke="white" stroke-dasharray="3 3"/>
<circle cx="41" cy="97" r="16" fill="white"/>
<path fill-rule="evenodd" clip-rule="evenodd" d="M32 97C32 101.962 36.0383 106 40.9986 106C42.3049 106.001 43.5958 105.717 44.7811 105.168C45.9664 104.619 47.0176 103.818 47.8616 102.82L46.3616 101.56C45.7012 102.338 44.8794 102.963 43.9532 103.391C43.0271 103.819 42.0189 104.04 40.9986 104.04C37.1164 104.04 33.9589 100.882 33.9589 97C33.9589 93.1183 37.1169 89.9603 40.9986 89.9603C44.8803 89.9603 48.0383 93.1183 48.0383 97C48.0383 97.2506 47.9387 97.491 47.7615 97.6682C47.5843 97.8454 47.3439 97.945 47.0933 97.945C46.8426 97.945 46.6023 97.8454 46.4251 97.6682C46.2478 97.491 46.1483 97.2506 46.1483 97C46.1484 95.7473 45.6916 94.5375 44.8635 93.5976C44.0353 92.6576 42.8928 92.0519 41.6501 91.8942C40.4073 91.7364 39.1497 92.0373 38.113 92.7405C37.0763 93.4437 36.3316 94.5009 36.0187 95.7139C35.7057 96.9269 35.8459 98.2124 36.413 99.3294C36.9801 100.446 37.9352 101.318 39.0992 101.781C40.2631 102.244 41.556 102.267 42.7355 101.845C43.915 101.423 44.9001 100.585 45.5061 99.4891L45.53 99.4459L45.5717 99.4717C46.0116 99.7432 46.5159 99.8923 47.0327 99.9035C47.5494 99.9148 48.0598 99.7879 48.5111 99.536C48.9624 99.284 49.3382 98.9161 49.5997 98.4703C49.8612 98.0244 49.9989 97.5169 49.9986 97C49.9986 92.0369 45.9589 88 40.9986 88C36.0383 88 32 92.0383 32 97ZM39.2254 94.3502C39.7503 93.9995 40.3674 93.8124 40.9986 93.8125V93.8097C41.8444 93.8107 42.6553 94.1471 43.2534 94.7452C43.8515 95.3433 44.1879 96.1542 44.1889 97C44.1896 97.6312 44.003 98.2485 43.6527 98.7736C43.3025 99.2988 42.8044 99.7083 42.2213 99.9503C41.6383 100.192 40.9967 100.256 40.3775 100.133C39.7583 100.01 39.1894 99.7067 38.7429 99.2605C38.2963 98.8143 37.9922 98.2458 37.8688 97.6267C37.7455 97.0076 37.8086 96.3659 38.05 95.7827C38.2915 95.1994 38.7006 94.7009 39.2254 94.3502ZM40.1657 98.246C40.4123 98.4108 40.7023 98.4988 40.9989 98.4988C41.3966 98.4982 41.7778 98.3399 42.059 98.0586C42.3402 97.7774 42.4983 97.3961 42.4988 96.9983C42.4987 96.7017 42.4106 96.4118 42.2457 96.1652C42.0808 95.9186 41.8466 95.7265 41.5725 95.613C41.2984 95.4996 40.9969 95.47 40.7059 95.5279C40.415 95.5858 40.1478 95.7287 39.9381 95.9385C39.7284 96.1483 39.5856 96.4156 39.5278 96.7065C39.47 96.9974 39.4997 97.299 39.6132 97.573C39.7268 97.847 39.919 98.0812 40.1657 98.246Z" fill="black"/>
<circle cx="197" cy="41" r="20.5" fill="#0D0D0D" stroke="white" stroke-dasharray="3 3"/>
<circle cx="197" cy="41" r="16" fill="white"/>
<path d="M197 32C201.98 32 206 36.02 206 41C206 45.98 201.98 50 197 50C192.02 50 188 45.98 188 41C188 36.02 192.02 32 197 32ZM197 34.4C193.34 34.4 190.4 37.34 190.4 41C190.4 44.66 193.34 47.6 197 47.6C200.66 47.6 203.6 44.66 203.6 41C203.6 37.34 200.66 34.4 197 34.4ZM194.78 41.36C195.8 41.36 196.64 42.2 196.64 43.22C196.64 44.24 195.8 45.08 194.78 45.08C193.76 45.08 192.92 44.24 192.92 43.22C192.92 42.2 193.76 41.36 194.78 41.36ZM199.22 41.36C200.24 41.36 201.08 42.2 201.08 43.22C201.08 44.24 200.24 45.08 199.22 45.08C198.2 45.08 197.36 44.24 197.36 43.22C197.36 42.2 198.2 41.36 199.22 41.36ZM199.22 36.92C200.24 36.92 201.08 37.76 201.08 38.78C201.08 39.8 200.24 40.64 199.22 40.64C198.2 40.64 197.36 39.8 197.36 38.78C197.36 37.76 198.2 36.92 199.22 36.92ZM194.78 36.92C195.8 36.92 196.64 37.76 196.64 38.78C196.64 39.8 195.8 40.64 194.78 40.64C193.76 40.64 192.92 39.8 192.92 38.78C192.92 37.76 193.76 36.92 194.78 36.92Z" fill="black"/>
<circle cx="119" cy="69" r="48.5" fill="#0D0D0D" stroke="white" stroke-dasharray="3 3"/>
<circle cx="87" cy="105" r="3" fill="url(#paint1_linear_3810_8590)"/>
<circle cx="87" cy="105" r="3" fill="url(#paint2_linear_3810_8590)"/>
<circle cx="152" cy="32" r="3" fill="url(#paint3_linear_3810_8590)"/>
<circle cx="152" cy="32" r="3" fill="url(#paint4_linear_3810_8590)"/>
<rect x="39" y="38" width="74" height="6" rx="3" fill="#333333"/>
<rect x="119" y="38" width="14" height="6" rx="3" fill="#333333"/>
<rect x="107" y="94" width="14" height="6" rx="3" fill="#333333"/>
<rect x="127" y="94" width="74" height="6" rx="3" fill="#333333"/>
<rect x="89" y="54" width="61" height="30" rx="15" fill="#FFE14D"/>
<path d="M100.97 73H102.29L102.93 71.57H105.87L106.51 73H107.83L104.42 65.69H104.38L100.97 73ZM103.34 70.63C103.73 69.75 104.1 68.83 104.41 68.08C104.71 68.9 105.05 69.71 105.46 70.63H103.34ZM111.347 70.37C112.947 70.37 113.957 69.55 113.957 68.09C113.957 66.62 112.947 65.8 111.347 65.8H109.067V73H110.327V70.37H111.347ZM111.357 66.86C112.167 66.86 112.687 67.29 112.687 68.09C112.687 68.88 112.187 69.31 111.407 69.31H110.327V66.86H111.357ZM116.743 73V65.8H115.483V73H116.743ZM122.319 65.8H121.059V73H122.319V70.88L123.489 69.59L125.549 73H126.979L124.339 68.75L126.939 65.8H125.429L122.319 69.42V65.8ZM129.759 67.87C128.349 67.87 127.259 68.99 127.259 70.5C127.259 72.04 128.329 73.13 129.989 73.13C130.829 73.13 131.499 72.93 131.849 72.74V71.67C131.509 71.88 130.779 72.09 130.079 72.09C129.159 72.09 128.559 71.59 128.529 70.75H132.019C132.019 70.66 132.049 70.44 132.049 70.21C132.049 68.97 131.259 67.87 129.759 67.87ZM130.869 70.04H128.529C128.589 69.41 129.019 68.85 129.739 68.85C130.489 68.85 130.879 69.41 130.869 70.04ZM132.486 75.23C132.586 75.27 132.806 75.31 133.046 75.31C133.246 75.32 133.446 75.31 133.656 75.28C134.636 75.09 135.256 74.29 135.826 72.87L137.776 68H136.446L135.816 69.77C135.626 70.27 135.276 71.37 135.096 71.79C134.876 71.12 134.626 70.44 134.376 69.77L133.736 68H132.406L134.476 72.97C134.146 73.71 133.776 74.26 133.056 74.26C132.786 74.26 132.586 74.21 132.486 74.18V75.23Z" fill="black"/>
<defs>
<linearGradient id="paint0_linear_3810_8590" x1="119" y1="0" x2="119" y2="173" gradientUnits="userSpaceOnUse">
<stop stop-color="#1A1A1A"/>
<stop offset="1" stop-color="#1A1A1A" stop-opacity="0.7"/>
</linearGradient>
<linearGradient id="paint1_linear_3810_8590" x1="90" y1="102" x2="84" y2="108" gradientUnits="userSpaceOnUse">
<stop offset="0.210937" stop-color="#FFBB33"/>
<stop offset="0.539062" stop-color="#E300BD"/>
<stop offset="0.789062" stop-color="#FF006A"/>
</linearGradient>
<linearGradient id="paint2_linear_3810_8590" x1="87" y1="102" x2="87" y2="108" gradientUnits="userSpaceOnUse">
<stop offset="0.546667" stop-opacity="0"/>
<stop offset="1" stop-opacity="0.3"/>
</linearGradient>
<linearGradient id="paint3_linear_3810_8590" x1="155" y1="29" x2="149" y2="35" gradientUnits="userSpaceOnUse">
<stop offset="0.210937" stop-color="#FFBB33"/>
<stop offset="0.539062" stop-color="#E300BD"/>
<stop offset="0.789062" stop-color="#FF006A"/>
</linearGradient>
<linearGradient id="paint4_linear_3810_8590" x1="152" y1="29" x2="152" y2="35" gradientUnits="userSpaceOnUse">
<stop offset="0.546667" stop-opacity="0"/>
<stop offset="1" stop-opacity="0.3"/>
</linearGradient>
</defs>
</svg>
