<svg width="198" height="94" viewBox="0 0 198 94" fill="none" xmlns="http://www.w3.org/2000/svg">
<rect width="198" height="6" rx="3" fill="#333333"/>
<rect x="54" y="14" width="86" height="6" rx="3" fill="#333333"/>
<rect y="14" width="46" height="6" rx="3" fill="#333333"/>
<rect y="74" width="105" height="6" rx="3" fill="#333333"/>
<rect x="113" y="74" width="82" height="6" rx="3" fill="#333333"/>
<rect y="88" width="86" height="6" rx="3" fill="#333333"/>
<rect x="94" y="88" width="46" height="6" rx="3" fill="url(#paint0_linear_3810_8509)"/>
<rect x="94" y="88" width="46" height="6" rx="3" fill="url(#paint1_linear_3810_8509)"/>
<rect x="0.5" y="32.5" width="81" height="29" rx="14.5" fill="#0D0D0D"/>
<path d="M13.24 50.04C13.24 51.06 13.82 51.67 14.79 51.67H15.13V50.86H14.92C14.46 50.86 14.19 50.52 14.19 49.94V48.7C14.19 48.03 13.89 47.56 13.4 47.41V47.39C13.89 47.24 14.19 46.77 14.19 46.1V44.86C14.19 44.28 14.46 43.94 14.92 43.94H15.13V43.13H14.79C13.82 43.13 13.24 43.74 13.24 44.76V46C13.24 46.61 12.94 47 12.45 47.04V47.76C12.94 47.8 13.24 48.19 13.24 48.8V50.04ZM17.0193 50.04C17.0193 51.06 17.5993 51.67 18.5693 51.67H18.9093V50.86H18.6993C18.2393 50.86 17.9693 50.52 17.9693 49.94V48.7C17.9693 48.03 17.6693 47.56 17.1793 47.41V47.39C17.6693 47.24 17.9693 46.77 17.9693 46.1V44.86C17.9693 44.28 18.2393 43.94 18.6993 43.94H18.9093V43.13H18.5693C17.5993 43.13 17.0193 43.74 17.0193 44.76V46C17.0193 46.61 16.7193 47 16.2293 47.04V47.76C16.7193 47.8 17.0193 48.19 17.0193 48.8V50.04ZM26.1686 43.8H25.1386L24.1486 46.05C23.6486 47.19 23.2486 48.04 22.8386 49.07C22.4286 48.04 22.0286 47.19 21.5286 46.05L20.5386 43.8H19.5086L22.8286 51.12H22.8486L26.1686 43.8ZM26.0803 47.11C26.3803 46.93 27.0203 46.69 27.7103 46.69C28.5003 46.69 29.0203 46.99 29.0203 47.86V48.11C26.9303 47.82 25.7603 48.43 25.7603 49.65C25.7603 50.57 26.4203 51.12 27.3403 51.12C28.4703 51.12 29.0203 50.15 29.0803 50.01H29.1003C29.1003 50.01 29.0603 50.17 29.0703 50.41L29.0803 51H29.9403V47.81C29.9403 46.56 29.2503 45.88 27.8403 45.88C27.0203 45.88 26.3603 46.1 26.0803 46.25V47.11ZM27.5003 50.37C27.0003 50.37 26.6803 50.06 26.6803 49.62C26.6803 48.94 27.3703 48.5 29.0003 48.76C29.0003 49.54 28.3503 50.37 27.5003 50.37ZM31.5119 51H32.4419V48.82C32.4419 47.85 33.0019 46.78 33.9719 46.78C34.1019 46.78 34.1919 46.8 34.2319 46.81V45.91C34.1919 45.9 34.0719 45.88 33.9319 45.88C33.2119 45.88 32.6819 46.36 32.3919 47.07H32.3819C32.3719 47.04 32.4019 46.89 32.3919 46.7L32.3819 46H31.5119V51ZM35.3807 46V51H36.3107V46H35.3807ZM35.2607 44.55C35.2607 44.88 35.4907 45.11 35.8407 45.11C36.1807 45.11 36.4207 44.88 36.4207 44.55C36.4207 44.21 36.1807 43.98 35.8407 43.98C35.4907 43.98 35.2607 44.21 35.2607 44.55ZM37.9846 47.11C38.2846 46.93 38.9246 46.69 39.6146 46.69C40.4046 46.69 40.9246 46.99 40.9246 47.86V48.11C38.8346 47.82 37.6646 48.43 37.6646 49.65C37.6646 50.57 38.3246 51.12 39.2446 51.12C40.3746 51.12 40.9246 50.15 40.9846 50.01H41.0046C41.0046 50.01 40.9646 50.17 40.9746 50.41L40.9846 51H41.8446V47.81C41.8446 46.56 41.1546 45.88 39.7446 45.88C38.9246 45.88 38.2646 46.1 37.9846 46.25V47.11ZM39.4046 50.37C38.9046 50.37 38.5846 50.06 38.5846 49.62C38.5846 48.94 39.2746 48.5 40.9046 48.76C40.9046 49.54 40.2546 50.37 39.4046 50.37ZM43.4862 51H44.3462L44.3662 50.41C44.3662 50.19 44.3362 50.04 44.3362 50.04H44.3562C44.6162 50.6 45.3162 51.12 46.1262 51.12C47.4462 51.12 48.4462 50.05 48.4462 48.5C48.4462 46.93 47.4462 45.88 46.1462 45.88C45.3362 45.88 44.6762 46.32 44.4062 46.79H44.3862C44.3862 46.79 44.4162 46.64 44.4162 46.38V43.8H43.4862V51ZM45.9962 46.69C46.9262 46.69 47.5462 47.44 47.5462 48.5C47.5462 49.54 46.9262 50.31 45.9962 50.31C45.2462 50.31 44.4262 49.75 44.4262 48.5C44.4262 47.25 45.2462 46.69 45.9962 46.69ZM49.7459 49.72C49.7459 50.73 50.2859 51.12 51.0259 51.12C51.3859 51.12 51.6359 51.05 51.6959 51.03V50.23C51.6359 50.25 51.4559 50.29 51.2559 50.29C50.8459 50.29 50.6759 50.07 50.6759 49.53V43.8H49.7459V49.72ZM54.8716 45.88C53.4916 45.88 52.4216 46.99 52.4216 48.5C52.4216 50.05 53.4916 51.12 55.0716 51.12C55.8816 51.12 56.5516 50.91 56.9416 50.69V49.84C56.5216 50.11 55.8116 50.31 55.1316 50.31C54.0816 50.31 53.4216 49.69 53.3916 48.71V48.7H57.1116C57.1116 48.6 57.1316 48.41 57.1316 48.21C57.1316 46.98 56.3416 45.88 54.8716 45.88ZM56.2116 48.04H53.4016C53.4816 47.32 54.0016 46.66 54.8616 46.66C55.7516 46.66 56.2216 47.32 56.2116 48.04ZM60.7057 49.7C60.7057 50.17 60.2357 50.35 59.7157 50.35C59.2457 50.35 58.6057 50.18 58.1157 49.94V50.79C58.5157 50.98 59.0957 51.12 59.7457 51.12C60.8257 51.12 61.5657 50.62 61.5657 49.71C61.5657 48.87 61.0457 48.48 59.9857 48.13C59.3057 47.91 58.9557 47.72 58.9557 47.32C58.9557 46.87 59.4057 46.67 59.9757 46.67C60.4257 46.67 60.9257 46.83 61.2857 47.02V46.18C60.9457 46.02 60.4157 45.88 59.8757 45.88C58.8357 45.88 58.0857 46.46 58.0857 47.29C58.0857 48.19 58.7057 48.57 59.5957 48.86C60.3357 49.1 60.7057 49.27 60.7057 49.7ZM64.14 44.76C64.14 43.74 63.56 43.13 62.59 43.13H62.25V43.94H62.46C62.92 43.94 63.19 44.28 63.19 44.86V46.1C63.19 46.77 63.49 47.24 63.98 47.39V47.41C63.49 47.56 63.19 48.03 63.19 48.7V49.94C63.19 50.52 62.92 50.86 62.46 50.86H62.25V51.67H62.59C63.56 51.67 64.14 51.06 64.14 50.04V48.8C64.14 48.19 64.44 47.8 64.93 47.76V47.04C64.44 47 64.14 46.61 64.14 46V44.76ZM67.9193 44.76C67.9193 43.74 67.3393 43.13 66.3693 43.13H66.0293V43.94H66.2393C66.6993 43.94 66.9693 44.28 66.9693 44.86V46.1C66.9693 46.77 67.2693 47.24 67.7593 47.39V47.41C67.2693 47.56 66.9693 48.03 66.9693 48.7V49.94C66.9693 50.52 66.6993 50.86 66.2393 50.86H66.0293V51.67H66.3693C67.3393 51.67 67.9193 51.06 67.9193 50.04V48.8C67.9193 48.19 68.2193 47.8 68.7093 47.76V47.04C68.2193 47 67.9193 46.61 67.9193 46V44.76Z" fill="#FFE14D"/>
<rect x="0.5" y="32.5" width="81" height="29" rx="14.5" stroke="white" stroke-dasharray="3 3"/>
<rect x="76" y="32" width="107" height="30" rx="15" fill="white"/>
<path d="M95.7981 44.3981L94.7057 43.3477C94.5765 43.2236 94.4014 43.1538 94.2187 43.1538C94.0361 43.1538 93.8609 43.2236 93.7317 43.3477L92.7998 44.2438L94.8662 46.2307L95.7981 45.3346C95.9273 45.2104 95.9998 45.042 95.9998 44.8664C95.9998 44.6908 95.9273 44.5223 95.7981 44.3981Z" fill="black"/>
<path d="M92.4095 44.6924L88.6635 48.2944L88 50.8462L90.6539 50.2083L94.4 46.6063L92.4095 44.6924Z" fill="black"/>
<path d="M104.55 51.13C106.16 51.13 107.12 50.37 107.12 49.11C107.12 47.97 106.4 47.41 105.08 46.92C103.98 46.52 103.6 46.18 103.6 45.67C103.6 45.12 104.15 44.78 104.97 44.78C105.62 44.78 106.31 44.98 106.72 45.21V44.03C106.29 43.85 105.6 43.67 104.88 43.67C103.42 43.67 102.37 44.43 102.37 45.69C102.37 46.86 103.07 47.42 104.39 47.89C105.49 48.28 105.9 48.59 105.9 49.16C105.9 49.55 105.59 49.81 105.08 49.93C104.87 49.99 104.62 50.01 104.36 50.01C103.64 49.99 102.95 49.75 102.44 49.49V50.72C102.94 50.93 103.72 51.13 104.55 51.13ZM107.54 46V46.97H108.3V49.18C108.3 49.35 108.31 49.52 108.31 49.68C108.37 50.76 109.13 51.13 109.89 51.13C110.43 51.13 110.86 51.02 111.09 50.9V49.88C110.84 49.99 110.5 50.09 110.19 50.09C109.82 50.09 109.5 49.88 109.5 49.26V46.97H110.92V46H109.5V44.5H108.32V46H107.54ZM111.328 53.23C111.428 53.27 111.648 53.31 111.888 53.31C112.088 53.32 112.288 53.31 112.498 53.28C113.478 53.09 114.098 52.29 114.668 50.87L116.618 46H115.288L114.658 47.77C114.468 48.27 114.118 49.37 113.938 49.79C113.718 49.12 113.468 48.44 113.218 47.77L112.578 46H111.248L113.318 50.97C112.988 51.71 112.618 52.26 111.898 52.26C111.628 52.26 111.428 52.21 111.328 52.18V53.23ZM117.399 49.64C117.399 50.72 118.019 51.13 118.819 51.13C119.229 51.13 119.529 51.05 119.629 51.01V49.99C119.549 50.02 119.359 50.07 119.159 50.07C118.799 50.07 118.619 49.88 118.619 49.38V43.8H117.399V49.64ZM122.732 45.87C121.322 45.87 120.232 46.99 120.232 48.5C120.232 50.04 121.302 51.13 122.962 51.13C123.802 51.13 124.472 50.93 124.822 50.74V49.67C124.482 49.88 123.752 50.09 123.052 50.09C122.132 50.09 121.532 49.59 121.502 48.75H124.992C124.992 48.66 125.022 48.44 125.022 48.21C125.022 46.97 124.232 45.87 122.732 45.87ZM123.842 48.04H121.502C121.562 47.41 121.992 46.85 122.712 46.85C123.462 46.85 123.852 47.41 123.842 48.04ZM131.007 43.8H129.787V46.28C129.787 46.55 129.817 46.69 129.817 46.69H129.797C129.527 46.26 128.917 45.87 128.147 45.87C126.867 45.87 125.847 46.89 125.847 48.5C125.847 50.09 126.867 51.13 128.177 51.13C128.947 51.13 129.627 50.66 129.867 50.13H129.887C129.887 50.13 129.857 50.27 129.867 50.48L129.887 51H131.007V43.8ZM128.377 46.91C129.047 46.91 129.757 47.42 129.757 48.5C129.757 49.58 129.047 50.09 128.377 50.09C127.567 50.09 127.007 49.43 127.007 48.5C127.007 47.56 127.567 46.91 128.377 46.91ZM136.052 48.5C136.052 47.57 136.682 46.94 137.582 46.94C138.162 46.94 138.662 47.16 138.972 47.37V46.25C138.722 46.12 138.242 45.87 137.452 45.87C135.882 45.87 134.812 46.99 134.812 48.5C134.812 50.01 135.882 51.13 137.452 51.13C138.242 51.13 138.752 50.87 139.002 50.74V49.63C138.752 49.79 138.222 50.06 137.582 50.06C136.672 50.06 136.052 49.43 136.052 48.5ZM142.403 45.87C140.893 45.87 139.783 46.99 139.783 48.5C139.783 50.01 140.893 51.13 142.403 51.13C143.923 51.13 145.023 50.01 145.023 48.5C145.023 46.99 143.923 45.87 142.403 45.87ZM142.403 50.09C141.573 50.09 140.943 49.44 140.943 48.5C140.943 47.56 141.573 46.91 142.403 46.91C143.243 46.91 143.863 47.56 143.863 48.5C143.863 49.44 143.243 50.09 142.403 50.09ZM146.218 46V51H147.438V48.52C147.438 47.64 148.028 46.98 148.858 46.98C149.538 46.98 149.678 47.5 149.678 48.08V51H150.898V47.87C150.898 46.58 150.348 45.87 149.168 45.87C148.218 45.87 147.558 46.54 147.358 47H147.338C147.338 46.96 147.378 46.83 147.378 46.64L147.348 46H146.218ZM151.68 46V46.97H152.44V49.18C152.44 49.35 152.45 49.52 152.45 49.68C152.51 50.76 153.27 51.13 154.03 51.13C154.57 51.13 155 51.02 155.23 50.9V49.88C154.98 49.99 154.64 50.09 154.33 50.09C153.96 50.09 153.64 49.88 153.64 49.26V46.97H155.06V46H153.64V44.5H152.46V46H151.68ZM158.259 45.87C156.849 45.87 155.759 46.99 155.759 48.5C155.759 50.04 156.829 51.13 158.489 51.13C159.329 51.13 159.999 50.93 160.349 50.74V49.67C160.009 49.88 159.279 50.09 158.579 50.09C157.659 50.09 157.059 49.59 157.029 48.75H160.519C160.519 48.66 160.549 48.44 160.549 48.21C160.549 46.97 159.759 45.87 158.259 45.87ZM159.369 48.04H157.029C157.089 47.41 157.519 46.85 158.239 46.85C158.989 46.85 159.379 47.41 159.369 48.04ZM161.726 46V51H162.946V48.52C162.946 47.64 163.536 46.98 164.366 46.98C165.046 46.98 165.186 47.5 165.186 48.08V51H166.406V47.87C166.406 46.58 165.856 45.87 164.676 45.87C163.726 45.87 163.066 46.54 162.866 47H162.846C162.846 46.96 162.886 46.83 162.886 46.64L162.856 46H161.726ZM167.188 46V46.97H167.948V49.18C167.948 49.35 167.958 49.52 167.958 49.68C168.018 50.76 168.778 51.13 169.538 51.13C170.078 51.13 170.508 51.02 170.738 50.9V49.88C170.488 49.99 170.148 50.09 169.838 50.09C169.468 50.09 169.148 49.88 169.148 49.26V46.97H170.568V46H169.148V44.5H167.968V46H167.188Z" fill="black"/>
<defs>
<linearGradient id="paint0_linear_3810_8509" x1="140" y1="88" x2="93.8456" y2="92.3685" gradientUnits="userSpaceOnUse">
<stop offset="0.210937" stop-color="#FFBB33"/>
<stop offset="0.551829" stop-color="#E300BD"/>
<stop offset="0.926448" stop-color="#FF006A"/>
</linearGradient>
<linearGradient id="paint1_linear_3810_8509" x1="117" y1="88" x2="117" y2="94" gradientUnits="userSpaceOnUse">
<stop offset="0.546667" stop-opacity="0"/>
<stop offset="1" stop-opacity="0.3"/>
</linearGradient>
</defs>
</svg>
