<svg width="238" height="173" viewBox="0 0 238 173" fill="none" xmlns="http://www.w3.org/2000/svg">
<rect width="238" height="173" fill="url(#paint0_linear_3810_8589)"/>
<rect x="20" y="20" width="198" height="6" rx="3" fill="#333333"/>
<rect x="74" y="34" width="86" height="6" rx="3" fill="#333333"/>
<rect x="20" y="34" width="46" height="6" rx="3" fill="#333333"/>
<rect x="20" y="94" width="105" height="6" rx="3" fill="#333333"/>
<rect x="133" y="94" width="82" height="6" rx="3" fill="#333333"/>
<rect x="20" y="108" width="86" height="6" rx="3" fill="#333333"/>
<rect x="114" y="108" width="46" height="6" rx="3" fill="url(#paint1_linear_3810_8589)"/>
<rect x="114" y="108" width="46" height="6" rx="3" fill="url(#paint2_linear_3810_8589)"/>
<rect x="20.5" y="52.5" width="81" height="29" rx="14.5" fill="#0D0D0D"/>
<path d="M33.24 70.04C33.24 71.06 33.82 71.67 34.79 71.67H35.13V70.86H34.92C34.46 70.86 34.19 70.52 34.19 69.94V68.7C34.19 68.03 33.89 67.56 33.4 67.41V67.39C33.89 67.24 34.19 66.77 34.19 66.1V64.86C34.19 64.28 34.46 63.94 34.92 63.94H35.13V63.13H34.79C33.82 63.13 33.24 63.74 33.24 64.76V66C33.24 66.61 32.94 67 32.45 67.04V67.76C32.94 67.8 33.24 68.19 33.24 68.8V70.04ZM37.0193 70.04C37.0193 71.06 37.5993 71.67 38.5693 71.67H38.9093V70.86H38.6993C38.2393 70.86 37.9693 70.52 37.9693 69.94V68.7C37.9693 68.03 37.6693 67.56 37.1793 67.41V67.39C37.6693 67.24 37.9693 66.77 37.9693 66.1V64.86C37.9693 64.28 38.2393 63.94 38.6993 63.94H38.9093V63.13H38.5693C37.5993 63.13 37.0193 63.74 37.0193 64.76V66C37.0193 66.61 36.7193 67 36.2293 67.04V67.76C36.7193 67.8 37.0193 68.19 37.0193 68.8V70.04ZM46.1686 63.8H45.1386L44.1486 66.05C43.6486 67.19 43.2486 68.04 42.8386 69.07C42.4286 68.04 42.0286 67.19 41.5286 66.05L40.5386 63.8H39.5086L42.8286 71.12H42.8486L46.1686 63.8ZM46.0803 67.11C46.3803 66.93 47.0203 66.69 47.7103 66.69C48.5003 66.69 49.0203 66.99 49.0203 67.86V68.11C46.9303 67.82 45.7603 68.43 45.7603 69.65C45.7603 70.57 46.4203 71.12 47.3403 71.12C48.4703 71.12 49.0203 70.15 49.0803 70.01H49.1003C49.1003 70.01 49.0603 70.17 49.0703 70.41L49.0803 71H49.9403V67.81C49.9403 66.56 49.2503 65.88 47.8403 65.88C47.0203 65.88 46.3603 66.1 46.0803 66.25V67.11ZM47.5003 70.37C47.0003 70.37 46.6803 70.06 46.6803 69.62C46.6803 68.94 47.3703 68.5 49.0003 68.76C49.0003 69.54 48.3503 70.37 47.5003 70.37ZM51.5119 71H52.4419V68.82C52.4419 67.85 53.0019 66.78 53.9719 66.78C54.1019 66.78 54.1919 66.8 54.2319 66.81V65.91C54.1919 65.9 54.0719 65.88 53.9319 65.88C53.2119 65.88 52.6819 66.36 52.3919 67.07H52.3819C52.3719 67.04 52.4019 66.89 52.3919 66.7L52.3819 66H51.5119V71ZM55.3807 66V71H56.3107V66H55.3807ZM55.2607 64.55C55.2607 64.88 55.4907 65.11 55.8407 65.11C56.1807 65.11 56.4207 64.88 56.4207 64.55C56.4207 64.21 56.1807 63.98 55.8407 63.98C55.4907 63.98 55.2607 64.21 55.2607 64.55ZM57.9846 67.11C58.2846 66.93 58.9246 66.69 59.6146 66.69C60.4046 66.69 60.9246 66.99 60.9246 67.86V68.11C58.8346 67.82 57.6646 68.43 57.6646 69.65C57.6646 70.57 58.3246 71.12 59.2446 71.12C60.3746 71.12 60.9246 70.15 60.9846 70.01H61.0046C61.0046 70.01 60.9646 70.17 60.9746 70.41L60.9846 71H61.8446V67.81C61.8446 66.56 61.1546 65.88 59.7446 65.88C58.9246 65.88 58.2646 66.1 57.9846 66.25V67.11ZM59.4046 70.37C58.9046 70.37 58.5846 70.06 58.5846 69.62C58.5846 68.94 59.2746 68.5 60.9046 68.76C60.9046 69.54 60.2546 70.37 59.4046 70.37ZM63.4862 71H64.3462L64.3662 70.41C64.3662 70.19 64.3362 70.04 64.3362 70.04H64.3562C64.6162 70.6 65.3162 71.12 66.1262 71.12C67.4462 71.12 68.4462 70.05 68.4462 68.5C68.4462 66.93 67.4462 65.88 66.1462 65.88C65.3362 65.88 64.6762 66.32 64.4062 66.79H64.3862C64.3862 66.79 64.4162 66.64 64.4162 66.38V63.8H63.4862V71ZM65.9962 66.69C66.9262 66.69 67.5462 67.44 67.5462 68.5C67.5462 69.54 66.9262 70.31 65.9962 70.31C65.2462 70.31 64.4262 69.75 64.4262 68.5C64.4262 67.25 65.2462 66.69 65.9962 66.69ZM69.7459 69.72C69.7459 70.73 70.2859 71.12 71.0259 71.12C71.3859 71.12 71.6359 71.05 71.6959 71.03V70.23C71.6359 70.25 71.4559 70.29 71.2559 70.29C70.8459 70.29 70.6759 70.07 70.6759 69.53V63.8H69.7459V69.72ZM74.8716 65.88C73.4916 65.88 72.4216 66.99 72.4216 68.5C72.4216 70.05 73.4916 71.12 75.0716 71.12C75.8816 71.12 76.5516 70.91 76.9416 70.69V69.84C76.5216 70.11 75.8116 70.31 75.1316 70.31C74.0816 70.31 73.4216 69.69 73.3916 68.71V68.7H77.1116C77.1116 68.6 77.1316 68.41 77.1316 68.21C77.1316 66.98 76.3416 65.88 74.8716 65.88ZM76.2116 68.04H73.4016C73.4816 67.32 74.0016 66.66 74.8616 66.66C75.7516 66.66 76.2216 67.32 76.2116 68.04ZM80.7057 69.7C80.7057 70.17 80.2357 70.35 79.7157 70.35C79.2457 70.35 78.6057 70.18 78.1157 69.94V70.79C78.5157 70.98 79.0957 71.12 79.7457 71.12C80.8257 71.12 81.5657 70.62 81.5657 69.71C81.5657 68.87 81.0457 68.48 79.9857 68.13C79.3057 67.91 78.9557 67.72 78.9557 67.32C78.9557 66.87 79.4057 66.67 79.9757 66.67C80.4257 66.67 80.9257 66.83 81.2857 67.02V66.18C80.9457 66.02 80.4157 65.88 79.8757 65.88C78.8357 65.88 78.0857 66.46 78.0857 67.29C78.0857 68.19 78.7057 68.57 79.5957 68.86C80.3357 69.1 80.7057 69.27 80.7057 69.7ZM84.14 64.76C84.14 63.74 83.56 63.13 82.59 63.13H82.25V63.94H82.46C82.92 63.94 83.19 64.28 83.19 64.86V66.1C83.19 66.77 83.49 67.24 83.98 67.39V67.41C83.49 67.56 83.19 68.03 83.19 68.7V69.94C83.19 70.52 82.92 70.86 82.46 70.86H82.25V71.67H82.59C83.56 71.67 84.14 71.06 84.14 70.04V68.8C84.14 68.19 84.44 67.8 84.93 67.76V67.04C84.44 67 84.14 66.61 84.14 66V64.76ZM87.9193 64.76C87.9193 63.74 87.3393 63.13 86.3693 63.13H86.0293V63.94H86.2393C86.6993 63.94 86.9693 64.28 86.9693 64.86V66.1C86.9693 66.77 87.2693 67.24 87.7593 67.39V67.41C87.2693 67.56 86.9693 68.03 86.9693 68.7V69.94C86.9693 70.52 86.6993 70.86 86.2393 70.86H86.0293V71.67H86.3693C87.3393 71.67 87.9193 71.06 87.9193 70.04V68.8C87.9193 68.19 88.2193 67.8 88.7093 67.76V67.04C88.2193 67 87.9193 66.61 87.9193 66V64.76Z" fill="#FFE14D"/>
<rect x="20.5" y="52.5" width="81" height="29" rx="14.5" stroke="white" stroke-dasharray="3 3"/>
<rect x="96" y="52" width="107" height="30" rx="15" fill="white"/>
<path d="M115.798 64.3981L114.706 63.3477C114.577 63.2236 114.401 63.1538 114.219 63.1538C114.036 63.1538 113.861 63.2236 113.732 63.3477L112.8 64.2438L114.866 66.2307L115.798 65.3346C115.927 65.2104 116 65.042 116 64.8664C116 64.6908 115.927 64.5223 115.798 64.3981Z" fill="black"/>
<path d="M112.41 64.6924L108.663 68.2944L108 70.8462L110.654 70.2083L114.4 66.6063L112.41 64.6924Z" fill="black"/>
<path d="M124.55 71.13C126.16 71.13 127.12 70.37 127.12 69.11C127.12 67.97 126.4 67.41 125.08 66.92C123.98 66.52 123.6 66.18 123.6 65.67C123.6 65.12 124.15 64.78 124.97 64.78C125.62 64.78 126.31 64.98 126.72 65.21V64.03C126.29 63.85 125.6 63.67 124.88 63.67C123.42 63.67 122.37 64.43 122.37 65.69C122.37 66.86 123.07 67.42 124.39 67.89C125.49 68.28 125.9 68.59 125.9 69.16C125.9 69.55 125.59 69.81 125.08 69.93C124.87 69.99 124.62 70.01 124.36 70.01C123.64 69.99 122.95 69.75 122.44 69.49V70.72C122.94 70.93 123.72 71.13 124.55 71.13ZM127.54 66V66.97H128.3V69.18C128.3 69.35 128.31 69.52 128.31 69.68C128.37 70.76 129.13 71.13 129.89 71.13C130.43 71.13 130.86 71.02 131.09 70.9V69.88C130.84 69.99 130.5 70.09 130.19 70.09C129.82 70.09 129.5 69.88 129.5 69.26V66.97H130.92V66H129.5V64.5H128.32V66H127.54ZM131.328 73.23C131.428 73.27 131.648 73.31 131.888 73.31C132.088 73.32 132.288 73.31 132.498 73.28C133.478 73.09 134.098 72.29 134.668 70.87L136.618 66H135.288L134.658 67.77C134.468 68.27 134.118 69.37 133.938 69.79C133.718 69.12 133.468 68.44 133.218 67.77L132.578 66H131.248L133.318 70.97C132.988 71.71 132.618 72.26 131.898 72.26C131.628 72.26 131.428 72.21 131.328 72.18V73.23ZM137.399 69.64C137.399 70.72 138.019 71.13 138.819 71.13C139.229 71.13 139.529 71.05 139.629 71.01V69.99C139.549 70.02 139.359 70.07 139.159 70.07C138.799 70.07 138.619 69.88 138.619 69.38V63.8H137.399V69.64ZM142.732 65.87C141.322 65.87 140.232 66.99 140.232 68.5C140.232 70.04 141.302 71.13 142.962 71.13C143.802 71.13 144.472 70.93 144.822 70.74V69.67C144.482 69.88 143.752 70.09 143.052 70.09C142.132 70.09 141.532 69.59 141.502 68.75H144.992C144.992 68.66 145.022 68.44 145.022 68.21C145.022 66.97 144.232 65.87 142.732 65.87ZM143.842 68.04H141.502C141.562 67.41 141.992 66.85 142.712 66.85C143.462 66.85 143.852 67.41 143.842 68.04ZM151.007 63.8H149.787V66.28C149.787 66.55 149.817 66.69 149.817 66.69H149.797C149.527 66.26 148.917 65.87 148.147 65.87C146.867 65.87 145.847 66.89 145.847 68.5C145.847 70.09 146.867 71.13 148.177 71.13C148.947 71.13 149.627 70.66 149.867 70.13H149.887C149.887 70.13 149.857 70.27 149.867 70.48L149.887 71H151.007V63.8ZM148.377 66.91C149.047 66.91 149.757 67.42 149.757 68.5C149.757 69.58 149.047 70.09 148.377 70.09C147.567 70.09 147.007 69.43 147.007 68.5C147.007 67.56 147.567 66.91 148.377 66.91ZM156.052 68.5C156.052 67.57 156.682 66.94 157.582 66.94C158.162 66.94 158.662 67.16 158.972 67.37V66.25C158.722 66.12 158.242 65.87 157.452 65.87C155.882 65.87 154.812 66.99 154.812 68.5C154.812 70.01 155.882 71.13 157.452 71.13C158.242 71.13 158.752 70.87 159.002 70.74V69.63C158.752 69.79 158.222 70.06 157.582 70.06C156.672 70.06 156.052 69.43 156.052 68.5ZM162.403 65.87C160.893 65.87 159.783 66.99 159.783 68.5C159.783 70.01 160.893 71.13 162.403 71.13C163.923 71.13 165.023 70.01 165.023 68.5C165.023 66.99 163.923 65.87 162.403 65.87ZM162.403 70.09C161.573 70.09 160.943 69.44 160.943 68.5C160.943 67.56 161.573 66.91 162.403 66.91C163.243 66.91 163.863 67.56 163.863 68.5C163.863 69.44 163.243 70.09 162.403 70.09ZM166.218 66V71H167.438V68.52C167.438 67.64 168.028 66.98 168.858 66.98C169.538 66.98 169.678 67.5 169.678 68.08V71H170.898V67.87C170.898 66.58 170.348 65.87 169.168 65.87C168.218 65.87 167.558 66.54 167.358 67H167.338C167.338 66.96 167.378 66.83 167.378 66.64L167.348 66H166.218ZM171.68 66V66.97H172.44V69.18C172.44 69.35 172.45 69.52 172.45 69.68C172.51 70.76 173.27 71.13 174.03 71.13C174.57 71.13 175 71.02 175.23 70.9V69.88C174.98 69.99 174.64 70.09 174.33 70.09C173.96 70.09 173.64 69.88 173.64 69.26V66.97H175.06V66H173.64V64.5H172.46V66H171.68ZM178.259 65.87C176.849 65.87 175.759 66.99 175.759 68.5C175.759 70.04 176.829 71.13 178.489 71.13C179.329 71.13 179.999 70.93 180.349 70.74V69.67C180.009 69.88 179.279 70.09 178.579 70.09C177.659 70.09 177.059 69.59 177.029 68.75H180.519C180.519 68.66 180.549 68.44 180.549 68.21C180.549 66.97 179.759 65.87 178.259 65.87ZM179.369 68.04H177.029C177.089 67.41 177.519 66.85 178.239 66.85C178.989 66.85 179.379 67.41 179.369 68.04ZM181.726 66V71H182.946V68.52C182.946 67.64 183.536 66.98 184.366 66.98C185.046 66.98 185.186 67.5 185.186 68.08V71H186.406V67.87C186.406 66.58 185.856 65.87 184.676 65.87C183.726 65.87 183.066 66.54 182.866 67H182.846C182.846 66.96 182.886 66.83 182.886 66.64L182.856 66H181.726ZM187.188 66V66.97H187.948V69.18C187.948 69.35 187.958 69.52 187.958 69.68C188.018 70.76 188.778 71.13 189.538 71.13C190.078 71.13 190.508 71.02 190.738 70.9V69.88C190.488 69.99 190.148 70.09 189.838 70.09C189.468 70.09 189.148 69.88 189.148 69.26V66.97H190.568V66H189.148V64.5H187.968V66H187.188Z" fill="black"/>
<defs>
<linearGradient id="paint0_linear_3810_8589" x1="119" y1="0" x2="119" y2="173" gradientUnits="userSpaceOnUse">
<stop stop-color="#1A1A1A"/>
<stop offset="1" stop-color="#1A1A1A" stop-opacity="0.7"/>
</linearGradient>
<linearGradient id="paint1_linear_3810_8589" x1="160" y1="108" x2="113.846" y2="112.369" gradientUnits="userSpaceOnUse">
<stop offset="0.210937" stop-color="#FFBB33"/>
<stop offset="0.551829" stop-color="#E300BD"/>
<stop offset="0.926448" stop-color="#FF006A"/>
</linearGradient>
<linearGradient id="paint2_linear_3810_8589" x1="137" y1="108" x2="137" y2="114" gradientUnits="userSpaceOnUse">
<stop offset="0.546667" stop-opacity="0"/>
<stop offset="1" stop-opacity="0.3"/>
</linearGradient>
</defs>
</svg>
