<svg xmlns="http://www.w3.org/2000/svg" width="32" height="32" fill="none">
  <g clip-path="url(#a)">
    <path fill="#1CB9CE"
      d="M16.18 3c-8.837 0-16 5.14-16 11.479 0 3.644 2.367 6.89 6.057 8.993L3.572 29l6.985-3.772c1.836.489 3.725.734 5.623.73 8.836 0 16-5.14 16-11.48C32.18 8.14 25.016 3 16.18 3ZM7.274 20.125c-.85.013-1.698-.076-2.528-.264a.303.303 0 0 1-.187-.096.316.316 0 0 1-.084-.197v-1.05a.28.28 0 0 1 .08-.197.268.268 0 0 1 .191-.081h.03c.57.073 1.998.146 2.527.146 1.27 0 1.656-.467 1.656-1.314 0-.57-.271-.861-1.214-1.43L5.86 14.488c-1.328-.803-1.683-1.65-1.683-2.671 0-1.606.914-2.774 3.57-2.774.92.007 1.837.096 2.742.264.068.008.132.04.18.09.047.051.075.118.079.188v1.08a.253.253 0 0 1-.147.242.24.24 0 0 1-.096.02h-.028a30.274 30.274 0 0 0-2.813-.145c-1.057 0-1.5.38-1.5 1.037 0 .481.243.773 1.171 1.299l1.714.978c1.57.89 1.985 1.824 1.985 2.978-.004 1.473-.903 3.051-3.76 3.051Zm13.207-.335a.225.225 0 0 1-.072.166.216.216 0 0 1-.17.054h-1.443a.269.269 0 0 1-.17-.1.28.28 0 0 1-.058-.192V12.93c0-.102-.014-.146-.043-.146-.015 0-.043.044-.072.088l-1.813 4a.521.521 0 0 1-.457.248h-.553a.506.506 0 0 1-.457-.248l-1.83-4c-.028-.044-.057-.088-.071-.088-.029 0-.043.044-.043.146v6.788a.28.28 0 0 1-.059.192.269.269 0 0 1-.17.1h-1.442a.212.212 0 0 1-.17-.054.22.22 0 0 1-.073-.166V9.745c0-.155.06-.303.168-.412a.566.566 0 0 1 .403-.172h1.171c.111.003.22.037.313.099a.61.61 0 0 1 .215.251l2.158 4.467c.072.133.1.205.158.205.057 0 .086-.073.157-.205l2.158-4.467a.609.609 0 0 1 .215-.251.59.59 0 0 1 .313-.1h1.171c.152.001.297.063.404.173.107.109.167.257.167.412l-.005 10.043Zm3.385.335c-.85.013-1.698-.076-2.527-.264a.303.303 0 0 1-.188-.096.317.317 0 0 1-.084-.197v-1.05a.28.28 0 0 1 .08-.197.268.268 0 0 1 .192-.081h.028c.571.073 2 .146 2.528.146 1.27 0 1.656-.467 1.656-1.314 0-.57-.271-.861-1.213-1.43l-1.886-1.154c-1.328-.803-1.683-1.65-1.683-2.671 0-1.606.914-2.774 3.57-2.774.92.007 1.837.096 2.742.264.068.008.132.04.18.09.047.051.075.118.079.188v1.08a.254.254 0 0 1-.067.185.243.243 0 0 1-.176.078h-.029a30.267 30.267 0 0 0-2.813-.146c-1.056 0-1.5.38-1.5 1.037 0 .481.244.773 1.172 1.299l1.713.978c1.571.89 1.986 1.824 1.986 2.978-.003 1.473-.902 3.051-3.758 3.051h-.002Z" />
  </g>
  <defs>
    <clipPath id="a">
      <path fill="#fff" d="M0 0h32v32H0z" />
    </clipPath>
  </defs>
</svg>
