<svg xmlns="http://www.w3.org/2000/svg" width="32" height="32" fill="none">
  <mask id="a" width="24" height="32" x="4" y="0" maskUnits="userSpaceOnUse"
    style="mask-type:luminance">
    <path fill="#fff"
      d="M24.393 7.124a.73.73 0 0 0-.834-.604.664.664 0 0 0-.392.2l-3.768 3.76-2.946-5.626a.725.725 0 0 0-.978-.308.84.84 0 0 0-.308.308L13.56 7.933 9.51.373A.718.718 0 0 0 8.53.09a.743.743 0 0 0-.38.519L4.227 25.678l10.475 5.905a2.191 2.191 0 0 0 2.107 0l10.566-5.881-2.982-18.578Z" />
  </mask>
  <g mask="url(#a)">
    <path fill="#FFA000"
      d="M4.227 25.677 8.15.608a.712.712 0 0 1 .81-.591.76.76 0 0 1 .524.374l4.052 7.565 1.606-3.079a.723.723 0 0 1 .978-.308c.128.074.234.18.308.308l10.928 20.8H4.227Z" />
    <path fill="url(#b)" d="M17.613.186-1.562-1.45v34.729l5.79-7.602L17.613.186Z" opacity=".12" />
    <path fill="#F57C00" d="M17.775 15.914 13.55 7.938l-9.322 17.74 13.548-9.764Z" />
    <path fill="url(#c)" d="M-1.563-1.45h34.73v34.729h-34.73v-34.73Z" opacity=".2" />
    <path fill="#FFCA28"
      d="M27.381 25.678 24.362 7.106a.73.73 0 0 0-.833-.604.682.682 0 0 0-.392.2L4.227 25.677l10.475 5.905a2.192 2.192 0 0 0 2.107 0l10.572-5.905Z" />
    <path fill="#fff" fill-opacity=".2"
      d="M24.393 7.124a.73.73 0 0 0-.834-.604.664.664 0 0 0-.392.2l-3.768 3.76-2.946-5.626a.725.725 0 0 0-.978-.308.84.84 0 0 0-.308.308L13.56 7.933 9.51.373A.718.718 0 0 0 8.53.09a.743.743 0 0 0-.38.519L4.227 25.678l.108.054L19.43 10.638l3.767-3.762a.713.713 0 0 1 1.027 0 .646.646 0 0 1 .199.399l2.97 18.39h.037L24.393 7.125ZM4.263 25.642 8.15.79A.706.706 0 0 1 9.266.314c.09.064.166.149.22.247l4.05 7.565 1.607-3.08a.718.718 0 0 1 .978-.307.84.84 0 0 1 .308.308l2.892 5.5L4.263 25.642Z" />
    <path fill="#A52714"
      d="M16.807 31.377a2.192 2.192 0 0 1-2.113 0L4.242 25.544v.163L14.7 31.582a2.192 2.192 0 0 0 2.108 0l10.566-5.88v-.164l-10.566 5.839Z"
      opacity=".2" />
    <path fill="url(#d)"
      d="M24.393 7.124a.73.73 0 0 0-.834-.604.664.664 0 0 0-.392.2l-3.768 3.76-2.946-5.626a.725.725 0 0 0-.978-.308.84.84 0 0 0-.308.308L13.56 7.933 9.51.373A.718.718 0 0 0 8.53.09a.743.743 0 0 0-.38.519L4.227 25.678l10.475 5.905a2.191 2.191 0 0 0 2.107 0l10.566-5.881-2.982-18.578Z" />
  </g>
  <defs>
    <linearGradient id="b" x1="8.738" x2="7.295" y1="17.098" y2="16.343"
      gradientUnits="userSpaceOnUse">
      <stop stop-color="#A52714" />
      <stop offset=".4" stop-color="#A52714" stop-opacity=".5" />
      <stop offset=".8" stop-color="#A52714" stop-opacity="0" />
    </linearGradient>
    <linearGradient id="c" x1="14.884" x2="14.238" y1="14.991" y2="14.345"
      gradientUnits="userSpaceOnUse">
      <stop stop-color="#A52714" stop-opacity=".8" />
      <stop offset=".5" stop-color="#A52714" stop-opacity=".21" />
      <stop offset="1" stop-color="#A52714" stop-opacity="0" />
    </linearGradient>
    <linearGradient id="d" x1="3.61" x2="27.775" y1="5.6" y2="29.781" gradientUnits="userSpaceOnUse">
      <stop stop-color="#fff" stop-opacity=".1" />
      <stop offset="1" stop-color="#fff" stop-opacity="0" />
    </linearGradient>
  </defs>
</svg>
