<?xml version="1.0" encoding="UTF-8"?>
<svg xmlns="http://www.w3.org/2000/svg" xmlns:xlink="http://www.w3.org/1999/xlink" width="32px" height="32px" viewBox="0 0 32 32" version="1.1">
<defs>
<linearGradient id="linear0" gradientUnits="userSpaceOnUse" x1="0.499948" y1="1.224504" x2="0.499948" y2="0.31139" gradientTransform="matrix(29.359375,0,0,31.90625,1.320312,0)">
<stop offset="0" style="stop-color:rgb(100%,94.509804%,0%);stop-opacity:1;"/>
<stop offset="1" style="stop-color:rgb(94.117647%,35.294118%,15.686275%);stop-opacity:1;"/>
</linearGradient>
</defs>
<g id="surface1">
<path style=" stroke:none;fill-rule:nonzero;fill:url(#linear0);" d="M 30.632812 14.082031 C 30.582031 13.546875 30.492188 12.929688 30.316406 12.246094 C 30.140625 11.566406 29.878906 10.820312 29.492188 10.046875 C 29.105469 9.273438 28.601562 8.472656 27.953125 7.691406 C 27.699219 7.382812 27.417969 7.085938 27.117188 6.792969 C 27.566406 5.011719 26.574219 3.464844 26.574219 3.464844 C 24.859375 3.359375 23.769531 4 23.363281 4.289062 C 23.292969 4.261719 23.234375 4.226562 23.164062 4.203125 C 22.871094 4.085938 22.574219 3.972656 22.257812 3.875 C 21.949219 3.78125 21.632812 3.691406 21.308594 3.613281 C 20.984375 3.535156 20.65625 3.472656 20.324219 3.417969 C 20.261719 3.410156 20.207031 3.402344 20.148438 3.394531 C 19.398438 1.003906 17.253906 0 17.253906 0 C 14.855469 1.519531 14.40625 3.648438 14.40625 3.648438 C 14.40625 3.648438 14.398438 3.691406 14.382812 3.769531 C 14.25 3.804688 14.117188 3.851562 13.984375 3.886719 C 13.800781 3.9375 13.617188 4.007812 13.441406 4.078125 C 13.257812 4.148438 13.082031 4.21875 12.894531 4.296875 C 12.535156 4.457031 12.175781 4.632812 11.824219 4.824219 C 11.480469 5.019531 11.144531 5.230469 10.820312 5.449219 C 10.777344 5.433594 10.734375 5.414062 10.734375 5.414062 C 7.410156 4.148438 4.464844 5.667969 4.464844 5.667969 C 4.195312 9.203125 5.792969 11.425781 6.109375 11.832031 C 6.03125 12.050781 5.960938 12.269531 5.890625 12.492188 C 5.644531 13.289062 5.460938 14.109375 5.34375 14.960938 C 5.328125 15.082031 5.308594 15.207031 5.300781 15.328125 C 2.222656 16.851562 1.320312 19.953125 1.320312 19.953125 C 3.875 22.898438 6.867188 23.082031 6.867188 23.082031 C 6.867188 23.082031 6.875 23.074219 6.875 23.074219 C 7.253906 23.75 7.691406 24.390625 8.183594 25 C 8.394531 25.253906 8.605469 25.492188 8.835938 25.730469 C 7.902344 28.402344 8.964844 30.617188 8.964844 30.617188 C 11.8125 30.722656 13.6875 29.367188 14.082031 29.058594 C 14.363281 29.15625 14.652344 29.246094 14.945312 29.316406 C 15.824219 29.542969 16.71875 29.675781 17.617188 29.710938 C 17.835938 29.71875 18.0625 29.726562 18.285156 29.71875 L 18.601562 29.71875 L 18.742188 29.710938 L 18.742188 29.71875 C 20.085938 31.636719 22.441406 31.90625 22.441406 31.90625 C 24.121094 30.140625 24.21875 28.382812 24.21875 28.003906 C 24.21875 28.003906 24.21875 27.996094 24.21875 27.980469 C 24.21875 27.945312 24.21875 27.925781 24.21875 27.925781 C 24.21875 27.898438 24.21875 27.875 24.21875 27.847656 C 24.570312 27.601562 24.902344 27.335938 25.21875 27.046875 C 25.886719 26.441406 26.476562 25.746094 26.96875 25 C 27.011719 24.929688 27.054688 24.859375 27.101562 24.789062 C 29 24.894531 30.34375 23.609375 30.34375 23.609375 C 30.027344 21.632812 28.902344 20.664062 28.664062 20.480469 C 28.664062 20.480469 28.65625 20.472656 28.636719 20.464844 C 28.621094 20.453125 28.621094 20.445312 28.621094 20.445312 C 28.613281 20.4375 28.59375 20.429688 28.578125 20.417969 C 28.585938 20.296875 28.59375 20.183594 28.601562 20.058594 C 28.621094 19.847656 28.621094 19.628906 28.621094 19.417969 L 28.621094 19.136719 C 28.621094 19.082031 28.621094 19.101562 28.621094 19.082031 L 28.613281 18.953125 L 28.601562 18.777344 C 28.601562 18.714844 28.59375 18.660156 28.585938 18.609375 C 28.578125 18.554688 28.578125 18.496094 28.566406 18.441406 L 28.550781 18.273438 L 28.523438 18.109375 C 28.488281 17.886719 28.453125 17.675781 28.402344 17.457031 C 28.199219 16.605469 27.863281 15.796875 27.433594 15.066406 C 26.996094 14.335938 26.449219 13.695312 25.824219 13.148438 C 25.210938 12.605469 24.515625 12.164062 23.796875 11.839844 C 23.066406 11.515625 22.308594 11.304688 21.554688 11.207031 C 21.175781 11.15625 20.796875 11.136719 20.417969 11.144531 L 20.242188 11.144531 C 20.234375 11.144531 20.191406 11.144531 20.199219 11.144531 L 20.136719 11.144531 L 19.996094 11.15625 C 19.945312 11.15625 19.890625 11.164062 19.847656 11.164062 C 19.65625 11.179688 19.460938 11.207031 19.277344 11.242188 C 18.519531 11.382812 17.808594 11.65625 17.183594 12.035156 C 16.5625 12.410156 16.015625 12.878906 15.578125 13.40625 C 15.136719 13.933594 14.792969 14.519531 14.558594 15.128906 C 14.320312 15.734375 14.1875 16.367188 14.152344 16.972656 C 14.144531 17.125 14.144531 17.28125 14.144531 17.429688 C 14.144531 17.464844 14.144531 17.511719 14.144531 17.546875 L 14.152344 17.667969 C 14.160156 17.738281 14.160156 17.816406 14.171875 17.886719 C 14.195312 18.195312 14.257812 18.496094 14.335938 18.777344 C 14.503906 19.347656 14.769531 19.867188 15.09375 20.304688 C 15.417969 20.746094 15.8125 21.105469 16.226562 21.394531 C 16.640625 21.675781 17.089844 21.878906 17.527344 22.011719 C 17.96875 22.140625 18.40625 22.195312 18.820312 22.195312 C 18.871094 22.195312 18.925781 22.195312 18.96875 22.195312 C 18.996094 22.195312 19.023438 22.195312 19.046875 22.195312 C 19.074219 22.195312 19.101562 22.195312 19.128906 22.1875 C 19.171875 22.1875 19.214844 22.175781 19.257812 22.175781 C 19.269531 22.175781 19.285156 22.175781 19.292969 22.167969 L 19.339844 22.160156 C 19.363281 22.160156 19.390625 22.152344 19.417969 22.152344 C 19.46875 22.140625 19.515625 22.132812 19.566406 22.125 C 19.621094 22.117188 19.664062 22.105469 19.707031 22.089844 C 19.804688 22.070312 19.890625 22.035156 19.980469 22.011719 C 20.15625 21.949219 20.332031 21.878906 20.480469 21.800781 C 20.640625 21.71875 20.78125 21.625 20.921875 21.535156 C 20.957031 21.507812 21 21.484375 21.035156 21.449219 C 21.175781 21.332031 21.203125 21.121094 21.089844 20.980469 C 20.992188 20.859375 20.816406 20.824219 20.675781 20.902344 C 20.640625 20.921875 20.605469 20.9375 20.570312 20.957031 C 20.445312 21.015625 20.324219 21.070312 20.191406 21.113281 C 20.058594 21.15625 19.917969 21.191406 19.777344 21.21875 C 19.707031 21.226562 19.636719 21.238281 19.558594 21.246094 C 19.523438 21.246094 19.488281 21.253906 19.445312 21.253906 C 19.410156 21.253906 19.363281 21.253906 19.339844 21.253906 C 19.304688 21.253906 19.269531 21.253906 19.234375 21.253906 C 19.1875 21.253906 19.144531 21.253906 19.101562 21.246094 C 19.101562 21.246094 19.074219 21.246094 19.09375 21.246094 L 19.046875 21.246094 C 19.03125 21.246094 19.003906 21.246094 18.988281 21.238281 C 18.941406 21.226562 18.90625 21.226562 18.863281 21.21875 C 18.539062 21.175781 18.214844 21.078125 17.90625 20.9375 C 17.589844 20.796875 17.289062 20.605469 17.019531 20.359375 C 16.746094 20.113281 16.507812 19.820312 16.324219 19.488281 C 16.140625 19.152344 16.007812 18.785156 15.945312 18.398438 C 15.917969 18.203125 15.902344 18.003906 15.910156 17.808594 C 15.910156 17.757812 15.917969 17.703125 15.917969 17.652344 C 15.917969 17.667969 15.917969 17.640625 15.917969 17.640625 L 15.917969 17.582031 C 15.917969 17.554688 15.929688 17.527344 15.929688 17.5 C 15.9375 17.394531 15.953125 17.289062 15.972656 17.183594 C 16.121094 16.339844 16.542969 15.515625 17.195312 14.890625 C 17.359375 14.730469 17.535156 14.589844 17.722656 14.460938 C 17.90625 14.328125 18.109375 14.214844 18.320312 14.117188 C 18.53125 14.019531 18.742188 13.941406 18.96875 13.878906 C 19.1875 13.816406 19.417969 13.78125 19.65625 13.757812 C 19.769531 13.746094 19.882812 13.738281 20.007812 13.738281 C 20.042969 13.738281 20.058594 13.738281 20.085938 13.738281 L 20.242188 13.738281 C 20.269531 13.738281 20.242188 13.738281 20.253906 13.738281 L 20.277344 13.738281 L 20.375 13.746094 C 20.628906 13.765625 20.878906 13.800781 21.125 13.863281 C 21.617188 13.96875 22.097656 14.152344 22.546875 14.398438 C 23.445312 14.898438 24.207031 15.671875 24.675781 16.605469 C 24.910156 17.070312 25.078125 17.570312 25.15625 18.089844 C 25.175781 18.222656 25.191406 18.355469 25.203125 18.484375 L 25.21875 18.679688 C 25.21875 18.714844 25.21875 18.75 25.21875 18.777344 C 25.21875 18.8125 25.21875 18.847656 25.21875 18.871094 L 25.21875 19.058594 C 25.21875 19.117188 25.210938 19.222656 25.210938 19.285156 C 25.203125 19.425781 25.183594 19.574219 25.167969 19.714844 C 25.148438 19.855469 25.121094 19.996094 25.097656 20.136719 C 25.070312 20.277344 25.035156 20.417969 25 20.550781 C 24.929688 20.824219 24.839844 21.097656 24.734375 21.367188 C 24.523438 21.894531 24.242188 22.40625 23.910156 22.871094 C 23.234375 23.804688 22.308594 24.558594 21.253906 25.042969 C 20.726562 25.28125 20.171875 25.457031 19.601562 25.542969 C 19.320312 25.597656 19.03125 25.625 18.742188 25.632812 L 18.335938 25.632812 C 18.371094 25.632812 18.328125 25.632812 18.328125 25.632812 L 18.300781 25.632812 C 18.144531 25.632812 17.992188 25.625 17.835938 25.605469 C 17.21875 25.5625 16.613281 25.449219 16.015625 25.28125 C 15.425781 25.113281 14.855469 24.875 14.3125 24.59375 C 13.230469 24.015625 12.253906 23.222656 11.496094 22.265625 C 11.121094 21.789062 10.785156 21.273438 10.511719 20.734375 C 10.242188 20.199219 10.019531 19.628906 9.863281 19.058594 C 9.703125 18.476562 9.609375 17.886719 9.5625 17.289062 L 9.554688 17.175781 L 9.554688 16.675781 C 9.554688 16.675781 9.554688 16.683594 9.554688 16.667969 L 9.554688 16.613281 C 9.554688 16.542969 9.554688 16.464844 9.554688 16.394531 C 9.5625 16.101562 9.589844 15.796875 9.625 15.496094 C 9.660156 15.199219 9.714844 14.890625 9.773438 14.589844 C 9.835938 14.292969 9.90625 13.992188 9.996094 13.695312 C 10.160156 13.105469 10.371094 12.535156 10.617188 12 C 11.121094 10.925781 11.769531 9.96875 12.554688 9.203125 C 12.746094 9.011719 12.949219 8.835938 13.160156 8.660156 C 13.371094 8.492188 13.589844 8.332031 13.820312 8.183594 C 14.039062 8.035156 14.277344 7.902344 14.511719 7.777344 C 14.628906 7.71875 14.75 7.65625 14.875 7.601562 C 14.933594 7.578125 14.996094 7.550781 15.058594 7.523438 C 15.121094 7.496094 15.179688 7.472656 15.242188 7.445312 C 15.488281 7.339844 15.742188 7.25 16.007812 7.171875 C 16.070312 7.15625 16.140625 7.136719 16.199219 7.109375 C 16.261719 7.09375 16.332031 7.074219 16.394531 7.058594 C 16.527344 7.023438 16.65625 6.988281 16.789062 6.960938 C 16.851562 6.945312 16.921875 6.933594 16.992188 6.917969 C 17.0625 6.898438 17.125 6.890625 17.195312 6.875 C 17.265625 6.863281 17.324219 6.847656 17.394531 6.839844 L 17.492188 6.820312 L 17.597656 6.804688 C 17.667969 6.792969 17.730469 6.785156 17.800781 6.777344 C 17.878906 6.769531 17.949219 6.757812 18.027344 6.75 C 18.089844 6.742188 18.195312 6.734375 18.257812 6.722656 C 18.300781 6.714844 18.355469 6.714844 18.398438 6.707031 L 18.496094 6.699219 L 18.539062 6.6875 L 18.589844 6.6875 C 18.671875 6.679688 18.742188 6.679688 18.820312 6.671875 L 18.933594 6.664062 C 18.933594 6.664062 18.976562 6.664062 18.941406 6.664062 L 19.023438 6.664062 C 19.082031 6.664062 19.152344 6.652344 19.214844 6.652344 C 19.46875 6.644531 19.734375 6.644531 19.988281 6.652344 C 20.5 6.671875 21 6.734375 21.484375 6.820312 C 22.460938 7.003906 23.375 7.3125 24.207031 7.726562 C 25.042969 8.128906 25.78125 8.632812 26.433594 9.175781 C 26.476562 9.210938 26.511719 9.246094 26.554688 9.28125 C 26.589844 9.316406 26.632812 9.351562 26.667969 9.386719 C 26.75 9.457031 26.820312 9.527344 26.898438 9.597656 C 26.976562 9.667969 27.046875 9.738281 27.117188 9.808594 C 27.1875 9.878906 27.257812 9.949219 27.328125 10.03125 C 27.601562 10.320312 27.855469 10.609375 28.085938 10.910156 C 28.542969 11.496094 28.910156 12.09375 29.203125 12.65625 C 29.21875 12.691406 29.238281 12.726562 29.253906 12.761719 C 29.273438 12.796875 29.289062 12.832031 29.308594 12.867188 C 29.34375 12.9375 29.378906 13.007812 29.402344 13.078125 C 29.4375 13.148438 29.464844 13.210938 29.5 13.28125 C 29.527344 13.351562 29.5625 13.414062 29.589844 13.484375 C 29.695312 13.746094 29.800781 14.003906 29.878906 14.238281 C 30.011719 14.625 30.105469 14.96875 30.1875 15.269531 C 30.210938 15.390625 30.328125 15.46875 30.449219 15.453125 C 30.582031 15.445312 30.679688 15.339844 30.679688 15.207031 C 30.6875 14.890625 30.679688 14.511719 30.632812 14.082031 Z M 30.632812 14.082031 "/>
</g>
</svg>
