<svg xmlns="http://www.w3.org/2000/svg" width="32" height="32" fill="none">
  <g fill="#F15C22" clip-path="url(#a)">
    <path
      d="M19.19 13.787v4.35c0 .516-.443.885-.885.885h-4.35c-.516 0-.885-.443-.885-.885v-4.35c0-.516.443-.885.885-.885h4.35c.516 0 .885.369.885.885Z" />
    <path
      d="M23.613 8.478c-1.254-1.253-4.203-2.064-7.52-2.064-3.318 0-6.267.811-7.52 2.064-1.254 1.254-2.065 4.203-2.065 7.52 0 3.318.81 6.268 2.064 7.52 1.254 1.254 4.203 2.065 7.52 2.065 3.318 0 6.267-.81 7.52-2.064.59-.59 1.107-1.696 1.475-2.95.369-1.326.59-2.875.59-4.497-.074-3.391-.811-6.34-2.064-7.594Zm-2.95 12.092c-.294.295-1.032 1.032-4.644 1.032-3.613 0-4.35-.811-4.645-1.032-.221-.295-.959-1.032-.959-4.645 0-3.613.811-4.35 1.033-4.645.22-.295 1.032-1.032 4.644-1.032 3.613 0 4.35.81 4.645 1.032.222.295 1.033 1.032 1.033 4.645 0 3.613-.811 4.35-1.107 4.645Z" />
    <path
      d="M19.19 13.787v4.35c0 .516-.443.885-.885.885h-4.35c-.516 0-.885-.443-.885-.885v-4.35c0-.516.443-.885.885-.885h4.35c.516 0 .885.369.885.885Z" />
    <path
      d="M19.19 13.787v4.35c0 .516-.443.885-.885.885h-4.35c-.516 0-.885-.443-.885-.885v-4.35c0-.516.443-.885.885-.885h4.35c.516 0 .885.369.885.885Z" />
    <path
      d="M19.19 13.787v4.35c0 .516-.443.885-.885.885h-4.35c-.516 0-.885-.443-.885-.885v-4.35c0-.516.443-.885.885-.885h4.35c.516 0 .885.369.885.885Z" />
    <path
      d="M23.613 8.478c-1.254-1.253-4.203-2.064-7.52-2.064-3.318 0-6.267.811-7.52 2.064-1.254 1.254-2.065 4.203-2.065 7.52 0 3.318.81 6.268 2.064 7.52 1.254 1.254 4.203 2.065 7.52 2.065 3.318 0 6.267-.81 7.52-2.064.59-.59 1.107-1.696 1.475-2.95.369-1.326.59-2.875.59-4.497-.074-3.391-.811-6.34-2.064-7.594Zm-2.95 12.092c-.294.295-1.032 1.032-4.644 1.032-3.613 0-4.35-.811-4.645-1.032-.221-.295-.959-1.032-.959-4.645 0-3.613.811-4.35 1.033-4.645.22-.295 1.032-1.032 4.644-1.032 3.613 0 4.35.81 4.645 1.032.222.295 1.033 1.032 1.033 4.645 0 3.613-.811 4.35-1.107 4.645Z" />
    <path
      d="M16.093 0c-8.848 0-16 7.152-16 15.999 0 8.774 7.079 15.851 15.778 15.999 8.921.147 16.368-7.3 16.22-16.22C31.945 7.078 24.867 0 16.094 0Zm9.142 25.215c-1.77 1.77-5.161 2.802-9.142 2.802-3.982 0-7.447-1.033-9.143-2.802-1.769-1.77-2.801-5.161-2.801-9.142C4.149 12.09 5.18 8.7 6.95 6.93c1.77-1.77 5.161-2.801 9.143-2.801 3.981 0 7.372 1.032 9.142 2.801 1.77 1.77 2.802 5.161 2.802 9.143 0 3.98-1.033 7.372-2.802 9.142Z" />
  </g>
  <defs>
    <clipPath id="a">
      <path fill="#fff" d="M0 0h32v32H0z" />
    </clipPath>
  </defs>
</svg>
