<svg width="32" height="32" viewBox="0 0 32 32" fill="none" xmlns="http://www.w3.org/2000/svg">
<g clip-path="url(#clip0_42_4)">
<path d="M28.7125 7.79348C27.4286 7.79348 26.2809 8.43913 25.5805 9.41739L20.8535 16.0891C20.6784 16.3435 20.3866 16.5 20.0754 16.5C19.5502 16.5 19.1222 16.0696 19.1222 15.5413C19.1222 15.3457 19.1805 15.15 19.2778 15.013L23.2656 9.00652C23.6742 8.4 23.9076 7.65652 23.9076 6.85435C23.9076 4.72174 22.1957 3 20.0754 3H0V6.85435H17.1964C17.1964 7.91087 16.3404 8.79131 15.2705 8.79131H0C0 10.1609 0.291789 11.4717 0.797564 12.6457H13.3447C13.3447 13.7022 12.4888 14.5826 11.4188 14.5826H1.90638C3.65714 16.9304 6.4389 18.437 9.59027 18.437H14.3173C14.8425 18.437 15.2705 18.8674 15.2705 19.3957C15.2705 19.9239 14.8425 20.3543 14.3173 20.3543H9.59027L3.17082 30H14.7842C20.0948 30 24.6079 26.5174 26.1836 21.7043L28.3429 15.1109C29.0432 12.9783 30.3271 11.1 32 9.67174C31.3386 8.55652 30.1131 7.79348 28.7125 7.79348ZM28.7125 10.4543C28.3234 10.4543 27.9927 10.1217 27.9927 9.73043C27.9927 9.33913 28.3234 9.00652 28.7125 9.00652C29.1015 9.00652 29.4322 9.33913 29.4322 9.73043C29.4322 10.1217 29.121 10.4543 28.7125 10.4543Z" fill="#0089FF"/>
</g>
<defs>
<clipPath id="clip0_42_4">
<rect width="32" height="27" fill="white" transform="translate(0 3)"/>
</clipPath>
</defs>
</svg>
