<svg xmlns="http://www.w3.org/2000/svg" width="32" height="32" fill="none">
  <rect width="31" height="31" x=".5" y=".5" stroke="#fff" rx="4.5" />
  <path fill="#fff"
    d="M7.662 14.855a.719.719 0 0 0-.293-.534c-.172-.127-.406-.19-.701-.19-.201 0-.37.028-.509.085a.715.715 0 0 0-.318.23.554.554 0 0 0-.108.335.48.48 0 0 0 .065.273c.05.078.117.145.202.202.085.055.184.103.295.145.112.04.232.073.358.102l.523.125c.254.057.487.132.699.227.212.095.396.211.551.35.155.138.276.3.36.488.088.188.133.403.134.645a1.609 1.609 0 0 1-.272.926 1.73 1.73 0 0 1-.773.605c-.335.142-.74.213-1.213.213-.47 0-.879-.072-1.227-.216a1.798 1.798 0 0 1-.813-.639c-.193-.284-.294-.635-.304-1.054h1.19c.014.195.07.358.168.489.1.129.234.226.4.293.17.064.36.096.572.096.208 0 .389-.03.542-.09a.832.832 0 0 0 .361-.254.584.584 0 0 0 .128-.372c0-.13-.039-.24-.117-.33a.883.883 0 0 0-.335-.227 3.405 3.405 0 0 0-.537-.17l-.633-.16c-.49-.119-.878-.305-1.162-.559-.284-.254-.425-.595-.423-1.025-.002-.353.091-.66.28-.924.192-.263.454-.468.788-.616a2.776 2.776 0 0 1 1.136-.222c.432 0 .809.074 1.13.222.325.148.577.353.756.616.18.264.273.569.279.915H7.66Zm2.246-1.673h1.517l1.602 3.909h.068l1.603-3.91h1.517V19H15.02v-3.787h-.048l-1.506 3.759h-.812l-1.506-3.773h-.048V19H9.908v-5.818Zm7.259 1.014v-1.014h4.778v1.014h-1.781V19h-1.216v-4.804h-1.781ZM22.892 19v-5.818h2.295c.442 0 .818.084 1.128.253.31.166.548.398.71.696.165.295.248.636.248 1.022 0 .387-.084.728-.25 1.023a1.724 1.724 0 0 1-.725.69c-.314.165-.695.248-1.142.248h-1.463v-.986h1.264c.237 0 .432-.04.585-.122a.81.81 0 0 0 .347-.344c.078-.148.117-.317.117-.509a1.05 1.05 0 0 0-.117-.505.778.778 0 0 0-.346-.338 1.265 1.265 0 0 0-.591-.123h-.83V19h-1.23Z" />
</svg>
