<svg xmlns="http://www.w3.org/2000/svg" width="32" height="32" fill="none">
  <g fill-rule="evenodd" clip-path="url(#a)" clip-rule="evenodd">
    <path fill="url(#b)"
      d="M24.64 12.826c0 .86-1.044 1.286-1.646.671L10.676.907C12.386.305 14.186-.002 16 0c3.183 0 6.148.93 8.64 2.531v10.295Zm4.48-5.986v5.986c0 4.875-5.919 7.289-9.328 3.804L6.545 3.091C2.576 6.003 0 10.701 0 16c0 3.407 1.065 6.565 2.88 9.16v-5.954c0-4.875 5.919-7.289 9.328-3.804l13.229 13.52A15.976 15.976 0 0 0 32 16c0-3.407-1.065-6.565-2.88-9.16ZM9.006 18.535 21.301 31.1c-1.659.583-3.443.9-5.301.9-3.182 0-6.148-.93-8.64-2.531V19.206c0-.86 1.045-1.286 1.646-.671Z" />
    <path fill="url(#c)"
      d="M24.64 12.826c0 .86-1.044 1.286-1.646.671L10.676.907C12.386.305 14.186-.002 16 0c3.183 0 6.148.93 8.64 2.531v10.295Zm4.48-5.986v5.986c0 4.875-5.919 7.289-9.328 3.804L6.545 3.091C2.576 6.003 0 10.701 0 16c0 3.407 1.065 6.565 2.88 9.16v-5.954c0-4.875 5.919-7.289 9.328-3.804l13.229 13.52A15.976 15.976 0 0 0 32 16c0-3.407-1.065-6.565-2.88-9.16ZM9.006 18.535 21.301 31.1c-1.659.583-3.443.9-5.301.9-3.182 0-6.148-.93-8.64-2.531V19.206c0-.86 1.045-1.286 1.646-.671Z" />
    <path fill="url(#d)"
      d="M24.64 12.826c0 .86-1.044 1.286-1.646.671L10.676.907C12.386.305 14.186-.002 16 0c3.183 0 6.148.93 8.64 2.531v10.295Zm4.48-5.986v5.986c0 4.875-5.919 7.289-9.328 3.804L6.545 3.091C2.576 6.003 0 10.701 0 16c0 3.407 1.065 6.565 2.88 9.16v-5.954c0-4.875 5.919-7.289 9.328-3.804l13.229 13.52A15.976 15.976 0 0 0 32 16c0-3.407-1.065-6.565-2.88-9.16ZM9.006 18.535 21.301 31.1c-1.659.583-3.443.9-5.301.9-3.182 0-6.148-.93-8.64-2.531V19.206c0-.86 1.045-1.286 1.646-.671Z" />
  </g>
  <defs>
    <linearGradient id="c" x1="19.733" x2="16" y1="-1.067" y2="32" gradientUnits="userSpaceOnUse">
      <stop offset=".085" stop-color="#FFBA33" />
      <stop offset=".553" stop-color="#FF006A" stop-opacity="0" />
    </linearGradient>
    <linearGradient id="d" x1="16" x2="16" y1="0" y2="32" gradientUnits="userSpaceOnUse">
      <stop offset=".547" stop-opacity="0" />
      <stop offset="1" stop-opacity=".6" />
    </linearGradient>
    <radialGradient id="b" cx="0" cy="0" r="1"
      gradientTransform="rotate(135 4.686 11.314) scale(22.6274)" gradientUnits="userSpaceOnUse">
      <stop offset=".34" stop-color="#FF006A" />
      <stop offset=".613" stop-color="#E300BD" />
      <stop offset=".767" stop-color="#FF4CE1" />
    </radialGradient>
    <clipPath id="a">
      <path fill="#fff" d="M0 0h32v32H0z" />
    </clipPath>
  </defs>
</svg>
