<svg width="32" height="32" viewBox="0 0 32 32" fill="none" xmlns="http://www.w3.org/2000/svg">
<path fill-rule="evenodd" clip-rule="evenodd" d="M27.4555 13.6219C28.4309 12.0477 28.9186 10.3181 28.9186 8.43343C28.9186 6.85915 28.5417 5.45115 27.788 4.20946C27.0564 2.94558 25.9591 1.9478 24.496 1.2161C23.0551 0.484397 21.2927 0.11853 19.2089 0.11853C16.2605 0.11853 13.556 0.905671 11.0954 2.47995C8.65683 4.03207 6.70605 6.38244 5.24294 9.531C3.80202 12.6574 3.08154 16.4712 3.08154 20.9723C3.08154 23.367 3.42516 25.3848 4.11236 27.0256C4.79959 28.6664 5.70848 29.8859 6.83905 30.6842C7.99179 31.4824 9.2443 31.8815 10.5966 31.8815C13.0572 31.8815 14.5647 30.3405 15.1189 27.2584L16.5487 19.2428C19.1202 19.0654 21.3371 18.4778 23.1992 17.4801C25.0613 16.4823 26.4801 15.1962 27.4555 13.6219ZM23.964 8.73278C23.964 12.8792 21.6917 15.2406 17.1473 15.8171L18.2446 9.36472C18.2889 9.14297 18.3111 8.85474 18.3111 8.49995C18.3111 7.90129 18.1448 7.4689 17.8123 7.20283C17.502 6.91459 16.981 6.77047 16.2495 6.77047C15.6066 6.77047 15.0413 6.93675 14.5536 7.26934C14.0881 7.57977 13.7888 8.11192 13.6558 8.86582C13.1237 11.7705 12.7136 14.0876 12.4255 15.8171C12.4242 15.817 12.4229 15.8169 12.4217 15.8168L12.2031 17.213L11.5879 20.7353L11.5824 20.7343L10.7628 25.4291C10.4746 26.9591 10.0535 27.724 9.49923 27.724C9.10021 27.724 8.67902 27.4358 8.23565 26.8593C7.81446 26.2606 7.45977 25.4291 7.17159 24.3648C6.90554 23.3005 6.77254 22.081 6.77254 20.7063C6.77254 17.4246 7.227 14.5089 8.13588 11.959C9.06697 9.38689 10.3749 7.38022 12.0597 5.93897C13.7666 4.49773 15.7617 3.77708 18.0451 3.77708C20.0624 3.77708 21.5476 4.24274 22.5009 5.174C23.4763 6.08309 23.964 7.26934 23.964 8.73278Z" fill="white"/>
</svg>
