<svg xmlns="http://www.w3.org/2000/svg" width="32" height="32" fill="none">
  <g clip-path="url(#a)">
    <rect width="29.046" height="29.046" x="1.477" y="1.477" fill="#fff" stroke="#F37222"
      stroke-width="2.954" rx="3.523" />
    <path fill="#0089C2"
      d="M6.91 16.852c0-2.192-.01-4.385 0-6.578 0-.813.072-1.622.589-2.31.65-.864 1.599-1.047 2.582-1.052 3.81-.018 7.623-.033 11.434 0 2.19.02 3.124.987 3.167 3.194.034 1.852 0 3.707.008 5.56 0 1.575-.648 2.663-2.143 3.298-1.83.775-1.813.82-.762 2.52.507.821 1.01 1.644 1.528 2.46.3.473.21.73-.378.734h-3.053a1.159 1.159 0 0 1-1.037-.59c-.85-1.345-1.724-2.679-2.555-4.03-.747-1.22-.459-2.587-.473-3.904 0-.4.37-.363.655-.363 1.045 0 2.09-.02 3.134 0 .53.014.756-.157.742-.713a69.794 69.794 0 0 1 0-3.446c.01-.524-.22-.683-.706-.682-2.558.01-5.115.018-7.674 0-.614 0-.734.27-.73.812.015 3.938.009 7.876.007 11.826 0 1.044-.045 1.088-1.114 1.092-.757 0-1.515-.03-2.271 0-.706.036-.979-.23-.97-.946.037-2.287.018-4.584.02-6.883Z" />
  </g>
  <defs>
    <clipPath id="a">
      <path fill="#fff" d="M0 0h32v32H0z" />
    </clipPath>
  </defs>
</svg>
