<svg xmlns="http://www.w3.org/2000/svg" xmlns:xlink="http://www.w3.org/1999/xlink" version="1.1" width="500px" height="500px" style="shape-rendering:geometricPrecision; text-rendering:geometricPrecision; image-rendering:optimizeQuality; fill-rule:evenodd; clip-rule:evenodd">
<g><path style="opacity:1" fill="#2599ef" d="M 351.5,67.5 C 353.701,68.5664 356.035,69.233 358.5,69.5C 367.786,73.141 376.453,77.8077 384.5,83.5C 384.5,84.1667 384.833,84.5 385.5,84.5C 392.106,89.7673 398.439,95.434 404.5,101.5C 404.5,102.167 404.833,102.5 405.5,102.5C 405.5,103.167 405.833,103.5 406.5,103.5C 406.5,104.167 406.833,104.5 407.5,104.5C 408.167,105.5 408.833,106.5 409.5,107.5C 409.5,108.167 409.833,108.5 410.5,108.5C 411.167,109.833 412.167,110.833 413.5,111.5C 414.551,112.222 415.218,113.222 415.5,114.5C 418.252,119.674 421.252,124.674 424.5,129.5C 424.5,130.167 424.5,130.833 424.5,131.5C 426.533,135.565 428.533,139.565 430.5,143.5C 432.46,147.955 433.794,152.621 434.5,157.5C 435.859,170.511 437.359,183.511 439,196.5C 439.309,221.342 439.475,246.009 439.5,270.5C 439.5,272.833 439.5,275.167 439.5,277.5C 438.691,275.708 438.191,273.708 438,271.5C 435.43,293.847 431.263,315.847 425.5,337.5C 421.584,348.008 417.084,358.341 412,368.5C 411.51,369.793 411.343,371.127 411.5,372.5C 411.5,372.833 411.5,373.167 411.5,373.5C 407.073,381.361 402.407,389.028 397.5,396.5C 396.833,396.5 396.5,396.833 396.5,397.5C 395.833,397.5 395.5,397.833 395.5,398.5C 392.865,402.143 390.199,405.81 387.5,409.5C 386.508,409.328 385.842,409.662 385.5,410.5C 384.061,412.36 382.395,414.027 380.5,415.5C 379.833,415.5 379.5,415.833 379.5,416.5C 378.833,417.833 377.833,418.833 376.5,419.5C 375.833,419.5 375.5,419.833 375.5,420.5C 374.147,422.183 372.48,423.516 370.5,424.5C 369.833,424.5 369.5,424.833 369.5,425.5C 369.167,426.167 368.833,426.833 368.5,427.5C 366.262,428.91 363.928,430.577 361.5,432.5C 360.833,432.5 360.5,432.833 360.5,433.5C 360.167,433.5 359.833,433.5 359.5,433.5C 351.498,438.503 343.498,443.503 335.5,448.5C 332.654,448.552 330.32,449.552 328.5,451.5C 327.209,451.263 326.209,451.596 325.5,452.5C 324.735,452.077 323.902,451.743 323,451.5C 313.722,455.027 304.222,457.694 294.5,459.5C 289.307,459.56 284.307,458.893 279.5,457.5C 279.164,452.846 279.831,448.346 281.5,444C 280.204,441.266 279.704,438.433 280,435.5C 286.343,428.801 290.509,421.135 292.5,412.5C 294.243,410.593 295.243,408.259 295.5,405.5C 296.559,401.265 296.559,397.098 295.5,393C 263.5,392.667 231.5,392.333 199.5,392C 191.429,391.014 183.429,390.848 175.5,391.5C 175.38,390.414 174.713,389.747 173.5,389.5C 168.566,388.113 163.566,387.113 158.5,386.5C 157.478,382.971 155.145,380.471 151.5,379C 146.332,379.295 141.332,378.962 136.5,378C 130.51,375.34 124.844,372.174 119.5,368.5C 118.584,368.543 117.917,368.876 117.5,369.5C 116.833,369.5 116.5,369.167 116.5,368.5C 106.775,359.607 97.4418,350.107 88.5,340C 87.9056,339.536 87.2389,339.369 86.5,339.5C 84.0576,339.646 83.3909,338.813 84.5,337C 83.6195,336.292 82.9528,335.458 82.5,334.5C 81.8897,332.566 80.8897,330.899 79.5,329.5C 77.8627,326.183 76.1961,322.85 74.5,319.5C 74.5,318.833 74.1667,318.5 73.5,318.5C 73.5,318.167 73.5,317.833 73.5,317.5C 72.8333,316.167 72.1667,314.833 71.5,313.5C 71.5979,311.447 70.9313,309.78 69.5,308.5C 68.5502,304.647 67.2169,300.98 65.5,297.5C 65.634,295.708 65.3007,294.042 64.5,292.5C 64.5,291.167 64.5,289.833 64.5,288.5C 63.9759,286.694 63.3092,285.028 62.5,283.5C 61.5551,278.886 60.8885,274.219 60.5,269.5C 60.5131,245.343 60.6797,221.01 61,196.5C 61.6747,185.77 62.8414,175.104 64.5,164.5C 64.2122,161.134 64.0455,157.8 64,154.5C 64.3333,155.5 64.6667,156.5 65,157.5C 65.3519,155.753 65.8519,154.086 66.5,152.5C 68.1752,149.903 70.3418,147.57 73,145.5C 73.7203,143.888 73.5536,142.388 72.5,141C 74.3073,140.072 75.974,138.906 77.5,137.5C 79.3819,123.731 85.8819,112.731 97,104.5C 97.7266,107.955 99.8932,109.621 103.5,109.5C 103.461,107.641 104.294,106.308 106,105.5C 106.261,101.294 106.761,97.1274 107.5,93C 113.251,86.9526 119.918,82.1193 127.5,78.5C 133.148,80.6005 137.981,79.6005 142,75.5C 142.311,74.2575 141.811,73.2575 140.5,72.5C 150.957,67.6338 161.957,64.4671 173.5,63C 174.056,62.6174 174.389,62.1174 174.5,61.5C 174.611,60.8826 174.944,60.3826 175.5,60C 225.166,58.0062 274.833,58.0062 324.5,60C 327.119,60.1515 329.453,60.9848 331.5,62.5C 332.167,62.1667 332.833,61.8333 333.5,61.5C 339.443,63.6238 345.443,65.6238 351.5,67.5 Z"/></g>
<g><path style="opacity:0.01" fill="#06000e" d="M 351.5,67.5 C 354.092,66.597 356.426,67.2636 358.5,69.5C 356.035,69.233 353.701,68.5664 351.5,67.5 Z"/></g>
<g><path style="opacity:0.007" fill="#010103" d="M 413.5,111.5 C 412.167,110.833 411.167,109.833 410.5,108.5C 409.833,108.5 409.5,108.167 409.5,107.5C 408.833,106.5 408.167,105.5 407.5,104.5C 406.833,104.5 406.5,104.167 406.5,103.5C 405.833,103.5 405.5,103.167 405.5,102.5C 404.833,102.5 404.5,102.167 404.5,101.5C 398.439,95.434 392.106,89.7673 385.5,84.5C 384.833,84.5 384.5,84.1667 384.5,83.5C 384.5,82.1667 384.5,80.8333 384.5,79.5C 386.675,79.3178 388.675,78.6511 390.5,77.5C 393.306,79.0638 396.306,79.7305 399.5,79.5C 399.335,82.8499 399.502,86.1832 400,89.5C 401.688,90.3247 401.855,91.3247 400.5,92.5C 405.143,97.1305 409.31,102.131 413,107.5C 413.49,108.793 413.657,110.127 413.5,111.5 Z"/></g>
<g><path style="opacity:0.007" fill="#000000" d="M 121.5,79.5 C 121.167,80.5 120.5,81.1667 119.5,81.5C 118.909,80.8485 118.243,80.1818 117.5,79.5C 118.958,78.218 120.292,78.218 121.5,79.5 Z"/></g>
<g><path style="opacity:1" fill="#4299dd" d="M 174.5,61.5 C 174.389,62.1174 174.056,62.6174 173.5,63C 161.957,64.4671 150.957,67.6338 140.5,72.5C 141.811,73.2575 142.311,74.2575 142,75.5C 137.981,79.6005 133.148,80.6005 127.5,78.5C 119.918,82.1193 113.251,86.9526 107.5,93C 106.761,97.1274 106.261,101.294 106,105.5C 104.294,106.308 103.461,107.641 103.5,109.5C 99.8932,109.621 97.7266,107.955 97,104.5C 85.8819,112.731 79.3819,123.731 77.5,137.5C 75.974,138.906 74.3073,140.072 72.5,141C 73.5536,142.388 73.7203,143.888 73,145.5C 70.3418,147.57 68.1752,149.903 66.5,152.5C 69.2689,144.292 72.6022,136.292 76.5,128.5C 76.1667,127.833 75.8333,127.167 75.5,126.5C 77.3747,125.591 78.708,124.257 79.5,122.5C 81.9998,119.506 83.9998,116.173 85.5,112.5C 88.2663,109.836 90.9329,107.003 93.5,104C 92.8333,103.667 92.1667,103.333 91.5,103C 93.8333,101.5 96.1667,100 98.5,98.5C 99.7112,97.7261 99.7112,96.8928 98.5,96C 99.938,95.7811 101.271,95.2811 102.5,94.5C 104.414,91.9977 106.747,89.9977 109.5,88.5C 108.54,87.1877 108.706,85.8544 110,84.5C 111.268,84.6158 112.602,84.9491 114,85.5C 115.5,83.5313 117.333,82.198 119.5,81.5C 120.5,81.1667 121.167,80.5 121.5,79.5C 136.091,71.9823 150.758,66.1489 165.5,62C 168.482,61.502 171.482,61.3354 174.5,61.5 Z"/></g>
<g><path style="opacity:0.004" fill="#000000" d="M 78.5,112.5 C 80.4646,112.948 80.7979,113.948 79.5,115.5C 78.6143,114.675 78.281,113.675 78.5,112.5 Z"/></g>
<g><path style="opacity:0.011" fill="#000000" d="M 85.5,112.5 C 83.9998,116.173 81.9998,119.506 79.5,122.5C 78.3871,121.054 78.2204,119.387 79,117.5C 81.3707,115.946 83.5374,114.279 85.5,112.5 Z"/></g>
<g><path style="opacity:0.006" fill="#000000" d="M 424.5,129.5 C 421.252,124.674 418.252,119.674 415.5,114.5C 417.594,113.758 419.761,113.091 422,112.5C 423.436,112.559 424.769,112.892 426,113.5C 426.929,119.02 426.429,124.353 424.5,129.5 Z"/></g>
<g><path style="opacity:0.013" fill="#040a0a" d="M 430.5,143.5 C 428.533,139.565 426.533,135.565 424.5,131.5C 425.117,131.389 425.617,131.056 426,130.5C 428.107,134.381 429.941,138.381 431.5,142.5C 431.376,143.107 431.043,143.44 430.5,143.5 Z"/></g>
<g><path style="opacity:1" fill="#fbfdfe" d="M 127.5,156.5 C 208.834,156.333 290.167,156.5 371.5,157C 373.286,157.785 374.786,158.951 376,160.5C 376.667,174.167 376.667,187.833 376,201.5C 374.74,204.428 372.573,206.261 369.5,207C 289.5,207.667 209.5,207.667 129.5,207C 127,205.833 125.167,204 124,201.5C 123.333,188.167 123.333,174.833 124,161.5C 124.997,159.677 126.164,158.01 127.5,156.5 Z"/></g>
<g><path style="opacity:0.011" fill="#000000" d="M 436.5,162.5 C 438.504,167.525 439.504,172.858 439.5,178.5C 437.754,173.428 436.754,168.095 436.5,162.5 Z"/></g>
<g><path style="opacity:0.01" fill="#000000" d="M 440.5,206.5 C 440.763,202.4 440.43,198.4 439.5,194.5C 440.315,193.571 441.148,192.571 442,191.5C 442.167,194 442.333,196.5 442.5,199C 442.475,201.929 441.809,204.429 440.5,206.5 Z"/></g>
<g><path style="opacity:0.004" fill="#000000" d="M 445.5,192.5 C 446.598,193.601 446.765,194.934 446,196.5C 445.51,195.207 445.343,193.873 445.5,192.5 Z"/></g>
<g><path style="opacity:0.005" fill="#000000" d="M 439.5,259.5 C 439.629,257.784 439.962,256.117 440.5,254.5C 441.167,254.5 441.5,254.167 441.5,253.5C 442.117,253.389 442.617,253.056 443,252.5C 443.5,234.17 443.667,215.836 443.5,197.5C 444.5,197.5 445.5,197.5 446.5,197.5C 446.667,216.17 446.5,234.836 446,253.5C 443.963,255.706 441.797,257.706 439.5,259.5 Z"/></g>
<g><path style="opacity:0.655" fill="#78abd4" d="M 434.5,157.5 C 435.931,158.78 436.598,160.447 436.5,162.5C 436.754,168.095 437.754,173.428 439.5,178.5C 439.5,183.833 439.5,189.167 439.5,194.5C 440.43,198.4 440.763,202.4 440.5,206.5C 440.197,222.214 440.531,237.881 441.5,253.5C 440.833,253.5 440.5,253.833 440.5,254.5C 439.962,256.117 439.629,257.784 439.5,259.5C 439.5,263.167 439.5,266.833 439.5,270.5C 439.475,246.009 439.309,221.342 439,196.5C 437.359,183.511 435.859,170.511 434.5,157.5 Z"/></g>
<g><path style="opacity:0.655" fill="#76afda" d="M 64.5,164.5 C 62.8414,175.104 61.6747,185.77 61,196.5C 60.6797,221.01 60.5131,245.343 60.5,269.5C 59.3425,241.239 59.1759,212.905 60,184.5C 60.5503,177.488 62.0503,170.821 64.5,164.5 Z"/></g>
<g><path style="opacity:1" fill="#fbfdfe" d="M 129.5,244.5 C 171.835,244.333 214.168,244.5 256.5,245C 258.609,246.141 260.442,247.641 262,249.5C 262.667,263.167 262.667,276.833 262,290.5C 260.605,292.14 259.105,293.64 257.5,295C 214.5,295.667 171.5,295.667 128.5,295C 125.898,294.065 124.398,292.232 124,289.5C 123.333,276.167 123.333,262.833 124,249.5C 125.73,247.598 127.563,245.931 129.5,244.5 Z"/></g>
<g><path style="opacity:0.006" fill="#000000" d="M 62.5,283.5 C 63.3092,285.028 63.9759,286.694 64.5,288.5C 63.1667,289.833 63.1667,291.167 64.5,292.5C 65.3007,294.042 65.634,295.708 65.5,297.5C 64.0337,296.653 63.2004,295.32 63,293.5C 62.5017,290.183 62.335,286.85 62.5,283.5 Z"/></g>
<g><path style="opacity:0.576" fill="#598fb5" d="M 439.5,277.5 C 437.243,296.117 433.577,314.451 428.5,332.5C 427.313,334.072 426.313,335.739 425.5,337.5C 431.263,315.847 435.43,293.847 438,271.5C 438.191,273.708 438.691,275.708 439.5,277.5 Z"/></g>
<g><path style="opacity:0.008" fill="#0f0b1c" d="M 69.5,308.5 C 70.9313,309.78 71.5979,311.447 71.5,313.5C 69.3176,312.177 68.6509,310.51 69.5,308.5 Z"/></g>
<g><path style="opacity:0.008" fill="#000000" d="M 73.5,317.5 C 73.5,317.833 73.5,318.167 73.5,318.5C 74.1667,318.5 74.5,318.833 74.5,319.5C 76.1961,322.85 77.8627,326.183 79.5,329.5C 77.9826,329.489 76.8159,328.823 76,327.5C 75.3096,324.474 74.1429,321.641 72.5,319C 72.5699,318.235 72.9033,317.735 73.5,317.5 Z"/></g>
<g><path style="opacity:0.006" fill="#000000" d="M 79.5,329.5 C 80.8897,330.899 81.8897,332.566 82.5,334.5C 80.2591,333.7 79.2591,332.034 79.5,329.5 Z"/></g>
<g><path style="opacity:0.007" fill="#000001" d="M 428.5,332.5 C 428.145,335.067 427.479,337.567 426.5,340C 426.978,350.794 426.978,361.628 426.5,372.5C 422.116,372.174 417.783,372.508 413.5,373.5C 410.419,379.331 407.085,384.998 403.5,390.5C 406.266,392.129 409.266,392.795 412.5,392.5C 412.5,394.833 412.5,397.167 412.5,399.5C 408.616,399.424 404.95,400.09 401.5,401.5C 401.5,405.167 401.5,408.833 401.5,412.5C 399.535,413.129 397.535,413.796 395.5,414.5C 386.908,411.593 384.242,414.426 387.5,423C 387.325,424.658 386.658,425.991 385.5,427C 379.803,426.458 374.136,426.625 368.5,427.5C 368.833,426.833 369.167,426.167 369.5,425.5C 370.167,425.5 370.5,425.167 370.5,424.5C 372.48,423.516 374.147,422.183 375.5,420.5C 376.167,420.5 376.5,420.167 376.5,419.5C 377.833,418.833 378.833,417.833 379.5,416.5C 380.167,416.5 380.5,416.167 380.5,415.5C 382.395,414.027 384.061,412.36 385.5,410.5C 386.492,410.672 387.158,410.338 387.5,409.5C 390.199,405.81 392.865,402.143 395.5,398.5C 396.167,398.5 396.5,398.167 396.5,397.5C 397.167,397.5 397.5,397.167 397.5,396.5C 402.407,389.028 407.073,381.361 411.5,373.5C 412.167,373.5 412.5,373.167 412.5,372.5C 412.557,371.391 412.89,370.391 413.5,369.5C 414.167,369.5 414.5,369.167 414.5,368.5C 414.5,367.833 414.5,367.167 414.5,366.5C 415.167,366.5 415.5,366.167 415.5,365.5C 416.831,362.171 418.164,358.838 419.5,355.5C 420.167,355.5 420.5,355.167 420.5,354.5C 421.833,354.167 421.833,353.833 420.5,353.5C 421.892,350.993 422.892,348.327 423.5,345.5C 424.167,345.5 424.5,345.167 424.5,344.5C 424.5,343.833 424.5,343.167 424.5,342.5C 425.833,342.167 425.833,341.833 424.5,341.5C 425.234,340.292 425.567,338.959 425.5,337.5C 426.313,335.739 427.313,334.072 428.5,332.5 Z M 419.5,363.5 C 419.688,365.103 419.188,366.437 418,367.5C 417.652,365.86 418.152,364.527 419.5,363.5 Z"/></g>
<g><path style="opacity:0.82" fill="#69aadd" d="M 425.5,337.5 C 425.567,338.959 425.234,340.292 424.5,341.5C 424.5,341.833 424.5,342.167 424.5,342.5C 424.5,343.167 424.5,343.833 424.5,344.5C 423.833,344.5 423.5,344.833 423.5,345.5C 422.892,348.327 421.892,350.993 420.5,353.5C 420.5,353.833 420.5,354.167 420.5,354.5C 419.833,354.5 419.5,354.833 419.5,355.5C 418.164,358.838 416.831,362.171 415.5,365.5C 414.833,365.5 414.5,365.833 414.5,366.5C 414.5,367.167 414.5,367.833 414.5,368.5C 413.833,368.5 413.5,368.833 413.5,369.5C 412.89,370.391 412.557,371.391 412.5,372.5C 412.167,372.5 411.833,372.5 411.5,372.5C 411.343,371.127 411.51,369.793 412,368.5C 417.084,358.341 421.584,348.008 425.5,337.5 Z"/></g>
<g><path style="opacity:0.369" fill="#5b9bc7" d="M 86.5,339.5 C 87.2389,339.369 87.9056,339.536 88.5,340C 97.4418,350.107 106.775,359.607 116.5,368.5C 114.563,367.41 112.73,366.076 111,364.5C 110.549,366.929 109.715,367.096 108.5,365C 108.833,364.667 109.167,364.333 109.5,364C 107.63,361.96 105.63,360.127 103.5,358.5C 98.8814,354.548 94.5481,350.215 90.5,345.5C 88.7484,343.754 87.4151,341.754 86.5,339.5 Z"/></g>
<g><path style="opacity:0.004" fill="#000000" d="M 103.5,358.5 C 103.631,359.239 103.464,359.906 103,360.5C 102.308,359.563 102.475,358.897 103.5,358.5 Z"/></g>
<g><path style="opacity:0.005" fill="#040009" d="M 118.5,369.5 C 121.871,371.846 125.204,374.179 128.5,376.5C 125.395,375.448 122.395,374.115 119.5,372.5C 118.873,371.583 118.539,370.583 118.5,369.5 Z"/></g>
<g><path style="opacity:0.005" fill="#060c0e" d="M 129.5,376.5 C 132.877,378.175 136.211,379.842 139.5,381.5C 135.316,381.408 131.983,379.741 129.5,376.5 Z"/></g>
<g><path style="opacity:1" fill="#4b99d5" d="M 117.5,369.5 C 117.917,368.876 118.584,368.543 119.5,368.5C 124.844,372.174 130.51,375.34 136.5,378C 141.332,378.962 146.332,379.295 151.5,379C 155.145,380.471 157.478,382.971 158.5,386.5C 163.566,387.113 168.566,388.113 173.5,389.5C 174.713,389.747 175.38,390.414 175.5,391.5C 165.667,390.108 156.667,388.108 148.5,385.5C 147.833,384.167 147.167,384.167 146.5,385.5C 144.167,384.167 141.833,382.833 139.5,381.5C 136.211,379.842 132.877,378.175 129.5,376.5C 129.167,376.5 128.833,376.5 128.5,376.5C 125.204,374.179 121.871,371.846 118.5,369.5C 118.167,369.5 117.833,369.5 117.5,369.5 Z"/></g>
<g><path style="opacity:0.004" fill="#000000" d="M 146.5,385.5 C 147.167,385.5 147.833,385.5 148.5,385.5C 147.833,386.833 147.167,386.833 146.5,385.5 Z"/></g>
<g><path style="opacity:0.606" fill="#73b0de" d="M 292.5,412.5 C 292.517,410.435 292.85,408.435 293.5,406.5C 293.5,406.167 293.5,405.833 293.5,405.5C 294.167,405.5 294.5,405.167 294.5,404.5C 294.5,402.833 294.5,401.167 294.5,399.5C 294.5,398.167 294.5,396.833 294.5,395.5C 294.389,394.883 294.056,394.383 293.5,394C 262.502,393.5 231.502,393.333 200.5,393.5C 195.849,393.321 191.349,393.321 187,393.5C 185.333,392.833 183.667,392.167 182,391.5C 179.726,392.811 177.56,392.811 175.5,391.5C 183.429,390.848 191.429,391.014 199.5,392C 231.5,392.333 263.5,392.667 295.5,393C 296.559,397.098 296.559,401.265 295.5,405.5C 295.243,408.259 294.243,410.593 292.5,412.5 Z"/></g>
<g><path style="opacity:0.031" fill="#0f535b" d="M 200.5,393.5 C 231.502,393.333 262.502,393.5 293.5,394C 294.056,394.383 294.389,394.883 294.5,395.5C 293.833,395.5 293.167,395.5 292.5,395.5C 261.833,394.833 231.167,394.167 200.5,393.5 Z"/></g>
<g><path style="opacity:0.004" fill="#000001" d="M 292.5,395.5 C 292.611,396.117 292.944,396.617 293.5,397C 263.167,397.333 232.833,397.667 202.5,398C 322.5,399.333 322.5,400 202.5,400C 200.606,398.921 200.273,397.587 201.5,396C 231.832,395.5 262.165,395.333 292.5,395.5 Z"/></g>
<g><path style="opacity:0.007" fill="#000000" d="M 294.5,399.5 C 294.5,401.167 294.5,402.833 294.5,404.5C 293.833,404.5 293.5,404.833 293.5,405.5C 293.5,405.833 293.5,406.167 293.5,406.5C 292.355,404.047 292.688,401.713 294.5,399.5 Z"/></g>
<g><path style="opacity:0.006" fill="#000000" d="M 281.5,430.5 C 280.833,430.5 280.5,430.833 280.5,431.5C 280.672,432.492 280.338,433.158 279.5,433.5C 279.489,431.983 278.823,430.816 277.5,430C 278.328,429.085 279.328,428.419 280.5,428C 279.692,427.692 279.025,427.192 278.5,426.5C 279.274,425.289 280.107,425.289 281,426.5C 281.49,427.793 281.657,429.127 281.5,430.5 Z"/></g>
<g><path style="opacity:0.006" fill="#000000" d="M 361.5,432.5 C 364.857,432.629 368.523,432.629 372.5,432.5C 372.5,434.833 372.5,437.167 372.5,439.5C 368.445,439.176 364.445,439.509 360.5,440.5C 359.567,444.429 359.234,448.429 359.5,452.5C 352.833,452.5 346.167,452.5 339.5,452.5C 339.5,451.167 339.5,449.833 339.5,448.5C 338.167,448.5 336.833,448.5 335.5,448.5C 343.498,443.503 351.498,438.503 359.5,433.5C 359.833,434.833 360.167,434.833 360.5,433.5C 360.5,432.833 360.833,432.5 361.5,432.5 Z"/></g>
<g><path style="opacity:0.004" fill="#000000" d="M 266.5,438.5 C 267.525,438.897 267.692,439.563 267,440.5C 266.536,439.906 266.369,439.239 266.5,438.5 Z"/></g>
<g><path style="opacity:0.013" fill="#152127" d="M 274.5,439.5 C 273.5,441.167 272.167,442.5 270.5,443.5C 270.709,442.078 271.209,440.745 272,439.5C 272.77,438.402 273.603,438.402 274.5,439.5 Z"/></g>
<g><path style="opacity:1" fill="#3a96dd" d="M 292.5,412.5 C 290.509,421.135 286.343,428.801 280,435.5C 279.704,438.433 280.204,441.266 281.5,444C 279.831,448.346 279.164,452.846 279.5,457.5C 284.307,458.893 289.307,459.56 294.5,459.5C 292.046,460.621 289.379,461.454 286.5,462C 287.056,462.383 287.389,462.883 287.5,463.5C 278.059,465.017 268.726,466.017 259.5,466.5C 255.63,466.395 251.963,465.562 248.5,464C 249.406,462.301 249.739,460.467 249.5,458.5C 251.191,457.136 252.858,455.803 254.5,454.5C 255.931,453.906 257.598,452.906 259.5,451.5C 262.81,449.518 265.81,447.185 268.5,444.5C 269.167,444.167 269.833,443.833 270.5,443.5C 272.167,442.5 273.5,441.167 274.5,439.5C 276.167,437.5 277.833,435.5 279.5,433.5C 280.338,433.158 280.672,432.492 280.5,431.5C 281.167,431.5 281.5,431.167 281.5,430.5C 284.815,425.441 288.148,419.941 291.5,414C 287.774,412.957 288.107,412.457 292.5,412.5 Z"/></g>
<g><path style="opacity:0.004" fill="#000000" d="M 265.5,441.5 C 266.833,442.167 266.833,442.167 265.5,441.5 Z"/></g>
<g><path style="opacity:0.004" fill="#000000" d="M 268.5,441.5 C 269.833,442.167 269.833,442.167 268.5,441.5 Z"/></g>
<g><path style="opacity:0.008" fill="#000000" d="M 268.5,444.5 C 265.81,447.185 262.81,449.518 259.5,451.5C 259.034,449.079 259.867,447.079 262,445.5C 262.333,446.167 262.667,446.833 263,447.5C 264.167,446.333 265.333,445.167 266.5,444C 267.437,443.308 268.103,443.475 268.5,444.5 Z"/></g>
<g><path style="opacity:0.005" fill="#000000" d="M 335.5,448.5 C 333.491,450.065 331.157,451.065 328.5,451.5C 330.32,449.552 332.654,448.552 335.5,448.5 Z"/></g>
<g><path style="opacity:0.007" fill="#000000" d="M 323.5,453.5 C 321.285,456.34 318.618,457.007 315.5,455.5C 316.609,455.443 317.609,455.11 318.5,454.5C 318.833,455.833 319.167,455.833 319.5,454.5C 320.708,453.766 322.041,453.433 323.5,453.5 Z"/></g>
<g><path style="opacity:0.007" fill="#000000" d="M 254.5,454.5 C 252.858,455.803 251.191,457.136 249.5,458.5C 249.012,455.348 250.679,454.015 254.5,454.5 Z"/></g>
<g><path style="opacity:0.588" fill="#5e92b9" d="M 325.5,452.5 C 325.158,453.338 324.492,453.672 323.5,453.5C 322.041,453.433 320.708,453.766 319.5,454.5C 319.167,454.5 318.833,454.5 318.5,454.5C 317.609,455.11 316.609,455.443 315.5,455.5C 313.132,456.014 311.132,457.18 309.5,459C 301.936,459.691 294.602,461.191 287.5,463.5C 287.389,462.883 287.056,462.383 286.5,462C 289.379,461.454 292.046,460.621 294.5,459.5C 304.222,457.694 313.722,455.027 323,451.5C 323.902,451.743 324.735,452.077 325.5,452.5 Z"/></g>
</svg>
