<svg xmlns="http://www.w3.org/2000/svg" width="32" height="32" fill="none">
  <rect width="31" height="31" x=".5" y=".5" stroke="#fff" rx="4.5" />
  <path fill="#fff"
    d="M11.318 14.855a.719.719 0 0 0-.292-.534c-.173-.127-.406-.19-.702-.19-.2 0-.37.028-.508.085a.715.715 0 0 0-.319.23.554.554 0 0 0-.108.335.479.479 0 0 0 .066.273c.049.078.116.145.201.202.086.055.184.103.296.145.112.04.23.073.358.102l.522.125c.254.057.487.132.7.227.211.095.395.211.55.35.156.138.276.3.361.488.088.188.132.403.134.645a1.608 1.608 0 0 1-.273.926 1.73 1.73 0 0 1-.773.605c-.335.142-.74.213-1.213.213-.47 0-.878-.072-1.227-.216a1.798 1.798 0 0 1-.812-.639c-.194-.284-.295-.635-.304-1.054h1.19c.013.195.07.358.168.489.1.129.233.226.4.293.169.064.359.096.571.096.208 0 .39-.03.543-.09a.831.831 0 0 0 .36-.254.584.584 0 0 0 .128-.372c0-.13-.038-.24-.116-.33a.884.884 0 0 0-.335-.227 3.406 3.406 0 0 0-.537-.17l-.634-.16c-.49-.119-.878-.305-1.162-.559-.284-.254-.425-.595-.423-1.025-.002-.353.092-.66.281-.924.192-.263.454-.468.787-.616a2.776 2.776 0 0 1 1.136-.222c.432 0 .81.074 1.131.222.324.148.576.353.756.616.18.264.273.569.278.915h-1.179Zm7.113-1.673V19h-1.063l-2.531-3.662h-.043V19h-1.23v-5.818h1.08l2.511 3.659h.051v-3.66h1.225Zm4.332 1.673a.719.719 0 0 0-.292-.534c-.173-.127-.407-.19-.702-.19-.2 0-.37.028-.508.085a.715.715 0 0 0-.319.23.554.554 0 0 0-.108.335.48.48 0 0 0 .066.273c.049.078.116.145.201.202.086.055.184.103.296.145.112.04.23.073.358.102l.523.125c.253.057.486.132.698.227.213.095.396.211.552.35.155.138.275.3.36.488.087.188.132.403.134.645a1.608 1.608 0 0 1-.273.926 1.73 1.73 0 0 1-.773.605c-.335.142-.74.213-1.213.213-.47 0-.878-.072-1.227-.216a1.797 1.797 0 0 1-.812-.639c-.194-.284-.295-.635-.304-1.054h1.19c.013.195.07.358.168.489.1.129.233.226.4.293.169.064.359.096.571.096.209 0 .39-.03.543-.09a.831.831 0 0 0 .36-.254.584.584 0 0 0 .128-.372c0-.13-.038-.24-.116-.33a.884.884 0 0 0-.335-.227 3.406 3.406 0 0 0-.537-.17l-.634-.16c-.49-.119-.878-.305-1.162-.559-.284-.254-.425-.595-.423-1.025-.002-.353.092-.66.281-.924.192-.263.454-.468.787-.616a2.776 2.776 0 0 1 1.137-.222c.431 0 .808.074 1.13.222.324.148.576.353.756.616.18.264.273.569.278.915h-1.179Z" />
</svg>
