<svg id="Layer_1" data-name="Layer 1" xmlns="http://www.w3.org/2000/svg" viewBox="0 0 1559.92 611.86"><defs><style>.cls-1{fill:#fff;}.cls-2{fill:#189347;}.cls-3{fill:#139347;}</style></defs><title>AT Logo</title><path class="cls-1" d="M815.89,261.12c-6.44,0-13.22-5-15.11-11.17l-5.47-17.88c-1.88-6.11-8.67-11.13-15.07-11.13H731.71c-6.4,0-13.37,5-15.45,11l-6.2,18.12c-2.08,6-9,11-15.44,11H674.84c-6.39,0-9.91-4.94-7.75-11L728.72,77.38c2.14-6,9.21-11,15.61-11H768.2c6.4,0,13.41,4.94,15.58,11l60.86,172.68c2.11,6.06-1.41,11-7.84,11ZM759.31,121.25c-1.89-6.16-3.54-11.17-3.63-11.17s-1.77,5-3.76,11.13L734.18,176.4c-2,6.08,1.68,11.11,8.12,11.11h26.2c6.4,0,10.08-5,8.17-11.11Z"/><path class="cls-1" d="M865.07,261.12a4.7,4.7,0,0,1-4.67-4.66v-108a4.69,4.69,0,0,0-4.68-4.68H843.63a4.61,4.61,0,0,1-4.62-4.64V121.51a4.64,4.64,0,0,1,4.62-4.68H860.4c3.16-56,56.78-51.51,56.78-51.51a3.34,3.34,0,0,1,4.48,3.39V94.87a58.67,58.67,0,0,0-11.88,1,14.39,14.39,0,0,0-7.17,3.66,14.61,14.61,0,0,0-3.69,6.9,34.57,34.57,0,0,0-.79,5.73,4.46,4.46,0,0,0,4.46,4.67h15.28a4.7,4.7,0,0,1,4.68,4.68v17.64a4.66,4.66,0,0,1-4.68,4.64H902.59a4.7,4.7,0,0,0-4.66,4.68v108a4.69,4.69,0,0,1-4.66,4.66Z"/><path class="cls-1" d="M934.83,261.12a4.65,4.65,0,0,1-4.63-4.66V121.51a4.64,4.64,0,0,1,4.63-4.68h26.45a4.68,4.68,0,0,1,4.66,4.68v12.6a47.16,47.16,0,0,1,9.8-11.4,41.73,41.73,0,0,1,10.59-6.32,39.26,39.26,0,0,1,11-2.79c3.68-.38,6.76-.45,6.76-.45,2.57-.09,5.74-.11,7.11-.11s2.53,2,2.53,4.66v34.35a60.2,60.2,0,0,0-10.59-.89c-23.25,0-33.4,30.43-33.4,30.43a35.57,35.57,0,0,0-1.44,9.11v65.75a4.7,4.7,0,0,1-4.7,4.66Z"/><path class="cls-1" d="M1028.08,99.53a4.67,4.67,0,0,1-4.68-4.67V68.72a4.66,4.66,0,0,1,4.68-4.66h28.78a4.69,4.69,0,0,1,4.67,4.66V94.87a4.69,4.69,0,0,1-4.67,4.67Zm0,161.59a4.69,4.69,0,0,1-4.68-4.66V121.51a4.68,4.68,0,0,1,4.68-4.68h28.78a4.71,4.71,0,0,1,4.67,4.68V256.45a4.72,4.72,0,0,1-4.67,4.66Z"/><path class="cls-1" d="M1202.9,208.91a3.62,3.62,0,0,1,3.66,4.56s-2.37,11.47-6.2,18.3a62.94,62.94,0,0,1-14.51,17.62,66.41,66.41,0,0,1-20.09,11.4,70.2,70.2,0,0,1-24.47,4.11,72.21,72.21,0,0,1-26.84-4.82,54.59,54.59,0,0,1-21-14.65,68.66,68.66,0,0,1-13.66-24.35c-3.24-9.67-4.82-20.94-4.82-33.86s1.58-24.06,4.82-33.39,7.76-17.07,13.66-23.07a55.44,55.44,0,0,1,21.22-13.33,83.45,83.45,0,0,1,27.74-4.38,82.21,82.21,0,0,1,25.66,3.78A59.24,59.24,0,0,1,1188.31,128,53.08,53.08,0,0,1,1202,145.56c3.34,6.85,5.17,18.24,5.17,18.24a3.92,3.92,0,0,1-4,4.66h-33.72c-1-7.44-4-13.25-9-17.45s-11.07-6.35-18.31-6.35a31.33,31.33,0,0,0-11.45,2.08,22.22,22.22,0,0,0-9.24,6.9,36.28,36.28,0,0,0-6.28,12.89c-1.58,5.38-2.33,12-2.33,19.81q0,23.76,8.47,35.21c5.71,7.62,12.21,11.4,19.66,11.4s13.77-2,19-6.17,7.88-13.37,7.88-13.37a6.46,6.46,0,0,1,5.9-4.49Z"/><path class="cls-1" d="M1312.16,261.12a6.25,6.25,0,0,1-5.73-4.57,53.16,53.16,0,0,1-1.23-8.37,47.75,47.75,0,0,1-17.91,12.23c-7.45,3-16,4.5-25.8,4.5-16.61,0-28.77-3.63-36.51-11s-11.57-16.87-11.57-28.58c0-10.37,1.68-18.58,5-24.81a37.32,37.32,0,0,1,13.8-14.52,67.31,67.31,0,0,1,20.95-7.75c8.11-1.63,16.94-3.18,26.52-4.55s16-3.14,19.37-5.41,5-5.9,5-11c0-4.66-2.2-8.35-6.6-10.94s-10.33-4-17.77-4c-8.78,0-15.09,1.95-18.88,5.85s-5.9,11-5.9,11a6.58,6.58,0,0,1-6,4.53h-30.84a67.41,67.41,0,0,1,3.7-20.55,39,39,0,0,1,10.83-16.1c5-4.5,11.46-8,19.48-10.46s17.81-3.62,29.34-3.62c11.35,0,21,1.26,28.9,3.78s14.26,6.22,19,11a42.15,42.15,0,0,1,10.47,17.88c2.13,7.13,2.89,19.57,2.89,19.57.17,2.54.31,6.72.31,9.3v81.86a4.73,4.73,0,0,1-4.69,4.66Zm-7.37-66c.08-2.59-1.59-3.41-3.65-1.9a18.32,18.32,0,0,1-4.75,1.9,163.93,163.93,0,0,1-16.12,3.82c-11,2.15-18.49,4.91-22.56,8.21s-6.17,8.15-6.17,14.4q0,16.12,18.48,16.09a36.13,36.13,0,0,0,13.61-2.48,33.57,33.57,0,0,0,10.84-6.77,32.94,32.94,0,0,0,7.35-10,25.73,25.73,0,0,0,2.28-7.49c.25-2.58.56-6.76.57-9.27Z"/><path class="cls-1" d="M1357.68,133.84a7.54,7.54,0,0,1,4.27-6.43s8.69-3.52,12.44-8.23,5.27-16.47,5.27-16.47a4,4,0,0,0-4.06-4.62H1362.3a4.67,4.67,0,0,1-4.63-4.68V63.15a4.67,4.67,0,0,1,4.63-4.7h31.16a4.69,4.69,0,0,1,4.66,4.7V88.38a104.08,104.08,0,0,1-2,21.7,43.86,43.86,0,0,1-6.78,16,38,38,0,0,1-12.44,11c-5.18,2.92-14.72,5.53-14.72,5.53a3.39,3.39,0,0,1-4.49-3.46Z"/><path class="cls-1" d="M1496.92,160.54a6.73,6.73,0,0,1-6-4.44s-2.1-7-6.12-10.09-10.09-4.54-18.34-4.54c-7.84,0-13.7.95-17.71,2.79s-6,5.08-6,9.57c0,3.86,2,7,6,9.33s9.83,4.61,17.44,6.77q18.75,5.27,31.69,8.92c8.59,2.45,15.42,5.34,20.66,8.66A28.91,28.91,0,0,1,1529.64,200c2.25,5,3.37,11.65,3.37,20.06q0,19.34-16.12,32.12c-10.78,8.5-26.68,12.74-47.84,12.74a104,104,0,0,1-28.11-3.52,66.15,66.15,0,0,1-21.57-10.09,47.06,47.06,0,0,1-13.78-15.82c-3.22-6.18-4.51-16-4.51-16a4,4,0,0,1,4.06-4.68h34.63c0,6.89,2.65,12.12,8.06,15.85s12.33,5.57,21,5.57c7.22,0,13.43-1.12,18.59-3.37s7.8-5.72,7.8-10.43q0-7.91-5.72-11.45c-3.85-2.33-9.6-4.36-17.45-6.11q-21.09-4.72-34-9.83c-8.61-3.4-15.32-7.23-20.11-11.32s-8-8.6-9.64-13.45a50.55,50.55,0,0,1-2.5-16.4,37,37,0,0,1,3.36-15.59,34,34,0,0,1,10.7-12.88c4.9-3.76,11.24-6.74,19.09-9s17.36-3.34,28.72-3.34c20.74,0,35.84,4.17,45.45,12.6S1527.83,156,1527.83,156a3.55,3.55,0,0,1-3.62,4.54Z"/><path class="cls-1" d="M745.32,498.26a11.73,11.73,0,0,1-11.65-11.7V343A11.68,11.68,0,0,0,722,331.37h-37.6a11.72,11.72,0,0,1-11.65-11.69v-12A11.72,11.72,0,0,1,684.42,296H825.57a11.73,11.73,0,0,1,11.68,11.68v12a11.72,11.72,0,0,1-11.68,11.69H787.67A11.71,11.71,0,0,0,776,343V486.56a11.72,11.72,0,0,1-11.69,11.7Z"/><path class="cls-1" d="M921.73,498.26a6.3,6.3,0,0,1-5.8-4.56,58.55,58.55,0,0,1-1.35-8.83c-4.64,5.27-10.87,9.48-18.57,12.62s-16.63,4.72-26.79,4.72c-17.28,0-29.88-3.8-37.94-11.44s-12-17.45-12-29.67c0-10.77,1.7-19.33,5.19-25.73a38.26,38.26,0,0,1,14.28-15.07,68.39,68.39,0,0,1,21.8-8.1c8.39-1.7,17.6-3.27,27.55-4.7s16.65-3.3,20.1-5.66,5.19-6.11,5.19-11.4c0-4.9-2.31-8.71-6.87-11.45s-10.69-4.09-18.42-4.09q-13.74,0-19.66,6.1c-4,4.05-6.14,11.66-6.14,11.66a6.63,6.63,0,0,1-6,4.49H824.14a68.45,68.45,0,0,1,3.79-21.34,41.49,41.49,0,0,1,11.27-16.74c5.2-4.68,12-8.26,20.25-10.82s18.5-3.78,30.46-3.78q17.64,0,30,3.93c8.2,2.66,14.81,6.48,19.77,11.42a44,44,0,0,1,10.81,18.63c2.22,7.38,3.09,20.44,3.09,20.44.16,2.55.27,6.79.27,9.28v85.42a4.71,4.71,0,0,1-4.68,4.68ZM914.2,429.5c.06-2.57-1.62-3.38-3.69-1.9a18.43,18.43,0,0,1-5,2.13,160.62,160.62,0,0,1-16.75,4c-11.38,2.21-19.2,5.11-23.45,8.49s-6.42,8.44-6.42,15c0,11.18,6.42,16.78,19.21,16.78a38.72,38.72,0,0,0,14.14-2.59,35.2,35.2,0,0,0,11.24-7,33.51,33.51,0,0,0,7.64-10.34,26.93,26.93,0,0,0,2.39-8,92.47,92.47,0,0,0,.6-9.32Z"/><path class="cls-1" d="M974.41,498.26a4.69,4.69,0,0,1-4.67-4.68V298.24a4.64,4.64,0,0,1,4.67-4.64h30.23a4.65,4.65,0,0,1,4.66,4.64V493.58a4.7,4.7,0,0,1-4.66,4.68Z"/><path class="cls-1" d="M1121.52,498.26a8.26,8.26,0,0,1-6.77-4.18l-28.75-59c-1.13-2.29-3.52-2.66-5.35-.81L1068,447.41a13.14,13.14,0,0,0-3.28,8v38.15a4.68,4.68,0,0,1-4.69,4.68h-30.55a4.7,4.7,0,0,1-4.69-4.68V298.24a4.66,4.66,0,0,1,4.69-4.64h30.55a4.64,4.64,0,0,1,4.69,4.64V400.71c0,2.57,1.36,3.06,3.06,1.11L1111,351.94a11.63,11.63,0,0,1,7.69-3.55h39.1c2.55,0,3.26,1.55,1.52,3.45l-43.95,48.22a7.33,7.33,0,0,0-1,7.63l44.74,86.42c1.16,2.28.07,4.14-2.49,4.14Z"/><path class="cls-1" d="M1176,330.45a4.7,4.7,0,0,1-4.65-4.67V298.24a4.64,4.64,0,0,1,4.65-4.64h30.26a4.65,4.65,0,0,1,4.66,4.64v27.54a4.7,4.7,0,0,1-4.66,4.67Zm0,167.81a4.69,4.69,0,0,1-4.65-4.68V353.07a4.7,4.7,0,0,1,4.65-4.68h30.26a4.7,4.7,0,0,1,4.66,4.68V493.58a4.69,4.69,0,0,1-4.66,4.68Z"/><path class="cls-1" d="M1328.3,498.26a4.7,4.7,0,0,1-4.69-4.68V407.5c0-11.58-1.93-19.43-5.74-23.44s-10.48-6.11-19.8-6.11c-20.55,0-29.44,29.94-29.44,29.94a35.88,35.88,0,0,0-1.34,9.16v76.55a4.69,4.69,0,0,1-4.65,4.68h-30.32a4.69,4.69,0,0,1-4.64-4.68V353.07a4.7,4.7,0,0,1,4.64-4.68h28.47a4.71,4.71,0,0,1,4.68,4.68v17.26A48,48,0,0,1,1284,351q11.55-6.53,29.86-6.52a59.7,59.7,0,0,1,19.82,3.19,41.89,41.89,0,0,1,15.68,9.58,47.2,47.2,0,0,1,10.33,15.69c2.55,6.18,3.36,16.8,3.36,16.8.24,2.59.43,6.79.43,9.32v94.54a4.68,4.68,0,0,1-4.66,4.68Z"/><path class="cls-1" d="M1483.84,489.83c0-6.39-2.91-7.32-6.49-2,0,0-1.5,2.22-8.88,6s-16,5.61-25.74,5.61q-18.6,0-31.2-6.51a57.89,57.89,0,0,1-20.44-17.23,70,70,0,0,1-11.27-24.66,120.32,120.32,0,0,1-3.51-28.65,93.66,93.66,0,0,1,5.2-31.84,77.06,77.06,0,0,1,14-24.65,63.25,63.25,0,0,1,20.74-15.83,58.68,58.68,0,0,1,25.59-5.62q28,0,42,22.53v-6.89a11.72,11.72,0,0,1,11.66-11.71h16.27a11.67,11.67,0,0,1,11.63,11.71v128c0,6.44-.42,16.92-1,23.3a66.42,66.42,0,0,1-4.74,18.38,60.67,60.67,0,0,1-15.83,21.62,70,70,0,0,1-23.76,13.25,96.92,96.92,0,0,1-58.17.14,67.69,67.69,0,0,1-23-12.5,57.53,57.53,0,0,1-15.08-19.65,60.13,60.13,0,0,1-5.5-26.19h25.2a14.59,14.59,0,0,1,13.77,11.47s.89,4.74,6.89,9.7,13.95,7.5,23.92,7.5q15.82,0,26.78-8.72t11-23.56Zm-32.6-21.43a30.65,30.65,0,0,0,24.22-11.08Q1485,446.16,1485,427q0-48.09-33.8-48.14t-33.81,45.71c0,13.36,3.22,24,9.58,32s14.47,11.87,24.22,11.87"/><polyline class="cls-1" points="610.32 76.76 610.32 498.83 614.99 498.83 614.99 76.76"/><path class="cls-2" d="M201,379.94c-.34.07-.71.17-1.1.23A9.75,9.75,0,0,1,201,380a.1.1,0,0,0,0-.07"/><path class="cls-1" d="M305.73,267.08l-39.14-45.44-122.51-.11C84.5,227,51.77,270.2,51.77,270.2,3.58,325.68,25.4,391.13,25.4,391.13c9.1,47.28,45.92,74.57,45.92,74.57,32.27,26.39,72.76,29.11,72.76,29.11h32.27c1.56-.21,3-.57,4.42-.9a5.37,5.37,0,0,1-.33-2.33,14.8,14.8,0,0,0-1.64-6.76c-2.51-5.89-7.75-10.51-7.68-17.54.07-4.6-1.9-8.66-4.45-12.29-5-7-3.22-13.68.45-20.39.68-1.29,1.93-2.42,1.74-4-1.08-7.21-2.08-13.44-7.25-20.31-7.1-8.07-22.77-17.48-28.58-21.51-4.59-3.18-16.52-3.69-16.92-3.57a14.76,14.76,0,0,0-2.65.59c-3.42,1.2-6.19.27-9.05-1.88-5.78-4.33-11-9-14.46-15.69-2-4-7.07-6.3-6.08-11.88.07-.3-.31-11.84-.31-11.84s2.13-8.38,3.76-10.85c4.7-6.88,8-15.13,16.91-18.46,2.68-1,5.08-2.86,5.4-6.43a8.8,8.8,0,0,1,3.44-6.08c2.88-2.21,10.37-7.58,11.55-7.08,2.42.93,5.23,2.38,7.64,1.11,8.05-4.06,16.62-3.58,25.16-3.89,5.91-.19,7.14,1,5.63,6.46-1.09,3.81.74,4.79,3.61,5.42,2.56.59,5.47.68,7.28,2.9,2.07,2.51,5,2.91,7.8,3.92,1.77.68,2.62,0,3.2-1.81,1.49-4.71,3.74-5.51,8.27-3.68,3.1,1.25,6.44,1.91,9.59,2.91,5.53,1.83,10.57-2,16.08-.32,4.17,1.25,14.5,20.28,14.5,20.28l8.19-.4V312.47H281.8c41.4-14.51,23.93-45.38,23.93-45.38"/><path class="cls-3" d="M162.81,404.71h0a.58.58,0,0,1-.07-.14.28.28,0,0,0,0,.14"/><path class="cls-3" d="M162.62,404.33a1,1,0,0,1,.16.24.6.6,0,0,1,0-.24Z"/><path class="cls-1" d="M430.89,153.46h6.4s-1.14,11.81,13.4,15.9l35.71.25s37.93,2.45,43.83,38.8c0,0,7.28,30.93-25,49.13a96.77,96.77,0,0,1-25.94,5.9H430.89Z"/><path class="cls-1" d="M430.89,385h6.4s-1.15,12.1,13.4,15.9l35.71.25s37.93,2.45,43.83,38.8c0,0,7.28,30.93-25,49.13A96.77,96.77,0,0,1,479.3,495H430.89Z"/><path class="cls-1" d="M269.18,221.54H191.06c38.21,6.39,40.92,39.57,40.92,39.57l.34,66.07c4.06,6.42,7.21,13.4,11.14,20a34.81,34.81,0,0,0,9.66,10.41c2.13,1.52,4.47,2.86,4.62,6.5.05,2.31,2.75,3.83,5.83,2.79,3.92-1.36,7.94-2.29,11.92-3.49,3.15-.94,4.72.21,4,3.44-1.59,7.73-4.19,15.12-9.59,21-5.58,6.12-11.81,11.59-17.46,17.66-3,3.27-6.19,6.91-5.58,11.94.84,6.89,3.38,13.38,2.86,20.64-.43,6-2.61,9.41-8.12,11.56-5,1.88-7.32,4.36-8.1,8.21,7.49,33.44,39.41,36.12,39.41,36.12,48.81,3.49,50.73-47.79,50.73-47.79V280c-3.81-49.27-54.46-58.43-54.46-58.43"/><path class="cls-1" d="M350.22,103.73s6.1-41.59,49.75-38.87c0,0,38.86,3.43,41.6,43.63V223s1.27,36.57,39.34,40.46l-39.34-.11V457.7s3.86,30.19,39.34,37l-87.76.51s-38.09-5.06-43.77-46.27c-6.15-34.76.84-345.22.84-345.22"/></svg>
