<svg version="1.2" baseProfile="tiny-ps" xmlns="http://www.w3.org/2000/svg" viewBox="0 0 1512 699" width="1512" height="699">
	<title>Braze_Logo-svg</title>
	<style>
		tspan { white-space:pre }
		.shp0 { fill: #ffffff } 
	</style>
	<g id="Layer">
		<path id="Layer" fill-rule="evenodd" class="shp0" d="M1507.07 431.16C1474.65 455.67 1433.11 470.32 1391.88 470.32C1334.21 470.32 1299.24 447.75 1278.18 418.9C1271.45 422.04 1243.22 435.19 1209.45 452.98C1237.39 515.46 1223.35 606.78 1175.09 655.06C1133.85 696.31 1067.81 719.48 1021.5 673.14C983.25 634.88 985.94 558.2 1044.21 499.91C1063.03 481.08 1093.81 459.86 1126.23 440.13C1118.91 437.59 1110.84 436.24 1101.88 436.24C1031.21 436.24 1004.91 470.32 959.49 470.32C933.05 470.32 911.98 461.35 900.48 449.84C891.96 441.32 885.69 429.66 881.65 415.76C858.94 448.8 826.97 470.32 789.77 470.32C757.2 470.32 734.63 457.17 716.41 438.93C705.8 428.32 698.03 414.42 692.8 402.76C672.63 440.13 644.39 470.32 604.2 470.32C565.06 470.32 529.8 449.39 529.8 375.56C529.8 310.09 563.26 221.31 563.26 221.31C563.26 221.31 535.48 228.34 502.31 228.34C489.31 228.34 475.71 226.99 463.76 225.35C455.24 281.84 435.07 361.66 386.82 409.79C345.58 451.19 286.71 470.17 232.18 470.17C183.92 470.17 136.86 451.19 113.7 399.17C109.22 405 104.58 410.38 99.8 415.17C80.38 434.45 55.88 449.69 29.13 459.11C23.46 461.05 17.48 457.91 14.79 453.13C12.1 448.5 3.29 430.56 0.9 423.69C-1.49 416.81 1.2 410.98 7.62 408.59C59.17 389.91 89.79 337.15 98.01 294.1C104.58 260.32 126.1 125.65 137.45 56.15L66.64 56.15C60.51 56.15 55.28 53.31 55.58 45.69C56.03 37.02 59.46 18.19 61.11 11.01C62.45 4.89 66.64 1 72.16 1L168.98 1C177.35 1 182.87 5.33 189.15 15.05C192.88 21.03 198.11 28.5 195.57 42.85C192.59 59.89 184.07 110.26 174.81 164.07C194.68 151.66 215.89 145.23 235.91 145.23C301.5 145.23 353.8 199.94 353.8 288.27C353.8 319.66 345.43 359.27 330.04 389.46C330.04 389.46 334.37 387.22 341.54 380.04C403.4 318.16 412.51 194.71 417.29 161.08C418.49 153.16 421.03 148.37 431.19 148.37L459.28 148.37C467.49 148.37 470.18 153.3 469.89 161.08C469.74 163.17 469.59 168.7 468.99 176.92C479 177.67 490.2 178.12 501.86 178.12C556.84 178.12 584.33 167.2 601.51 167.2C612.57 167.2 614.96 171.99 621.09 180.96C625.42 187.38 629.75 195.6 625.72 205.47C602.56 261.22 582.39 319.96 582.39 372.72C582.39 418.9 608.98 426.08 632.44 402.61C686.82 348.21 674.87 245.37 737.92 182.3C763.17 157.19 794.1 145.38 825.77 145.38C859.99 145.38 883.59 161.38 898.38 189.62C900.18 179.61 901.97 169.15 903.76 158.54C904.81 152.71 908.69 148.52 915.57 148.52L945.45 148.52C957.4 148.52 959.94 155.85 958.6 163.32C946.2 232.67 929.16 321.75 929.16 363.9C929.16 406.95 951.87 420.1 970.25 420.1C999.83 420.1 1024.48 387.67 1040.47 364.5C1041.07 363.45 1041.82 362.7 1042.56 362.11L1152.97 204.12L1030.91 204.12C1023.74 204.12 1016.86 199.64 1017.61 192.31C1018.21 184.99 1021.8 163.62 1023.29 157.49C1024.93 151.21 1029.27 148.67 1034.79 148.67L1203.32 148.67C1211.69 148.67 1217.82 151.06 1223.94 164.36C1228.72 175.43 1229.47 182.45 1224.54 189.47C1217.67 199.34 1136.54 318.91 1082.6 395.44C1082.6 395.44 1140.72 382.88 1177.93 410.83C1217.52 389.01 1250.54 373.02 1255.47 370.63C1249.64 350 1248 330.57 1248 316.97C1248 226.69 1313.89 145.38 1397.26 145.38C1485.55 145.38 1508.26 253.45 1435.8 325.94C1420.86 340.88 1389.78 366.44 1352.58 386.62C1345.56 390.36 1338.69 393.64 1332.11 396.63C1347.8 409.94 1368.87 416.06 1392.92 416.06C1424.45 416.06 1450 402.16 1472.71 386.92C1483.02 379.89 1486.9 384.68 1490.04 388.56C1494.67 394.54 1509.61 415.47 1509.61 415.47C1513.2 420.55 1512.15 427.72 1507.07 431.16ZM1164.33 478.39C1134 496.18 1104.87 515.76 1087.09 533.54C1008.65 612.01 1075.88 679.12 1128.47 626.51C1167.92 586.9 1181.66 521.29 1164.33 478.39ZM879.26 316.97C880.01 309.79 880.9 302.32 881.95 294.55C884.79 240.89 859.69 199.34 822.34 199.34C782 199.34 742.85 247.77 734.93 307.55C726.87 367.34 753.01 415.76 793.35 415.76C831.45 415.76 868.65 372.27 879.26 316.97ZM275.81 217.28C264.9 206.36 251.6 199.64 236.51 199.64C219.63 199.64 203.19 207.56 189.6 221.16C141.64 269.29 138.35 360.91 175.7 398.28C186.61 409.19 199.76 416.06 215 416.06C231.28 416.06 247.42 409.04 260.57 395.89C313.01 343.42 310.92 252.4 275.81 217.28ZM1302.98 319.96C1302.98 331.62 1304.17 342.08 1306.27 351.49C1312.54 348.36 1318.82 344.92 1324.05 341.93C1378.28 310.54 1423.25 270.04 1423.25 232.52C1423.25 194.11 1379.33 182.45 1339.73 222.06C1316.58 245.23 1302.98 287.82 1302.98 319.96Z" />
	</g>
</svg>