<svg width="139mm" height="51mm" xmlns="http://www.w3.org/2000/svg"><defs><linearGradient x1="152.9" y1="230.54" x2="144.9" y2="226.36" gradientUnits="userSpaceOnUse" id="b"><stop offset="0" stop-color="#a52714"/><stop offset=".4" stop-color="#a52714" stop-opacity=".5"/><stop offset=".8" stop-color="#a52714" stop-opacity="0"/></linearGradient><linearGradient x1="186.89" y1="218.91" x2="183.31" y2="215.33" gradientUnits="userSpaceOnUse" id="c"><stop offset="0" stop-color="#a52714" stop-opacity=".8"/><stop offset=".5" stop-color="#a52714" stop-opacity=".21"/><stop offset="1" stop-color="#a52714" stop-opacity="0"/></linearGradient><linearGradient x1="123.188" y1="168.281" x2="256.875" y2="301.968" gradientUnits="userSpaceOnUse" id="d"><stop offset="0" stop-color="#fff" stop-opacity=".1"/><stop offset="1" stop-color="#fff" stop-opacity="0"/></linearGradient><clipPath id="a"><path d="M239.41 175.34a4 4 0 0 0-6.77-2.16L211.88 194l-16.34-31.11a4 4 0 0 0-7.08 0l-8.93 17-22.4-41.77a4 4 0 0 0-7.48 1.28L128 278l57.9 32.46a12 12 0 0 0 11.7 0L256 278Z" fill="none"/></clipPath></defs><g fill="none"><path d="M0 0h1888.64v448H0Z"/><g clip-path="url(#a)" transform="translate(-96 -128)"><path d="m128 278 21.66-138.61a4 4 0 0 1 7.48-1.27l22.4 41.78 8.93-17a4 4 0 0 1 7.08 0L256 278Z" fill="#ffa000"/><path d="m202 137-106-9v192l32-42z" fill="url(#b)" opacity=".12" style="fill:url(#b)"/><path d="m202.83 224.01-23.3-44.12L128 278Z" fill="#f57c00"/><path d="M96 128h192v192H96Z" fill="url(#c)" opacity=".2" style="fill:url(#c)"/><path d="m256 278-16.59-102.66a4 4 0 0 0-6.77-2.16L128 278l57.9 32.47a12 12 0 0 0 11.7 0z" fill="#ffca28"/><path d="M239.41 175.34a4 4 0 0 0-6.77-2.16L211.88 194l-16.34-31.11a4 4 0 0 0-7.08 0l-8.93 17-22.4-41.77a4 4 0 0 0-7.48 1.28L128 278h-.08l.07.08.57.28L211.83 195l20.78-20.8a4 4 0 0 1 6.78 2.16l16.45 101.74.16-.1ZM128.19 277.81l21.47-137.42a4 4 0 0 1 7.48-1.28l22.4 41.78 8.93-17a4 4 0 0 1 7.08 0l16 30.43z" fill-opacity=".2" fill="#fff"/><path d="M197.6 309.49a12 12 0 0 1-11.7 0l-57.76-32.4-.14.91 57.9 32.46a12 12 0 0 0 11.7 0L256 278l-.15-.92z" fill="#a52714" opacity=".2"/><path d="M239.41 175.34a4 4 0 0 0-6.77-2.16L211.88 194l-16.34-31.11a4 4 0 0 0-7.08 0l-8.93 17-22.4-41.77a4 4 0 0 0-7.48 1.28L128 278l57.9 32.46a12 12 0 0 0 11.7 0L256 278Z" fill="url(#d)" style="fill:url(#d)"/></g><circle cx="144" cy="144" r="40" fill="#757575"/><path d="M124 144.6c0 4.2 3.4 7.6 7.6 7.6h8.4v3.8h-8.4c-6.2 0-11.2-5-11.2-11.2 0-5.8 4.4-10.6 10-11.2 2.4-4.4 7-7.6 12.4-7.6 7 0 12.6 4.8 14 11 5 .4 8.8 4.4 8.8 9.4 0 .4-.2.6-.2 1l-3.8-1.6c-.4-2.8-2.6-5-5.6-5h-2.6v-1c0-5.8-4.6-10.4-10.4-10.4-4.8 0-8.8 3.2-10 7.6h-1.4c-4.2 0-7.6 3.4-7.6 7.6zm20 12.06 18-2.66-18-2.68V144l24 10.102L144 164z" fill="#fff" fill-rule="evenodd"/><path d="M251.77 104.7V144H240V52.35h53.5v11.27h-41.73V93.7h37.63v11zm96.24 43.072c-13.48 0-24.788-4.567-33.92-13.7-9.128-9.127-13.69-20.517-13.69-34.17 0-13.653 4.562-25.047 13.69-34.18 9.132-9.133 20.44-13.7 33.92-13.7 13.826 0 25.05 4.993 33.67 14.98l-8.2 7.94c-6.228-7.767-14.718-11.65-25.47-11.65-9.98 0-18.408 3.37-25.28 10.11-6.868 6.74-10.3 15.573-10.3 26.5 0 10.92 3.432 19.75 10.3 26.49 6.872 6.74 15.3 10.11 25.28 10.11 11.006 0 20.392-4.437 28.16-13.31l8.19 8.19c-4.18 5.04-9.428 9.03-15.74 11.97-6.314 2.947-13.184 4.42-20.61 4.42zm64.29-3.483h-11.78v-91.65h11.78l31.87 55.81h.51l31.88-55.81h11.77v91.65h-11.77v-54.4l.51-15.36h-.51l-28.68 50.3h-6.91l-28.67-50.3h-.51l.51 15.36z" fill="#fff"/></g></svg>