<svg xmlns="http://www.w3.org/2000/svg" width="171" height="30"><g fill="none" fill-rule="nonzero"><path fill="#4E48E0" d="M29.58 10.166a.608.608 0 0 0-.506-.256H17.952l5.546-8.865a.717.717 0 0 0-.022-.789.615.615 0 0 0-.51-.256H13.39c-.962 0-1.86.516-2.399 1.376L.106 18.775a.722.722 0 0 0 .023.79c.117.168.31.255.506.255H11.75l-5.547 8.867a.73.73 0 0 0-.085.553c.07.297.334.492.618.492h9.571c.969 0 1.874-.52 2.416-1.387l5.332-8.525 5.546-8.865a.721.721 0 0 0-.023-.789"/><path fill="#4E48E0" d="m24.058 19.818-5.333 8.527c-.543.868-1.448 1.387-2.417 1.387H6.737a.636.636 0 0 1-.617-.492.73.73 0 0 1 .084-.553l5.548-8.869h12.306Z"/><path fill="#1C81C1" d="M17.945 9.91h11.129c.195 0 .389.087.505.256.172.25.165.562.023.79l-5.545 8.864h-12.31l6.198-9.91Z"/><path fill="#5CC4CD" d="M.635 19.82a.608.608 0 0 1-.505-.256.72.72 0 0 1-.024-.789L10.991 1.376C11.529.516 12.428 0 13.389 0h9.577c.196 0 .392.087.51.256.173.25.165.562.022.79L11.752 19.82H.635Z"/><g fill="white"><path d="M95.695 16.397h5.973l.826.003s0-.04-.035-.203c-.124-.582-.348-1.114-.738-1.568-.907-1.053-2.516-1.413-3.892-.858-1.18.476-1.825 1.396-2.134 2.626m4.847 2.312c-1.536 0-3.072.003-4.608-.004-.2-.001-.238.04-.184.238.402 1.47 1.572 2.478 3.078 2.641 1.695.184 3.246-.241 4.697-1.097l.26-.153 1.224 2.174s-.035.02-.164.106c-1.825 1.22-3.833 1.748-6.02 1.62-.976-.057-1.914-.266-2.795-.695-1.303-.633-2.262-1.614-2.836-2.943-.797-1.847-.845-3.735-.135-5.615.91-2.416 3.131-3.92 5.83-4.002 1.391-.043 2.712.215 3.897.976 1.673 1.074 2.466 2.672 2.668 4.605.066.632.032 1.261-.022 1.893-.02.23-.026.26-.026.26s-3.336-.004-4.864-.004M130.968 16.397H136.94l.826.003s0-.04-.035-.203c-.124-.582-.348-1.114-.738-1.568-.906-1.053-2.516-1.413-3.892-.858-1.18.476-1.825 1.396-2.133 2.626m4.846 2.312c-1.536 0-3.072.003-4.608-.004-.2-.001-.238.04-.184.238.402 1.47 1.572 2.478 3.078 2.641 1.695.184 3.246-.241 4.697-1.097l.26-.153 1.224 2.174s-.035.02-.164.106c-1.825 1.22-3.833 1.748-6.02 1.62-.976-.057-1.914-.266-2.795-.695-1.303-.633-2.262-1.614-2.836-2.943-.797-1.847-.845-3.735-.135-5.615.91-2.416 3.131-3.92 5.83-4.002 1.391-.043 2.712.215 3.897.976 1.673 1.074 2.466 2.672 2.668 4.605.066.632.032 1.261-.023 1.893-.02.23-.025.26-.025.26s-3.336-.004-4.864-.004M121.852 10.977c1.396.027 2.792.516 3.923 1.667l.175.177-1.583 1.929-.151-.144c-.732-.692-1.59-1.112-2.611-1.151-.32-.012-.633.03-.925.17-.79.378-.906 1.306-.234 1.868.222.185.483.296.75.4.956.374 1.93.71 2.85 1.171.673.338 1.277.767 1.701 1.405.791 1.19.66 2.982-.293 4.124-.834.999-1.94 1.473-3.196 1.624-1.794.217-3.442-.159-4.883-1.294a5.869 5.869 0 0 1-.975-1.001c-.086-.11-.11-.145-.11-.145l1.72-1.852.134.16c.692.832 1.561 1.376 2.633 1.568.613.109 1.216.086 1.779-.218.569-.307.816-.848.64-1.381-.097-.291-.303-.495-.55-.664-.33-.225-.701-.363-1.067-.511-.783-.319-1.583-.595-2.346-.96-1.016-.486-1.781-1.206-2.062-2.338-.448-1.805.486-3.528 2.261-4.213.72-.278 1.465-.39 2.42-.391M71.164 21.295a3.67 3.67 0 0 1-3.665-3.667 3.67 3.67 0 0 1 3.665-3.667 3.67 3.67 0 0 1 3.664 3.667 3.67 3.67 0 0 1-3.664 3.667Zm3.99-10.32-.3 1.536c-.932-.964-2.326-1.525-3.69-1.525-3.66 0-6.637 2.98-6.637 6.642 0 3.662 2.977 6.642 6.637 6.642a5.273 5.273 0 0 0 3.69-1.524l.3 1.53h2.672v-13.3h-2.672ZM164 21.295a3.67 3.67 0 0 1-3.664-3.667 3.67 3.67 0 0 1 3.665-3.667 3.67 3.67 0 0 1 3.664 3.667 3.67 3.67 0 0 1-3.664 3.667Zm3.691-14.758v5.974c-.939-.863-2.325-1.525-3.69-1.525-3.66 0-6.637 2.98-6.637 6.642 0 3.662 2.977 6.642 6.637 6.642 1.365 0 2.67-.628 3.69-1.525l.3 1.53h2.672V6.538h-2.972ZM81.084 24.276h2.972V11.6h-2.972zM149.274 10.985c-1.101 0-2.362.699-3.02 1.545l-.499-1.556h-2.472v13.301h2.996v-7.47c0-1.57 1.343-2.845 2.995-2.845 1.651 0 2.995 1.276 2.995 2.844v7.471h2.996v-7.47c0-3.21-2.688-5.82-5.991-5.82M87.153 24.276h2.972V6.536h-2.972zM84.51 8.138a1.942 1.942 0 1 0-3.883-.001 1.942 1.942 0 0 0 3.884 0M113.474 10.998c-.991.08-1.892.645-2.672 1.195l-.3-1.218h-2.672v6.112a6.124 6.124 0 0 0-.042.698v6.407h.042v.084h2.972v-.084h.043v-6.407c0-1.413 1.205-3.604 2.87-3.737.414-.032.807.018 1.36.175l.835-2.942c-.608-.173-1.436-.362-2.436-.283M56.422 10.98c-1.721 0-3.27.754-4.335 1.947a5.8 5.8 0 0 0-4.335-1.946 5.823 5.823 0 0 0-5.814 5.819v7.47h2.972V16.8a2.847 2.847 0 0 1 2.842-2.845 2.847 2.847 0 0 1 2.842 2.845v7.47H53.58V16.8a2.847 2.847 0 0 1 2.842-2.845 2.847 2.847 0 0 1 2.842 2.845v7.47h2.972V16.8a5.823 5.823 0 0 0-5.814-5.82"/></g></g></svg>
