<svg xmlns="http://www.w3.org/2000/svg" viewBox="0 0 185.67 51.08"><defs><style>.cls-1{fill:#b1403c;}.cls-2{fill:#b13f3c;}.cls-3{fill:#fff;}.cls-4{fill:#b13f3b;}.cls-5{fill:#b2413d;}</style></defs><g id="Layer_2" data-name="Layer 2"><g id="Layer_1-2" data-name="Layer 1"><g id="QV7IVI.tif"><path class="cls-1" d="M30.38,33.28A20,20,0,0,1,27.87,36,12,12,0,0,1,8.52,29.2,12,12,0,0,1,20.13,14.92,12,12,0,0,1,32,25.44a10.48,10.48,0,0,1,0,2.8,1.63,1.63,0,0,0,1.24,1.82,1.73,1.73,0,0,0,2.13-.62,3.56,3.56,0,0,0,.71-2.36C35.9,21,33.37,16.13,28,13.08s-11.12-2.79-16.5.52A15.88,15.88,0,0,0,5,31.24a15.4,15.4,0,0,0,11.7,11,15,15,0,0,0,14.37-3.87,5.73,5.73,0,0,0,.72-1l3.44,2.9A17.86,17.86,0,0,1,28.1,45.5,20.13,20.13,0,0,1,.45,30.78c-1.3-6.08.29-11.56,4-16.4A19.31,19.31,0,0,1,19.77,6.62a19.25,19.25,0,0,1,12.63,4.1,19.42,19.42,0,0,1,6.18,7.74c1.75,4,2.7,8.22,1.12,12.55a5.83,5.83,0,0,1-7.44,3.61A7.78,7.78,0,0,1,30.38,33.28Zm-10,1.34A7.67,7.67,0,1,0,12.64,27,7.61,7.61,0,0,0,20.35,34.62Z"/><path class="cls-2" d="M121.23,40.57h4.63c.33.35.25.79.29,1.19a5,5,0,0,0,4.3,4.67c3.53.65,5.94-1.09,6.46-4.63a27.49,27.49,0,0,0,.19-4.61c-.37-.09-.48.13-.62.27-3.95,4.16-11.92,3-14.79-2.88A12.78,12.78,0,0,1,122.62,21a9.48,9.48,0,0,1,13.8-1.84c.18.14.3.39.67.36.28-.59,0-1.28.22-2h4.74c.23.22.17.51.17.78,0,7.51,0,15-.05,22.54C142.1,47.15,138,51,131.77,51.08c-3.5,0-6.52-.95-8.65-3.88A10.29,10.29,0,0,1,121.23,40.57Zm16.11-12.18a9.94,9.94,0,0,0-.46-3,5.6,5.6,0,0,0-5.3-4,5.51,5.51,0,0,0-5.59,3.7,8.86,8.86,0,0,0,0,6.62,5.72,5.72,0,0,0,8.17,2.83C136.59,33.15,137.25,30.84,137.34,28.39Z"/><path class="cls-3" d="M45.85,17.58h4.72c.44.42,0,1,.52,1.6a5.87,5.87,0,0,1,5.36-2.26,6.65,6.65,0,0,1,5,2.89c.51,0,.64-.37.88-.6,3-2.95,8.08-3.12,10.85-.33a7.3,7.3,0,0,1,2,4.91c.25,5.14.1,10.29.08,15.44,0,.06-.06.12-.11.24H70.49a1.68,1.68,0,0,1-.17-1.15c0-3.72,0-7.44,0-11.16a12,12,0,0,0-.27-2.8c-.39-1.6-1.16-2.42-2.48-2.56a3.43,3.43,0,0,0-3.78,2,8.2,8.2,0,0,0-.68,3.35l0,11.16a1.45,1.45,0,0,1-.19,1.07H58.3c-.35-.32-.21-.73-.21-1.1q0-5.2,0-10.43a17.25,17.25,0,0,0-.27-3.21c-.36-1.88-1.32-2.87-2.86-2.93a3.36,3.36,0,0,0-3.71,2.67,13.28,13.28,0,0,0-.43,3.81c0,3.65,0,7.3,0,11H45.85Z"/><path class="cls-3" d="M93.88,19.61c.33-.62-.08-1.36.28-2h4.75V39.06H94.14c-.29-.59,0-1.21-.23-1.77-.47-.07-.71.29-1,.52C88.72,41.43,81.29,40,78.54,34.45a13.1,13.1,0,0,1-.16-12C81,16.91,88.63,15,93.07,19.14,93.28,19.35,93.45,19.66,93.88,19.61ZM82.15,28.29A7.84,7.84,0,0,0,82.53,31a5.83,5.83,0,0,0,4.66,4.25c2.78.29,5-.76,6.13-3a8.36,8.36,0,0,0,.07-7.65,5.76,5.76,0,0,0-8.45-2.16A6.92,6.92,0,0,0,82.15,28.29Z"/><path class="cls-4" d="M185.58,39.23h-4.85a1.76,1.76,0,0,1-.14-1.14c0-3.76,0-7.51,0-11.27a11,11,0,0,0-.19-2.28c-.44-2.14-1.38-2.94-3.58-3s-3.76.88-4.3,2.83a15.94,15.94,0,0,0-.46,4.24V39.2h-5V17.58h4.6c.34.5,0,1.06.27,1.59.49,0,.73-.46,1.06-.72,3.45-2.67,9.1-1.88,11.26,1.62a8.26,8.26,0,0,1,1.3,4.12c.12,4.9.07,9.8.08,14.71A1.51,1.51,0,0,1,185.58,39.23Z"/><path class="cls-1" d="M145.18,17.56H150c.36.36.23.77.23,1.13,0,3.55,0,7.1,0,10.64a20,20,0,0,0,.09,2.19c.26,2.42,1.54,3.67,3.8,3.74,2.59.08,3.91-1,4.33-3.48a13,13,0,0,0,.17-2c0-3.68,0-7.37,0-11.06a2.41,2.41,0,0,1,.13-1.17h4.72c.27.25.21.54.21.81,0,4.11,0,8.21,0,12.31,0,3.53-1.17,6.47-4.48,8.1a10.17,10.17,0,0,1-10.34-.44,7.15,7.15,0,0,1-3.45-5.58C144.93,27.76,145.32,22.72,145.18,17.56Z"/><path class="cls-3" d="M117.43,39.05H112.6V0h4.83Z"/><path class="cls-3" d="M103.09,17.58H108V39.2h-4.86Z"/><path class="cls-3" d="M108.77,8.67a3.27,3.27,0,1,1-3.22-3.25A3.22,3.22,0,0,1,108.77,8.67Z"/><path class="cls-5" d="M20.32,23.32a3.51,3.51,0,0,1,3.53,3.6,3.52,3.52,0,0,1-7-.11A3.49,3.49,0,0,1,20.32,23.32Z"/></g></g></g></svg>