<svg xmlns="http://www.w3.org/2000/svg" viewBox="0 0 477.19 113.53"><defs><style>.cls-1{fill:#d9d9d9;}.cls-2{fill:#e5e5e3;}.cls-3{fill:#fff;}.cls-4{fill:#b9bbbd;}.cls-5{fill:#f5a144;}.cls-6{fill:#020202;}.cls-7{fill:#a01f2e;}.cls-8{fill:#0489bd;}.cls-9{fill:#46b8e2;}.cls-10{fill:#c57c2b;}.cls-11{fill:#d11f38;}</style></defs><g id="Layer_2" data-name="Layer 2"><g id="Layer_1-2" data-name="Layer 1"><g id="HWTLV4.tif"><path class="cls-1" d="M128.28,0c0,.64,0,1.28,0,1.91-1.5,0-1.85,1.28-2.49,2.2C122,9.55,118.3,15,114.64,20.46c-.82,1.24-1.6,2.27-3.26,2-.43-.94.23-2.17-.89-3.07-3.39,0-6.91-.12-10.41,0-2.82.13-5.7-.68-8.45.5-6,8.76-12,17.56-18.16,26.27-3.06,4.35-5.7,9-9.18,13.05L55.21,46l-18-26c-6.43-1.55-12.91-.2-19.49-.76l-.37,3.83c-1.37-.05-2-1-2.66-2-2.69-4-5.27-8-8.2-11.8C4.57,6.8,3.58,3.57.64,1.92V0Z"/><path class="cls-2" d="M.64,1.92C3.58,3.57,4.57,6.8,6.48,9.26,9.41,13,12,17.09,14.68,21.06c.68,1,1.29,2,2.66,2l.33,2.52a20.85,20.85,0,0,0-.22,2.22q0,31.91,0,63.81A3.08,3.08,0,0,0,17.92,94h19.2V90.28q0-15.87,0-31.74c0-1.26-.29-2.58.47-3.75C39.7,57.86,41.75,61,43.92,64c3,4.22,5.52,8.8,9,12.66,3.19,6,7.52,11.33,11.2,17C62.77,95.8,61.38,97.91,60,100c-2.93,4.47-6.37,8.62-8.68,13.5H.64L0,112.88V1.92Z"/><path class="cls-2" d="M111.37,22.42c1.67.31,2.45-.72,3.27-2C118.3,15,122,9.55,125.77,4.11c.64-.92,1-2.22,2.49-2.2q0,55.82,0,111.62H77.61c-.64-2.19-2.22-3.81-3.43-5.65-3.14-4.75-6.69-9.22-9.44-14.23q5.55-8.28,11.11-16.57L91.59,54.62V93.93h19.54V90.26q0-24.17,0-48.34c0-5-.11-10-.17-15Z"/><path class="cls-3" d="M454.75,73.09c-.53-.1-.6-.47-.6-.93V40c2.92-.68,5.76-.12,8.9-.39v26c4.92.12,9.52.51,14.14-.19v7.7l-21.8,0C455.2,72.77,455,72.72,454.75,73.09Z"/><path class="cls-4" d="M64.74,93.65c2.75,5,6.3,9.48,9.44,14.23,1.21,1.84,2.79,3.46,3.43,5.65H51.31c2.31-4.88,5.75-9,8.68-13.5,1.39-2.12,2.78-4.23,4.16-6.35C64.35,93.68,64.54,93.66,64.74,93.65Z"/><path class="cls-3" d="M152.23,39.78H161l12.25,17.93c4.2-6.13,8.19-12,12.26-17.9H194v33h-8.24V56l-.68-.26L173.28,72.88,161.14,55.15v17.5c-3.13.7-5.95.18-8.91.39Z"/><path class="cls-3" d="M258,39.79h9.45c4.19,6.5,8.49,13.19,13.32,20.67V39.86h8.35V73.57h-9.26L266.44,52.68V73a41,41,0,0,1-8.43.19Z"/><path class="cls-3" d="M377.14,73.14h-7.7c-.14-.34-.33-.46-.63-.14-2.66-3.19-4.2-7.09-6.63-10.47a6.77,6.77,0,0,0-3.24-.08c-1.13,3.43.49,7.16-1,10.66h-8.19V39.63c6.18.35,12.23-.57,18.24.6,4.59.89,7.81,3.27,8.66,8.13.91,5.15-.68,8.31-5.61,11.36-.17.1-.27.3-.55.62l6.82,11C377.27,71.93,377.2,72.54,377.14,73.14Zm-18.5-17.43c3.26-.11,6.58.71,8.59-2.45a3.82,3.82,0,0,0-.17-4.52c-2.27-2.68-5.38-1.67-8.42-1.84Z"/><path class="cls-3" d="M304,73.25V39.66c6.42.28,12.79-.69,19.08.81,8.46,2,12.72,8.76,11.84,18.53-.72,7.91-7.21,13.82-15.93,14.21C314.08,73.43,309.18,73.25,304,73.25ZM312.79,66c4.88.24,9.63.62,12.18-4.14a10.49,10.49,0,0,0-.54-11.51c-2.87-3.92-7.24-3.62-11.64-3.3Z"/><path class="cls-3" d="M241.8,73.14h-6.41c-.16-.36-.36-.45-.63-.1-1.56-1.81-1.51-4.32-2.89-6.48H220c-.79,2.22-1.52,4.3-2.31,6.51a41.41,41.41,0,0,1-8.83,0L220.64,39.8h11.05c3.54,10.37,7.14,20.89,10.73,31.41C241.68,71.68,241.83,72.44,241.8,73.14ZM222,59.1a27.23,27.23,0,0,0,7.88-.2L226,47.26C224.53,51.67,223.35,55.17,222,59.1Z"/><path class="cls-3" d="M438.71,73.14H417V39.87h8.73V65.72h14.09c-.23,2.7.73,5.07-.5,7.35C439.09,72.71,438.89,72.78,438.71,73.14Z"/><path class="cls-3" d="M393.56,40.35c2.79-1.52,5.72-.27,8.92-.7-.17,11.14.29,22-.26,32.82-2.52,0-5.06.47-7.44-.26a7.56,7.56,0,0,1-.41-3.64c0-8.33,0-16.65,0-25C394.34,42.48,394.77,41.2,393.56,40.35Z"/><path class="cls-3" d="M393.56,40.35c1.21.85.78,2.13.79,3.24,0,8.33,0,16.65,0,25a7.56,7.56,0,0,0,.41,3.64c2.38.73,4.92.31,7.44.26-.92,1.8-2.54.67-3.81.84a37.13,37.13,0,0,1-4.85,0Z"/><path class="cls-3" d="M241.8,73.14c0-.7-.12-1.46.62-1.93l.71,1.49C242.77,73.45,242.27,73.25,241.8,73.14Z"/><path class="cls-3" d="M377.14,73.14c.06-.6.13-1.21.19-1.81.38.46.75.93,1.08,1.35C378.12,73.48,377.61,73.23,377.14,73.14Z"/><path class="cls-3" d="M234.76,73.05c.27-.35.47-.26.63.1Z"/><path class="cls-3" d="M368.81,73c.3-.32.49-.2.63.14Z"/><path class="cls-3" d="M438.71,73.14c.18-.36.38-.43.64-.07Z"/><path class="cls-3" d="M454.75,73.09c.24-.37.45-.32.64,0Z"/><path class="cls-5" d="M91.59,54.62,75.85,77.08c-3.1-6-7.17-11.27-11.13-16.66-.09-.13-.4-.09-.61-.13l.18-1.09c3.48-4.05,6.12-8.7,9.18-13.05,6.12-8.71,12.11-17.51,18.16-26.27,0,1.17.08,2.35.09,3.52q.09,15.2.17,30.38Z"/><path class="cls-6" d="M64.29,59.2l-.18,1.09A149.18,149.18,0,0,0,53,76.64c-3.51-3.86-6-8.44-9-12.66-2.17-3-4.22-6.12-6.32-9.19-.22-.52-.44-1-.67-1.56.06-1.17.18-2.33.18-3.5q.06-14.85.09-29.71l18,26Z"/><path class="cls-7" d="M91.89,53.78q-.08-15.2-.17-30.38c0-1.17-.06-2.35-.09-3.52,2.75-1.18,5.63-.37,8.45-.5,3.5-.15,7,0,10.41,0,1.12.9.46,2.13.89,3.07-.15,1.49-.29,3-.43,4.47a6.28,6.28,0,0,0-2.12,2.31Q100.39,41.51,91.89,53.78Z"/><path class="cls-8" d="M37.2,20q0,14.85-.09,29.71c0,1.17-.12,2.33-.18,3.5-1.43-2-2.89-3.9-4.28-5.9q-7.51-10.84-15-21.72l-.33-2.52.37-3.83C24.29,19.82,30.77,18.47,37.2,20Z"/><path class="cls-9" d="M17.67,25.61q7.49,10.86,15,21.72c1.39,2,2.85,3.93,4.28,5.9.23.52.45,1,.67,1.56-.76,1.17-.47,2.49-.47,3.75q0,15.87,0,31.74V94H17.92a3.08,3.08,0,0,1-.48-2.32q0-31.9,0-63.81A20.85,20.85,0,0,1,17.67,25.61Z"/><path class="cls-10" d="M53,76.64A149.18,149.18,0,0,1,64.11,60.29c.21,0,.52,0,.61.13,4,5.39,8,10.7,11.13,16.66q-5.55,8.3-11.11,16.57c-.2,0-.39,0-.59,0C60.47,88,56.14,82.68,53,76.64Z"/><path class="cls-11" d="M91.89,53.78q8.48-12.28,16.94-24.58A6.28,6.28,0,0,1,111,26.89c.06,5,.16,10,.17,15q0,24.17,0,48.34v3.67H91.59V54.62Z"/></g></g></g></svg>