<?xml version="1.0" encoding="utf-8"?>
<!-- Generator: Adobe Illustrator 26.3.1, SVG Export Plug-In . SVG Version: 6.00 Build 0)  -->
<svg version="1.1" id="Calque_1" xmlns="http://www.w3.org/2000/svg" xmlns:xlink="http://www.w3.org/1999/xlink" x="0px" y="0px"
     viewBox="0 0 212 25" style="enable-background:new 0 0 212 25;" xml:space="preserve">
<style type="text/css">
	.st0{clip-path:url(#SVGID_00000126319599610110541100000008002169272355018154_);fill:#FFFFFF;}
	.st1{clip-path:url(#SVGID_00000183245091655129081290000014343144617055281285_);}
	.st2{fill:#FFFFFF;}
	.st3{font-family:'Lato-Regular';}
	.st4{font-size:19.8614px;}
</style>
  <g>
	<g>
		<defs>
			<rect id="SVGID_1_" y="0" width="212" height="25"/>
		</defs>
    <clipPath id="SVGID_00000103970705275616176510000004157795825294657448_">
			<use xlink:href="#SVGID_1_"  style="overflow:visible;"/>
		</clipPath>
    <path style="clip-path:url(#SVGID_00000103970705275616176510000004157795825294657448_);fill:#FFFFFF;" d="M28.5,2.4L28.5,2.4
			l-0.3,0.1c-0.6,0.1-1.1,0.2-1.7,0.5c-0.5,0.3-1,0.6-1.4,1c-0.7,0.6-1.2,1.4-1.5,2.4c-0.2,0.5-0.2,1.1-0.2,1.6s0.1,1.1,0.3,1.6
			c0.3,0.8,0.7,1.5,1.4,2l0.3,0.3l-2.2,3.5c-0.5,0-0.8,0-1.2,0.2c-0.5,0.2-0.9,0.6-1.2,1c-0.1,0.3-0.2,0.5-0.2,0.8s0,0.6,0.1,0.8
			c0.1,0.5,0.4,0.9,0.9,1.2c0.3,0.2,0.5,0.3,0.9,0.4s0.6,0.1,0.9,0.1s0.6-0.2,0.9-0.3c0.3-0.2,0.5-0.4,0.7-0.7
			c0.2-0.3,0.3-0.6,0.4-1c0-0.4,0-0.7-0.1-1.1c0-0.1-0.1-0.2-0.2-0.4H25l3.1-5c0.1-0.2,0.2-0.3,0.2-0.4H28c-0.2,0-0.3-0.1-0.3-0.1
			c-0.4-0.2-0.8-0.4-1.1-0.7c-0.3-0.3-0.6-0.6-0.7-1c-0.3-0.6-0.4-1.3-0.2-2c0.1-0.4,0.2-0.8,0.4-1.1c0.2-0.3,0.5-0.6,0.8-0.9
			c0.6-0.5,1.4-0.7,2.1-0.7c0.5,0,0.9,0.1,1.4,0.2c0.4,0.2,0.8,0.4,1.2,0.8c0.3,0.3,0.5,0.6,0.7,1s0.3,0.8,0.3,1.2
			c0,0.3-0.1,0.7-0.2,1.1l1.8,0.5h0.2c0.2-0.7,0.3-1.5,0.2-2.2c-0.1-0.6-0.2-1.1-0.5-1.7c-0.3-0.5-0.6-1-1-1.4
			c-0.7-0.7-1.6-1.2-2.7-1.5c-0.1,0-0.3-0.1-0.5-0.1l-0.4-0.1L28.5,2.4L28.5,2.4z M29,5.6c-0.3,0-0.6,0.1-0.9,0.2s-0.6,0.3-0.8,0.5
			c-0.2,0.2-0.4,0.5-0.5,0.8s-0.2,0.7-0.1,1.1c0.1,0.3,0.2,0.6,0.4,0.9c0.2,0.3,0.4,0.5,0.7,0.7c0.4,0.3,0.9,0.4,1.5,0.3
			c0.1,0.1,0.1,0.1,0.1,0.2l2.9,5c0.1,0.1,0.1,0.2,0.2,0.2c0.5-0.5,1-0.8,1.5-0.9c0.5-0.2,1.1-0.2,1.7-0.1s1.1,0.3,1.5,0.7
			c0.6,0.4,0.9,1,1.1,1.6c0.2,0.6,0.2,1.3,0,1.9c-0.1,0.5-0.4,0.9-0.7,1.3c-0.4,0.4-0.8,0.7-1.3,0.9c-0.5,0.2-1.1,0.3-1.7,0.2
			c-0.6-0.1-1.2-0.3-1.7-0.6c-0.1-0.1-0.2-0.1-0.3-0.3L32.5,20c-0.1,0.1-0.2,0.1-0.3,0.3L31,21.5c0.4,0.4,0.8,0.7,1.4,1
			c0.5,0.3,1,0.5,1.6,0.6l0.6,0.1h1l0.7-0.1c1.1-0.2,2.1-0.7,2.9-1.6c0.4-0.4,0.7-0.8,0.9-1.3c0.3-0.5,0.4-1,0.5-1.5
			c0.1-0.6,0.1-1.2-0.1-1.9c-0.1-0.6-0.3-1.2-0.7-1.7c-0.3-0.5-0.7-0.9-1.1-1.3s-0.9-0.7-1.5-0.9s-1.2-0.4-1.8-0.4s-1.3,0-1.9,0.2
			l-0.4,0.1L31,9.2c0.2-0.3,0.4-0.7,0.4-1c0.1-0.6,0-1.1-0.3-1.6c-0.3-0.4-0.7-0.7-1.1-0.9C29.6,5.7,29.3,5.6,29,5.6z M21.7,12.5
			c-1,0.2-1.9,0.7-2.6,1.4c-0.8,0.8-1.3,1.7-1.6,2.7l-0.1,0.6v1l0.1,0.3c0,0.2,0.1,0.4,0.1,0.5c0.1,0.5,0.3,1,0.6,1.5
			c0.3,0.5,0.7,0.9,1.1,1.3c0.9,0.7,1.9,1.1,3,1.3c0.7,0.1,1.3,0,2-0.1s1.3-0.4,1.8-0.7c0.9-0.6,1.6-1.4,2-2.4
			c0.1-0.3,0.2-0.7,0.4-1.2c0.1,0,0.3,0,0.5,0l3.3,0.1c0.2,0,0.4,0,0.5,0c0.2,0.3,0.4,0.6,0.7,0.8c0.2,0.2,0.5,0.3,0.8,0.4
			s0.6,0.1,0.9,0.1c0.5-0.1,0.9-0.2,1.3-0.5c0.5-0.4,0.7-0.8,0.8-1.4c0-0.3,0-0.6,0-0.9c-0.1-0.3-0.2-0.5-0.4-0.8
			c-0.3-0.4-0.6-0.7-1.1-0.8c-0.3-0.1-0.6-0.2-0.9-0.2c-0.3,0-0.6,0.1-0.9,0.2c-0.5,0.2-0.9,0.5-1.1,1l-0.1,0.2c-0.2,0-0.6,0-1.1,0
			h-2.9c-0.3,0-0.6,0-1.1,0h-1.3l0.1,0.4c0.1,0.7,0,1.4-0.3,2.1c-0.2,0.5-0.6,0.9-1,1.2C24.5,20.8,24,21,23.5,21
			c-0.6,0.1-1.2,0-1.8-0.2c-0.6-0.2-1.1-0.6-1.5-1.1c-0.5-0.6-0.7-1.3-0.7-2.1c0-0.6,0.2-1.2,0.6-1.8c0.2-0.3,0.5-0.6,0.8-0.8
			s0.7-0.4,1.1-0.5l0.2-0.1L21.7,12.5z"/>
	</g>
    <g>
		<defs>
			<rect id="SVGID_00000005265462531804425600000013284443872785682870_" y="0" width="212" height="25"/>
		</defs>
      <clipPath id="SVGID_00000098208082188082688390000012467459826477875593_">
			<use xlink:href="#SVGID_00000005265462531804425600000013284443872785682870_"  style="overflow:visible;"/>
		</clipPath>
      <g style="clip-path:url(#SVGID_00000098208082188082688390000012467459826477875593_);">
			<text transform="matrix(1 0 0 1 51.6538 20.0324)" class="st2 st3 st4">Push Webhook </text>
		</g>
	</g>
</g>
</svg>
