<?xml version="1.0" encoding="UTF-8"?>
<svg id="a" data-name="Layer 1" xmlns="http://www.w3.org/2000/svg" viewBox="0 0 1156.06 168.16">
  <path d="m54.82,89.27l-8.27,47.75H0L24.5,0h66.76c10.41,0,18.99.59,26.34,1.78,7.04,1.19,12.86,2.97,17.46,5.63,4.59,2.37,7.66,5.63,9.8,9.19,2.14,3.56,3.06,8.01,3.06,13.05,0,2.67-.31,5.63-.92,9.19-1.53,7.71-4.59,14.83-9.49,21.06-4.9,6.23-11.64,10.38-20.21,12.46,2.76.89,5.51,2.08,7.66,3.26,2.45,1.19,4.29,2.37,5.82,4.15,1.53,1.78,2.76,3.56,3.67,6.23.92,2.37,1.22,5.64,1.22,9.19,0,3.86-.61,8.6-1.22,13.64-.92,4.74-1.53,8.9-2.14,11.86-.61,3.26-.92,5.63-.92,7.41,0,2.97,1.22,4.45,3.37,4.45v4.45h-47.16c-.31-1.19-.31-2.67-.31-4.45,0-2.08.31-5.04.61-8.3.31-3.26.92-7.12,1.53-11.27.92-4.15,1.22-7.71,1.22-10.68,0-4.75-1.53-8.3-4.59-10.08-3.06-2.08-8.88-2.97-16.84-2.97h-14.39Zm5.51-29.95h18.37c7.04,0,12.86-.89,16.84-2.97,3.98-1.78,6.43-5.34,7.35-10.08,0-.59.31-1.48.31-2.97,0-3.86-1.53-6.82-4.59-8.6-3.06-1.78-7.04-2.67-11.64-2.67h-21.74l-4.9,27.28Z" fill="#0684bc" fill-rule="evenodd" stroke-width="0"/>
  <path d="m213.14,37.37h37.06l-2.76,15.72c5.82-6.23,11.64-10.68,17.46-13.94,5.82-2.97,12.86-4.75,20.52-4.75,11.64,0,19.91,2.67,25.42,7.71,5.51,5.04,7.96,12.75,7.96,22.54,0,3.85-.31,8.01-1.22,12.46l-10.41,59.91h-40.73l9.49-52.79c.31-2.37.61-4.45.61-6.52,0-3.56-.92-6.23-2.45-8.6-1.53-2.37-4.59-3.56-9.19-3.56-6.13,0-11.02,1.78-13.78,5.34-2.76,3.56-4.9,8.6-5.82,15.12l-9.19,50.71h-40.73l17.76-99.35Z" fill="#0684bc" fill-rule="evenodd" stroke-width="0"/>
  <path d="m357.39,139.68v.59c0,1.48.61,2.67,1.84,3.86,1.53,1.78,4.29,2.37,8.58,2.37,5.82,0,10.41-1.48,13.47-4.45s5.21-8.01,6.43-15.13l1.53-8.3c-3.37,2.97-7.66,5.34-12.56,7.71-4.9,2.08-11.33,3.26-18.68,3.26-6.13,0-11.64-.89-16.23-2.97-4.59-1.78-8.58-4.45-11.64-7.71-3.06-3.26-5.51-7.12-7.04-11.86-1.53-4.45-2.45-9.49-2.45-14.53,0-1.78,0-3.26.31-5.04.31-1.78.31-3.26.61-5.04.92-6.23,3.06-12.16,5.51-18.39,2.76-6.23,6.12-11.57,10.72-16.31,4.59-4.75,9.8-8.6,16.23-11.57,6.43-2.97,13.78-4.45,22.36-4.45,6.43,0,11.94,1.48,16.84,4.45,4.9,2.97,8.88,6.82,11.64,11.57l2.14-13.05h35.83l-14.39,80.37c-1.23,7.41-3.06,14.53-4.9,20.76-2.14,6.52-5.21,12.16-9.8,16.9-4.59,4.74-10.41,8.6-18.37,11.27-7.66,2.67-18.07,4.15-30.62,4.15-8.88,0-16.54-.89-22.66-2.37-6.13-1.48-11.02-3.56-15.01-5.93-3.67-2.67-6.43-5.34-8.27-8.9-1.84-3.26-2.76-6.82-2.76-10.38v-1.19h41.34v.3Zm24.19-79.48c-3.06,0-5.51.59-7.96,1.78-2.14,1.19-3.98,2.67-5.82,4.75-1.53,2.08-2.76,4.45-3.67,7.12-.92,2.67-1.84,5.93-2.14,8.9,0,.89-.31,1.78-.31,2.37v2.37c0,3.86.92,7.41,3.06,10.38,2.14,2.97,5.21,4.45,9.8,4.45h.92c2.76,0,5.51-.59,7.66-1.78,2.14-1.19,4.29-2.67,5.82-4.45,1.53-1.78,3.06-4.15,3.98-6.52.92-2.37,1.84-5.04,2.45-7.71.31-2.08.61-4.15.61-6.23,0-4.15-.92-7.71-3.06-10.68-2.14-2.97-5.82-4.45-11.02-4.45h-.31v-.3Z" fill="#0684bc" fill-rule="evenodd" stroke-width="0"/>
  <path d="m538.37,52.49v-2.37c0-5.93-1.84-10.68-5.21-13.94-3.67-3.26-8.57-4.75-15.01-4.75-7.96,0-14.39,3.26-19.91,9.49-5.51,6.23-9.19,15.72-11.64,28.17-.61,2.37-.92,4.75-1.22,6.82-.31,2.08-.31,4.45-.31,6.52,0,3.26.31,5.93.92,8.6s1.84,5.04,3.67,6.82c1.53,2.08,3.98,3.56,6.74,4.75,2.76,1.19,6.13,1.78,10.41,1.78,7.04,0,12.86-2.08,17.15-6.23,4.29-4.15,7.35-9.49,9.49-15.72h42.26c-2.45,8.3-6.13,16.01-10.72,22.54s-10.11,12.16-16.54,16.9c-6.43,4.75-13.47,8.01-21.44,10.68-7.96,2.37-16.23,3.56-25.11,3.56-9.8,0-18.07-1.19-25.72-3.56-7.35-2.37-13.78-5.93-18.99-10.38-5.21-4.45-9.19-10.08-11.64-16.61-2.76-6.52-3.98-13.94-3.98-22.24,0-2.37,0-4.75.31-7.41.31-2.67.61-5.34,1.22-8.01,1.84-10.38,5.21-19.87,10.11-28.17,4.9-8.3,11.02-15.42,18.07-21.35,7.04-5.93,15.01-10.38,23.58-13.64,8.88-3.26,17.76-4.75,26.95-4.75,19.29,0,33.99,4.15,43.49,12.46,9.49,8.3,14.39,19.87,14.39,35v2.37c0,.89,0,1.78-.31,2.67h-41.04Z" fill="#ff7a00" fill-rule="evenodd" stroke-width="0"/>
  <path d="m622.9,92.23c0,.59-.31,1.19-.31,1.78v1.78c0,4.74,1.53,8.6,4.9,11.57,3.37,2.97,7.35,4.15,12.25,4.15,3.37,0,6.43-.59,9.49-2.08,3.06-1.48,5.51-3.56,7.35-6.53h39.2c-2.76,6.23-6.74,11.27-11.33,15.72-4.59,4.15-9.8,7.71-15.31,10.08-5.51,2.67-11.64,4.45-17.76,5.63-6.13,1.19-12.25,1.48-18.37,1.48-7.35,0-14.09-.89-20.21-2.67-6.12-1.78-11.33-4.45-15.92-8.01-4.59-3.56-7.96-8.01-10.41-13.05-2.45-5.04-3.67-10.97-3.67-17.79,0-1.78,0-3.26.31-5.04.31-1.78.31-3.56.61-5.34,1.53-8.01,4.29-15.42,8.57-22.24,4.29-6.53,9.19-12.16,15.31-16.9,6.13-4.75,12.86-8.3,20.52-10.68,7.66-2.67,15.31-3.86,23.58-3.86s15.62,1.19,22.05,3.56c6.43,2.37,11.64,5.34,15.92,9.49,4.29,4.15,7.66,8.9,9.8,14.83,2.14,5.93,3.37,12.16,3.37,19.28,0,4.45-.61,9.19-1.53,14.53h-78.4v.3Zm40.42-20.17c0-.59.31-1.48.31-2.97,0-4.15-1.53-7.41-4.29-10.38-2.76-2.67-6.43-4.15-10.72-4.15-6.13,0-11.02,1.48-15.01,4.74-3.67,3.26-6.13,7.41-7.35,12.75h37.06Z" fill="#ff7a00" fill-rule="evenodd" stroke-width="0"/>
  <path d="m715.38,36.18h37.36l-2.75,15.72c5.82-6.23,11.64-10.68,17.45-13.94,5.82-2.97,12.86-4.75,20.52-4.75,11.64,0,19.91,2.67,25.42,7.71,5.51,5.04,7.97,12.75,7.97,22.54,0,3.86-.31,8.01-1.23,12.46l-10.41,59.91h-40.73l9.49-52.79c.3-2.37.61-4.45.61-6.52,0-3.56-.92-6.23-2.45-8.6-1.53-2.37-4.59-3.56-9.19-3.56-6.12,0-11.02,1.78-13.78,5.34-2.75,3.56-4.9,8.6-5.82,15.12l-9.19,51.01h-40.73l17.46-99.65Z" fill="#ff7a00" fill-rule="evenodd" stroke-width="0"/>
  <path d="m885.34,136.42c-4.6.3-8.88.59-12.56.59-3.98,0-7.35.3-10.72.3-6.12,0-11.33-.3-15.62-.89-4.29-.59-7.66-1.48-10.1-2.97-2.45-1.48-4.29-3.26-5.21-5.93-.92-2.37-1.53-5.34-1.53-9.19,0-2.37.31-4.74.61-7.71.31-2.97.92-5.93,1.53-9.49l7.35-41.52h-14.39l3.98-22.84h15.01l5.82-31.14h40.12l-5.82,31.14h19.6l-3.99,22.84h-19.6l-6.43,36.18c-.3,1.19-.3,2.08-.61,2.97,0,.89-.31,1.78-.31,2.67,0,2.37.92,4.15,2.45,5.04,1.53.89,4.59,1.48,8.88,1.48h6.43l-4.9,28.47Z" fill="#ff7a00" fill-rule="evenodd" stroke-width="0"/>
  <path d="m911.68,37.37h37.06l-3.68,20.17h.31c8.27-15.42,20.21-23.13,35.83-23.13.92,0,1.84,0,2.75.3.92,0,1.84.3,2.75.3l-7.04,39.74c-1.23-.3-2.75-.59-3.98-.89-1.53-.3-2.76-.3-4.29-.3-8.27,0-15.01,2.08-19.91,6.52-4.9,4.45-8.27,11.86-10.41,22.54l-6.12,34.4h-40.74l17.46-99.65Z" fill="#ff7a00" fill-rule="evenodd" stroke-width="0"/>
  <path d="m1041.52,137.31l-.31-13.64c-6.74,5.34-13.17,8.9-19.6,10.68-6.43,1.78-13.47,2.67-21.44,2.67-4.29,0-8.58-.59-12.25-1.48-3.98-.89-7.35-2.37-10.11-4.45-2.75-2.08-5.21-4.45-6.73-7.41-1.84-2.97-2.45-6.52-2.45-10.68,0-1.78.31-3.85.62-5.93,1.22-7.41,4.28-13.35,8.57-17.5s9.49-7.41,15.32-9.49c5.82-2.08,11.94-3.56,18.37-4.45,6.43-.89,12.56-1.48,18.07-2.37,5.51-.59,10.41-1.48,14.09-2.97,3.98-1.19,6.12-3.26,6.43-6.52v-1.19c0-1.48-.62-2.67-1.23-3.56-.92-.89-2.14-1.48-3.37-2.08-1.23-.3-2.45-.89-3.98-.89-1.53-.3-2.76-.3-3.68-.3-1.53,0-3.06,0-4.59.3-1.53.3-3.07.59-4.6,1.48-1.53.59-2.75,1.78-3.98,2.97-1.23,1.19-2.14,2.97-2.76,5.04h-39.19c.92-5.34,2.75-10.08,5.51-14.24,2.76-4.15,6.74-7.71,11.64-10.38,5.21-2.97,11.34-5.04,18.69-6.52,7.35-1.48,16.23-2.37,26.33-2.37,9.19,0,16.84.59,22.97,1.78,5.82,1.19,10.71,2.97,14.08,5.34,3.37,2.37,5.82,5.04,7.04,8.3,1.23,3.26,1.84,6.82,1.84,10.68,0,2.37-.31,4.74-.62,7.41-.3,2.67-.61,5.34-1.23,8.01l-8.27,46.56c-.3,2.08-.61,3.86-.61,5.34s.31,2.67.92,3.86,1.53,2.37,3.06,3.85v5.04h-42.56v-.89Zm-18.99-22.54c3.37,0,6.74-.59,9.19-1.78,2.75-1.19,4.9-2.97,6.73-5.34,1.84-2.08,3.37-4.74,4.29-7.71.92-2.97,1.84-6.23,2.14-9.49-3.68,1.48-7.35,2.67-11.03,3.26-3.67.59-7.35,1.48-10.41,2.37-3.06.89-6.12,2.08-8.27,3.56-2.45,1.48-3.67,3.85-4.29,7.12v.59c0,2.08.92,3.86,2.76,5.34,2.14,1.19,5.21,2.08,8.88,2.08" fill="#ff7a00" fill-rule="evenodd" stroke-width="0"/>
  <path d="m1090.83,137.02L1115.33.3h40.73l-24.49,136.72h-40.73Z" fill="#ff7a00" fill-rule="evenodd" stroke-width="0"/>
  <path d="m142.09,137.02l23.27-80.67h29.4l-11.94,80.67h-40.73Z" fill="#0684bc" fill-rule="evenodd" stroke-width="0"/>
  <path d="m209.78,20.17h0c-.31-.3-.31-.59-.61-.89-.61-.89-1.53-1.78-3.06-2.97-2.76-2.37-7.66-5.34-15.01-6.52-3.67-.59-6.74-.59-9.49-.3-6.74.59-10.72,3.26-11.94,4.45l-.61.3c-1.84,1.78-4.9,1.78-6.74,0-1.84-1.78-1.84-4.75,0-6.52.61-.59,6.74-6.23,18.37-7.41C184.36,0,188.34,0,192.93.89c18.68,3.26,25.11,14.83,25.42,15.72,1.22,2.37.31,5.04-2.14,6.23-.61.3-1.22.3-1.53.59-2.14-.59-3.98-1.48-4.9-3.26" fill="#ff7a00" fill-rule="evenodd" stroke-width="0"/>
  <path d="m197.84,30.84l-.31-.3c-.31-.3-.92-.89-1.53-1.78-1.53-1.19-3.98-2.97-8.27-3.56-2.14-.3-3.98-.3-5.51-.3-3.67.3-5.82,1.78-6.74,2.37h-.31c-1.53,1.48-3.98,1.48-5.82,0-1.53-1.48-1.53-3.86,0-5.63.31-.3,4.29-3.86,11.64-4.75,2.14-.3,4.9-.3,7.66.3h0c11.64,2.08,15.92,9.19,15.92,9.79.92,1.78.31,4.15-1.84,5.34-.31.3-.92.3-1.53.3-1.22.3-2.76-.3-3.37-1.78" fill="#ff7a00" fill-rule="evenodd" stroke-width="0"/>
  <path d="m194.15,40.33c0,4.74-4.59,8.6-10.41,8.6s-10.41-3.86-10.41-8.6,4.59-8.6,10.41-8.6,10.72,3.86,10.41,8.6" fill="#ff7a00" fill-rule="evenodd" stroke-width="0"/>
</svg>