<svg width="310" height="100" viewBox="0 0 310 100" fill="none" xmlns="http://www.w3.org/2000/svg">
<g clip-path="url(#clip0_1602_7384)">
<path d="M94.3751 24.2424C94.9635 24.8511 94.7674 25.6222 94.7674 26.3325C94.7741 43.202 94.7741 60.0716 94.7674 76.9345C94.7674 77.4418 94.693 77.9558 94.6321 78.6593C85.1218 83.0356 75.6386 87.4729 66.0945 91.7681C59.8986 94.5549 53.9192 97.8219 47.4595 100.007C47.4595 69.1761 47.4595 38.3454 47.4595 6.58813C57.6191 23.3698 67.2782 39.3262 77.1537 55.6344C80.1637 51.6639 81.9224 47.531 84.0396 43.6214C87.5163 37.182 91.3921 30.9523 94.3751 24.2491V24.2424Z" fill="#D8A641"/>
<path d="M94.3751 24.2424C91.3921 30.9456 87.5231 37.1753 84.0396 43.6147C81.9292 47.5244 80.1638 51.6572 77.1537 55.6277C67.2782 39.3195 57.6191 23.3699 47.4595 6.58144C47.4595 38.3387 47.4595 69.1694 47.4595 100C42.657 98.539 38.3483 95.9619 33.4443 93.9597C33.4443 88.8866 33.4443 83.7933 33.4443 78.6999C33.4511 58.2995 33.4646 37.9058 33.4714 17.5054C33.4714 15.7332 33.4714 13.9678 33.4714 11.9115C36.5152 10.7143 39.5793 9.51705 42.8329 8.23187C42.3661 7.13609 41.9806 6.22294 41.4462 4.96483C46.3637 3.4632 50.5439 0.568182 55.6102 0C60.0001 9.28707 65.2693 18.1074 70.1124 27.151C72.4189 31.4597 74.4549 35.9443 77.2687 39.9418C78.2157 39.5969 78.3442 38.7987 78.7433 38.2035C81.6451 33.8677 83.6878 28.9908 87.1916 25.0406C89.5861 24.7768 91.9806 24.5062 94.3751 24.2424Z" fill="#98752D"/>
<path d="M22.2227 79.9513C14.8837 69.4129 7.5379 58.8812 0.0297852 48.1128C7.42968 37.5609 14.7958 27.063 22.1618 16.5652C22.1821 37.6961 22.2024 58.8203 22.2227 79.9513Z" fill="#98762E"/>
<path d="M22.2227 79.9514C22.2024 58.8204 22.1822 37.6963 22.1619 16.5653C23.4741 15.2328 24.8201 16.4638 26.1256 16.5788C28.581 16.8021 30.8943 18.209 33.4782 17.5055C33.4714 37.9059 33.4579 58.3064 33.4511 78.7C30.4884 78.2266 27.8437 79.6808 25.0163 80.0529C24.0829 80.1746 23.1224 81.0878 22.2295 79.9514H22.2227Z" fill="#D5A440"/>
<path d="M87.1915 25.0406C83.681 28.984 81.6382 33.8677 78.7432 38.2035C78.3441 38.7987 78.2156 39.6036 77.2687 39.9418C74.4616 35.9443 72.4256 31.4597 70.1123 27.151C65.2692 18.1074 60.0068 9.28707 55.6101 0C67.5893 5.40449 79.5684 10.8157 91.5882 16.2405C90.533 19.6158 87.7868 21.8006 87.1848 25.0406H87.1915Z" fill="#D8A742"/>
<path d="M265.824 45.0622C264.924 45.5898 264.045 45.3193 263.023 45.2449C261.42 40.4829 257.971 39.7321 253.77 41.5923C251.998 42.3769 251.755 44.1491 252.742 46.0362C255.211 47.8896 258.377 47.8693 261.238 48.7419C265.256 49.9662 266.703 51.5084 266.71 54.9175C266.71 58.7662 265.168 60.6872 261.15 61.8371C253.912 63.9137 248.603 60.924 247.98 54.3763C248.751 53.4158 249.779 53.8285 250.72 53.8826C250.889 54.0787 251.092 54.2208 251.166 54.4102C252.776 58.8068 256.469 60.4978 260.758 58.7121C262.158 58.1304 263.24 57.2173 263.226 55.4518C263.213 53.8352 262.286 52.895 260.954 52.4621C258.498 51.6707 255.996 51.0349 253.493 50.4058C250.875 49.7497 248.907 48.4713 248.731 45.5222C248.555 42.4851 249.516 39.9554 252.451 38.6093C256.32 36.8371 260.149 37.1753 263.659 39.4819C265.574 40.7332 266.324 42.7219 265.837 45.0487L265.824 45.0622Z" fill="white"/>
<path d="M291.25 54.1801C292.332 53.6255 293.205 53.7405 294.077 53.9434C296.161 58.827 298.812 60.2543 303.459 58.8947C305.028 58.4347 306.334 57.596 306.456 55.6953C306.571 53.7607 305.407 52.807 303.784 52.32C301.423 51.6098 299.029 50.9875 296.641 50.3922C293.996 49.7361 292.102 48.3698 291.967 45.4342C291.825 42.3971 292.873 39.9553 295.782 38.5619C301.186 35.9645 310.372 38.6498 309.141 44.8728C309.08 44.9675 309.04 45.1095 308.958 45.1501C308.099 45.5289 307.227 45.3936 306.361 45.211C304.467 41.2472 301.166 39.6171 297.798 41.1187C295.626 42.086 294.794 43.7229 296.019 46.0903C298.575 47.8828 301.714 47.9369 304.596 48.7689C307.68 49.655 309.912 51.1228 309.973 54.6942C310.034 58.5903 308.566 60.5857 304.636 61.7897C297.317 64.0421 291.703 60.9036 291.264 54.1869L291.25 54.1801Z" fill="white"/>
<path d="M270.843 38.2507H287.753C288.247 39.2451 288.125 40.0973 287.787 41.2675H274.306V47.9166H286.332C287.192 49.0191 287.043 49.9255 286.569 51.0686H274.394C273.846 53.5578 274.117 55.8644 274.211 58.4144H287.455C288.619 59.4493 288.159 60.4639 288.159 61.5665H270.85V38.2507H270.843Z" fill="white"/>
<path d="M165.147 61.6274H161.786V48.6403C158.336 46.1309 155.522 47.3484 155.231 51.2445C154.981 54.586 155.177 57.9545 155.177 61.2215C154.075 62.067 153.107 61.5597 151.843 61.6815V48.7553C148.826 46.2256 146.309 47.0643 145.484 50.541C144.646 54.0787 145.329 57.711 145.004 61.3162C144.084 61.9994 143.137 61.7626 142.109 61.4718V44.7984C143.638 43.8243 144.686 44.4466 145.586 45.5762C148.704 43.662 151.687 43.2156 154.521 46.1309C155.062 45.7386 155.556 45.2989 156.117 44.9877C160.683 42.3971 164.897 44.6157 165.107 49.8376C165.262 53.639 165.134 57.4539 165.134 61.6206L165.147 61.6274Z" fill="white"/>
<path d="M124.807 54.9986C123.988 57.1496 123.156 59.3209 122.338 61.4786C121.174 61.8642 120.078 61.8168 118.672 61.4718C120.126 57.5825 121.553 53.7473 122.994 49.9256C124.448 46.0498 125.916 42.1739 127.411 38.2102H131.401C132.768 41.971 134.168 45.8401 135.575 49.7091C136.989 53.5917 138.402 57.4675 139.816 61.3501C138.497 61.9453 137.388 61.7153 136.028 61.6139C135.271 59.5103 134.486 57.3255 133.647 55.0054H124.8L124.807 54.9986ZM129.081 42.8571C127.972 45.9618 126.991 48.708 125.95 51.6234C128.236 51.833 130.11 51.948 132.335 51.5151C131.307 48.6404 130.739 45.7454 129.081 42.8571Z" fill="white"/>
<path d="M182.761 58.5701C183.397 59.4833 185.494 59.693 184.418 61.5598C182.475 62.0153 180.84 61.5801 179.514 60.2544C177.302 61.5801 175.05 62.7909 172.27 62.0942C169.761 61.4651 168.374 59.8824 168.245 57.3729C168.117 54.9108 169.104 52.8951 171.634 52.2119C174.096 51.549 176.646 51.1973 179.021 50.7373C179.853 48.7555 179.196 47.5447 177.532 47.105C175.774 46.6383 173.751 46.4624 172.716 48.3564C171.918 49.8242 171.059 50.3112 169.341 49.7565C168.929 47.1727 170.153 45.5966 172.459 44.6429C178.31 42.2349 182.748 45.157 182.754 51.4205C182.754 53.7744 182.754 56.1283 182.754 58.5769L182.761 58.5701ZM179.23 53.5174C171.526 54.8296 171.485 54.8634 172.162 58.4146C173.826 60.0379 175.618 59.5306 177.35 58.5904C179.271 57.5488 179.717 55.8307 179.237 53.5174H179.23Z" fill="white"/>
<path d="M202.181 53.01C202.215 47.3417 205.225 44.0205 210.325 44.0205C215.262 44.0205 218.245 47.1793 218.266 52.4147C218.286 58.8 215.262 62.4052 209.919 62.3647C204.968 62.3241 202.147 58.9218 202.181 53.01ZM214.904 52.6109C214.857 48.9853 213.071 46.8073 210.223 46.8885C207.294 46.9764 205.468 49.5062 205.509 53.4293C205.542 57.0143 207.301 59.3073 210.047 59.3682C213.017 59.4291 214.958 56.7234 214.904 52.6176V52.6109Z" fill="white"/>
<path d="M200.212 58.6852V61.5937H185.48C186.867 55.594 192.183 52.6246 194.93 47.5583H187.212C186.346 46.2934 186.326 45.387 187.083 44.4265H200.185C199.374 50.6698 193.401 53.3618 191.04 58.6919H200.206L200.212 58.6852Z" fill="white"/>
<path d="M224.678 61.607H221.445V44.6833C222.886 44.0678 224.042 44.1828 224.888 45.6912C226.437 44.751 227.992 44.0002 229.886 44.0543C233.343 44.1557 235.264 45.6303 235.426 49.0394C235.622 53.1655 235.474 57.3118 235.474 61.4515C234.351 61.8505 233.417 61.8573 232.2 61.3094C232.2 58.0424 232.179 54.7009 232.206 51.3527C232.227 49.1206 231.726 47.0913 229.081 47.0575C226.464 47.0237 224.874 48.7282 224.725 51.2783C224.536 54.6197 224.678 57.9815 224.678 61.607Z" fill="white"/>
</g>
<defs>
<clipPath id="clip0_1602_7384">
<rect width="309.936" height="100" fill="white" transform="translate(0.0297852)"/>
</clipPath>
</defs>
</svg>
