<svg xmlns="http://www.w3.org/2000/svg" viewBox="0 0 269.46 113.47"><defs><style>.cls-1{fill:#fff;}</style></defs><g id="Layer_2" data-name="Layer 2"><g id="Layer_1-2" data-name="Layer 1"><g id="ePRTU0.tif"><path class="cls-1" d="M74.51,30.45h61.76V47H97.56V62.2h35V78.58h-35c0,.34-.09.54-.09.74,0,2.6,0,5.2,0,7.79.07,5,2.89,7.89,7.93,8,1.76,0,3.51,0,5.27,0h27.13v16.66h-41a31.57,31.57,0,0,1-9.76-1.33c-7-2.26-11-7.18-12.16-14.42a34.21,34.21,0,0,1-.4-5.45q0-29.44,0-58.88Z"/><path class="cls-1" d="M1,112.24V94.69c2.17.24,4.28.5,6.39.72a135.76,135.76,0,0,0,23.76.69,25.8,25.8,0,0,0,6.27-1.23c4.72-1.56,5.1-5.69,4.13-9A5.12,5.12,0,0,0,38.1,82.5c-2.7-1-5.44-1.84-8.22-2.55-5.43-1.38-11-2.4-16.15-4.63a26.44,26.44,0,0,1-8.22-5.21A17.69,17.69,0,0,1,.38,59.63a31.07,31.07,0,0,1,.83-13.56C3.49,38.52,8.66,33.82,16,31.27a52.38,52.38,0,0,1,16-2.5,176.4,176.4,0,0,1,26.78,1.56l1.87.24a3.3,3.3,0,0,1,.45.21V47.21c-1.91-.21-3.91-.42-5.91-.66-7.26-.85-14.54-1.53-21.85-.92a25.32,25.32,0,0,0-6,1.28,5.25,5.25,0,0,0-3.64,5.16c-.09,2.49.62,4.57,2.93,5.86,2.47,1.37,5.22,1.79,7.91,2.42,5,1.16,10,2.2,14.9,3.64a29.16,29.16,0,0,1,7.08,3.39A18.16,18.16,0,0,1,64.8,79.62a32.37,32.37,0,0,1-.58,16c-2.33,7.74-7.67,12.54-15.1,15.23a45.71,45.71,0,0,1-13,2.34,250.5,250.5,0,0,1-32.3-.78Z"/><path class="cls-1" d="M208.12,47.16c-4.92-.49-9.8-1.07-14.69-1.45a65.7,65.7,0,0,0-16.28.32,13.74,13.74,0,0,0-3.3,1A5.33,5.33,0,0,0,170.5,52c-.12,2.45.46,4.7,2.81,5.78a41,41,0,0,0,7.05,2.33c5.13,1.29,10.35,2.23,15.43,3.68a30.52,30.52,0,0,1,7.3,3.41,18,18,0,0,1,8.43,11.74,32.43,32.43,0,0,1-.42,16.85c-2.29,7.73-7.72,12.41-15.08,15.11a43.89,43.89,0,0,1-12.79,2.33,250.45,250.45,0,0,1-32.41-.78l-2.42-.18a1.91,1.91,0,0,1-.35-.11V94.7l4,.45a137.39,137.39,0,0,0,25.64,1,27.4,27.4,0,0,0,7.18-1.43c4.65-1.64,4.73-6.07,3.75-9a4.35,4.35,0,0,0-2.61-2.75c-3-1.08-6-2.15-9.07-3-5.43-1.39-11-2.32-16.13-4.68a37.49,37.49,0,0,1-6.53-3.78c-4.19-3.09-6.24-7.48-6.86-12.57a31.19,31.19,0,0,1,1.1-13.44c2.33-7.27,7.42-11.76,14.51-14.24a51.71,51.71,0,0,1,15.84-2.48,180.62,180.62,0,0,1,27,1.57c.59.08,1.18.14,1.77.21a3.79,3.79,0,0,1,.44.14Z"/><path class="cls-1" d="M244.22,0c8.41,16.06,16.76,32,25.24,48.16a80.15,80.15,0,0,0-50.65,0Z"/></g></g></g></svg>