<svg width="145" height="27" viewBox="0 0 145 27" fill="none" xmlns="http://www.w3.org/2000/svg">
<g clip-path="url(#clip0_1_93)">
<path d="M53.4257 21.9721C53.4257 24.5866 50.8647 26.2961 47.7217 26.2961C45.6264 26.2961 43.8803 25.4916 42.4834 24.0838L44.6951 22.0726C45.51 22.8771 46.092 23.6816 47.9545 23.6816C49.1186 23.6816 50.0499 22.8771 50.0499 21.9721C50.0499 19.0559 42.7162 20.7654 42.7162 15.6369C42.7162 12.9218 45.1607 11.2123 48.4202 11.2123C50.0499 11.2123 52.1452 12.0168 53.0765 13.2235L51.0976 15.2346C50.2827 14.5307 49.1186 13.9274 48.1874 13.9274C47.1397 13.9274 46.092 14.3296 46.092 15.6369C46.092 18.0503 53.4257 16.3408 53.4257 21.9721Z" fill="#6091F2"/>
<path d="M68.4424 26.2961L67.0455 18.9553L62.9712 26.2961H62.8548L58.6641 18.9553L57.3836 26.2961L54.2406 25.9944L57.3836 11.2123H57.5L62.8548 20.8659L68.3259 11.2123H68.4424L71.5854 25.9944L68.4424 26.2961Z" fill="#6091F2"/>
<path d="M83.2262 21.9721C83.2262 24.5866 80.6652 26.2961 77.5222 26.2961C75.4268 26.2961 73.6807 25.4916 72.2838 24.0838L74.4956 22.0726C75.3104 22.8771 75.8925 23.6816 77.755 23.6816C78.9191 23.6816 79.8503 22.8771 79.8503 21.9721C79.8503 19.0559 72.5166 20.7654 72.5166 15.6369C72.5166 12.9218 74.9612 11.2123 78.2206 11.2123C79.8503 11.2123 81.9457 12.0168 82.8769 13.2235L80.898 15.2346C80.0831 14.5307 78.9191 13.9274 77.9878 13.9274C76.9401 13.9274 75.8925 14.3296 75.8925 15.6369C75.8925 18.0503 83.2262 16.3408 83.2262 21.9721Z" fill="#6091F2"/>
<path d="M139.825 2.6418C139.152 2.02191 136.429 0.0456859 130.357 0.0191949C130.357 0.0191949 123.199 -0.409959 119.713 2.79015C117.774 4.72929 117.091 7.57442 117.016 11.0977C116.942 14.621 116.852 21.2226 123.215 23.0134H123.221L123.215 25.7472C123.215 25.7472 123.173 26.8546 123.904 27.0771C124.784 27.3526 125.303 26.5102 126.145 25.6042C126.606 25.1062 127.242 24.375 127.724 23.8187C132.079 24.1843 135.422 23.3472 135.804 23.2253C136.683 22.9392 141.658 22.3034 142.464 15.7019C143.301 8.88837 142.061 4.58624 139.825 2.6418ZM140.562 15.2038C139.878 20.7139 135.846 21.0636 135.104 21.302C134.787 21.4027 131.846 22.1339 128.153 21.8954C128.153 21.8954 125.398 25.2174 124.54 26.081C124.259 26.3618 123.952 26.3353 123.957 25.779C123.957 25.4134 123.978 21.2385 123.978 21.2385C123.973 21.2385 123.973 21.2385 123.978 21.2385C118.585 19.7444 118.903 14.123 118.961 11.1825C119.019 8.242 119.575 5.83132 121.218 4.21007C124.169 1.53448 130.246 1.93184 130.246 1.93184C135.38 1.95304 137.838 3.50011 138.411 4.01933C140.302 5.64058 141.266 9.51886 140.562 15.2038ZM133.197 10.9229C133.218 11.3785 132.535 11.4103 132.514 10.9547C132.455 9.78907 131.91 9.22216 130.786 9.15858C130.331 9.13209 130.373 8.44863 130.824 8.47512C132.302 8.55459 133.123 9.4023 133.197 10.9229ZM134.273 11.5216C134.326 9.27514 132.922 7.51614 130.257 7.32011C129.806 7.28832 129.854 6.60485 130.304 6.63664C133.377 6.85917 135.014 8.97315 134.956 11.5375C134.951 11.9931 134.262 11.9719 134.273 11.5216ZM136.763 12.2315C136.768 12.6872 136.079 12.6925 136.079 12.2368C136.048 7.91881 133.171 5.56641 129.679 5.53992C129.229 5.53462 129.229 4.85645 129.679 4.85645C133.584 4.88294 136.726 7.57972 136.763 12.2315ZM136.164 17.4291V17.4397C135.592 18.4463 134.522 19.5589 133.42 19.204L133.409 19.1881C132.291 18.8755 129.658 17.5191 127.994 16.1946C127.136 15.5164 126.352 14.7164 125.748 13.9482C125.202 13.2647 124.651 12.4541 124.116 11.4792C122.988 9.43939 122.738 8.5281 122.738 8.5281C122.384 7.42607 123.491 6.35584 124.503 5.78363H124.513C125.001 5.52932 125.467 5.61409 125.78 5.99026C125.78 5.99026 126.437 6.7744 126.717 7.16116C126.982 7.52144 127.337 8.09894 127.523 8.42213C127.846 8.99964 127.645 9.58774 127.327 9.83145L126.691 10.3401C126.368 10.5997 126.41 11.0818 126.41 11.0818C126.41 11.0818 127.353 14.6475 130.877 15.5482C130.877 15.5482 131.359 15.5906 131.618 15.2674L132.127 14.6316C132.371 14.3137 132.959 14.1124 133.536 14.4356C134.315 14.8753 135.306 15.5588 135.963 16.1787C136.334 16.4807 136.418 16.9416 136.164 17.4291Z" fill="white"/>
<path d="M87.6497 25.6927V20.4637L90.3271 23.0782L87.6497 25.6927Z" fill="white"/>
<path d="M98.8248 26.095C98.4756 26.1955 98.1264 26.1955 97.7772 26.1955C95.9146 26.1955 94.867 25.2905 94.867 23.6816V18.2514H93.4701L93.7029 17.2458H94.7506V15.0335L95.9146 14.4302V17.1453H98.7084V18.1508H95.9146V23.6816C95.9146 24.7877 96.4967 25.1899 97.7772 25.1899H98.2428C98.3592 25.1899 98.592 25.1899 98.7084 25.1899V26.095H98.8248Z" fill="white"/>
<path d="M108.836 21.6704C108.836 19.7598 107.09 18.0503 104.762 18.0503C102.433 18.0503 100.687 19.7598 100.687 21.6704C100.687 23.581 102.433 25.2905 104.762 25.2905C107.09 25.2905 108.836 23.581 108.836 21.6704ZM110 21.6704C110 24.0838 107.788 26.2961 104.762 26.2961C101.735 26.2961 99.5233 23.9832 99.5233 21.6704C99.5233 19.257 101.735 17.0447 104.762 17.0447C107.788 16.9441 110 19.257 110 21.6704Z" fill="white"/>
<path d="M30.4933 9H6.28049C5.58204 9 5 9.50279 5 10.1061C5 11.4134 5 13.324 5 14.5307L7.44457 16.2402V11.8156L17.8049 18.9553C18.0377 19.0559 18.1541 19.1564 18.3869 19.1564C18.6197 19.1564 18.8525 19.0559 18.969 18.9553L29.3293 11.8156V16.2402L31.7738 14.5307V10.1061C31.7738 9.50279 31.1918 9 30.4933 9Z" fill="#6091F2"/>
<mask id="mask0_1_93" style="mask-type:luminance" maskUnits="userSpaceOnUse" x="5" y="13" width="27" height="14">
<path d="M30.6098 27H6.16408C5.58204 27 5 26.5978 5 25.9944C5 21.9721 5 17.9497 5 13.9274L17.8049 22.7765C18.0377 22.8771 18.1541 22.9777 18.3869 22.9777C18.6197 22.9777 18.8525 22.8771 18.969 22.7765L31.7738 13.9274V25.9944C31.7738 26.4972 31.3082 27 30.6098 27Z" fill="white"/>
</mask>
<g mask="url(#mask0_1_93)">
<path d="M31.7738 13.9274H5V27H31.7738V13.9274Z" fill="url(#paint0_linear_1_93)"/>
</g>
<mask id="mask1_1_93" style="mask-type:luminance" maskUnits="userSpaceOnUse" x="12" y="13" width="20" height="14">
<path d="M12.7993 27H30.6098C31.1918 27 31.7738 26.5978 31.7738 25.9944V13.9274L29.3293 15.6369L18.969 22.676L12.7993 27Z" fill="white"/>
</mask>
<g mask="url(#mask1_1_93)">
<path d="M31.7738 13.9274H12.7993V27H31.7738V13.9274Z" fill="url(#paint1_linear_1_93)"/>
</g>
</g>
<defs>
<linearGradient id="paint0_linear_1_93" x1="14.0575" y1="24.1712" x2="22.824" y2="14.0336" gradientUnits="userSpaceOnUse">
<stop stop-color="#85B1FF"/>
<stop offset="1" stop-color="#4774B7"/>
</linearGradient>
<linearGradient id="paint1_linear_1_93" x1="30.9323" y1="24.73" x2="14.558" y2="13.7994" gradientUnits="userSpaceOnUse">
<stop stop-color="#85B7F5"/>
<stop offset="1" stop-color="#46A1FF"/>
</linearGradient>
<clipPath id="clip0_1_93">
<rect width="145" height="27" fill="white"/>
</clipPath>
</defs>
</svg>
