<svg width="105" height="18" viewBox="0 0 105 18" fill="none" xmlns="http://www.w3.org/2000/svg">
<g clip-path="url(#clip0_1_98)">
<path d="M48.4257 12.9721C48.4257 15.5866 45.8647 17.2961 42.7217 17.2961C40.6264 17.2961 38.8803 16.4916 37.4834 15.0838L39.6951 13.0726C40.51 13.8771 41.092 14.6816 42.9545 14.6816C44.1186 14.6816 45.0499 13.8771 45.0499 12.9721C45.0499 10.0559 37.7162 11.7654 37.7162 6.63687C37.7162 3.92178 40.1607 2.21229 43.4202 2.21229C45.0499 2.21229 47.1452 3.01676 48.0765 4.22346L46.0976 6.23463C45.2827 5.53072 44.1186 4.92737 43.1874 4.92737C42.1397 4.92737 41.092 5.32961 41.092 6.63687C41.092 9.05028 48.4257 7.34078 48.4257 12.9721Z" fill="#6091F2"/>
<path d="M63.4424 17.2961L62.0455 9.9553L57.9712 17.2961H57.8548L53.6641 9.9553L52.3836 17.2961L49.2406 16.9944L52.3836 2.21229H52.5L57.8548 11.8659L63.3259 2.21229H63.4424L66.5854 16.9944L63.4424 17.2961Z" fill="#6091F2"/>
<path d="M78.2262 12.9721C78.2262 15.5866 75.6652 17.2961 72.5222 17.2961C70.4268 17.2961 68.6807 16.4916 67.2838 15.0838L69.4956 13.0726C70.3104 13.8771 70.8925 14.6816 72.755 14.6816C73.9191 14.6816 74.8503 13.8771 74.8503 12.9721C74.8503 10.0559 67.5166 11.7654 67.5166 6.63687C67.5166 3.92178 69.9612 2.21229 73.2206 2.21229C74.8503 2.21229 76.9457 3.01676 77.8769 4.22346L75.898 6.23463C75.0831 5.53072 73.9191 4.92737 72.9878 4.92737C71.9401 4.92737 70.8925 5.32961 70.8925 6.63687C70.8925 9.05028 78.2262 7.34078 78.2262 12.9721Z" fill="#6091F2"/>
<path d="M82.6497 16.6927V11.4637L85.3271 14.0782L82.6497 16.6927Z" fill="white"/>
<path d="M93.8248 17.095C93.4756 17.1955 93.1264 17.1955 92.7772 17.1955C90.9146 17.1955 89.867 16.2905 89.867 14.6816V9.2514H88.4701L88.7029 8.24581H89.7506V6.03352L90.9146 5.43017V8.14525H93.7084V9.15084H90.9146V14.6816C90.9146 15.7877 91.4967 16.1899 92.7772 16.1899H93.2428C93.3592 16.1899 93.592 16.1899 93.7084 16.1899V17.095H93.8248Z" fill="white"/>
<path d="M103.836 12.6704C103.836 10.7598 102.09 9.05028 99.7616 9.05028C97.4335 9.05028 95.6874 10.7598 95.6874 12.6704C95.6874 14.581 97.4335 16.2905 99.7616 16.2905C102.09 16.2905 103.836 14.581 103.836 12.6704ZM105 12.6704C105 15.0838 102.788 17.2961 99.7616 17.2961C96.735 17.2961 94.5233 14.9832 94.5233 12.6704C94.5233 10.257 96.735 8.04469 99.7616 8.04469C102.788 7.94413 105 10.257 105 12.6704Z" fill="white"/>
<path d="M25.4933 0H1.28049C0.58204 0 0 0.502793 0 1.10615C0 2.41341 0 4.32402 0 5.53073L2.44457 7.24022V2.81564L12.8049 9.95531C13.0377 10.0559 13.1541 10.1564 13.3869 10.1564C13.6197 10.1564 13.8525 10.0559 13.969 9.95531L24.3293 2.81564V7.24022L26.7738 5.53073V1.10615C26.7738 0.502793 26.1918 0 25.4933 0Z" fill="#6091F2"/>
<mask id="mask0_1_98" style="mask-type:luminance" maskUnits="userSpaceOnUse" x="0" y="4" width="27" height="14">
<path d="M25.6098 18H1.16408C0.58204 18 0 17.5978 0 16.9944C0 12.9721 0 8.94972 0 4.92738L12.8049 13.7765C13.0377 13.8771 13.1541 13.9777 13.3869 13.9777C13.6197 13.9777 13.8525 13.8771 13.969 13.7765L26.7738 4.92738V16.9944C26.7738 17.4972 26.3082 18 25.6098 18Z" fill="white"/>
</mask>
<g mask="url(#mask0_1_98)">
<path d="M26.7738 4.92738H0V18H26.7738V4.92738Z" fill="url(#paint0_linear_1_98)"/>
</g>
<mask id="mask1_1_98" style="mask-type:luminance" maskUnits="userSpaceOnUse" x="7" y="4" width="20" height="14">
<path d="M7.79933 18H25.6098C26.1918 18 26.7738 17.5978 26.7738 16.9944V4.92738L24.3293 6.63687L13.969 13.676L7.79933 18Z" fill="white"/>
</mask>
<g mask="url(#mask1_1_98)">
<path d="M26.7738 4.92738H7.79933V18H26.7738V4.92738Z" fill="url(#paint1_linear_1_98)"/>
</g>
</g>
<defs>
<linearGradient id="paint0_linear_1_98" x1="9.05747" y1="15.1712" x2="17.824" y2="5.03357" gradientUnits="userSpaceOnUse">
<stop stop-color="#85B1FF"/>
<stop offset="1" stop-color="#4774B7"/>
</linearGradient>
<linearGradient id="paint1_linear_1_98" x1="25.9323" y1="15.73" x2="9.55804" y2="4.7994" gradientUnits="userSpaceOnUse">
<stop stop-color="#85B7F5"/>
<stop offset="1" stop-color="#46A1FF"/>
</linearGradient>
<clipPath id="clip0_1_98">
<rect width="105" height="18" fill="white"/>
</clipPath>
</defs>
</svg>
