<svg version="1.1" id="Calque_1" xmlns="http://www.w3.org/2000/svg" xmlns:xlink="http://www.w3.org/1999/xlink" x="0px" y="0px" viewBox="0 0 223 57.2" style="enable-background:new 0 0 223 57.2;" xml:space="preserve"> <style type="text/css"> .logo0{fill:#6BB17B;} .logo1{fill:#FFFFFF;} </style>  <g id="Groupe_1082" transform="translate(-87.264 -41.403)"> <g id="Groupe_1" transform="translate(87.264 41.403)"> <path id="Tracé_1" class="logo0" d="M36.1,4.8H19.6v0c-0.5-0.1-1.1-0.1-1.6-0.1c-2.2,0-4.4,0.4-6.5,1.3c-2,0.9-3.9,2.2-5.3,3.9 c-1.5,1.7-2.5,3.7-3,6C3.1,16.5,3,17.3,3,18c0,2,0.4,4,1.2,5.8c1,2.2,2,4.3,3.3,6.3l1.7,3.5l9.6,15.6l2.1,3.5l3-3.4 c2.9-3.7,5.2-7.8,6.8-12.2h5.2c8.9,0.1,16.1-7.1,16.2-16c0.1-8.9-7.1-16.1-16-16.2C36.2,4.8,36.2,4.8,36.1,4.8L36.1,4.8z M6.9,18.3c0-0.5,0-1,0.2-1.4c0.4-1.6,1.2-3.1,2.3-4.3c1.1-1.2,2.5-2.2,4.1-2.8c1.5-0.6,3-0.9,4.6-0.9c1.6-0.1,3.1,0.5,4.3,1.5 c1.1,1,1.8,2.4,1.7,3.9c0,0.5-0.1,1-0.2,1.5c-0.4,1.7-1.2,3.3-2.4,4.6c-1.3,1.5-2.8,2.8-4.4,3.9c-1.7,1.2-3.8,2.5-6.4,3.9 C8.2,24.1,6.9,20.8,6.9,18.3z M36.1,32.8h-7.9V33L28,33c-1.5,4.5-3.6,8.7-6.2,12.6L13,31.4c2.3-1.3,4.6-2.8,6.8-4.4 c1.8-1.3,3.5-2.9,4.9-4.6c2-2.4,3.1-5.5,3.1-8.6c0-1.7-0.4-3.3-1.2-4.7c0,0-0.1-0.1-0.1-0.1h9.7C42.7,9,48,14.3,48,20.9 S42.7,32.8,36.1,32.8L36.1,32.8z"></path> </g>    <g id="Groupe_2" transform="translate(143.57 48.701)"> <path id="Tracé_2" class="logo1" d="M7.2,30.4c-1-0.4-1.9-1.1-2.7-1.9C3.8,27.8,3.3,26.9,3,26l3.6-1.6c0.3,0.8,0.8,1.6,1.4,2.2 c0.7,0.6,1.6,0.9,2.5,0.9c0.6,0,1.1-0.1,1.6-0.3c0.4-0.2,0.7-0.5,1-0.8c0.2-0.3,0.3-0.7,0.3-1c0-0.4-0.1-0.7-0.4-1 c-0.3-0.3-0.7-0.5-1.1-0.6c-0.4-0.2-1.1-0.3-1.9-0.5c-1-0.3-2-0.6-3-1c-0.8-0.3-1.5-0.9-2-1.6c-0.6-0.8-0.9-1.8-0.9-2.8 c0-1.1,0.3-2.2,0.9-3.2c0.6-0.9,1.5-1.5,2.5-1.9C8.7,12.2,9.9,12,11,12c1.4,0,2.9,0.3,4.1,1.1c1.2,0.7,2.2,1.7,2.9,2.9l-3.5,1.9 c-0.4-0.7-0.8-1.2-1.4-1.7c-0.6-0.5-1.4-0.7-2.2-0.7c-0.6,0-1.2,0.1-1.7,0.5c-0.4,0.2-0.6,0.7-0.7,1.1c0,0.3,0.1,0.7,0.4,0.9 c0.3,0.3,0.6,0.4,1,0.6c0.4,0.1,1,0.3,1.7,0.6c1.1,0.3,2.1,0.7,3.1,1.1c0.8,0.4,1.6,1,2.1,1.7c0.6,0.9,1,2,0.9,3.1 c0,1.2-0.3,2.4-1,3.4c-0.7,0.9-1.6,1.6-2.7,2.1c-1.1,0.5-2.3,0.7-3.5,0.7C9.5,31.1,8.3,30.9,7.2,30.4z"></path>      <path id="Tracé_3" class="logo1" d="M21.9,12.4h4.5v1.9c0.5-0.7,1.3-1.3,2.1-1.7c0.8-0.4,1.7-0.6,2.6-0.6c2.2,0,4.2,1.2,5.2,3.2 c0.6-1,1.5-1.9,2.6-2.4c1.1-0.5,2.3-0.8,3.5-0.8c1.3,0,2.7,0.3,3.8,1.1c1,0.7,1.8,1.7,2.3,2.8c0.5,1.2,0.8,2.5,0.7,3.8v11.1h-4.6 V20.3c0.1-1-0.2-2.1-0.7-3c-0.5-0.8-1.4-1.2-2.3-1.1c-0.7,0-1.4,0.2-2.1,0.6c-0.6,0.4-1.1,1-1.3,1.6c-0.3,0.7-0.5,1.5-0.5,2.3 v10.1h-4.6V20.2c0.1-1-0.2-2.1-0.7-3c-0.5-0.8-1.4-1.2-2.3-1.1c-0.7,0-1.5,0.2-2.1,0.6c-0.6,0.4-1.1,1-1.3,1.6 c-0.3,0.7-0.5,1.5-0.5,2.3v10.1h-4.5L21.9,12.4z"></path>      <path id="Tracé_4" class="logo1" d="M56.1,30.4c-1-0.4-1.9-1.1-2.7-1.9c-0.7-0.7-1.2-1.6-1.6-2.6l3.6-1.6c0.3,0.8,0.8,1.6,1.4,2.2 c0.7,0.6,1.6,0.9,2.5,0.9c0.6,0,1.1-0.1,1.6-0.3c0.4-0.2,0.8-0.5,1-0.8c0.2-0.3,0.3-0.7,0.3-1c0-0.4-0.2-0.7-0.4-1 c-0.3-0.3-0.7-0.5-1.1-0.6c-0.4-0.2-1.1-0.3-1.9-0.5c-1-0.3-2-0.6-3-1c-0.8-0.3-1.5-0.9-2-1.6c-0.6-0.8-0.9-1.8-0.9-2.8 c0-1.1,0.3-2.2,0.9-3.2c0.6-0.9,1.5-1.5,2.5-1.9c1.1-0.4,2.2-0.7,3.4-0.6c1.4,0,2.9,0.3,4.1,1.1c1.2,0.7,2.2,1.7,2.9,2.9l-3.5,1.9 c-0.4-0.7-0.8-1.2-1.4-1.7c-0.6-0.5-1.4-0.7-2.2-0.7c-0.6,0-1.2,0.1-1.7,0.5c-0.4,0.2-0.6,0.7-0.7,1.1c0,0.3,0.1,0.7,0.4,0.9 c0.3,0.3,0.6,0.4,1,0.6c0.4,0.1,1,0.3,1.7,0.6c1.1,0.3,2.1,0.7,3.1,1.1c0.8,0.4,1.6,1,2.1,1.7c0.6,0.9,1,2,0.9,3.1 c0,1.2-0.3,2.4-1,3.4c-0.7,0.9-1.6,1.6-2.7,2.1c-1.1,0.5-2.3,0.7-3.5,0.7C58.4,31.1,57.2,30.9,56.1,30.4z"></path>      <path id="Tracé_5" class="logo1" d="M70.8,12.4h4.5v1.9c0.5-0.7,1.3-1.3,2.1-1.7c0.8-0.4,1.7-0.6,2.6-0.6c2.2,0,4.2,1.2,5.2,3.2 c0.6-1,1.5-1.9,2.6-2.4c1.1-0.5,2.3-0.8,3.5-0.8c1.3,0,2.7,0.3,3.8,1.1c1,0.7,1.8,1.7,2.3,2.8c0.5,1.2,0.8,2.5,0.7,3.8v11.1h-4.6 V20.3c0.1-1-0.2-2.1-0.7-3c-0.5-0.8-1.4-1.2-2.3-1.1c-0.7,0-1.4,0.2-2.1,0.6c-0.6,0.4-1.1,1-1.3,1.6c-0.3,0.7-0.5,1.5-0.5,2.3 v10.1h-4.6V20.2c0.1-1-0.2-2.1-0.7-3c-0.5-0.8-1.4-1.2-2.3-1.1c-0.7,0-1.5,0.2-2.1,0.6c-0.6,0.4-1.1,1-1.3,1.6 c-0.3,0.7-0.5,1.5-0.5,2.3v10.1h-4.5L70.8,12.4z"></path>      <path id="Tracé_6" class="logo1" d="M105.7,29.8c-1.4-0.8-2.6-2-3.3-3.5c-0.8-1.5-1.2-3.1-1.2-4.8c0-1.7,0.4-3.3,1.2-4.8 c0.8-1.4,1.9-2.6,3.3-3.5c3.1-1.7,6.8-1.7,9.8,0c1.4,0.8,2.6,2,3.3,3.5c0.8,1.5,1.2,3.1,1.2,4.8c0,1.7-0.4,3.3-1.2,4.8 c-0.8,1.5-1.9,2.7-3.3,3.5C112.5,31.6,108.7,31.6,105.7,29.8z M113.3,26.5c0.7-0.5,1.3-1.2,1.6-2.1c0.3-0.9,0.5-1.9,0.5-2.9 c0.1-1.4-0.4-2.9-1.2-4.1c-0.9-1.1-2.2-1.7-3.6-1.6c-1,0-1.9,0.2-2.7,0.8c-0.7,0.5-1.3,1.2-1.6,2c-0.3,0.9-0.5,1.9-0.5,2.9 c0,1,0.2,2,0.5,2.9c0.3,0.8,0.9,1.6,1.6,2.1C109.6,27.5,111.7,27.5,113.3,26.5L113.3,26.5z"></path>      <path id="Tracé_7" class="logo1" d="M139.9,4.7v26h-4.2l-0.2-2.1c-0.6,0.8-1.4,1.4-2.3,1.8c-1,0.4-2,0.6-3,0.6 c-1.5,0-3.1-0.4-4.3-1.3c-1.2-0.9-2.2-2.1-2.7-3.5c-1.2-3.1-1.2-6.5,0-9.6c0.6-1.4,1.5-2.6,2.7-3.5c1.2-0.9,2.7-1.3,4.3-1.3 c1,0,2,0.2,2.9,0.6c0.9,0.3,1.7,0.9,2.3,1.7V4.7H139.9z M134.6,25.5c1.5-2.5,1.5-5.5,0-8c-1.6-1.8-4.4-2-6.2-0.4 c-0.2,0.1-0.3,0.3-0.5,0.5c-1.5,2.4-1.5,5.5,0,8c1.6,1.9,4.4,2,6.3,0.4C134.3,25.8,134.5,25.7,134.6,25.5L134.6,25.5z"></path>      <path id="Tracé_8" class="logo1" d="M147.8,29.8c-1.4-0.8-2.5-2-3.1-3.5c-0.7-1.5-1.1-3.1-1-4.7c0-1.6,0.3-3.2,1-4.7 c0.6-1.5,1.7-2.7,3-3.6c1.5-0.9,3.2-1.4,5-1.4c1.8-0.1,3.5,0.4,4.9,1.4c1.2,0.9,2.2,2.1,2.8,3.5c0.6,1.4,0.8,2.9,0.8,4.4 c0,0.4,0,0.7,0,1.1c0,0.2-0.1,0.5-0.1,0.7h-12.6c0.4,2.7,2,4,4.6,4c0.8,0,1.6-0.1,2.4-0.5c0.8-0.3,1.5-0.9,2-1.5l3.1,2.7 c-0.9,1.1-2.1,1.9-3.4,2.5c-1.3,0.6-2.7,0.8-4.2,0.8C151.1,31.2,149.4,30.7,147.8,29.8z M156.8,19.8c-0.1-1.1-0.5-2.2-1.3-3 c-0.8-0.7-1.8-1.1-2.8-1c-2.3,0-3.7,1.3-4.2,4H156.8z"></path> </g> </g> </svg>