<svg width="630" height="86" fill="none" xmlns="http://www.w3.org/2000/svg"><path d="M36.462 86c21.811 0 36.86-15.371 36.86-39.157V.993H58.936v44.724c0 16.497-8.486 27.23-22.407 27.23-13.923 0-22.077-10.865-22.077-27.23V.994H0v45.849C0 70.563 14.651 86 36.462 86zm169.516-.994h14.452V.994h-14.452v84.012zm34.672 0h14.453V49.493h34.871V36.441h-34.938V14.046h45.28L300.183.994H240.65v84.012zM347.054 86c25.125 0 43.157-17.227 43.157-43 0-25.11-17.634-43-43.157-43-23.8 0-43.158 16.233-43.158 43 0 25.972 18.363 43 43.158 43zm0-13.119c-17.37 0-28.242-12.92-28.242-29.947 0-17.094 11.005-29.948 28.242-29.948 17.369 0 28.241 13.052 28.241 29.948 0 16.829-10.607 29.947-28.241 29.947zM519.42 85.006h14.452V.994H519.42v84.012zm71.466.994c19.955 0 36.263-11.86 38.981-31.14h-14.783c-2.718 11.926-12.199 18.088-24.132 18.088-16.374 0-26.518-12.788-26.518-29.948 0-17.028 10.21-29.948 26.518-29.948 12.066 0 21.48 6.162 24.264 18.088H630C627.282 11.794 611.371 0 590.886 0c-22.805 0-41.434 16.365-41.434 43 0 26.105 17.634 43 41.434 43zm-425.348-.265c12.729 0 21.082-8.282 21.082-22.328V.927h-14.452v63.209c0 5.896-2.984 7.619-6.033 7.619-2.983 0-4.906-1.723-6.762-5.698L137.031 18.22C130.999 5.3 123.706.133 112.966.133c-13.06 0-22.208 8.613-22.208 25.508V84.94h14.452V23.852c0-6.89 3.845-9.74 8.022-9.74 4.044 0 6.563 2.32 8.751 7.156l22.54 48.433c5.37 11.462 12.065 16.034 21.015 16.034zm313.31 0c12.728 0 21.081-8.282 21.081-22.328V.927h-14.452v63.209c0 5.896-2.983 7.619-6.033 7.619-2.983 0-4.905-1.723-6.762-5.698L450.341 18.22C444.308 5.3 437.016.133 426.276.133c-13.06 0-22.209 8.613-22.209 25.508V84.94h14.452V23.852c0-6.89 3.846-9.74 8.022-9.74 4.044 0 6.563 2.32 8.751 7.156l22.54 48.433c5.37 11.462 12 16.034 21.016 16.034z" fill="#000"/></svg>