<svg width="212" height="25" viewBox="0 0 212 25" fill="none" xmlns="http://www.w3.org/2000/svg">
<g clip-path="url(#clip0_602_2)">
<path d="M17.8147 18.3724C18.0919 18.3724 18.3248 18.4717 18.5133 18.6703L20.4927 20.7724C19.5168 22.0083 18.3026 22.9462 16.8499 23.5862C15.4083 24.2262 13.6895 24.5462 11.6935 24.5462C9.88594 24.5462 8.26139 24.2428 6.8198 23.6359C5.37822 23.0179 4.15287 22.1628 3.14376 21.0703C2.13465 19.9779 1.35842 18.6814 0.81505 17.1807C0.271683 15.68 0 14.0414 0 12.2648C0 11.0731 0.127525 9.94207 0.382574 8.87173C0.648713 7.79035 1.03129 6.79724 1.5303 5.89241C2.02931 4.98759 2.62812 4.17104 3.32673 3.44276C4.03644 2.71448 4.83485 2.09655 5.72198 1.58897C6.60911 1.07035 7.57386 0.678622 8.61624 0.413795C9.6697 0.137932 10.7897 0 11.9762 0C12.8634 0 13.7006 0.0772417 14.4879 0.231725C15.2863 0.386209 16.0293 0.601381 16.7168 0.877243C17.4044 1.1531 18.0364 1.48966 18.6131 1.8869C19.2008 2.2731 19.7275 2.69793 20.1933 3.16138L18.5133 5.44552C18.4135 5.58897 18.2859 5.71586 18.1307 5.82621C17.9754 5.93655 17.7648 5.99173 17.4986 5.99173C17.2325 5.99173 16.9608 5.89793 16.6836 5.71035C16.4174 5.52276 16.0848 5.3131 15.6855 5.08138C15.2974 4.84966 14.804 4.64 14.2051 4.45241C13.6174 4.26483 12.8689 4.17104 11.9596 4.17104C10.9505 4.17104 10.0246 4.35311 9.18178 4.71724C8.33901 5.08138 7.61267 5.61104 7.00277 6.30621C6.40396 6.99035 5.93822 7.83448 5.60554 8.83862C5.27287 9.84276 5.10653 10.9848 5.10653 12.2648C5.10653 13.5559 5.28396 14.709 5.63881 15.7241C6.00475 16.7283 6.49822 17.5779 7.11921 18.2731C7.75129 18.9683 8.48317 19.4979 9.31485 19.8621C10.1576 20.2152 11.0558 20.3917 12.0095 20.3917C12.5751 20.3917 13.0851 20.3641 13.5398 20.309C14.0055 20.2538 14.4325 20.16 14.8206 20.0276C15.2198 19.8952 15.5913 19.7241 15.9351 19.5145C16.2899 19.3048 16.6448 19.04 16.9996 18.72C17.1216 18.6207 17.2491 18.5379 17.3822 18.4717C17.5152 18.4055 17.6594 18.3724 17.8147 18.3724Z" fill="white"/>
<path d="M37.5037 7.21655V24.2814H34.676C34.0883 24.2814 33.7112 24.0166 33.5449 23.4869L33.2455 22.2952C32.9017 22.6262 32.5469 22.9297 32.1809 23.2055C31.815 23.4814 31.4213 23.7186 30.9999 23.9172C30.5897 24.1159 30.1405 24.2703 29.6526 24.3807C29.1758 24.491 28.6546 24.5462 28.0891 24.5462C27.1576 24.5462 26.3259 24.3862 25.594 24.0662C24.8732 23.7462 24.2689 23.2993 23.7809 22.7255C23.293 22.1517 22.9215 21.4676 22.6665 20.6731C22.4114 19.8786 22.2839 19.0069 22.2839 18.0579V7.21655H26.8748V18.0579C26.8748 19.0069 27.091 19.7462 27.5235 20.2759C27.9671 20.7945 28.6213 21.0538 29.4863 21.0538C30.1295 21.0538 30.7338 20.9159 31.2994 20.64C31.8649 20.3531 32.4027 19.9669 32.9128 19.4814V7.21655H37.5037Z" fill="white"/>
<path d="M51.9552 10.7255C51.8333 10.9131 51.7057 11.051 51.5727 11.1393C51.4507 11.2166 51.2788 11.2552 51.057 11.2552C50.8352 11.2552 50.6079 11.2 50.3751 11.0897C50.1422 10.9793 49.8816 10.8635 49.5933 10.7421C49.3049 10.6097 48.9723 10.4883 48.5952 10.3779C48.2293 10.2676 47.8024 10.2124 47.3145 10.2124C46.5715 10.2124 45.9949 10.3669 45.5846 10.6759C45.1743 10.9738 44.9691 11.371 44.9691 11.8676C44.9691 12.2097 45.0855 12.4966 45.3184 12.7283C45.5513 12.96 45.8562 13.1641 46.2333 13.3407C46.6214 13.5062 47.0594 13.6662 47.5473 13.8207C48.0352 13.9641 48.5343 14.1241 49.0444 14.3007C49.5655 14.4772 50.0701 14.6814 50.558 14.9131C51.0459 15.1448 51.4784 15.4372 51.8554 15.7903C52.2436 16.1324 52.5541 16.5517 52.7869 17.0483C53.0198 17.5338 53.1362 18.1241 53.1362 18.8193C53.1362 19.6469 52.981 20.4138 52.6705 21.12C52.3711 21.8152 51.9275 22.4166 51.3398 22.9241C50.7521 23.4317 50.0202 23.829 49.1442 24.1159C48.2681 24.4028 47.259 24.5462 46.1168 24.5462C45.5291 24.5462 44.9469 24.491 44.3703 24.3807C43.7937 24.2814 43.2447 24.1379 42.7236 23.9503C42.2024 23.7517 41.7145 23.5255 41.2598 23.2717C40.8051 23.0179 40.4115 22.7421 40.0788 22.4441L41.1434 20.7393C41.2653 20.5407 41.415 20.3862 41.5925 20.2759C41.781 20.1655 42.0194 20.1103 42.3077 20.1103C42.5849 20.1103 42.84 20.1821 43.0729 20.3255C43.3057 20.4579 43.5663 20.6069 43.8547 20.7724C44.143 20.9269 44.4812 21.0759 44.8693 21.2193C45.2685 21.3517 45.762 21.4179 46.3497 21.4179C46.7933 21.4179 47.1758 21.3683 47.4974 21.269C47.819 21.1697 48.0796 21.0372 48.2792 20.8717C48.4788 20.6952 48.623 20.5021 48.7117 20.2924C48.8115 20.0717 48.8614 19.8455 48.8614 19.6138C48.8614 19.2386 48.7394 18.9352 48.4954 18.7035C48.2626 18.4607 47.9521 18.251 47.564 18.0745C47.1869 17.8979 46.7489 17.7379 46.2499 17.5945C45.7509 17.451 45.2408 17.291 44.7196 17.1145C44.2095 16.9379 43.705 16.7283 43.2059 16.4855C42.718 16.2428 42.28 15.9393 41.8919 15.5752C41.5148 15.2 41.2044 14.7421 40.9604 14.2014C40.7275 13.6607 40.6111 13.0041 40.6111 12.2317C40.6111 11.5255 40.7497 10.8579 41.0269 10.229C41.3042 9.58897 41.72 9.02621 42.2745 8.54069C42.8289 8.05517 43.5164 7.66897 44.337 7.38207C45.1687 7.09517 46.1279 6.95172 47.2147 6.95172C48.4345 6.95172 49.5434 7.15035 50.5414 7.54759C51.5394 7.94483 52.36 8.46345 53.0032 9.10345L51.9552 10.7255Z" fill="white"/>
<path d="M61.9315 24.5462C61.1553 24.5462 60.4678 24.4359 59.869 24.2152C59.2702 23.9835 58.7656 23.6579 58.3553 23.2386C57.945 22.8193 57.6345 22.3117 57.4238 21.7159C57.2131 21.12 57.1078 20.4469 57.1078 19.6966V10.4938H55.4943C55.2504 10.4938 55.0397 10.4166 54.8622 10.2621C54.6959 10.1076 54.6127 9.87586 54.6127 9.5669V7.77931L57.3573 7.28276L58.2888 2.86345C58.4108 2.3669 58.749 2.11862 59.3034 2.11862H61.6987V7.31586H66.1232V10.4938H61.6987V19.3986C61.6987 19.8731 61.8096 20.2483 62.0314 20.5241C62.2642 20.8 62.5914 20.9379 63.0127 20.9379C63.2345 20.9379 63.423 20.9159 63.5783 20.8717C63.7335 20.8166 63.8666 20.7614 63.9775 20.7062C64.0884 20.64 64.1882 20.5848 64.2769 20.5407C64.3767 20.4855 64.4765 20.4579 64.5763 20.4579C64.7094 20.4579 64.8203 20.491 64.909 20.5572C64.9977 20.6124 65.0864 20.7117 65.1751 20.8552L66.5557 23.04C65.9236 23.5366 65.2084 23.9117 64.41 24.1655C63.6115 24.4193 62.7854 24.5462 61.9315 24.5462Z" fill="white"/>
<path d="M76.1549 6.95172C77.4412 6.95172 78.6111 7.15586 79.6646 7.56414C80.7181 7.97242 81.6218 8.55724 82.3759 9.31862C83.1299 10.069 83.7121 10.9848 84.1224 12.0662C84.5327 13.1476 84.7379 14.3669 84.7379 15.7241C84.7379 17.0814 84.5327 18.3062 84.1224 19.3986C83.7121 20.48 83.1299 21.4014 82.3759 22.1628C81.6218 22.9241 80.7181 23.509 79.6646 23.9172C78.6111 24.3255 77.4412 24.5297 76.1549 24.5297C74.8575 24.5297 73.6765 24.3255 72.6119 23.9172C71.5585 23.509 70.6547 22.9241 69.9006 22.1628C69.1466 21.4014 68.5588 20.48 68.1375 19.3986C67.7272 18.3062 67.522 17.0814 67.522 15.7241C67.522 14.3669 67.7272 13.1476 68.1375 12.0662C68.5588 10.9848 69.1466 10.069 69.9006 9.31862C70.6547 8.55724 71.5585 7.97242 72.6119 7.56414C73.6765 7.15586 74.8575 6.95172 76.1549 6.95172ZM76.1549 21.1035C77.4634 21.1035 78.4337 20.6566 79.0658 19.7628C79.6979 18.8579 80.0139 17.5172 80.0139 15.7407C80.0139 13.9752 79.6979 12.6455 79.0658 11.7517C78.4337 10.8469 77.4634 10.3945 76.1549 10.3945C74.8131 10.3945 73.8262 10.8469 73.1941 11.7517C72.562 12.6455 72.246 13.9752 72.246 15.7407C72.246 17.5172 72.562 18.8579 73.1941 19.7628C73.8262 20.6566 74.8131 21.1035 76.1549 21.1035Z" fill="white"/>
<path d="M87.6204 24.2814V7.21655H90.4481C91.0248 7.21655 91.4073 7.48138 91.5959 8.01104L91.862 9.12C92.1614 8.81104 92.4664 8.52414 92.7768 8.25931C93.0984 7.99448 93.4422 7.76828 93.8081 7.58069C94.1741 7.38207 94.5677 7.22759 94.9891 7.11724C95.4216 7.0069 95.8873 6.95172 96.3864 6.95172C97.4398 6.95172 98.3103 7.2331 98.9978 7.79586C99.6854 8.34759 100.207 9.0869 100.561 10.0138C100.839 9.4731 101.177 9.00966 101.576 8.62345C101.986 8.22621 102.43 7.90621 102.907 7.66345C103.395 7.42069 103.905 7.24414 104.437 7.1338C104.98 7.01242 105.524 6.95172 106.067 6.95172C107.032 6.95172 107.886 7.09517 108.629 7.38207C109.372 7.66897 109.993 8.09379 110.492 8.65655C111.002 9.20828 111.39 9.8869 111.656 10.6924C111.922 11.4979 112.055 12.4138 112.055 13.44V24.2814H107.464V13.44C107.464 11.4428 106.605 10.4441 104.886 10.4441C104.498 10.4441 104.138 10.5103 103.805 10.6428C103.483 10.7641 103.195 10.9517 102.94 11.2055C102.696 11.4593 102.502 11.7738 102.358 12.149C102.225 12.5241 102.158 12.9545 102.158 13.44V24.2814H97.5673V13.44C97.5673 12.3586 97.3511 11.5917 96.9186 11.1393C96.4973 10.6759 95.8707 10.4441 95.039 10.4441C94.5068 10.4441 94.0022 10.571 93.5254 10.8248C93.0596 11.0676 92.6216 11.4097 92.2113 11.851V24.2814H87.6204Z" fill="white"/>
<path d="M137.29 4.86621C137.135 5.12 136.974 5.30759 136.808 5.42897C136.653 5.53931 136.448 5.59448 136.193 5.59448C135.949 5.59448 135.682 5.51173 135.394 5.34621C135.117 5.16966 134.79 4.98207 134.413 4.78345C134.036 4.58483 133.603 4.40276 133.115 4.23724C132.627 4.06069 132.056 3.97241 131.402 3.97241C130.249 3.97241 129.384 4.23172 128.807 4.75035C128.231 5.25793 127.942 5.92552 127.942 6.75311C127.942 7.28276 128.097 7.72414 128.408 8.07724C128.73 8.41931 129.145 8.71724 129.655 8.97104C130.177 9.22483 130.764 9.45104 131.419 9.64966C132.073 9.84828 132.744 10.069 133.431 10.3117C134.119 10.5435 134.79 10.8193 135.444 11.1393C136.098 11.4593 136.68 11.8621 137.191 12.3476C137.712 12.8331 138.128 13.429 138.438 14.1352C138.76 14.8303 138.92 15.68 138.92 16.6841C138.92 17.7766 138.726 18.8028 138.338 19.7628C137.961 20.7117 137.412 21.5448 136.692 22.2621C135.971 22.9683 135.078 23.5255 134.014 23.9338C132.96 24.3421 131.762 24.5462 130.421 24.5462C129.656 24.5462 128.89 24.469 128.125 24.3145C127.371 24.16 126.639 23.9448 125.93 23.669C125.231 23.3931 124.571 23.0621 123.95 22.6759C123.329 22.2897 122.786 21.8593 122.32 21.3848L123.784 19.0345C123.906 18.8579 124.067 18.7145 124.266 18.6041C124.466 18.4828 124.676 18.4221 124.898 18.4221C125.198 18.4221 125.514 18.5324 125.846 18.7531C126.179 18.9738 126.562 19.2166 126.994 19.4814C127.427 19.7462 127.926 19.989 128.491 20.2097C129.068 20.4303 129.755 20.5407 130.554 20.5407C131.718 20.5407 132.616 20.2759 133.248 19.7462C133.892 19.2166 134.213 18.4276 134.213 17.3793C134.213 16.7724 134.052 16.2814 133.731 15.9062C133.42 15.531 133.01 15.2166 132.5 14.9628C131.99 14.709 131.408 14.4938 130.753 14.3172C130.099 14.1297 129.428 13.9255 128.741 13.7048C128.053 13.4841 127.382 13.2193 126.728 12.9103C126.074 12.6014 125.492 12.1931 124.981 11.6855C124.471 11.1779 124.055 10.549 123.734 9.79862C123.423 9.04828 123.268 8.11586 123.268 7.00138C123.268 6.10759 123.446 5.24138 123.8 4.40276C124.155 3.56414 124.676 2.81931 125.364 2.16828C126.052 1.51724 126.894 0.993104 127.892 0.595862C128.901 0.198621 130.055 0 131.352 0C132.805 0 134.147 0.226207 135.377 0.678621C136.619 1.12 137.667 1.73793 138.521 2.53242L137.29 4.86621Z" fill="white"/>
<path d="M169.153 0.264828V24.2814H164.745V9.53379C164.745 9.22483 164.751 8.89379 164.762 8.54069C164.784 8.18759 164.817 7.82897 164.862 7.46483L157.959 20.491C157.582 21.2083 157 21.5669 156.212 21.5669H155.514C155.125 21.5669 154.782 21.4786 154.482 21.3021C154.183 21.1145 153.944 20.8441 153.767 20.491L146.831 7.41517C146.864 7.80138 146.892 8.17655 146.914 8.54069C146.936 8.89379 146.947 9.22483 146.947 9.53379V24.2814H142.539V0.264828H146.332C146.542 0.264828 146.731 0.270346 146.897 0.281381C147.064 0.292414 147.208 0.325517 147.33 0.38069C147.463 0.424828 147.579 0.50207 147.679 0.612415C147.79 0.711725 147.895 0.855173 147.995 1.04276L154.748 13.8538C154.959 14.24 155.153 14.6372 155.331 15.0455C155.519 15.4538 155.697 15.8731 155.863 16.3035C156.029 15.8621 156.201 15.4317 156.379 15.0124C156.567 14.5931 156.767 14.1903 156.977 13.8041L163.681 1.04276C163.781 0.855173 163.886 0.711725 163.997 0.612415C164.108 0.50207 164.224 0.424828 164.346 0.38069C164.479 0.325517 164.623 0.292414 164.779 0.281381C164.945 0.270346 165.139 0.264828 165.361 0.264828H169.153Z" fill="white"/>
<path d="M191.265 4.27035H184.212V24.2814H179.206V4.27035H172.153V0.264828H191.265V4.27035Z" fill="white"/>
<path d="M202.41 12.2152C203.974 12.2152 205.116 11.84 205.837 11.0897C206.569 10.3393 206.934 9.3131 206.934 8.01104C206.934 7.41517 206.84 6.87448 206.652 6.38897C206.474 5.89241 206.197 5.4731 205.82 5.13104C205.454 4.77793 204.988 4.50759 204.423 4.32C203.857 4.13241 203.186 4.03862 202.41 4.03862H199.25V12.2152H202.41ZM202.41 0.264828C204.062 0.264828 205.487 0.457932 206.685 0.84414C207.894 1.23035 208.886 1.77104 209.662 2.46621C210.439 3.15035 211.01 3.9669 211.376 4.91586C211.753 5.86483 211.941 6.89655 211.941 8.01104C211.941 9.19173 211.747 10.2731 211.359 11.2552C210.971 12.2372 210.383 13.0814 209.596 13.7876C208.809 14.4938 207.816 15.0455 206.618 15.4428C205.421 15.829 204.018 16.0221 202.41 16.0221H199.25V24.2814H194.26V0.264828H202.41Z" fill="white"/>
</g>
<defs>
<clipPath id="clip0_602_2">
<rect width="212" height="25" fill="white"/>
</clipPath>
</defs>
</svg>
