<svg xmlns="http://www.w3.org/2000/svg" viewBox="0 0 551.39 128.21"><defs><style>.cls-1{fill:#fba253;}.cls-2{fill:#fff;}</style></defs><g id="Layer_2" data-name="Layer 2"><g id="Layer_1-2" data-name="Layer 1"><g id="adoYrT.tif"><path class="cls-1" d="M53.91,40.37V58.84C53.92,71,56.9,74,68.84,74c13.15,0,26.31.06,39.46,0,3.93,0,7.46.6,9.13,4.57s0,7.1-2.81,9.88C103.07,100,91.65,111.62,80,123c-7.26,7.06-14.85,6.9-22-.21Q31.31,96.15,4.78,69.35C-1.47,63-1.63,55.24,4.53,49,16.31,37,28.27,25.17,40.15,13.27c2.5-2.5,5.32-4.29,8.91-2.8s5,4.47,4.9,8.42C53.79,26.05,53.91,33.21,53.91,40.37Z"/><path class="cls-1" d="M67.8,29.59c0-7.49,0-15,0-22.47,0-5,2-7,6.9-7.07q23-.11,45.94,0c4.83,0,7.11,2.22,7.14,7q.14,23,0,45.94c0,4.83-2.25,7-7.07,7q-23,.12-45.94,0c-5,0-6.92-2-7-7C67.74,45.24,67.8,37.41,67.8,29.59Z"/><path class="cls-2" d="M340.89,103.91H329.31c0-7.88,0-15.64,0-23.41,0-4.67.11-9.34-.17-14s-1.85-8.48-7.07-9.58c-6.24-1.32-11.62.81-14.17,5.68-2,3.82-2.2,8-2.21,12.17,0,9.48,0,19,0,28.69-3.87,1-7.59.45-11.81.48V72.8c0-2,.07-4-.09-6-.47-6-3.08-9.22-7.89-10-6.39-1-11.41,1.33-13.66,6.61-1.65,3.9-2,8.07-2,12.25,0,9.31,0,18.62,0,28.14H258.81V48.35c2.84-.71,5.62-.36,8.81-.2l1.92,7.11c5-5.71,10.59-8.45,17.69-8.36s12.91,2.59,17,9c4.89-6.51,11.11-9.18,18.81-9,10.81.29,17.24,5.45,17.7,16.18C341.33,76.55,340.89,90,340.89,103.91Z"/><path class="cls-2" d="M202.2,30.25h41.25v9.66H214.07V60h27.18c1,3.37.48,6.45.49,10.1H214.12V93.83H243.4v9.94H202.2Z"/><path class="cls-2" d="M504.07,101.32V90.2c5.46,1.75,10.74,3.59,16.3,4.38a27.47,27.47,0,0,0,11.87-.65c3.57-1.08,6.21-3.24,6.9-7.12s-.29-7.28-3.55-9.77c-3.47-2.66-7.53-4.21-11.46-6a82.11,82.11,0,0,1-8.93-4.39c-8.39-5.15-12-13.43-10-22.6C507,36,514.18,30,523.76,29.1A48.34,48.34,0,0,1,550,33.51l-3.62,9.37c-6.16-1.7-12-4.11-18.42-3.84-5.81.24-9.93,2.71-11,6.84-1.35,5.08.63,9.09,6.28,12.22,2.61,1.45,5.41,2.53,8.1,3.84,3.72,1.82,7.63,3.38,11.09,5.62a19.64,19.64,0,0,1,6.55,26,18.18,18.18,0,0,1-9.45,8.53C527.64,106.92,515.89,105.59,504.07,101.32Z"/><path class="cls-2" d="M389.51,70c1-11.59-4.22-16.06-15.21-13.63-3.53.77-6.91,2.19-10.78,3.45-1.13-2.52-2.27-5-3.68-8.17,11-4.75,21.9-7.11,33.19-2.06,6,2.69,8.24,8.2,8.35,14.32.24,13.12.07,26.26.07,39.75h-8.21c-.75-2.1-1.57-4.41-2.67-7.53-3.93,4.09-7.78,7.67-13.33,8.42a28.35,28.35,0,0,1-10.39,0C359,102.71,354.83,98,354.16,90c-.7-8.26,2.65-14,10.1-17A42.76,42.76,0,0,1,379.84,70C383,70,386.09,70,389.51,70Zm-.11,7.12c-6.1.05-11.93.1-17.42,2.2a8.91,8.91,0,0,0-5.56,10.49c1,4.53,4.2,6,8.4,6.16C385.46,96.36,391,89.42,389.4,77.13Z"/><path class="cls-2" d="M460.09,123.52v-9.77c2.18.17,4.41.45,6.65.51,6,.15,9.35-2.62,10.19-8.59a52.39,52.39,0,0,0,.36-7q0-31.47,0-63c0-1.79-.43-3.65.57-5.57h10.79c1.05,1.59.57,3.29.58,4.9q0,32.22,0,64.46V101C489,119.53,478.91,127.51,460.09,123.52Z"/><path class="cls-2" d="M447.62,25.2H459v78.65H447.62Z"/><path class="cls-2" d="M418.65,48.14h11.28v55.67H418.65Z"/><path class="cls-2" d="M424.18,39.25c-4.31,0-6.51-2.23-6.46-6.44.06-4.05,2.56-6.49,6.66-6.47,3.95,0,6.51,2.65,6.45,6.67S428.53,39.28,424.18,39.25Z"/></g></g></g></svg>