<?xml version="1.0" encoding="UTF-8"?>
<svg width="256px" height="256px" viewBox="0 -12.5 256 256" version="1.1" xmlns="http://www.w3.org/2000/svg" xmlns:xlink="http://www.w3.org/1999/xlink" preserveAspectRatio="xMidYMid">
    <g>
        <path d="M121.309004,84.6732585 C123.402504,81.5874152 125.694292,81.1950171 127.553451,81.1950171 C129.41261,81.1950171 132.509843,81.5874152 134.604162,84.6732585 C151.106348,107.339593 178.345607,152.492 198.439108,185.798721 C211.542532,207.519499 221.6069,224.201947 223.671721,226.324944 C231.422996,234.294992 242.053551,229.327949 248.230809,220.287799 C254.312201,211.387762 256.000111,205.138399 256.000111,198.471155 C256.000111,193.930186 167.895315,30.0714244 159.022317,16.4322117 C150.48936,3.31359639 147.710044,0 133.105527,0 L122.176721,0 C107.615631,0 105.511479,3.31359639 96.9777022,16.4322117 C88.1055238,30.0714244 0.0001105152,193.930186 0.0001105152,198.471155 C0.0001105152,205.138399 1.68839227,211.387762 7.76991495,220.287799 C13.9471241,229.327949 24.5775965,234.294992 32.3286259,226.324944 C34.3936934,224.201947 44.4580605,207.519499 57.5616485,185.798721 C77.654822,152.492 104.806818,107.339593 121.309004,84.6732585 Z" fill="#FFFFFF"></path>
    </g>
</svg>