<?xml version="1.0" encoding="UTF-8" standalone="no"?>
<svg
   xmlns:dc="http://purl.org/dc/elements/1.1/"
   xmlns:cc="http://creativecommons.org/ns#"
   xmlns:rdf="http://www.w3.org/1999/02/22-rdf-syntax-ns#"
   xmlns:svg="http://www.w3.org/2000/svg"
   xmlns="http://www.w3.org/2000/svg"
   xmlns:sodipodi="http://sodipodi.sourceforge.net/DTD/sodipodi-0.dtd"
   xmlns:inkscape="http://www.inkscape.org/namespaces/inkscape"
   viewBox="0 0 599.99997 214"
   height="214"
   width="600"
   xml:space="preserve"
   version="1.1"
   id="svg2"
   inkscape:version="0.91 r13725"
   sodipodi:docname="Firetext-logo.svg"><sodipodi:namedview
     pagecolor="#ffffff"
     bordercolor="#666666"
     borderopacity="1"
     objecttolerance="10"
     gridtolerance="10"
     guidetolerance="10"
     inkscape:pageopacity="0"
     inkscape:pageshadow="2"
     inkscape:window-width="1596"
     inkscape:window-height="910"
     id="namedview3384"
     showgrid="false"
     inkscape:zoom="2.59"
     inkscape:cx="-1279.1506"
     inkscape:cy="107"
     inkscape:window-x="0"
     inkscape:window-y="0"
     inkscape:window-maximized="0"
     inkscape:current-layer="svg2" /><metadata
     id="metadata8"><rdf:RDF><cc:Work
         rdf:about=""><dc:format>image/svg+xml</dc:format><dc:type
           rdf:resource="http://purl.org/dc/dcmitype/StillImage" /><dc:title></dc:title></cc:Work></rdf:RDF></metadata><defs
     id="defs6"><clipPath
       id="clipPath16"
       clipPathUnits="userSpaceOnUse"><path
         id="path18"
         d="m 0,595.28 841.89,0 L 841.89,0 0,0 0,595.28 Z" /></clipPath></defs><g
     id="g20"
     transform="matrix(1.1228822,0,0,-1.1245343,114.64504,118.43696)"
     style="fill:#ffffff;fill-opacity:1"><path
       d="m 0,0 c -4.47,0 -8.246,-3.847 -8.246,-8.399 l 0,-67.139 c 0,-4.708 3.688,-8.396 8.396,-8.396 4.702,0 8.248,3.61 8.248,8.396 l 0,67.139 C 8.398,-3.689 4.709,0 0,0"
       style="fill:#ffffff;fill-opacity:1;fill-rule:nonzero;stroke:none"
       id="path22"
       inkscape:connector-curvature="0" /></g><g
     id="g24"
     transform="matrix(1.1228822,0,0,-1.1245343,114.64504,105.20288)"
     style="fill:#ffffff;fill-opacity:1"><path
       d="m 0,0 c 4.528,0 7.944,3.096 7.944,7.195 l 0,1.948 c 0,4.166 -3.341,7.193 -7.944,7.193 -4.515,0 -7.794,-3.027 -7.794,-7.193 l 0,-1.948 C -7.794,3.096 -4.444,0 0,0"
       style="fill:#ffffff;fill-opacity:1;fill-rule:nonzero;stroke:none"
       id="path26"
       inkscape:connector-curvature="0" /></g><path
     id="path30"
     style="fill:#ffffff;fill-opacity:1;fill-rule:nonzero;stroke:none"
     d="m 78.378974,99.827268 c 1.722502,0 3.438266,0.283382 5.16975,0.570142 l 1.592247,0.25527 c 5.188839,0.50829 9.381681,-3.375856 9.381681,-8.418267 0,-4.042701 -2.934091,-7.562494 -6.920323,-8.357539 -3.147439,-0.743318 -6.611531,-1.08855 -10.902064,-1.08855 -8.57882,0 -15.727088,2.617916 -20.674507,7.57149 -5.494262,5.50572 -8.399158,13.944226 -8.399158,24.402396 l 0,4.68256 -4.172631,0 c -4.564516,0 -8.420493,3.8639 -8.420493,8.43738 0,4.82313 3.698774,8.60156 8.420493,8.60156 l 4.172631,0 0,66.89855 c 0,5.20547 4.228774,9.44046 9.426596,9.44046 5.192207,0 9.260409,-4.14615 9.260409,-9.44046 l 0,-66.89855 19.451688,0 c 4.736318,0 8.590049,-3.78406 8.590049,-8.43288 0,-4.72979 -3.772884,-8.43513 -8.590049,-8.43513 l -19.618997,0 0,-4.17765 c 0,-10.94284 3.65835,-15.610782 12.232678,-15.610782"
     inkscape:connector-curvature="0" /><g
     id="g32"
     transform="matrix(1.1228822,0,0,-1.1245343,189.62651,118.09983)"
     style="fill:#ffffff;fill-opacity:1"><path
       d="m 0,0 c -8.617,0 -17.66,-5.283 -24.05,-13.785 l 0,5.086 c 0,4.71 -3.69,8.399 -8.399,8.399 -4.47,0 -8.247,-3.846 -8.247,-8.399 l 0,-67.139 c 0,-4.708 3.689,-8.395 8.398,-8.395 4.625,0 8.248,3.687 8.248,8.395 l 0,26.317 c 0,18.629 9.34,30.872 25.028,32.752 4.347,0.652 7.268,4.016 7.268,8.372 C 8.246,-3.61 4.701,0 0,0"
       style="fill:#ffffff;fill-opacity:1;fill-rule:nonzero;stroke:none"
       id="path34"
       inkscape:connector-curvature="0" /></g><g
     id="g36"
     transform="matrix(1.1228822,0,0,-1.1245343,241.0526,134.13321)"
     style="fill:#ffffff;fill-opacity:1"><path
       d="m 0,0 c 16.416,0 20.686,-14.557 21.774,-21.18 l -43.953,0 C -19.894,-8.439 -11.148,0 0,0 m 38.749,-26.889 c 0,20.743 -13.207,41.743 -38.449,41.743 -22.233,0 -39.649,-18.795 -39.649,-42.79 l 0,-0.297 c 0,-24.394 17.688,-42.789 41.144,-42.789 12.469,0 21.997,3.807 30.846,12.297 1.722,1.507 2.671,3.522 2.671,5.671 0,4.134 -3.432,7.497 -7.65,7.497 -2.349,0 -3.965,-1.131 -5.027,-2.026 -6.058,-5.578 -12.778,-8.289 -20.542,-8.289 -12.541,0 -21.909,8.197 -24.267,21.037 l 52.975,0 c 4.383,0 7.948,3.564 7.948,7.946"
       style="fill:#ffffff;fill-opacity:1;fill-rule:nonzero;stroke:none"
       id="path38"
       inkscape:connector-curvature="0" /></g><g
     id="g40"
     transform="matrix(1.1228822,0,0,-1.1245343,342.68714,136.48225)"><path
       d="m 0,0 c 4.299,0 7.797,3.431 7.797,7.647 0,4.146 -3.57,7.649 -7.797,7.649 l -17.475,0 0,15.678 c 0,4.552 -3.843,8.399 -8.394,8.399 -4.626,0 -8.249,-3.689 -8.249,-8.399 l 0,-15.678 -5.327,0 c -4.146,0 -7.648,-3.503 -7.648,-7.649 0,-4.074 3.574,-7.647 7.648,-7.647 l 5.327,0 0,-44.087 c 0,-15.505 8.892,-24.397 24.397,-24.397 4.606,0 8.52,0.723 12.288,2.264 3.041,1.17 4.93,3.806 4.93,6.88 0,4.067 -3.434,7.501 -7.497,7.501 -0.616,0 -1.183,-0.148 -1.91,-0.338 -1.074,-0.282 -2.697,-0.709 -5.119,-0.709 -7.224,0 -10.446,3.175 -10.446,10.294 L -17.475,0 0,0 Z"
       style="fill:#df3b8d;fill-opacity:1;fill-rule:nonzero;stroke:none"
       id="path42"
       inkscape:connector-curvature="0" /></g><g
     id="g44"
     transform="matrix(1.1228822,0,0,-1.1245343,401.58478,134.1322)"><path
       d="m 0,0 c 16.416,0 20.686,-14.557 21.773,-21.181 l -43.949,0 C -19.892,-8.439 -11.147,0 0,0 m 0.3,14.853 c -22.234,0 -39.651,-18.795 -39.651,-42.79 l 0,-0.297 c 0,-24.394 17.69,-42.789 41.147,-42.789 12.467,0 21.996,3.806 30.848,12.298 1.72,1.507 2.668,3.521 2.668,5.669 0,4.135 -3.431,7.498 -7.647,7.498 -2.345,0 -3.964,-1.13 -5.029,-2.026 -6.058,-5.577 -12.777,-8.288 -20.541,-8.288 -12.543,0 -21.91,8.197 -24.266,21.037 l 52.975,0 c 4.383,0 7.948,3.564 7.948,7.945 0,20.744 -13.208,41.743 -38.452,41.743"
       style="fill:#df3b8d;fill-opacity:1;fill-rule:nonzero;stroke:none"
       id="path46"
       inkscape:connector-curvature="0" /></g><g
     id="g48"
     transform="matrix(1.1228822,0,0,-1.1245343,502.70122,164.54073)"><path
       d="m 0,0 22.714,27.792 c 1.421,1.664 2.111,3.433 2.111,5.407 0,4.447 -3.352,7.799 -7.799,7.799 -3.43,0 -5.599,-2.168 -6.95,-3.82 l -20.119,-25.55 -20.289,25.737 c -1.276,1.56 -3.399,3.633 -7.071,3.633 -4.533,0 -7.951,-3.418 -7.951,-7.95 0,-2.084 0.812,-4.055 2.373,-5.808 L -20.522,-0.299 -44.356,-29.64 c -1.457,-1.482 -2.194,-3.331 -2.194,-5.496 0,-4.373 3.427,-7.799 7.801,-7.799 3.424,0 5.595,2.164 6.948,3.815 l 21.313,27.056 21.492,-27.238 c 1.276,-1.559 3.396,-3.633 7.065,-3.633 4.533,0 7.95,3.417 7.95,7.95 0,1.986 -0.72,3.877 -2.223,5.807 L 0,0 Z"
       style="fill:#df3b8d;fill-opacity:1;fill-rule:nonzero;stroke:none"
       id="path50"
       inkscape:connector-curvature="0" /></g><g
     id="g52"
     transform="matrix(1.1228822,0,0,-1.1245343,590.91878,194.77687)"><path
       d="m 0,0 c -0.611,0 -1.17,-0.146 -1.904,-0.338 -1.076,-0.282 -2.702,-0.709 -5.125,-0.709 -7.219,0 -10.438,3.175 -10.438,10.294 l 0,42.592 17.467,0 c 4.3,0 7.799,3.431 7.799,7.647 0,4.146 -3.571,7.649 -7.799,7.649 l -17.467,0 0,15.678 c 0,4.552 -3.846,8.399 -8.4,8.399 -4.625,0 -8.248,-3.69 -8.248,-8.399 l 0,-15.678 -5.324,0 c -4.146,0 -7.649,-3.503 -7.649,-7.649 0,-4.074 3.574,-7.647 7.649,-7.647 l 5.324,0 0,-44.087 c 0,-15.505 8.892,-24.398 24.396,-24.398 4.609,0 8.522,0.724 12.285,2.265 3.045,1.168 4.936,3.805 4.936,6.88 C 7.502,-3.435 4.066,0 0,0"
       style="fill:#df3b8d;fill-opacity:1;fill-rule:nonzero;stroke:none"
       id="path54"
       inkscape:connector-curvature="0" /></g><g
     id="g56"
     transform="matrix(1.1228822,0,0,-1.1245343,237.24379,66.430624)"
     style="fill:#ffffff;fill-opacity:1"><path
       d="m 0,0 c -0.303,0.214 -0.606,0.647 -0.606,1.209 0,0.778 0.649,1.427 1.469,1.427 0.303,0 0.607,-0.09 0.823,-0.258 C 3.977,0.819 6.356,0 8.776,0 c 2.682,0 4.626,1.384 4.626,3.544 l 0,0.086 c 0,2.251 -2.638,3.116 -5.576,3.939 -3.504,0.99 -7.395,2.203 -7.395,6.308 l 0,0.086 c 0,3.847 3.199,6.404 7.61,6.404 2.377,0 4.971,-0.737 7.133,-1.908 0.433,-0.258 0.824,-0.734 0.824,-1.383 0,-0.782 -0.652,-1.427 -1.47,-1.427 -0.303,0 -0.563,0.086 -0.736,0.172 -1.902,1.081 -3.934,1.733 -5.837,1.733 -2.637,0 -4.325,-1.387 -4.325,-3.243 l 0,-0.086 c 0,-2.121 2.769,-2.941 5.751,-3.85 3.459,-1.038 7.178,-2.38 7.178,-6.399 l 0,-0.088 c 0,-4.236 -3.503,-6.701 -7.957,-6.701 C 5.663,-2.813 2.419,-1.729 0,0"
       style="fill:#ffffff;fill-opacity:1;fill-rule:nonzero;stroke:none"
       id="path58"
       inkscape:connector-curvature="0" /></g><g
     id="g60"
     transform="matrix(1.1228822,0,0,-1.1245343,262.78161,45.622803)"
     style="fill:#ffffff;fill-opacity:1"><path
       d="M 0,0 C 0,0.908 0.734,1.687 1.641,1.687 2.593,1.687 3.326,0.95 3.326,0 l 0,-2.291 c 1.472,2.205 3.462,4.24 7.222,4.24 3.632,0 5.966,-1.949 7.176,-4.455 1.601,2.462 3.978,4.455 7.871,4.455 5.141,0 8.301,-3.465 8.301,-8.997 l 0,-12.361 c 0,-0.954 -0.736,-1.688 -1.644,-1.688 -0.949,0 -1.684,0.734 -1.684,1.688 l 0,11.586 c 0,4.319 -2.165,6.745 -5.795,6.745 -3.373,0 -6.139,-2.508 -6.139,-6.918 l 0,-11.413 c 0,-0.954 -0.734,-1.688 -1.689,-1.688 -0.907,0 -1.642,0.734 -1.642,1.688 l 0,11.669 c 0,4.195 -2.204,6.662 -5.748,6.662 -3.548,0 -6.229,-2.94 -6.229,-7.05 l 0,-11.281 c 0,-0.954 -0.691,-1.688 -1.641,-1.688 -0.951,0 -1.685,0.734 -1.685,1.688 L 0,0 Z"
       style="fill:#ffffff;fill-opacity:1;fill-rule:nonzero;stroke:none"
       id="path62"
       inkscape:connector-curvature="0" /></g><g
     id="g64"
     transform="matrix(1.1228822,0,0,-1.1245343,307.58944,66.430624)"
     style="fill:#ffffff;fill-opacity:1"><path
       d="m 0,0 c -0.298,0.214 -0.603,0.647 -0.603,1.209 0,0.778 0.647,1.427 1.47,1.427 0.304,0 0.605,-0.09 0.822,-0.258 C 3.979,0.819 6.354,0 8.779,0 c 2.679,0 4.624,1.384 4.624,3.544 l 0,0.086 c 0,2.251 -2.634,3.116 -5.574,3.939 -3.504,0.99 -7.395,2.203 -7.395,6.308 l 0,0.086 c 0,3.847 3.198,6.404 7.61,6.404 2.378,0 4.973,-0.737 7.132,-1.908 0.434,-0.258 0.821,-0.734 0.821,-1.383 0,-0.782 -0.648,-1.427 -1.469,-1.427 -0.301,0 -0.561,0.086 -0.734,0.172 -1.905,1.081 -3.935,1.733 -5.838,1.733 -2.636,0 -4.324,-1.387 -4.324,-3.243 l 0,-0.086 c 0,-2.121 2.769,-2.941 5.75,-3.85 3.461,-1.038 7.178,-2.38 7.178,-6.399 l 0,-0.088 c 0,-4.236 -3.5,-6.701 -7.957,-6.701 C 5.664,-2.813 2.423,-1.729 0,0"
       style="fill:#ffffff;fill-opacity:1;fill-rule:nonzero;stroke:none"
       id="path66"
       inkscape:connector-curvature="0" /></g><g
     id="g68"
     transform="matrix(1.1228822,0,0,-1.1245343,347.69194,45.622803)"
     style="fill:#ffffff;fill-opacity:1"><path
       d="M 0,0 C 0,0.908 0.733,1.687 1.644,1.687 2.595,1.687 3.33,0.95 3.33,0 l 0,-2.291 c 1.47,2.205 3.459,4.24 7.22,4.24 3.632,0 5.967,-1.949 7.177,-4.455 1.6,2.462 3.976,4.455 7.868,4.455 5.143,0 8.303,-3.465 8.303,-8.997 l 0,-12.361 c 0,-0.954 -0.738,-1.688 -1.646,-1.688 -0.951,0 -1.685,0.734 -1.685,1.688 l 0,11.586 c 0,4.319 -2.161,6.745 -5.794,6.745 -3.371,0 -6.137,-2.508 -6.137,-6.918 l 0,-11.413 c 0,-0.954 -0.738,-1.688 -1.689,-1.688 -0.907,0 -1.644,0.734 -1.644,1.688 l 0,11.669 c 0,4.195 -2.201,6.662 -5.748,6.662 -3.546,0 -6.225,-2.94 -6.225,-7.05 l 0,-11.281 c 0,-0.954 -0.69,-1.688 -1.644,-1.688 -0.953,0 -1.686,0.734 -1.686,1.688 L 0,0 Z"
       style="fill:#ffffff;fill-opacity:1;fill-rule:nonzero;stroke:none"
       id="path70"
       inkscape:connector-curvature="0" /></g><g
     id="g72"
     transform="matrix(1.1228822,0,0,-1.1245343,391.97123,61.815985)"
     style="fill:#ffffff;fill-opacity:1"><path
       d="m 0,0 0,0.087 c 0,4.713 3.887,7.226 9.552,7.226 2.855,0 4.887,-0.393 6.873,-0.955 l 0,0.778 c 0,4.023 -2.462,6.097 -6.657,6.097 -2.246,0 -4.151,-0.517 -5.793,-1.254 -0.213,-0.085 -0.433,-0.128 -0.605,-0.128 -0.777,0 -1.469,0.649 -1.469,1.424 0,0.694 0.474,1.21 0.908,1.382 2.204,0.954 4.451,1.515 7.307,1.515 3.156,0 5.573,-0.822 7.219,-2.464 1.516,-1.516 2.294,-3.675 2.294,-6.526 l 0,-12.24 c 0,-0.95 -0.695,-1.64 -1.603,-1.64 -0.949,0 -1.601,0.69 -1.601,1.558 l 0,2.031 C 14.872,-5.14 12.274,-6.959 8.344,-6.959 4.192,-6.959 0,-4.58 0,0 m 16.469,1.731 0,2.161 C 14.828,4.37 12.625,4.847 9.9,4.847 5.706,4.847 3.37,3.028 3.37,0.22 l 0,-0.086 c 0,-2.812 2.594,-4.454 5.62,-4.454 4.109,0 7.479,2.507 7.479,6.051"
       style="fill:#ffffff;fill-opacity:1;fill-rule:nonzero;stroke:none"
       id="path74"
       inkscape:connector-curvature="0" /></g><g
     id="g76"
     transform="matrix(1.1228822,0,0,-1.1245343,445.86081,67.449114)"
     style="fill:#ffffff;fill-opacity:1"><path
       d="m 0,0 c 0,-0.954 -0.736,-1.689 -1.646,-1.689 -0.951,0 -1.686,0.735 -1.686,1.689 l 0,3.025 c -1.816,-2.682 -4.454,-4.975 -8.562,-4.975 -5.359,0 -10.677,4.24 -10.677,11.589 l 0,0.085 c 0,7.309 5.318,11.633 10.677,11.633 4.155,0 6.834,-2.249 8.562,-4.759 l 0,12.017 c 0,0.956 0.691,1.693 1.644,1.693 C -0.736,30.308 0,29.571 0,28.615 L 0,0 Z m -19.153,9.771 0,-0.09 c 0,-5.274 3.671,-8.649 7.866,-8.649 4.149,0 8.084,3.505 8.084,8.649 l 0,0.09 c 0,5.143 -3.935,8.6 -8.084,8.6 -4.322,0 -7.866,-3.198 -7.866,-8.6"
       style="fill:#ffffff;fill-opacity:1;fill-rule:nonzero;stroke:none"
       id="path78"
       inkscape:connector-curvature="0" /></g><g
     id="g80"
     transform="matrix(1.1228822,0,0,-1.1245343,465.17899,69.690536)"
     style="fill:#ffffff;fill-opacity:1"><path
       d="m 0,0 c -6.138,0 -11.155,4.712 -11.155,11.63 l 0,0.086 c 0,6.446 4.542,11.635 10.724,11.635 6.615,0 10.377,-5.405 10.377,-11.331 0,-0.906 -0.735,-1.553 -1.557,-1.553 l -16.17,0 c 0.476,-4.846 3.889,-7.568 7.867,-7.568 2.768,0 4.8,1.082 6.442,2.592 0.262,0.217 0.565,0.392 0.951,0.392 0.825,0 1.472,-0.649 1.472,-1.429 C 8.951,4.063 8.777,3.675 8.433,3.374 6.313,1.342 3.806,0 0,0 m 6.617,12.93 c -0.346,4.063 -2.682,7.608 -7.136,7.608 -3.89,0 -6.831,-3.243 -7.262,-7.608 l 14.398,0 z"
       style="fill:#ffffff;fill-opacity:1;fill-rule:nonzero;stroke:none"
       id="path82"
       inkscape:connector-curvature="0" /></g><g
     id="g84"
     transform="matrix(1.1228822,0,0,-1.1245343,508.48777,69.690536)"
     style="fill:#ffffff;fill-opacity:1"><path
       d="m 0,0 c -6.144,0 -11.157,4.712 -11.157,11.63 l 0,0.086 c 0,6.446 4.538,11.635 10.719,11.635 6.619,0 10.379,-5.405 10.379,-11.331 0,-0.906 -0.735,-1.553 -1.557,-1.553 l -16.172,0 c 0.477,-4.846 3.892,-7.568 7.87,-7.568 2.77,0 4.801,1.082 6.443,2.592 0.26,0.217 0.561,0.392 0.952,0.392 0.82,0 1.473,-0.649 1.473,-1.429 C 8.95,4.063 8.774,3.675 8.43,3.374 6.31,1.342 3.803,0 0,0 m 6.612,12.93 c -0.346,4.063 -2.678,7.608 -7.133,7.608 -3.891,0 -6.832,-3.243 -7.267,-7.608 l 14.4,0 z"
       style="fill:#ffffff;fill-opacity:1;fill-rule:nonzero;stroke:none"
       id="path86"
       inkscape:connector-curvature="0" /></g><g
     id="g88"
     transform="matrix(1.1228822,0,0,-1.1245343,524.3605,61.815985)"
     style="fill:#ffffff;fill-opacity:1"><path
       d="m 0,0 0,0.087 c 0,4.713 3.89,7.226 9.555,7.226 2.851,0 4.885,-0.393 6.875,-0.955 l 0,0.778 c 0,4.023 -2.463,6.097 -6.661,6.097 -2.248,0 -4.148,-0.517 -5.79,-1.254 -0.218,-0.085 -0.434,-0.128 -0.607,-0.128 -0.78,0 -1.47,0.649 -1.47,1.424 0,0.694 0.474,1.21 0.911,1.382 2.204,0.954 4.453,1.515 7.304,1.515 3.156,0 5.576,-0.822 7.219,-2.464 1.514,-1.516 2.292,-3.675 2.292,-6.526 l 0,-12.24 c 0,-0.95 -0.693,-1.64 -1.601,-1.64 -0.949,0 -1.597,0.69 -1.597,1.558 l 0,2.031 C 14.873,-5.14 12.279,-6.959 8.344,-6.959 4.194,-6.959 0,-4.58 0,0 m 16.472,1.731 0,2.161 C 14.829,4.37 12.626,4.847 9.901,4.847 5.707,4.847 3.372,3.028 3.372,0.22 l 0,-0.086 c 0,-2.812 2.592,-4.454 5.62,-4.454 4.11,0 7.48,2.507 7.48,6.051"
       style="fill:#ffffff;fill-opacity:1;fill-rule:nonzero;stroke:none"
       id="path90"
       inkscape:connector-curvature="0" /></g><g
     id="g92"
     transform="matrix(1.1228822,0,0,-1.1245343,553.00612,66.430624)"
     style="fill:#ffffff;fill-opacity:1"><path
       d="m 0,0 c -0.305,0.214 -0.608,0.647 -0.608,1.209 0,0.778 0.652,1.427 1.474,1.427 0.299,0 0.601,-0.09 0.819,-0.258 C 3.977,0.819 6.353,0 8.777,0 11.457,0 13.4,1.384 13.4,3.544 l 0,0.086 c 0,2.251 -2.633,3.116 -5.579,3.939 -3.498,0.99 -7.387,2.203 -7.387,6.308 l 0,0.086 c 0,3.847 3.196,6.404 7.607,6.404 2.377,0 4.973,-0.737 7.131,-1.908 0.435,-0.258 0.824,-0.734 0.824,-1.383 0,-0.782 -0.648,-1.427 -1.474,-1.427 -0.299,0 -0.557,0.086 -0.733,0.172 -1.9,1.081 -3.934,1.733 -5.834,1.733 -2.637,0 -4.325,-1.387 -4.325,-3.243 l 0,-0.086 c 0,-2.121 2.766,-2.941 5.75,-3.85 3.458,-1.038 7.177,-2.38 7.177,-6.399 l 0,-0.088 c 0,-4.236 -3.503,-6.701 -7.955,-6.701 C 5.661,-2.813 2.42,-1.729 0,0"
       style="fill:#ffffff;fill-opacity:1;fill-rule:nonzero;stroke:none"
       id="path94"
       inkscape:connector-curvature="0" /></g><g
     id="g96"
     transform="matrix(1.1228822,0,0,-1.1245343,577.47159,76.299312)"
     style="fill:#ffffff;fill-opacity:1"><path
       d="m 0,0 c -0.52,0.215 -1.036,0.647 -1.036,1.426 0,0.82 0.691,1.425 1.428,1.425 0.301,0 0.559,-0.088 0.818,-0.17 0.65,-0.22 1.302,-0.396 2.426,-0.396 2.072,0 3.281,1.257 4.492,3.983 l 0.174,0.345 -9.338,19.801 c -0.129,0.302 -0.215,0.609 -0.215,0.907 0,0.908 0.731,1.646 1.685,1.646 0.909,0 1.382,-0.562 1.684,-1.296 l 7.788,-17.556 6.91,17.598 c 0.265,0.692 0.741,1.254 1.605,1.254 0.907,0 1.642,-0.738 1.642,-1.646 0,-0.257 -0.088,-0.56 -0.175,-0.821 L 11.155,5.665 C 9.209,1.038 7.05,-0.649 3.677,-0.649 2.207,-0.649 1.127,-0.392 0,0"
       style="fill:#ffffff;fill-opacity:1;fill-rule:nonzero;stroke:none"
       id="path98"
       inkscape:connector-curvature="0" /></g><g
     id="g100"
     transform="matrix(1.1228822,0,0,-1.1245343,39.944289,92.055499)"><path
       d="m 0,0 c -0.201,-1.036 -14.408,1.406 -20.383,7.385 -5.975,5.969 -7.028,11.945 -15.113,14.405 0,0 8.247,4.761 17.573,-3.516 0,0 -1.054,10.543 -14.409,15.465 0,0 5.716,4.6 15.556,0.734 0,0 -2.15,13.959 -18.797,18.256 0,0 5.256,6.791 20.821,-1.432 -9.693,5.58 -13.656,8.956 -15.272,16.151 -1.307,5.826 1.299,10.927 3.447,14.413 0,0 0.041,-8.566 5.656,-13.09 5.807,-4.676 15.567,-5.875 17.3,-23.018 0,0 3.527,8.046 -1.745,20 0,0 12.083,-5.236 11.691,-19.713 0,0 6.517,2.98 6.164,15.279 0,0 7.892,-5.088 6.837,-19.499 0,0 3.501,9.031 13.356,7.734 0,0 -5.812,-6.985 -4.62,-14.277 C 29.271,27.894 27.124,19.17 27.124,19.17 27.124,19.17 4.299,22.391 0,0"
       style="fill:#df3b8d;fill-opacity:1;fill-rule:nonzero;stroke:none"
       id="path102"
       inkscape:connector-curvature="0" /></g></svg>