<svg width="135" height="40" viewBox="0 0 135 40" fill="none" xmlns="http://www.w3.org/2000/svg">
<g clip-path="url(#clip0_1_2)">
<path d="M6.82667 28.9171L3.43222 30.9305C2.97174 31.2333 3.18215 31.7538 3.43222 31.8586L16.6151 39.2451C17.3938 39.6814 18.3532 39.6814 19.1319 39.2451L32.4894 31.7608C32.8941 31.5211 32.8277 31.0338 32.4894 30.8694L28.9003 28.9302C28.5973 28.7304 27.9218 28.7968 27.6825 28.9596L19.1319 33.7505C18.3532 34.1868 17.3938 34.1868 16.6151 33.7505L7.98876 28.9171C7.66718 28.7193 7.15777 28.7305 6.82667 28.9171Z" fill="white"/>
<path d="M16.6147 -0.100014C17.3934 -0.536323 18.3527 -0.536323 19.1314 -0.100014C19.1314 -0.100014 29.1257 5.49987 29.7474 5.8482C30.1712 6.06262 30.2096 6.63826 29.7474 6.89784C29.0476 7.28853 28.1089 7.81207 27.33 8.24642C26.4201 8.75386 25.3124 8.75236 24.4035 8.24307L19.1314 5.28911C18.3527 4.8528 17.3934 4.8528 16.6147 5.28911L11.3364 8.24658C10.4268 8.7562 9.31816 8.75714 8.40764 8.2493C7.59793 7.79767 6.61568 7.25012 5.90786 6.85654C5.51524 6.68794 5.43352 6.1874 5.90786 5.89909L16.6147 -0.100014Z" fill="white"/>
<path d="M34.4879 8.85338C35.2666 9.28969 35.7463 10.096 35.7463 10.9686V28.1772C35.7463 29.0289 35.2129 29.1878 34.644 28.8904L30.7127 26.7685V15.1992L19.1315 21.6882C18.3528 22.1245 17.3935 22.1245 16.6148 21.6882L5.03356 15.1992V26.7671L1.4613 28.8879C1.03556 29.1586 0 29.2439 0 28.1772V10.9686C0 10.096 0.479696 9.28969 1.25839 8.85338C2.51127 8.19729 3.80585 8.85338 3.80585 8.85338L17.8731 16.7526L31.9184 8.85338C31.9184 8.85338 33.1657 8.10112 34.4879 8.85338Z" fill="#22D172"/>
<path fill-rule="evenodd" clip-rule="evenodd" d="M85.1189 7.50244C84.174 7.50244 83.4079 8.26847 83.4079 9.21341C83.4079 10.1584 84.174 10.9244 85.1189 10.9244C86.0639 10.9244 86.8299 10.1584 86.8299 9.21341C86.8299 8.26847 86.0639 7.50244 85.1189 7.50244ZM89.4922 7.50246C89.399 7.50246 89.3235 7.57802 89.3235 7.67123V24.4708C89.3235 24.564 89.399 24.6396 89.4922 24.6396H92.0905C92.1837 24.6396 92.2593 24.564 92.2593 24.4708V7.67123C92.2593 7.57802 92.1837 7.50246 92.0905 7.50246H89.4922ZM95.2483 7.50246C95.155 7.50246 95.0795 7.57802 95.0795 7.67123V24.4708C95.0795 24.564 95.155 24.6396 95.2483 24.6396H97.8465C97.9397 24.6396 98.0153 24.564 98.0153 24.4708V15.5077H100.643C100.736 15.5077 100.812 15.4321 100.812 15.3389V12.8525C100.812 12.7593 100.736 12.6838 100.643 12.6838H98.0153V7.67123C98.0153 7.57802 97.9397 7.50246 97.8465 7.50246H95.2483ZM54.627 12.1712C51.7631 12.1712 49.4414 14.4929 49.4414 17.3568V24.4709C49.4414 24.5641 49.517 24.6397 49.6102 24.6397H52.2084C52.3016 24.6397 52.3772 24.5641 52.3772 24.4709V17.3568C52.3772 16.1143 53.3845 15.107 54.627 15.107C55.8695 15.107 56.8767 16.1143 56.8767 17.3568V24.4709C56.8767 24.5641 56.9523 24.6397 57.0455 24.6397H59.6437C59.737 24.6397 59.8125 24.5641 59.8125 24.4709L59.8128 17.3568C59.8128 16.1143 60.82 15.107 62.0625 15.107C63.305 15.107 64.3123 16.1143 64.3123 17.3568V24.4709C64.3123 24.5641 64.3878 24.6397 64.481 24.6397H67.0793C67.1725 24.6397 67.2481 24.5641 67.2481 24.4709V17.3568C67.2481 14.4929 64.9264 12.1712 62.0625 12.1712C60.6044 12.1712 59.2867 12.7732 58.3447 13.7418C57.4028 12.7732 56.0851 12.1712 54.627 12.1712ZM74.9488 12.1712C71.4732 12.1712 68.6556 14.9888 68.6556 18.4644V18.7264C68.6556 22.2021 71.4732 25.0197 74.9488 25.0197C76.1971 25.0197 77.3447 24.5822 78.3063 23.8925V24.4709C78.3063 24.5641 78.3818 24.6397 78.475 24.6397H81.0733C81.1665 24.6397 81.2421 24.5641 81.2421 24.4709V18.4644C81.2421 14.9888 78.4245 12.1712 74.9488 12.1712ZM114.358 12.1712C110.883 12.1712 108.065 14.9888 108.065 18.4644V18.7264C108.065 22.2021 110.883 25.0197 114.358 25.0197C115.582 25.0197 116.79 24.4741 117.716 23.7754V24.4709C117.716 24.5641 117.791 24.6397 117.884 24.6397H120.483C120.576 24.6397 120.651 24.5641 120.651 24.4709V18.4644C120.651 14.9888 117.834 12.1712 114.358 12.1712ZM129.122 12.1712C125.646 12.1712 122.829 14.9888 122.829 18.4644V29.4259C122.829 29.5191 122.904 29.5947 122.998 29.5947H125.596C125.689 29.5947 125.765 29.5191 125.765 29.4259V24.0502C126.736 24.6643 127.888 25.0197 129.122 25.0197C132.598 25.0197 135.415 22.2021 135.415 18.7264V18.4644C135.415 14.9888 132.598 12.1712 129.122 12.1712ZM107.173 12.5866C104.085 12.5866 101.581 15.0903 101.581 18.1788V24.4709C101.581 24.5641 101.657 24.6397 101.75 24.6397H104.348C104.441 24.6397 104.517 24.5641 104.517 24.4709V18.1788C104.517 16.7117 105.706 15.5224 107.173 15.5224C107.218 15.5224 107.261 15.5046 107.293 15.473C107.324 15.4413 107.342 15.3984 107.342 15.3536V12.7554C107.342 12.6622 107.266 12.5866 107.173 12.5866ZM83.8486 12.6838C83.7554 12.6838 83.6798 12.7593 83.6798 12.8525V24.471C83.6798 24.5642 83.7554 24.6397 83.8486 24.6397H86.4469C86.5401 24.6397 86.6156 24.5642 86.6156 24.471V12.8525C86.6156 12.7593 86.5401 12.6838 86.4469 12.6838H83.8486ZM71.5914 18.4644C71.5914 16.6102 73.0946 15.107 74.9488 15.107C76.8031 15.107 78.3063 16.6102 78.3063 18.4644V18.7264C78.3063 20.5807 76.8031 22.0839 74.9488 22.0839C73.0946 22.0839 71.5914 20.5807 71.5914 18.7264V18.4644ZM111.001 18.4644C111.001 16.6102 112.504 15.107 114.358 15.107C116.212 15.107 117.716 16.6102 117.716 18.4644V18.7264C117.716 20.5807 116.212 22.0839 114.358 22.0839C112.504 22.0839 111.001 20.5807 111.001 18.7264V18.4644ZM125.765 18.4644C125.765 16.6102 127.268 15.107 129.122 15.107C130.976 15.107 132.479 16.6102 132.479 18.4644V18.7264C132.479 20.5807 130.976 22.0839 129.122 22.0839C127.268 22.0839 125.765 20.5807 125.765 18.7264V18.4644Z" fill="white"/>
<g opacity="0.5">
<path d="M52.1404 36.0026C53.3093 36.0026 54.2962 35.1211 54.2962 33.6456C54.2962 32.17 53.3093 31.2885 52.1404 31.2885C51.4122 31.2885 50.9235 31.6047 50.6457 32.0838H50.6265V29.1519H49.6875V35.8589H50.6265V35.2074H50.6457C50.9235 35.6864 51.4122 36.0026 52.1404 36.0026ZM51.9392 35.0828C51.1151 35.0828 50.5786 34.4888 50.5786 33.6456C50.5786 32.8024 51.1151 32.2084 51.9392 32.2084C52.7632 32.2084 53.2997 32.8024 53.2997 33.6456C53.2997 34.4888 52.7632 35.0828 51.9392 35.0828Z" fill="white"/>
<path d="M58.3892 31.4323L57.2106 34.3355L55.9938 31.4323H54.8727L56.7316 35.4565L55.668 37.7752H56.6645L59.424 31.4323H58.3892Z" fill="white"/>
<path d="M65.7994 31.2981H65.7323C64.985 31.2981 64.4772 31.7389 64.2664 32.4H64.2472V31.4323H63.3082V35.8589H64.2472V33.8947C64.2472 32.8407 64.7359 32.4 65.6557 32.4H65.7994V31.2981Z" fill="white"/>
<path d="M68.5788 36.0026C69.307 36.0026 69.7956 35.6864 70.0735 35.2074H70.0927V35.8589H71.0317V31.4323H70.0927V32.0838H70.0735C69.7956 31.6047 69.307 31.2885 68.5788 31.2885C67.4098 31.2885 66.423 32.17 66.423 33.6456C66.423 35.1211 67.4098 36.0026 68.5788 36.0026ZM68.78 35.0828C67.956 35.0828 67.4194 34.4888 67.4194 33.6456C67.4194 32.8024 67.956 32.2084 68.78 32.2084C69.604 32.2084 70.1406 32.8024 70.1406 33.6456C70.1406 34.4888 69.604 35.0828 68.78 35.0828Z" fill="white"/>
<path d="M73.516 29.2477H72.3663V30.3975H73.516V29.2477ZM72.4717 35.8589H73.4106V31.4323H72.4717V35.8589Z" fill="white"/>
<path d="M75.8303 29.1519H74.8914V35.8589H75.8303V29.1519Z" fill="white"/>
<path d="M78.6333 36.0026C79.6681 36.0026 80.358 35.5619 80.358 34.6612C80.358 34.0672 80.0514 33.6839 79.4765 33.4156L78.6525 33.0228C78.2692 32.8407 78.1447 32.7066 78.1447 32.4958C78.1447 32.2946 78.2788 32.1604 78.6908 32.1604C79.122 32.1604 79.534 32.3042 79.8693 32.4479L80.2526 31.6335C79.7831 31.4227 79.2274 31.2885 78.7195 31.2885C77.7518 31.2885 77.1482 31.7293 77.1482 32.5437C77.1482 33.0515 77.4069 33.5019 78.0776 33.8181L78.8824 34.2109C79.2561 34.3929 79.3519 34.5271 79.3519 34.7091C79.3519 34.987 79.1124 35.1211 78.6621 35.1211C78.1351 35.1211 77.6656 34.9391 77.2536 34.6995L76.832 35.5331C77.3398 35.8302 78.0009 36.0026 78.6333 36.0026Z" fill="white"/>
<path d="M86.6178 31.4323L85.7267 34.6229L84.7015 31.4323H83.7912L82.766 34.6229L81.8749 31.4323H80.8401L82.3253 35.8589H83.1876L84.2511 32.6874L85.3051 35.8589H86.1674L87.6526 31.4323H86.6178Z" fill="white"/>
<path d="M90.3805 36.0026C91.1087 36.0026 91.5973 35.6864 91.8752 35.2074H91.8943V35.8589H92.8333V31.4323H91.8943V32.0838H91.8752C91.5973 31.6047 91.1087 31.2885 90.3805 31.2885C89.2115 31.2885 88.2246 32.17 88.2246 33.6456C88.2246 35.1211 89.2115 36.0026 90.3805 36.0026ZM90.5817 35.0828C89.7577 35.0828 89.2211 34.4888 89.2211 33.6456C89.2211 32.8024 89.7577 32.2084 90.5817 32.2084C91.4057 32.2084 91.9422 32.8024 91.9422 33.6456C91.9422 34.4888 91.4057 35.0828 90.5817 35.0828Z" fill="white"/>
<path d="M96.7166 31.2981H96.6495C95.9022 31.2981 95.3944 31.7389 95.1836 32.4H95.1644V31.4323H94.2254V35.8589H95.1644V33.8947C95.1644 32.8407 95.6531 32.4 96.5729 32.4H96.7166V31.2981Z" fill="white"/>
<path d="M99.6014 31.2885C98.1833 31.2885 97.3402 32.3138 97.3402 33.6552C97.3402 35.0541 98.2408 36.0026 99.6493 36.0026C100.742 36.0026 101.326 35.399 101.652 34.9487L100.991 34.3259C100.77 34.6229 100.358 35.102 99.6301 35.102C98.8732 35.102 98.3271 34.5846 98.2887 33.7989H101.719V33.6456C101.719 32.2179 100.952 31.2885 99.6014 31.2885ZM99.5439 32.1509C100.215 32.1509 100.665 32.5054 100.703 33.1186H98.3366C98.4516 32.4766 98.9115 32.1509 99.5439 32.1509Z" fill="white"/>
</g>
</g>
<defs>
<clipPath id="clip0_1_2">
<rect width="135" height="40" fill="white"/>
</clipPath>
</defs>
</svg>
