<svg height="2284" viewBox="-49.56 -4.19 885.34 849.96" width="2500" xmlns="http://www.w3.org/2000/svg"><path d="m778.28 525.94c-70.78 208.19-297.63 319.83-506.68 249.36-209.06-70.48-321.16-296.38-250.39-504.57 57.6-169.45 218.58-274.92 389.22-270.32l-54.7 64.35c-101.22 18.23-188.63 87.07-222.98 188.13-51.11 150.36 34.56 315.1 191.35 367.96 156.79 52.85 325.33-26.18 376.45-176.54 34.24-100.73 7.09-207.9-61.7-283.58l-4.2-84.49c137.89 99.67 201.13 280.54 143.63 449.7zm-278.22-109.15c-37.83 36.9-84.3 33.53-114.52 23.34-30.23-10.2-69.2-35.62-76.74-87.82s26.58-94.61 26.58-94.61l74.35-92.07 43.3-52.59 37.17-45.83s17.06-22.75 21.92-27.44c.96-.94 1.95-1.55 2.92-2.02l.71-.35.12-.05c2.05-.88 4.4-1.07 6.67-.3 2.23.75 3.95 2.27 5.04 4.14l.23.37.2.42c.53.99.97 2.13 1.18 3.54.99 6.67.67 35.07.67 35.07l1.57 58.88 2.32 67.97 2.9 118.12s1.24 54.32-36.59 91.23z" fill="#1875f0"/></svg>