<svg width="36" height="36" viewBox="0 0 36 36" fill="none" xmlns="http://www.w3.org/2000/svg">
<path d="M18.2471 35.5058C28.0517 35.5058 36 27.5576 36 17.7529C36 7.94825 28.0517 0 18.2471 0C8.44239 0 0.494141 7.94825 0.494141 17.7529C0.494141 27.5576 8.44239 35.5058 18.2471 35.5058Z" fill="var(--color-quickstartslogo-main)"/>
<path d="M4.60457 23.11C4.50101 23.1116 4.39824 23.0917 4.30275 23.0516C4.20726 23.0115 4.12113 22.9521 4.04979 22.877C3.9765 22.8046 3.91858 22.7181 3.87949 22.6228C3.84041 22.5275 3.82097 22.4252 3.82233 22.3222C3.82159 22.2193 3.84132 22.1172 3.88037 22.022C3.91942 21.9267 3.97701 21.8402 4.04979 21.7674C4.12043 21.6911 4.2063 21.6304 4.30187 21.5893C4.39743 21.5482 4.50056 21.5276 4.60457 21.5289C4.70844 21.5286 4.81125 21.5496 4.90667 21.5907C5.00209 21.6317 5.08808 21.6919 5.15935 21.7674C5.23339 21.8396 5.29217 21.9258 5.3322 22.0211C5.37223 22.1164 5.39268 22.2188 5.39236 22.3222C5.39333 22.4257 5.37316 22.5282 5.33309 22.6236C5.29303 22.719 5.23391 22.8052 5.15935 22.877C5.08741 22.9513 5.00116 23.0102 4.90581 23.0503C4.81046 23.0903 4.70799 23.1106 4.60457 23.11Z" fill="var(--color-quickstartslogo-secondary)"/>
<path d="M15.6266 22.9715H14.1731L8.97478 14.905C8.84529 14.7063 8.73742 14.4943 8.653 14.2726H8.60862C8.65802 14.7332 8.67656 15.1965 8.6641 15.6595V22.9715H7.48242V12.8579H9.01916L14.0787 20.7801C14.2896 21.1093 14.4264 21.3349 14.4893 21.457H14.517C14.4585 20.9637 14.4344 20.4668 14.4449 19.9702V12.8579H15.6266V22.9715Z" fill="var(--color-quickstartslogo-secondary)"/>
<path d="M23.6258 22.9715H18.25V12.8579H23.3762V13.9286H19.4594V17.2906H23.1099V18.3558H19.4594V21.862H23.6314L23.6258 22.9715Z" fill="var(--color-quickstartslogo-secondary)"/>
<path d="M31.5681 13.9286H28.6278V22.9715H27.4461V13.9286H24.5391V12.8579H31.5681V13.9286Z" fill="var(--color-quickstartslogo-secondary)"/>
</svg>
