<svg width="36" height="36" viewBox="0 0 36 36" fill="none" xmlns="http://www.w3.org/2000/svg">
<path d="M15.8833 17.7707L15.8833 17.7706L15.8817 17.7723L15.8763 17.7777H1.36758L16.1596 2.22222H31.4604L15.8833 17.7707Z" fill="var(--color-quickstartslogo-main)" stroke="var(--color-quickstartslogo-secondary)" stroke-width="0.444445"/>
<mask id="path-2-inside-1_12904_45713" fill="var(--color-quickstartslogo-secondary)">
<path d="M16.0427 17.9282L15.972 18.0002H16.1147L16.0427 17.9282Z"/>
</mask>
<path d="M16.0427 17.9282L15.972 18.0002H16.1147L16.0427 17.9282Z" fill="#00AFFF"/>
<path d="M32 33.7779H0V34.2224H32V33.7779ZM16.0427 17.9282L16.3569 17.6139L16.0397 17.2967L15.7255 17.6169L16.0427 17.9282ZM15.972 18.0002L15.6548 17.6889L14.913 18.4447H15.972V18.0002ZM16.1147 18.0002V18.4447H17.1877L16.4289 17.6859L16.1147 18.0002ZM15.7255 17.6169L15.6548 17.6889L16.2892 18.3115L16.3599 18.2395L15.7255 17.6169ZM15.972 18.4447H16.1147V17.5558H15.972V18.4447ZM16.4289 17.6859L16.3569 17.6139L15.7284 18.2425L15.8004 18.3145L16.4289 17.6859Z" fill="var(--color-quickstartslogo-main)" mask="url(#path-2-inside-1_12904_45713)"/>
<path d="M0.222223 17.7777V2.22222H15.5487L0.756661 17.7777H0.222223Z" fill="var(--color-quickstartslogo-main)" stroke="var(--color-quickstartslogo-secondary)" stroke-width="0.444445"/>
<path d="M0.222223 18.9848L0.947341 18.2222H15.4362L0.222223 33.4628V18.9848Z" fill="var(--color-quickstartslogo-main)" stroke="var(--color-quickstartslogo-secondary)" stroke-width="0.444445"/>
<path d="M0.53583 33.7777L16.0431 18.2433L31.4662 33.7777H0.53583Z" fill="var(--color-quickstartslogo-main)" stroke="var(--color-quickstartslogo-secondary)" stroke-width="0.444445"/>
</svg>
