<svg width="36" height="36" viewBox="0 0 36 36" fill="none" xmlns="http://www.w3.org/2000/svg">
<path d="M16.8186 0.00968773C16.7412 0.0167248 16.4949 0.0413546 16.2733 0.0589474C11.1608 0.519877 6.37208 3.27842 3.3391 7.51826C1.6502 9.87569 0.570004 12.5498 0.161853 15.3822C0.0175927 16.3709 0 16.663 0 18.0035C0 19.3441 0.0175927 19.6361 0.161853 20.6248C1.14001 27.384 5.94986 33.0629 12.4732 35.167C13.6414 35.5435 14.8729 35.8003 16.2733 35.9551C16.8186 36.015 19.1761 36.015 19.7214 35.9551C22.1387 35.6877 24.1865 35.0896 26.2061 34.0586C26.5158 33.9003 26.5756 33.8581 26.5333 33.8229C26.5052 33.8018 25.1857 32.032 23.6024 29.8927L20.7242 26.0047L17.1177 20.6671C15.1333 17.7326 13.5007 15.3329 13.4866 15.3329C13.4725 15.3294 13.4584 17.7009 13.4514 20.5967C13.4408 25.6669 13.4373 25.871 13.374 25.9906C13.2825 26.163 13.2121 26.2334 13.0644 26.3108C12.9518 26.3671 12.8532 26.3777 12.3219 26.3777H11.7132L11.5514 26.2756C11.4458 26.2088 11.3684 26.1208 11.3156 26.0188L11.2418 25.8604L11.2488 18.8058L11.2593 11.7476L11.3684 11.6103C11.4247 11.5364 11.5443 11.4414 11.6288 11.3957C11.7731 11.3253 11.8293 11.3183 12.4381 11.3183C13.1558 11.3183 13.2755 11.3464 13.462 11.5505C13.5147 11.6068 15.4675 14.5483 17.8038 18.0915C20.1402 21.6347 23.335 26.4727 24.9043 28.8477L27.7543 33.1649L27.8985 33.0699C29.1758 32.2396 30.5269 31.0573 31.5965 29.8258C33.873 27.2116 35.3403 24.0238 35.8329 20.6248C35.9771 19.6361 35.9947 19.3441 35.9947 18.0035C35.9947 16.663 35.9771 16.3709 35.8329 15.3822C34.8547 8.62308 30.0449 2.94415 23.5215 0.840064C22.3709 0.467099 21.1465 0.210245 19.7742 0.0554288C19.4364 0.0202434 17.1107 -0.0184606 16.8186 0.00968773ZM24.1865 10.8961C24.3554 10.9805 24.4926 11.1424 24.5419 11.3113C24.57 11.4027 24.577 13.359 24.57 17.7678L24.5594 24.0941L23.4441 22.3841L22.3252 20.6741V16.0754C22.3252 13.1022 22.3392 11.4309 22.3604 11.35C22.4166 11.1529 22.5398 10.9981 22.7087 10.9066C22.8529 10.8327 22.9057 10.8257 23.4581 10.8257C23.9789 10.8257 24.0704 10.8327 24.1865 10.8961Z" fill="var(--color-quickstartslogo-main)"/>
</svg>
