<svg width="36" height="36" viewBox="0 0 36 36" fill="none" xmlns="http://www.w3.org/2000/svg">
<path d="M16.8603 0.384069C17.7529 -0.126869 18.9156 -0.129176 19.8074 0.384069C24.2943 2.9194 28.7827 5.45075 33.2688 7.98762C34.1126 8.46291 34.677 9.40196 34.6684 10.3742V25.6277C34.6747 26.6402 34.0545 27.6017 33.1643 28.0663C28.6921 30.5876 24.2223 33.112 19.7509 35.6334C18.8398 36.1543 17.6538 36.1142 16.7712 35.5506C15.4304 34.7733 14.0874 33.9999 12.7465 33.2235C12.4725 33.0601 12.1636 32.9301 11.9701 32.6644C12.1412 32.4339 12.447 32.4052 12.6955 32.3045C13.2551 32.1266 13.7691 31.8409 14.2833 31.5637C14.4133 31.4747 14.572 31.5088 14.6966 31.5885C15.8432 32.2458 16.9795 32.9223 18.1299 33.5734C18.3753 33.715 18.6238 33.5269 18.8335 33.41C23.2221 30.9297 27.616 28.4587 32.0038 25.9776C32.1664 25.8994 32.2563 25.7268 32.2431 25.5487C32.2461 20.5169 32.2438 15.4842 32.2446 10.4524C32.2632 10.2504 32.1463 10.0646 31.9636 9.98188C27.5069 7.47207 23.0526 4.95841 18.5967 2.44795C18.5195 2.39488 18.4281 2.3664 18.3344 2.36626C18.2407 2.36612 18.1491 2.39433 18.0718 2.44718C13.6159 4.95841 9.16235 7.47437 4.70648 9.98406C4.52442 10.0669 4.40223 10.2496 4.4239 10.4524C4.42466 15.4842 4.4239 20.5169 4.4239 25.5495C4.41617 25.6364 4.43525 25.7236 4.47858 25.7993C4.52191 25.875 4.58739 25.9356 4.66622 25.973C5.85529 26.6473 7.0459 27.3168 8.23574 27.9888C8.90605 28.3496 9.72907 28.564 10.4676 28.2876C11.1193 28.0538 11.5761 27.3888 11.5637 26.6968C11.5699 21.6943 11.5606 16.6911 11.5683 11.6895C11.552 11.4674 11.7627 11.2839 11.9786 11.3048C12.5499 11.301 13.122 11.2971 13.6934 11.3063C13.9318 11.301 14.096 11.5401 14.0665 11.7638C14.0642 16.7979 14.0726 21.8322 14.0626 26.8663C14.0642 28.2079 13.513 29.6678 12.272 30.3243C10.7431 31.1162 8.85348 30.9483 7.34311 30.1889C6.03556 29.5362 4.78777 28.7661 3.50344 28.0669C2.61093 27.6049 1.99383 26.6396 2.00011 25.6279V10.3742C1.99075 9.38183 2.57759 8.42573 3.44766 7.95736C7.91905 5.43396 12.3897 2.90863 16.8603 0.384069Z" fill="var(--color-quickstartslogo-main)"/>
<path d="M20.7616 10.9506C22.7117 10.8251 24.7995 10.8762 26.5544 11.837C27.9131 12.5732 28.6663 14.1183 28.6903 15.6278C28.6524 15.8314 28.4395 15.9437 28.2451 15.9297C27.6793 15.9289 27.1134 15.9374 26.5476 15.9259C26.3076 15.9351 26.1681 15.7138 26.1379 15.5016C25.9753 14.7794 25.5815 14.064 24.9017 13.7157C23.8581 13.1932 22.6482 13.2195 21.5102 13.2304C20.6795 13.2745 19.7863 13.3464 19.0825 13.8349C18.5422 14.205 18.3781 14.9519 18.5709 15.5535C18.7527 15.9855 19.2513 16.1249 19.6593 16.2533C22.0095 16.868 24.5 16.8068 26.8053 17.6157C27.7597 17.9455 28.6934 18.5866 29.0201 19.5859C29.4474 20.9252 29.2601 22.5261 28.3072 23.6013C27.5344 24.4862 26.409 24.9677 25.2864 25.2293C23.7931 25.5623 22.2434 25.5707 20.7268 25.4229C19.3008 25.2603 17.8169 24.8857 16.716 23.9141C15.7747 23.0967 15.3149 21.8231 15.3605 20.5939C15.3714 20.3863 15.5781 20.2416 15.777 20.2586C16.3467 20.254 16.9165 20.2525 17.4863 20.2594C17.7139 20.2431 17.8826 20.4398 17.8943 20.6543C17.9994 21.3424 18.2581 22.0647 18.8581 22.4727C20.0161 23.2198 21.4692 23.1686 22.7952 23.1895C23.8938 23.1408 25.1269 23.126 26.0234 22.4C26.4964 21.9858 26.6366 21.293 26.5087 20.6969C26.3703 20.1936 25.8438 19.9591 25.3917 19.8058C23.0717 19.0719 20.5534 19.3382 18.2557 18.5082C17.323 18.1786 16.421 17.5554 16.0626 16.5971C15.5626 15.2408 15.7917 13.5632 16.8445 12.5243C17.871 11.4909 19.3528 11.093 20.7616 10.9506Z" fill="var(--color-quickstartslogo-main)"/>
</svg>
