<svg width="36" height="36" viewBox="0 0 36 36" fill="none" xmlns="http://www.w3.org/2000/svg">
<path fill-rule="evenodd" clip-rule="evenodd" d="M27.72 14.429C27.72 15.3968 26.5449 15.8761 25.868 15.1843L12.0101 1.02066C13.8839 0.359628 15.9 0 18 0C21.5803 0 24.9165 1.04532 27.72 2.84741V14.429ZM32.76 7.69473V14.429C32.76 19.9135 26.1012 22.6293 22.2656 18.709L7.36298 3.47768C2.8984 6.75335 0 12.0382 0 18C0 21.8329 1.19801 25.386 3.24 28.3053V21.607C3.24 16.1225 9.89879 13.4067 13.7344 17.327L28.6165 32.5373C33.0927 29.2628 36 23.9709 36 18C36 14.1671 34.802 10.614 32.76 7.69473ZM10.132 20.8517L23.9637 34.9886C22.0973 35.6437 20.0902 36 18 36C14.4197 36 11.0835 34.9547 8.28 33.1526V21.607C8.28 20.6392 9.45508 20.1599 10.132 20.8517Z" fill="var(--color-quickstartslogo-main)"/>
</svg>
