<svg width="50" height="36" viewBox="0 0 50 36" fill="none" xmlns="http://www.w3.org/2000/svg">
<path d="M24.9361 31C38.7079 31 49.8722 25.1797 49.8722 18C49.8722 10.8203 38.7079 5 24.9361 5C11.1643 5 0 10.8203 0 18C0 25.1797 11.1643 31 24.9361 31Z" fill="var(--color-quickstartslogo-main)"/>
<path fill-rule="evenodd" clip-rule="evenodd" d="M7.00391 25.6973L9.73675 11.8419H16.0559C18.7886 12.013 20.155 13.3813 20.155 15.7763C20.155 19.8815 16.91 22.2763 14.0063 22.1052H10.9323L10.2491 25.6973H7.00391ZM11.6153 19.5395L12.4694 14.4078H14.6897C15.8852 14.4078 16.7391 14.9209 16.7391 15.9472C16.5685 18.8553 15.202 19.3684 13.665 19.5395H11.6153ZM19.5201 22.1052L22.2527 8.25H25.4979L24.8147 11.8419H27.8889C30.6217 12.013 31.6464 13.3813 31.3049 15.092L30.1093 22.1052H26.6935L27.8891 15.7763C28.0597 14.9209 28.0597 14.4078 26.8643 14.4078H24.3023L22.7653 22.1052H19.5201ZM29.8906 25.6973L32.6232 11.8419H38.9426C41.6754 12.013 43.0418 13.3813 43.0418 15.7763C43.0418 19.8815 39.7966 22.2763 36.8931 22.1052H33.8188L33.1356 25.6973H29.8906ZM34.5018 19.5395L35.3559 14.4078H37.5763C38.7719 14.4078 39.6258 14.9209 39.6258 15.9472C39.4551 18.8553 38.0887 19.3684 36.5516 19.5395H34.502H34.5018Z" fill="var(--color-quickstartslogo-secondary)"/>
</svg>
