<svg width="36" height="36" viewBox="0 0 36 36" fill="none" xmlns="http://www.w3.org/2000/svg">
<path d="M36 18.0334C36 15.6486 33.0135 13.3885 28.4346 11.987C29.4912 7.32002 29.0216 3.60701 26.9523 2.41826C26.4753 2.13942 25.9177 2.00734 25.3086 2.00734V3.6437C25.6461 3.6437 25.9177 3.70974 26.1451 3.83449C27.1431 4.40685 27.576 6.58622 27.2385 9.38932C27.1578 10.0791 27.0257 10.8055 26.8642 11.5467C25.426 11.1945 23.8557 10.9229 22.2046 10.7468C21.214 9.38932 20.1867 8.15654 19.1521 7.07786C21.5442 4.85446 23.7896 3.63636 25.3159 3.63636V2C23.298 2 20.6563 3.43824 17.9853 5.93314C15.3143 3.45291 12.6726 2.02935 10.6547 2.02935V3.66571C12.1737 3.66571 14.4264 4.87648 16.8186 7.0852C15.7913 8.16388 14.764 9.38932 13.788 10.7468C12.1296 10.9229 10.5593 11.1945 9.12108 11.554C8.9523 10.8202 8.82756 10.1084 8.7395 9.42601C8.39462 6.62291 8.82022 4.44354 9.81084 3.86384C10.031 3.73176 10.3172 3.67305 10.6547 3.67305V2.03669C10.0383 2.03669 9.48064 2.16877 8.99633 2.44761C6.93437 3.63636 6.47207 7.34203 7.53608 11.9943C2.97187 13.4032 0 15.6559 0 18.0334C0 20.4183 2.98655 22.6783 7.56543 24.0799C6.50876 28.7468 6.97839 32.4598 9.0477 33.6486C9.52466 33.9274 10.0823 34.0595 10.6987 34.0595C12.7167 34.0595 15.3583 32.6213 18.0294 30.1264C20.7004 32.6066 23.342 34.0302 25.36 34.0302C25.9764 34.0302 26.534 33.8981 27.0183 33.6192C29.0803 32.4305 29.5426 28.7248 28.4786 24.0726C33.0281 22.671 36 20.4109 36 18.0334ZM26.446 13.139C26.1745 14.0856 25.8369 15.0616 25.4554 16.0375C25.1545 15.4505 24.839 14.8634 24.4941 14.2764C24.1565 13.6894 23.797 13.117 23.4374 12.5593C24.4794 12.7134 25.4847 12.9042 26.446 13.139ZM23.0852 20.9539C22.5128 21.9446 21.9258 22.8838 21.3168 23.757C20.2234 23.8524 19.1154 23.9038 18 23.9038C16.892 23.9038 15.7839 23.8524 14.6979 23.7644C14.0889 22.8911 13.4945 21.9592 12.9221 20.9759C12.3645 20.0147 11.8581 19.0387 11.3958 18.0554C11.8508 17.0722 12.3645 16.0889 12.9148 15.1276C13.4872 14.137 14.0742 13.1977 14.6832 12.3245C15.7766 12.2291 16.8846 12.1777 18 12.1777C19.108 12.1777 20.2161 12.2291 21.3021 12.3172C21.9111 13.1904 22.5055 14.1223 23.0779 15.1056C23.6355 16.0669 24.1419 17.0428 24.6042 18.0261C24.1419 19.0094 23.6355 19.9927 23.0852 20.9539ZM25.4554 20C25.8516 20.9833 26.1892 21.9666 26.468 22.9205C25.5067 23.1553 24.4941 23.3534 23.4448 23.5075C23.8043 22.9425 24.1639 22.3628 24.5014 21.7684C24.839 21.1814 25.1545 20.587 25.4554 20ZM18.0147 27.8296C17.3322 27.1251 16.6498 26.34 15.9747 25.4814C16.6351 25.5108 17.3102 25.5328 17.9927 25.5328C18.6824 25.5328 19.3649 25.5181 20.0326 25.4814C19.3722 26.34 18.6898 27.1251 18.0147 27.8296ZM12.5552 23.5075C11.5132 23.3534 10.5079 23.1627 9.54668 22.9278C9.81818 21.9812 10.1557 21.0053 10.5373 20.0293C10.8382 20.6164 11.1537 21.2034 11.4986 21.7905C11.8435 22.3775 12.1957 22.9499 12.5552 23.5075ZM17.978 8.23726C18.6604 8.9417 19.3428 9.72686 20.0179 10.5854C19.3575 10.5561 18.6824 10.534 18 10.534C17.3102 10.534 16.6278 10.5487 15.9601 10.5854C16.6205 9.72686 17.3029 8.9417 17.978 8.23726ZM12.5479 12.5593C12.1883 13.1243 11.8288 13.704 11.4912 14.2984C11.1537 14.8854 10.8382 15.4725 10.5373 16.0595C10.1411 15.0762 9.80351 14.0929 9.52466 13.139C10.4859 12.9115 11.4986 12.7134 12.5479 12.5593ZM5.90705 21.7464C3.30942 20.6384 1.62903 19.1855 1.62903 18.0334C1.62903 16.8814 3.30942 15.4211 5.90705 14.3204C6.53812 14.0489 7.22788 13.8068 7.93967 13.5793C8.35793 15.0175 8.90828 16.5145 9.59071 18.0481C8.91561 19.5744 8.37261 21.064 7.96168 22.4949C7.23522 22.2674 6.54546 22.0179 5.90705 21.7464ZM9.85487 32.2324C8.85691 31.66 8.42397 29.4806 8.76152 26.6775C8.84224 25.9878 8.97432 25.2613 9.13575 24.5202C10.574 24.8724 12.1443 25.1439 13.7954 25.32C14.786 26.6775 15.8133 27.9103 16.8479 28.989C14.4558 31.2124 12.2104 32.4305 10.6841 32.4305C10.3539 32.4231 10.075 32.3571 9.85487 32.2324ZM27.2605 26.6408C27.6054 29.4439 27.1798 31.6233 26.1892 32.203C25.969 32.3351 25.6828 32.3938 25.3453 32.3938C23.8263 32.3938 21.5736 31.183 19.1814 28.9743C20.2087 27.8956 21.236 26.6702 22.212 25.3127C23.8704 25.1366 25.4407 24.8651 26.8789 24.5055C27.0477 25.2466 27.1798 25.9584 27.2605 26.6408ZM30.0856 21.7464C29.4545 22.0179 28.7648 22.2601 28.053 22.4876C27.6347 21.0493 27.0844 19.5524 26.402 18.0187C27.077 16.4925 27.6201 15.0029 28.031 13.5719C28.7574 13.7994 29.4472 14.0489 30.0929 14.3204C32.6906 15.4285 34.371 16.8814 34.371 18.0334C34.3636 19.1855 32.6832 20.6457 30.0856 21.7464Z" fill="var(--color-quickstartslogo-main)"/>
<path d="M17.9921 21.3866C19.8442 21.3866 21.3456 19.8852 21.3456 18.0331C21.3456 16.1811 19.8442 14.6797 17.9921 14.6797C16.1401 14.6797 14.6387 16.1811 14.6387 18.0331C14.6387 19.8852 16.1401 21.3866 17.9921 21.3866Z" fill="var(--color-quickstartslogo-main)"/>
</svg>
