<svg width="36" height="36" viewBox="0 0 36 36" fill="none" xmlns="http://www.w3.org/2000/svg">
<path d="M24.2584 21.1211C19.7099 24.0523 15.203 26.957 10.577 29.9375C17.5047 30.8835 24.3088 31.8122 31.2477 32.7595C28.884 28.8233 26.5809 24.9884 24.2584 21.1211ZM33.2037 8.1505C32.5929 9.06724 31.981 9.98363 31.3712 10.9011C29.2765 14.0523 27.1825 17.2031 25.0903 20.3554C24.9738 20.5314 24.8227 20.6708 24.9868 20.9412C27.009 24.2797 29.0146 27.6288 31.0252 30.9739C31.3424 31.5024 31.6634 32.0287 32.0739 32.5356L33.2931 8.17691L33.2037 8.1505ZM5.60359 18.5599C5.69829 18.6497 5.93452 18.7015 6.04401 18.6476C7.98345 17.6942 9.93522 16.7624 11.8324 15.7305C12.4506 15.3946 12.9259 14.7916 13.4592 14.3029C15.2241 12.6846 16.9857 11.0627 18.7474 9.44042C18.8555 9.34079 18.9826 9.24468 19.0474 9.11899C19.68 7.88224 20.3014 6.63985 20.9453 5.36085C20.1774 5.07323 19.4497 4.79053 18.7133 4.53353C18.6133 4.49868 18.4563 4.56803 18.3471 4.62859C16.6421 5.58124 14.9051 6.48284 13.254 7.52174C12.4277 8.04137 11.7546 8.80708 11.0231 9.47456C9.84475 10.5504 8.66714 11.6288 7.50537 12.7236C7.19697 13.0141 6.91604 13.3461 6.67629 13.6953C5.88136 14.8521 5.11107 16.0255 4.30452 17.2327C4.75585 17.6995 5.16529 18.1452 5.60359 18.5599ZM12.6914 16.9782C11.7272 21.0539 10.7675 25.1063 9.7768 29.2922C14.4235 26.2984 18.9629 23.3735 23.4719 20.4681C19.8835 19.3063 16.3063 18.1484 12.6914 16.9782ZM20.3792 10.134L24.3292 19.7421C26.9076 15.8692 29.4346 12.0727 32.019 8.18958C28.0933 8.84545 24.2612 9.48548 20.3792 10.134ZM12.8534 16.1445C16.3887 17.2926 19.8539 18.4174 23.4191 19.5745C22.0951 16.3487 20.8164 13.2359 19.511 10.0569L12.8534 16.1445ZM5.74969 20.9366L2.05175 29.7763C4.42141 29.7062 6.71889 29.6383 9.09453 29.5682C7.97923 26.6898 6.88576 23.8678 5.74969 20.9366ZM9.17831 27.5182L9.26562 27.4992C10.1109 23.9829 10.9688 20.4909 11.8324 16.8377C9.90671 17.8382 8.06971 18.793 6.18201 19.7742C7.14487 22.2779 8.17215 24.9183 9.17831 27.5182ZM30.5978 7.61961C29.473 7.32177 28.3492 7.02253 27.2234 6.72681C25.6064 6.30188 23.988 5.88153 22.3718 5.45238C22.17 5.39887 22.0236 5.36402 21.9049 5.60729C21.3339 6.7775 20.7446 7.93927 20.1644 9.10491C20.1465 9.14117 20.15 9.18835 20.1362 9.27812C23.6384 8.74758 27.1174 8.22021 30.5957 7.69319L30.5978 7.61961ZM24.0736 4.9574C27.0938 5.79317 30.1141 6.62859 33.2399 7.49322L31.7254 3.17779C29.1589 3.74705 26.6231 4.30928 24.0873 4.8715L24.0736 4.9574ZM26.8484 32.8954L19.3283 31.8689C16.2045 31.4425 13.0864 30.9732 9.95564 30.6124C8.82028 30.4818 7.65464 30.6022 6.50343 30.6215C5.55747 30.6377 4.61151 30.6736 3.6659 30.7036C3.56839 30.7064 3.47122 30.7261 3.37441 30.8307C11.1935 31.5538 19.0132 32.2765 26.8319 33L26.8484 32.8954ZM2.20595 27.0782C3.21422 24.7402 4.21686 22.4005 5.22866 20.0646C5.33005 19.8298 5.32265 19.671 5.12445 19.4827C4.70093 19.0796 4.30804 18.6455 3.8451 18.1646L2 27.2725L2.06795 27.3049C2.11477 27.2295 2.17145 27.1591 2.20595 27.0782ZM22.0658 4.34026C23.7652 3.9016 25.4892 3.55941 27.203 3.17673C27.3135 3.15173 27.4219 3.11512 27.5311 3.08379L27.5145 3L20.151 3.99032C20.8428 4.29273 21.3755 4.51839 22.0658 4.34026Z" fill="var(--color-quickstartslogo-main)"/>
</svg>
