<svg width="36" height="36" viewBox="0 0 36 36" fill="none" xmlns="http://www.w3.org/2000/svg">
<rect width="36" height="36" rx="2" fill="var(--color-quickstartslogo-main)"/>
<path d="M25.9012 15.0779C26.8718 15.0779 27.7434 15.2117 28.5589 15.6207C29.4657 16.0766 30.1128 16.7972 30.6218 17.6603C30.6761 17.7511 30.6456 17.7864 30.5705 17.8342C29.768 18.3484 28.9677 18.8651 28.1697 19.3844C28.0745 19.4475 28.0489 19.4064 28.006 19.3328C27.8259 18.9941 27.5819 18.6939 27.2876 18.4488C27.0031 18.2167 26.6619 18.0654 26.2995 18.0104C25.9371 17.9555 25.5666 17.9989 25.2266 18.1362C24.1846 18.5252 24.0019 19.9292 24.8793 20.6498C25.2351 20.9423 25.6452 21.1382 26.0611 21.3265C27.025 21.7632 28.0184 22.1379 28.9357 22.674C29.6018 23.0649 30.226 23.5122 30.7151 24.1239C31.4516 25.0452 31.6876 26.1185 31.6476 27.2701C31.5791 29.2179 30.5733 30.6792 28.7311 31.3224C26.4674 32.1138 24.2493 31.9618 22.1607 30.7175C21.2643 30.1832 20.6001 29.411 20.0987 28.4944C20.0321 28.3721 20.0587 28.3262 20.1681 28.2632C20.982 27.7968 21.7931 27.3253 22.6012 26.8487C22.7211 26.7779 22.7735 26.7875 22.8486 26.9079C23.2521 27.553 23.7422 28.1207 24.4425 28.4505C24.8766 28.6659 25.3505 28.7885 25.8342 28.8104C26.3179 28.8323 26.8008 28.753 27.2524 28.5776C27.8034 28.3683 28.204 27.9841 28.2867 27.3657C28.3819 26.7091 28.1297 26.1921 27.595 25.8088C27.3831 25.6606 27.1605 25.5287 26.9289 25.4141C26.3028 25.1006 25.6548 24.8407 25.0144 24.5597C24.1275 24.1717 23.2683 23.7368 22.5403 23.084C21.6192 22.2621 21.1473 21.228 21.054 19.9999C20.9703 18.9075 21.1692 17.8906 21.8067 16.9884C22.5394 15.9505 23.5756 15.4038 24.7974 15.1725C25.1612 15.1035 25.531 15.0718 25.9012 15.0779Z" fill="var(--color-quickstartslogo-secondary)"/>
<path d="M18.2279 21.4309C18.2279 23.1869 18.2279 24.9432 18.2279 26.6999C18.2418 27.3972 18.1454 28.0924 17.9424 28.7595C17.4752 30.1998 16.5151 31.1431 15.0611 31.5368C13.5092 31.9564 11.9762 31.8971 10.5156 31.1641C9.49935 30.6547 8.78569 29.8385 8.27947 28.8283C8.22999 28.7279 8.25377 28.6868 8.33846 28.6371C9.17709 28.1306 10.0138 27.6209 10.8486 27.108C10.939 27.0525 10.9714 27.0774 11.0161 27.1586C11.1868 27.4774 11.3845 27.7809 11.607 28.0656C12.2645 28.8933 13.3027 28.9105 14.0335 28.6046C14.5273 28.3982 14.7205 27.9519 14.8166 27.4578C14.8638 27.1954 14.8855 26.9291 14.8813 26.6626C14.8813 22.9448 14.8794 19.2267 14.8756 15.5083C14.8756 15.2932 14.9365 15.255 15.1344 15.2569C16.0936 15.2671 17.0531 15.2671 18.0129 15.2569C18.1955 15.2569 18.2374 15.3056 18.2374 15.4834C18.226 17.4666 18.2279 19.4487 18.2279 21.4309Z" fill="var(--color-quickstartslogo-secondary)"/>
</svg>
