<svg width="16" height="16" viewBox="0 0 16 16" fill="none" xmlns="http://www.w3.org/2000/svg">
<path fill-rule="evenodd" clip-rule="evenodd" d="M13.8934 0H2.10668C0.941337 0 0 0.942004 0 2.10134V13.8941C0 15.0587 0.94667 16 2.10668 16H13.8934C15.0581 16 16 15.0541 16 13.8941V2.10668C16 0.942003 15.0534 0 13.8934 0ZM9.73133 2.94405V3.49271C9.73133 3.55605 9.67333 3.59938 9.61467 3.58472C9.17267 3.46338 8.71532 3.40072 8.25333 3.40072C7.77653 3.40024 7.30206 3.46712 6.84399 3.59938C6.78065 3.61405 6.72265 3.57005 6.72265 3.50739V2.94405C6.7228 2.75992 6.79605 2.58337 6.92632 2.45323C7.05658 2.32309 7.23319 2.25001 7.41732 2.25005H9.03667C9.2208 2.25001 9.39741 2.32309 9.52768 2.45323C9.65793 2.58337 9.73119 2.75992 9.73133 2.94405ZM5.01664 3.93406L5.29332 4.21072C5.33198 4.25472 5.32718 4.32272 5.27865 4.35206C5.05552 4.5124 4.84593 4.69078 4.65199 4.88539C4.45965 5.07861 4.28245 5.28633 4.12197 5.50672C4.08331 5.55006 4.01998 5.56006 3.97598 5.51673L3.70398 5.24473C3.63933 5.18048 3.58803 5.10408 3.55302 5.01993C3.51801 4.93577 3.5 4.84553 3.5 4.75439C3.5 4.66325 3.51801 4.573 3.55302 4.48885C3.58803 4.40471 3.63933 4.3283 3.70398 4.26405L4.03464 3.93406C4.09911 3.86955 4.17564 3.81837 4.25989 3.78346C4.34414 3.74854 4.43445 3.73057 4.52564 3.73057C4.61684 3.73057 4.70714 3.74854 4.79139 3.78346C4.87564 3.81837 4.95218 3.86955 5.01664 3.93406ZM8.24852 8.32607V5.95273C8.24852 5.8994 8.29719 5.86072 8.34586 5.86072C9.28387 5.89473 10.0959 6.41873 10.5332 7.18607C10.5572 7.23407 10.5425 7.29273 10.4945 7.31674L8.38453 8.40873C8.32187 8.44274 8.24852 8.39407 8.24852 8.32607ZM5.05985 8.48607C5.05985 10.2428 6.48919 11.6701 8.24852 11.6701C10.0133 11.6701 11.4373 10.2428 11.4373 8.48607C11.4373 6.7294 10.0085 5.30273 8.24852 5.30273C6.48919 5.30273 5.05985 6.7294 5.05985 8.48607ZM3.72318 8.48607C3.72318 5.98739 5.74985 3.96339 8.24852 3.96339C10.7519 3.96339 12.7739 5.98206 12.7739 8.4814C12.7739 10.9807 10.7472 13.0048 8.24852 13.0048C5.74985 13.0048 3.72318 10.9854 3.72318 8.48607Z" fill="#F5F5F5"/>
</svg>
