<svg width="21" height="22" viewBox="0 0 21 22" fill="none" xmlns="http://www.w3.org/2000/svg">
<path fill-rule="evenodd" clip-rule="evenodd" d="M18.6868 11C18.6837 11.4464 18.6445 11.8918 18.5695 12.3319L20.4936 14.19C20.6406 14.3321 20.7359 14.5193 20.7643 14.7217C20.7927 14.9242 20.7526 15.1304 20.6503 15.3074L19.2753 17.6907C19.1948 17.8302 19.0789 17.946 18.9394 18.0265C18.7999 18.107 18.6416 18.1492 18.4806 18.1491C18.3954 18.1487 18.3106 18.137 18.2285 18.1142L15.6618 17.3809C14.968 17.9466 14.1869 18.3958 13.3491 18.711L12.701 21.3052C12.6515 21.5036 12.5371 21.6797 12.376 21.8056C12.2149 21.9315 12.0163 21.9999 11.8118 22H9.06184C8.85796 21.9994 8.6601 21.9308 8.49957 21.8051C8.33903 21.6795 8.22497 21.5039 8.17542 21.3061L7.52734 18.7119C6.6882 18.3971 5.90584 17.9479 5.21092 17.3818L2.64426 18.1152C2.56215 18.1379 2.47738 18.1496 2.39218 18.15C2.23112 18.1502 2.07286 18.1079 1.93334 18.0274C1.79381 17.947 1.67796 17.8311 1.59743 17.6917L0.222426 15.3083C0.120427 15.1314 0.080455 14.9254 0.108853 14.7231C0.13725 14.5209 0.232391 14.3339 0.379176 14.1918L2.30418 12.3319C2.22922 11.8918 2.18998 11.4464 2.18684 11C2.19003 10.5539 2.22927 10.1088 2.30418 9.669L0.379176 7.80908C0.232176 7.66698 0.136901 7.47982 0.108499 7.27735C0.0800967 7.07488 0.120198 6.86873 0.222426 6.69167L1.59743 4.30833C1.70095 4.13214 1.85985 3.99514 2.04937 3.9187C2.23889 3.84227 2.44838 3.83068 2.64518 3.88575L5.21184 4.61908C5.90565 4.05341 6.68674 3.6042 7.52459 3.289L8.17267 0.694833C8.22216 0.496437 8.33655 0.320281 8.49767 0.194379C8.65878 0.0684763 8.85737 5.64877e-05 9.06184 0H11.8118C12.0163 5.64877e-05 12.2149 0.0684763 12.376 0.194379C12.5371 0.320281 12.6515 0.496437 12.701 0.694833L13.3454 3.289C14.1846 3.60384 14.9669 4.05307 15.6618 4.61908L18.2285 3.88575C18.4253 3.83052 18.6348 3.84203 18.8244 3.91848C19.014 3.99494 19.1728 4.13203 19.2763 4.30833L20.6513 6.69167C20.7533 6.86863 20.7932 7.07459 20.7648 7.27687C20.7364 7.47914 20.6413 7.66613 20.4945 7.80817L18.5695 9.66808C18.6445 10.1082 18.6837 10.5536 18.6868 11ZM10.44 14.85C12.5663 14.85 14.29 13.1263 14.29 11C14.29 8.8737 12.5663 7.15 10.44 7.15C8.31374 7.15 6.59004 8.8737 6.59004 11C6.59004 13.1263 8.31374 14.85 10.44 14.85Z" fill="#333333"/>
</svg>