<svg width="28" height="20" viewBox="0 0 28 20" fill="none" xmlns="http://www.w3.org/2000/svg">
<path d="M22.9214 1.675C21.1698 0.8925 19.297 0.323815 17.339 0C17.0985 0.415119 16.8175 0.973462 16.6239 1.41762C14.5424 1.11874 12.4801 1.11874 10.437 1.41762C10.2433 0.973462 9.95602 0.415119 9.7134 0C7.75326 0.323815 5.87825 0.894589 4.12669 1.67914C0.593764 6.77669 -0.363954 11.7476 0.114906 16.648C2.45813 18.3188 4.72899 19.3338 6.96153 19.9979C7.51276 19.2736 8.00438 18.5035 8.42789 17.692C7.62129 17.3994 6.84873 17.0382 6.11876 16.6189C6.31242 16.482 6.50185 16.3387 6.68486 16.1914C11.1372 18.1798 15.9747 18.1798 20.3739 16.1914C20.559 16.3387 20.7484 16.482 20.94 16.6189C20.2078 17.0403 19.4332 17.4014 18.6266 17.6941C19.0501 18.5035 19.5396 19.2757 20.0929 20C22.3276 19.3358 24.6006 18.3209 26.9438 16.648C27.5057 10.9672 25.984 6.04194 22.9214 1.675ZM9.03446 13.6343C7.69792 13.6343 6.60185 12.4429 6.60185 10.9921C6.60185 9.54132 7.67452 8.34788 9.03446 8.34788C10.3944 8.34788 11.4905 9.53923 11.4671 10.9921C11.4692 12.4429 10.3944 13.6343 9.03446 13.6343ZM18.0243 13.6343C16.6877 13.6343 15.5917 12.4429 15.5917 10.9921C15.5917 9.54132 16.6643 8.34788 18.0243 8.34788C19.3842 8.34788 20.4803 9.53923 20.4569 10.9921C20.4569 12.4429 19.3842 13.6343 18.0243 13.6343Z" fill="white"/>
</svg>
