<svg width="21" height="20" viewBox="0 0 21 20" fill="none" xmlns="http://www.w3.org/2000/svg">
<path fill-rule="evenodd" clip-rule="evenodd" d="M10.2352 0.0376955C7.80542 0.0352238 5.45417 0.898855 3.6028 2.47383C1.75144 4.0488 0.520973 6.23216 0.131934 8.63264C-0.257106 11.0331 0.220706 13.4938 1.47973 15.5737C2.73876 17.6536 4.69671 19.2168 7.0027 19.9832C7.51112 20.0774 7.69942 19.757 7.69942 19.4869C7.69942 19.2168 7.69942 18.6011 7.69942 17.7468C4.85606 18.375 4.25349 16.3773 4.25349 16.3773C4.06403 15.7581 3.66152 15.2262 3.1174 14.8759C2.19472 14.2477 3.19272 14.2477 3.19272 14.2477C3.51616 14.2934 3.82496 14.4122 4.09574 14.595C4.36652 14.7779 4.59218 15.02 4.75563 15.3031C4.89451 15.5551 5.08174 15.7772 5.3066 15.9566C5.53145 16.1361 5.7895 16.2693 6.06592 16.3487C6.34235 16.4281 6.63171 16.452 6.91741 16.4192C7.20312 16.3864 7.47953 16.2974 7.73079 16.1574C7.77019 15.6406 7.9928 15.1549 8.35847 14.7879C6.08629 14.5304 3.70113 13.6509 3.70113 9.73089C3.68553 8.71507 4.06084 7.73215 4.74935 6.98563C4.44208 6.10249 4.47793 5.13599 4.84978 4.27807C4.84978 4.27807 5.70969 4.00166 7.66175 5.32717C9.338 4.86655 11.1073 4.86655 12.7836 5.32717C14.7356 4.00166 15.5893 4.27807 15.5893 4.27807C15.965 5.13477 16.0031 6.10198 15.696 6.98563C16.3845 7.73215 16.7598 8.71507 16.7442 9.73089C16.7442 13.6634 14.3527 14.5241 12.0743 14.7565C12.3186 15.0023 12.5073 15.2978 12.6275 15.623C12.7477 15.9481 12.7966 16.2954 12.771 16.6411C12.771 18.0106 12.771 19.1163 12.771 19.4492C12.771 19.7822 12.953 20.0397 13.474 19.9455C15.7727 19.1719 17.7222 17.6062 18.9746 15.5277C20.227 13.4491 20.701 10.9929 20.3119 8.5971C19.9229 6.20129 18.6961 4.02168 16.8505 2.44706C15.0049 0.872436 12.6604 0.00518787 10.2352 0V0.0376955Z" fill="#333333"/>
</svg>
