<svg width="102" height="32" viewBox="0 0 102 32" fill="none" xmlns="http://www.w3.org/2000/svg">
<path d="M51.6236 22.5805V15.1873C51.6236 13.9114 51.3177 12.9413 50.7058 12.2772C50.094 11.613 49.1325 11.2809 47.8214 11.2809C46.9298 11.2809 46.2218 11.3683 45.6974 11.5431C45.1729 11.7004 44.8408 11.814 44.7009 11.8839V22.5805H42V10.1536C42.0699 10.1186 42.2622 10.0399 42.5769 9.9176C42.8916 9.79526 43.3111 9.66417 43.8356 9.52434C44.36 9.38452 44.9719 9.26217 45.6711 9.1573C46.3704 9.05243 47.1396 9 47.9787 9C48.9402 9 49.8143 9.13109 50.6009 9.39326C51.3876 9.63795 52.0519 9.99625 52.5938 10.4682C53.1532 10.9401 53.5815 11.5081 53.8787 12.1723C54.1759 12.8365 54.3245 13.588 54.3245 14.427V22.5805H51.6236Z" fill="black"/>
<path d="M71.8886 16C71.8886 16.9963 71.7137 17.9226 71.3641 18.779C71.032 19.6355 70.56 20.3783 69.9481 21.0075C69.3362 21.6192 68.602 22.1086 67.7454 22.4757C66.8888 22.8252 65.9448 23 64.9134 23C63.882 23 62.9293 22.8252 62.0552 22.4757C61.1986 22.1086 60.4644 21.6192 59.8525 21.0075C59.2406 20.3783 58.7599 19.6355 58.4103 18.779C58.0781 17.9226 57.912 16.9963 57.912 16C57.912 15.0037 58.0781 14.0774 58.4103 13.221C58.7599 12.3645 59.2406 11.6305 59.8525 11.0187C60.4644 10.3895 61.1986 9.90012 62.0552 9.55056C62.9293 9.18352 63.882 9 64.9134 9C65.9448 9 66.8888 9.18352 67.7454 9.55056C68.602 9.90012 69.3362 10.3895 69.9481 11.0187C70.56 11.6305 71.032 12.3645 71.3641 13.221C71.7137 14.0774 71.8886 15.0037 71.8886 16ZM69.0828 16C69.0828 15.3009 68.9866 14.6629 68.7943 14.0861C68.602 13.4919 68.3223 12.985 67.9552 12.5655C67.6056 12.1286 67.1685 11.7965 66.6441 11.5693C66.1371 11.3246 65.5602 11.2022 64.9134 11.2022C64.2491 11.2022 63.6547 11.3246 63.1303 11.5693C62.6233 11.7965 62.1863 12.1286 61.8192 12.5655C61.4695 12.985 61.1986 13.4919 61.0063 14.0861C60.814 14.6629 60.7178 15.3009 60.7178 16C60.7178 16.6991 60.814 17.3458 61.0063 17.9401C61.1986 18.5169 61.4695 19.0237 61.8192 19.4607C62.1863 19.8801 62.6233 20.2122 63.1303 20.4569C63.6547 20.6841 64.2491 20.7978 64.9134 20.7978C65.5602 20.7978 66.1371 20.6841 66.6441 20.4569C67.1685 20.2122 67.6056 19.8801 67.9552 19.4607C68.3223 19.0237 68.602 18.5169 68.7943 17.9401C68.9866 17.3458 69.0828 16.6991 69.0828 16Z" fill="black"/>
<path d="M87.5834 9.99625C87.4786 10.3808 87.295 10.8964 87.0328 11.5431C86.788 12.1723 86.4996 12.8801 86.1674 13.6667C85.8353 14.4532 85.4682 15.2834 85.0661 16.1573C84.6815 17.0137 84.2882 17.8527 83.8861 18.6742C83.5015 19.4782 83.1256 20.2385 82.7585 20.9551C82.4089 21.6542 82.103 22.2397 81.8408 22.7116H79.035C78.7203 22.1523 78.3881 21.5406 78.0385 20.8764C77.7064 20.1948 77.3655 19.5131 77.0158 18.8315C76.6837 18.1323 76.3603 17.4419 76.0456 16.7603C75.7309 16.0786 75.4338 15.4494 75.1541 14.8727C74.8918 14.2784 74.6558 13.7541 74.446 13.2996C74.2538 12.8452 74.1052 12.4956 74.0003 12.2509C73.8954 12.0062 73.7905 11.7441 73.6856 11.4644C73.5807 11.1848 73.5283 10.9226 73.5283 10.6779C73.5283 10.3633 73.6332 10.0749 73.8429 9.81273C74.0527 9.55056 74.4111 9.41947 74.9181 9.41947C75.2677 9.41947 75.5387 9.45443 75.7309 9.52434C75.9232 9.59426 76.0281 9.63795 76.0456 9.65543C76.3428 10.4769 76.6837 11.377 77.0683 12.3558C77.4704 13.3346 77.8724 14.3046 78.2745 15.2659C78.6941 16.2097 79.0961 17.1186 79.4807 17.9925C79.8653 18.8489 80.2062 19.5743 80.5034 20.1685C80.7132 19.7665 80.9842 19.1985 81.3163 18.4644C81.6659 17.7129 82.0243 16.8914 82.3914 16C82.776 15.1086 83.1606 14.191 83.5452 13.2472C83.9298 12.3034 84.2707 11.4382 84.5679 10.6517C84.7077 10.2672 84.8825 9.97004 85.0923 9.7603C85.3021 9.53308 85.6517 9.41947 86.1412 9.41947C86.5608 9.41947 86.8929 9.49813 87.1377 9.65543C87.3999 9.81273 87.5485 9.92634 87.5834 9.99625Z" fill="black"/>
<path d="M99.2991 10.6517C99.2991 10.2322 99.4215 9.92634 99.6662 9.73408C99.9109 9.52434 100.261 9.41947 100.715 9.41947C101.012 9.41947 101.275 9.45443 101.502 9.52434C101.747 9.59426 101.913 9.64669 102 9.68165V22.5805C101.878 22.6155 101.659 22.6504 101.344 22.6854C101.047 22.7203 100.68 22.7553 100.243 22.7903C99.8061 22.8427 99.3253 22.8777 98.8009 22.8951C98.2764 22.9301 97.7432 22.9476 97.2013 22.9476C95.6105 22.9476 94.3168 22.7553 93.3204 22.3708C92.3414 21.9863 91.5635 21.427 90.9866 20.6929C90.2699 19.7665 89.9115 18.5343 89.9115 16.9963V10.6517C89.9115 10.2322 90.0339 9.92634 90.2786 9.73408C90.5233 9.52434 90.873 9.41947 91.3275 9.41947C91.6247 9.41947 91.8869 9.45443 92.1142 9.52434C92.3589 9.59426 92.525 9.64669 92.6124 9.68165V16.7079C92.6124 18.0362 92.9445 19.0325 93.6088 19.6966C94.2906 20.3608 95.4357 20.6929 97.044 20.6929C97.6558 20.6929 98.1453 20.6754 98.5124 20.6404C98.897 20.588 99.1592 20.5443 99.2991 20.5094V10.6517Z" fill="black"/>
<path fill-rule="evenodd" clip-rule="evenodd" d="M24.64 12.8257C24.64 13.6861 23.5955 14.1121 22.9938 13.4971L10.6757 0.907252C12.3413 0.31967 14.1333 0 16 0C19.1825 0 22.148 0.929173 24.64 2.53103V12.8257ZM29.12 6.83976V12.8257C29.12 17.7009 23.2011 20.1149 19.7916 16.6302L6.54488 3.09128C2.57636 6.00298 0 10.7006 0 16C0 19.407 1.0649 22.5653 2.88 25.1602V19.2063C2.88 14.3311 8.79893 11.9171 12.2084 15.4018L25.4369 28.9221C29.4157 26.0114 32 21.3075 32 16C32 12.593 30.9351 9.43467 29.12 6.83976ZM9.00619 18.5349L21.301 31.1009C19.642 31.6833 17.858 32 16 32C12.8175 32 9.85199 31.0708 7.36 29.469V19.2063C7.36 18.3459 8.40452 17.9199 9.00619 18.5349Z" fill="url(#paint0_radial_3203_6386)"/>
<path fill-rule="evenodd" clip-rule="evenodd" d="M24.64 12.8257C24.64 13.6861 23.5955 14.1121 22.9938 13.4971L10.6757 0.907252C12.3413 0.31967 14.1333 0 16 0C19.1825 0 22.148 0.929173 24.64 2.53103V12.8257ZM29.12 6.83976V12.8257C29.12 17.7009 23.2011 20.1149 19.7916 16.6302L6.54488 3.09128C2.57636 6.00298 0 10.7006 0 16C0 19.407 1.0649 22.5653 2.88 25.1602V19.2063C2.88 14.3311 8.79893 11.9171 12.2084 15.4018L25.4369 28.9221C29.4157 26.0114 32 21.3075 32 16C32 12.593 30.9351 9.43467 29.12 6.83976ZM9.00619 18.5349L21.301 31.1009C19.642 31.6833 17.858 32 16 32C12.8175 32 9.85199 31.0708 7.36 29.469V19.2063C7.36 18.3459 8.40452 17.9199 9.00619 18.5349Z" fill="url(#paint1_linear_3203_6386)"/>
<defs>
<radialGradient id="paint0_radial_3203_6386" cx="0" cy="0" r="1" gradientUnits="userSpaceOnUse" gradientTransform="translate(16 16) rotate(135) scale(22.6274)">
<stop offset="0.34" stop-color="#FF006A"/>
<stop offset="0.613333" stop-color="#E300BD"/>
<stop offset="0.766667" stop-color="#FF4CE1"/>
</radialGradient>
<linearGradient id="paint1_linear_3203_6386" x1="19.7333" y1="-1.06667" x2="16" y2="32" gradientUnits="userSpaceOnUse">
<stop offset="0.0851785" stop-color="#FFBA33"/>
<stop offset="0.553333" stop-color="#FF006A" stop-opacity="0"/>
</linearGradient>
</defs>
</svg>
