<svg width="1049" height="300" viewBox="0 0 1049 300" fill="none" xmlns="http://www.w3.org/2000/svg">
<path fill-rule="evenodd" clip-rule="evenodd" d="M231 120.241C231 128.307 221.208 132.301 215.567 126.536L100.084 8.50548C115.699 2.9969 132.5 0 150 0C179.836 0 207.638 8.711 231 23.7285V120.241ZM273 64.1228V120.241C273 165.946 217.51 188.577 185.546 155.908L61.3582 28.9807C24.1534 56.2779 0 100.318 0 150C0 181.941 9.98339 211.55 27 235.877V180.059C27 134.354 82.4899 111.723 114.454 144.392L238.471 271.145C275.773 243.857 300 199.758 300 150C300 118.059 290.017 88.45 273 64.1228ZM84.433 173.764L199.697 291.571C184.144 297.031 167.419 300 150 300C120.164 300 92.3624 291.289 69 276.272V180.059C69 171.993 78.7923 167.999 84.433 173.764Z" fill="url(#paint0_linear_1314_1415)"/>
<path d="M487.303 177.326V94.9438C487.303 80.7266 483.892 69.9176 477.07 62.5169C470.248 55.1161 459.527 51.4157 444.908 51.4157C434.967 51.4157 427.073 52.3895 421.225 54.3371C415.378 56.0899 411.674 57.3558 410.115 58.1348V177.326H380V38.8539C380.78 38.4644 382.924 37.588 386.432 36.2247C389.941 34.8614 394.619 33.4007 400.467 31.8427C406.314 30.2846 413.136 28.9213 420.933 27.7528C428.73 26.5843 437.306 26 446.662 26C457.383 26 467.129 27.4607 475.9 30.382C484.672 33.1086 492.079 37.1011 498.121 42.3596C504.359 47.618 509.134 53.9476 512.448 61.3483C515.761 68.7491 517.418 77.1236 517.418 86.4719V177.326H487.303Z" fill="white"/>
<path d="M713.257 104C713.257 115.101 711.308 125.423 707.41 134.966C703.706 144.509 698.444 152.787 691.621 159.798C684.799 166.614 676.613 172.067 667.061 176.157C657.51 180.052 646.985 182 635.485 182C623.984 182 613.361 180.052 603.615 176.157C594.064 172.067 585.878 166.614 579.055 159.798C572.233 152.787 566.873 144.509 562.975 134.966C559.271 125.423 557.419 115.101 557.419 104C557.419 92.8989 559.271 82.5768 562.975 73.0337C566.873 63.4906 572.233 55.3109 579.055 48.4944C585.878 41.4831 594.064 36.03 603.615 32.1348C613.361 28.0449 623.984 26 635.485 26C646.985 26 657.51 28.0449 667.061 32.1348C676.613 36.03 684.799 41.4831 691.621 48.4944C698.444 55.3109 703.706 63.4906 707.41 73.0337C711.308 82.5768 713.257 92.8989 713.257 104ZM681.973 104C681.973 96.2097 680.901 89.1011 678.757 82.6742C676.613 76.0524 673.494 70.4045 669.401 65.7303C665.502 60.8614 660.629 57.1611 654.782 54.6292C649.129 51.9026 642.697 50.5393 635.485 50.5393C628.078 50.5393 621.45 51.9026 615.603 54.6292C609.95 57.1611 605.077 60.8614 600.984 65.7303C597.085 70.4045 594.064 76.0524 591.92 82.6742C589.776 89.1011 588.704 96.2097 588.704 104C588.704 111.79 589.776 118.996 591.92 125.618C594.064 132.045 597.085 137.693 600.984 142.562C605.077 147.236 609.95 150.936 615.603 153.663C621.45 156.195 628.078 157.461 635.485 157.461C642.697 157.461 649.129 156.195 654.782 153.663C660.629 150.936 665.502 147.236 669.401 142.562C673.494 137.693 676.613 132.045 678.757 125.618C680.901 118.996 681.973 111.79 681.973 104Z" fill="white"/>
<path d="M888.255 37.1011C887.086 41.3858 885.039 47.1311 882.115 54.3371C879.387 61.3483 876.17 69.2359 872.467 78C868.764 86.764 864.67 96.015 860.187 105.753C855.899 115.296 851.513 124.644 847.03 133.798C842.742 142.757 838.551 151.228 834.458 159.213C830.559 167.004 827.148 173.528 824.224 178.787H792.94C789.431 172.554 785.728 165.738 781.829 158.337C778.126 150.742 774.325 143.146 770.427 135.551C766.723 127.76 763.117 120.067 759.609 112.472C756.1 104.876 752.786 97.8652 749.668 91.4382C746.744 84.8165 744.113 78.9738 741.774 73.9101C739.629 68.8464 737.973 64.9513 736.803 62.2247C735.634 59.4981 734.464 56.5768 733.295 53.4607C732.125 50.3446 731.54 47.4232 731.54 44.6966C731.54 41.191 732.71 37.9775 735.049 35.0562C737.388 32.1348 741.384 30.6742 747.036 30.6742C750.935 30.6742 753.956 31.0637 756.1 31.8427C758.244 32.6217 759.414 33.1086 759.609 33.3034C762.922 42.4569 766.723 52.4869 771.011 63.3933C775.495 74.2996 779.978 85.1086 784.461 95.8202C789.139 106.337 793.622 116.464 797.91 126.202C802.199 135.745 805.999 143.828 809.313 150.449C811.652 145.97 814.673 139.64 818.377 131.461C822.275 123.086 826.271 113.933 830.364 104C834.653 94.0674 838.941 83.8427 843.229 73.3258C847.517 62.809 851.318 53.1685 854.632 44.4045C856.191 40.1198 858.14 36.809 860.479 34.4719C862.818 31.9401 866.717 30.6742 872.175 30.6742C876.853 30.6742 880.556 31.5506 883.285 33.3034C886.209 35.0562 887.866 36.3221 888.255 37.1011Z" fill="white"/>
<path d="M1018.88 44.4045C1018.88 39.7303 1020.25 36.3221 1022.98 34.1798C1025.71 31.8427 1029.61 30.6742 1034.67 30.6742C1037.99 30.6742 1040.91 31.0637 1043.44 31.8427C1046.17 32.6217 1048.03 33.206 1049 33.5955V177.326C1047.64 177.715 1045.2 178.105 1041.69 178.494C1038.38 178.884 1034.28 179.273 1029.41 179.663C1024.54 180.247 1019.18 180.637 1013.33 180.831C1007.48 181.221 1001.54 181.416 995.495 181.416C977.757 181.416 963.333 179.273 952.223 174.989C941.307 170.704 932.633 164.472 926.201 156.292C918.209 145.97 914.213 132.24 914.213 115.101V44.4045C914.213 39.7303 915.578 36.3221 918.307 34.1798C921.035 31.8427 924.934 30.6742 930.002 30.6742C933.315 30.6742 936.239 31.0637 938.773 31.8427C941.502 32.6217 943.354 33.206 944.328 33.5955V111.888C944.328 126.689 948.032 137.79 955.439 145.191C963.041 152.592 975.808 156.292 993.74 156.292C1000.56 156.292 1006.02 156.097 1010.11 155.708C1014.4 155.124 1017.33 154.637 1018.88 154.247V44.4045Z" fill="white"/>
<path d="M415.465 224.248V217.04H386.225V266H394.793V245.26H412.201V238.12H394.793V224.248H415.465ZM436.042 231.116C425.774 231.116 418.226 238.732 418.226 249C418.226 259.268 425.774 266.884 436.042 266.884C446.378 266.884 453.858 259.268 453.858 249C453.858 238.732 446.378 231.116 436.042 231.116ZM436.042 259.812C430.398 259.812 426.114 255.392 426.114 249C426.114 242.608 430.398 238.188 436.042 238.188C441.754 238.188 445.97 242.608 445.97 249C445.97 255.392 441.754 259.812 436.042 259.812ZM461.645 266H469.941V251.38C469.941 244.988 473.953 239.072 479.801 239.072C480.889 239.072 481.637 239.344 481.841 239.344V231.32C481.637 231.252 480.753 231.116 479.733 231.116C475.041 231.116 471.505 234.244 469.397 238.392C469.329 238.12 469.397 237.168 469.397 236.012C469.397 234.72 469.329 233.36 469.261 232H461.645V266ZM488.614 232V266H496.91V250.7C496.91 244.648 499.426 238.664 505.818 238.664C510.238 238.664 511.054 242.132 511.054 246.008V266H519.35V250.7C519.35 244.716 521.594 238.664 528.122 238.664C532.338 238.664 533.494 241.996 533.494 246.008V266H541.79V244.716C541.79 235.876 537.914 231.116 529.958 231.116C524.994 231.116 520.71 234.38 518.33 238.392C517.242 234.584 514.386 232.272 510.782 231.524C509.694 231.252 508.538 231.184 507.382 231.252C502.35 231.524 497.998 234.72 496.366 238.8H496.23C496.23 238.528 496.502 237.644 496.502 236.352L496.298 232H488.614ZM565.382 231.116C555.794 231.116 548.382 238.732 548.382 249C548.382 259.472 555.658 266.884 566.946 266.884C572.658 266.884 577.214 265.524 579.594 264.232V256.956C577.282 258.384 572.318 259.812 567.558 259.812C561.302 259.812 557.222 256.412 557.018 250.7H580.75C580.75 250.088 580.954 248.592 580.954 247.028C580.954 238.596 575.582 231.116 565.382 231.116ZM572.93 245.872H557.018C557.426 241.588 560.35 237.78 565.246 237.78C570.346 237.78 572.998 241.588 572.93 245.872ZM588.614 266H596.91V251.38C596.91 244.988 600.922 239.072 606.77 239.072C607.858 239.072 608.606 239.344 608.81 239.344V231.32C608.606 231.252 607.722 231.116 606.702 231.116C602.01 231.116 598.474 234.244 596.366 238.392C596.298 238.12 596.366 237.168 596.366 236.012C596.366 234.72 596.298 233.36 596.23 232H588.614V266ZM615.515 256.752C615.515 264.096 619.731 266.884 625.171 266.884C627.959 266.884 629.999 266.34 630.679 266.068V259.132C630.135 259.336 628.843 259.676 627.483 259.676C625.035 259.676 623.811 258.384 623.811 254.984V217.04H615.515V256.752ZM631.137 281.164C631.817 281.436 633.313 281.708 634.945 281.708C636.305 281.776 637.665 281.708 639.093 281.504C645.757 280.212 649.973 274.772 653.849 265.116L667.109 232H658.065L653.781 244.036C652.489 247.436 650.109 254.916 648.885 257.772C647.389 253.216 645.689 248.592 643.989 244.036L639.637 232H630.593L644.669 265.796C642.425 270.828 639.909 274.568 635.013 274.568C633.177 274.568 631.817 274.228 631.137 274.024V281.164ZM730.209 266.748V217.04H721.777V247.844L719.397 245.532L690.837 216.292H690.565V266H698.997V235.264C699.813 235.944 700.629 236.76 701.377 237.44L730.005 266.748H730.209ZM756.585 231.116C746.317 231.116 738.769 238.732 738.769 249C738.769 259.268 746.317 266.884 756.585 266.884C766.921 266.884 774.401 259.268 774.401 249C774.401 238.732 766.921 231.116 756.585 231.116ZM756.585 259.812C750.941 259.812 746.657 255.392 746.657 249C746.657 242.608 750.941 238.188 756.585 238.188C762.297 238.188 766.513 242.608 766.513 249C766.513 255.392 762.297 259.812 756.585 259.812ZM777.836 232V238.596H783.004V253.624C783.004 254.78 783.072 255.936 783.072 257.024C783.48 264.368 788.648 266.884 793.816 266.884C797.488 266.884 800.412 266.136 801.976 265.32V258.384C800.276 259.132 797.964 259.812 795.856 259.812C793.34 259.812 791.164 258.384 791.164 254.168V238.596H800.82V232H791.164V221.8H783.14V232H777.836ZM808.294 232V266H816.59V232H808.294ZM807.614 222.208C807.614 224.996 809.518 226.832 812.442 226.832C815.298 226.832 817.27 224.996 817.27 222.208C817.27 219.352 815.298 217.516 812.442 217.516C809.518 217.516 807.614 219.352 807.614 222.208ZM823.879 232V238.596H828.571V266H836.867V238.596H845.027V232H836.527V229.416C836.527 225.404 839.043 223.228 842.919 223.228C844.551 223.228 845.843 223.5 846.387 223.636V216.564C845.843 216.428 844.143 216.156 842.035 216.156C833.671 216.156 828.843 221.052 828.843 228.6V232H823.879ZM851.325 232V266H859.621V232H851.325ZM850.645 222.208C850.645 224.996 852.549 226.832 855.473 226.832C858.329 226.832 860.301 224.996 860.301 222.208C860.301 219.352 858.329 217.516 855.473 217.516C852.549 217.516 850.645 219.352 850.645 222.208ZM870.243 266H878.539V251.38C878.539 244.988 882.551 239.072 888.399 239.072C889.487 239.072 890.235 239.344 890.439 239.344V231.32C890.235 231.252 889.351 231.116 888.331 231.116C883.639 231.116 880.103 234.244 877.995 238.392C877.927 238.12 877.995 237.168 877.995 236.012C877.995 234.72 877.927 233.36 877.859 232H870.243V266ZM911.491 231.116C901.903 231.116 894.491 238.732 894.491 249C894.491 259.472 901.767 266.884 913.055 266.884C918.767 266.884 923.323 265.524 925.703 264.232V256.956C923.391 258.384 918.427 259.812 913.667 259.812C907.411 259.812 903.331 256.412 903.127 250.7H926.859C926.859 250.088 927.063 248.592 927.063 247.028C927.063 238.596 921.691 231.116 911.491 231.116ZM919.039 245.872H903.127C903.535 241.588 906.459 237.78 911.355 237.78C916.455 237.78 919.107 241.588 919.039 245.872Z" fill="white"/>
<defs>
<linearGradient id="paint0_linear_1314_1415" x1="300" y1="0" x2="3.57628e-05" y2="300" gradientUnits="userSpaceOnUse">
<stop offset="0.231667" stop-color="#FF884D"/>
<stop offset="0.801667" stop-color="#E300BD"/>
</linearGradient>
</defs>
</svg>
