<svg width="108" height="32" viewBox="0 0 108 32" fill="none" xmlns="http://www.w3.org/2000/svg">
<path d="M51.6236 16.5805V9.18727C51.6236 7.91136 51.3177 6.94132 50.7058 6.27715C50.094 5.61298 49.1325 5.2809 47.8214 5.2809C46.9298 5.2809 46.2218 5.36829 45.6974 5.54307C45.1729 5.70037 44.8408 5.81398 44.7009 5.88389V16.5805H42V4.15356C42.0699 4.1186 42.2622 4.03995 42.5769 3.9176C42.8916 3.79526 43.3111 3.66417 43.8356 3.52434C44.36 3.38452 44.9719 3.26217 45.6711 3.1573C46.3704 3.05243 47.1396 3 47.9787 3C48.9402 3 49.8143 3.13109 50.6009 3.39326C51.3876 3.63795 52.0519 3.99625 52.5938 4.46817C53.1532 4.94007 53.5815 5.50811 53.8787 6.17228C54.1759 6.83645 54.3245 7.58801 54.3245 8.42697V16.5805H51.6236Z" fill="black"/>
<path d="M71.8886 10C71.8886 10.9963 71.7137 11.9226 71.3641 12.779C71.032 13.6355 70.56 14.3783 69.9481 15.0075C69.3362 15.6192 68.602 16.1086 67.7454 16.4757C66.8888 16.8252 65.9448 17 64.9134 17C63.882 17 62.9293 16.8252 62.0552 16.4757C61.1986 16.1086 60.4644 15.6192 59.8525 15.0075C59.2406 14.3783 58.7599 13.6355 58.4103 12.779C58.0781 11.9226 57.912 10.9963 57.912 10C57.912 9.00374 58.0781 8.0774 58.4103 7.22097C58.7599 6.36454 59.2406 5.63046 59.8525 5.01873C60.4644 4.38951 61.1986 3.90012 62.0552 3.55056C62.9293 3.18352 63.882 3 64.9134 3C65.9448 3 66.8888 3.18352 67.7454 3.55056C68.602 3.90012 69.3362 4.38951 69.9481 5.01873C70.56 5.63046 71.032 6.36454 71.3641 7.22097C71.7137 8.0774 71.8886 9.00374 71.8886 10ZM69.0828 10C69.0828 9.30087 68.9866 8.66292 68.7943 8.08614C68.602 7.49189 68.3223 6.98502 67.9552 6.56554C67.6056 6.12859 67.1685 5.7965 66.6441 5.56929C66.1371 5.32459 65.5602 5.20225 64.9134 5.20225C64.2491 5.20225 63.6547 5.32459 63.1303 5.56929C62.6233 5.7965 62.1863 6.12859 61.8192 6.56554C61.4695 6.98502 61.1986 7.49189 61.0063 8.08614C60.814 8.66292 60.7178 9.30087 60.7178 10C60.7178 10.6991 60.814 11.3458 61.0063 11.9401C61.1986 12.5169 61.4695 13.0237 61.8192 13.4607C62.1863 13.8801 62.6233 14.2122 63.1303 14.4569C63.6547 14.6841 64.2491 14.7978 64.9134 14.7978C65.5602 14.7978 66.1371 14.6841 66.6441 14.4569C67.1685 14.2122 67.6056 13.8801 67.9552 13.4607C68.3223 13.0237 68.602 12.5169 68.7943 11.9401C68.9866 11.3458 69.0828 10.6991 69.0828 10Z" fill="black"/>
<path d="M87.5834 3.99625C87.4786 4.38077 87.295 4.89638 87.0328 5.54307C86.788 6.17228 86.4996 6.88015 86.1674 7.66667C85.8353 8.45318 85.4682 9.28339 85.0661 10.1573C84.6815 11.0137 84.2882 11.8527 83.8861 12.6742C83.5015 13.4782 83.1256 14.2385 82.7585 14.9551C82.4089 15.6542 82.103 16.2397 81.8408 16.7116H79.035C78.7203 16.1523 78.3881 15.5406 78.0385 14.8764C77.7064 14.1948 77.3655 13.5131 77.0158 12.8315C76.6837 12.1323 76.3603 11.4419 76.0456 10.7603C75.7309 10.0787 75.4338 9.44944 75.1541 8.87266C74.8918 8.2784 74.6558 7.75406 74.446 7.29963C74.2538 6.84519 74.1052 6.49563 74.0003 6.25094C73.8954 6.00624 73.7905 5.74407 73.6856 5.46442C73.5807 5.18477 73.5283 4.9226 73.5283 4.6779C73.5283 4.3633 73.6332 4.07491 73.8429 3.81273C74.0527 3.55056 74.4111 3.41948 74.9181 3.41948C75.2677 3.41948 75.5387 3.45443 75.7309 3.52434C75.9232 3.59426 76.0281 3.63795 76.0456 3.65543C76.3428 4.4769 76.6837 5.37703 77.0683 6.35581C77.4704 7.33458 77.8724 8.30462 78.2745 9.26592C78.6941 10.2097 79.0961 11.1186 79.4807 11.9925C79.8653 12.8489 80.2062 13.5743 80.5034 14.1685C80.7132 13.7665 80.9842 13.1985 81.3163 12.4644C81.6659 11.7129 82.0243 10.8914 82.3914 10C82.776 9.10861 83.1606 8.19101 83.5452 7.24719C83.9298 6.30337 84.2707 5.4382 84.5679 4.65169C84.7077 4.26717 84.8825 3.97004 85.0923 3.7603C85.3021 3.53308 85.6517 3.41948 86.1412 3.41948C86.5608 3.41948 86.8929 3.49813 87.1377 3.65543C87.3999 3.81273 87.5485 3.92634 87.5834 3.99625Z" fill="black"/>
<path d="M99.2991 4.65169C99.2991 4.23221 99.4215 3.92634 99.6662 3.73408C99.9109 3.52434 100.261 3.41948 100.715 3.41948C101.012 3.41948 101.275 3.45443 101.502 3.52434C101.747 3.59426 101.913 3.64669 102 3.68165V16.5805C101.878 16.6155 101.659 16.6504 101.344 16.6854C101.047 16.7203 100.68 16.7553 100.243 16.7903C99.8061 16.8427 99.3253 16.8777 98.8009 16.8951C98.2764 16.9301 97.7432 16.9476 97.2013 16.9476C95.6105 16.9476 94.3168 16.7553 93.3204 16.3708C92.3414 15.9863 91.5635 15.427 90.9866 14.6929C90.2699 13.7665 89.9115 12.5343 89.9115 10.9963V4.65169C89.9115 4.23221 90.0339 3.92634 90.2786 3.73408C90.5233 3.52434 90.873 3.41948 91.3275 3.41948C91.6247 3.41948 91.8869 3.45443 92.1142 3.52434C92.3589 3.59426 92.525 3.64669 92.6124 3.68165V10.7079C92.6124 12.0362 92.9445 13.0325 93.6088 13.6966C94.2906 14.3608 95.4357 14.6929 97.044 14.6929C97.6558 14.6929 98.1453 14.6754 98.5124 14.6404C98.897 14.588 99.1592 14.5443 99.2991 14.5094V4.65169Z" fill="black"/>
<path d="M43.754 29C45.815 29 47.183 27.704 47.183 25.76C47.183 23.816 45.797 22.52 43.718 22.52H41.855V29H43.754ZM43.709 23.249C45.266 23.249 46.301 24.257 46.301 25.76C46.301 27.263 45.275 28.271 43.745 28.271H42.719V23.249H43.709ZM50.337 24.392C49.005 24.392 48.024 25.391 48.024 26.75C48.024 28.109 49.005 29.108 50.337 29.108C51.678 29.108 52.659 28.109 52.659 26.75C52.659 25.391 51.678 24.392 50.337 24.392ZM50.337 28.379C49.473 28.379 48.834 27.704 48.834 26.75C48.834 25.796 49.473 25.121 50.337 25.121C51.21 25.121 51.849 25.796 51.849 26.75C51.849 27.704 51.21 28.379 50.337 28.379ZM54.5304 26.75C54.5304 25.805 55.1694 25.139 56.0694 25.139C56.6544 25.139 57.0954 25.337 57.4104 25.535V24.743C57.1404 24.599 56.7174 24.392 56.0244 24.392C54.6384 24.392 53.6754 25.391 53.6754 26.75C53.6754 28.109 54.6384 29.108 56.0244 29.108C56.7264 29.108 57.1674 28.892 57.4374 28.748V27.965C57.1584 28.136 56.6904 28.361 56.0694 28.361C55.1604 28.361 54.5304 27.695 54.5304 26.75ZM62.4935 29V24.5H61.6565V26.714C61.6565 27.632 61.0445 28.334 60.1895 28.334C59.4425 28.334 59.3345 27.776 59.3345 27.155V24.5H58.4975V27.326C58.4975 28.451 58.9295 29.108 60.0365 29.108C60.9635 29.108 61.5395 28.433 61.7105 28.028H61.7285C61.7285 28.046 61.6925 28.181 61.6925 28.37L61.7105 29H62.4935ZM64.1344 24.5V29H64.9714V26.912C64.9714 26.048 65.4124 25.166 66.3574 25.166C67.0684 25.166 67.1854 25.724 67.1854 26.327V29H68.0224V26.912C68.0224 26.066 68.4184 25.166 69.3814 25.166C70.0654 25.166 70.2274 25.688 70.2274 26.336V29H71.0644V26.174C71.0644 25.04 70.6054 24.392 69.4894 24.392C68.7964 24.392 68.2024 24.86 67.9234 25.418H67.9144C67.7704 24.761 67.2214 24.392 66.5644 24.392C65.8084 24.392 65.1604 24.851 64.9174 25.472H64.8994C64.9084 25.454 64.9354 25.319 64.9354 25.13L64.9174 24.5H64.1344ZM74.2935 24.392C73.0515 24.392 72.0885 25.391 72.0885 26.75C72.0885 28.145 73.0515 29.108 74.4735 29.108C75.2025 29.108 75.8055 28.919 76.1565 28.721V27.956C75.7785 28.199 75.1395 28.379 74.5275 28.379C73.5825 28.379 72.9885 27.821 72.9615 26.939V26.93H76.3095C76.3095 26.84 76.3275 26.669 76.3275 26.489C76.3275 25.382 75.6165 24.392 74.2935 24.392ZM75.4995 26.336H72.9705C73.0425 25.688 73.5105 25.094 74.2845 25.094C75.0855 25.094 75.5085 25.688 75.4995 26.336ZM77.5641 24.5V29H78.4011V26.786C78.4011 25.868 79.0311 25.166 79.9131 25.166C80.6601 25.166 80.7681 25.724 80.7681 26.345V29H81.6051V26.174C81.6051 25.049 81.1731 24.392 80.0661 24.392C79.1121 24.392 78.5181 25.067 78.3471 25.472H78.3291C78.3381 25.454 78.3651 25.319 78.3651 25.13L78.3471 24.5H77.5641ZM82.453 24.5V25.184H83.191V27.767C83.191 28.775 83.875 29.108 84.523 29.108C84.964 29.108 85.333 29.009 85.531 28.901V28.172C85.279 28.289 84.964 28.37 84.685 28.37C84.307 28.37 84.019 28.154 84.019 27.515V25.184H85.378V24.5H84.019V23.15H83.2V24.5H82.453ZM86.4555 25.499C86.7255 25.337 87.3015 25.121 87.9225 25.121C88.6335 25.121 89.1015 25.391 89.1015 26.174V26.399C87.2205 26.138 86.1675 26.687 86.1675 27.785C86.1675 28.613 86.7615 29.108 87.5895 29.108C88.6065 29.108 89.1015 28.235 89.1555 28.109H89.1735C89.1735 28.109 89.1375 28.253 89.1465 28.469L89.1555 29H89.9295V26.129C89.9295 25.004 89.3085 24.392 88.0395 24.392C87.3015 24.392 86.7075 24.59 86.4555 24.725V25.499ZM87.7335 28.433C87.2835 28.433 86.9955 28.154 86.9955 27.758C86.9955 27.146 87.6165 26.75 89.0835 26.984C89.0835 27.686 88.4985 28.433 87.7335 28.433ZM90.7938 24.5V25.184H91.5318V27.767C91.5318 28.775 92.2158 29.108 92.8638 29.108C93.3048 29.108 93.6738 29.009 93.8718 28.901V28.172C93.6198 28.289 93.3048 28.37 93.0258 28.37C92.6478 28.37 92.3598 28.154 92.3598 27.515V25.184H93.7188V24.5H92.3598V23.15H91.5408V24.5H90.7938ZM94.7995 24.5V29H95.6365V24.5H94.7995ZM94.6915 23.195C94.6915 23.492 94.8985 23.699 95.2135 23.699C95.5195 23.699 95.7355 23.492 95.7355 23.195C95.7355 22.889 95.5195 22.682 95.2135 22.682C94.8985 22.682 94.6915 22.889 94.6915 23.195ZM99.213 24.392C97.881 24.392 96.9 25.391 96.9 26.75C96.9 28.109 97.881 29.108 99.213 29.108C100.554 29.108 101.535 28.109 101.535 26.75C101.535 25.391 100.554 24.392 99.213 24.392ZM99.213 28.379C98.349 28.379 97.71 27.704 97.71 26.75C97.71 25.796 98.349 25.121 99.213 25.121C100.086 25.121 100.725 25.796 100.725 26.75C100.725 27.704 100.086 28.379 99.213 28.379ZM102.798 24.5V29H103.635V26.786C103.635 25.868 104.265 25.166 105.147 25.166C105.894 25.166 106.002 25.724 106.002 26.345V29H106.839V26.174C106.839 25.049 106.407 24.392 105.3 24.392C104.346 24.392 103.752 25.067 103.581 25.472H103.563C103.572 25.454 103.599 25.319 103.599 25.13L103.581 24.5H102.798Z" fill="black"/>
<path fill-rule="evenodd" clip-rule="evenodd" d="M24.64 12.8257C24.64 13.6861 23.5955 14.1121 22.9938 13.4971L10.6757 0.907252C12.3413 0.31967 14.1333 0 16 0C19.1825 0 22.148 0.929173 24.64 2.53103V12.8257ZM29.12 6.83976V12.8257C29.12 17.7009 23.2011 20.1149 19.7916 16.6302L6.54488 3.09128C2.57636 6.00298 0 10.7006 0 16C0 19.407 1.0649 22.5653 2.88 25.1602V19.2063C2.88 14.3311 8.79893 11.9171 12.2084 15.4018L25.4369 28.9221C29.4157 26.0114 32 21.3075 32 16C32 12.593 30.9351 9.43467 29.12 6.83976ZM9.00619 18.5349L21.301 31.1009C19.642 31.6833 17.858 32 16 32C12.8175 32 9.85199 31.0708 7.36 29.469V19.2063C7.36 18.3459 8.40452 17.9199 9.00619 18.5349Z" fill="url(#paint0_radial_5500_12306)"/>
<path fill-rule="evenodd" clip-rule="evenodd" d="M24.64 12.8257C24.64 13.6861 23.5955 14.1121 22.9938 13.4971L10.6757 0.907252C12.3413 0.31967 14.1333 0 16 0C19.1825 0 22.148 0.929173 24.64 2.53103V12.8257ZM29.12 6.83976V12.8257C29.12 17.7009 23.2011 20.1149 19.7916 16.6302L6.54488 3.09128C2.57636 6.00298 0 10.7006 0 16C0 19.407 1.0649 22.5653 2.88 25.1602V19.2063C2.88 14.3311 8.79893 11.9171 12.2084 15.4018L25.4369 28.9221C29.4157 26.0114 32 21.3075 32 16C32 12.593 30.9351 9.43467 29.12 6.83976ZM9.00619 18.5349L21.301 31.1009C19.642 31.6833 17.858 32 16 32C12.8175 32 9.85199 31.0708 7.36 29.469V19.2063C7.36 18.3459 8.40452 17.9199 9.00619 18.5349Z" fill="url(#paint1_linear_5500_12306)"/>
<defs>
<radialGradient id="paint0_radial_5500_12306" cx="0" cy="0" r="1" gradientUnits="userSpaceOnUse" gradientTransform="translate(16 16) rotate(135) scale(22.6274 22.6274)">
<stop offset="0.34" stop-color="#FF006A"/>
<stop offset="0.613333" stop-color="#E300BD"/>
<stop offset="0.766667" stop-color="#FF4CE1"/>
</radialGradient>
<linearGradient id="paint1_linear_5500_12306" x1="19.7333" y1="-1.06667" x2="16" y2="32" gradientUnits="userSpaceOnUse">
<stop offset="0.0851785" stop-color="#FFBA33"/>
<stop offset="0.553333" stop-color="#FF006A" stop-opacity="0"/>
</linearGradient>
</defs>
</svg>
