<svg width="115" height="32" viewBox="0 0 115 32" fill="none" xmlns="http://www.w3.org/2000/svg">
<path d="M51.6236 15.5805V8.18727C51.6236 6.91136 51.3177 5.94132 50.7058 5.27715C50.094 4.61298 49.1325 4.2809 47.8214 4.2809C46.9298 4.2809 46.2218 4.36829 45.6974 4.54307C45.1729 4.70037 44.8408 4.81398 44.7009 4.88389V15.5805H42V3.15356C42.0699 3.1186 42.2622 3.03995 42.5769 2.9176C42.8916 2.79526 43.3111 2.66417 43.8356 2.52434C44.36 2.38452 44.9719 2.26217 45.6711 2.1573C46.3704 2.05243 47.1396 2 47.9787 2C48.9402 2 49.8143 2.13109 50.6009 2.39326C51.3876 2.63795 52.0519 2.99625 52.5938 3.46817C53.1532 3.94007 53.5815 4.50811 53.8787 5.17228C54.1759 5.83645 54.3245 6.58801 54.3245 7.42697V15.5805H51.6236Z" fill="black"/>
<path d="M71.8886 9C71.8886 9.99625 71.7137 10.9226 71.3641 11.779C71.032 12.6355 70.56 13.3783 69.9481 14.0075C69.3362 14.6192 68.602 15.1086 67.7454 15.4757C66.8888 15.8252 65.9448 16 64.9134 16C63.882 16 62.9293 15.8252 62.0552 15.4757C61.1986 15.1086 60.4644 14.6192 59.8525 14.0075C59.2406 13.3783 58.7599 12.6355 58.4103 11.779C58.0781 10.9226 57.912 9.99625 57.912 9C57.912 8.00374 58.0781 7.0774 58.4103 6.22097C58.7599 5.36454 59.2406 4.63046 59.8525 4.01873C60.4644 3.38951 61.1986 2.90012 62.0552 2.55056C62.9293 2.18352 63.882 2 64.9134 2C65.9448 2 66.8888 2.18352 67.7454 2.55056C68.602 2.90012 69.3362 3.38951 69.9481 4.01873C70.56 4.63046 71.032 5.36454 71.3641 6.22097C71.7137 7.0774 71.8886 8.00374 71.8886 9ZM69.0828 9C69.0828 8.30087 68.9866 7.66292 68.7943 7.08614C68.602 6.49189 68.3223 5.98502 67.9552 5.56554C67.6056 5.12859 67.1685 4.7965 66.6441 4.56929C66.1371 4.32459 65.5602 4.20225 64.9134 4.20225C64.2491 4.20225 63.6547 4.32459 63.1303 4.56929C62.6233 4.7965 62.1863 5.12859 61.8192 5.56554C61.4695 5.98502 61.1986 6.49189 61.0063 7.08614C60.814 7.66292 60.7178 8.30087 60.7178 9C60.7178 9.69913 60.814 10.3458 61.0063 10.9401C61.1986 11.5169 61.4695 12.0237 61.8192 12.4607C62.1863 12.8801 62.6233 13.2122 63.1303 13.4569C63.6547 13.6841 64.2491 13.7978 64.9134 13.7978C65.5602 13.7978 66.1371 13.6841 66.6441 13.4569C67.1685 13.2122 67.6056 12.8801 67.9552 12.4607C68.3223 12.0237 68.602 11.5169 68.7943 10.9401C68.9866 10.3458 69.0828 9.69913 69.0828 9Z" fill="black"/>
<path d="M87.5834 2.99625C87.4786 3.38077 87.295 3.89638 87.0328 4.54307C86.788 5.17228 86.4996 5.88015 86.1674 6.66667C85.8353 7.45318 85.4682 8.28339 85.0661 9.1573C84.6815 10.0137 84.2882 10.8527 83.8861 11.6742C83.5015 12.4782 83.1256 13.2385 82.7585 13.9551C82.4089 14.6542 82.103 15.2397 81.8408 15.7116H79.035C78.7203 15.1523 78.3881 14.5406 78.0385 13.8764C77.7064 13.1948 77.3655 12.5131 77.0158 11.8315C76.6837 11.1323 76.3603 10.4419 76.0456 9.7603C75.7309 9.07865 75.4338 8.44944 75.1541 7.87266C74.8918 7.2784 74.6558 6.75406 74.446 6.29963C74.2538 5.84519 74.1052 5.49563 74.0003 5.25094C73.8954 5.00624 73.7905 4.74407 73.6856 4.46442C73.5807 4.18477 73.5283 3.9226 73.5283 3.6779C73.5283 3.3633 73.6332 3.07491 73.8429 2.81273C74.0527 2.55056 74.4111 2.41948 74.9181 2.41948C75.2677 2.41948 75.5387 2.45443 75.7309 2.52434C75.9232 2.59426 76.0281 2.63795 76.0456 2.65543C76.3428 3.4769 76.6837 4.37703 77.0683 5.35581C77.4704 6.33458 77.8724 7.30462 78.2745 8.26592C78.6941 9.20974 79.0961 10.1186 79.4807 10.9925C79.8653 11.8489 80.2062 12.5743 80.5034 13.1685C80.7132 12.7665 80.9842 12.1985 81.3163 11.4644C81.6659 10.7129 82.0243 9.89139 82.3914 9C82.776 8.10861 83.1606 7.19101 83.5452 6.24719C83.9298 5.30337 84.2707 4.4382 84.5679 3.65169C84.7077 3.26717 84.8825 2.97004 85.0923 2.7603C85.3021 2.53308 85.6517 2.41948 86.1412 2.41948C86.5608 2.41948 86.8929 2.49813 87.1377 2.65543C87.3999 2.81273 87.5485 2.92634 87.5834 2.99625Z" fill="black"/>
<path d="M99.2991 3.65169C99.2991 3.23221 99.4215 2.92634 99.6662 2.73408C99.9109 2.52434 100.261 2.41948 100.715 2.41948C101.012 2.41948 101.275 2.45443 101.502 2.52434C101.747 2.59426 101.913 2.64669 102 2.68165V15.5805C101.878 15.6155 101.659 15.6504 101.344 15.6854C101.047 15.7203 100.68 15.7553 100.243 15.7903C99.8061 15.8427 99.3253 15.8777 98.8009 15.8951C98.2764 15.9301 97.7432 15.9476 97.2013 15.9476C95.6105 15.9476 94.3168 15.7553 93.3204 15.3708C92.3414 14.9863 91.5635 14.427 90.9866 13.6929C90.2699 12.7665 89.9115 11.5343 89.9115 9.99625V3.65169C89.9115 3.23221 90.0339 2.92634 90.2786 2.73408C90.5233 2.52434 90.873 2.41948 91.3275 2.41948C91.6247 2.41948 91.8869 2.45443 92.1142 2.52434C92.3589 2.59426 92.525 2.64669 92.6124 2.68165V9.70787C92.6124 11.0362 92.9445 12.0325 93.6088 12.6966C94.2906 13.3608 95.4357 13.6929 97.044 13.6929C97.6558 13.6929 98.1453 13.6754 98.5124 13.6404C98.897 13.588 99.1592 13.5443 99.2991 13.5094V3.65169Z" fill="black"/>
<path d="M44.0602 29.9998C46.3502 29.9998 47.8702 28.5598 47.8702 26.3998C47.8702 24.2398 46.3302 22.7998 44.0202 22.7998H41.9502V29.9998H44.0602ZM44.0102 23.6098C45.7402 23.6098 46.8902 24.7298 46.8902 26.3998C46.8902 28.0698 45.7502 29.1898 44.0502 29.1898H42.9102V23.6098H44.0102Z" fill="black"/>
<path d="M51.3746 24.8798C49.8946 24.8798 48.8046 25.9898 48.8046 27.4998C48.8046 29.0098 49.8946 30.1198 51.3746 30.1198C52.8646 30.1198 53.9546 29.0098 53.9546 27.4998C53.9546 25.9898 52.8646 24.8798 51.3746 24.8798ZM51.3746 29.3098C50.4146 29.3098 49.7046 28.5598 49.7046 27.4998C49.7046 26.4398 50.4146 25.6898 51.3746 25.6898C52.3446 25.6898 53.0546 26.4398 53.0546 27.4998C53.0546 28.5598 52.3446 29.3098 51.3746 29.3098Z" fill="black"/>
<path d="M56.0339 27.4998C56.0339 26.4498 56.7439 25.7098 57.7439 25.7098C58.3939 25.7098 58.8839 25.9298 59.2339 26.1498V25.2698C58.9339 25.1098 58.4639 24.8798 57.6939 24.8798C56.1539 24.8798 55.0839 25.9898 55.0839 27.4998C55.0839 29.0098 56.1539 30.1198 57.6939 30.1198C58.4739 30.1198 58.9639 29.8798 59.2639 29.7198V28.8498C58.9539 29.0398 58.4339 29.2898 57.7439 29.2898C56.7339 29.2898 56.0339 28.5498 56.0339 27.4998Z" fill="black"/>
<path d="M64.8818 29.9998V24.9998H63.9518V27.4598C63.9518 28.4798 63.2718 29.2598 62.3218 29.2598C61.4918 29.2598 61.3718 28.6398 61.3718 27.9498V24.9998H60.4418V28.1398C60.4418 29.3898 60.9218 30.1198 62.1518 30.1198C63.1818 30.1198 63.8218 29.3698 64.0118 28.9198H64.0318C64.0318 28.9398 63.9918 29.0898 63.9918 29.2998L64.0118 29.9998H64.8818Z" fill="black"/>
<path d="M66.7051 24.9998V29.9998H67.6351V27.6798C67.6351 26.7198 68.1251 25.7398 69.1751 25.7398C69.9651 25.7398 70.0951 26.3598 70.0951 27.0298V29.9998H71.0251V27.6798C71.0251 26.7398 71.4651 25.7398 72.5351 25.7398C73.2951 25.7398 73.4751 26.3198 73.4751 27.0398V29.9998H74.4051V26.8598C74.4051 25.5998 73.8951 24.8798 72.6551 24.8798C71.8851 24.8798 71.2251 25.3998 70.9151 26.0198H70.9051C70.7451 25.2898 70.1351 24.8798 69.4051 24.8798C68.5651 24.8798 67.8451 25.3898 67.5751 26.0798H67.5551C67.5651 26.0598 67.5951 25.9098 67.5951 25.6998L67.5751 24.9998H66.7051Z" fill="black"/>
<path d="M77.9929 24.8798C76.6129 24.8798 75.5429 25.9898 75.5429 27.4998C75.5429 29.0498 76.6129 30.1198 78.1929 30.1198C79.0029 30.1198 79.6729 29.9098 80.0629 29.6898V28.8398C79.6429 29.1098 78.9329 29.3098 78.2529 29.3098C77.2029 29.3098 76.5429 28.6898 76.5129 27.7098V27.6998H80.2329C80.2329 27.5998 80.2529 27.4098 80.2529 27.2098C80.2529 25.9798 79.4629 24.8798 77.9929 24.8798ZM79.3329 27.0398H76.5229C76.6029 26.3198 77.1229 25.6598 77.9829 25.6598C78.8729 25.6598 79.3429 26.3198 79.3329 27.0398Z" fill="black"/>
<path d="M81.627 24.9998V29.9998H82.557V27.5398C82.557 26.5198 83.257 25.7398 84.237 25.7398C85.067 25.7398 85.187 26.3598 85.187 27.0498V29.9998H86.117V26.8598C86.117 25.6098 85.637 24.8798 84.407 24.8798C83.347 24.8798 82.687 25.6298 82.497 26.0798H82.477C82.487 26.0598 82.517 25.9098 82.517 25.6998L82.497 24.9998H81.627Z" fill="black"/>
<path d="M87.0591 24.9998V25.7598H87.8791V28.6298C87.8791 29.7498 88.6391 30.1198 89.3591 30.1198C89.8491 30.1198 90.2591 30.0098 90.4791 29.8898V29.0798C90.1991 29.2098 89.8491 29.2998 89.5391 29.2998C89.1191 29.2998 88.7991 29.0598 88.7991 28.3498V25.7598H90.3091V24.9998H88.7991V23.4998H87.8891V24.9998H87.0591Z" fill="black"/>
<path d="M91.5063 26.1098C91.8063 25.9298 92.4463 25.6898 93.1363 25.6898C93.9263 25.6898 94.4463 25.9898 94.4463 26.8598V27.1098C92.3563 26.8198 91.1863 27.4298 91.1863 28.6498C91.1863 29.5698 91.8463 30.1198 92.7663 30.1198C93.8963 30.1198 94.4463 29.1498 94.5063 29.0098H94.5263C94.5263 29.0098 94.4863 29.1698 94.4963 29.4098L94.5063 29.9998H95.3663V26.8098C95.3663 25.5598 94.6763 24.8798 93.2663 24.8798C92.4463 24.8798 91.7863 25.0998 91.5063 25.2498V26.1098ZM92.9263 29.3698C92.4263 29.3698 92.1063 29.0598 92.1063 28.6198C92.1063 27.9398 92.7963 27.4998 94.4263 27.7598C94.4263 28.5398 93.7763 29.3698 92.9263 29.3698Z" fill="black"/>
<path d="M96.3267 24.9998V25.7598H97.1467V28.6298C97.1467 29.7498 97.9067 30.1198 98.6267 30.1198C99.1167 30.1198 99.5267 30.0098 99.7467 29.8898V29.0798C99.4667 29.2098 99.1167 29.2998 98.8067 29.2998C98.3867 29.2998 98.0667 29.0598 98.0667 28.3498V25.7598H99.5767V24.9998H98.0667V23.4998H97.1567V24.9998H96.3267Z" fill="black"/>
<path d="M100.777 24.9998V29.9998H101.707V24.9998H100.777ZM100.657 23.5498C100.657 23.8798 100.887 24.1098 101.237 24.1098C101.577 24.1098 101.817 23.8798 101.817 23.5498C101.817 23.2098 101.577 22.9798 101.237 22.9798C100.887 22.9798 100.657 23.2098 100.657 23.5498Z" fill="black"/>
<path d="M105.681 24.8798C104.201 24.8798 103.111 25.9898 103.111 27.4998C103.111 29.0098 104.201 30.1198 105.681 30.1198C107.171 30.1198 108.261 29.0098 108.261 27.4998C108.261 25.9898 107.171 24.8798 105.681 24.8798ZM105.681 29.3098C104.721 29.3098 104.011 28.5598 104.011 27.4998C104.011 26.4398 104.721 25.6898 105.681 25.6898C106.651 25.6898 107.361 26.4398 107.361 27.4998C107.361 28.5598 106.651 29.3098 105.681 29.3098Z" fill="black"/>
<path d="M109.664 24.9998V29.9998H110.594V27.5398C110.594 26.5198 111.294 25.7398 112.274 25.7398C113.104 25.7398 113.224 26.3598 113.224 27.0498V29.9998H114.154V26.8598C114.154 25.6098 113.674 24.8798 112.444 24.8798C111.384 24.8798 110.724 25.6298 110.534 26.0798H110.514C110.524 26.0598 110.554 25.9098 110.554 25.6998L110.534 24.9998H109.664Z" fill="black"/>
<path fill-rule="evenodd" clip-rule="evenodd" d="M24.64 12.8257C24.64 13.6861 23.5955 14.1121 22.9938 13.4971L10.6757 0.907252C12.3413 0.31967 14.1333 0 16 0C19.1825 0 22.148 0.929173 24.64 2.53103V12.8257ZM29.12 6.83976V12.8257C29.12 17.7009 23.2011 20.1149 19.7916 16.6302L6.54488 3.09128C2.57636 6.00298 0 10.7006 0 16C0 19.407 1.0649 22.5653 2.88 25.1602V19.2063C2.88 14.3311 8.79893 11.9171 12.2084 15.4018L25.4369 28.9221C29.4157 26.0114 32 21.3075 32 16C32 12.593 30.9351 9.43467 29.12 6.83976ZM9.00619 18.5349L21.301 31.1009C19.642 31.6833 17.858 32 16 32C12.8175 32 9.85199 31.0708 7.36 29.469V19.2063C7.36 18.3459 8.40452 17.9199 9.00619 18.5349Z" fill="url(#paint0_radial_5961_16663)"/>
<path fill-rule="evenodd" clip-rule="evenodd" d="M24.64 12.8257C24.64 13.6861 23.5955 14.1121 22.9938 13.4971L10.6757 0.907252C12.3413 0.31967 14.1333 0 16 0C19.1825 0 22.148 0.929173 24.64 2.53103V12.8257ZM29.12 6.83976V12.8257C29.12 17.7009 23.2011 20.1149 19.7916 16.6302L6.54488 3.09128C2.57636 6.00298 0 10.7006 0 16C0 19.407 1.0649 22.5653 2.88 25.1602V19.2063C2.88 14.3311 8.79893 11.9171 12.2084 15.4018L25.4369 28.9221C29.4157 26.0114 32 21.3075 32 16C32 12.593 30.9351 9.43467 29.12 6.83976ZM9.00619 18.5349L21.301 31.1009C19.642 31.6833 17.858 32 16 32C12.8175 32 9.85199 31.0708 7.36 29.469V19.2063C7.36 18.3459 8.40452 17.9199 9.00619 18.5349Z" fill="url(#paint1_linear_5961_16663)"/>
<defs>
<radialGradient id="paint0_radial_5961_16663" cx="0" cy="0" r="1" gradientUnits="userSpaceOnUse" gradientTransform="translate(16 16) rotate(135) scale(22.6274 22.6274)">
<stop offset="0.34" stop-color="#FF006A"/>
<stop offset="0.613333" stop-color="#E300BD"/>
<stop offset="0.766667" stop-color="#FF4CE1"/>
</radialGradient>
<linearGradient id="paint1_linear_5961_16663" x1="19.7333" y1="-1.06667" x2="16" y2="32" gradientUnits="userSpaceOnUse">
<stop offset="0.0851785" stop-color="#FFBA33"/>
<stop offset="0.553333" stop-color="#FF006A" stop-opacity="0"/>
</linearGradient>
</defs>
</svg>
