<svg width="261" height="310" viewBox="0 0 261 310" fill="none" xmlns="http://www.w3.org/2000/svg">
<path d="M78.2401 158.211C102.676 188.689 130.374 223.231 92.7825 275.008C92.5391 275.336 92.1757 275.548 91.7713 275.589C91.7207 275.599 91.6733 275.599 91.6228 275.599C91.272 275.599 90.9307 275.469 90.6684 275.235C89.5719 274.246 88.2479 273.09 86.7247 271.759C69.1393 256.392 22.4249 215.568 19.1796 164.42C17.4953 137.857 27.6673 111.973 49.3987 87.4897C49.8506 86.9841 50.5932 86.864 51.181 87.1989C51.7719 87.5371 52.0373 88.2417 51.8256 88.8864C43.3252 114.675 60.2818 135.822 78.2401 158.211ZM191.15 108.219C190.657 107.777 189.921 107.736 189.374 108.121C188.831 108.507 188.626 109.215 188.878 109.831C217.05 178.646 179.796 217.265 136.666 261.982C129.303 269.61 121.7 277.504 114.255 285.714C113.913 286.087 113.793 286.614 113.948 287.098C114.097 287.581 114.495 287.948 114.991 288.065C121.403 289.56 128.181 290.324 135.149 290.324H135.161C177.91 290.324 220.775 262.342 234.872 225.225C249.19 187.488 233.671 145.934 191.15 108.219ZM134.788 216.804C134.659 217.439 134.972 218.077 135.553 218.371C135.755 218.469 135.973 218.519 136.192 218.519C136.59 218.519 136.982 218.349 137.26 218.039C189.605 159.023 164.518 125.147 142.382 95.2633C125.801 72.8809 110.14 51.7373 125.656 22.0933C125.982 21.4708 125.805 20.7029 125.239 20.2826C124.673 19.8623 123.88 19.916 123.387 20.409C53.9997 88.4471 81.536 121.049 108.175 152.576C124.601 172.023 140.119 190.383 134.788 216.804Z" fill="#CD5450"/>
</svg>
