<svg width="120" height="108" viewBox="0 0 120 108" fill="none" xmlns="http://www.w3.org/2000/svg">
<circle cx="11.3191" cy="30.7872" r="6.31915" stroke="#3D3D4D" stroke-width="3.5" stroke-linecap="round" stroke-linejoin="round"/>
<ellipse cx="60.117" cy="27.9787" rx="5.96809" ry="5.61702" stroke="#828299" stroke-width="3.5" stroke-linecap="round" stroke-linejoin="round"/>
<path d="M79.5424 49.4934C79.5424 44.1598 77.6437 39.0446 74.2641 35.2732C70.8844 31.5017 66.3006 29.3829 61.5211 29.3829C56.7415 29.3829 52.1578 31.5017 48.7781 35.2732C45.3985 39.0446 43.4998 44.1598 43.4998 49.4934C43.4998 72.9557 34.4892 79.6592 34.4892 79.6592H88.553C88.553 79.6592 79.5424 72.9557 79.5424 49.4934Z" fill="#292933"/>
<path d="M68.8995 81.7552C68.1496 83.551 67.0731 85.0417 65.778 86.0779C64.4828 87.1141 63.0144 87.6595 61.5198 87.6595C60.0252 87.6595 58.5568 87.1141 57.2617 86.0779C55.9665 85.0417 54.8901 83.551 54.1401 81.7552" fill="#292933"/>
<path d="M81.2976 50.2203C81.2976 68.2545 87.2222 76.7327 90.2814 79.9083C90.7671 80.4126 90.3802 81.4764 89.68 81.4764C88.0927 81.4764 86.5488 81.4764 85.0422 81.4764M68.5814 82.946C67.6854 84.8068 66.3993 86.3513 64.8518 87.425C63.3044 88.4987 61.5499 89.0638 59.7641 89.0638C57.9783 89.0638 56.2239 88.4987 54.6765 87.425C53.129 86.3513 51.8429 84.8068 50.9468 82.946M79.712 42.3723C78.6394 39.8192 77.0439 37.4727 74.991 35.4861C70.953 31.5783 65.4763 29.3829 59.7656 29.3829C54.055 29.3829 48.5783 31.5783 44.5403 35.4861C43.3681 36.6205 42.345 37.8722 41.4832 39.2127C40.4958 40.7487 39.7202 42.4013 39.1747 44.1276C38.5563 46.0847 38.2337 48.1364 38.2337 50.2203C38.2337 53.2503 38.0665 56.0106 37.7737 58.5212M34.8401 70.7608C32.9874 75.4551 30.7688 78.331 29.2526 79.9055C28.767 80.4099 29.155 81.4764 29.8551 81.4764C47.1962 81.4764 59.3571 81.4764 74.1593 81.4764" stroke="#828299" stroke-width="3.5" stroke-linecap="round" stroke-linejoin="round"/>
<path d="M55.6345 59.0737C55.1665 59.7144 54.4949 60.2462 53.6868 60.6159C52.8787 60.9855 51.9625 61.1801 51.0299 61.1801C50.0973 61.1801 49.1811 60.9855 48.373 60.6159C47.5649 60.2462 46.8933 59.7144 46.4254 59.0737" stroke="#828299" stroke-width="3.5" stroke-linecap="round" stroke-linejoin="round"/>
<path d="M73.1877 59.0737C72.7197 59.7144 72.0481 60.2462 71.24 60.6159C70.4319 60.9855 69.5157 61.1801 68.5831 61.1801C67.6506 61.1801 66.7344 60.9855 65.9263 60.6159C65.1182 60.2462 64.4465 59.7144 63.9786 59.0737" stroke="#828299" stroke-width="3.5" stroke-linecap="round" stroke-linejoin="round"/>
<circle cx="107.511" cy="56.0638" r="7.02128" stroke="#3D3D4D" stroke-width="3.5" stroke-linecap="round" stroke-linejoin="round"/>
<circle cx="16.4252" cy="58.1703" r="4.21277" fill="#3D3D4D"/>
<ellipse cx="59.9573" cy="104.511" rx="25.2766" ry="2.80851" fill="#3D3D4D"/>
<path d="M81.5317 18.1489H88.553L81.5317 25.1702H88.553" stroke="#828299" stroke-width="3.5" stroke-linecap="round" stroke-linejoin="round"/>
<path d="M96.6807 2H106.51L96.6807 11.8298H106.51" stroke="#828299" stroke-width="3.5" stroke-linecap="round" stroke-linejoin="round"/>
</svg>
