<svg width="18" height="18" viewBox="0 0 18 18" fill="none" xmlns="http://www.w3.org/2000/svg">
<g clip-path="url(#clip0_3820_8874)">
<path fill-rule="evenodd" clip-rule="evenodd" d="M14.5069 11.7028C13.8794 13.0947 13.6352 14.629 13.7995 16.1469C13.8123 16.2644 13.7936 16.3832 13.7453 16.4911C13.6971 16.599 13.621 16.6922 13.5249 16.761C13.4287 16.8298 13.3161 16.8719 13.1984 16.8828C13.0806 16.8938 12.9621 16.8733 12.855 16.8233L1.97614 11.7505C1.86901 11.7005 1.77711 11.6229 1.70984 11.5257C1.64256 11.4284 1.60234 11.3151 1.59329 11.1972C1.58424 11.0794 1.60669 10.9612 1.65834 10.8549C1.70998 10.7485 1.78897 10.6578 1.88721 10.592C3.1567 9.74144 4.17566 8.56686 4.83852 7.18999L5.96075 4.78335C6.55871 3.50102 7.64159 2.50875 8.97115 2.02482C10.3007 1.5409 11.7681 1.60497 13.0504 2.20293C14.3327 2.80089 15.325 3.88376 15.8089 5.21333C16.2929 6.5429 16.2288 8.01025 15.6308 9.29258L14.5069 11.7028ZM7.81861 16.7707C7.5398 16.8722 7.24191 16.9103 6.94652 16.8825C6.68496 16.8578 6.43081 16.7819 6.19859 16.659C5.96638 16.5361 5.76064 16.3687 5.59313 16.1663C5.42561 15.9639 5.29961 15.7305 5.2223 15.4794C5.145 15.2283 5.11791 14.9644 5.14258 14.7029L8.55853 16.2958C8.35016 16.507 8.09741 16.6692 7.81861 16.7707Z" fill="url(#paint0_linear_3820_8874)"/>
</g>
<defs>
<linearGradient id="paint0_linear_3820_8874" x1="10.5" y1="1.5" x2="10.5" y2="17" gradientUnits="userSpaceOnUse">
<stop stop-color="white"/>
<stop offset="1" stop-color="white" stop-opacity="0.6"/>
</linearGradient>
<clipPath id="clip0_3820_8874">
<rect width="18" height="18" fill="white"/>
</clipPath>
</defs>
</svg>
