<svg width="19" height="18" viewBox="0 0 19 18" fill="none" xmlns="http://www.w3.org/2000/svg">
<path fill-rule="evenodd" clip-rule="evenodd" d="M6.12534 10C7.89751 10 9.33369 7.98052 9.33369 6.20835C9.33369 4.43617 7.89751 3 6.12534 3C4.35316 3 2.91699 4.43617 2.91699 6.20835C2.91699 7.98052 4.35316 10 6.12534 10ZM13.7085 9.41685C12.2589 9.41685 11.0835 7.6581 11.0835 6.20851C11.0835 4.75892 12.2589 3.5835 13.7085 3.5835C15.1581 3.5835 16.3335 4.75892 16.3335 6.20851C16.3335 7.6581 15.1581 9.41685 13.7085 9.41685ZM17.2078 11.2415C16.4547 10.9411 15.2367 10.5835 13.7084 10.5835C12.5819 10.5835 11.6259 10.7783 10.8984 11.0006C12.5866 11.7712 13.4167 13.2546 13.4167 14.7748V15.2502H18.6667V13.4057C18.6667 12.4438 18.0945 11.5944 17.2078 11.2415ZM6.12503 11.167C8.16262 11.167 9.69387 11.7048 10.6196 12.1557C11.6101 12.6382 12.2501 13.6666 12.2501 14.7749V17.0003H0V14.7749C0 13.6666 0.639919 12.6382 1.63042 12.1557C2.55618 11.7048 4.08743 11.167 6.12503 11.167Z" fill="url(#paint0_linear_3896_9109)"/>
<defs>
<linearGradient id="paint0_linear_3896_9109" x1="9.33593" y1="3" x2="9.33593" y2="17" gradientUnits="userSpaceOnUse">
<stop stop-color="#333333"/>
<stop offset="1" stop-color="#333333" stop-opacity="0.6"/>
</linearGradient>
</defs>
</svg>
