<svg width="18" height="18" viewBox="0 0 18 18" fill="none" xmlns="http://www.w3.org/2000/svg">
<path fill-rule="evenodd" clip-rule="evenodd" d="M9.18672 0.04776L17.8083 4.92279C17.8663 4.95539 17.9146 5.00286 17.9483 5.06033C17.9819 5.1178 17.9996 5.1832 17.9996 5.24979C17.9996 5.31638 17.9819 5.38178 17.9483 5.43925C17.9146 5.49672 17.8663 5.54419 17.8083 5.57679L9.18672 10.4518C9.13045 10.4836 9.06692 10.5003 9.00229 10.5003C8.93766 10.5003 8.87413 10.4836 8.81786 10.4518L0.196303 5.57679C0.138256 5.54419 0.0899331 5.49672 0.0563018 5.43925C0.0226705 5.38178 0.00494383 5.31638 0.00494383 5.24979C0.00494383 5.1832 0.0226705 5.1178 0.0563018 5.06033C0.0899331 5.00286 0.138256 4.95539 0.196303 4.92279L8.81786 0.04776C8.87429 0.0164362 8.93776 0 9.00229 0C9.06682 0 9.13029 0.0164362 9.18672 0.04776ZM17.8086 8.67281L16.5941 7.98655L9.92173 11.7576C9.64049 11.9165 9.32297 12 8.99997 12C8.67697 12 8.35945 11.9165 8.07821 11.7576L1.40587 7.9858L0.191359 8.67206C0.133312 8.70465 0.0849893 8.75213 0.051358 8.8096C0.0177267 8.86707 0 8.93246 0 8.99906C0 9.06565 0.0177267 9.13105 0.051358 9.18852C0.0849893 9.24599 0.133312 9.29346 0.191359 9.32606L8.81292 14.2011C8.86919 14.2329 8.93272 14.2496 8.99735 14.2496C9.06198 14.2496 9.12551 14.2329 9.18177 14.2011L17.8033 9.32606C17.8614 9.29346 17.9097 9.24599 17.9433 9.18852C17.977 9.13105 17.9947 9.06565 17.9947 8.99906C17.9947 8.93246 17.977 8.86707 17.9433 8.8096C17.9097 8.75213 17.8614 8.70465 17.8033 8.67206L17.8086 8.67281ZM17.8086 12.4229L16.5941 11.7367L9.92173 15.5077C9.64049 15.6666 9.32297 15.7501 8.99997 15.7501C8.67697 15.7501 8.35945 15.6666 8.07821 15.5077L1.40587 11.7359L0.191359 12.4222C0.133312 12.4548 0.0849893 12.5022 0.051358 12.5597C0.0177267 12.6172 0 12.6826 0 12.7492C0 12.8158 0.0177267 12.8812 0.051358 12.9386C0.0849893 12.9961 0.133312 13.0436 0.191359 13.0762L8.81292 17.9512C8.86919 17.983 8.93272 17.9997 8.99735 17.9997C9.06198 17.9997 9.12551 17.983 9.18177 17.9512L17.8033 13.0762C17.8614 13.0436 17.9097 12.9961 17.9433 12.9386C17.977 12.8812 17.9947 12.8158 17.9947 12.7492C17.9947 12.6826 17.977 12.6172 17.9433 12.5597C17.9097 12.5022 17.8614 12.4548 17.8033 12.4222L17.8086 12.4229Z" fill="url(#paint0_linear_3820_8885)"/>
<defs>
<linearGradient id="paint0_linear_3820_8885" x1="9.00229" y1="0" x2="9.00229" y2="18" gradientUnits="userSpaceOnUse">
<stop stop-color="white"/>
<stop offset="1" stop-color="white" stop-opacity="0.6"/>
</linearGradient>
</defs>
</svg>
