<svg width="18" height="18" viewBox="0 0 18 18" fill="none" xmlns="http://www.w3.org/2000/svg">
<path d="M17.5815 7.42827C16.4275 5.79581 13.2803 2 9.00005 2C4.71983 2 1.5764 5.79581 0.41786 7.42902C0.145939 7.81538 0 8.27631 0 8.74878C0 9.22124 0.145939 9.68217 0.41786 10.0685C1.5764 11.7017 4.71983 15.4976 9.00005 15.4976C13.2803 15.4976 16.4275 11.7017 17.5823 10.0685C17.8542 9.68202 18.0001 9.2209 18 8.74828C17.9999 8.27566 17.8537 7.81463 17.5815 7.42827ZM9.00005 12.4981C8.25851 12.4981 7.53362 12.2782 6.91704 11.8662C6.30047 11.4542 5.81991 10.8687 5.53613 10.1836C5.25236 9.49848 5.17811 8.74462 5.32278 8.01732C5.46744 7.29002 5.82453 6.62196 6.34888 6.09761C6.87324 5.57326 7.5413 5.21617 8.2686 5.0715C8.9959 4.92683 9.74976 5.00108 10.4349 5.28486C11.12 5.56863 11.7055 6.04919 12.1175 6.66577C12.5295 7.28234 12.7494 8.00723 12.7494 8.74878C12.7494 9.74316 12.3544 10.6968 11.6512 11.3999C10.9481 12.1031 9.99444 12.4981 9.00005 12.4981Z" fill="url(#paint0_linear_3821_8412)"/>
<defs>
<linearGradient id="paint0_linear_3821_8412" x1="9.00247" y1="2" x2="9.00247" y2="16" gradientUnits="userSpaceOnUse">
<stop stop-color="white"/>
<stop offset="1" stop-color="white" stop-opacity="0.6"/>
</linearGradient>
</defs>
</svg>
