<svg width="36" height="36" viewBox="0 0 36 36" fill="none" xmlns="http://www.w3.org/2000/svg">
<path d="M18 1C8.61116 1 1 8.61116 1 18C1 27.3888 8.61116 35 18 35C27.3888 35 35 27.3888 35 18C35 8.61116 27.3888 1 18 1Z" fill="#E1E4EA"/>
<path d="M18 1C8.61116 1 1 8.61116 1 18C1 27.3888 8.61116 35 18 35C27.3888 35 35 27.3888 35 18C35 8.61116 27.3888 1 18 1Z" stroke="white" stroke-width="2"/>
<g clip-path="url(#clip0_4206_118621)">
<ellipse cx="18.0002" cy="33.1996" rx="12.8" ry="9.6" fill="white" fill-opacity="0.72"/>
<circle opacity="0.9" cx="17.9996" cy="14.8004" r="6.4" fill="white"/>
</g>
<defs>
<clipPath id="clip0_4206_118621">
<rect x="2" y="2" width="32" height="32" rx="16" fill="white"/>
</clipPath>
</defs>
</svg>
