<svg width="36" height="36" viewBox="0 0 36 36" fill="none" xmlns="http://www.w3.org/2000/svg">
<path d="M18 1C8.61116 1 1 8.61116 1 18C1 27.3888 8.61116 35 18 35C27.3888 35 35 27.3888 35 18C35 8.61116 27.3888 1 18 1Z" fill="#7D52F4" fill-opacity="0.1"/>
<path d="M18 1C8.61116 1 1 8.61116 1 18C1 27.3888 8.61116 35 18 35C27.3888 35 35 27.3888 35 18C35 8.61116 27.3888 1 18 1Z" stroke="white" stroke-width="2"/>
<path d="M17.9996 12.8574C17.644 12.8574 17.3568 13.1447 17.3568 13.5003V13.886C15.8902 14.1833 14.7853 15.4811 14.7853 17.036V17.4137C14.7853 18.3579 14.4378 19.2699 13.811 19.9771L13.6623 20.1438C13.4936 20.3326 13.4534 20.6039 13.5559 20.8349C13.6583 21.0659 13.8893 21.2146 14.1425 21.2146H21.8568C22.1099 21.2146 22.3389 21.0659 22.4434 20.8349C22.5478 20.6039 22.5056 20.3326 22.3369 20.1438L22.1882 19.9771C21.5614 19.2699 21.2139 18.3599 21.2139 17.4137V17.036C21.2139 15.4811 20.109 14.1833 18.6425 13.886V13.5003C18.6425 13.1447 18.3552 12.8574 17.9996 12.8574ZM18.9097 22.7675C19.1507 22.5264 19.2853 22.1989 19.2853 21.8574H17.9996H16.7139C16.7139 22.1989 16.8485 22.5264 17.0896 22.7675C17.3306 23.0085 17.6581 23.1431 17.9996 23.1431C18.3411 23.1431 18.6686 23.0085 18.9097 22.7675Z" fill="#7D52F4"/>
</svg>
