<svg width="36" height="36" viewBox="0 0 36 36" fill="none" xmlns="http://www.w3.org/2000/svg">
<path d="M18 1C8.61116 1 1 8.61116 1 18C1 27.3888 8.61116 35 18 35C27.3888 35 35 27.3888 35 18C35 8.61116 27.3888 1 18 1Z" fill="#E1E4EA"/>
<path d="M18 1C8.61116 1 1 8.61116 1 18C1 27.3888 8.61116 35 18 35C27.3888 35 35 27.3888 35 18C35 8.61116 27.3888 1 18 1Z" stroke="white" stroke-width="2"/>
<g clip-path="url(#clip0_4206_118622)">
<rect x="2" y="2" width="32" height="32" rx="16" fill="#E1E4EA"/>
<rect width="32" height="32" transform="translate(2 2)" fill="#E1E4EA"/>
<g opacity="0.48" filter="url(#filter0_b_4206_118622)">
<path d="M6 16.2289C6 15.3452 6.71634 14.6289 7.59999 14.6289H19.5998C20.4835 14.6289 21.1998 15.3452 21.1998 16.2289V44.229C21.1998 45.1126 20.4835 45.829 19.5998 45.829H7.59999C6.71634 45.829 6 45.1126 6 44.229V16.2289Z" fill="white"/>
</g>
<path d="M9.2002 18.4C9.2002 18.1791 9.37928 18 9.6002 18H12.0002C12.2211 18 12.4002 18.1791 12.4002 18.4V20.8C12.4002 21.0209 12.2211 21.2 12.0002 21.2H9.6002C9.37928 21.2 9.2002 21.0209 9.2002 20.8V18.4Z" fill="#E1E4EA"/>
<path d="M9.2002 23.9996C9.2002 23.7787 9.37928 23.5996 9.6002 23.5996H12.0002C12.2211 23.5996 12.4002 23.7787 12.4002 23.9996V26.3996C12.4002 26.6205 12.2211 26.7996 12.0002 26.7996H9.6002C9.37928 26.7996 9.2002 26.6205 9.2002 26.3996V23.9996Z" fill="#E1E4EA"/>
<path d="M9.2002 29.6002C9.2002 29.3793 9.37928 29.2002 9.6002 29.2002H12.0002C12.2211 29.2002 12.4002 29.3793 12.4002 29.6002V32.0002C12.4002 32.2211 12.2211 32.4002 12.0002 32.4002H9.6002C9.37928 32.4002 9.2002 32.2211 9.2002 32.0002V29.6002Z" fill="#E1E4EA"/>
<g filter="url(#filter1_bi_4206_118622)">
<path d="M14 10.0004C14 9.11673 14.7163 8.40039 15.6 8.40039H27.5998C28.4835 8.40039 29.1998 9.11673 29.1998 10.0004V38.0005C29.1998 38.8841 28.4835 39.6005 27.5998 39.6005H15.6C14.7163 39.6005 14 38.8841 14 38.0005V10.0004Z" fill="white" fill-opacity="0.8"/>
</g>
<path d="M17.2002 12.1715C17.2002 11.9506 17.3793 11.7715 17.6002 11.7715H20.0002C20.2211 11.7715 20.4002 11.9506 20.4002 12.1715V14.5715C20.4002 14.7924 20.2211 14.9715 20.0002 14.9715H17.6002C17.3793 14.9715 17.2002 14.7924 17.2002 14.5715V12.1715Z" fill="#E1E4EA"/>
<path d="M17.2002 17.7711C17.2002 17.5502 17.3793 17.3711 17.6002 17.3711H20.0002C20.2211 17.3711 20.4002 17.5502 20.4002 17.7711V20.1711C20.4002 20.392 20.2211 20.5711 20.0002 20.5711H17.6002C17.3793 20.5711 17.2002 20.392 17.2002 20.1711V17.7711Z" fill="#E1E4EA"/>
<path d="M17.2002 23.3717C17.2002 23.1508 17.3793 22.9717 17.6002 22.9717H20.0002C20.2211 22.9717 20.4002 23.1508 20.4002 23.3717V25.7717C20.4002 25.9926 20.2211 26.1717 20.0002 26.1717H17.6002C17.3793 26.1717 17.2002 25.9926 17.2002 25.7717V23.3717Z" fill="#E1E4EA"/>
<path d="M17.2002 28.9713C17.2002 28.7504 17.3793 28.5713 17.6002 28.5713H20.0002C20.2211 28.5713 20.4002 28.7504 20.4002 28.9713V31.3713C20.4002 31.5922 20.2211 31.7713 20.0002 31.7713H17.6002C17.3793 31.7713 17.2002 31.5922 17.2002 31.3713V28.9713Z" fill="#E1E4EA"/>
<path d="M22.7998 12.1715C22.7998 11.9506 22.9789 11.7715 23.1998 11.7715H25.5998C25.8207 11.7715 25.9998 11.9506 25.9998 12.1715V14.5715C25.9998 14.7924 25.8207 14.9715 25.5998 14.9715H23.1998C22.9789 14.9715 22.7998 14.7924 22.7998 14.5715V12.1715Z" fill="#E1E4EA"/>
<path d="M22.7998 17.7711C22.7998 17.5502 22.9789 17.3711 23.1998 17.3711H25.5998C25.8207 17.3711 25.9998 17.5502 25.9998 17.7711V20.1711C25.9998 20.392 25.8207 20.5711 25.5998 20.5711H23.1998C22.9789 20.5711 22.7998 20.392 22.7998 20.1711V17.7711Z" fill="#E1E4EA"/>
<path d="M22.7998 23.3717C22.7998 23.1508 22.9789 22.9717 23.1998 22.9717H25.5998C25.8207 22.9717 25.9998 23.1508 25.9998 23.3717V25.7717C25.9998 25.9926 25.8207 26.1717 25.5998 26.1717H23.1998C22.9789 26.1717 22.7998 25.9926 22.7998 25.7717V23.3717Z" fill="#E1E4EA"/>
<path d="M22.7998 28.9713C22.7998 28.7504 22.9789 28.5713 23.1998 28.5713H25.5998C25.8207 28.5713 25.9998 28.7504 25.9998 28.9713V31.3713C25.9998 31.5922 25.8207 31.7713 25.5998 31.7713H23.1998C22.9789 31.7713 22.7998 31.5922 22.7998 31.3713V28.9713Z" fill="#E1E4EA"/>
</g>
<defs>
<filter id="filter0_b_4206_118622" x="2.00002" y="10.6289" width="23.2002" height="39.2002" filterUnits="userSpaceOnUse" color-interpolation-filters="sRGB">
<feFlood flood-opacity="0" result="BackgroundImageFix"/>
<feGaussianBlur in="BackgroundImageFix" stdDeviation="1.99999"/>
<feComposite in2="SourceAlpha" operator="in" result="effect1_backgroundBlur_4206_118622"/>
<feBlend mode="normal" in="SourceGraphic" in2="effect1_backgroundBlur_4206_118622" result="shape"/>
</filter>
<filter id="filter1_bi_4206_118622" x="6" y="0.400391" width="31.2002" height="47.2002" filterUnits="userSpaceOnUse" color-interpolation-filters="sRGB">
<feFlood flood-opacity="0" result="BackgroundImageFix"/>
<feGaussianBlur in="BackgroundImageFix" stdDeviation="4"/>
<feComposite in2="SourceAlpha" operator="in" result="effect1_backgroundBlur_4206_118622"/>
<feBlend mode="normal" in="SourceGraphic" in2="effect1_backgroundBlur_4206_118622" result="shape"/>
<feColorMatrix in="SourceAlpha" type="matrix" values="0 0 0 0 0 0 0 0 0 0 0 0 0 0 0 0 0 0 127 0" result="hardAlpha"/>
<feOffset dy="4"/>
<feGaussianBlur stdDeviation="2"/>
<feComposite in2="hardAlpha" operator="arithmetic" k2="-1" k3="1"/>
<feColorMatrix type="matrix" values="0 0 0 0 1 0 0 0 0 1 0 0 0 0 1 0 0 0 0.25 0"/>
<feBlend mode="normal" in2="shape" result="effect2_innerShadow_4206_118622"/>
</filter>
<clipPath id="clip0_4206_118622">
<rect x="2" y="2" width="32" height="32" rx="16" fill="white"/>
</clipPath>
</defs>
</svg>
