<svg width="36" height="36" viewBox="0 0 36 36" fill="none" xmlns="http://www.w3.org/2000/svg">
<path d="M18 1C8.61116 1 1 8.61116 1 18C1 27.3888 8.61116 35 18 35C27.3888 35 35 27.3888 35 18C35 8.61116 27.3888 1 18 1Z" fill="#FB3748" fill-opacity="0.1"/>
<path d="M18 1C8.61116 1 1 8.61116 1 18C1 27.3888 8.61116 35 18 35C27.3888 35 35 27.3888 35 18C35 8.61116 27.3888 1 18 1Z" stroke="white" stroke-width="2"/>
<path d="M18 25C14.1339 25 11 21.8661 11 18C11 14.1339 14.1339 11 18 11C21.8661 11 25 14.1339 25 18C25 21.8661 21.8661 25 18 25ZM18 23.6C19.4852 23.6 20.9096 23.01 21.9598 21.9598C23.01 20.9096 23.6 19.4852 23.6 18C23.6 16.5148 23.01 15.0904 21.9598 14.0402C20.9096 12.99 19.4852 12.4 18 12.4C16.5148 12.4 15.0904 12.99 14.0402 14.0402C12.99 15.0904 12.4 16.5148 12.4 18C12.4 19.4852 12.99 20.9096 14.0402 21.9598C15.0904 23.01 16.5148 23.6 18 23.6ZM18 17.0102L19.9796 15.0299L20.9701 16.0204L18.9898 18L20.9701 19.9796L19.9796 20.9701L18 18.9898L16.0204 20.9701L15.0299 19.9796L17.0102 18L15.0299 16.0204L16.0204 15.0299L18 17.0102Z" fill="#FB3748"/>
</svg>
