<svg width="36" height="36" viewBox="0 0 36 36" fill="none" xmlns="http://www.w3.org/2000/svg">
<path d="M18 1C8.61116 1 1 8.61116 1 18C1 27.3888 8.61116 35 18 35C27.3888 35 35 27.3888 35 18C35 8.61116 27.3888 1 18 1Z" fill="#FB3748" fill-opacity="0.1"/>
<path d="M18 1C8.61116 1 1 8.61116 1 18C1 27.3888 8.61116 35 18 35C27.3888 35 35 27.3888 35 18C35 8.61116 27.3888 1 18 1Z" stroke="white" stroke-width="2"/>
<path d="M18 25.5C13.8578 25.5 10.5 22.1423 10.5 18C10.5 13.8578 13.8578 10.5 18 10.5C22.1423 10.5 25.5 13.8578 25.5 18C25.5 22.1423 22.1423 25.5 18 25.5ZM17.25 20.25V21.75H18.75V20.25H17.25ZM17.25 14.25V18.75H18.75V14.25H17.25Z" fill="#FB3748"/>
</svg>