<svg width="36" height="36" viewBox="0 0 36 36" fill="none" xmlns="http://www.w3.org/2000/svg">
<path d="M18 1C8.61116 1 1 8.61116 1 18C1 27.3888 8.61116 35 18 35C27.3888 35 35 27.3888 35 18C35 8.61116 27.3888 1 18 1Z" fill="#335CFF" fill-opacity="0.1"/>
<path d="M18 1C8.61116 1 1 8.61116 1 18C1 27.3888 8.61116 35 18 35C27.3888 35 35 27.3888 35 18C35 8.61116 27.3888 1 18 1Z" stroke="white" stroke-width="2"/>
<path d="M18 24.25C14.5482 24.25 11.75 21.4517 11.75 18C11.75 14.5482 14.5482 11.75 18 11.75C21.4517 11.75 24.25 14.5482 24.25 18C24.25 21.4517 21.4517 24.25 18 24.25ZM18 23C20.7614 23 23 20.7614 23 18C23 15.2386 20.7614 13 18 13C15.2386 13 13 15.2386 13 18C13 20.7614 15.2386 23 18 23ZM18.625 17.0625V19.875H19.25V21.125H16.75V19.875H17.375V18.3125H16.75V17.0625H18.625ZM18.9375 15.5C18.9375 16.0178 18.5177 16.4375 18 16.4375C17.4823 16.4375 17.0625 16.0178 17.0625 15.5C17.0625 14.9822 17.4823 14.5625 18 14.5625C18.5177 14.5625 18.9375 14.9822 18.9375 15.5Z" fill="#335CFF"/>
</svg>
