<svg width="36" height="36" viewBox="0 0 36 36" fill="none" xmlns="http://www.w3.org/2000/svg">
<path d="M18 1C8.61116 1 1 8.61116 1 18C1 27.3888 8.61116 35 18 35C27.3888 35 35 27.3888 35 18C35 8.61116 27.3888 1 18 1Z" fill="#F2F5F8"/>
<path d="M18 1C8.61116 1 1 8.61116 1 18C1 27.3888 8.61116 35 18 35C27.3888 35 35 27.3888 35 18C35 8.61116 27.3888 1 18 1Z" stroke="white" stroke-width="2"/>
<path fill-rule="evenodd" clip-rule="evenodd" d="M18 24.25C21.4518 24.25 24.25 21.4518 24.25 18C24.25 14.5482 21.4518 11.75 18 11.75C14.5482 11.75 11.75 14.5482 11.75 18C11.75 21.4518 14.5482 24.25 18 24.25ZM19.1158 21.2086L19.2156 20.8006C19.164 20.8249 19.0807 20.8526 18.9665 20.8841C18.852 20.9157 18.7489 20.9318 18.6583 20.9318C18.4654 20.9318 18.3295 20.9001 18.2507 20.8366C18.1724 20.773 18.1333 20.6534 18.1333 20.4783C18.1333 20.4089 18.1451 20.3054 18.1697 20.17C18.1936 20.0337 18.2211 19.9126 18.2516 19.8067L18.6242 18.4876C18.6607 18.3665 18.6857 18.2334 18.6992 18.0882C18.7129 17.9432 18.7193 17.8418 18.7193 17.7843C18.7193 17.5061 18.6218 17.2804 18.4268 17.1063C18.2317 16.9323 17.9539 16.8453 17.594 16.8453C17.3937 16.8453 17.1819 16.8809 16.9578 16.952C16.7336 17.0229 16.4993 17.1084 16.2542 17.2082L16.1541 17.6165C16.2272 17.5895 16.3142 17.5604 16.416 17.5303C16.5173 17.5004 16.6167 17.4849 16.7135 17.4849C16.911 17.4849 17.044 17.5186 17.1137 17.5849C17.1834 17.6514 17.2184 17.7697 17.2184 17.9388C17.2184 18.0324 17.2074 18.1363 17.1844 18.2492C17.1617 18.3628 17.1334 18.483 17.1001 18.6098L16.726 19.9342C16.6927 20.0734 16.6683 20.1979 16.653 20.3084C16.6379 20.4189 16.6306 20.5272 16.6306 20.6326C16.6306 20.9048 16.7311 21.1292 16.9322 21.3063C17.1333 21.4826 17.4152 21.5714 17.7777 21.5714C18.0137 21.5714 18.2209 21.5406 18.3992 21.4785C18.5773 21.4167 18.8164 21.3268 19.1158 21.2086ZM19.0495 15.8502C19.2235 15.6888 19.3101 15.4925 19.3101 15.2627C19.3101 15.0334 19.2236 14.8367 19.0495 14.6733C18.8758 14.5103 18.6666 14.4286 18.4219 14.4286C18.1765 14.4286 17.9664 14.5101 17.7911 14.6733C17.6158 14.8367 17.528 15.0333 17.528 15.2627C17.528 15.4925 17.6158 15.6888 17.7911 15.8502C17.9667 16.0122 18.1764 16.0932 18.4219 16.0932C18.6666 16.0932 18.8758 16.0122 19.0495 15.8502Z" fill="#CACFD8"/>
</svg>
