<svg width="36" height="36" viewBox="0 0 36 36" fill="none" xmlns="http://www.w3.org/2000/svg">
<path d="M18 1C8.61116 1 1 8.61116 1 18C1 27.3888 8.61116 35 18 35C27.3888 35 35 27.3888 35 18C35 8.61116 27.3888 1 18 1Z" fill="#E1E4EA"/>
<path d="M18 1C8.61116 1 1 8.61116 1 18C1 27.3888 8.61116 35 18 35C27.3888 35 35 27.3888 35 18C35 8.61116 27.3888 1 18 1Z" stroke="white" stroke-width="2"/>
<path d="M2 18C2 9.16344 9.16344 2 18 2C26.8366 2 34 9.16344 34 18C34 26.8366 26.8366 34 18 34C9.16344 34 2 26.8366 2 18Z" fill="#F4F5F6"/>
<path fill-rule="evenodd" clip-rule="evenodd" d="M24.48 15.6195C24.48 16.2645 23.697 16.584 23.2455 16.1228L14.007 6.68025C15.2898 6.22888 16.6401 5.99886 18 6C20.3872 6 22.611 6.6975 24.48 7.89825V15.6195ZM27.84 11.13V15.6195C27.84 19.2758 23.4007 21.0863 20.844 18.4725L10.9088 8.31825C7.932 10.5023 6 14.0258 6 18C6 20.5553 6.79875 22.9238 8.16 24.87V20.4045C8.16 16.7483 12.5993 14.9378 15.156 17.5515L25.0778 27.6915C28.062 25.509 30 21.981 30 18C30 15.4448 29.2013 13.0763 27.84 11.13ZM12.7545 19.9013L21.9757 29.325C20.7315 29.7623 19.3935 30 18 30C15.6135 30 13.389 29.3025 11.52 28.1018V20.4045C11.52 19.7595 12.3037 19.44 12.7545 19.9013Z" fill="url(#paint0_radial_4206_118626)"/>
<path fill-rule="evenodd" clip-rule="evenodd" d="M24.48 15.6195C24.48 16.2645 23.697 16.584 23.2455 16.1228L14.007 6.68025C15.2898 6.22888 16.6401 5.99886 18 6C20.3872 6 22.611 6.6975 24.48 7.89825V15.6195ZM27.84 11.13V15.6195C27.84 19.2758 23.4007 21.0863 20.844 18.4725L10.9088 8.31825C7.932 10.5023 6 14.0258 6 18C6 20.5553 6.79875 22.9238 8.16 24.87V20.4045C8.16 16.7483 12.5993 14.9378 15.156 17.5515L25.0778 27.6915C28.062 25.509 30 21.981 30 18C30 15.4448 29.2013 13.0763 27.84 11.13ZM12.7545 19.9013L21.9757 29.325C20.7315 29.7623 19.3935 30 18 30C15.6135 30 13.389 29.3025 11.52 28.1018V20.4045C11.52 19.7595 12.3037 19.44 12.7545 19.9013Z" fill="url(#paint1_linear_4206_118626)"/>
<path fill-rule="evenodd" clip-rule="evenodd" d="M24.48 15.6195C24.48 16.2645 23.697 16.584 23.2455 16.1228L14.007 6.68025C15.2898 6.22888 16.6401 5.99886 18 6C20.3872 6 22.611 6.6975 24.48 7.89825V15.6195ZM27.84 11.13V15.6195C27.84 19.2758 23.4007 21.0863 20.844 18.4725L10.9088 8.31825C7.932 10.5023 6 14.0258 6 18C6 20.5553 6.79875 22.9238 8.16 24.87V20.4045C8.16 16.7483 12.5993 14.9378 15.156 17.5515L25.0778 27.6915C28.062 25.509 30 21.981 30 18C30 15.4448 29.2013 13.0763 27.84 11.13ZM12.7545 19.9013L21.9757 29.325C20.7315 29.7623 19.3935 30 18 30C15.6135 30 13.389 29.3025 11.52 28.1018V20.4045C11.52 19.7595 12.3037 19.44 12.7545 19.9013Z" fill="url(#paint2_linear_4206_118626)"/>
<defs>
<radialGradient id="paint0_radial_4206_118626" cx="0" cy="0" r="1" gradientUnits="userSpaceOnUse" gradientTransform="translate(17.9998 18.0005) rotate(135) scale(16.9705)">
<stop offset="0.34" stop-color="#FF006A"/>
<stop offset="0.613" stop-color="#E300BD"/>
<stop offset="0.767" stop-color="#FF4CE1"/>
</radialGradient>
<linearGradient id="paint1_linear_4206_118626" x1="20.7997" y1="5.19975" x2="18" y2="30" gradientUnits="userSpaceOnUse">
<stop offset="0.085" stop-color="#FFBA33"/>
<stop offset="0.553" stop-color="#FF006A" stop-opacity="0"/>
</linearGradient>
<linearGradient id="paint2_linear_4206_118626" x1="18" y1="6" x2="18" y2="30" gradientUnits="userSpaceOnUse">
<stop offset="0.547" stop-color="white" stop-opacity="0"/>
<stop offset="1" stop-color="white" stop-opacity="0.6"/>
</linearGradient>
</defs>
</svg>
