<svg width="36" height="36" viewBox="0 0 36 36" fill="none" xmlns="http://www.w3.org/2000/svg">
<path d="M18 1C8.61116 1 1 8.61116 1 18C1 27.3888 8.61116 35 18 35C27.3888 35 35 27.3888 35 18C35 8.61116 27.3888 1 18 1Z" fill="#F6B51E" fill-opacity="0.1"/>
<path d="M18 1C8.61116 1 1 8.61116 1 18C1 27.3888 8.61116 35 18 35C27.3888 35 35 27.3888 35 18C35 8.61116 27.3888 1 18 1Z" stroke="white" stroke-width="2"/>
<path d="M18 25.5C13.8578 25.5 10.5 22.1423 10.5 18C10.5 13.8578 13.8578 10.5 18 10.5C22.1423 10.5 25.5 13.8578 25.5 18C25.5 22.1423 22.1423 25.5 18 25.5ZM18 24C19.5913 24 21.1174 23.3679 22.2426 22.2426C23.3679 21.1174 24 19.5913 24 18C24 16.4087 23.3679 14.8826 22.2426 13.7574C21.1174 12.6321 19.5913 12 18 12C16.4087 12 14.8826 12.6321 13.7574 13.7574C12.6321 14.8826 12 16.4087 12 18C12 19.5913 12.6321 21.1174 13.7574 22.2426C14.8826 23.3679 16.4087 24 18 24ZM17.25 20.25H18.75V21.75H17.25V20.25ZM18.75 19.0162V19.5H17.25V18.375C17.25 18.1761 17.329 17.9853 17.4697 17.8447C17.6103 17.704 17.8011 17.625 18 17.625C18.2131 17.625 18.4217 17.5645 18.6017 17.4505C18.7818 17.3365 18.9257 17.1738 19.0168 16.9812C19.108 16.7886 19.1425 16.5741 19.1165 16.3626C19.0905 16.1512 19.005 15.9514 18.8699 15.7867C18.7348 15.6219 18.5557 15.4989 18.3534 15.432C18.1511 15.365 17.934 15.3569 17.7273 15.4085C17.5206 15.4602 17.3328 15.5694 17.1858 15.7236C17.0387 15.8778 16.9385 16.0706 16.8968 16.2795L15.4253 15.9847C15.5165 15.5288 15.7271 15.1053 16.0357 14.7574C16.3442 14.4096 16.7396 14.1499 17.1814 14.005C17.6232 13.86 18.0956 13.835 18.5503 13.9325C19.0049 14.0299 19.4255 14.2463 19.7691 14.5596C20.1127 14.8729 20.3669 15.2718 20.5058 15.7155C20.6447 16.1593 20.6633 16.632 20.5596 17.0852C20.456 17.5385 20.2338 17.9561 19.9159 18.2954C19.5979 18.6347 19.1956 18.8834 18.75 19.0162Z" fill="#F6B51E"/>
</svg>
