<svg width="36" height="36" viewBox="0 0 36 36" fill="none" xmlns="http://www.w3.org/2000/svg">
<path d="M18 1C8.61116 1 1 8.61116 1 18C1 27.3888 8.61116 35 18 35C27.3888 35 35 27.3888 35 18C35 8.61116 27.3888 1 18 1Z" fill="#FF8447" fill-opacity="0.1"/>
<path d="M18 1C8.61116 1 1 8.61116 1 18C1 27.3888 8.61116 35 18 35C27.3888 35 35 27.3888 35 18C35 8.61116 27.3888 1 18 1Z" stroke="white" stroke-width="2"/>
<path d="M21.7597 22.4998H14.2407C14.1186 22.4997 13.9986 22.466 13.8924 22.4019C13.7862 22.3379 13.6975 22.2456 13.635 22.1342C13.5724 22.0228 13.538 21.8961 13.5353 21.7664C13.5326 21.6367 13.5616 21.5085 13.6195 21.3943L17.379 13.9768C17.4395 13.8577 17.5292 13.7583 17.6385 13.6889C17.7479 13.6196 17.8729 13.583 18.0002 13.583C18.1275 13.583 18.2525 13.6196 18.3619 13.6889C18.4712 13.7583 18.5609 13.8577 18.6214 13.9768L22.3809 21.3943C22.4388 21.5085 22.4678 21.6367 22.4651 21.7664C22.4624 21.8961 22.428 22.0228 22.3654 22.1342C22.3029 22.2456 22.2141 22.3379 22.108 22.4019C22.0018 22.466 21.8818 22.4997 21.7597 22.4998Z" fill="#FF8447"/>
<path d="M18.2682 20.25C18.2682 20.448 18.1234 20.5625 17.9998 20.5625C17.8762 20.5625 17.7314 20.448 17.7314 20.25C17.7314 20.052 17.8762 19.9375 17.9998 19.9375C18.1234 19.9375 18.2682 20.052 18.2682 20.25Z" stroke="white" stroke-width="0.875"/>
<path d="M18 16.5V18.375" stroke="white" stroke-width="1.09375" stroke-linecap="round"/>
</svg>
