<svg xmlns="http://www.w3.org/2000/svg" width="151.559" height="58.925" viewBox="0 0 151.559 58.925">
  <g id="Group_13173" data-name="Group 13173" transform="translate(-240 -8930.324)">
    <path id="Path_14029" data-name="Path 14029" d="M385.437,6668.5a34.6,34.6,0,0,1-5.724-.364c-1.092-.2-1.588-.563-1.588-1.787V6645.5c0-1.191.43-1.621,1.489-1.787a41.251,41.251,0,0,1,5.525-.331c5.988,0,10.19,1.721,10.19,6.717v.661a5.18,5.18,0,0,1-3.043,5,5.089,5.089,0,0,1,3.209,5.029v.562C395.495,6666.611,391.591,6668.5,385.437,6668.5Zm5.426-18.131c0-2.316-1.489-3.176-5.724-3.176-.794,0-1.72.033-2.415.066v6.716h4.2c3.077,0,3.937-1.455,3.937-3.142Zm.132,10.488c0-1.819-.959-3.507-4.069-3.507h-4.2v7.279c.794,0,2.018.066,2.713.066,4.235,0,5.558-1.092,5.558-3.408Z" transform="translate(-138.125 2300.636)" fill="#002b3c"/>
    <path id="Path_14030" data-name="Path 14030" d="M411.963,6668.232h-3.044a.664.664,0,0,1-.662-.662v-.761a8.53,8.53,0,0,1-5.194,1.655,5.637,5.637,0,0,1-4.07-1.39c-1.224-1.224-1.654-3.275-1.654-6.021v-10.786a.693.693,0,0,1,.662-.7h3.044a.692.692,0,0,1,.661.7v10.786c0,1.654.133,2.614.761,3.176a2.87,2.87,0,0,0,2.052.6,9.344,9.344,0,0,0,3.738-1.323v-13.234a.693.693,0,0,1,.662-.7h3.044a.692.692,0,0,1,.661.7v17.3A.663.663,0,0,1,411.963,6668.232Z" transform="translate(-138.125 2300.636)" fill="#002b3c"/>
    <path id="Path_14031" data-name="Path 14031" d="M425.246,6653.046a15.732,15.732,0,0,0-5.938,1.534v12.958a.692.692,0,0,1-.662.694H415.6a.692.692,0,0,1-.662-.694v-17.3a.664.664,0,0,1,.662-.662h2.879a.663.663,0,0,1,.661.662v.7c1.622-1.257,4.781-1.588,6.1-1.588a.663.663,0,0,1,.662.661v2.382A.664.664,0,0,1,425.246,6653.046Z" transform="translate(-138.125 2300.636)" fill="#002b3c"/>
    <path id="Path_14032" data-name="Path 14032" d="M433.668,6668.5a30.391,30.391,0,0,1-6.265-.662.748.748,0,0,1-.629-.761v-1.985a.551.551,0,0,1,.562-.529h.133c1.588.2,4.909.364,5.9.364,2.052,0,2.349-.695,2.349-1.588,0-.629-.4-1.026-1.455-1.688l-4.533-2.779a6.031,6.031,0,0,1-2.779-4.909c0-3.308,2.084-4.962,6.286-4.962a24.5,24.5,0,0,1,5.889.661.721.721,0,0,1,.6.761v1.919c0,.4-.2.629-.53.629h-.132a48.62,48.62,0,0,0-5.459-.4c-1.588,0-2.283.364-2.283,1.389a2.364,2.364,0,0,0,1.324,1.7l4.334,2.647c2.779,1.687,3.176,3.341,3.176,5.029C440.153,6666.214,438,6668.5,433.668,6668.5Z" transform="translate(-138.125 2300.636)" fill="#002b3c"/>
    <path id="Path_14033" data-name="Path 14033" d="M452.262,6668.265a13.62,13.62,0,0,1-2.25.232c-3.738,0-5.26-.827-5.26-5.261v-10.388l-3.11-.12a.711.711,0,0,1-.662-.662v-1.832a.664.664,0,0,1,.662-.662h3.11v-4.428a.711.711,0,0,1,.661-.662l3.077-.53h.133a.478.478,0,0,1,.529.5v5.123h2.978a.663.663,0,0,1,.661.662v1.952a.663.663,0,0,1-.661.662h-2.978v10.388c0,1.655.1,1.853,1.29,1.853H452.2c.43,0,.695.166.695.5v2.085C452.891,6668,452.692,6668.2,452.262,6668.265Z" transform="translate(-138.125 2300.636)" fill="#002b3c"/>
    <path id="Path_14034" data-name="Path 14034" d="M492.614,6629.688c-20.473,0-37.069,11.647-37.069,26.015,0,8.258,5.484,15.617,14.034,20.382l-6.174,12.528,16.182-8.549a51.216,51.216,0,0,0,13.027,1.654c20.473,0,37.07-11.647,37.07-26.015S513.087,6629.688,492.614,6629.688ZM471.981,6668.5a25.359,25.359,0,0,1-5.856-.6.708.708,0,0,1-.628-.662v-2.382a.629.629,0,0,1,.628-.629h.067c1.323.165,4.632.331,5.856.331,2.944,0,3.838-1.059,3.838-2.978,0-1.29-.629-1.952-2.813-3.242l-4.367-2.614c-3.077-1.82-3.9-3.739-3.9-6.054,0-3.64,2.118-6.287,8.271-6.287a36.919,36.919,0,0,1,6.353.6.67.67,0,0,1,.6.629v2.448a.565.565,0,0,1-.562.595h-.066c-2.184-.2-4.368-.33-6.518-.33-2.448,0-3.474.86-3.474,2.349,0,1.091.562,1.753,2.713,2.944l3.97,2.217c3.639,2.018,4.6,4.135,4.6,6.749C480.683,6664.924,478.6,6668.5,471.981,6668.5Zm30.6-.761a.5.5,0,0,1-.562.5h-3.342a.625.625,0,0,1-.529-.662v-15.384c0-.232-.033-.331-.1-.331-.034,0-.1.1-.166.2l-4.2,9.064a1.2,1.2,0,0,1-1.059.563H491.34a1.193,1.193,0,0,1-1.058-.563l-4.239-9.064c-.066-.1-.133-.2-.166-.2-.066,0-.1.1-.1.331v15.384a.626.626,0,0,1-.529.662h-3.342a.5.5,0,0,1-.562-.5v-22.762a1.327,1.327,0,0,1,1.323-1.324h2.713a1.392,1.392,0,0,1,1.224.794l5,10.124c.165.3.232.463.364.463s.2-.165.364-.463l5-10.124a1.391,1.391,0,0,1,1.224-.794h2.713a1.327,1.327,0,0,1,1.323,1.324Zm7.842.761a25.346,25.346,0,0,1-5.856-.6.708.708,0,0,1-.629-.662v-2.382a.629.629,0,0,1,.629-.629h.066c1.323.165,4.632.331,5.856.331,2.944,0,3.838-1.059,3.838-2.978,0-1.29-.629-1.952-2.812-3.242l-4.368-2.614c-3.077-1.82-3.9-3.739-3.9-6.054,0-3.64,2.118-6.287,8.272-6.287a36.915,36.915,0,0,1,6.352.6.671.671,0,0,1,.6.629v2.448a.565.565,0,0,1-.563.595h-.066c-2.184-.2-4.367-.33-6.518-.33-2.448,0-3.474.86-3.474,2.349,0,1.091.563,1.753,2.713,2.944l3.97,2.217c3.64,2.018,4.6,4.135,4.6,6.749C519.128,6664.924,517.044,6668.5,510.427,6668.5Z" transform="translate(-138.125 2300.636)" fill="#1cb9ce"/>
  </g>
</svg>
