<svg xmlns="http://www.w3.org/2000/svg" width="124" height="24" viewBox="0 0 124 24" fill="none">
  <g clip-path="url(#clip0)">
    <path d="M26.2421 2.00999C24.2367 1.07101 22.0925 0.388566 19.8509 2.28882e-05C19.5755 0.498155 19.2539 1.16814 19.0322 1.70114C16.6492 1.34249 14.2881 1.34249 11.949 1.70114C11.7273 1.16814 11.3983 0.498155 11.1206 2.28882e-05C8.87648 0.388566 6.72984 1.0735 4.72453 2.01497C0.679785 8.13203 -0.41668 14.0972 0.131553 19.9776C2.81424 21.9826 5.41408 23.2005 7.97006 23.9975C8.60114 23.1283 9.16399 22.2043 9.64888 21.2304C8.72541 20.8792 7.84093 20.4459 7.00517 19.9427C7.2269 19.7784 7.44376 19.6065 7.65331 19.4297C12.7507 21.8157 18.289 21.8157 23.3255 19.4297C23.5374 19.6065 23.7543 19.7784 23.9736 19.9427C23.1354 20.4483 22.2485 20.8817 21.325 21.2329C21.8099 22.2043 22.3703 23.1308 23.0038 24C25.5622 23.203 28.1645 21.9851 30.8472 19.9776C31.4905 13.1607 29.7483 7.25033 26.2421 2.00999ZM10.3433 16.3612C8.81313 16.3612 7.55828 14.9315 7.55828 13.1906C7.55828 11.4496 8.78632 10.0175 10.3433 10.0175C11.9003 10.0175 13.1551 11.4471 13.1283 13.1906C13.1308 14.9315 11.9003 16.3612 10.3433 16.3612ZM20.6355 16.3612C19.1053 16.3612 17.8504 14.9315 17.8504 13.1906C17.8504 11.4496 19.0785 10.0175 20.6355 10.0175C22.1924 10.0175 23.4473 11.4471 23.4205 13.1906C23.4205 14.9315 22.1924 16.3612 20.6355 16.3612Z" fill="#5865F2"/>
    <path d="M41.6289 6.12257H48.2808C49.8841 6.12257 51.2388 6.37911 52.3499 6.88969C53.4586 7.40028 54.2894 8.11261 54.8401 9.02419C55.3908 9.93577 55.6686 10.9794 55.6686 12.1549C55.6686 13.3056 55.381 14.3492 54.806 15.2832C54.231 16.2197 53.3562 16.9594 52.1794 17.5049C51.0025 18.0503 49.5454 18.3243 47.8032 18.3243H41.6289V6.12257ZM47.735 15.2234C48.8144 15.2234 49.6453 14.947 50.2252 14.3965C50.8051 13.8436 51.0951 13.0914 51.0951 12.1375C51.0951 11.2533 50.8368 10.5485 50.3202 10.0205C49.8037 9.49243 49.0215 9.22593 47.9762 9.22593H45.8954V15.2234H47.735Z" fill="#5865F2"/>
    <path d="M65.6272 18.3094C64.7061 18.0653 63.8753 17.7116 63.137 17.2459V14.3517C63.695 14.7926 64.443 15.1562 65.3811 15.4427C66.3192 15.7266 67.2256 15.8686 68.1027 15.8686C68.5121 15.8686 68.8215 15.8138 69.0311 15.7042C69.2406 15.5946 69.3454 15.4626 69.3454 15.3107C69.3454 15.1363 69.2894 14.9918 69.1748 14.8748C69.0603 14.7577 68.8386 14.6606 68.5097 14.5784L66.4629 14.1077C65.2909 13.8287 64.46 13.4427 63.9654 12.947C63.4708 12.4539 63.2247 11.8063 63.2247 11.0043C63.2247 10.3293 63.4391 9.74402 63.8728 9.2434C64.3041 8.74278 64.9181 8.35673 65.7149 8.08525C66.5117 7.81127 67.4424 7.67429 68.5121 7.67429C69.4672 7.67429 70.342 7.77889 71.1387 7.98811C71.9355 8.19733 72.5934 8.46383 73.1172 8.7901V11.5273C72.5812 11.2011 71.9672 10.9445 71.2654 10.7503C70.5661 10.5585 69.8473 10.4638 69.1066 10.4638C68.037 10.4638 67.5033 10.6506 67.5033 11.0217C67.5033 11.1961 67.5862 11.3256 67.7519 11.4128C67.9176 11.4999 68.2221 11.5896 68.6632 11.6842L70.3688 11.9981C71.4823 12.1948 72.3132 12.541 72.859 13.0342C73.4048 13.5273 73.6777 14.2571 73.6777 15.2235C73.6777 16.282 73.2269 17.1214 72.3229 17.744C71.4189 18.3667 70.1373 18.678 68.4755 18.678C67.4985 18.6755 66.5482 18.5535 65.6272 18.3094Z" fill="#5865F2"/>
    <path d="M77.7031 17.9432C76.726 17.455 75.9877 16.7925 75.4955 15.9556C75.0033 15.1188 74.7548 14.1773 74.7548 13.1312C74.7548 12.0851 75.0106 11.1487 75.5223 10.3243C76.034 9.49984 76.7845 8.85227 77.7737 8.38154C78.763 7.9108 79.9447 7.67668 81.3214 7.67668C83.027 7.67668 84.4427 8.04281 85.5684 8.77506V11.9656C85.1712 11.6866 84.7083 11.46 84.1795 11.2856C83.6508 11.1113 83.0855 11.0241 82.4812 11.0241C81.4238 11.0241 80.5977 11.2209 80.0008 11.6169C79.4038 12.0129 79.1041 12.5285 79.1041 13.1686C79.1041 13.7962 79.3941 14.3093 79.974 14.7128C80.5539 15.1138 81.3945 15.3155 82.4983 15.3155C83.066 15.3155 83.6264 15.2309 84.1795 15.064C84.7302 14.8946 85.2053 14.6879 85.6025 14.4438V17.5297C84.3525 18.2969 82.9028 18.6804 81.2532 18.6804C79.8643 18.6754 78.6801 18.4314 77.7031 17.9432Z" fill="#5865F2"/>
    <path d="M89.8227 17.9433C88.8383 17.4551 88.0878 16.7877 87.5713 15.9383C87.0547 15.089 86.794 14.1426 86.794 13.0965C86.794 12.0504 87.0523 11.1164 87.5713 10.297C88.0903 9.47756 88.8359 8.83497 89.8154 8.36922C90.7925 7.90347 91.9596 7.67183 93.3119 7.67183C94.6642 7.67183 95.8313 7.90347 96.8084 8.36922C97.7855 8.83497 98.5311 9.47258 99.0428 10.287C99.5544 11.1015 99.8103 12.0355 99.8103 13.094C99.8103 14.1401 99.5544 15.0865 99.0428 15.9358C98.5311 16.7852 97.783 17.4527 96.7987 17.9408C95.8143 18.429 94.652 18.6731 93.3095 18.6731C91.9669 18.6731 90.8046 18.4315 89.8227 17.9433ZM95.0053 14.8499C95.4195 14.4265 95.6291 13.8661 95.6291 13.1687C95.6291 12.4713 95.422 11.9159 95.0053 11.505C94.5911 11.0915 94.0258 10.8848 93.3095 10.8848C92.5809 10.8848 92.0108 11.0915 91.5941 11.505C91.1799 11.9184 90.9728 12.4713 90.9728 13.1687C90.9728 13.8661 91.1799 14.4265 91.5941 14.8499C92.0083 15.2733 92.5809 15.4875 93.3095 15.4875C94.0258 15.485 94.5911 15.2733 95.0053 14.8499Z" fill="#5865F2"/>
    <path d="M110.059 8.31932V12.0852C109.625 11.7938 109.065 11.6493 108.37 11.6493C107.461 11.6493 106.76 11.9308 106.272 12.4937C105.782 13.0566 105.539 13.9333 105.539 15.1188V18.3268H101.36V8.12754H105.454V11.3704C105.68 10.1848 106.048 9.3106 106.555 8.74522C107.059 8.18233 107.712 7.90089 108.507 7.90089C109.108 7.90089 109.625 8.04037 110.059 8.31932Z" fill="#5865F2"/>
    <path d="M123.942 5.77394V18.3269H119.763V16.0429C119.41 16.9022 118.874 17.5572 118.153 18.0056C117.432 18.4514 116.54 18.6756 115.482 18.6756C114.537 18.6756 113.713 18.4414 113.009 17.9707C112.305 17.5 111.762 16.8549 111.379 16.0355C110.999 15.216 110.806 14.2895 110.806 13.2534C110.794 12.1849 110.997 11.226 111.413 10.3767C111.827 9.52736 112.415 8.86484 113.17 8.38913C113.925 7.91341 114.788 7.67431 115.755 7.67431C117.746 7.67431 119.081 8.55849 119.763 10.3244V5.77394H123.942ZM119.14 14.7802C119.566 14.3567 119.778 13.8063 119.778 13.1338C119.778 12.4838 119.571 11.9533 119.157 11.5473C118.742 11.1413 118.175 10.9371 117.461 10.9371C116.757 10.9371 116.194 11.1438 115.772 11.5572C115.351 11.9707 115.141 12.5062 115.141 13.1687C115.141 13.8312 115.351 14.3717 115.772 14.7901C116.194 15.2086 116.749 15.4178 117.444 15.4178C118.148 15.4153 118.713 15.2036 119.14 14.7802Z" fill="#5865F2"/>
    <path d="M59.1895 9.21341C60.3401 9.21341 61.2728 8.35701 61.2728 7.30058C61.2728 6.24416 60.3401 5.38775 59.1895 5.38775C58.039 5.38775 57.1063 6.24416 57.1063 7.30058C57.1063 8.35701 58.039 9.21341 59.1895 9.21341Z" fill="#5865F2"/>
    <path d="M57.1044 10.531C58.3812 11.0939 59.9649 11.1188 61.271 10.531V18.3816H57.1044V10.531Z" fill="#5865F2"/>
  </g>
  <defs>
    <clipPath id="clip0">
      <rect width="124" height="24" fill="white"/>
    </clipPath>
  </defs>
</svg>
