<svg class="navigation-module_logo__MbXc6" width="95" height="16" viewBox="0 0 95 16" xmlns="http://www.w3.org/2000/svg"><title>Stream logo</title><g fill="none" fill-rule="evenodd"><path d="m39.8 13.4.3-.4c.2-.1.2-.3.2-.5s0-.4-.3-.6c-.1-.2-.3-.3-.6-.4a28.2 28.2 0 0 1-2.9-.8l-1.1-.7c-.4-.2-.6-.5-.8-.8L34.3 8c0-.5.1-.9.3-1.2.2-.4.5-.8.9-1 .3-.3.8-.6 1.2-.7a4.5 4.5 0 0 1 2.9 0c.4 0 .8.2 1.2.5l.8.8c.3.3.4.7.5 1L40 8c0-.3-.3-.6-.6-.8a2 2 0 0 0-1.2-.4A2.2 2.2 0 0 0 37 7l-.4.4-.2.5.2.5.5.4.6.2.6.2 2 .6 1.3.7c.3.3.5.6.6 1 .2.2.2.6.2 1 0 .5 0 1-.3 1.3-.2.4-.5.8-.9 1.1-.4.3-.9.6-1.4.7-.5.2-1.1.3-1.7.3-1 0-1.8-.2-2.6-.7-.7-.5-1.2-1-1.5-1.8l2-.8c.2.5.5.8.9 1 .3.2.8.3 1.3.3.6 0 1-.2 1.5-.5Zm10 2.2-1.9.4c-.6 0-1.1 0-1.6-.3-.5-.2-.9-.6-1.2-1.1-.3-.5-.4-1.3-.4-2.3v-5h-1.9V5h.5c.6 0 1.2-.1 1.5-.7.2-.2.2-.5.2-1.2v-.8h2V5h2.2v2.4h-2.3v6.1l.5.5.8.1h1.2l.4 1.5Zm7-8.6-.3-.2H56l-.3-.1a3.5 3.5 0 0 0-2.3.8l-.6.8c-.2.3-.2.7-.2 1V16h-2.3v-11h1.8l.4 1.3c.3-.5.7-.8 1.2-1a4 4 0 0 1 1.9-.5l1.7.2-.6 2Zm5.7 8.9a5.7 5.7 0 0 1-5.2-3.4c-.3-.7-.5-1.4-.5-2.2a5.6 5.6 0 0 1 3.3-5.1 5.5 5.5 0 0 1 4.1 0c.6.2 1.2.6 1.6 1.1.5.5.9 1.2 1.1 2 .3.9.4 1.8.4 3h-8.1c0 .4.2.7.5 1a3.9 3.9 0 0 0 1.8 1.5l1.3.2a4.1 4.1 0 0 0 2.8-1.1l1.4 1.3a6 6 0 0 1-2 1.2c-.7.3-1.6.5-2.5.5Zm-.4-9.2c-.3 0-.7 0-1 .2a3.2 3.2 0 0 0-1.5 1.4c-.2.3-.4.7-.4 1h5.7c0-.3 0-.6-.2-1A2.7 2.7 0 0 0 62 6.7Zm17-1.7v10.9h-1.8l-.4-1.5c-.3.5-.8.9-1.4 1.1-.6.3-1.2.4-1.8.4a5.3 5.3 0 0 1-3.9-1.6 5.7 5.7 0 0 1 0-8 5.5 5.5 0 0 1 3.9-1.6c.6 0 1.2.2 1.7.4.6.2 1.1.6 1.5 1l.4-1.1h1.9Zm-5.4 9 1.2-.3c.4-.2.8-.5 1-.8a3.8 3.8 0 0 0 1-2.6 4 4 0 0 0-1-2.6c-.2-.3-.6-.6-1-.8a2.8 2.8 0 0 0-2.5 0l-1 .8a3.8 3.8 0 0 0-1 2.6 4 4 0 0 0 1 2.6l1 .8c.4.2.8.3 1.3.3Zm9.3 1.9h-2.2v-11h1.7l.5 1c.2-.3.6-.6 1-.8.3-.2.8-.4 1.3-.4a3.8 3.8 0 0 1 2.4.9l.7.8c.2-.4.6-.8 1.1-1.2a3 3 0 0 1 1.7-.5l1.3.2a3.6 3.6 0 0 1 2.2 2c.2.6.3 1.4.3 2.3v6.7h-2V9.2c0-1-.3-1.6-.7-2-.3-.3-.9-.5-1.5-.5-.5 0-1 .2-1.3.6-.3.4-.5 1-.5 1.9v6.7h-2.1V9.2c0-1-.2-1.6-.6-2-.4-.3-.9-.5-1.5-.5-.5 0-.9.2-1.2.5-.4.4-.6.9-.6 1.6v7Z" fill="#000000"></path><path d="m21.3 5.1 10.4-.7c.7 0 1.2.7.8 1.2l-7.3 10c-.2.1-.4.3-.7.3H8.1a.8.8 0 0 1-.6-.4L.2 5.6c-.4-.5 0-1.3.7-1.2l10.4.7L15.7.3c.3-.4 1-.4 1.2 0L21.3 5Zm2.2 9.2-6.8-2.5v2.5h6.8Zm-7.6 0v-2.5l-6.8 2.5H16Zm-.8-3-6.9 2.5-5-7 12 4.4Zm2.4 0 7 2.5 5-7-12 4.4Zm-1.6-.6V2.4l-5.6 6.2 5.6 2Zm.8 0V2.4l5.7 6.2-5.7 2ZM8.6 8l1.3-1.4-6.4-.4L8.6 8ZM24 8l-1.3-1.4 6.3-.4L24 8Z" fill="#006CFF"></path></g></svg>
