<?xml version="1.0" encoding="UTF-8"?>
<svg width="349px" height="128px" viewBox="0 0 349 128" version="1.1" xmlns="http://www.w3.org/2000/svg" xmlns:xlink="http://www.w3.org/1999/xlink">
    <!-- Generator: Sketch 55.2 (78181) - https://sketchapp.com -->
    <title>Assets / Logomark + Wordmark / Guilded-Logomark+Wordmark-Black</title>
    <desc>Created with Sketch.</desc>
    <g id="Assets-/-Logomark-+-Wordmark-/-Guilded-Logomark+Wordmark-Black" stroke="none" stroke-width="1" fill="none" fill-rule="evenodd">
        <path d="M121,64.9703669 C121,52.7567712 130.267197,45 141.560036,45 C149.608052,45 154.648439,49.0514431 157.544586,53.6244296 L150.708635,57.3297576 C148.708929,54.2101348 145.264562,52.3148937 141.557664,52.2944942 C134.548561,52.2944942 129.460735,57.6782433 129.460735,64.9703669 C129.460735,72.2624904 134.558049,77.6486102 141.557664,77.6486102 C144.973268,77.6486102 148.218091,76.1432466 149.781204,74.6947786 L149.781204,70.0672672 L139.581832,70.0672672 L139.581832,62.888935 L158,62.888935 L158,77.7078765 C154.062568,82.1078054 148.559651,85 141.55292,85 C130.274312,85 121,77.1270669 121,64.9703669 Z M182.714828,83.3235148 L182.714828,79.871587 C180.820072,81.9566441 177.488969,84 172.95425,84 C166.870344,84 164,80.7195102 164,75.4026146 L164,56 L171.287523,56 L171.287523,72.5738871 C171.287523,76.3640576 173.297468,77.6104584 176.398192,77.6104584 C179.219168,77.6104584 181.45009,76.0837332 182.712477,74.4990899 L182.712477,56 L190,56 L190,83.3235148 L182.714828,83.3235148 Z M196,48.4256334 C196,45.9814236 198.014719,44 200.5,44 C202.985281,44 205,45.9814236 205,48.4256334 C205,50.8698432 202.985281,52.8512668 200.5,52.8512668 C198.022958,52.8318133 196.01978,50.8617398 196,48.4256334 Z M196.771013,84 L196.771013,55.8724292 L204.287177,55.8724292 L204.287177,83.995231 L196.771013,84 Z M212,84 L212,45 L219,45 L219,84 L212,84 Z M245.701643,84.3002353 L245.701643,80.6397418 C243.534323,83.4677565 240.51222,85 237.205188,85 C230.24781,85 225,79.5780298 225,70.0925982 C225,60.7833142 230.189424,55.1321108 237.205188,55.1321108 C240.543638,55.1231807 243.691375,56.738554 245.701643,59.4923689 L245.701643,45 L253,45 L253,84.3002353 L245.701643,84.3002353 Z M245.701643,75.1091874 L245.701643,65.0325753 C244.503545,63.1480364 241.880807,61.7919406 239.42856,61.7919406 C235.322796,61.7919406 232.471182,65.1508114 232.471182,70.0998371 C232.471182,74.9885383 235.322796,78.3474091 239.42856,78.3474091 C241.880807,78.3474091 244.510551,76.9937262 245.701643,75.1067744 L245.701643,75.1091874 Z M257,69.4753882 C257,61.4644862 262.863935,55 271.222666,55 C279.420518,55 285,61.1786336 285,70.2181363 L285,71.8207853 L264.572987,71.8207853 C265.027646,75.3119359 267.816221,78.2266952 272.486385,78.2266952 C274.81797,78.2266952 278.063536,77.1980944 279.830877,75.4806358 L283.018153,80.1667439 C280.285536,82.683184 275.958115,83.999987 271.688983,83.999987 C263.318594,84.0070096 257,78.3415048 257,69.4753882 Z M271.222666,60.7779714 C266.72504,60.7779714 264.789824,64.1543123 264.447081,66.9003717 L277.998251,66.9003717 C277.837372,64.2667789 276.016404,60.7873436 271.231993,60.7873436 L271.222666,60.7779714 Z M310.701643,84.3002353 L310.701643,80.6397418 C308.534323,83.4677565 305.509884,85 302.205188,85 C295.24781,85 290,79.5780298 290,70.0925982 C290,60.7833142 295.189424,55.1321108 302.205188,55.1321108 C305.543638,55.1231807 308.691375,56.738554 310.701643,59.4923689 L310.701643,45 L318,45 L318,84.3002353 L310.701643,84.3002353 Z M310.701643,75.1091874 L310.701643,65.0325753 C309.503545,63.1480364 306.880807,61.7919406 304.42856,61.7919406 C300.322796,61.7919406 297.471182,65.1508114 297.471182,70.0998371 C297.471182,74.9885383 300.322796,78.3474091 304.42856,78.3474091 C306.880807,78.3474091 309.503545,76.9937262 310.701643,75.1067744 L310.701643,75.1091874 Z M47.8903288,47.2641509 C47.8903288,47.2641509 47.9503286,55.8036226 52.3351089,64.6355094 C56.8398888,73.1369434 63.0510609,78.5977358 68.175038,80.7730189 C73.4694143,78.2981887 78.5837914,74.0023019 81.3749789,69.3735849 L66.840644,69.3735849 C63.0798608,66.2568679 60.1206741,61.0861132 59.4414771,55.109434 L102.079686,55.109434 C99.9772956,64.718717 95.5157156,73.4578868 91.2653346,79.023283 C85.3658754,86.739919 77.3664831,92.6292832 68.2062379,96 L68.0718385,96 C52.7791069,89.9068302 44.5519438,80.309434 39.1231681,69.480566 C35.6407837,62.5410566 32,49.9410566 32,33 L104,33 C104.011637,37.7709414 103.690875,42.5370029 103.039682,47.2641509 L47.8903288,47.2641509 Z" id="logo" fill="#111820" fill-rule="nonzero"></path>
    </g>
</svg>