<svg width="266" height="40" viewBox="0 0 266 40" fill="none" xmlns="http://www.w3.org/2000/svg">
<path d="M198.433 11.7183C201.851 11.7183 204.562 12.7567 206.566 14.8334C208.603 16.91 209.622 19.7943 209.622 23.4861V39.605H201.243V24.6234C201.243 22.8434 200.766 21.4754 199.813 20.5195C198.893 19.5306 197.612 19.0361 195.969 19.0361C194.326 19.0361 193.028 19.5306 192.075 20.5195C191.155 21.4754 190.695 22.8434 190.695 24.6234V39.605H182.315V24.6234C182.315 22.8434 181.839 21.4754 180.886 20.5195C179.966 19.5306 178.684 19.0361 177.041 19.0361C175.398 19.0361 174.1 19.5306 173.147 20.5195C172.227 21.4754 171.767 22.8434 171.767 24.6234V39.605H163.339V12.015H171.767V15.4761C172.622 14.3224 173.739 13.4159 175.119 12.7567C176.499 12.0645 178.06 11.7183 179.802 11.7183C181.872 11.7183 183.712 12.1634 185.322 13.0534C186.965 13.9434 188.247 15.2124 189.167 16.8606C190.12 15.3443 191.418 14.1082 193.061 13.1522C194.704 12.1963 196.495 11.7183 198.433 11.7183Z" fill="#1E2128"/>
<path d="M211.745 25.7606C211.745 22.9258 212.271 20.4371 213.322 18.2945C214.407 16.1519 215.869 14.5037 217.709 13.35C219.549 12.1963 221.603 11.6195 223.87 11.6195C225.809 11.6195 227.501 12.015 228.947 12.8061C230.426 13.5972 231.56 14.6356 232.348 15.9211V12.015H240.777V39.605H232.348V35.6989C231.527 36.9845 230.377 38.0228 228.898 38.8139C227.452 39.605 225.76 40.0006 223.821 40.0006C221.587 40.0006 219.549 39.4238 217.709 38.27C215.869 37.0834 214.407 35.4187 213.322 33.2761C212.271 31.1006 211.745 28.5954 211.745 25.7606ZM232.348 25.81C232.348 23.7004 231.757 22.0358 230.574 20.8161C229.424 19.5965 228.011 18.9867 226.335 18.9867C224.659 18.9867 223.23 19.5965 222.047 20.8161C220.896 22.0028 220.321 23.651 220.321 25.7606C220.321 27.8702 220.896 29.5513 222.047 30.8039C223.23 32.0236 224.659 32.6334 226.335 32.6334C228.011 32.6334 229.424 32.0236 230.574 30.8039C231.757 29.5843 232.348 27.9197 232.348 25.81Z" fill="#1E2128"/>
<path d="M249.017 9.14723C247.539 9.14723 246.323 8.71871 245.37 7.86168C244.45 6.97168 243.99 5.8839 243.99 4.59834C243.99 3.27982 244.45 2.19204 245.37 1.335C246.323 0.445001 247.539 0 249.017 0C250.463 0 251.646 0.445001 252.566 1.335C253.519 2.19204 253.996 3.27982 253.996 4.59834C253.996 5.8839 253.519 6.97168 252.566 7.86168C251.646 8.71871 250.463 9.14723 249.017 9.14723ZM253.207 12.015V39.605H244.778V12.015H253.207Z" fill="#1E2128"/>
<path d="M265.648 3.01612V39.605H257.219V3.01612H265.648Z" fill="#1E2128"/>
<path d="M59.1954 11.6334C62.3498 11.6334 64.8798 12.6848 66.7856 14.7877C68.6913 16.8578 69.6442 19.7164 69.6442 23.3636V39.4312H61.2654V24.4972C61.2654 22.6572 60.789 21.2279 59.8361 20.2093C58.8832 19.1907 57.6018 18.6814 55.9917 18.6814C54.3817 18.6814 53.1003 19.1907 52.1474 20.2093C51.1945 21.2279 50.7181 22.6572 50.7181 24.4972V39.4312H42.29V2.95888H50.7181V15.6256C51.5724 14.4099 52.7388 13.4406 54.2174 12.7177C55.696 11.9948 57.3554 11.6334 59.1954 11.6334Z" fill="url(#paint0_linear_2_7856)"/>
<path d="M71.7292 25.6308C71.7292 22.8051 72.2549 20.3243 73.3064 18.1885C74.3907 16.0528 75.8529 14.4099 77.6929 13.2598C79.533 12.1098 81.5866 11.5348 83.8538 11.5348C85.7924 11.5348 87.4846 11.9291 88.9303 12.7177C90.4089 13.5063 91.5425 14.5413 92.3311 15.8228V11.9291H100.759V39.4312H92.3311V35.5375C91.5097 36.819 90.3596 37.854 88.881 38.6426C87.4353 39.4312 85.7431 39.8255 83.8045 39.8255C81.5701 39.8255 79.533 39.2505 77.6929 38.1004C75.8529 36.9175 74.3907 35.2582 73.3064 33.1225C72.2549 30.9538 71.7292 28.4566 71.7292 25.6308ZM92.3311 25.6801C92.3311 23.5772 91.7397 21.9179 90.5568 20.7022C89.4068 19.4864 87.9939 18.8785 86.3181 18.8785C84.6424 18.8785 83.213 19.4864 82.0302 20.7022C80.8801 21.885 80.3051 23.5279 80.3051 25.6308C80.3051 27.7338 80.8801 29.4095 82.0302 30.6581C83.213 31.8739 84.6424 32.4817 86.3181 32.4817C87.9939 32.4817 89.4068 31.8739 90.5568 30.6581C91.7397 29.4424 92.3311 27.783 92.3311 25.6801Z" fill="url(#paint1_linear_2_7856)"/>
<path d="M115.949 39.8255C113.55 39.8255 111.414 39.4147 109.541 38.5933C107.668 37.7718 106.19 36.6547 105.106 35.2418C104.021 33.796 103.413 32.186 103.282 30.4117H111.611C111.71 31.3646 112.154 32.1367 112.942 32.7282C113.731 33.3196 114.7 33.6153 115.85 33.6153C116.902 33.6153 117.707 33.4182 118.265 33.0239C118.857 32.5967 119.152 32.0546 119.152 31.3974C119.152 30.6088 118.742 30.0338 117.92 29.6724C117.099 29.2781 115.768 28.8509 113.928 28.3909C111.956 27.9309 110.314 27.4545 108.999 26.9616C107.685 26.4359 106.551 25.6308 105.598 24.5465C104.646 23.4294 104.169 21.9343 104.169 20.0614C104.169 18.4842 104.596 17.0549 105.451 15.7735C106.338 14.4591 107.619 13.4241 109.295 12.6684C111.004 11.9127 113.024 11.5348 115.357 11.5348C118.807 11.5348 121.518 12.3891 123.49 14.0977C125.494 15.8063 126.644 18.0735 126.94 20.8993H119.152C119.021 19.9464 118.594 19.1907 117.871 18.6321C117.181 18.0735 116.261 17.7942 115.111 17.7942C114.125 17.7942 113.369 17.9914 112.844 18.3857C112.318 18.7471 112.055 19.2564 112.055 19.9136C112.055 20.7022 112.466 21.2936 113.287 21.6879C114.142 22.0822 115.456 22.4765 117.23 22.8708C119.267 23.3965 120.927 23.9222 122.208 24.448C123.49 24.9408 124.607 25.7623 125.56 26.9123C126.545 28.0295 127.055 29.5409 127.088 31.4467C127.088 33.0567 126.628 34.5025 125.707 35.7839C124.82 37.0325 123.522 38.0183 121.814 38.7412C120.138 39.464 118.183 39.8255 115.949 39.8255Z" fill="url(#paint2_linear_2_7856)"/>
<path d="M147.053 11.6334C150.208 11.6334 152.738 12.6848 154.643 14.7877C156.549 16.8578 157.502 19.7164 157.502 23.3636V39.4312H149.123V24.4972C149.123 22.6572 148.647 21.2279 147.694 20.2093C146.741 19.1907 145.46 18.6814 143.85 18.6814C142.24 18.6814 140.958 19.1907 140.005 20.2093C139.052 21.2279 138.576 22.6572 138.576 24.4972V39.4312H130.148V2.95888H138.576V15.6256C139.43 14.4099 140.597 13.4406 142.075 12.7177C143.554 11.9948 145.213 11.6334 147.053 11.6334Z" fill="url(#paint3_linear_2_7856)"/>
<path fill-rule="evenodd" clip-rule="evenodd" d="M11.5546 2.96465H17.4469L15.7569 10.7002L29.5121 10.6774L31.1972 2.96465H37.0895L35.4065 10.6677L39.6454 10.6606V16.4326L34.145 16.4418L32.1779 25.4455L36.6982 25.438V31.21L30.9164 31.2196L29.233 38.9243H23.3407L25.0219 31.2294L11.2667 31.2522L9.59049 38.9243H3.69818L5.37224 31.2619L0.000178559 31.2708L0 25.4988L6.63375 25.4879L8.60089 16.4841L2.94732 16.4934L2.94714 10.7215L9.8624 10.71L11.5546 2.96465ZM26.2834 25.4553L28.1783 16.7822L20.678 20.5025C20.4361 20.6225 20.1475 20.598 19.9292 20.439L14.494 16.4806L12.5282 25.4781L26.2834 25.4553ZM16.5764 16.5296L20.5168 18.1366C20.6723 18.2 20.845 18.2075 21.0053 18.1578L26.2526 16.5296H16.5764Z" fill="url(#paint4_linear_2_7856)"/>
<defs>
<linearGradient id="paint0_linear_2_7856" x1="47.7777" y1="23.3672" x2="150.095" y2="20.1184" gradientUnits="userSpaceOnUse">
<stop stop-color="#E27469"/>
<stop offset="1" stop-color="#D74634"/>
</linearGradient>
<linearGradient id="paint1_linear_2_7856" x1="47.7777" y1="23.3672" x2="150.095" y2="20.1184" gradientUnits="userSpaceOnUse">
<stop stop-color="#E27469"/>
<stop offset="1" stop-color="#D74634"/>
</linearGradient>
<linearGradient id="paint2_linear_2_7856" x1="47.7777" y1="23.3672" x2="150.095" y2="20.1184" gradientUnits="userSpaceOnUse">
<stop stop-color="#E27469"/>
<stop offset="1" stop-color="#D74634"/>
</linearGradient>
<linearGradient id="paint3_linear_2_7856" x1="47.7777" y1="23.3672" x2="150.095" y2="20.1184" gradientUnits="userSpaceOnUse">
<stop stop-color="#E27469"/>
<stop offset="1" stop-color="#D74634"/>
</linearGradient>
<linearGradient id="paint4_linear_2_7856" x1="1.88837" y1="22.8709" x2="37.1275" y2="22.4762" gradientUnits="userSpaceOnUse">
<stop stop-color="#E27469"/>
<stop offset="1" stop-color="#D74634"/>
</linearGradient>
</defs>
</svg>
