<svg xmlns="http://www.w3.org/2000/svg" width="163.03" height="30.38" viewBox="0 0 43.135 8.038" xmlns:v="https://vecta.io/nano"><circle cx="4.019" cy="4.019" r="3.149" fill="none" stroke="#0055d4" stroke-width="1.74"/><path d="M11.457 7.303q-.566 0-.879-.322-.313-.331-.313-.932V.712L11.5.572v5.442q0 .305.253.305.139 0 .244-.052l.253.879q-.357.157-.792.157zm2.619-4.754v4.615H12.84V2.549zM13.449.172q.331 0 .54.209.218.2.218.514 0 .313-.218.522-.209.2-.54.2-.331 0-.54-.2-.209-.209-.209-.522 0-.313.209-.514.209-.209.54-.209zm3.319 2.238q.975 0 1.672.557l-.47.705q-.583-.366-1.149-.366-.305 0-.47.113-.165.113-.165.305 0 .139.07.235.078.096.279.183.209.087.618.209.731.2 1.088.54.357.331.357.914 0 .462-.27.801-.261.34-.714.522-.453.174-1.01.174-.583 0-1.062-.174-.479-.183-.819-.496l.61-.679q.583.453 1.237.453.348 0 .549-.131.209-.139.209-.374 0-.183-.078-.287-.078-.104-.287-.192-.209-.096-.653-.218-.697-.192-1.036-.54-.331-.357-.331-.879 0-.392.226-.705.226-.313.636-.488.418-.183.967-.183zm5.342 4.536q-.253.174-.575.261-.313.096-.627.096-.714-.009-1.08-.409-.366-.401-.366-1.176V3.42h-.688v-.871h.688v-1.01l1.237-.148v1.158h1.062l-.122.871h-.94v2.273q0 .331.113.479.113.148.348.148.235 0 .522-.157zm5.493-4.536q.549 0 .879.374.34.374.34 1.019v3.361h-1.237V4.012q0-.679-.453-.679-.244 0-.427.157-.183.157-.374.488v3.187h-1.237V4.012q0-.679-.453-.679-.244 0-.427.165-.183.157-.366.479v3.187h-1.237V2.549h1.071l.096.575q.261-.348.583-.531.331-.183.758-.183.392 0 .679.2.287.192.418.549.287-.374.618-.557.34-.192.766-.192zm4.148 0q1.036 0 1.62.653.583.644.583 1.794 0 .731-.27 1.289-.261.549-.766.853-.496.305-1.176.305-1.036 0-1.628-.644-.583-.653-.583-1.803 0-.731.261-1.28.27-.557.766-.862.505-.305 1.193-.305zm0 .923q-.47 0-.705.374-.226.366-.226 1.149 0 .784.226 1.158.235.366.697.366.462 0 .688-.366.235-.374.235-1.158 0-.784-.226-1.149-.226-.374-.688-.374zm5.271-.923q.61 0 .949.374.34.366.34 1.019v3.361h-1.237V4.012q0-.374-.131-.522-.122-.157-.374-.157-.261 0-.479.165-.209.157-.409.479v3.187h-1.237V2.549h1.071l.096.583q.287-.357.627-.54.348-.183.784-.183zM40.2.572v6.592h-1.237V.712zm2.804 1.977l-1.472 2.029 1.602 2.586h-1.402l-1.489-2.525 1.48-2.09z"/></svg>