<?xml version="1.0" encoding="utf-8"?>
<!-- Generator: Adobe Illustrator 25.2.1, SVG Export Plug-In . SVG Version: 6.00 Build 0)  -->
<svg version="1.1" id="Layer_1" xmlns="http://www.w3.org/2000/svg" xmlns:xlink="http://www.w3.org/1999/xlink" x="0px" y="0px"
	 viewBox="0 0 48 48" style="enable-background:new 0 0 48 48;" xml:space="preserve">
<style type="text/css">
	.st0{clip-path:url(#SVGID_2_);fill:#28A8EA;}
	.st1{clip-path:url(#SVGID_2_);fill:#0078D4;}
	.st2{clip-path:url(#SVGID_2_);fill:#0364B8;}
	.st3{clip-path:url(#SVGID_2_);fill:#14447D;}
	.st4{clip-path:url(#SVGID_2_);fill:#0F335E;}
	.st5{clip-path:url(#SVGID_2_);fill:#50D9FF;}
</style>
<g>
	<defs>
		<path id="SVGID_1_" d="M34.9,3.2H13.1c-0.7,0-1.4,0.4-1.8,1L0.5,23c-0.4,0.6-0.4,1.4,0,2.1l10.9,18.7c0.4,0.6,1.1,1,1.8,1h21.7
			c0.7,0,1.4-0.4,1.8-1L47.5,25c0.4-0.6,0.4-1.4,0-2.1L36.7,4.3C36.3,3.6,35.6,3.2,34.9,3.2z"/>
	</defs>
	<clipPath id="SVGID_2_">
		<use xlink:href="#SVGID_1_"  style="overflow:visible;"/>
	</clipPath>
	<polygon class="st0" points="11.3,3.1 15.6,11.1 35.4,3.1 	"/>
	<polygon class="st1" points="11.3,3.1 15.6,11.1 0.2,23.3 0.2,3.1 	"/>
	<polygon class="st2" points="-0.8,24 15.6,11.1 16.5,37.1 	"/>
	<polygon class="st3" points="-0.8,24 16.5,37.1 11.5,44.8 0.2,45.2 	"/>
	<polygon class="st4" points="11.5,44.8 16.5,37.1 36.2,45.2 	"/>
	<polygon class="st2" points="16.5,37.1 36.7,24 36.2,45.2 	"/>
	<polygon class="st0" points="16.5,37.1 15.6,11.1 36.7,24 	"/>
	<polygon class="st5" points="15.6,11.1 36.2,2.8 36.7,24 	"/>
	<polygon class="st0" points="36.7,24 36.2,2.8 48.1,3.1 48.1,24 	"/>
	<polygon class="st1" points="36.7,24 36.2,45.9 47.5,45.9 48.1,24 	"/>
</g>
</svg>
