<svg xmlns="http://www.w3.org/2000/svg" viewBox="0 0 165.2 112.32"><defs><style>.cls-1{fill:#2aabe2;}.cls-2{fill:#21b473;}.cls-3{fill:#0f9ccc;}.cls-4{fill:#3b3b3b;}.cls-5{fill:#404040;}.cls-6{fill:#3c3c3c;}.cls-7{fill:#3f3f3f;}.cls-8{fill:#3d3d3d;}.cls-9{fill:#1097c4;}.cls-10{fill:#1192bf;}.cls-11{fill:#4f4f4f;}</style></defs><g id="Layer_2" data-name="Layer 2"><g id="Layer_1-2" data-name="Layer 1"><g id="yFjtzj.tif"><path class="cls-1" d="M134,78a7.43,7.43,0,0,1-.81.09H68.25A9.91,9.91,0,0,1,67,77.89a.42.42,0,0,1,0-.27q0-29.23,0-58.48C67.08,12.76,67,6.38,67,0h.42c3.48,4.67,7.46,8.92,11.24,13.34Q96.79,34.55,115,55.66c.42.5.68,1.24,1.53,1.22a3.78,3.78,0,0,0,2.93,3.37c0,.33,0,.78.16,1,2.89,3.36,5.78,6.72,8.74,10A54.89,54.89,0,0,1,134,78Z"/><path class="cls-2" d="M67,77.62a.42.42,0,0,0,0,.27c-.62,0-1.23.15-1.84.15H1.33C.92,78,.51,78,.1,78q0-38.16,0-76.33C.13,1.11-.34.37.51,0c.09.83.77,1.26,1.25,1.81Q28.7,33.24,55.66,64.64C59.41,69,63.24,73.29,67,77.62Z"/><path class="cls-3" d="M134,78a54.89,54.89,0,0,0-5.57-6.69c-3-3.3-5.85-6.66-8.74-10-.19-.21-.11-.66-.16-1,1.5-1.3,2.11-3.23,3.35-4.72.84-1,2.22-1.63,2.44-3.13a1.07,1.07,0,0,0,.85-.48c1.38-2,3.07-3.67,4.46-5.59s4.07-3.07,3.87-5.91c.53-.56,1.33-.26,1.54-1,3.38-4.26,6.15-9,9.88-13l.13-1.91a3.16,3.16,0,0,0,1.17-3.07C153.1,14.55,159,7.61,165.2.37V78Z"/><path class="cls-4" d="M15.75,111.79,5.06,95.27v16.47H1V90H6.36l10,15.18.38-.06V90h4v21.78Z"/><path class="cls-5" d="M55.85,88.46h3.84V111.7a8.83,8.83,0,0,1-3.33.13l-.3-1.52c-3.85,2.72-7.86,2.58-10.5-.28a8.84,8.84,0,0,1-.17-11c2.51-3,6.4-3.29,10.46-.65ZM56,104.64a4.3,4.3,0,1,0-4.41,4.21A4.34,4.34,0,0,0,56,104.64Z"/><path class="cls-6" d="M32.84,112.24c-4.82,0-8.27-3.24-8.29-7.82s3.55-7.89,8.28-7.87A7.8,7.8,0,0,1,41,104.31C41.05,108.92,37.65,112.23,32.84,112.24Zm4.21-7.75a4.26,4.26,0,1,0-4.24,4.36A4.26,4.26,0,0,0,37.05,104.49Z"/><path class="cls-6" d="M67.17,105.67c.8,4,3.89,4.58,8,1.59l2.42,1.83c-2,3.14-6.27,4.13-10,2.36a7.78,7.78,0,0,1-3.85-9.93,8.08,8.08,0,0,1,9.6-4.75c3.59,1,5.54,4.39,4.91,8.9Zm0-2.86H74.5A3.35,3.35,0,0,0,71,99.46C69,99.31,67.85,100.29,67.12,102.81Z"/><path class="cls-7" d="M103.61,111.74a3.57,3.57,0,0,1-2.19,0c0-3.19,0-6.4,0-9.62a2.83,2.83,0,0,0-2.09-3c-1.58-.38-3.18-.32-4.32,1.15a6.15,6.15,0,0,0-1.11,3.88c0,2.53,0,5.06,0,7.67H91.73c0-2.92,0-5.78,0-8.65-.08-3.21-1.54-4.63-4.23-4.14a4,4,0,0,0-3.19,3.37c-.5,2-.17,4.1-.25,6.16,0,1,0,2,0,3a2.28,2.28,0,0,1-2.11.13V97.5a2.79,2.79,0,0,1,2-.09l.23,1.36c4.21-2.7,6.55-2.53,9.22.63a18.71,18.71,0,0,1,1.86-1.6c3.38-2.25,7.92-.46,8.32,3.52A103.46,103.46,0,0,1,103.61,111.74Z"/><path class="cls-8" d="M152.88,105.16H141.05a5.12,5.12,0,0,0,3.24,4.69c2.63,1.06,4.81.1,6.67-2l1.45,1.09c.11,1.22-3.14,3.17-5.34,3.28-5,.25-8.44-2.93-8.4-7.72A7.33,7.33,0,0,1,146.78,97C150.81,97.17,153.34,100.51,152.88,105.16Zm-2.22-1.72c-.36-3.26-1.9-4.62-4.86-4.48a4.46,4.46,0,0,0-4.51,4.48Z"/><path class="cls-7" d="M117.59,102.66c-.22-4.07-3.31-5-8-2.24-.62-.19-.9-.75-1.27-1.27a1.77,1.77,0,0,1,.31-.5,8.92,8.92,0,0,1,7.43-1.55c2.36.4,3.7,2.24,3.76,5,.08,3.16,0,6.31,0,9.59-.48.48-1.14.24-1.91.09l-.3-1.76a6.2,6.2,0,0,1-5.65,2.27,4.38,4.38,0,0,1-1.29-8.59,16,16,0,0,1,4.86-.75C116.27,102.89,117,103.09,117.59,102.66Zm.1,2.18a11.89,11.89,0,0,0-6,.63A2.33,2.33,0,0,0,110,108a2.51,2.51,0,0,0,2.35,2.19C115.71,110.76,117.62,108.89,117.69,104.84Z"/><path class="cls-9" d="M147.17,21.48A3.16,3.16,0,0,1,146,24.55l-.13,1.91c-3.73,4-6.5,8.72-9.88,13-.21.72-1,.42-1.54,1,.2,2.84-2.47,4-3.87,5.91s-3.08,3.64-4.46,5.59a1.07,1.07,0,0,1-.85.48,1.84,1.84,0,0,1,.34-1.34c1.47-1.62,2.18-3.81,3.94-5.24.53-.43,1.3-.88.89-1.85-.73-.33-1.43-.43-1.95.36a1.61,1.61,0,0,1-1.61.63Q136.81,33,147.17,21.48Z"/><path class="cls-10" d="M126.88,45a1.61,1.61,0,0,0,1.61-.63c.52-.79,1.22-.69,1.95-.36.41,1-.36,1.42-.89,1.85-1.76,1.43-2.47,3.62-3.94,5.24a1.84,1.84,0,0,0-.34,1.34c-.22,1.5-1.6,2.12-2.44,3.13C121.59,57,121,59,119.48,60.25a3.78,3.78,0,0,1-2.93-3.37Z"/><path class="cls-11" d="M134.46,111.74a3.14,3.14,0,0,1-2,.05V88.58a2.68,2.68,0,0,1,2-.1Z"/><path class="cls-5" d="M159.09,111.61a3.39,3.39,0,0,1-2.11.21V97.45c.48-.34,1.09-.07,1.78-.14l.42,1.76c1.6-1.76,3.45-2.57,5.75-2,.31.64,0,1.2-.12,1.78-4.67.6-5.72,1.79-5.72,6.48Z"/><path class="cls-11" d="M125,97.48a2.45,2.45,0,0,1,2.07,0v14.17c-.6.45-1.27.29-2.07.13Z"/><path class="cls-5" d="M126.93,90.45A1.62,1.62,0,0,1,127,93a1.92,1.92,0,0,1-1.66.18,1.57,1.57,0,0,1-.34-2.58A2.06,2.06,0,0,1,126.93,90.45Z"/></g></g></g></svg>