<svg width="316" height="70" viewBox="0 0 316 70" fill="none" xmlns="http://www.w3.org/2000/svg">
<path d="M34.8106 0.345025C15.5675 0.383111 -0.107685 16.1805 0.000557241 35.4237C0.0499825 44.0258 3.27658 52.3062 9.06035 58.6738C14.8441 65.0414 22.777 69.0471 31.3348 69.921C31.3907 69.9266 31.4472 69.9204 31.5005 69.9028C31.5539 69.8852 31.603 69.8565 31.6446 69.8187C31.6861 69.7809 31.7193 69.7348 31.7419 69.6834C31.7645 69.6319 31.7761 69.5763 31.7758 69.5201V35.2232H29.0657C28.9594 35.2232 28.8574 35.181 28.7822 35.1058C28.707 35.0306 28.6648 34.9286 28.6648 34.8223V29.4102C28.6648 29.3039 28.707 29.2019 28.7822 29.1267C28.8574 29.0515 28.9594 29.0093 29.0657 29.0093H37.5728C37.6791 29.0093 37.7811 29.0515 37.8563 29.1267C37.9314 29.2019 37.9737 29.3039 37.9737 29.4102V69.5201C37.9734 69.5763 37.9849 69.6319 38.0075 69.6834C38.0301 69.7348 38.0633 69.7809 38.1049 69.8187C38.1465 69.8565 38.1955 69.8852 38.2489 69.9028C38.3023 69.9204 38.3587 69.9266 38.4147 69.921C47.317 69.0121 55.5294 64.7164 61.3532 57.9223C67.1771 51.1281 70.1667 42.3555 69.7038 33.4189C69.2409 24.4823 65.3608 16.0654 58.8662 9.90943C52.3715 3.75341 43.7592 0.32918 34.8106 0.345025V0.345025ZM44.7228 62.1516C44.6622 62.1731 44.5974 62.1798 44.5337 62.171C44.47 62.1622 44.4093 62.1382 44.3569 62.1011C44.3044 62.0639 44.2616 62.0147 44.2322 61.9575C44.2027 61.9004 44.1874 61.837 44.1876 61.7727V56.0479C44.1877 55.934 44.2202 55.8225 44.2812 55.7263C44.3423 55.6301 44.4294 55.5533 44.5324 55.5047C49.1635 53.3017 52.9013 49.5803 55.1247 44.959C57.3481 40.3377 57.9233 35.0947 56.7545 30.1013C55.5858 25.1079 52.7436 20.6647 48.7002 17.5102C44.6568 14.3557 39.6557 12.6797 34.5279 12.7609C22.5972 12.9433 12.8073 22.5648 12.4284 34.4916C12.2897 38.8588 13.4263 43.1719 15.6992 46.9037C17.9722 50.6354 21.283 53.6242 25.2271 55.5047C25.3301 55.5533 25.4172 55.6301 25.4782 55.7263C25.5393 55.8225 25.5718 55.934 25.5719 56.0479V61.7727C25.5721 61.837 25.5568 61.9004 25.5273 61.9575C25.4978 62.0147 25.4551 62.0639 25.4026 62.1011C25.3501 62.1382 25.2895 62.1622 25.2258 62.171C25.1621 62.1798 25.0973 62.1731 25.0367 62.1516C19.4788 60.1122 14.6871 56.4048 11.3177 51.5369C7.94824 46.669 6.16583 40.8787 6.21449 34.9586C6.35079 19.3877 19.0753 6.67321 34.6522 6.55895C50.5659 6.43067 63.543 19.3396 63.543 35.2232C63.543 47.5749 55.6974 58.1265 44.7228 62.1516Z" fill="#E54B4D"/>
<path d="M117.641 47.5308C114.242 50.917 110.104 52.6088 105.23 52.6061C100.355 52.6035 96.2267 50.9117 92.8458 47.5308C89.4649 44.1498 87.7744 40.0046 87.7744 35.0949C87.7744 30.1852 89.4662 26.0426 92.8498 22.667C96.2307 19.2781 100.359 17.5836 105.234 17.5836C110.108 17.5836 114.244 19.2754 117.641 22.659C121.041 26.0453 122.741 30.1879 122.741 35.0869C122.741 39.9858 121.041 44.1338 117.641 47.5308ZM97.4882 43.0086C99.5729 45.0773 102.155 46.1116 105.234 46.1116C108.312 46.1116 110.894 45.0773 112.979 43.0086C115.064 40.94 116.106 38.3021 116.106 35.0949C116.106 31.8877 115.064 29.2418 112.979 27.1571C110.894 25.0751 108.312 24.0328 105.234 24.0301C102.155 24.0274 99.5729 25.0697 97.4882 27.1571C95.4035 29.2444 94.3612 31.8904 94.3612 35.0949C94.3612 38.2994 95.4035 40.9373 97.4882 43.0086Z" fill="#14143C"/>
<path d="M140.493 27.2052C143.122 27.2052 145.295 28.0872 147.011 29.8511C148.727 31.6151 149.585 34.0525 149.585 37.1635V51.5317C149.585 51.5844 149.575 51.6365 149.554 51.6851C149.534 51.7338 149.505 51.778 149.468 51.8152C149.43 51.8524 149.386 51.882 149.337 51.9021C149.289 51.9223 149.237 51.9326 149.184 51.9326H143.772C143.666 51.9326 143.564 51.8904 143.488 51.8152C143.413 51.74 143.371 51.6381 143.371 51.5317V37.9332C143.371 36.3296 142.938 35.1029 142.072 34.253C141.206 33.4031 140.052 32.9781 138.608 32.9781C137.005 32.9781 135.722 33.4753 134.76 34.4695C133.798 35.4637 133.317 36.9551 133.317 38.9435V51.5317C133.317 51.6381 133.274 51.74 133.199 51.8152C133.124 51.8904 133.022 51.9326 132.916 51.9326H127.503C127.397 51.9326 127.295 51.8904 127.22 51.8152C127.145 51.74 127.103 51.6381 127.103 51.5317V28.2796C127.103 28.1733 127.145 28.0713 127.22 27.9961C127.295 27.9209 127.397 27.8787 127.503 27.8787H132.916C133.022 27.8787 133.124 27.9209 133.199 27.9961C133.274 28.0713 133.317 28.1733 133.317 28.2796V30.5727C134.832 28.3277 137.224 27.2052 140.493 27.2052Z" fill="#14143C"/>
<path d="M160.125 42.4554C160.958 45.4701 163.22 46.9775 166.908 46.9775C169.152 46.9775 170.879 46.2606 172.091 44.8267C172.153 44.7573 172.236 44.7111 172.327 44.6961C172.419 44.6812 172.512 44.6983 172.593 44.7445L176.916 47.2381C176.965 47.2662 177.007 47.3041 177.04 47.3494C177.073 47.3947 177.096 47.4464 177.107 47.5012C177.119 47.556 177.119 47.6126 177.108 47.6674C177.096 47.7222 177.073 47.774 177.041 47.8194C174.675 51.0106 171.268 52.6061 166.818 52.6061C162.841 52.6061 159.65 51.4034 157.244 48.998C154.839 46.5927 153.636 43.5619 153.636 39.9057C153.636 36.2829 154.823 33.2601 157.196 30.8373C159.569 28.4146 162.614 27.2039 166.331 27.2052C169.858 27.2052 172.769 28.4239 175.062 30.8614C177.355 33.2989 178.502 36.3136 178.502 39.9057C178.498 40.6443 178.436 41.3815 178.317 42.1106C178.302 42.2051 178.252 42.2908 178.179 42.3522C178.105 42.4136 178.012 42.4467 177.916 42.4454L160.125 42.4554ZM160.028 37.6446H172.296C171.942 36.0089 171.212 34.7902 170.107 33.9884C169.011 33.1909 167.686 32.769 166.331 32.7857C164.663 32.7857 163.284 33.2107 162.193 34.0606C161.103 34.9105 160.381 36.1051 160.028 37.6446Z" fill="#14143C"/>
<path d="M193.656 52.6061C190.315 52.6061 187.509 51.8605 185.237 50.3691C183.099 48.9959 181.455 46.9753 180.546 44.6022C180.513 44.5135 180.511 44.4156 180.543 44.326C180.574 44.2364 180.637 44.161 180.719 44.1131L185.704 41.1986C185.753 41.1701 185.807 41.1523 185.863 41.1463C185.92 41.1404 185.977 41.1464 186.03 41.164C186.084 41.1816 186.134 41.2104 186.175 41.2485C186.217 41.2866 186.251 41.3331 186.273 41.385C187.634 44.536 190.159 46.1116 193.848 46.1116C195.708 46.1116 197.071 45.7775 197.937 45.1093C198.343 44.8199 198.672 44.4371 198.898 43.9933C199.125 43.5494 199.24 43.0577 199.236 42.5596C199.236 41.3743 198.707 40.4522 197.649 39.7934C196.59 39.1346 194.698 38.421 191.972 37.6526C190.672 37.2795 189.395 36.8297 188.147 36.3056C187.041 35.822 185.993 35.217 185.02 34.5016C183.994 33.7679 183.174 32.782 182.639 31.6391C182.07 30.3695 181.79 28.9891 181.821 27.5981C181.821 24.5539 182.904 22.1245 185.069 20.3097C187.233 18.495 189.839 17.589 192.886 17.5916C195.612 17.5916 198.01 18.2598 200.078 19.5961C202.069 20.8877 203.679 22.6868 204.743 24.8078C204.789 24.8995 204.799 25.0056 204.769 25.104C204.74 25.2025 204.673 25.2859 204.584 25.337L199.703 28.1573C199.656 28.1842 199.605 28.2014 199.551 28.2078C199.497 28.2142 199.443 28.2097 199.391 28.1945C199.339 28.1793 199.291 28.1538 199.249 28.1196C199.207 28.0853 199.173 28.0429 199.148 27.995C197.793 25.3597 195.706 24.0414 192.886 24.0401C191.507 24.0401 190.425 24.3528 189.639 24.9782C189.264 25.2607 188.962 25.6281 188.757 26.0501C188.552 26.472 188.451 26.9366 188.46 27.4056C188.451 27.9105 188.568 28.4096 188.798 28.8586C189.029 29.3077 189.368 29.6927 189.783 29.9794C190.665 30.6396 192.357 31.3532 194.858 32.1202C195.885 32.4436 196.662 32.6922 197.192 32.8659C197.721 33.0396 198.442 33.3122 199.357 33.6837C200.091 33.9656 200.799 34.3117 201.473 34.718C202.069 35.1153 202.639 35.5491 203.181 36.017C203.761 36.492 204.257 37.0612 204.648 37.7007C205.462 39.1555 205.885 40.7965 205.875 42.4634C205.875 45.5757 204.745 48.0479 202.484 49.88C200.222 51.7121 197.28 52.6208 193.656 52.6061Z" fill="#14143C"/>
<path d="M212.995 25.0003C211.989 24.9868 211.028 24.5812 210.317 23.8698C209.606 23.1585 209.2 22.1976 209.187 21.1917C209.184 20.6897 209.283 20.1922 209.477 19.7293C209.671 19.2663 209.957 18.8474 210.317 18.4977C210.658 18.1305 211.071 17.8382 211.531 17.6394C211.99 17.4406 212.486 17.3397 212.987 17.3431C213.495 17.3368 214 17.4362 214.467 17.6349C214.935 17.8337 215.357 18.1275 215.705 18.4977C216.066 18.8473 216.353 19.266 216.549 19.7289C216.744 20.1917 216.845 20.6892 216.844 21.1917C216.848 21.6904 216.749 22.1845 216.555 22.6437C216.36 23.1029 216.074 23.5174 215.713 23.8617C215.362 24.2274 214.94 24.5172 214.472 24.7131C214.005 24.9089 213.502 25.0067 212.995 25.0003ZM209.916 51.5397V28.2876C209.916 28.1813 209.958 28.0793 210.034 28.0041C210.109 27.929 210.211 27.8867 210.317 27.8867H215.729C215.836 27.8867 215.938 27.929 216.013 28.0041C216.088 28.0793 216.13 28.1813 216.13 28.2876V51.5397C216.13 51.6461 216.088 51.748 216.013 51.8232C215.938 51.8984 215.836 51.9406 215.729 51.9406H210.317C210.264 51.9407 210.211 51.93 210.162 51.9094C210.113 51.8887 210.068 51.8585 210.031 51.8204C209.993 51.7823 209.964 51.7372 209.944 51.6876C209.925 51.638 209.915 51.585 209.916 51.5317V51.5397Z" fill="#14143C"/>
<path d="M240.625 27.8787H245.885C245.991 27.8787 246.093 27.9209 246.168 27.9961C246.244 28.0713 246.286 28.1733 246.286 28.2796V50.778C246.286 54.4984 245.058 57.3367 242.603 59.2931C240.149 61.2495 237.19 62.2277 233.728 62.2277C231.13 62.2277 228.845 61.7306 226.874 60.7364C225.065 59.8438 223.554 58.4438 222.526 56.7073C222.5 56.6617 222.483 56.6113 222.477 56.5591C222.47 56.5068 222.474 56.4538 222.487 56.403C222.501 56.3522 222.525 56.3046 222.557 56.2629C222.589 56.2212 222.629 56.1863 222.675 56.1601L227.273 53.5262C227.363 53.4752 227.469 53.4607 227.569 53.4857C227.669 53.5107 227.755 53.5733 227.81 53.6605C229.053 55.6824 231.09 56.694 233.92 56.6953C235.876 56.6953 237.413 56.1822 238.53 55.1559C239.648 54.1296 240.209 52.6703 240.216 50.778V48.1722C238.387 50.611 235.82 51.8297 232.517 51.8284C229.117 51.8284 226.272 50.6337 223.98 48.2444C221.688 45.855 220.541 42.9445 220.538 39.5128C220.538 36.1158 221.693 33.2133 224.004 30.8053C226.314 28.3972 229.152 27.1945 232.517 27.1972C235.82 27.1972 238.387 28.4159 240.216 30.8534V28.2796C240.216 28.2263 240.227 28.1735 240.247 28.1243C240.268 28.0751 240.298 28.0306 240.336 27.9933C240.374 27.9559 240.42 27.9266 240.469 27.9069C240.519 27.8872 240.572 27.8776 240.625 27.8787ZM228.654 44.2594C229.92 45.4955 231.531 46.1129 233.489 46.1116C235.447 46.1102 237.058 45.4929 238.322 44.2594C239.589 43.0273 240.223 41.4478 240.224 39.5208C240.224 37.6299 239.59 36.0664 238.322 34.8303C237.054 33.5942 235.443 32.9768 233.489 32.9781C231.531 32.9781 229.92 33.5955 228.654 34.8303C227.389 36.0651 226.755 37.6286 226.752 39.5208C226.752 41.4451 227.386 43.0247 228.654 44.2594Z" fill="#14143C"/>
<path d="M265.286 27.2052C267.916 27.2052 270.089 28.0872 271.805 29.8511C273.521 31.6151 274.379 34.0525 274.379 37.1635V51.5317C274.379 51.5844 274.368 51.6365 274.348 51.6851C274.328 51.7338 274.299 51.778 274.261 51.8152C274.224 51.8524 274.18 51.882 274.131 51.9021C274.083 51.9223 274.03 51.9326 273.978 51.9326H268.566C268.459 51.9326 268.357 51.8904 268.282 51.8152C268.207 51.74 268.165 51.6381 268.165 51.5317V37.9332C268.165 36.3296 267.732 35.1029 266.866 34.253C266 33.4031 264.845 32.9781 263.402 32.9781C261.799 32.9781 260.516 33.4753 259.553 34.4695C258.591 35.4637 258.11 36.9551 258.11 38.9435V51.5317C258.11 51.6381 258.068 51.74 257.993 51.8152C257.918 51.8904 257.816 51.9326 257.709 51.9326H252.297C252.191 51.9326 252.089 51.8904 252.014 51.8152C251.939 51.74 251.896 51.6381 251.896 51.5317V28.2796C251.896 28.1733 251.939 28.0713 252.014 27.9961C252.089 27.9209 252.191 27.8787 252.297 27.8787H257.709C257.816 27.8787 257.918 27.9209 257.993 27.9961C258.068 28.0713 258.11 28.1733 258.11 28.2796V30.5727C259.623 28.3277 262.015 27.2052 265.286 27.2052Z" fill="#14143C"/>
<path d="M298.352 27.8787H303.765C303.871 27.8787 303.973 27.9209 304.048 27.9961C304.123 28.0713 304.166 28.1733 304.166 28.2796V51.5317C304.166 51.6381 304.123 51.74 304.048 51.8152C303.973 51.8904 303.871 51.9326 303.765 51.9326H298.352C298.246 51.9326 298.144 51.8904 298.069 51.8152C297.994 51.74 297.952 51.6381 297.952 51.5317V49.0943C296.091 51.4382 293.478 52.6088 290.11 52.6061C286.903 52.6061 284.153 51.3794 281.859 48.9259C279.566 46.4724 278.42 43.4656 278.42 39.9057C278.42 36.3457 279.566 33.3389 281.859 30.8854C284.153 28.4319 286.903 27.2052 290.11 27.2052C293.478 27.2052 296.091 28.3758 297.952 30.7171V28.2796C297.952 28.1733 297.994 28.0713 298.069 27.9961C298.144 27.9209 298.246 27.8787 298.352 27.8787ZM286.502 44.7886C287.753 46.0581 289.34 46.6915 291.265 46.6889C293.189 46.6862 294.784 46.0528 296.051 44.7886C297.318 43.5231 297.952 41.8955 297.952 39.9057C297.952 37.9159 297.318 36.2882 296.051 35.0227C294.784 33.7572 293.189 33.1238 291.265 33.1225C289.34 33.1211 287.753 33.7545 286.502 35.0227C285.251 36.2922 284.626 37.9199 284.626 39.9057C284.626 41.8914 285.251 43.5191 286.502 44.7886Z" fill="#14143C"/>
<path d="M309.786 51.5317V17.2148C309.786 17.1085 309.828 17.0065 309.903 16.9313C309.979 16.8561 310.081 16.8139 310.187 16.8139H315.599C315.705 16.8139 315.807 16.8561 315.883 16.9313C315.958 17.0065 316 17.1085 316 17.2148V51.5317C316 51.5844 315.99 51.6365 315.969 51.6851C315.949 51.7338 315.92 51.778 315.883 51.8152C315.845 51.8524 315.801 51.882 315.753 51.9021C315.704 51.9223 315.652 51.9326 315.599 51.9326H310.187C310.081 51.9326 309.979 51.8904 309.903 51.8152C309.828 51.74 309.786 51.6381 309.786 51.5317Z" fill="#14143C"/>
</svg>
