<svg viewBox="0 0 619.7 173.6" xmlns="http://www.w3.org/2000/svg"><g fill="#6d6d6d" aria-label="PUSHPAD"><path d="M207.58 118.4V55.17h22.05q9.613 0 13.5 2.008 3.931 1.965 5.896 5.597 2.008 3.632 2.008 9.143 0 10.6-6.836 16.15-6.793 5.554-18.24 5.554h-5.469v24.78zm12.9-33.45h2.563q7.52 0 11.02-3.461 3.546-3.503 3.546-8.203 0-2.649-1.111-4.785-1.111-2.179-3.461-3.418-2.307-1.239-7.434-1.239h-5.127zM260.68 55.2h13.16v38.75q0 10.51 3.546 13.93 3.589 3.418 9.271 3.418 5.597 0 8.887-3.375 3.333-3.375 3.333-13.03v-39.69h11.45v38.84q0 10.98-2.777 15.77-2.734 4.742-7.947 7.477-5.212 2.734-13.2 2.734-7.861 0-13.5-2.521-5.64-2.563-8.929-7.562-3.29-5.042-3.29-16.02zM322.08 117.9v-10.85q7.306 3.076 10.89 3.674 3.632.598 6.665.598 5.469 0 8.16-2.478t2.692-5.939q0-2.649-1.453-4.785-1.453-2.094-7.349-5.426l-4.23-2.35q-9.058-5.084-12.26-9.399-3.247-4.315-3.247-9.998 0-7.135 5.383-12.22 5.426-5.084 15.55-5.084 7.562 0 17.05 2.18v10.13q-9.656-3.633-15.34-3.633-4.7 0-7.178 2.094-2.435 2.051-2.435 4.956 0 2.222 1.453 4.144 1.41 1.923 7.306 5.255l4.529 2.521q10.38 5.853 13.24 10.17 2.82 4.358 2.82 9.784 0 7.776-5.896 13.29-5.853 5.511-18.67 5.511-7.605 0-17.69-2.136zM375.68 118.4V55.17h13.16v25.68h26.15V55.17h13.16v63.23h-13.16V89.56h-26.15v28.84zM444.08 118.4V55.17h22.05q9.613 0 13.5 2.008 3.931 1.965 5.896 5.597 2.008 3.632 2.008 9.143 0 10.6-6.836 16.15-6.793 5.554-18.24 5.554h-5.469v24.78zm12.9-33.45h2.563q7.52 0 11.02-3.461 3.546-3.503 3.546-8.203 0-2.649-1.111-4.785-1.111-2.179-3.461-3.418-2.307-1.239-7.434-1.239h-5.127zM490.78 118.4l24.61-63.23h13.16l24.61 63.23h-13.5l-6.58-16.88h-26.15l-6.58 16.88zm19.4-25.29h19.65l-9.827-25.21zM562.18 118.4V55.17h27.22q10.94 0 17 3.503 6.11 3.503 9.698 10.34 3.632 6.793 3.632 16.45 0 9.442-3.461 16.88-3.418 7.434-9.998 11.75-6.58 4.315-18.03 4.315zm13.16-8.972h9.827q7.69 0 11.75-2.393 4.102-2.393 6.451-8.075 2.393-5.725 2.393-12.73 0-6.708-2.307-11.88-2.307-5.17-6.409-7.819-4.059-2.692-13.76-2.692h-7.947z"/></g><g transform="translate(-159.82 -503.3) scale(1.246)"><circle cx="197.9" cy="473.5" r="69.64" fill="#d81e00"/><path d="M198.1 421.2a5.787 5.892 0 00-5.787 5.893 5.787 5.892 0 00.135 1.229 28.01 29.46 0 00-22.31 27.8h-.049v22.86c-1.331 4.038-4.598 9.541-12.61 13.37a6.576 6.561 0 00-5.27 6.424 6.576 6.561 0 005.385 6.447v.035h.236a6.576 6.561 0 00.955.078 6.576 6.561 0 00.977-.078h76.22a6.576 6.561 0 00.957.078 6.576 6.561 0 00.975-.078h.37v-.068a6.576 6.561 0 005.23-6.414 6.576 6.561 0 00-5.047-6.375c-7.458-3.536-10.82-8.514-12.35-12.45v-23.83h-.036a28.01 29.46 0 00-22.31-27.82 5.787 5.892 0 00.123-1.201 5.787 5.892 0 00-5.787-5.893zM185.1 507.8a12.81 12.47 0 0012.77 11.56 12.81 12.47 0 0012.76-11.56z" fill="#eee"/></g></svg>