<?xml version="1.0" encoding="utf-8"?>
<!-- Generator: Adobe Illustrator 26.3.1, SVG Export Plug-In . SVG Version: 6.00 Build 0)  -->
<svg version="1.1" id="Calque_1" xmlns="http://www.w3.org/2000/svg" xmlns:xlink="http://www.w3.org/1999/xlink" x="0px" y="0px"
     viewBox="0 0 212 25" style="enable-background:new 0 0 212 25;" xml:space="preserve">
<style type="text/css">
	.st0{clip-path:url(#SVGID_00000154400106951558966670000003715435704710172859_);}
	.st1{font-family:'Lato-Regular';}
	.st2{font-size:19.8614px;}
</style>
  <g>
	<defs>
		<rect id="SVGID_1_" y="0" width="212" height="25"/>
	</defs>
    <clipPath id="SVGID_00000143607637816363483150000001826877928133396866_">
		<use xlink:href="#SVGID_1_"  style="overflow:visible;"/>
	</clipPath>
    <path style="clip-path:url(#SVGID_00000143607637816363483150000001826877928133396866_);" d="M28.5,2.4L28.5,2.4l-0.3,0.1
		c-0.6,0.1-1.1,0.2-1.7,0.5c-0.5,0.3-1,0.6-1.4,1c-0.7,0.6-1.2,1.4-1.5,2.4c-0.2,0.5-0.2,1.1-0.2,1.6s0.1,1.1,0.3,1.6
		c0.3,0.8,0.7,1.5,1.4,2l0.3,0.3l-2.2,3.5c-0.5,0-0.8,0-1.2,0.2c-0.5,0.2-0.9,0.6-1.2,1c-0.1,0.3-0.2,0.5-0.2,0.8
		c0,0.3,0,0.6,0.1,0.8c0.1,0.5,0.4,0.9,0.9,1.2c0.3,0.2,0.5,0.3,0.9,0.4s0.6,0.1,0.9,0.1c0.3,0,0.6-0.2,0.9-0.3
		c0.3-0.2,0.5-0.4,0.7-0.7c0.2-0.3,0.3-0.6,0.4-1c0-0.4,0-0.7-0.1-1.1c0-0.1-0.1-0.2-0.2-0.4L25,16.4l3.1-5c0.1-0.2,0.2-0.3,0.2-0.4
		L28,11c-0.2,0-0.3-0.1-0.3-0.1c-0.4-0.2-0.8-0.4-1.1-0.7c-0.3-0.3-0.6-0.6-0.7-1c-0.3-0.6-0.4-1.3-0.2-2c0.1-0.4,0.2-0.8,0.4-1.1
		c0.2-0.3,0.5-0.6,0.8-0.9c0.6-0.5,1.4-0.7,2.1-0.7c0.5,0,0.9,0.1,1.4,0.2c0.4,0.2,0.8,0.4,1.2,0.8c0.3,0.3,0.5,0.6,0.7,1
		c0.2,0.4,0.3,0.8,0.3,1.2c0,0.3-0.1,0.7-0.2,1.1l1.8,0.5l0.2,0c0.2-0.7,0.3-1.5,0.2-2.2c-0.1-0.6-0.2-1.1-0.5-1.7
		c-0.3-0.5-0.6-1-1-1.4c-0.7-0.7-1.6-1.2-2.7-1.5c-0.1,0-0.3-0.1-0.5-0.1l-0.4-0.1H28.5z M29,5.6c-0.3,0-0.6,0.1-0.9,0.2
		c-0.3,0.1-0.6,0.3-0.8,0.5c-0.2,0.2-0.4,0.5-0.5,0.8c-0.1,0.3-0.2,0.7-0.1,1.1c0.1,0.3,0.2,0.6,0.4,0.9c0.2,0.3,0.4,0.5,0.7,0.7
		c0.4,0.3,0.9,0.4,1.5,0.3c0.1,0.1,0.1,0.1,0.1,0.2l2.9,5c0.1,0.1,0.1,0.2,0.2,0.2c0.5-0.5,1-0.8,1.5-0.9c0.5-0.2,1.1-0.2,1.7-0.1
		s1.1,0.3,1.5,0.7c0.6,0.4,0.9,1,1.1,1.6c0.2,0.6,0.2,1.3,0,1.9c-0.1,0.5-0.4,0.9-0.7,1.3c-0.4,0.4-0.8,0.7-1.3,0.9
		c-0.5,0.2-1.1,0.3-1.7,0.2c-0.6-0.1-1.2-0.3-1.7-0.6c-0.1-0.1-0.2-0.1-0.3-0.3l-0.1-0.2c-0.1,0.1-0.2,0.1-0.3,0.3L31,21.5
		c0.4,0.4,0.8,0.7,1.4,1c0.5,0.3,1,0.5,1.6,0.6l0.6,0.1h1l0.7-0.1c1.1-0.2,2.1-0.7,2.9-1.6c0.4-0.4,0.7-0.8,0.9-1.3
		c0.3-0.5,0.4-1,0.5-1.5c0.1-0.6,0.1-1.2-0.1-1.9c-0.1-0.6-0.3-1.2-0.7-1.7c-0.3-0.5-0.7-0.9-1.1-1.3s-0.9-0.7-1.5-0.9
		c-0.6-0.2-1.2-0.4-1.8-0.4c-0.6,0-1.3,0-1.9,0.2l-0.4,0.1L31,9.2c0.2-0.3,0.4-0.7,0.4-1c0.1-0.6,0-1.1-0.3-1.6
		c-0.3-0.4-0.7-0.7-1.1-0.9C29.6,5.7,29.3,5.6,29,5.6z M21.7,12.5c-1,0.2-1.9,0.7-2.6,1.4c-0.8,0.8-1.3,1.7-1.6,2.7l-0.1,0.6v1
		l0.1,0.3c0,0.2,0.1,0.4,0.1,0.5c0.1,0.5,0.3,1,0.6,1.5c0.3,0.5,0.7,0.9,1.1,1.3c0.9,0.7,1.9,1.1,3,1.3c0.7,0.1,1.3,0,2-0.1
		c0.7-0.1,1.3-0.4,1.8-0.7c0.9-0.6,1.6-1.4,2-2.4c0.1-0.3,0.2-0.7,0.4-1.2c0.1,0,0.3,0,0.5,0l3.3,0.1c0.2,0,0.4,0,0.5,0
		c0.2,0.3,0.4,0.6,0.7,0.8c0.2,0.2,0.5,0.3,0.8,0.4c0.3,0.1,0.6,0.1,0.9,0.1c0.5-0.1,0.9-0.2,1.3-0.5c0.5-0.4,0.7-0.8,0.8-1.4
		c0-0.3,0-0.6,0-0.9c-0.1-0.3-0.2-0.5-0.4-0.8c-0.3-0.4-0.6-0.7-1.1-0.8c-0.3-0.1-0.6-0.2-0.9-0.2c-0.3,0-0.6,0.1-0.9,0.2
		c-0.5,0.2-0.9,0.5-1.1,1l-0.1,0.2c-0.2,0-0.6,0-1.1,0l-2.9,0c-0.3,0-0.6,0-1.1,0l-1.3,0l0.1,0.4c0.1,0.7,0,1.4-0.3,2.1
		c-0.2,0.5-0.6,0.9-1,1.2C24.5,20.8,24,21,23.5,21c-0.6,0.1-1.2,0-1.8-0.2c-0.6-0.2-1.1-0.6-1.5-1.1c-0.5-0.6-0.7-1.3-0.7-2.1
		c0-0.6,0.2-1.2,0.6-1.8c0.2-0.3,0.5-0.6,0.8-0.8s0.7-0.4,1.1-0.5l0.2-0.1L21.7,12.5z"/>
    <g style="clip-path:url(#SVGID_00000143607637816363483150000001826877928133396866_);">
		<text transform="matrix(1 0 0 1 51.6538 20.0324)" class="st1 st2">Push Webhook </text>
	</g>
</g>
</svg>
