<svg width="106" height="27" viewBox="0 0 106 27" fill="none" xmlns="http://www.w3.org/2000/svg">
  <path
    d="M11.534 5.64446L9.43428 6.86406C9.40141 6.88315 9.38112 6.91837 9.38098 6.95654V25.666C9.38128 25.6849 9.3914 25.7022 9.40763 25.7116L11.6139 26.9928C11.6303 27.0023 11.6504 27.0024 11.6668 26.993C11.6833 26.9837 11.6935 26.9663 11.6939 26.9473V5.73694C11.6937 5.6987 11.6733 5.66343 11.6404 5.64437C11.6074 5.62531 11.5669 5.62534 11.534 5.64446Z"
    fill="#2AE9AA" />
  <path
    d="M14.1349 25.5361V23.1411C14.1345 23.1028 14.1545 23.0672 14.1873 23.0479C14.22 23.0286 14.2605 23.0285 14.2933 23.0477L16.2672 24.1992C16.2994 24.2187 16.3192 24.2539 16.3192 24.2919C16.3192 24.3299 16.2994 24.3651 16.2672 24.3846L14.2141 25.5855C14.1973 25.5953 14.1764 25.595 14.1599 25.5847C14.1433 25.5744 14.1337 25.5557 14.1349 25.5361Z"
    fill="#2AE9AA" />
  <path
    d="M14.0066 20.2152V17.7649C14.0067 17.7269 14.0274 17.6919 14.0609 17.673C14.0944 17.6541 14.1356 17.6541 14.169 17.6731L20.8905 21.487C20.9243 21.5059 20.9452 21.5412 20.9452 21.5794C20.9452 21.6177 20.9243 21.6529 20.8905 21.6719L18.7317 22.8984C18.7149 22.9076 18.6944 22.9076 18.6775 22.8984L14.0337 20.2631C14.0158 20.2538 14.0053 20.235 14.0066 20.2152Z"
    fill="#2AE9AA" />
  <path
    d="M14.1348 14.8587V12.3923C14.1344 12.3538 14.1549 12.3181 14.1884 12.2988C14.2219 12.2794 14.2633 12.2793 14.2969 12.2985L23.4608 17.5421C23.4944 17.5616 23.515 17.5973 23.5149 17.6358V20.1639C23.5151 20.1831 23.5048 20.2009 23.4881 20.2106C23.4713 20.2203 23.4506 20.2204 23.4338 20.2107L14.1618 14.9056C14.1447 14.8961 14.1343 14.8781 14.1348 14.8587Z"
    fill="#2AE9AA" />
  <path
    d="M14.1348 9.48461V7.01815C14.1344 6.97971 14.1549 6.94403 14.1884 6.92466C14.2219 6.90529 14.2633 6.9052 14.2969 6.92442L23.4608 12.168C23.4944 12.1869 23.515 12.2222 23.5149 12.2604V14.7898C23.5151 14.809 23.5048 14.8268 23.4881 14.8365C23.4713 14.8462 23.4506 14.8463 23.4338 14.8366L14.1618 9.5288C14.1453 9.52004 14.135 9.50311 14.1348 9.48461Z"
    fill="#2AE9AA" />
  <path
    d="M6.90909 8.32942L4.80705 9.549C4.77393 9.56788 4.75352 9.60322 4.75366 9.64147V22.9791C4.75397 22.9979 4.7641 23.0152 4.78036 23.0247L6.98516 24.3059C7.00194 24.3153 7.02242 24.3152 7.03909 24.3056C7.05577 24.296 7.0662 24.2783 7.06657 24.259V8.42323C7.06563 8.38589 7.04565 8.35166 7.01366 8.33261C6.98167 8.31355 6.94217 8.31235 6.90909 8.32942Z"
    fill="#2AE9AA" />
  <path
    d="M2.14894 11.0204L0.0533631 12.2392C0.0202806 12.2581 -0.000102631 12.2934 4.05888e-05 12.3316V20.2912C-0.000733583 20.3107 0.00961815 20.3289 0.0267018 20.3381L2.23292 21.6185C2.24949 21.6281 2.26992 21.6281 2.28645 21.6184C2.30298 21.6087 2.31308 21.5909 2.3129 21.5716V11.1142C2.31326 11.0748 2.29238 11.0384 2.25834 11.0189C2.22429 10.9994 2.18243 11 2.14894 11.0204Z"
    fill="#2AE9AA" />
  <path
    d="M0.000457905 9.28464V6.75535C2.11513e-05 6.71705 0.0208085 6.68158 0.0546293 6.66292L11.7055 0.0141544C11.7391 -0.00471814 11.7803 -0.00471814 11.8139 0.0141544L23.4607 6.6656C23.4946 6.68426 23.5154 6.71973 23.5149 6.75803V9.28464C23.5151 9.30387 23.5048 9.32172 23.488 9.33141C23.4713 9.3411 23.4505 9.34115 23.4337 9.33153L11.7868 2.68143C11.77 2.67213 11.7495 2.67213 11.7326 2.68143L0.0857779 9.33153C0.0687816 9.3434 0.0464161 9.34459 0.0282301 9.3346C0.010044 9.3246 -0.000749435 9.30519 0.000457905 9.28464Z"
    fill="#2AE9AA" />
  <path fill-rule="evenodd" clip-rule="evenodd"
    d="M35.0802 6.4548H41.4471C43.9823 6.4548 45.8044 8.10297 45.8044 10.3769C45.8044 11.5657 45.239 12.5523 44.3177 13.1089V13.1511C45.5744 13.7346 46.3492 14.9874 46.3492 16.5102C46.3492 19.5813 44.5271 21.0567 40.7777 21.0567H35.0802V6.4548ZM41.0086 12.2731C42.1188 12.2731 42.7266 11.7305 42.7266 10.7298C42.7266 9.74966 42.1188 9.20709 41.0086 9.20709H38.1817V12.2782L41.0086 12.2731ZM43.2712 16.4869C43.2712 17.7179 42.6634 18.3014 41.3438 18.3014L38.1802 18.2976V14.7146H41.3643C42.6004 14.7146 43.2712 15.3352 43.2712 16.4869Z"
    fill="#300D4F" />
  <path
    d="M49.3636 6.45328H58.8119V9.29023H52.4642V12.2526H58.2465V14.9641H52.4642V18.2259H58.8324V21.0629H49.3636V6.45328Z"
    fill="#300D4F" />
  <path fill-rule="evenodd" clip-rule="evenodd"
    d="M64.361 18.7826H69.975L70.7446 21.0552H73.8285L68.5923 6.45328H65.7436L60.5062 21.0565H63.59L64.361 18.7826ZM67.1869 10.689L69.0308 16.0711H65.3019L67.1458 10.689H67.1869Z"
    fill="#300D4F" />
  <path
    d="M76.1113 6.45328H79.5459L83.6578 16.2783H83.6989L87.821 6.45328H91.2557V21.0565H88.2181V12.0453H88.1769L84.3439 21.0565H83.0024L79.19 12.0453H79.1489V21.0565H76.1113V6.45328Z"
    fill="#300D4F" />
  <path
    d="M97.0784 15.5911C97.4768 17.7665 98.3351 18.5957 100.283 18.5957C101.729 18.5957 102.546 18.0736 102.546 17.1561C102.546 16.1324 101.855 15.6334 99.4029 14.799C95.9888 13.6474 94.7116 12.4202 94.7116 10.2717C94.7116 7.83142 96.7675 6.1423 99.6753 6.1423C102.546 6.1423 104.787 7.87365 105.248 10.4393L102.231 11.0791C101.833 9.5986 101.017 8.91015 99.6753 8.91015C98.5189 8.91015 97.7697 9.43096 97.7697 10.2448C97.7697 10.9959 98.3981 11.4131 100.576 12.1438C102.398 12.7695 103.718 13.4567 104.494 14.2296C105.27 15.0025 105.65 15.9609 105.65 17.1497C105.65 19.6732 103.45 21.3636 100.246 21.3636C96.7482 21.3636 94.5702 19.5721 94.046 16.2322L97.0784 15.5911Z"
    fill="#300D4F" />
</svg>
