<svg xmlns="http://www.w3.org/2000/svg" xmlns:xlink="http://www.w3.org/1999/xlink" width="1013px" height="257px" viewBox="0 0 1013 257" version="1.1">
    <!-- Generator: Sketch 52.4 (67378) - http://www.bohemiancoding.com/sketch -->
    <title>Slack Logo</title>
    <desc>Created with Sketch.</desc>
    <defs>
        <polygon id="path-1" points="0 256.5 1012.981 256.5 1012.981 0 0 0"/>
    </defs>
    <g id="Slack-Logo" stroke="none" stroke-width="1" fill="none" fill-rule="evenodd">
        <path d="M324.0001,201.9355 L336.5771,172.5945 C350.3481,182.7725 368.3141,188.1615 386.2781,188.1615 C399.4521,188.1615 407.8361,183.0725 407.8361,175.2875 C407.5371,153.7315 328.4921,170.4985 327.8931,116.3035 C327.5921,88.7585 352.1451,67.4995 386.8771,67.4995 C407.5371,67.4995 428.1961,72.5925 442.8671,84.2695 L431.1151,114.2375 C417.6161,105.5745 400.9481,99.5365 385.0811,99.5365 C374.3001,99.5365 367.1151,104.6255 367.1151,111.2145 C367.4151,132.4735 447.0591,120.7955 447.9591,172.5945 C447.9591,200.7395 424.0031,220.4975 389.8701,220.4975 C364.7221,220.4975 341.6671,214.5125 324.0001,201.9355" id="Fill-1" fill="#000000"/>
        <path d="M809.6163,161.9697 C803.3433,173.0477 791.4593,180.5267 777.8173,180.5267 C757.6433,180.5267 741.2923,164.1747 741.2923,144.0007 C741.2923,123.8267 757.6433,107.4717 777.8173,107.4717 C791.4593,107.4717 803.3433,114.9507 809.6163,126.0287 L844.5813,106.6587 C831.4873,83.2977 806.5033,67.5017 777.8173,67.5017 C735.5693,67.5017 701.3183,101.7487 701.3183,144.0007 C701.3183,186.2497 735.5693,220.4997 777.8173,220.4997 C806.5033,220.4997 831.4873,204.7007 844.5813,181.3397 L809.6163,161.9697 Z" id="Fill-3" fill="#000000"/>
        <mask id="mask-2" fill="white">
            <use xlink:href="#path-1"/>
        </mask>
        <g id="Clip-6"/>
        <polygon id="Fill-5" fill="#000000" mask="url(#mask-2)" points="465.585 217.505 509.301 217.505 509.301 3.823 465.585 3.823"/>
        <polygon id="Fill-7" fill="#000000" mask="url(#mask-2)" points="861.5909 3.8232 861.5909 217.5052 905.3069 217.5052 905.3069 153.4852 957.1079 217.5052 1012.9809 217.5052 947.1059 141.4512 1008.1889 70.4872 954.7109 70.4872 905.3069 129.4832 905.3069 3.8232"/>
        <path d="M638.9073,70.4946 L638.9073,87.8606 C631.7223,75.8836 614.0553,67.5016 595.4933,67.5016 C557.1683,67.5016 526.9283,101.3346 526.9283,143.8496 C526.9283,186.3676 557.1683,220.4996 595.4933,220.4996 C614.0553,220.4996 631.7223,212.1156 638.9073,200.1376 L638.9073,217.5036 L682.6223,217.5036 L682.6223,70.4946 L638.9073,70.4946 Z M638.9073,162.2636 C632.6193,172.7446 619.4453,180.5266 604.7743,180.5266 C584.6003,180.5266 568.2463,164.1746 568.2463,144.0006 C568.2463,123.8276 584.6003,107.4726 604.7743,107.4726 C619.4453,107.4726 632.6193,115.5566 638.9073,126.3346 L638.9073,162.2636 Z" id="Fill-8" fill="#000000" mask="url(#mask-2)"/>
        <path d="M54.0001,162 C54.0001,176.912 41.9121,189 27.0001,189 C12.0881,189 0.0001,176.912 0.0001,162 C0.0001,147.088 12.0881,135 27.0001,135 L54.0001,135 L54.0001,162 Z" id="Fill-9" fill="#E01E5A" mask="url(#mask-2)"/>
        <path d="M67.5001,162 C67.5001,147.088 79.5881,135 94.5001,135 C109.4121,135 121.5001,147.088 121.5001,162 L121.5001,229.5 C121.5001,244.412 109.4121,256.5 94.5001,256.5 C79.5881,256.5 67.5001,244.412 67.5001,229.5 L67.5001,162 Z" id="Fill-10" fill="#E01E5A" mask="url(#mask-2)"/>
        <path d="M94.5001,54 C79.5881,54 67.5001,41.912 67.5001,27 C67.5001,12.088 79.5881,0 94.5001,0 C109.4121,0 121.5001,12.088 121.5001,27 L121.5001,54 L94.5001,54 Z" id="Fill-11" fill="#36C5F0" mask="url(#mask-2)"/>
        <path d="M94.5001,67.5 C109.4121,67.5 121.5001,79.588 121.5001,94.5 C121.5001,109.412 109.4121,121.5 94.5001,121.5 L27.0001,121.5 C12.0881,121.5 0.0001,109.412 0.0001,94.5 C0.0001,79.588 12.0881,67.5 27.0001,67.5 L94.5001,67.5 Z" id="Fill-12" fill="#36C5F0" mask="url(#mask-2)"/>
        <path d="M202.5001,94.5 C202.5001,79.588 214.5881,67.5 229.5001,67.5 C244.4121,67.5 256.5001,79.588 256.5001,94.5 C256.5001,109.412 244.4121,121.5 229.5001,121.5 L202.5001,121.5 L202.5001,94.5 Z" id="Fill-13" fill="#2EB67D" mask="url(#mask-2)"/>
        <path d="M189.0001,94.5 C189.0001,109.412 176.9121,121.5 162.0001,121.5 C147.0881,121.5 135.0001,109.412 135.0001,94.5 L135.0001,27 C135.0001,12.088 147.0881,0 162.0001,0 C176.9121,0 189.0001,12.088 189.0001,27 L189.0001,94.5 Z" id="Fill-14" fill="#2EB67D" mask="url(#mask-2)"/>
        <path d="M162.0001,202.5 C176.9121,202.5 189.0001,214.588 189.0001,229.5 C189.0001,244.412 176.9121,256.5 162.0001,256.5 C147.0881,256.5 135.0001,244.412 135.0001,229.5 L135.0001,202.5 L162.0001,202.5 Z" id="Fill-15" fill="#ECB22E" mask="url(#mask-2)"/>
        <path d="M162.0001,189 C147.0881,189 135.0001,176.912 135.0001,162 C135.0001,147.088 147.0881,135 162.0001,135 L229.5001,135 C244.4121,135 256.5001,147.088 256.5001,162 C256.5001,176.912 244.4121,189 229.5001,189 L162.0001,189 Z" id="Fill-16" fill="#ECB22E" mask="url(#mask-2)"/>
    </g>
</svg>