<svg width="138" height="27" viewBox="0 0 138 27" fill="none" xmlns="http://www.w3.org/2000/svg">
<g clip-path="url(#clip0_1_30)">
<path d="M48.4257 21.9721C48.4257 24.5866 45.8647 26.2961 42.7217 26.2961C40.6264 26.2961 38.8803 25.4916 37.4834 24.0838L39.6951 22.0726C40.51 22.8771 41.092 23.6816 42.9545 23.6816C44.1186 23.6816 45.0499 22.8771 45.0499 21.9721C45.0499 19.0559 37.7162 20.7654 37.7162 15.6369C37.7162 12.9218 40.1607 11.2123 43.4202 11.2123C45.0499 11.2123 47.1452 12.0168 48.0765 13.2235L46.0976 15.2346C45.2827 14.5307 44.1186 13.9274 43.1874 13.9274C42.1397 13.9274 41.092 14.3296 41.092 15.6369C41.092 18.0503 48.4257 16.3408 48.4257 21.9721Z" fill="#6091F2"/>
<path d="M63.4424 26.2961L62.0455 18.9553L57.9712 26.2961H57.8548L53.6641 18.9553L52.3836 26.2961L49.2406 25.9944L52.3836 11.2123H52.5L57.8548 20.8659L63.3259 11.2123H63.4424L66.5854 25.9944L63.4424 26.2961Z" fill="#6091F2"/>
<path d="M78.2262 21.9721C78.2262 24.5866 75.6652 26.2961 72.5222 26.2961C70.4268 26.2961 68.6807 25.4916 67.2838 24.0838L69.4956 22.0726C70.3104 22.8771 70.8925 23.6816 72.755 23.6816C73.9191 23.6816 74.8503 22.8771 74.8503 21.9721C74.8503 19.0559 67.5166 20.7654 67.5166 15.6369C67.5166 12.9218 69.9612 11.2123 73.2206 11.2123C74.8503 11.2123 76.9457 12.0168 77.8769 13.2235L75.898 15.2346C75.0831 14.5307 73.9191 13.9274 72.9878 13.9274C71.9401 13.9274 70.8925 14.3296 70.8925 15.6369C70.8925 18.0503 78.2262 16.3408 78.2262 21.9721Z" fill="#6091F2"/>
<path d="M134.825 2.6418C134.152 2.02191 131.429 0.0456859 125.357 0.0191949C125.357 0.0191949 118.199 -0.409959 114.713 2.79015C112.774 4.72929 112.091 7.57442 112.016 11.0977C111.942 14.621 111.852 21.2226 118.215 23.0134H118.221L118.215 25.7472C118.215 25.7472 118.173 26.8546 118.904 27.0771C119.784 27.3526 120.303 26.5102 121.145 25.6042C121.606 25.1062 122.242 24.375 122.724 23.8187C127.079 24.1843 130.422 23.3472 130.804 23.2253C131.683 22.9392 136.658 22.3034 137.464 15.7019C138.301 8.88837 137.061 4.58624 134.825 2.6418ZM135.562 15.2038C134.878 20.7139 130.846 21.0636 130.104 21.302C129.787 21.4027 126.846 22.1339 123.153 21.8954C123.153 21.8954 120.398 25.2174 119.54 26.081C119.259 26.3618 118.952 26.3353 118.957 25.779C118.957 25.4134 118.978 21.2385 118.978 21.2385C118.973 21.2385 118.973 21.2385 118.978 21.2385C113.585 19.7444 113.903 14.123 113.961 11.1825C114.019 8.242 114.575 5.83132 116.218 4.21007C119.169 1.53448 125.246 1.93184 125.246 1.93184C130.38 1.95304 132.838 3.50011 133.411 4.01933C135.302 5.64058 136.266 9.51886 135.562 15.2038ZM128.197 10.9229C128.218 11.3785 127.535 11.4103 127.514 10.9547C127.455 9.78907 126.91 9.22216 125.786 9.15858C125.331 9.13209 125.373 8.44863 125.824 8.47512C127.302 8.55459 128.123 9.4023 128.197 10.9229ZM129.273 11.5216C129.326 9.27514 127.922 7.51614 125.257 7.32011C124.806 7.28832 124.854 6.60485 125.304 6.63664C128.377 6.85917 130.014 8.97315 129.956 11.5375C129.951 11.9931 129.262 11.9719 129.273 11.5216ZM131.763 12.2315C131.768 12.6872 131.079 12.6925 131.079 12.2368C131.048 7.91881 128.171 5.56641 124.679 5.53992C124.229 5.53462 124.229 4.85645 124.679 4.85645C128.584 4.88294 131.726 7.57972 131.763 12.2315ZM131.164 17.4291V17.4397C130.592 18.4463 129.522 19.5589 128.42 19.204L128.409 19.1881C127.291 18.8755 124.658 17.5191 122.994 16.1946C122.136 15.5164 121.352 14.7164 120.748 13.9482C120.202 13.2647 119.651 12.4541 119.116 11.4792C117.988 9.43939 117.738 8.5281 117.738 8.5281C117.384 7.42607 118.491 6.35584 119.503 5.78363H119.513C120.001 5.52932 120.467 5.61409 120.78 5.99026C120.78 5.99026 121.437 6.7744 121.717 7.16116C121.982 7.52144 122.337 8.09894 122.523 8.42213C122.846 8.99964 122.645 9.58774 122.327 9.83145L121.691 10.3401C121.368 10.5997 121.41 11.0818 121.41 11.0818C121.41 11.0818 122.353 14.6475 125.877 15.5482C125.877 15.5482 126.359 15.5906 126.618 15.2674L127.127 14.6316C127.371 14.3137 127.959 14.1124 128.536 14.4356C129.315 14.8753 130.306 15.5588 130.963 16.1787C131.334 16.4807 131.418 16.9416 131.164 17.4291Z" fill="black"/>
<path d="M82.6497 25.6927V20.4637L85.3271 23.0782L82.6497 25.6927Z" fill="#282828"/>
<path d="M93.8248 26.095C93.4756 26.1955 93.1264 26.1955 92.7772 26.1955C90.9146 26.1955 89.867 25.2905 89.867 23.6816V18.2514H88.4701L88.7029 17.2458H89.7506V15.0335L90.9146 14.4302V17.1453H93.7084V18.1508H90.9146V23.6816C90.9146 24.7877 91.4967 25.1899 92.7772 25.1899H93.2428C93.3592 25.1899 93.592 25.1899 93.7084 25.1899V26.095H93.8248Z" fill="#282828"/>
<path d="M103.836 21.6704C103.836 19.7598 102.09 18.0503 99.7616 18.0503C97.4335 18.0503 95.6874 19.7598 95.6874 21.6704C95.6874 23.581 97.4335 25.2905 99.7616 25.2905C102.09 25.2905 103.836 23.581 103.836 21.6704ZM105 21.6704C105 24.0838 102.788 26.2961 99.7616 26.2961C96.735 26.2961 94.5233 23.9832 94.5233 21.6704C94.5233 19.257 96.735 17.0447 99.7616 17.0447C102.788 16.9441 105 19.257 105 21.6704Z" fill="#282828"/>
<path d="M25.4933 9H1.28049C0.58204 9 0 9.50279 0 10.1061C0 11.4134 0 13.324 0 14.5307L2.44457 16.2402V11.8156L12.8049 18.9553C13.0377 19.0559 13.1541 19.1564 13.3869 19.1564C13.6197 19.1564 13.8525 19.0559 13.969 18.9553L24.3293 11.8156V16.2402L26.7738 14.5307V10.1061C26.7738 9.50279 26.1918 9 25.4933 9Z" fill="#6091F2"/>
<mask id="mask0_1_30" style="mask-type:luminance" maskUnits="userSpaceOnUse" x="0" y="13" width="27" height="14">
<path d="M25.6098 27H1.16408C0.58204 27 0 26.5978 0 25.9944C0 21.9721 0 17.9497 0 13.9274L12.8049 22.7765C13.0377 22.8771 13.1541 22.9777 13.3869 22.9777C13.6197 22.9777 13.8525 22.8771 13.969 22.7765L26.7738 13.9274V25.9944C26.7738 26.4972 26.3082 27 25.6098 27Z" fill="white"/>
</mask>
<g mask="url(#mask0_1_30)">
<path d="M26.7738 13.9274H0V27H26.7738V13.9274Z" fill="url(#paint0_linear_1_30)"/>
</g>
<mask id="mask1_1_30" style="mask-type:luminance" maskUnits="userSpaceOnUse" x="7" y="13" width="20" height="14">
<path d="M7.79933 27H25.6098C26.1918 27 26.7738 26.5978 26.7738 25.9944V13.9274L24.3293 15.6369L13.969 22.676L7.79933 27Z" fill="white"/>
</mask>
<g mask="url(#mask1_1_30)">
<path d="M26.7738 13.9274H7.79933V27H26.7738V13.9274Z" fill="url(#paint1_linear_1_30)"/>
</g>
</g>
<defs>
<linearGradient id="paint0_linear_1_30" x1="9.05747" y1="24.1712" x2="17.824" y2="14.0336" gradientUnits="userSpaceOnUse">
<stop stop-color="#85B1FF"/>
<stop offset="1" stop-color="#4774B7"/>
</linearGradient>
<linearGradient id="paint1_linear_1_30" x1="25.9323" y1="24.73" x2="9.55804" y2="13.7994" gradientUnits="userSpaceOnUse">
<stop stop-color="#85B7F5"/>
<stop offset="1" stop-color="#46A1FF"/>
</linearGradient>
<clipPath id="clip0_1_30">
<rect width="138" height="27" fill="white"/>
</clipPath>
</defs>
</svg>
