<?xml version="1.0" standalone="no"?>
<!DOCTYPE svg PUBLIC "-//W3C//DTD SVG 20010904//EN"
 "http://www.w3.org/TR/2001/REC-SVG-20010904/DTD/svg10.dtd">
<svg version="1.0" xmlns="http://www.w3.org/2000/svg"
 width="900.000000pt" height="900.000000pt" viewBox="0 0 900.000000 900.000000"
 preserveAspectRatio="xMidYMid meet">

<g transform="translate(0.000000,900.000000) scale(0.100000,-0.100000)"
fill="#000000" stroke="none">
<path d="M2352 6629 c-186 -27 -337 -139 -422 -313 -81 -165 -74 -9 -80 -1796
l-5 -1595 -23 -43 c-31 -58 -73 -82 -142 -82 -73 0 -126 26 -178 85 -53 61
-53 58 -202 685 -159 663 -441 1840 -541 2255 -62 256 -88 348 -118 410 -42
89 -127 208 -144 202 -18 -6 -182 -389 -201 -469 -4 -19 34 -195 120 -550 69
-288 165 -689 214 -893 49 -203 100 -417 114 -475 14 -58 83 -348 155 -645 71
-297 138 -563 149 -590 62 -157 191 -302 332 -373 235 -118 521 -87 702 76 70
64 132 168 171 290 l22 67 5 1600 c5 1743 2 1632 59 1692 59 61 184 53 265
-18 60 -53 83 -106 127 -289 89 -373 190 -796 223 -930 53 -221 451 -1882 476
-1989 42 -179 152 -352 285 -446 131 -94 268 -132 431 -122 281 19 478 198
538 489 14 69 16 249 16 1621 0 1677 -2 1615 53 1676 48 52 139 66 212 32 52
-23 117 -95 139 -152 9 -24 120 -476 246 -1004 127 -528 242 -1007 256 -1065
14 -58 61 -253 104 -435 178 -747 177 -743 258 -862 139 -205 368 -319 603
-299 149 12 266 64 365 161 70 69 111 138 151 250 l28 80 5 1600 5 1600 21 45
c33 70 64 93 134 98 114 8 214 -68 254 -193 9 -27 74 -295 146 -595 71 -300
179 -752 240 -1005 61 -253 140 -581 175 -730 213 -889 212 -886 291 -1005 40
-62 110 -139 117 -129 8 11 90 195 123 274 65 158 74 190 63 227 -5 18 -41
164 -79 323 -38 160 -162 677 -275 1150 -270 1126 -269 1122 -316 1320 -92
388 -123 460 -258 596 -69 69 -103 94 -171 128 -111 54 -208 74 -325 68 -274
-15 -469 -178 -548 -454 l-22 -78 -5 -1590 c-5 -1565 -5 -1591 -25 -1629 -28
-55 -64 -78 -129 -84 -99 -8 -198 59 -242 163 -8 21 -83 319 -165 664 -82 344
-173 721 -201 836 -114 476 -167 696 -192 800 -159 669 -220 907 -245 962
-127 271 -384 430 -659 409 -267 -20 -450 -174 -534 -448 l-23 -73 -5 -1595
c-5 -1570 -5 -1596 -25 -1635 -29 -57 -75 -85 -142 -85 -29 0 -68 6 -87 14
-49 21 -104 74 -131 126 -14 27 -61 201 -110 406 -48 198 -99 413 -115 479
-16 66 -95 395 -175 730 -80 336 -164 684 -186 773 -21 90 -71 297 -110 460
-39 164 -82 331 -95 372 -84 252 -297 434 -548 469 -87 12 -105 12 -194 0z"/>
</g>
</svg>
