<svg xmlns="http://www.w3.org/2000/svg" width="120" height="35" xml:space="preserve" enable-background="new -66.906 -50.682 911 331" version="1.1" style=""><rect id="backgroundrect" width="100%" height="100%" x="0" y="0" fill="none" stroke="none"/>

 <g style="" class="currentLayer">
  <title>Layer 1</title>
  <g stroke="null" id="svg_1" class="" fill="#25d366" fill-opacity="1">
   <g stroke="null" id="svg_2" fill="#25d366" fill-opacity="1">
    <path stroke="null" id="svg_3" d="m51.79459,20.72861l-0.0338,0l-2.0692,-8.34534l-2.49335,0l-2.10331,8.24409l-0.0338,0l-1.9164,-8.24409l-2.66314,0l3.20583,12.11069l2.69725,0l2.01796,-8.24255l0.03411,0l2.05176,8.24255l2.64647,0l3.25646,-12.11069l-2.61159,0l-1.98524,8.34534zm12.72114,-4.24846c-0.23785,-0.31117 -0.56276,-0.5535 -0.97518,-0.72899c-0.41304,-0.1758 -0.94153,-0.26317 -1.58563,-0.26317c-0.45286,0 -0.91622,0.11638 -1.39161,0.34729c-0.47416,0.23214 -0.86466,0.60227 -1.17027,1.11147l-0.05032,0l0,-4.56348l-2.40893,0l0,12.11069l2.40893,0l0,-4.59605c0,-0.89291 0.14617,-1.53469 0.44051,-1.9255c0.29419,-0.39035 0.76897,-0.58452 1.42526,-0.58452c0.57603,0 0.97765,0.1775 1.20377,0.53389s0.33972,0.89723 0.33972,1.61974l0,4.95244l2.40815,0l0,-5.3928c0,-0.543 -0.04769,-1.03738 -0.14354,-1.48407c-0.09709,-0.44684 -0.26363,-0.82577 -0.50086,-1.13693zm9.92155,6.06391l0,-4.56302c0,-0.53111 -0.11823,-0.95835 -0.35639,-1.28033c-0.23723,-0.32228 -0.54269,-0.57433 -0.91529,-0.75523c-0.37322,-0.1809 -0.78687,-0.30268 -1.23834,-0.36473c-0.45224,-0.06112 -0.89893,-0.09292 -1.33975,-0.09292c-0.48589,0 -0.97008,0.04831 -1.45011,0.14385c-0.48141,0.09585 -0.91344,0.25715 -1.29808,0.48327c-0.38433,0.22674 -0.7009,0.52602 -0.94894,0.89862c-0.24927,0.37414 -0.39066,0.8429 -0.42477,1.40905l2.40846,0c0.04522,-0.4757 0.20436,-0.81481 0.47509,-1.01839c0.27135,-0.20343 0.64394,-0.30561 1.11965,-0.30561c0.2147,0 0.41489,0.01451 0.60196,0.04306c0.1863,0.0284 0.35053,0.08443 0.49206,0.16886c0.14138,0.08566 0.25406,0.20405 0.3391,0.35639c0.08443,0.15342 0.12718,0.35963 0.12718,0.61925c0.01111,0.24866 -0.06267,0.43866 -0.22041,0.56862c-0.15883,0.13027 -0.37291,0.22905 -0.64487,0.29604c-0.27135,0.06869 -0.58236,0.11993 -0.93273,0.15281c-0.35084,0.03442 -0.70692,0.07995 -1.0684,0.1366c-0.36241,0.05665 -0.72112,0.13289 -1.07689,0.22875c-0.35639,0.09585 -0.67404,0.24063 -0.94925,0.43233c-0.27767,0.19324 -0.50441,0.44946 -0.67914,0.77205c-0.17549,0.32228 -0.26317,0.73192 -0.26317,1.22877c0,0.45348 0.07625,0.84352 0.22967,1.17027c0.15188,0.32892 0.3638,0.60026 0.63515,0.8145c0.27196,0.21578 0.58792,0.37352 0.95017,0.47509c0.36118,0.10187 0.75153,0.1525 1.17027,0.1525c0.54269,0 1.07442,-0.07872 1.5935,-0.23631c0.52031,-0.15975 0.97379,-0.4365 1.3575,-0.83179c0.01111,0.14648 0.03102,0.29095 0.05942,0.43264c0.0284,0.14077 0.06514,0.27999 0.11036,0.41489l2.44242,0c-0.11267,-0.17997 -0.19232,-0.45224 -0.23723,-0.81342c-0.04538,-0.36164 -0.06822,-0.74041 -0.06822,-1.13647zm-2.40815,-1.44255c0,0.13567 -0.01389,0.3175 -0.04275,0.54346c-0.02778,0.22612 -0.10434,0.44854 -0.22844,0.66926c-0.12456,0.22072 -0.3178,0.41057 -0.57665,0.568c-0.26023,0.15852 -0.62758,0.23878 -1.10298,0.23878c-0.1917,0 -0.37831,-0.01806 -0.55921,-0.05155c-0.18121,-0.03349 -0.3391,-0.09323 -0.47539,-0.17812c-0.13506,-0.08505 -0.24295,-0.20019 -0.32197,-0.34729c-0.07903,-0.1474 -0.11885,-0.3283 -0.11885,-0.54269c0,-0.22612 0.03982,-0.41304 0.11885,-0.56013c0.07903,-0.14617 0.18383,-0.26764 0.3141,-0.36411c0.12965,-0.09678 0.28246,-0.17241 0.45764,-0.22967c0.17549,-0.05695 0.353,-0.10125 0.5342,-0.13567c0.1917,-0.03349 0.38495,-0.06205 0.57634,-0.08443c0.19294,-0.02176 0.37646,-0.05124 0.55164,-0.08474c0.17549,-0.03411 0.3388,-0.07625 0.49206,-0.12749c0.1525,-0.05063 0.27983,-0.12055 0.38171,-0.21161l0,0.898l-0.00031,0zm6.90295,-8.00562l-2.40862,0l0,2.62903l-1.45783,0l0,1.61156l1.45783,0l0,5.17254c0,0.44128 0.07409,0.79768 0.22072,1.06902c0.1474,0.27135 0.3479,0.48172 0.60165,0.62758c0.25468,0.14709 0.54871,0.24665 0.88241,0.29728c0.33309,0.05001 0.68762,0.07594 1.05991,0.07594c0.23847,0 0.4808,-0.00633 0.72992,-0.01682c0.24835,-0.01142 0.47447,-0.0338 0.67836,-0.06807l0,-1.86577c-0.11329,0.02315 -0.23214,0.04075 -0.35639,0.05155c-0.12425,0.01142 -0.25437,0.01682 -0.39004,0.01682c-0.40702,0 -0.67836,-0.06838 -0.8145,-0.20405c-0.13475,-0.13567 -0.20312,-0.40702 -0.20312,-0.81388l0,-4.34199l1.76421,0l0,-1.61156l-1.76421,0l0,-2.62918l-0.00031,0zm9.95613,7.55708c-0.15821,-0.27675 -0.36781,-0.5092 -0.62758,-0.69611c-0.25992,-0.1863 -0.55766,-0.33586 -0.89059,-0.44977c-0.33401,-0.11221 -0.67589,-0.20806 -1.02611,-0.28755c-0.33941,-0.07903 -0.6725,-0.15281 -1.00018,-0.22072c-0.32799,-0.06776 -0.61987,-0.14416 -0.87423,-0.22875c-0.25406,-0.08505 -0.45996,-0.19541 -0.61863,-0.33108s-0.23693,-0.31117 -0.23693,-0.52602c0,-0.18028 0.0443,-0.32444 0.13475,-0.43264c0.09076,-0.10666 0.20112,-0.18908 0.33123,-0.24603c0.13027,-0.05603 0.2732,-0.09261 0.43202,-0.10943c0.15821,-0.01713 0.30561,-0.02624 0.44098,-0.02624c0.42986,0 0.80308,0.08289 1.12027,0.24603c0.31595,0.16454 0.49176,0.47786 0.52448,0.94153l2.29054,0c-0.04522,-0.54269 -0.18352,-0.99216 -0.41597,-1.34839c-0.23091,-0.35608 -0.52278,-0.64117 -0.87269,-0.85648c-0.35053,-0.21439 -0.74921,-0.3672 -1.19651,-0.45826c-0.44684,-0.09045 -0.90711,-0.13506 -1.38127,-0.13506c-0.47539,0 -0.93937,0.04214 -1.39068,0.12749c-0.45363,0.08412 -0.86065,0.23152 -1.22121,0.44051c-0.36303,0.20914 -0.6529,0.49469 -0.87423,0.85648c-0.22072,0.3621 -0.33108,0.82577 -0.33108,1.39099c0,0.38526 0.07964,0.71001 0.23816,0.97518c0.15713,0.26594 0.3672,0.4862 0.6265,0.662c0.26054,0.17488 0.55766,0.31657 0.89106,0.42384c0.33339,0.10789 0.67589,0.20081 1.02565,0.2803c0.86034,0.18028 1.53022,0.36118 2.0107,0.54207c0.48049,0.18059 0.7205,0.45286 0.7205,0.8145c0,0.21439 -0.05063,0.39158 -0.15219,0.53358s-0.22936,0.25437 -0.38171,0.33941c-0.15342,0.08505 -0.3229,0.14709 -0.50858,0.18599c-0.18692,0.04013 -0.36534,0.06066 -0.53513,0.06066c-0.23693,0 -0.46629,-0.02948 -0.68577,-0.08505c-0.22134,-0.05695 -0.41597,-0.14478 -0.58575,-0.26347s-0.30901,-0.27104 -0.41597,-0.45826c-0.10666,-0.1863 -0.16129,-0.40872 -0.16129,-0.66926l-2.28961,0c0.02315,0.58792 0.15558,1.0772 0.39946,1.46693c0.24171,0.39004 0.55226,0.70368 0.93211,0.94153c0.37862,0.23723 0.81188,0.40702 1.29838,0.50858c0.48512,0.10187 0.98305,0.1525 1.49132,0.1525c0.49747,0 0.98675,-0.048 1.46786,-0.14354c0.48018,-0.09647 0.90711,-0.26347 1.28033,-0.50102c0.37383,-0.23723 0.67528,-0.55103 0.90804,-0.94122c0.23091,-0.39004 0.34667,-0.87362 0.34667,-1.45026c-0.00015,-0.40717 -0.07887,-0.74875 -0.23708,-1.02549zm4.78297,-8.26971l-4.57954,12.11069l2.68027,0l0.94894,-2.69632l4.52922,0l0.91529,2.69632l2.76563,0l-4.5286,-12.11069l-2.73121,0zm-0.25452,7.43021l1.57729,-4.44479l0.03411,0l1.52667,4.44479l-3.13807,0zm15.8413,-2.90099c-0.32737,-0.42955 -0.7401,-0.77421 -1.23788,-1.0346c-0.49808,-0.26023 -1.09125,-0.38973 -1.78042,-0.38973c-0.54346,0 -1.04062,0.10758 -1.49286,0.32197c-0.45348,0.2147 -0.82546,0.55982 -1.11903,1.0346l-0.03442,0l0,-1.11965l-2.29054,0l0,11.83934l2.40985,0l0,-4.15508l0.03257,0c0.29388,0.42924 0.67049,0.7543 1.12875,0.97487c0.45703,0.22072 0.95774,0.33046 1.50074,0.33046c0.64518,0 1.20763,-0.12487 1.68765,-0.37322c0.4808,-0.24804 0.88241,-0.58236 1.20439,-1.00049c0.3229,-0.41813 0.56229,-0.89893 0.72174,-1.44131c0.15744,-0.54331 0.23693,-1.10915 0.23693,-1.69599c0,-0.62218 -0.07964,-1.21859 -0.23693,-1.78983c-0.15944,-0.57078 -0.40192,-1.07118 -0.73053,-1.50135zm-1.54226,4.25756c-0.06869,0.33941 -0.18506,0.63545 -0.34852,0.88998c-0.16407,0.25437 -0.37924,0.46181 -0.64549,0.61987c-0.26502,0.15744 -0.59594,0.23754 -0.99154,0.23754c-0.38495,0 -0.71139,-0.08026 -0.98336,-0.23754c-0.27165,-0.1579 -0.48898,-0.36534 -0.65321,-0.61987c-0.16376,-0.25437 -0.28215,-0.55041 -0.35639,-0.88998c-0.07332,-0.33941 -0.10943,-0.68438 -0.10943,-1.03398c0,-0.36241 0.03319,-0.71294 0.10064,-1.05204c0.06869,-0.3391 0.18414,-0.63947 0.34852,-0.89893c0.16315,-0.26054 0.37831,-0.47277 0.64456,-0.63669c0.26563,-0.16346 0.59563,-0.24511 0.99246,-0.24511c0.3834,0 0.7097,0.08165 0.97487,0.24511c0.26533,0.16407 0.48358,0.37985 0.65321,0.64487c0.16917,0.26594 0.29033,0.56831 0.3638,0.90804c0.07409,0.3391 0.11005,0.68469 0.11005,1.03491c0.00015,0.34945 -0.03257,0.69442 -0.10017,1.03383zm11.87191,-2.75636c-0.15821,-0.57063 -0.40192,-1.07103 -0.7293,-1.50135c-0.32861,-0.42955 -0.74041,-0.77421 -1.23788,-1.0346c-0.49808,-0.26023 -1.09186,-0.38973 -1.78165,-0.38973c-0.54269,0 -1.04,0.10758 -1.49225,0.32197c-0.45286,0.2147 -0.82577,0.55982 -1.11965,1.0346l-0.03319,0l0,-1.11965l-2.29023,0l0,11.83934l2.40784,0l0,-4.15508l0.03442,0c0.29419,0.42924 0.6708,0.7543 1.12814,0.97487c0.45795,0.22072 0.95866,0.33046 1.50166,0.33046c0.64394,0 1.20639,-0.12487 1.68765,-0.37322c0.47956,-0.24804 0.8818,-0.58236 1.20377,-1.00049c0.32259,-0.41813 0.5626,-0.89893 0.72081,-1.44131c0.15821,-0.54331 0.23723,-1.10915 0.23723,-1.69599c-0.00015,-0.62218 -0.07903,-1.21859 -0.23739,-1.78983zm-2.27263,2.75636c-0.0676,0.33941 -0.18352,0.63545 -0.34729,0.88998c-0.16454,0.25437 -0.37924,0.46181 -0.64518,0.61987c-0.26533,0.15744 -0.59625,0.23754 -0.99185,0.23754c-0.38464,0 -0.71263,-0.08026 -0.98397,-0.23754c-0.27196,-0.1579 -0.48898,-0.36534 -0.65351,-0.61987c-0.16284,-0.25437 -0.28246,-0.55041 -0.35639,-0.88998c-0.07301,-0.33941 -0.10974,-0.68438 -0.10974,-1.03398c0,-0.36241 0.03504,-0.71294 0.10218,-1.05204c0.06776,-0.3391 0.18352,-0.63947 0.34729,-0.89893c0.16423,-0.26054 0.37954,-0.47277 0.64487,-0.63669c0.26502,-0.16346 0.59594,-0.24511 0.99216,-0.24511c0.38433,0 0.70939,0.08165 0.97487,0.24511c0.26625,0.16407 0.48327,0.37985 0.6529,0.64487c0.17086,0.26594 0.29157,0.56831 0.36534,0.90804c0.07409,0.3391 0.11005,0.68469 0.11005,1.03491c0.00015,0.34945 -0.03427,0.69442 -0.10172,1.03383z" clip-rule="evenodd" fill-rule="evenodd" fill="#25d366" fill-opacity="1"/>
   </g>
  </g>
  <g stroke="null" id="svg_4" class="" fill="#25d366" fill-opacity="1">
   <g stroke="null" id="svg_5" fill="#25d366" fill-opacity="1">
    <path stroke="null" id="svg_6" d="m17.90449,0c-9.53584,0 -17.26594,7.7298 -17.26594,17.26564c0,3.2617 0.90526,6.31226 2.47746,8.91474l-3.116,9.2631l9.55914,-3.06074c2.47344,1.368 5.3181,2.14761 8.34534,2.14761c9.53522,0 17.26533,-7.72949 17.26533,-17.26471c0,-9.53584 -7.73011,-17.26564 -17.26533,-17.26564zm0,31.78077c-2.94868,0 -5.69409,-0.88442 -7.98633,-2.40059l-5.57833,1.78644l1.81298,-5.39079c-1.73766,-2.39303 -2.76439,-5.33353 -2.76439,-8.5105c0,-8.00408 6.51183,-14.51575 14.51606,-14.51575c8.00377,0 14.51575,6.51168 14.51575,14.51575c0,8.00377 -6.51199,14.51544 -14.51575,14.51544z" clip-rule="evenodd" fill-rule="evenodd" fill="#25d366" fill-opacity="1"/>
   </g>
  </g>
  <path stroke="null" id="svg_7" d="m13.85499,10.12406c-0.27968,-0.67404 -0.49392,-0.69689 -0.92594,-0.71741c-0.14818,-0.0071 -0.30885,-0.01389 -0.48466,-0.01389c-0.55658,0 -1.13369,0.16392 -1.48144,0.51969c-0.42323,0.43295 -1.48144,1.44702 -1.48144,3.52919c0,2.08248 1.51663,4.09473 1.72794,4.37718c0.21192,0.28215 2.95794,4.61797 7.23033,6.3882c3.33471,1.38127 4.32486,1.25825 5.08565,1.09186c1.10699,-0.24171 2.49706,-1.05698 2.84975,-2.04482c0.35269,-0.98845 0.35269,-1.83567 0.24696,-2.01163c-0.10588,-0.17673 -0.38803,-0.28215 -0.81126,-0.49438c-0.42323,-0.21161 -2.50431,-1.23541 -2.89219,-1.37633c-0.38803,-0.14108 -0.74674,-0.09801 -1.0451,0.31472c-0.4118,0.57001 -0.80786,1.15577 -1.13585,1.50305c-0.25745,0.27258 -0.67173,0.31055 -1.02796,0.15913c-0.46845,-0.19957 -1.78705,-0.65907 -3.40386,-2.10054c-1.25794,-1.1215 -2.10748,-2.50694 -2.35444,-2.93078c-0.24696,-0.42323 -0.02176,-0.67589 0.16855,-0.90618c0.21701,-0.26286 0.41721,-0.45163 0.62882,-0.69843c0.21161,-0.24727 0.32984,-0.37893 0.47092,-0.66169c0.14108,-0.28215 0.04615,-0.57341 -0.05973,-0.78533c-0.10619,-0.21208 -0.95341,-2.29394 -1.30502,-3.14162z" clip-rule="evenodd" fill-rule="evenodd" class="" fill="#25d366" fill-opacity="1"/>
 </g>
</svg>