<svg width="164" height="42" viewBox="0 0 164 42" fill="none" xmlns="http://www.w3.org/2000/svg">
<g clip-path="url(#clip0_28_20)">
<path d="M38.0441 6.28C38.0441 8.39571 37.0848 10.2755 35.6228 11.4159L21.4306 23.9703C21.167 24.1941 20.8243 23.8332 21.0145 23.532L26.2203 13.208C26.3662 12.919 26.177 12.5637 25.8776 12.5637H5.68595C2.55868 12.5637 0 9.73656 0 6.28186C0 2.82623 2.55868 9.22072e-07 5.68595 9.22072e-07H32.3581C35.4854 -0.00186396 38.0441 2.8253 38.0441 6.28ZM5.68595 42H32.3581C35.4854 42 38.0441 39.1728 38.0441 35.7181C38.0441 32.2625 35.4854 29.4363 32.3581 29.4363H12.1664C11.8671 29.4363 11.6778 29.081 11.8238 28.792L17.0296 18.468C17.2198 18.1668 16.8771 17.8059 16.6135 18.0297L2.42123 30.5822C0.959268 31.7217 0 33.6024 0 35.7181C0 39.1728 2.55868 42 5.68595 42Z" fill="url(#paint0_linear_28_20)"/>
<path d="M54.8732 30.4237L66.6197 13.677V13.5316H55.9708V8.96446H73.8655V12.1543L62.375 28.6838V28.8292H74.0491V33.3963H54.8732V30.4237ZM86.7841 8.96446V23.0294C86.7841 27.2338 88.3939 29.3728 91.2491 29.3728C94.1768 29.3728 95.7866 27.3429 95.7866 23.0294V8.96446H101.349V22.6658C101.349 30.2055 97.5065 33.7935 91.0655 33.7935C84.8439 33.7935 81.1848 30.3864 81.1848 22.593V8.96446H86.7841ZM109.84 8.96446H115.439V28.7556H125.246V33.3954H109.84V8.96446ZM137.799 8.96446V33.3954H132.199V8.96446H137.799ZM146.288 9.29082C148.008 9.00083 150.423 8.78357 153.827 8.78357C157.266 8.78357 159.719 9.43628 161.365 10.7408C162.939 11.9735 164 14.0034 164 16.3951C164 18.7877 163.195 20.8177 161.731 22.1949C159.829 23.9712 157.01 24.7684 153.717 24.7684C152.986 24.7684 152.327 24.7321 151.815 24.6593V33.3954H146.289V9.29082H146.288ZM151.814 20.3832C152.289 20.4922 152.875 20.5277 153.681 20.5277C156.645 20.5277 158.474 19.0414 158.474 16.5406C158.474 14.2934 156.9 12.9516 154.119 12.9516C152.985 12.9516 152.217 13.0607 151.814 13.1688V20.3832Z" fill="url(#paint1_linear_28_20)"/>
</g>
<defs>
<linearGradient id="paint0_linear_28_20" x1="0" y1="0" x2="0" y2="42" gradientUnits="userSpaceOnUse">
<stop stop-color="#50ADFF"/>
<stop offset="1" stop-color="#7877FC"/>
</linearGradient>
<linearGradient id="paint1_linear_28_20" x1="54.8732" y1="-16.2264" x2="54.8732" y2="58.8035" gradientUnits="userSpaceOnUse">
<stop stop-color="#50ADFF"/>
<stop offset="1" stop-color="#7877FC"/>
</linearGradient>
<clipPath id="clip0_28_20">
<rect width="164" height="42" fill="white"/>
</clipPath>
</defs>
</svg>
