<svg width="32" height="32" viewBox="0 0 32 32" fill="none" xmlns="http://www.w3.org/2000/svg">
<g clip-path="url(#clip0_45_17)">
<path d="M10.7868 1.1943H20.0448L10.4341 29.7968C10.3354 30.0907 10.1473 30.3461 9.89645 30.527C9.64559 30.708 9.34456 30.8053 9.03574 30.8054H1.83076C1.59677 30.8054 1.36614 30.7495 1.15794 30.6422C0.949748 30.5349 0.769973 30.3794 0.63349 30.1885C0.497007 29.9976 0.407741 29.7768 0.373075 29.5443C0.33841 29.3119 0.359341 29.0745 0.434139 28.8518L9.38809 2.20287C9.48683 1.90883 9.67491 1.65332 9.92584 1.47232C10.1768 1.29132 10.4779 1.19431 10.7868 1.1943Z" fill="url(#paint0_linear_45_17)"/>
<path d="M24.24 20.3789H9.55912C9.42264 20.3788 9.28927 20.4199 9.17639 20.497C9.06351 20.5741 8.97636 20.6835 8.92629 20.811C8.87621 20.9386 8.86554 21.0783 8.89565 21.212C8.92577 21.3457 8.99528 21.4673 9.09512 21.5607L18.5287 30.405C18.8034 30.6624 19.165 30.8054 19.5406 30.8054H27.8535L24.24 20.3789Z" fill="#0078D4"/>
<path d="M10.7869 1.19429C10.4746 1.19308 10.1701 1.29221 9.91783 1.4772C9.6656 1.66219 9.47887 1.92334 9.3849 2.2225L0.44517 28.8275C0.365341 29.051 0.340278 29.2905 0.372104 29.5258C0.403929 29.7611 0.491705 29.9853 0.628007 30.1793C0.764309 30.3733 0.945127 30.5315 1.15516 30.6405C1.3652 30.7494 1.59828 30.806 1.83468 30.8054H9.22562C9.50089 30.756 9.75817 30.634 9.97118 30.4521C10.1842 30.2701 10.3453 30.0346 10.4381 29.7696L12.2208 24.4921L18.5888 30.4582C18.8557 30.6799 19.1904 30.8025 19.5367 30.8054H27.8187L24.1863 20.3789L13.5975 20.3814L20.0782 1.19429H10.7869Z" fill="url(#paint1_linear_45_17)"/>
<path d="M22.6116 2.20142C22.513 1.90786 22.3252 1.65277 22.0746 1.47209C21.824 1.29141 21.5234 1.19424 21.2149 1.19427H10.8971C11.2055 1.19429 11.5061 1.29148 11.7567 1.47215C12.0072 1.65283 12.195 1.90789 12.2937 2.20142L21.248 28.8514C21.3229 29.0742 21.3438 29.3116 21.3092 29.5441C21.2746 29.7766 21.1853 29.9975 21.0488 30.1885C20.9123 30.3794 20.7326 30.535 20.5243 30.6424C20.3161 30.7497 20.0854 30.8057 19.8514 30.8057H30.1696C30.4036 30.8056 30.6342 30.7496 30.8424 30.6422C31.0506 30.5349 31.2304 30.3793 31.3668 30.1883C31.5032 29.9973 31.5925 29.7765 31.6271 29.544C31.6617 29.3115 31.6407 29.0741 31.5659 28.8514L22.6116 2.20142Z" fill="url(#paint2_linear_45_17)"/>
</g>
<defs>
<linearGradient id="paint0_linear_45_17" x1="14.1611" y1="3.38858" x2="4.46937" y2="31.8931" gradientUnits="userSpaceOnUse">
<stop stop-color="#114A8B"/>
<stop offset="1" stop-color="#0669BC"/>
</linearGradient>
<linearGradient id="paint1_linear_45_17" x1="17.1645" y1="16.6846" x2="14.9384" y2="17.434" gradientUnits="userSpaceOnUse">
<stop stop-opacity="0.3"/>
<stop offset="0.071" stop-opacity="0.2"/>
<stop offset="0.321" stop-opacity="0.1"/>
<stop offset="0.623" stop-opacity="0.05"/>
<stop offset="1" stop-opacity="0"/>
</linearGradient>
<linearGradient id="paint2_linear_45_17" x1="15.9413" y1="2.55642" x2="26.578" y2="30.7685" gradientUnits="userSpaceOnUse">
<stop stop-color="#3CCBF4"/>
<stop offset="1" stop-color="#2892DF"/>
</linearGradient>
<clipPath id="clip0_45_17">
<rect width="32" height="30" fill="white" transform="translate(0 1)"/>
</clipPath>
</defs>
</svg>
