<svg width="32" height="32" viewBox="0 0 32 32" fill="none" xmlns="http://www.w3.org/2000/svg">
<path d="M11.1127 2.18133H19.792L10.782 28.877C10.6894 29.1513 10.5131 29.3897 10.2779 29.5585C10.0427 29.7274 9.76052 29.8183 9.471 29.8183H2.71633C2.49697 29.8184 2.28075 29.7662 2.08556 29.666C1.89038 29.5659 1.72184 29.4208 1.59389 29.2426C1.46594 29.0644 1.38225 28.8583 1.34975 28.6414C1.31725 28.4244 1.33687 28.2029 1.407 27.995L9.80133 3.12267C9.89389 2.84823 10.0702 2.60976 10.3055 2.44082C10.5407 2.27189 10.823 2.18135 11.1127 2.18133Z" fill="url(#paint0_linear_44_12)"/>
<path d="M23.725 20.087H9.96168C9.83372 20.0869 9.70869 20.1253 9.60287 20.1972C9.49704 20.2691 9.41534 20.3713 9.36839 20.4903C9.32145 20.6093 9.31144 20.7398 9.33967 20.8646C9.36791 20.9894 9.43307 21.1028 9.52668 21.19L18.3707 29.4447C18.6282 29.6849 18.9672 29.8184 19.3193 29.8183H27.1127L23.725 20.087Z" fill="#0078D4"/>
<path d="M11.1127 2.18135C10.8199 2.18022 10.5344 2.27274 10.2979 2.4454C10.0615 2.61805 9.88643 2.86179 9.79834 3.14101L1.41734 27.9723C1.3425 28.181 1.319 28.4045 1.34884 28.6241C1.37867 28.8437 1.46096 29.0529 1.58874 29.234C1.71653 29.4151 1.88604 29.5627 2.08295 29.6644C2.27987 29.7662 2.49838 29.8189 2.72 29.8183H9.649C9.90707 29.7722 10.1483 29.6585 10.348 29.4886C10.5477 29.3188 10.6987 29.099 10.7857 28.8517L12.457 23.926L18.427 29.4943C18.6772 29.7013 18.991 29.8157 19.3157 29.8183H27.08L23.6747 20.087L13.7477 20.0893L19.8233 2.18135H11.1127Z" fill="url(#paint1_linear_44_12)"/>
<path d="M22.1983 3.12134C22.1059 2.84735 21.9298 2.60926 21.6949 2.44063C21.46 2.27199 21.1782 2.1813 20.889 2.18134H11.216C11.5052 2.18135 11.787 2.27206 12.0219 2.44069C12.2568 2.60932 12.4329 2.84737 12.5253 3.12134L20.92 27.9947C20.9902 28.2026 21.0098 28.4242 20.9774 28.6412C20.9449 28.8582 20.8612 29.0643 20.7333 29.2426C20.6053 29.4208 20.4368 29.566 20.2416 29.6662C20.0463 29.7664 19.8301 29.8187 19.6107 29.8187H29.284C29.5034 29.8186 29.7196 29.7663 29.9148 29.6661C30.11 29.5659 30.2785 29.4207 30.4064 29.2424C30.5343 29.0642 30.6179 28.8581 30.6504 28.6411C30.6828 28.4241 30.6632 28.2025 30.593 27.9947L22.1983 3.12134Z" fill="url(#paint2_linear_44_12)"/>
<defs>
<linearGradient id="paint0_linear_44_12" x1="14.276" y1="4.22933" x2="5.26233" y2="30.858" gradientUnits="userSpaceOnUse">
<stop stop-color="#114A8B"/>
<stop offset="1" stop-color="#0669BC"/>
</linearGradient>
<linearGradient id="paint1_linear_44_12" x1="17.0917" y1="16.639" x2="15.0067" y2="17.344" gradientUnits="userSpaceOnUse">
<stop stop-opacity="0.3"/>
<stop offset="0.071" stop-opacity="0.2"/>
<stop offset="0.321" stop-opacity="0.1"/>
<stop offset="0.623" stop-opacity="0.05"/>
<stop offset="1" stop-opacity="0"/>
</linearGradient>
<linearGradient id="paint2_linear_44_12" x1="15.945" y1="3.45267" x2="25.8393" y2="29.813" gradientUnits="userSpaceOnUse">
<stop stop-color="#3CCBF4"/>
<stop offset="1" stop-color="#2892DF"/>
</linearGradient>
</defs>
</svg>
