<svg xmlns="http://www.w3.org/2000/svg" version="1.1" width="677" height="368">
<path d="M0 0 C1.02456299 -0.00945648 2.04912598 -0.01891296 3.10473633 -0.02865601 C4.20068115 -0.02258331 5.29662598 -0.01651062 6.42578125 -0.01025391 C7.56104248 -0.01312408 8.69630371 -0.01599426 9.8659668 -0.01895142 C12.26318868 -0.02099043 14.66042725 -0.015472 17.05761719 -0.00292969 C20.72498816 0.0131254 24.39125702 -0.00278482 28.05859375 -0.02197266 C30.38932535 -0.0199902 32.72005626 -0.01614647 35.05078125 -0.01025391 C36.14672607 -0.0163266 37.2426709 -0.02239929 38.37182617 -0.02865601 C39.39638916 -0.01919952 40.42095215 -0.00974304 41.4765625 0 C42.37415283 0.00238678 43.27174316 0.00477356 44.1965332 0.00723267 C47.33696115 0.47791226 49.19836037 1.50040826 51.73828125 3.38818359 C52.94496646 5.96488574 53.83931747 8.26963551 54.66796875 10.96240234 C54.91642548 11.7160759 55.1648822 12.46974945 55.42086792 13.2462616 C55.94393675 14.83303513 56.46023214 16.42205582 56.97009277 18.01312256 C57.93547193 20.99785154 58.96037546 23.95982227 59.99076843 26.92260742 C61.29602039 30.67701632 62.57778989 34.43947269 63.86328125 38.20068359 C64.14074188 39.0118866 64.41820251 39.8230896 64.70407104 40.65887451 C69.28496247 54.05812415 73.81234 67.4747755 78.2590332 80.91918945 C78.74680599 82.39326278 79.23468058 83.86730242 79.72265625 85.34130859 C79.96437057 86.07144669 80.2060849 86.80158478 80.4551239 87.55384827 C82.04647114 92.34568904 83.67182293 97.12490767 85.31752014 101.89834595 C86.46101378 105.21767411 87.59468747 108.54032009 88.72775269 111.86322021 C89.27115418 113.44778695 89.8193426 115.03072115 90.37258911 116.61187744 C91.13832493 118.80152735 91.88719782 120.99630292 92.6328125 123.19287109 C92.97708282 124.15601227 92.97708282 124.15601227 93.32830811 125.13861084 C94.70044795 129.25038044 95.13399373 132.24832784 93.73828125 136.38818359 C91.56052968 139.15317139 89.85483757 140.22510476 86.35671997 140.73602295 C83.33085895 140.88663488 80.33403734 140.88977242 77.3046875 140.84912109 C76.19399399 140.84820465 75.08330048 140.84728821 73.93894958 140.84634399 C71.59296388 140.84030929 69.24698583 140.82456738 66.90112305 140.79980469 C63.31725542 140.76335116 59.73442413 140.75878513 56.15039062 140.75927734 C53.86848068 140.74944364 51.58657772 140.73778554 49.3046875 140.72412109 C48.23577774 140.72189545 47.16686798 140.7196698 46.06556702 140.71737671 C34.37516196 140.56887391 34.37516196 140.56887391 29.68359375 136.68896484 C29.08289063 136.03283203 28.4821875 135.37669922 27.86328125 134.70068359 C24.70021957 131.37020088 21.44341928 128.31660234 17.9609375 125.32568359 C14.26040897 122.09991531 10.66754677 118.75472088 7.05859375 115.42724609 C4.91881243 113.37241031 4.91881243 113.37241031 2.73828125 112.38818359 C2.63128906 113.20029297 2.52429688 114.01240234 2.4140625 114.84912109 C1.60919314 119.06421729 0.3403803 122.9694662 -1.07421875 127.01318359 C-1.32236328 127.76341797 -1.57050781 128.51365234 -1.82617188 129.28662109 C-2.07947266 130.01365234 -2.33277344 130.74068359 -2.59375 131.48974609 C-2.81780518 132.14281738 -3.04186035 132.79588867 -3.27270508 133.46875 C-4.66397355 136.16886175 -5.7783426 137.57650391 -8.26171875 139.38818359 C-11.24860135 139.98997285 -14.18740772 139.97256437 -17.2265625 139.95458984 C-18.53204796 139.96388771 -18.53204796 139.96388771 -19.86390686 139.97337341 C-21.70214725 139.98046816 -23.54045193 139.97730354 -25.37866211 139.96459961 C-28.18659193 139.95074589 -30.9911804 139.9847918 -33.79882812 140.02294922 C-35.5872404 140.02390058 -37.37565683 140.02204067 -39.1640625 140.01708984 C-40.00065903 140.03034805 -40.83725555 140.04360626 -41.69920349 140.05726624 C-45.80002635 139.99200484 -47.84989638 139.6481856 -51.39282227 137.41137695 C-53.68245787 133.70758105 -53.57454138 131.93892481 -52.83700562 127.75973511 C-51.90977392 123.93733298 -50.72658012 120.27169626 -49.375 116.57958984 C-49.08166275 115.75245987 -48.7883255 114.9253299 -48.48609924 114.07313538 C-47.85376104 112.29244018 -47.21721501 110.51323458 -46.57684326 108.7354126 C-44.84586065 103.92771298 -43.14719632 99.10858806 -41.4453125 94.29052734 C-41.09470764 93.30028564 -40.74410278 92.31004395 -40.38287354 91.28979492 C-37.13916182 82.10279882 -34.04983388 72.86796414 -30.99664307 63.61621094 C-28.72349343 56.73529066 -26.42617227 49.86236196 -24.13006592 42.98907471 C-23.54256178 41.22937036 -22.95587397 39.4693933 -22.36993408 37.70916748 C-20.61465572 32.43905037 -18.84129595 27.17569757 -17.04083252 21.9208374 C-16.48514506 20.28988322 -15.93565558 18.65680253 -15.39276123 17.02154541 C-14.6455873 14.77442462 -13.87657464 12.53598492 -13.1015625 10.29833984 C-12.88750259 9.63797226 -12.67344269 8.97760468 -12.45289612 8.29722595 C-10.23422115 2.04453046 -6.47799213 0.01722561 0 0 Z M19.73828125 61.38818359 C18.45463957 65.21445241 17.17294081 69.04136582 15.89306641 72.86889648 C15.4570817 74.17181126 15.02055952 75.4745463 14.58349609 76.77709961 C13.95660534 78.64568893 13.3317856 80.51497265 12.70703125 82.38427734 C12.32998047 83.51019287 11.95292969 84.6361084 11.56445312 85.79614258 C10.68766768 88.09355897 10.68766768 88.09355897 10.73828125 89.38818359 C17.00828125 89.38818359 23.27828125 89.38818359 29.73828125 89.38818359 C28.31363588 82.97727942 26.80208144 77.05915049 24.73828125 70.88818359 C24.34769531 69.67388672 24.34769531 69.67388672 23.94921875 68.43505859 C23.27260293 66.39837662 22.51207831 64.38996294 21.73828125 62.38818359 C21.07828125 62.05818359 20.41828125 61.72818359 19.73828125 61.38818359 Z " fill="#0B559B" transform="translate(321.26171875,114.61181640625)"/>
<path d="M0 0 C6.90498319 -0.10137822 13.80977465 -0.1714562 20.71533203 -0.21972656 C23.06468884 -0.23984814 25.41399554 -0.26714851 27.76318359 -0.30175781 C31.13912315 -0.3502504 34.51440086 -0.37296357 37.890625 -0.390625 C38.94179504 -0.41127014 39.99296509 -0.43191528 41.07598877 -0.45318604 C48.26457225 -0.45540059 48.26457225 -0.45540059 51.51855469 1.55957031 C53.43537693 4.71720958 54.6801587 7.94304565 55.8125 11.4375 C56.06271408 12.17722046 56.31292816 12.91694092 56.57072449 13.67907715 C57.39182808 16.11574379 58.195926 18.55766632 59 21 C59.57358727 22.71323862 60.14822863 24.42612467 60.72387695 26.13867188 C62.20707025 30.5602116 63.6763284 34.98625028 65.14215088 39.41357422 C66.47586007 43.43472403 67.82206792 47.45166801 69.16796875 51.46875 C71.41218658 58.173198 73.64544589 64.88122222 75.87232971 71.59144592 C77.70619056 77.11716284 79.54462798 82.64133807 81.38739014 88.16409302 C82.44064614 91.32075363 83.49174203 94.47808026 84.5390625 97.63671875 C86.38924729 103.21161766 88.26145982 108.77537062 90.2109375 114.31640625 C90.54697998 115.28392822 90.88302246 116.2514502 91.22924805 117.24829102 C91.84431376 119.01450901 92.46989212 120.77712097 93.10864258 122.53491211 C94.66962436 127.04833907 95.47878991 130.26787228 94 135 C92 137 92 137 89.93722534 137.24050903 C88.66481491 137.2338472 88.66481491 137.2338472 87.36669922 137.22705078 C86.40585419 137.22689972 85.44500916 137.22674866 84.45504761 137.22659302 C83.41542877 137.21627045 82.37580994 137.20594788 81.3046875 137.1953125 C80.24210724 137.1924826 79.17952698 137.18965271 78.08474731 137.18673706 C74.68138501 137.17551639 71.27828314 137.15040837 67.875 137.125 C65.57161838 137.11497264 63.26823264 137.10584637 60.96484375 137.09765625 C55.30980655 137.07557093 49.65492187 137.04207489 44 137 C44.33 136.34 44.66 135.68 45 135 C45.39646406 129.05303907 44.70321462 126.36771973 42 121 C41.07399547 118.28103396 40.32141979 115.51960863 39.5625 112.75 C37.96011537 107.07693861 36.15319439 101.65904508 33.84765625 96.2265625 C32.45389578 92.56553269 31.74331954 88.8404843 31 85 C30.34 85 29.68 85 29 85 C28.05774328 82.08479798 27.1211579 79.16795684 26.1875 76.25 C25.92646484 75.44433594 25.66542969 74.63867188 25.39648438 73.80859375 C23.97760567 69.35927041 22.7133425 64.91519656 21.63012695 60.37182617 C20.14386487 54.3787571 18.3099238 48.56249104 16.3125 42.72265625 C15.96872314 41.70827988 15.62494629 40.6939035 15.27075195 39.64878845 C14.55042955 37.52797657 13.82766855 35.40799146 13.10253906 33.28881836 C11.99528759 30.04871026 10.89957582 26.80485067 9.8046875 23.56054688 C9.09964652 21.48934895 8.39394094 19.4183771 7.6875 17.34765625 C7.19987183 15.90073143 7.19987183 15.90073143 6.70239258 14.42457581 C5.1679796 9.96666905 3.65257362 5.93948021 1 2 C0.67 1.34 0.34 0.68 0 0 Z " fill="#31ABE4" transform="translate(321,116)"/>
<path d="M0 0 C2.13734875 2.13734875 2.55619135 3.23932484 3.4375 6.0625 C3.69402344 6.86816406 3.95054687 7.67382812 4.21484375 8.50390625 C4.60349609 9.73947266 4.60349609 9.73947266 5 11 C5.49690935 12.50102668 5.9968399 14.00105707 6.5 15.5 C7.5 18.5 8.5 21.5 9.5 24.5 C9.74492187 25.23347656 9.98984375 25.96695313 10.2421875 26.72265625 C10.7713187 28.31277734 11.29709481 29.90401707 11.8203125 31.49609375 C12.21863281 32.70458984 12.21863281 32.70458984 12.625 33.9375 C12.86476563 34.66839844 13.10453125 35.39929688 13.3515625 36.15234375 C13.97746134 38.05974881 13.97746134 38.05974881 15 40 C15.18704404 42.69013339 15.08581391 45.29686177 15 48 C14.67 48.33 14.34 48.66 14 49 C29.18 49.33 44.36 49.66 60 50 C57.48524661 52.51475339 56.66324636 52.25252727 53.18652344 52.25878906 C52.1849823 52.26509338 51.18344116 52.27139771 50.15155029 52.27789307 C49.06513245 52.2738446 47.9787146 52.26979614 46.859375 52.265625 C45.74443665 52.26753845 44.62949829 52.2694519 43.48077393 52.27142334 C41.11690038 52.27278661 38.75301939 52.26908032 36.38916016 52.26074219 C32.77879863 52.25008501 29.1689393 52.26061212 25.55859375 52.2734375 C23.26301974 52.27211514 20.96744604 52.26955117 18.671875 52.265625 C17.59355408 52.26967346 16.51523315 52.27372192 15.40423584 52.27789307 C3.6661853 52.20492511 3.6661853 52.20492511 -1.0546875 48.30078125 C-1.65539062 47.64464844 -2.25609375 46.98851562 -2.875 46.3125 C-5.43415939 43.61788416 -7.99576334 41.05004322 -10.8125 38.625 C-11.45960938 38.06425781 -12.10671875 37.50351563 -12.7734375 36.92578125 C-14.4868345 35.44384314 -16.20041029 33.96211174 -17.9140625 32.48046875 C-18.92241979 31.59176358 -19.93023543 30.70244346 -20.9375 29.8125 C-22.34322266 28.58466797 -22.34322266 28.58466797 -23.77734375 27.33203125 C-26.05692597 24.94027275 -26.27670641 24.043046 -27 21 C-28.8036284 19.96460625 -28.8036284 19.96460625 -31 19 C-32.7245676 17.56422255 -34.40987009 16.08052657 -36.0625 14.5625 C-36.91972656 13.78003906 -37.77695312 12.99757812 -38.66015625 12.19140625 C-39.43230469 11.46824219 -40.20445312 10.74507812 -41 10 C-41.60199219 9.45472656 -42.20398438 8.90945312 -42.82421875 8.34765625 C-43.21222656 7.90292969 -43.60023438 7.45820313 -44 7 C-43.74853421 4.86254078 -43.54074221 3.54074221 -42 2 C-38.89748799 1.91125865 -35.8173188 1.88481545 -32.71484375 1.90234375 C-31.78402481 1.9037587 -30.85320587 1.90517365 -29.8941803 1.90663147 C-26.90858809 1.91224828 -23.92306971 1.9248036 -20.9375 1.9375 C-18.91862087 1.94251284 -16.89974057 1.94707612 -14.88085938 1.95117188 C-9.92054428 1.96222317 -4.96028468 1.97949905 0 2 C0 1.34 0 0.68 0 0 Z " fill="#0270C5" transform="translate(352,203)"/>
<path d="M0 0 C0.66 0 1.32 0 2 0 C4.8352113 5.5522888 5.37952295 9.80112515 5 16 C3.53508849 13.20392978 2.37754078 10.42993234 1.375 7.4375 C1.11460937 6.67308594 0.85421875 5.90867188 0.5859375 5.12109375 C0 3 0 3 0 0 Z " fill="#0366B1" transform="translate(361,234)"/>
<path d="M0 0 C3 2 3 2 3.6875 5.125 C3.8421875 6.548125 3.8421875 6.548125 4 8 C3.34 7.34 2.68 6.68 2 6 C1.34 6.66 0.68 7.32 0 8 C0 5.36 0 2.72 0 0 Z " fill="#0E3252" transform="translate(340,171)"/>
</svg>
