<svg xmlns="http://www.w3.org/2000/svg" width="32" height="32" fill="none">
  <path fill="#fff"
    d="M27.129 6.016A26.6 26.6 0 0 0 20.515 4a16.561 16.561 0 0 0-.841 1.696 25.552 25.552 0 0 0-7.327 0c-.227-.528-.566-1.2-.841-1.696A26.223 26.223 0 0 0 4.89 6.016C.702 12.128-.43 18.096.136 23.984c2.781 2 5.466 3.216 8.103 4.016a19.473 19.473 0 0 0 1.73-2.768 17.05 17.05 0 0 1-2.732-1.296c.226-.16.452-.336.663-.512 5.271 2.384 10.982 2.384 16.189 0 .226.176.436.352.663.512a17.05 17.05 0 0 1-2.733 1.296A19.494 19.494 0 0 0 23.749 28a26.922 26.922 0 0 0 8.104-4.016c.695-6.816-1.102-12.736-4.724-17.968ZM10.697 20.352c-1.585 0-2.878-1.424-2.878-3.168 0-1.744 1.261-3.168 2.878-3.168 1.601 0 2.911 1.424 2.879 3.168 0 1.744-1.278 3.168-2.879 3.168Zm10.627 0c-1.585 0-2.88-1.424-2.88-3.168 0-1.744 1.262-3.168 2.88-3.168 1.6 0 2.91 1.424 2.878 3.168 0 1.744-1.261 3.168-2.879 3.168Z" />
</svg>
