<svg width="32" height="32" viewBox="0 0 40 40" fill="none" xmlns="http://www.w3.org/2000/svg">
<path fill-rule="evenodd" clip-rule="evenodd" d="M11.5546 2.96465H17.4469L15.7569 10.7002L29.5121 10.6774L31.1972 2.96465H37.0895L35.4065 10.6677L39.6454 10.6606V16.4326L34.145 16.4418L32.1779 25.4455L36.6982 25.438V31.21L30.9164 31.2196L29.233 38.9243H23.3407L25.0219 31.2294L11.2667 31.2522L9.59049 38.9243H3.69818L5.37224 31.2619L0.000178559 31.2708L0 25.4988L6.63375 25.4879L8.60089 16.4841L2.94732 16.4934L2.94714 10.7215L9.8624 10.71L11.5546 2.96465ZM26.2834 25.4553L28.1783 16.7822L20.678 20.5025C20.4361 20.6225 20.1475 20.598 19.9292 20.439L14.494 16.4806L12.5282 25.4781L26.2834 25.4553ZM16.5764 16.5296L20.5168 18.1366C20.6723 18.2 20.845 18.2075 21.0053 18.1578L26.2526 16.5296H16.5764Z" fill="url(#paint4_linear_2_7888)"/>
<defs>
<!-- <linearGradient id="paint0_linear_2_7888" x1="47.7777" y1="23.3672" x2="150.095" y2="20.1184" gradientUnits="userSpaceOnUse">
<stop stop-color="#E27469"/>
<stop offset="1" stop-color="#D74634"/>
</linearGradient> -->
<!-- <linearGradient id="paint1_linear_2_7888" x1="47.7777" y1="23.3672" x2="150.095" y2="20.1184" gradientUnits="userSpaceOnUse">
<stop stop-color="#E27469"/>
<stop offset="1" stop-color="#D74634"/>
</linearGradient> -->
<!-- <linearGradient id="paint2_linear_2_7888" x1="47.7777" y1="23.3672" x2="150.095" y2="20.1184" gradientUnits="userSpaceOnUse">
<stop stop-color="#E27469"/>
<stop offset="1" stop-color="#D74634"/>
</linearGradient> -->
<!-- <linearGradient id="paint3_linear_2_7888" x1="47.7777" y1="23.3672" x2="150.095" y2="20.1184" gradientUnits="userSpaceOnUse">
<stop stop-color="#E27469"/>
<stop offset="1" stop-color="#D74634"/>
</linearGradient> -->
<linearGradient id="paint4_linear_2_7888" x1="1.88837" y1="22.8709" x2="37.1275" y2="22.4762" gradientUnits="userSpaceOnUse">
<stop stop-color="#E27469"/>
<stop offset="1" stop-color="#D74634"/>
</linearGradient>
</defs>
</svg>
