<svg xmlns="http://www.w3.org/2000/svg" width="32" height="32" fill="none">
  <path fill="#fff"
    d="M8.436 7.283c.03-.41.065-.639.065-.871 0-1.805 0-3.613.024-5.42.062-.347.178-.681.341-.992.318.105.63.228.933.37.212.105.342.34.568.443.98.49 1.186 1.32 1.097 2.318-.051.611-.034 1.23-.075 1.845-.028.462.12.711.622.711h7.8c.485 0 .649-.212.631-.683-.03-.903 0-1.808-.02-2.71a1.098 1.098 0 0 1 .52-1.06c.478-.308.895-.711 1.367-1.026.194-.13.56-.266.683-.174a.98.98 0 0 1 .322.718c.02 1.893 0 3.787 0 5.684 0 .273.047.546.085.922.595-.41 1.07-.779 1.582-1.08a3.018 3.018 0 0 1 4.3 1.583c.735 2.088.096 3.417-2.016 4.17-.264.092-.523.198-.9.341.243.26.418.468.616.65a8.807 8.807 0 0 1 2.888 5.902 7.097 7.097 0 0 1-1.794 5.3c-1.203 1.426-2.595 2.687-3.907 4.017-.557.563-1.121 1.117-1.668 1.691-.417.438-.755.91-.65 1.576.059.383-.18.492-.522.492H10.616c-.341 0-.588-.11-.533-.492.1-.725-.29-1.213-.759-1.671-1.524-1.494-3.076-2.97-4.57-4.488a9.155 9.155 0 0 1-2.392-3.9 7.713 7.713 0 0 1 .017-4.04 8.47 8.47 0 0 1 2.844-4.49c.448-.386.383-.557-.174-.748a6.836 6.836 0 0 1-1.217-.486c-1.46-.854-1.798-2.392-1.104-3.923.913-2.051 3.797-2.485 5.308-.817.085.061.17.123.4.338ZM22.886.615l-.174-.137c-.396.284-.769.602-1.186.848a1.367 1.367 0 0 0-.7 1.367c.04 1.894.02 3.79 0 5.684a2.286 2.286 0 0 1-.906 1.893c-.216.171-.554.516-.5.64a1.2 1.2 0 0 0 .684.611c1.726.461 3.592 3.284 3.486 5.26a8.42 8.42 0 0 1-1.13 4.02c-.804 1.298-1.768 2.498-2.684 3.725-.342.471-.776.46-1.128-.028-.167-.236-.246-.54-.417-.776-.17-.236-.372-.54-.598-.574a12.305 12.305 0 0 0-2.546-.208c-.824.047-1.668.205-1.972 1.227-.25.857-.4.885-1.128.386a3.134 3.134 0 0 1-.513-.41 14.91 14.91 0 0 1-3.257-4.765c-.899-2.242-.984-4.47.704-6.401.684-.78 1.617-1.34 2.458-1.972.59-.44.632-.523.054-.933a2.164 2.164 0 0 1-1.025-1.825c0-1.87-.096-3.76.078-5.605A1.637 1.637 0 0 0 9.69.902 2.864 2.864 0 0 0 9.065.66c-.073.196-.123.4-.15.608 0 2.249-.117 4.505.027 6.743a5.356 5.356 0 0 1-1.255 3.89c-1.24 1.565-1.75 3.448-1.972 5.379a9.7 9.7 0 0 0 .16 3.189c.343 1.428 1.368 2.454 2.55 3.25.968.646 1.996 1.2 2.984 1.818 1.265.793 1.278 1.504.062 2.334-.541.37-.896.257-1.471 1.129.208.052 2.773-.052 2.987-.059 2.351-1.633 2.677-2.012 5.128.045.637.05 1.277.035 1.91-.045.377-.027.746-.123 1.122-.188l.18-.342c-.194-.092-.4-.174-.587-.283-.455-.267-.899-.557-1.367-.82a.762.762 0 0 1-.277-1.183 2.22 2.22 0 0 1 .632-.557c1.121-.817 2.283-1.58 3.367-2.444 1.856-1.48 2.758-3.394 2.392-5.81-.365-2.416-.837-4.785-2.611-6.72-.437-.47-.612-1.322-.64-2.005-.07-1.805-.03-3.616.042-5.42.076-.65.208-1.292.396-1.918.11-.209.168-.42.212-.636Zm-3.513 23.606c.154-.098.297-.212.427-.341a12.882 12.882 0 0 0 3.011-5.127c.258-.84.347-1.723.263-2.598-.188-1.787-1.268-3.028-2.813-3.896a4.835 4.835 0 0 1-1.063-.765c-.499-.506-.485-1.026.041-1.323.906-.502 1.193-1.268 1.186-2.245 0-1.784 0-1.767-1.797-1.754-.5 0-.64.182-.64.66V22.16a.977.977 0 0 0 .124.56c.396.503.813.968 1.274 1.501h-.013Zm-6.915.14c.342-.53.534-.998.869-1.309a1.212 1.212 0 0 0 .43-1.025v-14.2c0-1.822 0-1.822-1.821-1.63a.506.506 0 0 0-.257.047c-.113.086-.283.209-.277.311.055 1.347-.341 2.837 1.258 3.674a.578.578 0 0 1 .175.954 4.397 4.397 0 0 1-.729.741c-.492.363-1.063.633-1.53 1.026a4.73 4.73 0 0 0-1.819 4.477c.256 2.081 1.224 3.824 2.44 5.468.387.51.841.967 1.275 1.477l-.013-.01Zm1.733-10.007v7.468c0 .455.038.773.626.738.523-.03.85-.092.847-.769-.027-4.955-.027-9.91 0-14.863 0-.54-.167-.749-.72-.745-.554.003-.763.188-.756.772.034 2.468.017 4.932.017 7.4h-.014Zm1.969.072c0 2.464.017 4.932 0 7.4 0 .577.236.71.738.727.503.017.657-.26.653-.734V6.952c0-.537-.167-.749-.707-.77-.599-.02-.684.28-.684.776.024 2.489.017 4.977.014 7.468h-.014Z" />
</svg>
