<svg xmlns="http://www.w3.org/2000/svg" width="32" height="32" fill="none">
  <g clip-path="url(#a)">
    <path fill="#fff" fill-rule="evenodd"
      d="M3.567 23.296a.554.554 0 0 1-.49-.835l.893-1.6s0 .029 1.35-2.416c1.024-1.735 1.984-3.92 1.984-6.48V8.512C7.304 4.976 10.184 0 15.82 0c3.162 0 5.44 1.437 6.845 3.366.04 0 .08.01.115.03l3.085.86a.815.815 0 0 1 .375 1.354L24.34 7.53c.029.345.058.659.058 1.004v3.424c0 2.388.806 4.43 1.696 6.08l1.21 2.647s0-.029.831 1.782a.564.564 0 0 1-.515.807l-24.054.022Zm5.465-3.456h.717c1.555 0 11.52-1.437 11.52-10.669 0-2.445-1.811-5.465-5.462-5.465-3.652 0-5.466 3.2-5.466 5.465v2.215c0 1.638-.029 3.366-.774 5.35-.288.717-.72 1.6-1.037 2.24a.589.589 0 0 0 .502.864Zm-.32 6.906a.51.51 0 0 0-.483.704v.032a7.306 7.306 0 0 0 1.712 2.358 8.036 8.036 0 0 0 2.582 1.6 8.582 8.582 0 0 0 6.1 0 8.088 8.088 0 0 0 2.585-1.6 7.362 7.362 0 0 0 1.712-2.358v-.032a.506.506 0 0 0-.483-.704H20.05a.64.64 0 0 0-.506.275c-.18.254-.385.487-.614.697-.446.415-.966.74-1.533.96a5.078 5.078 0 0 1-3.616 0 4.8 4.8 0 0 1-2.147-1.657.619.619 0 0 0-.49-.275H8.712Z"
      clip-rule="evenodd" />
  </g>
  <defs>
    <clipPath id="a">
      <path fill="#fff" d="M0 0h32v32H0z" />
    </clipPath>
  </defs>
</svg>
