<svg width="240" height="240" viewBox="0 0 240 240" fill="none" xmlns="http://www.w3.org/2000/svg">
<g clip-path="url(#clip0_3499_35981)">
<rect x="10" y="10" width="220" height="220" rx="10" fill="black"/>
<path d="M152.325 129.181C151.024 129.181 149.807 129.681 148.899 130.589L130.587 148.901C128.698 150.79 128.698 153.865 130.587 155.755L139.93 165.099C140.838 166.007 142.055 166.507 143.356 166.507C144.657 166.507 145.874 166.007 146.781 165.099L165.097 146.784C166.004 145.875 166.505 144.659 166.505 143.357C166.505 142.056 166.004 140.839 165.097 139.931L155.752 130.589C154.844 129.681 153.627 129.181 152.325 129.181ZM143.356 174.999C139.786 174.999 136.436 173.616 133.925 171.103L124.581 161.759C119.383 156.558 119.383 148.097 124.583 142.896L142.895 124.584C145.406 122.073 148.756 120.689 152.325 120.689C155.895 120.689 159.244 122.072 161.756 124.584L171.1 133.926C173.613 136.438 174.995 139.787 174.996 143.357C174.996 146.927 173.613 150.276 171.101 152.788L152.786 171.103C150.274 173.616 146.925 174.999 143.356 174.999Z" fill="#F9F9F9"/>
<path d="M87.6688 129.181C86.367 129.181 85.1501 129.681 84.242 130.589L74.8997 139.931C73.9912 140.839 73.4916 142.056 73.4916 143.357C73.4911 144.659 73.9912 145.875 74.8997 146.784L93.2138 165.099C94.1222 166.007 95.3389 166.507 96.6399 166.507C97.9413 166.507 99.1583 166.007 100.066 165.099L109.413 155.754C110.32 154.846 110.821 153.629 110.821 152.328C110.821 151.027 110.32 149.81 109.412 148.902L91.0962 130.589C90.1877 129.681 88.9708 129.181 87.6688 129.181ZM96.6399 174.999C93.0705 174.999 89.7209 173.616 87.2096 171.103L68.8947 152.788C66.3831 150.276 65 146.927 65 143.357C65 139.787 66.3839 136.438 68.8961 133.926L78.2374 124.584C80.7499 122.072 84.0992 120.689 87.6688 120.689C91.2381 120.689 94.5875 122.072 97.0995 124.584L115.416 142.897C117.928 145.409 119.312 148.758 119.313 152.328C119.313 155.897 117.929 159.247 115.417 161.759L106.07 171.103C103.559 173.616 100.209 174.999 96.6399 174.999Z" fill="#F9F9F9"/>
<path d="M96.6399 73.4923C95.3389 73.4923 94.1222 73.9922 93.2144 74.9003L74.8989 93.2164C73.9912 94.1245 73.4911 95.3408 73.4911 96.6427C73.4911 97.9444 73.9912 99.1608 74.8997 100.069L84.2424 109.412C85.1501 110.32 86.367 110.82 87.6688 110.82C88.9703 110.82 90.1869 110.32 91.0946 109.412L109.409 91.0954C111.298 89.2068 111.297 86.1321 109.409 84.2428L100.066 74.9003C99.1583 73.9922 97.9413 73.4923 96.6399 73.4923ZM87.6688 119.312C84.0992 119.312 80.7499 117.929 78.2382 115.417L68.8952 106.074C66.3831 103.562 65 100.213 65 96.6427C64.9992 93.073 66.3831 89.7239 68.8947 87.212L87.2096 68.8959C89.7209 66.3839 93.0705 65 96.6399 65C100.209 65 103.559 66.3839 106.071 68.8959L115.413 78.2384C120.613 83.4388 120.613 91.8994 115.414 97.0998L97.0995 115.417C94.5875 117.928 91.2381 119.312 87.6688 119.312Z" fill="#F9F9F9"/>
<path d="M143.357 73.4923C142.055 73.4923 140.838 73.9922 139.931 74.9003L130.588 84.2449C129.679 85.153 129.179 86.37 129.179 87.6712C129.179 88.9723 129.679 90.1894 130.588 91.0968L148.901 109.41C149.81 110.318 151.027 110.819 152.328 110.819C153.629 110.819 154.847 110.318 155.754 109.411L165.1 100.068C166.008 99.1596 166.508 97.9437 166.508 96.6426C166.508 95.3409 166.008 94.1252 165.1 93.2171L146.782 74.9003C145.874 73.9915 144.657 73.4923 143.357 73.4923ZM152.328 119.31C148.759 119.31 145.409 117.927 142.897 115.415L124.584 97.1019C122.071 94.59 120.688 91.2409 120.688 87.6712C120.687 84.1015 122.071 80.7524 124.583 78.2404L133.926 68.8959C136.437 66.3839 139.787 65 143.357 65C146.925 65 150.275 66.3832 152.787 68.8952L171.105 87.212C173.616 89.7239 175 93.073 175 96.6426C174.999 100.213 173.615 103.561 171.103 106.073L161.758 115.416C159.247 117.927 155.897 119.31 152.328 119.31Z" fill="#F9F9F9"/>
<path d="M97.3248 91.9169C94.3417 91.9169 91.9152 94.3441 91.9152 97.3277V142.672C91.9152 145.655 94.3417 148.083 97.3248 148.083H142.67C145.653 148.083 148.08 145.655 148.08 142.672V97.3277C148.08 94.3441 145.653 91.9169 142.67 91.9169H97.3248ZM142.67 156.574H97.3248C89.6594 156.574 83.4233 150.338 83.4233 142.672V97.3277C83.4233 89.6621 89.6594 83.4253 97.3248 83.4253H142.67C150.335 83.4253 156.572 89.6621 156.572 97.3277V142.672C156.572 150.338 150.335 156.574 142.67 156.574Z" fill="#F9F9F9"/>
</g>
<defs>
<clipPath id="clip0_3499_35981">
<rect width="240" height="240" fill="white"/>
</clipPath>
</defs>
</svg>
