<svg xmlns="http://www.w3.org/2000/svg" width="32" height="32" fill="none">
  <path fill="#F06B66" fill-rule="evenodd"
    d="M15.77 0C24.574 0 31.75 7.175 31.75 15.993a5.178 5.178 0 0 1-7.87 4.394l-.075-.045-.03.074a9.157 9.157 0 1 1 1.14-4.423 1.687 1.687 0 0 0 3.358 0A12.516 12.516 0 0 0 15.771 3.477 12.516 12.516 0 1 0 25.283 24.1l2.663 2.249A15.933 15.933 0 0 1 15.771 32a16.007 16.007 0 0 1 0-32Zm0 10.326a5.68 5.68 0 0 0-5.499 7.922 5.682 5.682 0 1 0 5.5-7.922Zm0 3.373a2.293 2.293 0 1 1 0 4.587 2.293 2.293 0 0 1 0-4.587Z"
    clip-rule="evenodd" />
</svg>
