<svg xmlns="http://www.w3.org/2000/svg" width="32" height="32" fill="none">
  <path fill="#fff" fill-rule="evenodd"
    d="m25.407 3.058.175 3.383c2.747 3.034 3.837 7.33 2.474 11.375-2.045 6.028-8.785 9.198-15.076 7.078s-9.7-8.73-7.655-14.758c1.383-4.064 4.87-6.825 8.921-7.545L16.428.005C9.59-.17 3.163 4.05.846 10.855-1.98 19.216 2.5 28.277 10.876 31.097c8.376 2.82 17.453-1.653 20.277-10.014 2.298-6.767-.234-14.039-5.746-18.025Z"
    clip-rule="evenodd" />
  <path fill="#fff" fill-rule="evenodd"
    d="m21.493 13.053-.117-4.745-.098-2.722-.058-2.372s.02-1.148-.02-1.4a.28.28 0 0 0-.038-.137V1.64a.426.426 0 0 0-.195-.175.33.33 0 0 0-.273.019s-.02 0-.02.02c-.038.019-.077.038-.116.077-.195.195-.877 1.109-.877 1.109l-1.48 1.847-1.734 2.12-2.98 3.694s-1.363 1.691-1.071 3.791c.292 2.1 1.87 3.112 3.077 3.52 1.208.408 3.078.544 4.578-.934 1.46-1.497 1.422-3.675 1.422-3.675Z"
    clip-rule="evenodd" />
</svg>
