<svg xmlns="http://www.w3.org/2000/svg" width="32" height="32" fill="none">
  <path fill="#7B83EB" d="M16.901 10.757a4.589 4.589 0 1 0 0-9.177 4.589 4.589 0 0 0 0 9.177Z" />
  <path fill="#000"
    d="M16.578 7.151h-4.156l.02.092.002.008.022.084a4.593 4.593 0 0 0 5.423 3.316V8.462a1.315 1.315 0 0 0-1.311-1.31Z"
    opacity=".1" />
  <path fill="#000"
    d="M15.593 8.135h-2.835a4.59 4.59 0 0 0 4.146 2.622V9.445a1.315 1.315 0 0 0-1.31-1.31Z"
    opacity=".2" />
  <path fill="#5059C9"
    d="M27.223 11.084a3.441 3.441 0 1 0 0-6.883 3.441 3.441 0 0 0 0 6.883ZM30.18 12.067h-7.73a.63.63 0 0 0-.629.63v7.973a5.035 5.035 0 0 0 3.9 4.999 4.922 4.922 0 0 0 5.933-4.814v-7.313a1.475 1.475 0 0 0-1.475-1.475Z" />
  <path fill="#7B83EB"
    d="M24.77 13.542v9.34a7.861 7.861 0 0 1-14.67 3.933 7.06 7.06 0 0 1-.49-.983 8.228 8.228 0 0 1-.325-.983 8.103 8.103 0 0 1-.246-1.966v-9.34a1.473 1.473 0 0 1 1.475-1.476h12.782a1.473 1.473 0 0 1 1.474 1.475Z" />
  <path fill="#000"
    d="M15.593 8.135h-2.835a4.59 4.59 0 0 0 4.146 2.622V9.445a1.315 1.315 0 0 0-1.31-1.31Z"
    opacity=".2" />
  <path fill="#000"
    d="M17.888 12.067v12.457a1.298 1.298 0 0 1-1.023 1.269.952.952 0 0 1-.285.04H9.61a8.228 8.228 0 0 1-.325-.984 8.103 8.103 0 0 1-.246-1.966v-9.34a1.473 1.473 0 0 1 1.475-1.476h7.374Z"
    opacity=".1" />
  <path fill="#000"
    d="M16.905 12.067v13.44a.953.953 0 0 1-.04.286 1.298 1.298 0 0 1-1.268 1.022h-5.496a7.06 7.06 0 0 1-.492-.983 8.228 8.228 0 0 1-.324-.983 8.103 8.103 0 0 1-.246-1.966v-9.34a1.473 1.473 0 0 1 1.475-1.476h6.39Z"
    opacity=".2" />
  <path fill="#000"
    d="M16.905 12.067v11.474a1.314 1.314 0 0 1-1.308 1.308H9.285a8.103 8.103 0 0 1-.246-1.966v-9.34a1.473 1.473 0 0 1 1.475-1.476h6.39Z"
    opacity=".2" />
  <path fill="#000"
    d="M10.514 12.067a1.472 1.472 0 0 0-1.475 1.475v9.34c.001.664.084 1.324.246 1.967h5.329a1.314 1.314 0 0 0 1.307-1.308V12.067h-5.407Z"
    opacity=".2" />
  <path fill="#4B53BC"
    d="M1.498 8.135h13.11a1.31 1.31 0 0 1 1.31 1.31v13.11a1.31 1.31 0 0 1-1.31 1.311H1.498a1.31 1.31 0 0 1-1.31-1.31V9.445a1.31 1.31 0 0 1 1.31-1.311Z" />
  <path fill="#fff" d="M11.967 13.027h-2.94v7.885H7.098v-7.885H4.141V11.09h7.826v1.937Z" />
</svg>
