<svg xmlns="http://www.w3.org/2000/svg" width="32" height="32" fill="none">
  <g clip-path="url(#a)">
    <path fill="#5C2D91"
      d="M16 32c8.837 0 16-7.163 16-16S24.837 0 16 0 0 7.163 0 16s7.163 16 16 16Z" />
    <path fill="#fff"
      d="M4.91 4.5C3.284 5.95 2.17 7.775 1.25 9.75A16.223 16.223 0 0 0 0 16c0 2.263.445 4.225 1.25 6.25.885 1.886 1.695 3.24 3.277 4.9 1.513 1.585 3.698 2.995 5.723 3.8 2.033.736 3.807 1.05 6 1.05 2.178-.063 4-.5 6-1.25 2.017-.889 3.877-2.154 5.267-3.643L4.91 4.5Z"
      opacity=".1" />
    <path fill="#fff"
      d="M3.697 18.625a.675.675 0 0 1-.5-.21.689.689 0 0 1-.205-.5.7.7 0 0 1 .205-.5.67.67 0 0 1 .5-.215.685.685 0 0 1 .5.215.696.696 0 0 1 .157.772.684.684 0 0 1-.157.228.69.69 0 0 1-.5.21ZM13.637 18.5h-1.31l-4.685-7.27a3.003 3.003 0 0 1-.29-.57h-.04c.044.415.061.832.05 1.25v6.59H6.297V9.385h1.385l4.56 7.14c.19.296.313.5.37.61h.025a9.63 9.63 0 0 1-.065-1.34v-6.41h1.065V18.5ZM20.845 18.5H16V9.385h4.62v.965h-3.53v3.03h3.29v.96h-3.29v3.16h3.76l-.005 1ZM28 10.35h-2.65v8.15h-1.066v-8.15h-2.62v-.965H28v.965Z" />
    <path fill="#F2F2F2"
      d="M13.06 24.7c-.362.174-.76.259-1.16.245a1.87 1.87 0 0 1-1.436-.575 2.13 2.13 0 0 1-.54-1.5 2.23 2.23 0 0 1 .605-1.63 2.06 2.06 0 0 1 1.54-.62c.342-.012.683.047 1 .175v.5a2 2 0 0 0-1-.25 1.53 1.53 0 0 0-1.175.5 1.82 1.82 0 0 0-.45 1.29c-.023.447.127.886.42 1.225a1.43 1.43 0 0 0 1.105.455 2.07 2.07 0 0 0 1.095-.28l-.005.465ZM15.103 24.945a1.389 1.389 0 0 1-1.065-.445 1.555 1.555 0 0 1-.395-1.115 1.618 1.618 0 0 1 .415-1.18 1.5 1.5 0 0 1 1.115-.425 1.344 1.344 0 0 1 1.045.415c.266.32.4.73.375 1.145a1.61 1.61 0 0 1-.405 1.15 1.42 1.42 0 0 1-1.085.455Zm.035-2.735a.915.915 0 0 0-.73.315 1.295 1.295 0 0 0-.27.87c-.017.304.08.604.27.84a.923.923 0 0 0 .73.31.88.88 0 0 0 .715-.3 1.31 1.31 0 0 0 .25-.86 1.33 1.33 0 0 0-.25-.865.876.876 0 0 0-.715-.31ZM18.93 22.36a.59.59 0 0 0-.366-.095.615.615 0 0 0-.5.29 1.34 1.34 0 0 0-.205.79v1.53h-.5v-3h.5v.625a1.05 1.05 0 0 1 .315-.5.715.715 0 0 1 .47-.175.786.786 0 0 1 .285.04v.495ZM21.86 23.5h-2.115c-.015.28.076.555.255.77a.93.93 0 0 0 .71.27 1.5 1.5 0 0 0 .93-.334v.45a1.74 1.74 0 0 1-1.045.285 1.27 1.27 0 0 1-1-.41 1.675 1.675 0 0 1-.365-1.15 1.64 1.64 0 0 1 .395-1.14 1.274 1.274 0 0 1 1-.44 1.13 1.13 0 0 1 .91.38c.23.303.343.68.32 1.06l.005.26Zm-.5-.404a1 1 0 0 0-.2-.645.685.685 0 0 0-.55-.23.775.775 0 0 0-.575.245 1.105 1.105 0 0 0-.295.635l1.62-.005Z" />
  </g>
  <defs>
    <clipPath id="a">
      <path fill="#fff" d="M0 0h32v32H0z" />
    </clipPath>
  </defs>
</svg>
