<svg xmlns="http://www.w3.org/2000/svg" width="32" height="32" fill="none">
  <path fill="#E54B4D"
    d="M15.957 0C7.135.018-.05 7.259 0 16.08A15.986 15.986 0 0 0 14.363 31.89a.183.183 0 0 0 .202-.183v-15.72h-1.243a.183.183 0 0 1-.184-.184v-2.481a.183.183 0 0 1 .184-.184h3.9a.184.184 0 0 1 .183.184v18.385a.185.185 0 0 0 .126.175c.024.008.05.011.076.008A15.987 15.987 0 0 0 15.956.001V0ZM20.5 28.33a.183.183 0 0 1-.245-.173v-2.624a.276.276 0 0 1 .157-.25 10.297 10.297 0 0 0-4.585-19.592c-5.469.084-9.956 4.494-10.13 9.961a10.307 10.307 0 0 0 5.866 9.631.275.275 0 0 1 .159.25v2.624a.184.184 0 0 1-.246.173 13.162 13.162 0 0 1-8.627-12.464C2.911 8.728 8.744 2.901 15.883 2.85c7.294-.06 13.243 5.858 13.243 13.138 0 5.662-3.596 10.498-8.626 12.343Z" />
</svg>
