<svg xmlns="http://www.w3.org/2000/svg" width="32" height="32" fill="none">
  <path fill="#03A94A"
    d="M15.958 2a11.952 11.952 0 0 0-7.247 2.506C6.686 6.067 5.146 8.28 4.36 10.838a.963.963 0 0 1-.385.515c-1.256.841-2.277 2.025-2.98 3.398-.702 1.39-1.054 2.97-.987 4.668.117 2.437 1.172 4.6 2.795 6.127 1.624 1.544 3.8 2.47 6.143 2.454H23.105a8.882 8.882 0 0 0 6.126-2.523 9.133 9.133 0 0 0 2.761-6.178 9.375 9.375 0 0 0-1.004-4.65 9.02 9.02 0 0 0-2.996-3.382.966.966 0 0 1-.234-.223.797.797 0 0 1-.15-.291c-.804-2.557-2.36-4.754-4.403-6.299A11.695 11.695 0 0 0 15.958 2Zm0 3.244c2.009 0 3.9.686 5.457 1.888a9.668 9.668 0 0 1 3.313 4.89l.118.43.117.429a.88.88 0 0 0 .401.532l.369.223.368.223a5.591 5.591 0 0 1 2.075 2.23c.469.91.72 1.94.67 3.021-.05 1.579-.737 2.97-1.774 3.982a5.754 5.754 0 0 1-3.967 1.63l-7.113.034-7.08.035c-1.506 0-2.929-.601-3.967-1.596a5.76 5.76 0 0 1-1.807-3.965 6.023 6.023 0 0 1 .653-3.037 5.833 5.833 0 0 1 2.058-2.248l.368-.24.369-.24c.1-.07.184-.138.25-.224a.88.88 0 0 0 .151-.309l.117-.429.118-.429a9.604 9.604 0 0 1 3.28-4.925c1.557-1.202 3.465-1.905 5.456-1.905Z" />
  <path fill="#03A94A"
    d="M13.545 13.12c0 .189-.067.36-.2.498a.663.663 0 0 1-.47.206h-1.339a.601.601 0 0 1-.468-.206.697.697 0 0 1-.2-.48V11.73a.696.696 0 0 1 .669-.704h1.339c.184 0 .351.086.468.206.117.12.201.292.201.48v1.408Zm3.783 0c0 .189-.067.36-.201.498a.663.663 0 0 1-.469.206H15.32a.6.6 0 0 1-.468-.206.696.696 0 0 1-.201-.48V11.73c0-.189.067-.36.2-.498a.663.663 0 0 1 .47-.206h1.339a.697.697 0 0 1 .67.686v1.408Zm3.765 0c0 .189-.067.36-.2.498a.626.626 0 0 1-.47.206h-1.338a.6.6 0 0 1-.469-.206.696.696 0 0 1-.2-.48V11.73c0-.189.067-.36.2-.498a.663.663 0 0 1 .469-.206h1.339a.65.65 0 0 1 .469.19c.117.12.2.29.2.48v1.424Zm-7.548 3.947c0 .189-.067.36-.2.498a.663.663 0 0 1-.47.206h-1.339a.601.601 0 0 1-.468-.206.697.697 0 0 1-.2-.48v-1.408a.696.696 0 0 1 .669-.704h1.339c.184 0 .351.086.468.206.117.12.201.292.201.48v1.408Zm3.783 0a.696.696 0 0 1-.67.704H15.32a.601.601 0 0 1-.468-.206.697.697 0 0 1-.201-.48v-1.408c0-.189.067-.36.2-.498a.663.663 0 0 1 .47-.206h1.339a.697.697 0 0 1 .67.686v1.408Zm3.765 0c0 .189-.067.36-.2.498a.626.626 0 0 1-.47.206h-1.338a.601.601 0 0 1-.469-.206.697.697 0 0 1-.2-.48v-1.408c0-.189.067-.36.2-.498a.663.663 0 0 1 .469-.206h1.339a.697.697 0 0 1 .67.686v1.408Zm-7.548 3.93c0 .189-.067.36-.2.498a.663.663 0 0 1-.47.206h-1.339a.601.601 0 0 1-.468-.206.697.697 0 0 1-.2-.48v-1.408c0-.189.066-.36.2-.498a.664.664 0 0 1 .469-.206h1.339a.6.6 0 0 1 .468.206c.117.12.201.292.201.48v1.408Zm3.783 0c0 .189-.067.36-.201.498a.663.663 0 0 1-.469.206H15.32a.6.6 0 0 1-.468-.206.696.696 0 0 1-.201-.48v-1.408c0-.189.067-.36.2-.498a.663.663 0 0 1 .47-.206h1.339a.6.6 0 0 1 .468.206c.117.12.2.292.2.48v1.408Zm3.782 0c0 .189-.067.36-.2.498a.663.663 0 0 1-.47.206h-1.339a.6.6 0 0 1-.468-.206.696.696 0 0 1-.2-.48v-1.408c0-.189.066-.36.2-.498a.664.664 0 0 1 .469-.206h1.339a.6.6 0 0 1 .468.206c.117.12.201.292.201.48v1.408Z" />
</svg>
