<svg xmlns="http://www.w3.org/2000/svg" width="32" height="32" fill="none">
  <path fill="#fff" fill-rule="evenodd"
    d="M18 23.084c0-.486-.394-.785-.88-.785H9.226a1 1 0 0 0-1 1v.42a.868.868 0 0 1-.016.173 3.308 3.308 0 0 1-3.244 2.634 3.303 3.303 0 0 1-3.31-3.295c0-.825.305-1.58.808-2.157.3-.346.403-.859.14-1.233-.26-.37-.778-.466-1.103-.15A4.917 4.917 0 0 0 0 23.23c0 2.73 2.223 4.942 4.965 4.942a4.966 4.966 0 0 0 4.684-3.298c.163-.46.57-.818 1.057-.818h6.415c.485 0 .879-.488.879-.973Z"
    clip-rule="evenodd" />
  <path fill="#fff" fill-rule="evenodd"
    d="M3.485 22.545a1.643 1.643 0 0 1 .961-.932c.334-.123.671-.29.849-.599l5.496-9.52c.245-.423.138-.954-.18-1.325a4.95 4.95 0 0 1 6.23-7.506 4.928 4.928 0 0 1 2.314 3.044c.114.44-.228.843-.681.883-.454.04-.844-.302-.994-.732a3.297 3.297 0 0 0-5.967-.558 3.297 3.297 0 0 0 1.109 4.447l.042.024a1 1 0 0 1 .366 1.365L6.763 21.99c-.164.285-.157.632-.114.96.036.283 0 .578-.118.855a1.65 1.65 0 1 1-3.046-1.26Z"
    clip-rule="evenodd" />
  <path fill="#fff" fill-rule="evenodd"
    d="m14.228 8.58 5.27 9.127c1.336.293 1.336-1.207 1.336-1.207l-5.069-8.78c.266-.485.281-1.09-.014-1.6a1.641 1.641 0 0 0-2.244-.59 1.641 1.641 0 0 0-.612 2.239c.286.496.797.784 1.333.81Z"
    clip-rule="evenodd" />
  <path stroke="#fff" stroke-width="1.2"
    d="M27.909 24.551c.145.104.172.24.16.31a.094.094 0 0 1-.011.037.134.134 0 0 1-.045.005h-6.904a.133.133 0 0 1-.046-.005.094.094 0 0 1-.011-.036c-.012-.071.015-.207.16-.31l.088-.062c.177-.123.429-.297.611-.533.25-.323.362-.719.362-1.232V20.88c0-.797.294-1.351.7-1.712.419-.37.993-.569 1.588-.569.594 0 1.168.198 1.587.57.406.36.7.914.7 1.71v1.845c0 .513.111.91.361 1.232.183.236.435.41.612.534l.087.06Zm.152.345h-.002.002Zm-7.002 0h.003a.008.008 0 0 1-.003 0Z" />
  <path fill="#fff"
    d="M23.197 26c.11.293.314.546.582.725.269.179.59.275.918.275.329 0 .65-.096.918-.275.269-.18.472-.432.582-.725h-3Z" />
  <rect width="13.705" height="13.705" x="17.696" y="15.699" stroke="#fff" stroke-width="1.2"
    rx="6.852" />
</svg>
