<svg xmlns="http://www.w3.org/2000/svg" width="32" height="32" fill="none">
  <path fill="#0092FF"
    d="M27.89 22.905a6.348 6.348 0 0 1-3.743 2.92 8.612 8.612 0 0 0 .337-2.396c0-4.004-2.77-7.373-6.475-8.308.786-.75 1.721-1.31 2.77-1.572 1.609-.45 3.368-.225 4.79.636 3.032 1.796 4.08 5.689 2.32 8.72ZM15.988 29.83c-1.647 0-3.219-.673-4.38-1.796a7.613 7.613 0 0 0 2.209-.899 8.586 8.586 0 0 0 3.892-9.805 6.354 6.354 0 0 1 4.604 6.1c0 3.556-2.845 6.4-6.325 6.4ZM4.086 22.905a6.3 6.3 0 0 1-.636-4.716 10.27 10.27 0 0 0 1.871 1.498 8.352 8.352 0 0 0 4.23 1.16c2.32 0 4.528-.936 6.137-2.62.674 2.695-.486 5.614-2.956 7.036a6.307 6.307 0 0 1-3.144.861c-2.283-.037-4.38-1.235-5.502-3.219Zm0-13.81a6.347 6.347 0 0 1 3.743-2.92 8.612 8.612 0 0 0-.337 2.396c0 4.004 2.77 7.373 6.475 8.309-1.984 1.908-5.053 2.395-7.56.935A6.386 6.386 0 0 1 3.45 13.96a6.314 6.314 0 0 1 .636-4.865ZM15.988 2.17c1.647 0 3.218.673 4.379 1.796a7.615 7.615 0 0 0-2.209.898c-1.983 1.16-3.368 2.995-3.967 5.203-.411 1.497-.374 3.106.038 4.603a6.354 6.354 0 0 1-4.604-6.1c.038-3.518 2.882-6.4 6.363-6.4ZM27.89 9.095c.823 1.46 1.047 3.144.636 4.715a8.893 8.893 0 0 0-1.872-1.497 8.352 8.352 0 0 0-6.474-.86 8.483 8.483 0 0 0-3.93 2.357 6.116 6.116 0 0 1 .037-3.18c.45-1.648 1.497-3.032 2.957-3.856a6.153 6.153 0 0 1 4.79-.636 6.386 6.386 0 0 1 3.856 2.957Zm1.908-1.086a8.422 8.422 0 0 0-5.165-4.004 7.665 7.665 0 0 0-1.572-.262A8.547 8.547 0 0 0 16.026 0c-2.92 0-5.502 1.497-7.036 3.743a8.593 8.593 0 0 0-6.774 4.266 8.689 8.689 0 0 0-.861 6.475c.15.524.337 1.01.561 1.497a8.554 8.554 0 0 0 .3 8.01c1.46 2.545 4.042 4.042 6.737 4.266A8.547 8.547 0 0 0 15.988 32c2.92 0 5.502-1.497 7.036-3.743a8.593 8.593 0 0 0 6.774-4.266c1.46-2.545 1.46-5.54.3-8.01 1.197-2.507 1.085-5.539-.3-7.972Z" />
</svg>
