<svg xmlns="http://www.w3.org/2000/svg" width="32" height="32" fill="none">
  <path fill="url(#a)"
    d="M15.21 25.984c-1.078-.765-1.769-1.87-2.5-2.917-.149-.216-.1-.682.016-.956.798-1.845 2.138-3.224 3.784-4.33 1.67-1.122 3.537-1.72 5.462-2.169 2.805-.648 5.372-1.82 7.757-3.415.132-.092.272-.167.403-.25l.107.108c-.14.216-.263.457-.428.657-1.883 2.31-4.195 4.064-6.885 5.285-2.213 1.006-4.22 2.286-5.7 4.28-.831 1.122-1.465 2.327-1.712 3.723h-.312l.008-.016Z" />
  <path fill="url(#b)"
    d="M32.002 7.816c-.173.2-.272.35-.395.474-2.896 2.81-6.31 4.637-10.184 5.66-2.608.69-5.034 1.77-7.017 3.698-1.036 1.005-1.867 2.16-2.435 3.498-.057.133-.132.267-.23.466-.214-.25-.403-.449-.56-.665-.978-1.438-1.941-2.892-2.92-4.33-.255-.374-.23-.673.066-1.014 1.85-2.16 4.22-3.457 6.918-4.113a18.353 18.353 0 0 1 3.85-.532c4.327-.117 8.44-1.064 12.331-2.975.107-.05.214-.108.32-.15.026-.008.067 0 .248 0l.008-.017Z" />
  <path fill="url(#c)"
    d="M.008 8.216c1.752-.158 3.126-1.064 4.623-1.63 1.498-.564 3.069-.905 4.574-.149.658.333 1.168.98 1.687 1.538.641.69 1.209 1.454 1.834 2.16.23.266.543.457.781.657-1.11.548-2.287 1.022-3.34 1.695-1.036.665-1.94 1.546-2.87 2.31-.461-.68-.987-1.495-1.555-2.285-.625-.872-1.538-1.396-2.435-1.936-.979-.59-1.917-1.247-2.863-1.887-.14-.091-.23-.24-.444-.457l.008-.016Z" />
  <defs>
    <linearGradient id="a" x1="30.239" x2="13.187" y1="11.947" y2="24.458"
      gradientUnits="userSpaceOnUse">
      <stop stop-color="#59B58C" />
      <stop offset="1" stop-color="#59B58C" />
    </linearGradient>
    <linearGradient id="b" x1="32.002" x2="8.973" y1="7.816" y2="19.047"
      gradientUnits="userSpaceOnUse">
      <stop stop-color="#59B58C" />
      <stop offset="1" stop-color="#59B58C" />
    </linearGradient>
    <linearGradient id="c" x1="0" x2="12.326" y1="8.425" y2="11.101" gradientUnits="userSpaceOnUse">
      <stop stop-color="#355C9B" />
      <stop offset="1" stop-color="#2393BF" />
    </linearGradient>
  </defs>
</svg>
