<svg width="32" height="32" viewBox="0 0 32 32" fill="none" xmlns="http://www.w3.org/2000/svg">
<g clip-path="url(#clip0_29_23)">
<path d="M30.0093 4.78933C30.0093 6.40284 29.2779 7.83644 28.1631 8.70613L17.3412 18.2805C17.1402 18.4512 16.8789 18.176 17.0239 17.9463L20.9935 10.0729C21.1048 9.85244 20.9605 9.58151 20.7322 9.58151H5.33564C2.95104 9.58151 1 7.42542 1 4.79076C1 2.15538 2.95104 7.03202e-07 5.33564 7.03202e-07H25.6737C28.0583 -0.00142152 30.0093 2.15467 30.0093 4.78933ZM5.33564 32.0306H25.6737C28.0583 32.0306 30.0093 29.8745 30.0093 27.2398C30.0093 24.6044 28.0583 22.4491 25.6737 22.4491H10.2771C10.0489 22.4491 9.90458 22.1781 10.0158 21.9577L13.9854 14.0843C14.1304 13.8546 13.8691 13.5794 13.6681 13.75L2.84624 23.323C1.73146 24.192 1 25.6263 1 27.2398C1 29.8745 2.95104 32.0306 5.33564 32.0306Z" fill="url(#paint0_linear_29_23)"/>
</g>
<defs>
<linearGradient id="paint0_linear_29_23" x1="1" y1="0" x2="1" y2="32.0306" gradientUnits="userSpaceOnUse">
<stop stop-color="#50ADFF"/>
<stop offset="1" stop-color="#7877FC"/>
</linearGradient>
<clipPath id="clip0_29_23">
<rect width="32" height="32" fill="white"/>
</clipPath>
</defs>
</svg>
