<svg width="1021" height="118" viewBox="0 0 1021 118" fill="none" xmlns="http://www.w3.org/2000/svg">
<g clip-path="url(#clip0_1102_269)">
<path fill-rule="evenodd" clip-rule="evenodd" d="M90.86 47.2948C90.86 50.4674 87.0085 52.0384 84.7897 49.7708L39.3664 3.34549C45.5083 1.17878 52.1167 0 59 0C70.7355 0 81.6709 3.42633 90.86 9.33321V47.2948ZM107.38 25.2216V47.2948C107.38 65.2721 85.5539 74.1736 72.9814 61.3238L24.1342 11.3991C9.50034 22.136 0 39.4584 0 59C0 71.5635 3.9268 83.2097 10.62 92.7783V70.8232C10.62 52.8459 32.446 43.9444 45.0186 56.7942L93.7986 106.65C108.471 95.9171 118 78.5715 118 59C118 46.4365 114.073 34.7903 107.38 25.2216ZM33.2103 68.3472L78.5475 114.685C72.43 116.832 65.8515 118 59 118C47.2645 118 36.3292 114.574 27.14 108.667V70.8232C27.14 67.6506 30.9916 66.0796 33.2103 68.3472Z" fill="url(#paint0_linear_1102_269)"/>
<path d="M191.673 87.8415V55.4379C191.673 49.8459 190.331 45.5944 187.648 42.6833C184.964 39.7722 180.747 38.3168 174.997 38.3168C171.087 38.3168 167.982 38.6998 165.682 39.4658C163.382 40.1553 161.925 40.6533 161.312 40.9597V87.8415H149.467V33.3758C149.774 33.2226 150.617 32.8779 151.997 32.3417C153.377 31.8054 155.217 31.2309 157.517 30.6181C159.817 30.0052 162.5 29.469 165.567 29.0094C168.634 28.5498 172.007 28.3199 175.687 28.3199C179.904 28.3199 183.738 28.8945 187.187 30.0435C190.638 31.116 193.551 32.6864 195.928 34.7547C198.381 36.823 200.26 39.3127 201.563 42.2235C202.866 45.1346 203.518 48.4287 203.518 52.1056V87.8415H191.673Z" fill="black"/>
<path d="M280.547 58.9999C280.547 63.3663 279.781 67.4263 278.247 71.1799C276.791 74.9335 274.721 78.1895 272.037 80.9472C269.354 83.6281 266.134 85.773 262.377 87.3817C258.62 88.9137 254.48 89.68 249.957 89.68C245.433 89.68 241.255 88.9137 237.421 87.3817C233.665 85.773 230.445 83.6281 227.761 80.9472C225.078 78.1895 222.97 74.9335 221.436 71.1799C219.979 67.4263 219.251 63.3663 219.251 58.9999C219.251 54.6336 219.979 50.5736 221.436 46.82C222.97 43.0664 225.078 39.8489 227.761 37.1677C230.445 34.41 233.665 32.2651 237.421 30.733C241.255 29.1243 245.433 28.3199 249.957 28.3199C254.48 28.3199 258.62 29.1243 262.377 30.733C266.134 32.2651 269.354 34.41 272.037 37.1677C274.721 39.8489 276.791 43.0664 278.247 46.82C279.781 50.5736 280.547 54.6336 280.547 58.9999ZM268.242 58.9999C268.242 55.9359 267.821 53.1397 266.977 50.6117C266.134 48.0071 264.907 45.7855 263.297 43.9471C261.764 42.0319 259.847 40.5766 257.547 39.5807C255.324 38.5083 252.794 37.9721 249.957 37.9721C247.044 37.9721 244.437 38.5083 242.137 39.5807C239.913 40.5766 237.996 42.0319 236.387 43.9471C234.853 45.7855 233.665 48.0071 232.821 50.6117C231.978 53.1397 231.556 55.9359 231.556 58.9999C231.556 62.064 231.978 64.8984 232.821 67.503C233.665 70.031 234.853 72.2525 236.387 74.1677C237.996 76.0061 239.913 77.4614 242.137 78.5341C244.437 79.53 247.044 80.0279 249.957 80.0279C252.794 80.0279 255.324 79.53 257.547 78.5341C259.847 77.4614 261.764 76.0061 263.297 74.1677C264.907 72.2525 266.134 70.031 266.977 67.503C267.821 64.8984 268.242 62.064 268.242 58.9999Z" fill="black"/>
<path d="M349.38 32.6865C348.92 34.3718 348.115 36.6316 346.964 39.4659C345.891 42.2236 344.626 45.3262 343.17 48.7734C341.713 52.2206 340.103 55.8593 338.339 59.6896C336.653 63.4431 334.928 67.12 333.164 70.7206C331.478 74.2445 329.829 77.5764 328.219 80.7172C326.686 83.7816 325.344 86.3477 324.194 88.4163H311.889C310.509 85.9646 309.052 83.2837 307.519 80.3726C306.062 77.3852 304.567 74.3975 303.034 71.4101C301.577 68.3456 300.159 65.3197 298.779 62.3324C297.399 59.3446 296.095 56.587 294.869 54.059C293.719 51.4543 292.684 49.1565 291.764 47.1647C290.92 45.1728 290.269 43.6408 289.808 42.5685C289.349 41.4959 288.888 40.347 288.429 39.1213C287.968 37.8956 287.738 36.7465 287.738 35.674C287.738 34.2952 288.198 33.0312 289.119 31.8822C290.039 30.7331 291.61 30.1586 293.833 30.1586C295.367 30.1586 296.555 30.3118 297.399 30.6182C298.242 30.9246 298.702 31.1161 298.779 31.1927C300.082 34.7931 301.577 38.7382 303.264 43.028C305.027 47.318 306.791 51.5696 308.554 55.7826C310.394 59.9193 312.157 63.9026 313.844 67.7328C315.531 71.4864 317.025 74.6657 318.329 77.27C319.249 75.5083 320.437 73.0185 321.894 69.8014C323.427 66.5072 324.999 62.907 326.609 59.0001C328.296 55.0931 329.983 51.0716 331.669 46.9349C333.356 42.7983 334.851 39.0063 336.154 35.5592C336.768 33.8738 337.534 32.5716 338.454 31.6523C339.374 30.6565 340.908 30.1586 343.055 30.1586C344.895 30.1586 346.351 30.5033 347.425 31.1927C348.575 31.8822 349.227 32.3801 349.38 32.6865Z" fill="black"/>
<path d="M400.759 35.5592C400.759 33.7206 401.298 32.3801 402.372 31.5374C403.445 30.6182 404.979 30.1586 406.97 30.1586C408.275 30.1586 409.424 30.3118 410.419 30.6182C411.493 30.9246 412.225 31.1544 412.606 31.3076V87.8416C412.071 87.9946 411.111 88.148 409.731 88.301C408.429 88.4544 406.816 88.6074 404.901 88.7608C402.985 88.9905 400.877 89.1439 398.576 89.2202C396.275 89.3736 393.938 89.4503 391.561 89.4503C384.584 89.4503 378.91 88.6074 374.54 86.9224C370.247 85.237 366.835 82.7857 364.305 79.5682C361.162 75.5083 359.59 70.1078 359.59 63.3664V35.5592C359.59 33.7206 360.127 32.3801 361.2 31.5374C362.273 30.6182 363.807 30.1586 365.8 30.1586C367.103 30.1586 368.253 30.3118 369.25 30.6182C370.324 30.9246 371.052 31.1544 371.435 31.3076V62.1027C371.435 67.9244 372.892 72.2908 375.805 75.2018C378.796 78.1129 383.817 79.5682 390.87 79.5682C393.553 79.5682 395.701 79.4915 397.309 79.3385C398.997 79.1088 400.149 78.9173 400.759 78.7639V35.5592Z" fill="black"/>
</g>
<g clip-path="url(#clip1_1102_269)">
<path d="M889 19H957.5V31.7H930.3V98.3H916.7V31.7H889V19ZM776 19V31.7H721V52.1H765.3V64.7H721V85.7H776V98.3H707.5V19H776.2H776ZM810.3 19H792.5L856.3 98.4H874.2L842.2 58.7L874.2 19.1H856.3L833.3 47.7L810.3 19.1V19ZM828.6 75.7L819.6 64.7L792.5 98.4H810.3L828.6 75.7V75.7Z" fill="black"/>
<path d="M708 98.3L644 19H627V98.3H640.6V36L690.8 98.3H708ZM960.6 97.9C959.6 97.9 958.8 97.5 958.1 96.9C957.4 96.3 957 95.3 957 94.3C957 93.3 957.3 92.5 958 91.8C958.7 91.1 959.6 90.8 960.6 90.8C961.6 90.8 962.4 91.1 963.1 91.8C963.686 92.3344 964.066 93.0566 964.176 93.8418C964.285 94.6269 964.117 95.4257 963.7 96.1C963.387 96.6242 962.95 97.0629 962.426 97.377C961.903 97.691 961.31 97.8707 960.7 97.9H960.6ZM983.8 64.4H989.8V87.7C989.8 89.8 989.4 91.7 988.5 93.2C987.598 94.7093 986.278 95.9249 984.7 96.7C983.1 97.5 981.2 98 979 98C977 98 975.3 97.6 973.7 97C972.1 96.4 970.9 95.2 970 93.8C969.1 92.5 968.6 90.8 968.6 88.8H974.6C974.7 89.6 974.9 90.4 975.3 91C975.7 91.6 976.3 92.2 976.9 92.5C977.6 92.9 978.4 93 979.3 93C980.3 93 981.1 92.8 981.7 92.4C982.406 91.9786 982.964 91.3501 983.3 90.6C983.6 89.8 983.8 88.8 983.8 87.6V64.5V64.4ZM1014.7 73.5C1014.64 72.8341 1014.43 72.1909 1014.08 71.6191C1013.73 71.0473 1013.26 70.5619 1012.7 70.2C1011.41 69.4079 1009.91 69.0244 1008.4 69.1C1007.1 69.1 1006 69.3 1005.1 69.6C1004.2 70 1003.5 70.6 1003.1 71.2C1002.65 71.7556 1002.37 72.4373 1002.32 73.1528C1002.27 73.8682 1002.43 74.5829 1002.8 75.2C1003.1 75.7 1003.5 76.1 1004.1 76.4L1005.9 77.4L1007.9 77.9L1011.1 78.7C1012.4 79 1013.6 79.4 1014.8 79.9C1015.95 80.3456 1017.02 80.9516 1018 81.7C1018.96 82.4811 1019.74 83.4736 1020.26 84.6006C1020.78 85.7276 1021.03 86.9591 1021 88.2C1021 90.2 1020.5 91.9 1019.5 93.3C1018.4 94.8634 1016.87 96.0781 1015.1 96.8C1013.3 97.6 1011 98 1008.3 98C1005.7 98 1003.4 97.6 1001.5 96.8C999.5 96 998.1 94.8 997 93.3C995.888 91.6446 995.296 89.6944 995.3 87.7H1001.3C1001.34 88.7348 1001.69 89.733 1002.32 90.557C1002.94 91.381 1003.81 91.99 1004.8 92.3C1005.8 92.7 1007 92.9 1008.2 92.9C1009.5 92.9 1010.7 92.7 1011.7 92.3C1012.7 91.9 1013.5 91.3 1014.1 90.6C1014.62 89.9076 1014.9 89.0655 1014.9 88.2C1014.9 87.3 1014.7 86.6 1014.2 86C1013.56 85.4543 1012.85 84.9845 1012.1 84.6L1008.9 83.6L1005.1 82.6C1002.3 81.9 1000.1 80.9 998.5 79.4C997.702 78.6879 997.072 77.8068 996.657 76.8208C996.242 75.8348 996.051 74.7687 996.1 73.7C996.084 71.889 996.684 70.1262 997.8 68.7C998.875 67.1514 1000.37 65.9381 1002.1 65.2C1004.1 64.4 1006.1 64 1008.5 64C1010.8 64 1012.9 64.4 1014.7 65.2C1016.5 66 1017.9 67.2 1019 68.6C1020 70 1020.5 71.6 1020.5 73.6H1014.7V73.5Z" fill="black"/>
</g>
<path d="M517.356 73.8499V61.3499H503.294V56.6499H517.356V44.1499H522.644V56.6499H536.706V61.3499H522.644V73.8499H517.356Z" fill="black"/>
<defs>
<linearGradient id="paint0_linear_1102_269" x1="118" y1="7.03335e-06" x2="2.11e-05" y2="118" gradientUnits="userSpaceOnUse">
<stop offset="0.231667" stop-color="#FF884D"/>
<stop offset="0.801667" stop-color="#E300BD"/>
</linearGradient>
<clipPath id="clip0_1102_269">
<rect width="412.607" height="118" fill="white"/>
</clipPath>
<clipPath id="clip1_1102_269">
<rect width="394" height="80" fill="white" transform="translate(627 19)"/>
</clipPath>
</defs>
</svg>
